<svg xmlns="http://www.w3.org/2000/svg" width="1538" height="906"><path fill="#fff" d="M0 0h1538v520H0z"/><path d="M1228.168 905.42c-.848-.345-.9-1.271-.188-3.317.903-2.59 1.32-2.793 4.791-2.327 3.149.422 4.076.12 5.391-1.758 2.53-3.612.577-6.217-4.013-5.356-3.521.66-3.576.621-2.898-2.082 2.154-8.582 2.359-8.11-4.06-9.382-7.641-1.516-14.952-5.796-20.568-12.042-8.432-9.378-11.356-18.866-10.516-34.117.428-7.77 1.09-10.799 3.54-16.201 7.497-16.535 24.621-24.966 47.638-23.456 4.983.327 11.31 1.176 14.06 1.886l5 1.291.288 9.25.288 9.25h-3.038c-1.791 0-3.037-.522-3.037-1.272 0-2.598-6.124-8.61-10.455-10.264-5.589-2.134-16.433-1.648-21.866.982-12.416 6.01-18.077 21.61-14.302 39.413 1.754 8.272 4.652 13.82 10.192 19.516 5.251 5.398 10.548 7.576 18.485 7.603 8.394.028 14.27-3.345 17.967-10.312 2.511-4.734 3.407-5.315 5.83-3.78 1.127.715 1.137 2.36.063 9.955l-1.288 9.098-4.563 1.577c-2.51.867-8.276 1.848-12.813 2.179-7.824.571-8.25.724-8.25 2.954 0 1.78.553 2.351 2.277 2.351 3.34 0 6.473 2.586 7.213 5.954.86 3.914-1.926 9.703-5.575 11.59-2.64 1.365-12.928 1.905-15.593.818zm-594.961-4.208c-8.657-2.552-16.123-6.402-25.103-12.945l-7.758-5.652-12-.615c-13.306-.683-17.955-2.168-26.562-8.486-18.96-13.919-19.65-49.337-1.294-66.576 13.818-12.978 38.127-15.66 55.625-6.136 23.622 12.857 26.13 50.785 4.671 70.652-3.33 3.083-6.591 5.607-7.247 5.609-2.044.007 21.456 12.862 28.328 15.496 7.592 2.91 16.462 3.3 22.96 1.007 4.726-1.668 5.534-1.468 6.327 1.565.464 1.772-.345 2.518-5.129 4.733-7.541 3.493-23.343 4.142-32.818 1.348zm-29.323-30.904c16.744-8.748 19.932-36.76 6.219-54.65-12.709-16.58-34.984-14.07-43.356 4.885-7.565 17.125 1.066 43.601 16.498 50.61 6.245 2.836 14.217 2.51 20.639-.845zM78.346 880.67c-4.593-2.004-9.632-8.24-17.595-21.774-12.234-20.792-14.527-23.838-17.942-23.838h-2.963l.02 11.25c.037 20.533 2.101 27.56 8.575 29.184 1.731.435 2.405 1.299 2.405 3.085v2.481h-41v-2.355c0-1.784.764-2.575 3.148-3.259 1.732-.496 4.094-2.17 5.25-3.718 2.051-2.748 2.102-3.748 2.102-41.669 0-37.92-.05-38.92-2.102-41.668-1.156-1.548-3.518-3.22-5.25-3.717-2.3-.66-3.148-1.494-3.148-3.098 0-2.186.113-2.198 25.399-2.849 26.913-.692 32.843-.18 40.43 3.492 6.626 3.208 12.15 12.928 12.165 21.41.018 9.71-7.203 20.675-16.731 25.409l-4.988 2.478 11.024 16.522c12.969 19.437 17.041 24.63 20.873 26.611 3.577 1.85 3.921 5.885.578 6.78-4.022 1.079-17.172.587-20.25-.757zm-25.023-55.727c13.406-3.722 17.93-22.35 7.785-32.053-4.769-4.56-9.833-6.216-16.297-5.327l-4.965.683v37.812l4.75-.006c2.612-.003 6.54-.502 8.727-1.11zm230.405 55.734c-5.48-1.958-10.648-5.446-13.384-9.032-4.972-6.519-5.494-9.946-5.555-36.463-.063-27.715-.585-30.76-5.672-33.124-2.043-.95-3.236-2.234-3.25-3.5-.02-1.922.64-2 16.98-2 16.962 0 17 .005 17 2.25-.001 1.512-.6 2.25-1.827 2.25-1.004 0-2.917 1.161-4.25 2.58l-2.424 2.58v27.17c0 25.57.122 27.403 2.077 31.13 3.05 5.813 9.132 8.803 16.954 8.334 8.417-.504 12.97-3.489 16.33-10.705 2.578-5.538 2.602-5.812 2.62-30.133.017-21.777-.18-24.847-1.744-27.234-.97-1.48-2.882-2.971-4.25-3.315-1.553-.39-2.487-1.334-2.487-2.515 0-1.762.924-1.892 13.5-1.892 12.575 0 13.5.13 13.5 1.892 0 1.177-.933 2.125-2.471 2.511-4.605 1.156-4.973 3.3-5.518 32.172l-.511 27.075-3.01 5.882c-3.554 6.943-9.308 11.743-16.716 13.942-6.248 1.856-20.876 1.938-25.892.145zm390 0c-5.542-1.98-10.657-5.458-13.488-9.169-4.714-6.18-5.39-10.75-5.45-36.859-.064-27.146-.602-30.235-5.673-32.591-2.043-.95-3.236-2.234-3.25-3.5-.02-1.922.64-2 16.98-2 16.802 0 17 .025 17 2.18-.001 1.466-.706 2.286-2.15 2.5-1.183.176-3.096 1.59-4.25 3.141-1.97 2.644-2.122 4.291-2.431 26.206-.38 26.923.371 32.602 4.933 37.267 8.253 8.441 25.405 6.083 30.266-4.16 3.062-6.451 3.847-14.534 3.47-35.698-.398-22.408-1.067-25.202-6.352-26.529-1.553-.39-2.487-1.334-2.487-2.515 0-1.762.924-1.892 13.5-1.892 12.542 0 13.5.133 13.5 1.879 0 1.134-1.16 2.359-2.928 3.091-1.61.667-3.273 1.96-3.694 2.872-.42.912-1.016 13.842-1.322 28.734l-.556 27.077-3.01 5.88c-3.554 6.941-9.31 11.742-16.716 13.941-6.248 1.856-20.876 1.938-25.892.145zm316.53-.042c-3.997-1.74-8.751-7.666-16.108-20.077-9.5-16.028-10.579-17.474-13.054-17.488-2.215-.012-2.25.187-2.25 12.52 0 14.953 1.248 19.168 5.955 20.11 2.367.473 3.045 1.136 3.045 2.983v2.375h-34v-2.375c0-1.847.677-2.51 3.044-2.984 5.697-1.14 6.1-3.847 5.759-38.656l-.303-30.827-2.425-2.579c-1.333-1.418-3.245-2.579-4.25-2.579-1.131 0-1.825-.728-1.825-1.915 0-1.65 1.015-2.01 7.335-2.602 4.034-.378 15.171-.515 24.75-.305 15.572.341 17.856.614 21.58 2.58 6.618 3.49 10.335 10.296 10.335 18.923 0 8.195-4.699 15.393-13.227 20.264-2.723 1.555-4.482 3.117-3.909 3.471.573.354 4.992 6.593 9.82 13.864 9.477 14.274 14.745 20.72 16.932 20.72 1.928 0 1.757 4.643-.198 5.393-2.838 1.089-13.844.561-17.006-.816zm-18.482-47.041c3.975-2.056 7.878-7 8.611-10.906.942-5.017-1.267-11.635-5.082-15.234-3.534-3.332-6.947-4.288-12.855-3.598l-3.604.42v30.782h5.05c2.777 0 6.323-.659 7.88-1.464zm445.123 46.868c-2.995-.805-5.626-1.643-5.845-1.863-.22-.22-.951-4.706-1.625-9.97l-1.227-9.571h2.822c1.552 0 2.822.373 2.822.829 0 2.601 6.562 10.265 10.367 12.107 10.285 4.979 22.638.291 22.63-8.587-.01-5.827-2.836-9.31-12.471-15.349-13.52-8.475-18.74-12.95-21.436-18.375-2.689-5.409-3.169-13.827-1.14-19.974 1.34-4.058 7.622-10.117 12.91-12.452 5.325-2.35 21.988-2.275 28.89.131l5.25 1.83v17.84h-2.892c-2.244 0-3.03-.555-3.514-2.482-1.048-4.176-6.41-9.391-10.896-10.6-12.003-3.231-21.617 9.083-14.082 18.038 1.44 1.71 7.963 6.733 14.498 11.162 12.658 8.58 17.334 13.25 18.9 18.882 3.449 12.391-2.278 23.336-14.627 27.956-6.627 2.48-20.962 2.699-29.334.448zm-1310.053-2.1c0-1.773.56-2.304 2.427-2.304 1.431 0 3.278-1.081 4.5-2.635 1.997-2.539 2.073-3.782 2.073-34.066 0-21.977-.35-32.087-1.164-33.615-1.49-2.797-3.864-4.612-6.086-4.652-1.192-.022-1.75-.83-1.75-2.532v-2.5h60V817.192l-2.626-.317c-1.977-.238-2.903-1.157-3.75-3.722-1.971-5.972-5.263-7.493-17.166-7.934l-10.458-.387v28.484l8.043-.466c8.766-.507 13.18-2.635 13.776-6.641.236-1.586 1.023-2.15 3-2.149l2.68.001V850.06h-2.75c-2.217 0-2.75-.454-2.75-2.345 0-4.466-3.334-6.121-13.103-6.505l-8.896-.35v14.043c0 16.926.155 17.157 11.573 17.157 11.26 0 17.13-2.852 20.07-9.75 1.484-3.487 4.947-4.483 6.004-1.727.698 1.818-2.12 13.557-4.237 17.65l-1.498 2.898-28.956-.232-28.956-.231v-2.304zm77 .321c0-1.83.677-2.51 2.945-2.964 5.277-1.055 5.527-2.536 5.866-34.661.352-33.448-.076-36.461-5.54-39-2.278-1.059-3.234-2.19-3.25-3.845l-.021-2.345 22.75.415c24.598.448 26.604.837 33.271 6.447 7.327 6.165 9.227 18.427 4.267 27.54-4.327 7.95-11.807 12.17-23.73 13.392l-6.247.64-1.552-3.872-1.552-3.872 3.695-.54c4.695-.687 9.793-3.66 12.493-7.286 1.536-2.062 2.086-4.225 2.036-8-.13-9.737-5.603-15.692-15.152-16.484l-5.403-.448.312 33.379c.34 36.403.5 37.426 6.062 38.565 2.07.425 2.75 1.151 2.75 2.939v2.375h-34v-2.375zm166-.365c0-1.55.594-2.26 1.889-2.26 1.039 0 2.952-.86 4.25-1.91l2.36-1.91.304-30.996c.339-34.697-.045-37.317-5.786-39.483-1.8-.68-3.017-1.858-3.017-2.92 0-1.62 1.386-1.804 15.25-2.031 29.183-.478 35.29-.15 40.036 2.147 6.153 2.978 9.027 7.29 9.534 14.3.228 3.152.137 6.837-.202 8.19-.986 3.925-5.647 8.718-10.8 11.106l-4.764 2.207 4.035 1.209c9.641 2.888 15.788 12.97 14.515 23.805-1.075 9.145-5 14.288-14.104 18.482-4.782 2.203-6.06 2.304-29.25 2.314l-24.25.01v-2.26zm44.102-7.53c5.097-3.405 7.12-8.041 6.552-15.015-.854-10.493-8.183-16.715-19.686-16.715h-6.112l.322 15.09c.308 14.466.42 15.17 2.683 17 3.453 2.794 11.797 2.609 16.24-.36zm-4.13-41.553c6.14-2.352 9.37-7.159 8.732-12.99-.858-7.833-7.171-12.187-17.672-12.187h-6.032v27l5.25-.054c2.887-.03 7.262-.826 9.722-1.769zm41.028 49.14c0-1.617.689-2.266 2.65-2.5 1.491-.178 3.57-1.553 4.75-3.14 2.026-2.724 2.1-3.905 2.1-33.5 0-24.587-.28-31.173-1.414-33.177-1.766-3.124-4.065-4.927-6.336-4.968-1.139-.02-1.75-.818-1.75-2.282 0-2.25 0-2.25 18-2.25s18 0 18 2.25c0 1.562-.595 2.25-1.944 2.25-1.07 0-3.207 1.086-4.75 2.412l-2.806 2.413-.29 31.538-.29 31.538 2.558 1.677c2.026 1.327 4.192 1.582 10.391 1.223 9.516-.55 13.972-2.905 16.623-8.784 1.764-3.911 3.63-4.861 6.265-3.188.989.627.827 2.475-.757 8.67-1.107 4.33-2.709 8.934-3.56 10.231l-1.545 2.36-27.947-.295-27.948-.295v-2.184zm70 .308c0-1.847.677-2.51 3.044-2.984 5.522-1.104 5.956-3.832 5.952-37.359-.003-27.843-.132-29.992-1.969-33.005-1.08-1.773-3.104-3.51-4.496-3.859-1.723-.432-2.531-1.319-2.531-2.776 0-2.105.292-2.142 17-2.142s17 .037 17 2.142c0 1.447-.806 2.344-2.488 2.765-1.368.344-3.28 1.835-4.25 3.314-1.586 2.42-1.762 5.744-1.762 33.234 0 33.953.407 36.676 5.643 37.724 2.18.436 2.857 1.134 2.857 2.946v2.375h-34v-2.375zm239-.18c0-1.646.762-2.347 3.044-2.804 5.523-1.105 5.956-3.824 5.956-37.461 0-29.466-.032-29.932-2.285-33.282-1.256-1.869-3.281-3.542-4.5-3.718-1.592-.23-2.215-1.003-2.215-2.75v-2.43h59v10.5c0 10.403-.022 10.5-2.389 10.5-1.933 0-2.513-.66-3.038-3.459-1.115-5.944-5.2-7.94-17.155-8.382l-10.117-.375-.65 4.748c-.358 2.61-.651 9.023-.651 14.249v9.5l8.507-.53c9.367-.584 13.074-2.233 14.085-6.264.448-1.782 1.302-2.487 3.016-2.487h2.392v26h-2.5c-1.702 0-2.51-.558-2.532-1.75-.09-4.95-4.849-7.25-14.998-7.25h-8.162l.346 14.082c.419 17.058.317 16.918 12.325 16.918 10.598 0 16.11-2.539 18.995-8.75 1.453-3.128 2.56-4.25 4.19-4.25 1.22 0 2.522.492 2.894 1.094.911 1.474-3.525 17.73-5.332 19.536-1.192 1.193-6.27 1.401-29.831 1.223l-28.395-.215v-2.194zm110 .235c0-1.64.932-2.738 3.178-3.75 1.749-.786 4.111-2.7 5.25-4.254 2.009-2.738 2.072-3.966 2.072-40.5 0-42.381-.08-42.892-6.983-45.17-2.736-.903-3.517-1.7-3.517-3.584v-2.422h70v25h-3c-2.444 0-3-.417-3.004-2.25-.006-3.68-3.772-8.755-7.768-10.47-2.365-1.014-7.842-1.77-14.978-2.065l-11.25-.467v34.252l8.25-.056c10.996-.076 14.76-1.44 17.082-6.194 1.494-3.058 2.371-3.75 4.75-3.75h2.918V843.186l-3.21-.314c-2.206-.215-3.38-.94-3.75-2.313-1.587-5.882-7.707-8.5-19.87-8.5h-6.393l.407 17.75c.465 20.257 1.317 23.217 7.306 25.383 2.627.95 3.51 1.847 3.51 3.568v2.299h-41v-2.32zm160-.18c0-1.827.534-2.5 1.986-2.5 3.064 0 6.563-6.232 14.17-25.234 10.185-25.445 19.844-51.318 19.844-53.156 0-1.257 1.041-1.606 4.75-1.59l4.75.02 13.488 34.572c14.647 37.541 17.347 43.377 20.762 44.875 1.38.605 2.25 1.863 2.25 3.25 0 2.262-.01 2.263-17 2.263h-17v-2.375c0-1.834.677-2.51 2.973-2.97 4.298-.86 4.557-3.768 1.217-13.655l-2.872-8.5H1035.53l-2.375 7c-2.993 8.82-2.82 14.857.44 15.32 1.628.23 2.25.99 2.25 2.75v2.43h-26v-2.5zm46-35.016c0-1.522-7.346-21.484-7.906-21.484-.365 0-1.384 1.913-2.265 4.25-.882 2.338-2.759 7.288-4.171 11l-2.569 6.75h8.456c4.65 0 8.455-.232 8.455-.516zm43 35.141c0-1.788.68-2.514 2.75-2.939 5.41-1.108 5.652-2.517 6.073-35.218.433-33.736.01-36.573-5.806-38.767-1.8-.68-3.017-1.858-3.017-2.92 0-1.603 1.127-1.78 11.25-1.779l11.25.002 6.5 8.227c3.575 4.524 12.8 15.67 20.5 24.768 7.7 9.098 15.032 17.882 16.293 19.521l2.293 2.98-.324-22.591c-.353-24.616-.912-27.156-6.275-28.502-1.553-.39-2.487-1.334-2.487-2.516 0-1.762.924-1.891 13.5-1.891 12.671 0 13.5.118 13.5 1.93 0 1.21-.803 2.05-2.15 2.25-1.182.176-3.095 1.59-4.25 3.141-2.03 2.729-2.11 4.044-2.407 39.75l-.306 36.929h-4.36c-3.943 0-4.675-.406-7.665-4.25-2.644-3.399-45.009-55.87-46.627-57.75-.236-.275-.233 10.75.01 24.5.488 27.882 1.096 31.218 5.873 32.173 2.208.442 2.885 1.134 2.885 2.952v2.375h-27v-2.375zm175-.125c0-1.486.572-2.5 1.41-2.5 1.977 0 5.684-4.692 8.33-10.545 3.681-8.14 20.795-52.314 23.732-61.256l2.726-8.3 4.47.3 4.47.301 13.267 34c7.297 18.7 14.069 35.575 15.048 37.5 2.236 4.394 5.49 8 7.221 8 .748 0 1.326 1.09 1.326 2.5v2.5h-34v-2.5c0-1.74.547-2.5 1.8-2.5 4.84 0 5.288-4.226 1.618-15.247l-2.582-7.753h-23.471l-2.129 6.75c-4.02 12.75-3.829 16.25.886 16.25 1.336 0 1.878.721 1.878 2.5v2.5h-26v-2.5zm42.43-44.75c-1.89-5.637-3.705-10.925-4.033-11.75-.355-.896-2.355 2.93-4.965 9.5-2.404 6.05-4.385 11.338-4.401 11.75-.017.413 3.764.75 8.403.75h8.434l-3.438-10.25zm45.57 44.75c0-1.956.51-2.5 2.345-2.5 1.29 0 3.202-.947 4.25-2.103 1.773-1.959 1.925-4.258 2.199-33.25.161-17.131.044-32.147-.263-33.37-.712-2.849-4.382-6.277-6.72-6.277-1.211 0-1.811-.745-1.811-2.25 0-2.245.037-2.25 16.999-2.25 16.35 0 17 .077 17 2.006 0 1.25-1.088 2.488-2.893 3.287-1.592.704-3.358 2.502-3.926 3.994-1.457 3.832-2.286 35.036-1.378 51.894.633 11.758 1.083 14.535 2.636 16.25 1.03 1.138 2.702 2.069 3.717 2.069 1.301 0 1.845.737 1.845 2.5v2.5h-34v-2.5zm112-.18c0-1.79.555-2.32 2.427-2.32 1.432 0 3.278-1.081 4.5-2.635 1.997-2.539 2.073-3.782 2.073-34.066 0-21.977-.35-32.087-1.163-33.615-1.49-2.797-3.865-4.612-6.087-4.652-1.192-.022-1.75-.83-1.75-2.532v-2.5h60V817.192l-2.626-.317c-1.977-.238-2.903-1.157-3.75-3.722-1.971-5.972-5.263-7.493-17.166-7.934l-10.458-.387v28.227l6.25-.056c8.676-.079 12.907-1.706 14.75-5.672 1.098-2.365 2.169-3.234 4-3.249l2.5-.02v25.997h-2.75c-2.218 0-2.75-.454-2.75-2.345 0-4.466-3.335-6.12-13.104-6.505l-8.896-.349v14.043c0 16.926.155 17.156 11.573 17.156 11.26 0 17.13-2.852 20.07-9.75 1.484-3.486 4.947-4.482 6.004-1.727.698 1.818-2.12 13.558-4.237 17.651l-1.498 2.897-28.956-.215-28.956-.215v-2.32zM133.902 787.136l-2.444-1.878 5.944-9.084c3.269-4.996 6.582-9.09 7.362-9.1 3.381-.037 14.148 2.277 13.878 2.983-.537 1.406-20.274 18.99-21.296 18.974-.55-.01-2.1-.862-3.444-1.895zM6.846 718.06h1523v9h-1523v-9zm579.637-20.465c-8-2.852-12.498-10.308-11.041-18.3.982-5.385 4.03-9.154 9.428-11.655l4.724-2.188-2.874-1.65c-1.634-.937-2.874-2.499-2.874-3.618 0-1.809 7.332-9.124 9.146-9.124.432 0-.195-1.664-1.395-3.697-5.12-8.68-1.024-21.228 8.537-26.148 5.176-2.664 6.924-2.777 25.048-1.616 10.426.668 10.814.775 10.264 2.828-.315 1.173-.58 2.47-.587 2.883-.008.413-1.77.75-3.918.75h-3.906l.528 5.814c1.15 12.684-7.871 21.371-22.434 21.604-7.565.121-11.226 1.725-8.275 3.626.82.528 5.704 2.324 10.853 3.99 16.556 5.358 19.615 8.054 18.91 16.664-.734 8.942-7.927 16.739-18.333 19.87-5.959 1.794-16.723 1.778-21.801-.033zm22.266-6.174c8.118-4.045 11.635-11.754 7.195-15.772-2.991-2.707-15.981-6.862-19.347-6.19-6.854 1.371-13.256 9.727-12.074 15.759 1.624 8.29 13.788 11.404 24.226 6.203zm2.677-45.247c6.095-3.716 8.449-14.265 4.347-19.48-5.61-7.132-16.29.818-16.39 12.203-.03 3.537.48 4.78 2.769 6.75 3.373 2.901 5.21 3.006 9.274.527zm37.92 23.205c-4.393-.897-6.747-3.83-7.246-9.028-1.28-13.31 9.919-32.817 22.45-39.11 6.515-3.271 19.364-3.601 27.924-.717.768.258.2 3.677-1.779 10.708-3.87 13.751-6.087 27.515-4.814 29.894.835 1.56 1.428 1.669 4.078.745 2.447-.853 3.287-.79 3.978.304 1.44 2.275.565 3.14-5.15 5.094-7.681 2.627-11.198 2.115-12.353-1.798l-.911-3.09-4.095 2.289c-6.912 3.863-16.36 5.878-22.082 4.709zm17.287-8.99c2.908-1.382 5.94-3.51 6.74-4.729 1.335-2.038 5.408-17.04 6.998-25.776.652-3.58.572-3.703-3.063-4.707-6.717-1.854-13.472 3.044-18.853 13.67-5.644 11.147-7.068 21.078-3.39 23.654 2.497 1.749 4.027 1.47 11.568-2.113zm473.469 8.696c-4.488-1.065-6.07-2.623-7.297-7.178-1.86-6.908 2.444-19.975 9.763-29.641 8.765-11.575 18.507-15.482 32.892-13.19 3.787.602 7.184 1.408 7.547 1.79.364.382-.9 6.769-2.808 14.194-1.908 7.425-3.556 16.425-3.661 20l-.192 6.5 4.25-.19c3.813-.17 4.25.046 4.25 2.092 0 1.91-.94 2.566-5.77 4.028-7.947 2.407-11.636 1.892-12.047-1.68-.174-1.512-.498-2.75-.721-2.75-.223 0-2.838 1.076-5.811 2.39-4.784 2.117-14.534 4.788-16.45 4.508-.386-.057-2.16-.45-3.945-.873zm16.744-8.56c2.475-1.237 5.23-3.085 6.121-4.107 2.213-2.535 6.185-15.587 8.24-27.078.549-3.063.383-3.272-3.404-4.291-3.24-.873-4.63-.763-7.478.588-6.349 3.013-12.648 13.232-15.915 25.817-3.129 12.054.772 14.9 12.436 9.071zM72.342 666.809c-.298-1.237 1.485-10.54 3.962-20.671 4.883-19.976 4.841-21.599-.51-20.064-2.647.76-2.948.613-2.948-1.426 0-1.905.93-2.544 5.75-3.951 3.162-.923 7.325-1.782 9.25-1.908 3.295-.217 3.519-.033 3.82 3.124.178 1.845-1.547 10.986-3.832 20.313-2.285 9.327-3.887 17.655-3.56 18.507.474 1.234 1.524 1.41 5.162.865 4.353-.653 4.553-.577 4.239 1.606-.26 1.807-1.493 2.656-5.83 4.012-3.024.947-7.628 1.748-10.23 1.782-4.104.053-4.803-.237-5.273-2.189zm38.445.404l-2.28-1.846 7.747-34.035c4.261-18.72 7.6-35.326 7.42-36.904-.337-2.942-.699-3.094-4.578-1.917-1.919.582-2.25.312-2.25-1.838 0-2.912 3.512-4.32 13.25-5.308 5.579-.566 5.75-.512 5.75 1.84 0 1.332-1.575 9.56-3.5 18.283s-3.5 16.445-3.5 17.16c0 .97 1.1.812 4.34-.622 11.138-4.926 20.846-4.665 24.33.653 3.263 4.98 1.574 17.868-3.727 28.432-2.758 5.497-10.965 14.053-15.422 16.077-5.855 2.66-24.305 2.677-27.58.025zm25.305-6.341c5.014-3.548 10.603-15.54 12.18-26.13 1.579-10.61-5.434-12.726-16.634-5.02-2.366 1.628-4.264 4.05-5.244 6.694-1.813 4.892-5.548 20.856-5.548 23.714 0 4.208 9.682 4.679 15.246.742zm38.19 5.12c-2.708-2.828-2.931-3.625-2.875-10.25.144-16.88 9.74-31.988 22.96-36.146 6.595-2.074 12.397-1.371 16.287 1.974 2.242 1.93 2.692 3.135 2.692 7.225 0 10.296-9.389 18.105-22.9 19.048-3.905.273-7.43.995-7.835 1.606-1.126 1.7-.902 7.482.384 9.926 2.496 4.74 6.076 4.852 14.65.455 5.342-2.74 6.44-3.006 7.234-1.75 1.768 2.794.95 3.672-6.828 7.321-6.476 3.04-8.897 3.658-14.313 3.658-5.969 0-6.766-.258-9.455-3.067zm17.908-24.012c8.508-2.362 14.12-11.457 9.76-15.817-2.75-2.749-5.291-2.659-8.824.313-2.813 2.367-7.384 9.868-8.734 14.333-.57 1.883-.303 2.25 1.636 2.244 1.275-.003 4.048-.486 6.162-1.073zm33.656 26.738c0-.166 1.797-7.92 3.994-17.23 2.196-9.311 3.996-18.899 4-21.307l.006-4.378-4 .64c-3.546.567-4 .413-4-1.359 0-2.193 3.233-3.872 11.35-5.895 5.553-1.384 7.65-.435 7.65 3.462V625l3.549-2.409c6.243-4.236 10.056-5.013 14.586-2.97 2.17.979 3.808 2.265 3.64 2.86-2.716 9.57-4.26 12.579-6.458 12.579-1.966 0-2.317-.512-2.317-3.378 0-7.275-6.33-7.327-10.919-.09-2.86 4.51-5.817 14.766-8.164 28.318-.7 4.042-1.756 7.491-2.345 7.665-1.76.517-10.572 1.471-10.572 1.144zm50.162-.963c-1.104-1.33-.497-4.924 5.22-30.946l2.362-10.75h-3.372c-1.855 0-3.372-.255-3.372-.566 0-1.563 2.239-4.434 3.458-4.434 2.438 0 7.12-4.735 9.084-9.187 2.196-4.977 3.069-5.777 6.333-5.798 2.148-.013 2.313.295 1.723 3.235a222.443 222.443 0 0 0-1.253 7l-.6 3.75h4.627c4.727 0 5.423.765 4.02 4.418-.436 1.138-1.95 1.582-5.39 1.582-5.56 0-4.647-2-9.083 19.9-3.258 16.086-3.038 17.568 2.376 16.015 4.519-1.296 4.883-1.188 4.524 1.335-.242 1.707-1.526 2.653-5.32 3.92-6.122 2.044-13.856 2.31-15.337.526zm40.337-1.291c-7.318-7.897-2.023-30.355 9.628-40.83 4.754-4.274 12.177-7.575 17.034-7.575 3.075 0 9.849 3.15 10.868 5.055 1.612 3.011 1.11 10.205-.948 13.58-4.216 6.914-13.305 11.365-23.207 11.365h-5.874v5.278c0 10.244 4.257 12.042 15.449 6.523 3.567-1.76 6.683-2.997 6.924-2.75.24.247.592 1.349.782 2.449.277 1.605-1.113 2.74-7.042 5.75-6.42 3.26-8.291 3.75-14.298 3.75-6.155 0-7.174-.284-9.316-2.595zm17.602-24.558c5.284-1.792 8.99-4.82 10.59-8.652 1.348-3.224 1.31-3.717-.463-6.101-2.748-3.696-5.447-3.719-9.589-.082-3.195 2.805-8.64 12.211-8.64 14.926 0 1.395 3.848 1.352 8.102-.091zm375.565 26.486c-1.412-1.412-.496-7.312 4.301-27.71 6.526-27.75 10.033-44.088 10.033-46.737 0-1.896-.41-2.081-3.5-1.58-3.185.517-3.5.352-3.5-1.83 0-2.502 2.495-3.61 12.431-5.519 5.132-.985 6.569-.335 6.569 2.975 0 1.494-3.372 17.309-7.494 35.143-4.121 17.834-7.496 33.949-7.5 35.81l-.007 3.387 4.569-.626c4.295-.589 4.549-.494 4.25 1.582-.246 1.708-1.566 2.6-5.819 3.93-5.617 1.757-13.135 2.373-14.333 1.175zm37.697-.554c-1.227-1.986-.525-6.316 3.733-23.038 2.218-8.708 3.864-16.6 3.659-17.537-.395-1.799-.645-1.84-5.005-.813-2.323.547-2.75.326-2.75-1.423 0-2.384 4.268-4.502 12.045-5.977 5.555-1.053 7.955-.514 7.955 1.789 0 .86-2.038 10.06-4.528 20.443-2.49 10.383-4.23 19.359-3.868 19.945.404.654 2.38.832 5.096.46 4.154-.57 4.416-.468 4.118 1.6-.246 1.708-1.566 2.6-5.818 3.93-6.508 2.035-13.577 2.335-14.637.62zm36.934-.447c-.352-.917-.084-4.18.596-7.25 2.23-10.079 7.107-33.146 7.107-33.619 0-.255-1.383-.463-3.074-.463-4.34 0-3.53-2.795 1.575-5.433 3.039-1.571 4.792-3.567 7.304-8.317 2.86-5.408 3.685-6.25 6.126-6.25h2.82l-1.34 6.25c-.738 3.438-1.357 6.588-1.376 7-.02.413 2.215.75 4.965.75 5.224 0 5.346.105 4.37 3.75-.527 1.966-1.257 2.25-5.778 2.25h-5.175l-3.363 16.876c-1.85 9.282-3.092 17.582-2.761 18.445.486 1.269 1.234 1.388 3.898.624 4.583-1.314 4.809-1.247 4.809 1.423 0 2.033-.825 2.6-5.816 4-7.748 2.174-14.045 2.16-14.887-.036zm41.181-.597c-2.489-2.14-2.92-3.315-3.277-8.917-.802-12.586 4.96-26.795 13.513-33.326 9.446-7.212 19.762-8.17 25.559-2.373 2.69 2.69 2.927 3.448 2.493 7.966-.952 9.905-10.445 17.1-23.434 17.76-8.124.414-8.978 1.39-7.385 8.433 1.735 7.668 4.886 8.455 14.896 3.72 6.63-3.137 8.157-3.135 8.157.01 0 3.196-12.002 8.33-20.578 8.803-6.382.352-7.358.148-9.944-2.076zm21.504-26.726c6.236-3.181 8.912-10.258 5.363-14.18-4.468-4.937-12.738 1.528-16.844 13.167l-1.509 4.277 4.507-.618c2.479-.34 6.296-1.53 8.483-2.646zm239.018 28.622c0-.15 1.797-7.892 3.994-17.203 2.196-9.31 3.996-18.898 4-21.306l.01-4.378-4 .64c-3.534.565-4 .409-4-1.337 0-2.428 1.76-3.412 9.86-5.51 7.04-1.825 9.14-1.122 9.14 3.055V625l3.549-2.409c6.224-4.224 10.059-5.012 14.546-2.988 2.148.968 3.905 2.03 3.905 2.359 0 .329-1.008 3.41-2.241 6.848-1.85 5.16-2.635 6.25-4.5 6.25-1.9 0-2.26-.538-2.26-3.378 0-6.835-5.876-7.345-10.264-.89-3.336 4.908-5.043 10.235-7.778 24.268-1.233 6.325-2.515 11.78-2.85 12.121-.6.613-11.107 2.042-11.107 1.51zm115.337-1.195c-.82-2.138.127-8.298 3.989-25.936l3.284-15-2.805-.313c-3.356-.375-3.922-3.698-.8-4.689 3.515-1.115 7.575-5.239 9.537-9.685 2.196-4.977 3.069-5.777 6.333-5.798 2.148-.013 2.313.295 1.723 3.235a222.473 222.473 0 0 0-1.253 7l-.6 3.75h4.627c4.727 0 5.423.765 4.02 4.418-.436 1.138-1.95 1.582-5.39 1.582-5.56 0-4.647-2-9.083 19.9-3.258 16.086-3.038 17.568 2.376 16.015 4.519-1.296 4.883-1.188 4.524 1.335-.242 1.707-1.526 2.653-5.32 3.92-6.656 2.223-14.36 2.358-15.162.266zm40.347-1.024c-7.58-7.58-2.34-30.243 9.444-40.837 4.753-4.274 12.176-7.575 17.033-7.575 3.075 0 9.849 3.15 10.868 5.055 1.612 3.011 1.11 10.205-.948 13.58-4.236 6.946-13.305 11.365-23.327 11.365h-5.995l.444 6.134c.705 9.742 4.284 11.073 15.246 5.667 3.568-1.76 6.683-2.997 6.924-2.75.24.247.592 1.349.782 2.449.277 1.605-1.113 2.74-7.042 5.75-6.362 3.23-8.32 3.75-14.114 3.75-5.903 0-7.043-.317-9.315-2.588zm20.964-26.062c6.995-3.476 10.129-11.537 5.769-14.836-2.896-2.191-4.997-1.822-8.842 1.554-3.217 2.825-8.575 12.198-8.575 15.002 0 1.655 6.91.635 11.648-1.72zm30.352 27.79c0-.421 1.826-8.53 4.058-18.021 2.232-9.49 3.92-18.688 3.75-20.438-.289-2.981-.537-3.168-3.953-2.973-2.857.163-3.753-.208-4.147-1.717-.41-1.565.456-2.278 4.644-3.823 2.831-1.045 6.836-2.206 8.898-2.58 3.878-.702 3.812-.756 6.239 5.115.046.112 2.718-1.126 5.938-2.75 6.89-3.476 8.046-3.572 12.235-1.017l3.163 1.928-2.163 6.544c-1.804 5.46-2.535 6.548-4.412 6.568-1.884.02-2.25-.513-2.25-3.276 0-8.714-8.293-6.99-12.833 2.667-1.14 2.426-3.4 10.791-5.02 18.588-1.62 7.798-3.104 14.31-3.297 14.471-.88.738-10.85 1.394-10.85.714zm50 .004c0-.45 1.605-7.079 3.568-14.73 2.143-8.357 3.64-16.71 3.75-20.914l.182-7-3.626.278c-2.85.219-3.732-.126-4.12-1.608-.403-1.542.443-2.172 4.626-3.446 9.092-2.769 11.233-2.967 12.996-1.204.893.893 1.624 2.716 1.624 4.052 0 1.336.184 2.428.41 2.428.226 0 3.195-1.317 6.6-2.926 8.06-3.812 18.742-5.812 21.93-4.105 2.082 1.113 2.23 1.689 1.622 6.272-.368 2.775-1.986 10.494-3.595 17.152-1.61 6.66-3.049 13.682-3.197 15.607-.27 3.5-.27 3.5 3.937 3.417 2.875-.056 4.39.392 4.783 1.418.792 2.065-.152 2.739-6.422 4.575-7.112 2.083-13.66 2.099-14.45.036-.329-.855 1.198-9.572 3.392-19.37 4.4-19.648 4.652-21.884 2.563-22.686-2.157-.828-9.808 2.925-14.374 7.05-3.758 3.394-4.239 4.45-6.546 14.362-1.37 5.884-2.809 12.872-3.197 15.528-.39 2.656-1.213 4.98-1.832 5.165-3.033.905-10.624 1.369-10.624.65zm68.586-.779c-.345-.899 1.44-10.162 3.967-20.586 2.527-10.423 4.36-19.562 4.073-20.31-.4-1.041-1.292-1.138-3.817-.414-1.813.52-3.411.945-3.553.945-.14 0-.256-1.042-.256-2.317 0-1.927.884-2.585 5.25-3.905 11.848-3.583 15.508-2.975 14.311 2.377-.288 1.29-2.349 9.965-4.58 19.279-2.23 9.313-3.804 17.585-3.498 18.383.425 1.107 1.63 1.303 5.105.826 4.274-.585 4.53-.49 4.23 1.586-.616 4.275-19.748 8.002-21.232 4.136zm37.729.013c-.667-1.738.143-6.512 4.051-23.878 4.321-19.199 4.259-17.5.64-17.5-4.397 0-3.665-2.758 1.442-5.433 2.938-1.539 4.75-3.599 7.095-8.067 2.56-4.878 3.67-6.061 5.943-6.33 3.036-.358 3.058-.104.915 10.58l-.651 3.25h5.232c4.36 0 5.13.264 4.625 1.582-.334.87-.607 2.22-.607 3 0 1.049-1.402 1.418-5.375 1.418h-5.375l-3.302 16.818c-1.816 9.25-3.021 17.55-2.678 18.446.511 1.33 1.225 1.455 3.92.682 4.584-1.315 4.81-1.248 4.81 1.423 0 2.032-.825 2.6-5.816 4-7.67 2.152-14.046 2.156-14.87.01zm41.108-.692c-2.864-2.466-2.923-2.716-2.923-12.405 0-9.425.177-10.248 3.778-17.53 4.417-8.936 9.487-13.77 17.636-16.82 14.195-5.31 24.39 3.712 18.108 16.025-3.551 6.962-13.026 11.988-22.664 12.023-5.79.02-6.18.172-6.801 2.65-.836 3.33.209 8.354 2.21 10.621 2.273 2.578 6.183 2.147 13.159-1.45 5.202-2.684 6.356-2.967 7.125-1.75 1.771 2.799.893 3.875-5.801 7.11-5.154 2.49-8.424 3.354-13.828 3.652-6.416.353-7.35.155-10-2.126zm21.78-26.92c6.758-3.798 9.013-11.267 4.329-14.336-1.847-1.21-3.168-1.385-5.25-.695-3.527 1.17-8.563 7.706-10.645 13.817l-1.607 4.716 4.59-.629c2.525-.346 6.388-1.639 8.583-2.873zM.031 666.337c.186-.965 1.233-1.92 2.326-2.12 2.97-.544 5.564-3.178 7.59-7.704 2.688-6.003 10.981-47.753 11.206-56.408.19-7.382.162-7.474-3.019-9.5-6.205-3.953-4.546-4.546 12.712-4.546 13.672 0 16 .222 16 1.525 0 .898-1.247 1.774-3.03 2.131-6.378 1.276-8.799 7.571-14.82 38.541-5.626 28.942-5.571 28.382-3.044 30.91 1.92 1.92 2.966 2.084 10.76 1.692 10.485-.527 14.273-2.292 17.935-8.355 2.885-4.776 3-4.856 5.068-3.546 1.148.727 1.105 1.654-.266 5.735-.9 2.677-2.655 6.667-3.9 8.867l-2.266 4-26.795.266c-25.09.25-26.774.155-26.457-1.488zm505.815.304c0-.78 1.687-2.242 3.75-3.25 2.613-1.276 4.415-3.196 5.943-6.332 2.865-5.88 11.525-48.467 11.684-57.456.12-6.793.048-7.004-3.089-9-6.71-4.271-5.194-4.544 25.28-4.544 27.954 0 28.553.042 27.942 1.968-.343 1.082-1.186 5.02-1.872 8.75-1.058 5.753-1.58 6.83-3.443 7.102-1.786.26-2.195-.172-2.195-2.316 0-6.639-3.94-8.504-17.958-8.504h-9.66l-2.773 12.75c-1.525 7.013-2.992 13.538-3.259 14.5-.436 1.572.413 1.749 8.332 1.735 9.958-.016 12.894-1.079 15.816-5.725 2.6-4.134 5.992-4.467 5.204-.51-.301 1.513-1.345 6.913-2.319 12-1.397 7.296-2.126 9.25-3.452 9.25-1.061 0-1.899-1.087-2.27-2.946-.325-1.623-1.616-3.497-2.875-4.175-2.4-1.29-18.126-1.866-19.29-.706-.673.67-3.626 15.083-4.921 24.02-.623 4.295-.464 4.834 1.883 6.371 2.06 1.35 4.274 1.594 11.302 1.24 10.435-.525 14.143-2.19 18.435-8.278 1.857-2.635 3.614-4.153 4.439-3.836 1.945.746 1.715 2.534-1.234 9.59-4.373 10.464-1.882 9.72-32.555 9.72-22.503 0-26.845-.23-26.845-1.418zm508 .021c0-.796 1.462-1.946 3.25-2.556 6.313-2.152 8.4-7.855 14.715-40.224 5.44-27.874 5.306-32.333-1.026-34.342-1.127-.358-1.875-1.175-1.661-1.816.28-.84 8.108-1.239 28.127-1.43 27.267-.262 27.729-.233 27.11 1.717-.346 1.09-1.19 5.035-1.877 8.766-1.058 5.753-1.58 6.83-3.443 7.102-1.853.27-2.195-.16-2.195-2.75 0-6.314-4.877-8.397-18.436-7.875l-7.936.305-2.78 13c-1.53 7.15-2.795 13.563-2.814 14.25-.05 1.846 15.23 1.682 18.875-.203 1.545-.799 3.377-2.824 4.071-4.5.774-1.867 1.99-3.047 3.141-3.047 2.328 0 2.343-.726-.272 12.75-1.834 9.446-2.478 11.25-4.017 11.25-1.107 0-1.832-.722-1.832-1.826 0-4.666-9.349-8.136-17.989-6.676l-3.822.646-2.028 11.178c-3.577 19.712-3.426 21.497 2.006 23.747 5.98 2.477 2.528 3.425-13.5 3.706-13.136.231-15.667.042-15.667-1.172zM427.24 645.15c-4.473-2.03-8.394-8.309-8.394-13.439 0-7.944 7.022-15.048 14.846-15.02 9.358.033 15.143 5.75 15.15 14.97.009 11.717-10.734 18.425-21.602 13.49zm508.985.472c-1.717-.747-4.401-3.036-5.966-5.088-2.32-3.042-2.831-4.688-2.77-8.923.133-9.187 5.846-14.838 15.001-14.838 4.537 0 6.048.493 9.145 2.985 6.903 5.552 7.976 14.861 2.468 21.408-4.63 5.502-11.526 7.221-17.878 4.456zM338.364 610.08c-1.967-2.173-2.109-1.946 9.256-14.886l3.834-4.365 5.696 1.275c3.133.7 5.696 1.576 5.696 1.946 0 .674-21.412 18.01-22.245 18.01-.245 0-1.252-.891-2.237-1.98zm508.753-.001l-2.218-1.796 7.548-8.612c4.152-4.736 7.931-8.61 8.398-8.61 2.439 0 11.01 2.457 10.775 3.089-.248.665-18.879 15.647-21.28 17.112-.552.338-2.003-.195-3.223-1.183zm664.765.009l-2.413-1.82 7.812-8.604c4.296-4.732 8.171-8.604 8.611-8.604 1.98 0 10.949 2.404 10.906 2.922-.045.541-18.928 15.777-21.382 17.252-.616.37-2.206-.145-3.534-1.146zm-1427.14-5.132c-4.064-4.064-.098-11.896 6.023-11.896 4.258 0 6.48 2.234 6.48 6.512 0 6.673-7.839 10.049-12.503 5.384zm674.854.712c-2.458-1.866-2.312-8.046.25-10.608 4.124-4.125 12-1.432 12 4.102 0 5.994-7.604 10.033-12.25 6.506zm664.146-.712c-4.135-4.135-.08-11.896 6.215-11.896 6.281 0 8.973 7.007 4.434 11.545-3.08 3.081-7.765 3.235-10.65.35zm-876.1-28.584c-1.528-1.703-1.163-2.314 6.07-10.183l7.697-8.37 5.718 1.28c3.145.703 5.696 1.545 5.668 1.87-.08.951-20.162 16.334-21.924 16.795-.882.23-2.335-.396-3.23-1.392z"/><path d="M880.1 520l2.333-6.033c3.953-10.9 8.054-19.217 13.971-28.343 6.269-9.667 20.067-23.907 25.807-26.632 7.054-3.35 15.824-4.53 26.669-3.587 9.312.81 37.925 5.488 49.471 8.09 8.788 1.98 21.655 2.169 27.71.408 11.665-3.394 18.577-9.954 21.856-20.747 2.517-8.28 2.493-15.804-.066-20.823-3.436-6.74-2.85-8.493 5.5-16.479 4.125-3.944 7.506-7.591 7.513-8.105.035-2.67-5.68-13.39-7.152-13.414-.901-.015-2.682-.872-3.958-1.906l-2.319-1.879 4.958-2.534c6.77-3.461 11.792-8.843 11.792-12.639 0-1.64-1.427-5.659-3.17-8.932-3.346-6.28-4.24-12.282-2.357-15.804 1.245-2.327 3.39-3.306 13.933-6.353 8.86-2.561 12.062-5.157 13.325-10.8 1.08-4.827.55-7.93-2.349-13.73-2.36-4.721-17.73-28.269-22.208-34.022-6.016-7.73-13.345-21.086-15.513-28.27-2.137-7.08-2.151-7.481-.592-16.634 3.296-19.35 1.369-35.39-8.01-66.67-6.97-23.246-8.841-28.89-11.024-33.239-3.946-7.863-3.419-9.703 4.677-16.33 3.875-3.173 7.475-6.572 8-7.554 2.445-4.57-.288-13.377-4.92-15.858-2.94-1.574-4.576-.493-7.56 4.994-2.262 4.158-3.148 4.945-5.569 4.945-3.94 0-4.63-1.652-2.114-5.058 2.933-3.97 2.7-4.606-1.907-5.225-3.45-.463-5.272-1.81-12.75-9.426-10.025-10.21-16.76-14.914-30.185-21.087-6.155-2.83-8.298-4.169-6.04-3.774 1.925.337 8.73.875 15.125 1.196 18.553.931 23.062-1.52 27.386-14.885 2.936-9.075 4.344-13.271-2.393-19.607L983.246 0H1538v520H880.1z" fill="#e2011c"/><path d="M407.033 520c-4.026-.423-7.517-.606-7.758-.847-.423-.424 4.124-3.347 24.95-16.039 6.679-4.07 9.427-6.253 8.5-6.749-.755-.403-6.586-1.043-12.958-1.42-9.467-.562-12.21-.401-15 .88-1.878.864-9.372 3.133-16.653 5.044-18.06 4.74-24.137 7.993-29.936 16.027L356.012 520H0V0h706.339l-13.686 8.934c-7.534 3.74-16.29 8.936-19.458 11.545-10.743 8.85-25.21 28.985-28.823 40.114-1.328 4.091-2.534 5.624-6.608 8.405-6.217 4.243-13.663 12.334-19.83 21.546-8.373 12.508-24.332 40.697-27.468 48.517-4.864 12.132-4.422 21.37 2.757 57.623 3.16 15.96 6.58 32.171 7.6 36.024 1.02 3.852 2.135 10.382 2.479 14.51.615 7.37 1.094 8.965 5.408 18.011 1.182 2.477 2.147 5.287 2.145 6.246-.002.958.897 2.305 1.997 2.992 1.141.713 2 2.334 2 3.773 0 1.734 2.278 5.024 7.28 10.516 11.445 12.567 19.72 24.347 19.72 28.073 0 3.06-4.488 3.85-11.72 2.065-8.452-2.087-15.367-6.596-26.03-16.972-4.537-4.416-8.25-7.384-8.25-6.597 0 .787 3.111 4.892 6.914 9.123 7.562 8.414 8.748 10.71 7.113 13.767-1.43 2.675-4.911 3.454-9.62 2.153-5.434-1.502-8.618.591-7.722 5.075.55 2.75.4 3.074-1.155 2.478-3.072-1.18-9.794-2.531-15.838-3.184-5.553-.6-5.964-.843-9.325-5.525-2.547-3.548-4.53-5.182-7.191-5.93-9.923-2.786-34.604-7.081-51.175-8.905-29.129-3.207-36.145-3.459-50.1-1.798-10.716 1.275-13.63 2.024-19.5 5.008-10.39 5.283-28.4 21.837-28.4 26.104 0 2.001 3.967 1.295 8.5-1.514 13.757-8.524 60.879-20.554 84-21.445 11.457-.441 10.836.108-2.91 2.572-3.802.681-12.802 2.987-20 5.124-7.2 2.137-19.615 5.43-27.59 7.317-7.975 1.888-16.975 4.321-20 5.408l-5.5 1.975 8.5.093c43.31.473 92.681 14.223 112.773 31.408 8.645 7.394 11.811 8.29 24.528 6.952 17.428-1.836 39.985-10.156 49.878-18.397 4.293-3.577 7.824-4.999 7.818-3.148-.011 3.268-5.698 20.839-8.156 25.198-2.74 4.86-2.895 5.56-1.468 6.604.877.642 1.343 1.42 1.035 1.727-.307.308.375.857 1.516 1.22 3.282 1.042 2.456 2.05-2.782 3.393-5.106 1.31-9.143 3.602-9.143 5.193 0 .52.702.944 1.56.944 2.568 0 .651 1.796-2.704 2.533-2.298.505-2.757.918-1.739 1.563.998.632 1.035.88.133.892-.687.008-1.25 1.031-1.25 2.273 0 1.545-.945 2.676-3 3.586-5.006 2.218-3.603 3.415 3.25 2.773 3.438-.322 5.575-.319 4.75.007-.825.326-6.45 2.872-12.5 5.658-6.05 2.787-13.925 6.094-17.5 7.35-4.046 1.422-6.631 2.92-6.848 3.968-.35 1.685 1.53 1.63 6.256-.186.876-.336 1.582-.225 1.568.246-.013.472-10.428 6.486-23.145 13.366-12.716 6.88-24.615 13.972-26.442 15.76-1.827 1.79-4.164 3.253-5.195 3.253-1.036 0-2.39 1.138-3.033 2.548-1.942 4.266-1.54 4.785 3.09 3.99 6.878-1.182 10.031-1.117 10.488.216.247.721-.402 1.251-1.533 1.251-1.078 0-2.499.649-3.156 1.442-.658.792-2.394 1.58-3.86 1.75-1.703.199-3.387 1.457-4.676 3.495-1.107 1.752-2.913 3.416-4.013 3.7-1.1.282.475.33 3.5.104 44.98-3.347 53.36-5.013 71.5-14.211 15.475-7.848 31.54-19.513 42.968-31.202 3.283-3.358 6.32-6.105 6.75-6.105 1.554 0 .71 5.613-1.584 10.543-3.97 8.533-12.302 16.394-29.428 27.764-8.638 5.735-17.957 11.137-20.707 12.003-8.592 2.708-22.462 5.592-37.004 7.694-47.373 6.85-65.502 12.046-83.46 23.919-3.005 1.987-6.16 3.495-7.01 3.35-.851-.144-3.117 1.081-5.036 2.722-5.397 4.616-1.487 3.835 9.707-1.938 11.47-5.916 16.849-6.848 7.804-1.353C468.262 515.777 459.808 520 451.53 520h-44.497zm-58.847-58.006c1.798-.752 7.746-4.084 13.218-7.405 5.472-3.322 11.974-6.958 14.45-8.08 2.474-1.123 9.449-4.276 15.499-7.007 12.68-5.723 31.29-11.122 32.36-9.39.376.609 3.149 1.28 6.162 1.49 4.217.295 4.96.566 3.228 1.178-1.238.437-2.25 1.192-2.25 1.678 0 1.81 9.359 1.267 13.299-.772 1.545-.799 5.034-1.717 7.755-2.04 3.382-.4 4.946-1.044 4.946-2.035 0-1.131.859-1.304 3.913-.788 4.203.71 13.243-1 37.587-7.11 16.486-4.138 28.973-8.303 39.94-13.321l7.94-3.634-7.94-5.088c-19.353-12.402-38.785-20.018-81.44-31.917-7.425-2.07-13.95-4.213-14.5-4.76-.663-.66-.327-.752 1-.276 4.259 1.528 7.5 1.821 7.5.678 0-1.483-3.22-2.679-9.548-3.545-5.787-.792-9.522-2.52-5.502-2.544 6.222-.04-4.475-3.985-16.45-6.068-8.866-1.542-9.377-1.872-5.673-3.667 3.227-1.564 6.698-7.482 5.784-9.864-.775-2.021-1.742-1.813-6.537 1.41-9.245 6.213-17.725 16.388-22.49 26.986-2.72 6.045-1.778 6.6 12.214 7.198 11.458.49 11.64.534 8.702 2.112-1.65.887-4.96 1.913-7.355 2.28-8.135 1.248-12.654 5.11-8.62 7.37 1.197.67.722 1.235-2.22 2.639-3.296 1.573-3.527 1.906-1.944 2.793.99.554 3.865.842 6.391.641 3.51-.28 5.113.099 6.803 1.605l2.211 1.97-4.436 2.816c-2.44 1.548-5.2 4.26-6.133 6.024-.933 1.764-4.284 5.962-7.447 9.329-3.162 3.367-5.75 6.849-5.75 7.738 0 .89-4.612 5.31-10.25 9.822-15.16 12.135-21.75 18.805-21.75 22.017 0 1.7-.857 3.23-2.36 4.215-4.733 3.104-7.203 6.689-4.608 6.689.568 0 2.503-.615 4.301-1.367zm116.98-11.693c3.746-.5 8.085-1.663 9.641-2.583l2.83-1.672-4.826-2.406-4.825-2.407-4.817 1.953a472.093 472.093 0 0 1-8.151 3.215c-7.378 2.793-8.34 6.548-1.415 5.518a985.398 985.398 0 0 1 11.562-1.618zm-169.313-45.503c22.285-23.316 38.01-37.148 57.972-50.99 6.783-4.704 11.562-7.424 11.798-6.715.648 1.945 3.554 1.372 8.284-1.633 5.436-3.453 8.156-6.948 14.942-19.201 7.04-12.712 9.7-15.889 19.862-23.72a1618.207 1618.207 0 0 0 15.554-12.152c5.478-4.354 6.794-5.042 6.344-3.317-.35 1.335-.108 2.175.624 2.175 2.272 0 12.976-4.572 13.353-5.703.59-1.768-10.287-3.595-18.331-3.078-6.176.397-8.364 1.114-16.027 5.253-18.009 9.728-31.017 20.221-55.858 45.056-17.876 17.872-31.958 29.855-39.076 33.251-2.318 1.106-4.064 3.425-6.876 9.132-5.465 11.093-15.222 27.012-24.485 39.948-8.754 12.225-10.633 16.454-3.83 8.62 2.338-2.692 9.425-10.309 15.75-16.926zm223 109.474c26.763-5.566 29.718-5.98 48.5-6.804 21.09-.924 23.777-1.472 36.464-7.439 4.065-1.911 5.659-2.259 6.224-1.357.983 1.57 7.864-2.18 21.311-11.614 5.5-3.86 13.278-8.79 17.284-10.959 6.036-3.267 7.883-3.83 10.787-3.285 3.1.582 4.018.204 7.978-3.283 10.973-9.666 20.343-14.134 29.701-14.164 2.783-.009 3.75.403 3.75 1.596 0 1.019.55 1.397 1.5 1.033 2.788-1.071 1.525.153-5.644 5.472-8.301 6.158-7.485 8.007.954 2.162 8.17-5.659 8.19-5.667 8.19-3.379 0 1.304-3.075 4.578-8.75 9.315-12.91 10.779-22.053 19.692-35.97 35.073L648.68 520H490.353l28.5-5.728zm.25-203.702c.962-.252 2.537-.252 3.5 0 .962.252.175.458-1.75.458s-2.713-.206-1.75-.458z" fill="#003189"/><path d="M985.584 272.516c-4.367-.66-2.113-2.283 3.171-2.283 5.302 0 8.096-2.037 8.096-5.9 0-1.817-.395-2.115-2.089-1.577-1.46.464-2.501.073-3.463-1.3-.897-1.283-3.068-2.188-6.261-2.612-5.704-.757-14.942-6.268-13.285-7.925.565-.566 3.502-1.235 6.525-1.486 5.211-.432 5.556-.632 6.613-3.838.792-2.4 1.892-3.565 3.788-4.01 1.47-.347 3.797-1.667 5.172-2.934 1.375-1.268 5.875-4.508 10-7.2 6.935-4.527 11.232-9.352 9.696-10.89-1.619-1.619-16.634-3.38-23.696-2.78-8.203.698-22.338 3.68-28.25 5.96-6.068 2.34-4.294.301 4.043-4.646 11.255-6.678 32.92-12.905 44.902-12.905 4.648 0 20.202 3.676 22.055 5.213 3.63 3.01-.33 13.574-7.06 18.845l-2.812 2.2 2.311 2.467 2.311 2.466-2.36 1.916c-1.299 1.054-3.078 1.916-3.953 1.916s-3.043 1.408-4.817 3.128c-2.73 2.648-3.082 3.503-2.297 5.57.608 1.6.548 3.15-.173 4.498-.673 1.26-.842 4.123-.435 7.384.831 6.657-.368 9.041-5.227 10.392-3.602 1-16.793 1.195-22.505.331z" fill="#7f7f7f"/></svg>