<svg xmlns="http://www.w3.org/2000/svg" width="132" height="46"><g fill="none" fill-rule="evenodd"><path d="M5.797 35.057v8.46H4.402v-.93a1.84 1.864 0 0 1-.75.752c-.324.18-.695.27-1.11.27-.492 0-.931-.126-1.317-.38a2.516 2.516 0 0 1-.902-1.074C.108 41.692 0 41.161 0 40.563c0-.597.106-1.122.318-1.574.211-.453.51-.803.896-1.052a2.393 2.393 0 0 1 1.327-.374c.408 0 .773.086 1.095.259a1.796 1.82 0 0 1 .743.73v-3.495zm-2.882 7.426c.47 0 .834-.165 1.095-.494.261-.33.392-.797.392-1.403 0-.605-.13-1.073-.386-1.402-.257-.33-.62-.494-1.09-.494-.476 0-.844.162-1.105.488-.261.326-.392.788-.392 1.385 0 .606.13 1.077.392 1.414.26.337.626.506 1.094.506zm9.439-1.793H8.406c.03.62.183 1.078.46 1.373.275.295.686.443 1.23.443.628 0 1.21-.207 1.747-.62l.409.988a3.18 3.18 0 0 1-1.004.534c-.397.134-.8.201-1.208.201-.938 0-1.676-.268-2.213-.804-.537-.537-.805-1.272-.805-2.207 0-.59.117-1.115.352-1.575a2.596 2.63 0 0 1 .987-1.075 2.724 2.724 0 0 1 1.44-.385c.787 0 1.409.259 1.866.776.458.517.687 1.228.687 2.132zm-2.519-2.092c-.378 0-.686.113-.924.339-.238.226-.392.553-.46.983h2.666c-.045-.437-.176-.767-.391-.989-.216-.222-.513-.333-.89-.333zm10.482-1.035c.65 0 1.135.198 1.452.592.318.395.477.994.477 1.799v3.563h-1.418V40c0-.46-.074-.791-.221-.994-.148-.203-.392-.305-.732-.305-.393 0-.702.14-.925.42-.223.28-.334.664-.334 1.155v3.241h-1.418V40c0-.452-.078-.782-.233-.989-.155-.206-.399-.31-.732-.31-.393 0-.703.14-.93.42-.227.28-.34.664-.34 1.155v3.241h-1.407v-4.16c0-.614-.03-1.162-.09-1.644h1.327l.102.92a1.8 1.8 0 0 1 .72-.794 2.103 2.103 0 0 1 1.084-.276c.877 0 1.448.368 1.712 1.104a1.977 2.003 0 0 1 .778-.81 2.207 2.207 0 0 1 1.128-.294zm8.917.15v5.804h-1.396v-.93a1.84 1.864 0 0 1-.748.752c-.325.18-.696.27-1.112.27-.5 0-.942-.122-1.327-.368a2.42 2.42 0 0 1-.896-1.046c-.212-.452-.318-.977-.318-1.574 0-.598.108-1.129.323-1.592.216-.464.516-.824.902-1.08a2.32 2.32 0 0 1 1.316-.386c.416 0 .787.09 1.112.27.325.18.574.431.748.753v-.873zm-2.87 4.77c.469 0 .832-.165 1.089-.494.257-.33.385-.794.385-1.391 0-.613-.128-1.085-.385-1.414-.257-.33-.624-.494-1.1-.494-.47 0-.834.17-1.095.511-.261.341-.392.814-.392 1.42 0 .597.13 1.057.392 1.379.26.322.63.483 1.106.483zm7.498-4.908c.22 0 .409.03.567.092l-.011 1.31a1.972 1.998 0 0 0-.749-.15c-.484 0-.852.142-1.106.426-.253.283-.38.659-.38 1.126v3.138h-1.406v-4.16c0-.614-.03-1.162-.091-1.644h1.327l.114 1.023c.143-.376.37-.663.68-.862.31-.2.662-.3 1.055-.3zm3.846 6.034c-.598 0-1.116-.122-1.554-.368a2.47 2.502 0 0 1-1.01-1.04c-.234-.448-.352-.975-.352-1.58 0-.606.123-1.138.37-1.598a2.633 2.668 0 0 1 1.043-1.075c.45-.256.97-.385 1.56-.385.408 0 .803.065 1.185.196.382.13.686.31.913.54l-.397 1.011a2.754 2.79 0 0 0-.771-.454 2.283 2.313 0 0 0-.806-.155c-.514 0-.915.163-1.202.489-.288.325-.431.795-.431 1.408 0 .613.142 1.08.425 1.402.284.322.686.483 1.208.483.265 0 .533-.054.806-.161a2.87 2.909 0 0 0 .771-.46l.397 1.012a2.51 2.51 0 0 1-.941.54 3.813 3.864 0 0 1-1.214.195zm6.387-6.046c1.368 0 2.053.797 2.053 2.391v3.563H44.73v-3.494c0-.46-.087-.795-.261-1.006-.174-.21-.443-.316-.806-.316-.43 0-.778.14-1.043.42-.265.28-.397.65-.397 1.109v3.287h-1.407v-8.46h1.407v3.495a2.02 2.047 0 0 1 .783-.73 2.288 2.288 0 0 1 1.089-.259zm8.576 3.127h-3.948c.03.62.183 1.078.46 1.373.275.295.686.443 1.23.443.628 0 1.21-.207 1.747-.62l.409.988a3.18 3.18 0 0 1-1.004.534c-.397.134-.8.201-1.209.201-.937 0-1.675-.268-2.212-.804-.537-.537-.805-1.272-.805-2.207 0-.59.117-1.115.352-1.575a2.596 2.63 0 0 1 .987-1.075 2.724 2.724 0 0 1 1.44-.385c.787 0 1.409.259 1.866.776.458.517.687 1.228.687 2.132zm-2.519-2.092c-.378 0-.686.113-.924.339-.238.226-.392.553-.46.983h2.666c-.045-.437-.176-.767-.391-.989-.216-.222-.513-.333-.89-.333zm5.82 5.011c-1.036 0-1.86-.245-2.473-.735l.397-1.012c.612.46 1.312.69 2.099.69.34 0 .603-.058.788-.173a.54.54 0 0 0 .278-.482.51.51 0 0 0-.193-.42c-.129-.103-.348-.193-.658-.27l-.953-.218c-1.044-.23-1.565-.77-1.565-1.621 0-.353.098-.665.295-.937a1.94 1.94 0 0 1 .828-.638c.355-.153.767-.23 1.236-.23.409 0 .802.063 1.18.19.378.126.71.308.998.546l-.42.977c-.574-.43-1.164-.644-1.77-.644-.324 0-.578.061-.76.184a.579.579 0 0 0-.271.506c0 .168.054.303.164.402.11.1.297.184.562.253l.975.218c.567.13.981.332 1.242.604.261.272.392.626.392 1.063 0 .536-.212.962-.636 1.276-.423.314-1.002.471-1.735.471zm3.596-2.62v-1.15h3.414v1.15zm7.135 2.62c-1.036 0-1.86-.245-2.473-.735l.397-1.012c.613.46 1.313.69 2.099.69.34 0 .603-.058.788-.173a.54.54 0 0 0 .278-.482.51.51 0 0 0-.192-.42c-.129-.103-.348-.193-.658-.27l-.953-.218c-1.044-.23-1.566-.77-1.566-1.621 0-.353.098-.665.295-.937a1.94 1.94 0 0 1 .828-.638c.356-.153.768-.23 1.237-.23.408 0 .801.063 1.18.19.378.126.71.308.998.546l-.42.977c-.575-.43-1.165-.644-1.77-.644-.325 0-.578.061-.76.184a.579.579 0 0 0-.272.506c0 .168.055.303.165.402.11.1.296.184.561.253l.976.218c.567.13.981.332 1.242.604.26.272.391.626.391 1.063 0 .536-.211.962-.635 1.276-.424.314-1.002.471-1.736.471zm3.585-.092v-5.804h1.407v5.804zm-.09-8.437h1.576v1.414h-1.577zm9.812 2.483c.65 0 1.134.198 1.452.592.318.395.476.994.476 1.799v3.563H80.52V40c0-.46-.073-.791-.22-.994-.148-.203-.392-.305-.732-.305-.394 0-.702.14-.925.42-.223.28-.335.664-.335 1.155v3.241H76.89V40c0-.452-.077-.782-.232-.989-.155-.206-.4-.31-.732-.31-.393 0-.703.14-.93.42-.227.28-.34.664-.34 1.155v3.241h-1.407v-4.16c0-.614-.03-1.162-.09-1.644h1.326l.102.92a1.8 1.8 0 0 1 .72-.794 2.103 2.103 0 0 1 1.084-.276c.877 0 1.448.368 1.713 1.104a1.977 2.003 0 0 1 .777-.81 2.207 2.207 0 0 1 1.129-.294zm6.704 0c.492 0 .929.129 1.31.385.383.257.681.617.897 1.08.215.464.323.995.323 1.593 0 .597-.106 1.122-.318 1.574-.211.453-.508.801-.89 1.046a2.392 2.392 0 0 1-1.322.368c-.416 0-.786-.09-1.111-.27a1.84 1.864 0 0 1-.75-.753V46h-1.406v-6.644c0-.613-.03-1.16-.09-1.643h1.327l.113 1c.151-.36.397-.642.738-.845.34-.203.733-.305 1.18-.305zm-.385 4.92c.476 0 .843-.161 1.1-.483.257-.322.386-.782.386-1.38 0-.605-.129-1.078-.386-1.419-.257-.34-.62-.511-1.089-.511-.484 0-.855.164-1.112.494-.257.33-.385.8-.385 1.414 0 .605.128 1.07.385 1.396.257.326.624.489 1.1.489zm4.152 1.034v-8.46h1.406v8.46zm2.96 0v-5.804h1.407v5.804zm-.09-8.437h1.576v1.414h-1.576zm4.855 2.633h3.766v5.804h-1.418v-4.724h-2.348v4.724h-1.418v-4.724h-1.1v-1.08h1.1v-.587c0-.52.08-.933.238-1.235.159-.303.418-.523.777-.661.36-.138.85-.207 1.47-.207h.419v1.057h-.272c-.356 0-.617.03-.783.087a.53.53 0 0 0-.34.333c-.06.165-.091.427-.091.787zm2.257-2.69h1.6v1.448h-1.6zm8.055 5.667h-3.948c.03.62.183 1.078.46 1.373.275.295.686.443 1.23.443.628 0 1.21-.207 1.747-.62l.409.988a3.18 3.18 0 0 1-1.004.534c-.397.134-.8.201-1.208.201-.938 0-1.676-.268-2.213-.804-.537-.537-.805-1.272-.805-2.207 0-.59.117-1.115.352-1.575a2.596 2.63 0 0 1 .987-1.075 2.724 2.724 0 0 1 1.44-.385c.787 0 1.409.259 1.866.776.458.517.687 1.228.687 2.132zm-2.519-2.092c-.378 0-.686.113-.924.339-.238.226-.392.553-.46.983h2.666c-.045-.437-.176-.767-.391-.989-.216-.222-.513-.333-.89-.333zm8.735 2.092h-3.947c.03.62.183 1.078.459 1.373.276.295.686.443 1.23.443.629 0 1.21-.207 1.748-.62l.408.988a3.18 3.18 0 0 1-1.004.534c-.397.134-.8.201-1.208.201-.938 0-1.675-.268-2.212-.804-.537-.537-.805-1.272-.805-2.207 0-.59.117-1.115.351-1.575a2.596 2.63 0 0 1 .987-1.075 2.724 2.724 0 0 1 1.44-.385c.787 0 1.41.259 1.867.776.458.517.686 1.228.686 2.132zm-2.518-2.092c-.378 0-.686.113-.925.339-.238.226-.391.553-.46.983h2.667c-.046-.437-.176-.767-.392-.989-.215-.222-.512-.333-.89-.333zm5.82 5.011c-1.037 0-1.861-.245-2.474-.735l.397-1.012c.613.46 1.313.69 2.1.69.34 0 .602-.058.788-.173a.54.54 0 0 0 .277-.482.51.51 0 0 0-.192-.42c-.129-.103-.348-.193-.658-.27l-.953-.218c-1.044-.23-1.566-.77-1.566-1.621 0-.353.099-.665.295-.937a1.94 1.94 0 0 1 .828-.638c.356-.153.768-.23 1.237-.23.408 0 .801.063 1.18.19.378.126.71.308.998.546l-.42.977c-.575-.43-1.164-.644-1.77-.644-.325 0-.578.061-.76.184a.579.579 0 0 0-.272.506c0 .168.055.303.165.402.11.1.296.184.561.253l.976.218c.567.13.981.332 1.242.604.26.272.391.626.391 1.063 0 .536-.211.962-.635 1.276-.423.314-1.002.471-1.736.471zm3.38-1.7h1.588v1.608h-1.588zm5.48-5.714c-.613 0-.92.341-.92 1.023v.495h1.282v1.08h-1.282v4.724h-1.418v-4.724h-1.089v-1.08h1.09v-.564c0-.69.171-1.22.515-1.592.345-.371.838-.557 1.48-.557.356 0 .655.046.897.138v1.138a2.333 2.364 0 0 0-.556-.08zm4.537 1.38c.22 0 .408.03.567.092l-.011 1.31a1.972 1.998 0 0 0-.75-.15c-.483 0-.852.142-1.105.426-.254.283-.38.659-.38 1.126v3.138h-1.407v-4.16c0-.614-.03-1.162-.09-1.644h1.327l.113 1.023c.144-.376.37-.663.68-.862.31-.2.662-.3 1.056-.3z" fill="#0069cc"/><g fill-rule="nonzero"><path d="M44 0h46v16.07H44z" fill="#fff"/><path d="M80.733 27.982c-.025-.01-.027-.04-.005-.103.027-.08.039-.086.142-.071.095.013.123.003.162-.055.076-.111.017-.191-.12-.165-.105.02-.107.02-.087-.065.065-.265.071-.25-.12-.29a1.137 1.175 0 0 1-.616-.371c-.253-.29-.34-.584-.315-1.055.013-.24.033-.334.106-.5.224-.512.736-.772 1.425-.726.15.01.338.037.42.059l.15.04.009.286.008.286h-.09c-.055 0-.092-.017-.092-.04 0-.08-.183-.265-.312-.317a.996.996 0 0 0-.654.03c-.371.186-.541.668-.428 1.218.052.256.14.428.305.604a.688.688 0 0 0 .552.234c.252.001.428-.103.538-.318.075-.147.102-.165.175-.118.033.023.033.074.001.308l-.038.282-.136.049a1.92 1.984 0 0 1-.384.067c-.234.017-.247.022-.247.091 0 .055.017.073.069.073.1 0 .193.08.215.184.026.12-.057.3-.166.358-.08.042-.387.058-.467.025zm-17.795-.13a2.32 2.32 0 0 1-.75-.4l-.232-.175-.359-.019c-.398-.02-.537-.066-.794-.262-.568-.43-.588-1.525-.04-2.058.414-.4 1.141-.484 1.664-.189.707.397.782 1.57.14 2.183-.1.096-.197.173-.217.173-.06 0 .642.398.848.48.227.09.492.102.687.03.14-.051.165-.045.189.049.014.055-.011.078-.154.147-.225.107-.699.127-.982.04zm-.877-.955c.502-.27.596-1.136.186-1.689-.38-.513-1.046-.435-1.296.151-.226.53.032 1.347.493 1.564a.698.698 0 0 0 .617-.026zm-15.718.32c-.137-.061-.288-.254-.526-.673-.366-.643-.435-.737-.536-.737h-.09v.348c.002.635.063.852.257.902.052.014.072.04.072.096v.076h-1.225v-.073c0-.055.023-.08.095-.1a.353.365 0 0 0 .156-.116c.062-.084.063-.115.063-1.287 0-1.171-.001-1.203-.063-1.288a.353.365 0 0 0-.156-.115c-.069-.02-.095-.045-.095-.096 0-.067.004-.067.76-.088.806-.02.982-.005 1.21.108.197.1.363.4.363.662 0 .3-.215.639-.5.785l-.15.077.33.51c.388.601.51.762.624.823.107.058.118.182.017.21-.12.033-.513.018-.605-.024zm-.748-1.722c.401-.115.537-.69.233-.99a.546.564 0 0 0-.488-.166l-.148.022v1.168h.142c.078 0 .196-.015.261-.034zm6.89 1.722a.909.909 0 0 1-.4-.279c-.148-.201-.163-.307-.165-1.127-.002-.856-.018-.95-.17-1.024-.061-.03-.097-.068-.097-.107 0-.06.02-.062.508-.062.507 0 .508 0 .508.07 0 .046-.018.07-.055.07-.03 0-.087.035-.127.079l-.072.08v.84c0 .79.004.846.062.96.09.18.273.274.507.259.252-.016.388-.109.488-.332.078-.17.079-.179.079-.93 0-.674-.005-.768-.053-.842a.26.268 0 0 0-.126-.103c-.047-.012-.075-.04-.075-.077 0-.055.027-.06.404-.06.376 0 .404.005.404.06 0 .036-.028.066-.075.077-.137.036-.148.102-.164.995l-.015.836-.09.182a.814.814 0 0 1-.5.431c-.188.058-.625.06-.775.004zm11.666 0a.91.94 0 0 1-.404-.283c-.141-.191-.161-.332-.163-1.14-.002-.838-.018-.934-.17-1.007-.06-.03-.096-.068-.097-.107 0-.06.02-.062.508-.062.502 0 .509 0 .509.067 0 .046-.022.07-.064.077-.036.005-.093.05-.128.098-.058.08-.063.132-.073.81-.011.832.012 1.007.148 1.151.247.26.76.188.906-.128.09-.2.114-.45.103-1.104-.012-.693-.032-.779-.19-.82-.047-.012-.075-.04-.075-.077 0-.055.029-.06.405-.06.375 0 .403.005.403.06 0 .034-.035.072-.087.095-.049.02-.098.06-.11.089-.014.028-.032.427-.04.888l-.018.836-.09.182a.816.816 0 0 1-.5.431c-.187.058-.624.06-.774.004zm9.467-.001c-.12-.054-.262-.237-.483-.62-.283-.496-.315-.54-.39-.54-.066 0-.067.005-.067.386 0 .462.037.593.178.621.071.015.091.036.091.093v.073H71.93v-.073c0-.057.02-.078.092-.093.17-.035.181-.118.171-1.194l-.009-.953-.072-.08c-.04-.043-.097-.079-.127-.079-.034 0-.055-.023-.055-.059 0-.051.03-.062.22-.08.12-.013.454-.017.74-.01.466.01.534.019.646.08.197.107.308.317.308.584 0 .254-.14.476-.395.627-.082.047-.135.095-.117.107.017.011.15.203.293.428.284.442.442.641.507.641.057 0 .052.143-.006.166-.085.034-.414.018-.508-.025zm-.553-1.454a.556.556 0 0 0 .257-.337.546.564 0 0 0-.152-.471c-.105-.103-.208-.133-.385-.11l-.107.013v.95h.15a.631.652 0 0 0 .236-.045zm13.313 1.449a1.162 1.201 0 0 1-.175-.058 2.615 2.615 0 0 1-.049-.308l-.036-.296h.084c.046 0 .084.012.084.026 0 .08.197.317.31.374.308.154.678.01.678-.265 0-.18-.086-.287-.374-.475-.404-.262-.56-.4-.64-.567a.866.895 0 0 1-.035-.618c.04-.125.228-.313.386-.385.16-.073.658-.07.865.005l.157.056v.552h-.087c-.067 0-.091-.018-.105-.078a.544.544 0 0 0-.326-.327c-.359-.1-.647.28-.42.557.042.053.237.209.433.346.378.265.518.409.564.583.104.383-.067.72-.437.864-.198.076-.627.083-.877.014zm-39.183-.066c0-.055.017-.071.073-.071.042 0 .098-.033.134-.081.06-.08.062-.117.062-1.054 0-.678-.01-.991-.035-1.038-.044-.086-.115-.142-.181-.144-.036 0-.053-.026-.053-.078v-.077h1.795v.653l-.079-.01c-.059-.007-.087-.036-.112-.115-.059-.184-.157-.232-.513-.245l-.314-.012v.88l.241-.015c.263-.015.394-.081.412-.205.007-.049.03-.066.09-.066h.08v.804h-.081c-.067 0-.082-.014-.082-.073 0-.137-.1-.188-.393-.2l-.266-.011v.434c0 .523.005.53.346.53.338 0 .513-.088.6-.302.045-.107.15-.138.18-.053.022.056-.063.42-.126.546l-.045.09-.866-.008-.866-.007v-.071zm2.303.01c0-.056.02-.078.088-.092.157-.032.165-.078.176-1.07.01-1.035-.003-1.128-.166-1.206-.068-.033-.097-.067-.097-.118v-.074l.68.013c.735.014.795.026.995.2.219.19.276.57.127.851-.13.245-.353.376-.71.413l-.187.02-.046-.12-.046-.12.11-.015a.608.629 0 0 0 .374-.226c.046-.063.063-.13.06-.247-.003-.301-.167-.485-.452-.51l-.162-.013.01 1.032c.01 1.124.014 1.157.18 1.191.062.013.083.036.083.09v.075h-1.016v-.074zm4.965-.011c0-.048.017-.07.057-.07a.256.265 0 0 0 .127-.06l.07-.058.01-.958c.01-1.072-.002-1.153-.174-1.22-.054-.022-.09-.058-.09-.09 0-.05.042-.056.456-.063.873-.015 1.055-.005 1.198.066.183.092.27.225.285.442.007.097.004.211-.007.253-.028.121-.168.27-.322.343l-.143.069.121.036c.288.09.472.402.434.737-.032.282-.15.44-.422.57-.143.07-.181.072-.874.072h-.726zm1.319-.233c.152-.105.213-.248.196-.464-.026-.324-.245-.516-.59-.516h-.182l.01.466c.009.447.012.469.08.525.104.086.353.081.486-.011zm-.124-1.284c.184-.073.28-.221.261-.401-.025-.243-.214-.377-.528-.377h-.18v.834l.156-.002a.938.938 0 0 0 .291-.054zm1.227 1.518c0-.05.021-.07.08-.077a.247.255 0 0 0 .142-.097c.06-.084.062-.12.062-1.035 0-.76-.008-.964-.042-1.026-.052-.095-.12-.151-.19-.153-.034 0-.051-.025-.051-.07 0-.07 0-.07.538-.07s.538 0 .538.07c0 .048-.017.07-.058.07-.032 0-.096.033-.142.073l-.084.075-.009.975-.008.974.076.052c.06.041.126.05.311.038.285-.017.418-.09.497-.271.053-.12.11-.15.188-.099.03.02.025.077-.023.268a1.493 1.543 0 0 1-.107.317l-.046.072-.836-.01-.835-.008v-.068zm2.094.01c0-.057.02-.078.09-.092.166-.034.18-.118.18-1.155 0-.86-.004-.927-.06-1.02a.278.287 0 0 0-.135-.12c-.05-.012-.075-.04-.075-.085 0-.065.009-.066.509-.066.499 0 .508 0 .508.066 0 .045-.024.073-.075.086a.26.268 0 0 0-.127.102c-.047.075-.052.177-.052 1.027 0 1.05.012 1.134.169 1.166.064.013.085.035.085.09v.075H58.98zm7.148-.005c0-.052.023-.073.092-.087.164-.034.178-.118.178-1.158 0-.91-.002-.925-.069-1.028-.037-.058-.098-.11-.134-.115-.048-.008-.067-.031-.067-.085v-.075h1.765v.324c0 .322 0 .324-.071.324-.059 0-.076-.02-.091-.106-.034-.184-.156-.246-.514-.26l-.302-.011-.02.147c-.01.08-.019.279-.019.44v.293l.254-.016c.28-.018.392-.068.422-.193.013-.055.039-.077.09-.077h.071v.804h-.074c-.051 0-.075-.017-.076-.054-.003-.153-.145-.224-.45-.224h-.242l.01.435c.012.527.009.523.368.523.318 0 .482-.078.569-.27.042-.096.076-.132.125-.132.036 0 .075.015.086.034.028.046-.105.548-.16.604-.035.037-.187.043-.891.037l-.849-.006v-.068zm3.29.007c0-.052.028-.085.095-.116a.47.486 0 0 0 .157-.132c.06-.084.062-.122.062-1.251 0-1.31-.002-1.326-.209-1.396-.081-.028-.105-.053-.105-.11v-.076h2.094v.773h-.09c-.073 0-.09-.013-.09-.07 0-.113-.112-.27-.232-.324-.071-.03-.235-.054-.448-.063l-.336-.015v1.06l.246-.001c.329-.002.442-.044.512-.192.044-.094.07-.115.141-.115h.087v.93l-.096-.01c-.065-.006-.1-.029-.112-.07-.047-.182-.23-.263-.594-.263h-.19l.011.548c.014.626.04.718.218.785.079.03.105.056.105.11v.071h-1.226v-.071zm4.785-.006c0-.057.017-.077.06-.077.091 0 .196-.193.424-.78.304-.786.593-1.586.593-1.643 0-.038.031-.05.143-.049h.142l.403 1.069c.438 1.16.519 1.34.62 1.387a.107.11 0 0 1 .068.1c0 .07 0 .07-.508.07h-.509v-.073c0-.057.02-.078.09-.092.128-.026.135-.116.035-.422l-.085-.263h-.707l-.071.217c-.09.272-.084.459.013.474.049.007.067.03.067.084v.076h-.777v-.078zm1.377-1.082c0-.047-.22-.663-.237-.663-.01 0-.042.059-.068.13l-.125.34-.076.209h.252c.14 0 .254-.007.254-.016zm1.285 1.086c0-.055.02-.078.083-.09.162-.035.169-.079.182-1.09.013-1.042 0-1.13-.174-1.197-.054-.022-.09-.058-.09-.09 0-.05.033-.055.336-.055h.336l.195.254c.107.14.383.484.613.765.23.281.45.553.487.604l.069.092-.01-.699c-.01-.76-.027-.839-.188-.88-.046-.013-.074-.041-.074-.078 0-.055.028-.06.404-.06.38 0 .404.005.404.061 0 .037-.024.064-.064.07-.036.005-.093.049-.128.097-.06.084-.063.125-.071 1.228l-.01 1.142h-.13c-.118 0-.14-.013-.23-.132-.079-.105-1.346-1.727-1.394-1.785-.007-.008-.007.332 0 .757.015.863.033.966.176.995.066.013.086.035.086.09v.075h-.807v-.074zm5.234-.004c0-.046.017-.077.043-.077.059 0 .17-.145.249-.326.11-.251.622-1.617.71-1.894l.081-.255.134.009.134.01.396 1.05c.219.578.421 1.1.45 1.159.067.136.164.247.216.247.022 0 .04.034.04.077v.078h-1.017v-.078c0-.054.017-.077.054-.077.145 0 .158-.13.048-.472l-.077-.239h-.702l-.063.209c-.121.393-.115.502.026.502.04 0 .056.022.056.077v.078H82.1v-.078zm1.27-1.383c-.057-.174-.111-.337-.122-.363-.01-.027-.07.09-.147.294-.072.187-.131.35-.132.363 0 .013.112.023.25.023h.253zm1.362 1.383c0-.06.016-.077.07-.077.04 0 .096-.03.128-.065.053-.06.057-.132.065-1.028.005-.529.002-.993-.007-1.032-.021-.087-.132-.193-.202-.193-.035 0-.054-.023-.054-.07 0-.069.002-.069.509-.069.489 0 .508.002.508.062 0 .038-.032.077-.086.102a.251.26 0 0 0-.118.123c-.043.118-.068 1.083-.04 1.604.018.363.032.45.078.502.03.035.08.064.111.064.04 0 .055.023.055.077v.078h-1.015v-.078zm3.35-.005c0-.056.017-.072.073-.072.043 0 .098-.033.134-.081.06-.08.062-.117.062-1.054 0-.678-.01-.991-.034-1.038-.045-.086-.116-.142-.183-.144-.035 0-.052-.026-.052-.078v-.077h1.794v.653l-.078-.01c-.06-.007-.086-.036-.112-.115-.06-.184-.157-.232-.513-.245l-.313-.012v.872l.187-.002c.259-.002.385-.052.44-.175.034-.073.066-.1.12-.1h.076v.803h-.082c-.067 0-.083-.015-.083-.073 0-.138-.1-.189-.392-.2l-.266-.012v.434c0 .523.005.53.346.53.337 0 .512-.088.6-.301.045-.108.148-.139.18-.053.021.056-.063.419-.127.545l-.045.09-.866-.008-.866-.006zm-40.075-2.82l-.074-.059.178-.28c.098-.155.197-.281.22-.281.102-.001.423.07.415.092-.016.044-.606.587-.636.586a.287.297 0 0 1-.104-.059zm-3.8-2.135h45.55v.278h-45.55v-.278zm17.337-.631a.5.5 0 0 1-.33-.566.465.465 0 0 1 .282-.36l.14-.067-.085-.052c-.049-.029-.086-.076-.086-.111 0-.056.22-.282.274-.282.013 0-.007-.052-.042-.115-.154-.268-.03-.655.255-.808.155-.082.207-.085.749-.05.312.021.323.024.307.088a.553.572 0 0 0-.017.089c0 .012-.054.023-.118.023h-.117l.017.18c.034.392-.236.66-.671.668-.227.004-.336.053-.248.112.025.016.17.071.325.123.495.166.587.249.565.515-.021.276-.237.517-.548.614-.178.056-.5.055-.652-.001zm.665-.19c.244-.126.35-.364.216-.489-.09-.083-.478-.211-.579-.191-.205.043-.396.301-.361.488.05.255.413.352.724.191zm.081-1.4c.182-.114.252-.44.13-.601-.168-.22-.487.025-.49.377-.002.109.014.147.083.208.1.09.155.093.277.017zm1.134.718c-.131-.028-.202-.118-.217-.279-.038-.411.297-1.015.672-1.208.194-.102.579-.112.835-.022.023.007.006.113-.053.33-.116.425-.183.85-.144.924.025.048.043.051.121.023.074-.026.1-.025.12.009.043.07.016.097-.154.158-.23.08-.335.065-.37-.056l-.027-.095-.123.07c-.207.12-.489.182-.66.146zm.517-.278a.616.616 0 0 0 .202-.146c.04-.063.161-.527.21-.797.019-.11.016-.114-.093-.145-.2-.057-.403.094-.563.422-.17.345-.212.652-.102.731.075.054.12.046.346-.065zm14.161.269c-.134-.033-.182-.081-.218-.221-.056-.214.073-.619.292-.917.262-.358.554-.479.984-.407a.893.893 0 0 1 .225.055c.011.012-.027.21-.084.438-.057.23-.107.508-.11.618l-.005.202.127-.006c.114-.006.127 0 .127.064 0 .059-.028.08-.172.125-.238.074-.349.058-.36-.052-.006-.047-.015-.086-.022-.086-.007 0-.085.034-.174.074-.143.066-.435.148-.492.14a2.672 2.76 0 0 1-.118-.027zm.5-.265a.771.771 0 0 0 .184-.127c.066-.078.185-.481.247-.837.015-.094.011-.1-.102-.132-.097-.027-.14-.024-.224.018-.19.093-.378.41-.476.798-.094.372.023.46.372.28zm-32.436.195c-.008-.039.045-.326.119-.64.146-.617.145-.667-.015-.62-.08.024-.089.02-.089-.044 0-.059.029-.078.173-.121.094-.03.219-.056.276-.06.099-.007.105 0 .114.097.006.057-.046.34-.114.628-.069.287-.116.545-.107.572.014.038.046.043.155.026.13-.02.136-.017.127.05-.008.056-.045.082-.175.124a1.27 1.27 0 0 1-.306.056c-.123.001-.143-.008-.157-.068zm1.15.012l-.068-.057.232-1.052c.128-.578.227-1.092.222-1.14-.01-.092-.022-.096-.137-.06-.057.018-.067.01-.067-.057 0-.09.105-.132.396-.163.167-.018.171-.017.171.056 0 .042-.046.295-.104.566-.057.27-.105.508-.105.53 0 .03.033.025.13-.02.333-.152.623-.143.728.02.098.155.047.553-.112.88-.082.169-.328.434-.461.497-.175.081-.727.082-.824 0zm.757-.196c.15-.11.318-.48.364-.807.048-.328-.162-.394-.497-.155a.43.444 0 0 0-.157.206 4.8 4.8 0 0 0-.165.733c0 .13.289.145.455.023zm1.143.158c-.082-.087-.088-.112-.086-.317.004-.52.29-.988.686-1.117.197-.064.37-.042.487.061.067.06.08.097.08.223 0 .319-.28.56-.684.59-.117.007-.222.03-.235.05-.033.05-.027.23.012.306.075.146.182.15.438.014.16-.085.193-.093.216-.054.053.086.029.114-.204.226-.193.094-.265.113-.427.113-.179 0-.203-.007-.283-.095zm.535-.742c.255-.073.422-.354.292-.489-.082-.084-.159-.082-.263.01-.085.074-.221.305-.262.443-.017.059-.01.07.05.07a.842.842 0 0 0 .183-.034zm1.007.827c0-.005.053-.245.119-.533a5.31 5.31 0 0 0 .12-.659v-.135l-.12.02c-.105.017-.119.013-.119-.042 0-.068.096-.12.34-.182.166-.043.228-.014.228.107v.072l.107-.073c.186-.132.3-.156.435-.093.065.03.114.07.11.088-.082.296-.128.39-.194.39-.06 0-.07-.016-.07-.105 0-.225-.189-.227-.326-.003-.085.14-.174.457-.244.875-.02.125-.052.232-.07.237a1.68 1.68 0 0 1-.316.036zm1.5-.03c-.033-.041-.015-.152.156-.957l.071-.332h-.101c-.056 0-.1-.008-.1-.017 0-.049.066-.137.103-.137.072 0 .212-.147.27-.285.067-.153.093-.178.19-.179.064 0 .07.01.052.1a6.653 6.875 0 0 0-.037.217l-.018.116h.138c.141 0 .162.023.12.136-.013.035-.058.05-.161.05-.166 0-.139-.062-.271.614-.098.497-.092.543.071.495.135-.04.146-.037.135.041-.007.053-.046.082-.16.121-.182.064-.413.072-.458.016zm1.206-.04c-.219-.244-.06-.938.288-1.262.143-.132.364-.234.51-.234.092 0 .295.097.325.156.048.093.033.315-.029.42-.126.214-.397.35-.694.35h-.175v.164c0 .317.127.373.462.202.107-.055.2-.093.207-.085a.212.212 0 0 1 .023.076c.009.05-.033.084-.21.177-.193.1-.248.116-.428.116-.184 0-.214-.009-.278-.08zm.527-.76c.158-.055.269-.148.317-.267.04-.1.039-.115-.015-.188-.082-.115-.162-.115-.286-.003-.096.087-.258.378-.258.462 0 .043.114.042.242-.003zm11.233.82c-.043-.045-.015-.227.128-.857.195-.858.3-1.363.3-1.444 0-.059-.012-.065-.105-.05-.094.017-.104.012-.104-.055 0-.078.074-.112.372-.171.153-.03.196-.01.196.092 0 .046-.1.535-.224 1.086-.123.551-.224 1.05-.225 1.107v.104l.137-.019c.129-.018.136-.015.127.049-.007.053-.047.08-.174.121-.168.054-.393.074-.428.037zm1.126-.018c-.035-.06-.015-.195.112-.711.067-.27.117-.514.11-.543-.012-.055-.02-.056-.15-.025-.069.017-.082.01-.082-.044 0-.074.128-.14.36-.184.167-.033.239-.016.239.055 0 .027-.062.311-.136.632-.075.32-.127.598-.116.616.012.02.071.025.153.014.124-.017.131-.014.123.05-.007.053-.047.08-.174.121-.195.063-.407.072-.438.02zm1.106-.014a.62.62 0 0 1 .017-.224c.067-.311.213-1.024.213-1.039 0-.007-.041-.014-.092-.014-.13 0-.106-.086.047-.168.091-.048.143-.11.219-.257.085-.167.11-.193.182-.193h.085l-.04.193c-.022.106-.04.204-.041.216 0 .013.066.024.148.024.157 0 .16.003.13.115-.015.062-.036.07-.172.07h-.154l-.101.521c-.056.288-.093.544-.083.57.015.04.037.043.117.02.137-.04.144-.038.144.044 0 .063-.025.08-.174.124-.232.066-.42.066-.445-.002zm1.231-.018c-.074-.066-.087-.102-.098-.276-.024-.389.149-.828.405-1.03.282-.222.59-.252.764-.073.08.084.087.106.074.246-.028.306-.312.529-.7.55-.243.012-.269.042-.222.26.052.237.146.261.446.114.198-.096.244-.096.244 0 0 .1-.359.258-.616.273-.19.011-.22.005-.297-.064zm.643-.825c.187-.099.267-.318.16-.44-.133-.152-.38.048-.503.408l-.045.132.135-.02a.956.987 0 0 0 .253-.08zm7.149.884c0-.005.054-.244.12-.532.065-.287.119-.584.119-.659v-.135l-.12.02c-.105.017-.119.013-.119-.041 0-.075.053-.106.295-.171.21-.056.273-.035.273.095v.072l.107-.073c.186-.132.3-.156.435-.093.064.03.117.062.117.073 0 .01-.03.105-.068.211-.055.16-.078.193-.134.193-.057 0-.067-.017-.067-.104 0-.211-.176-.227-.308-.028-.1.152-.15.317-.232.75a2.884 2.884 0 0 1-.086.375c-.018.019-.332.063-.332.047zm3.45-.037c-.025-.066.003-.257.119-.802l.098-.464-.084-.01c-.1-.01-.117-.114-.023-.144.105-.034.226-.162.285-.3.066-.153.091-.178.189-.179.064 0 .07.01.051.1a6.654 6.875 0 0 0-.037.217l-.018.116h.139c.14 0 .162.023.12.136-.013.035-.058.05-.162.05-.166 0-.139-.062-.27.614-.098.497-.092.543.07.495.135-.04.146-.037.135.041-.007.053-.045.082-.159.121-.2.07-.43.074-.453.008zm1.206-.032c-.226-.234-.07-.935.283-1.262.142-.132.364-.234.51-.234.091 0 .294.097.324.156.049.093.034.315-.028.42-.127.214-.398.35-.698.35h-.179l.013.19c.021.302.128.343.456.176.107-.055.2-.093.207-.085a.212.212 0 0 1 .024.076c.008.05-.034.084-.21.177-.191.1-.25.116-.423.116-.177 0-.21-.01-.279-.08zm.628-.806c.209-.107.302-.356.172-.458-.086-.068-.15-.056-.264.048-.097.088-.257.377-.257.464 0 .05.207.02.348-.054zm.907.86c0-.014.055-.264.121-.558.067-.293.118-.577.113-.631-.009-.092-.016-.098-.118-.092-.086.005-.112-.006-.125-.053-.012-.048.015-.07.14-.118.084-.033.204-.069.266-.08.116-.022.114-.023.186.158a1.39 1.39 0 0 0 .178-.085c.206-.107.24-.11.366-.031l.095.06-.065.202c-.055.169-.076.202-.132.203-.057 0-.068-.017-.068-.101 0-.27-.247-.217-.384.081a4.025 4.025 0 0 0-.15.575 5.96 5.96 0 0 1-.099.447c-.026.023-.324.044-.324.022zm1.495 0c0-.015.049-.22.107-.456.065-.258.11-.516.112-.646l.006-.216-.108.008c-.086.007-.112-.004-.124-.05-.012-.047.014-.066.139-.106.272-.086.335-.091.388-.037a.197.203 0 0 1 .049.125c0 .042.005.075.013.075.006 0 .095-.04.196-.09.241-.118.56-.18.656-.127.062.034.067.052.049.194-.01.085-.06.324-.107.53a5.364 5.364 0 0 0-.096.482c-.008.109-.008.109.117.106.087-.002.132.011.144.044.023.063-.005.084-.193.14-.212.065-.408.065-.431.002-.01-.026.035-.296.101-.599.131-.607.139-.676.076-.7-.064-.026-.293.09-.429.217-.113.105-.127.137-.196.444-.04.182-.084.398-.096.48-.011.082-.036.154-.055.16-.09.028-.318.042-.318.02zm2.052-.024c-.01-.028.043-.315.119-.637s.13-.604.121-.628c-.011-.031-.038-.035-.114-.012-.054.016-.102.03-.106.03-.004 0-.007-.033-.007-.073 0-.059.026-.08.157-.12.354-.11.463-.092.428.074l-.137.595c-.067.288-.115.543-.105.568.013.034.049.04.152.026.129-.018.136-.015.127.049-.018.132-.59.247-.634.128zm1.129 0c-.02-.054.004-.201.121-.738.128-.594.127-.54.019-.54-.132 0-.11-.086.042-.169.089-.047.143-.11.213-.25.077-.15.11-.186.178-.195.09-.01.091-.003.027.328l-.02.1h.158c.13 0 .152.008.137.048a.303.313 0 0 0-.017.093c0 .033-.043.044-.162.044h-.16l-.1.52c-.053.286-.089.542-.079.57.015.04.036.044.117.02.138-.04.144-.037.144.045 0 .063-.024.08-.174.124-.229.066-.42.066-.444 0zm1.23-.021c-.086-.076-.089-.084-.089-.384 0-.291.006-.316.114-.542.132-.276.284-.425.527-.52.425-.164.73.116.542.496-.107.215-.39.37-.678.371-.174 0-.185.006-.204.083a.432.432 0 0 0 .067.328c.067.08.184.066.393-.045.156-.083.19-.092.213-.054.053.086.027.12-.174.22a.93.93 0 0 1-.413.112c-.192.011-.22.005-.3-.065zm.65-.833c.203-.117.27-.348.13-.442a.157.162 0 0 0-.157-.022c-.105.037-.257.238-.319.427l-.047.146.136-.02a.832.832 0 0 0 .257-.088zm-45.223.82c.006-.03.037-.059.07-.066.088-.017.166-.098.227-.238.08-.185.328-1.475.335-1.743.005-.228.005-.231-.09-.293-.186-.123-.136-.14.38-.14.409 0 .478.006.478.046 0 .027-.037.055-.09.067-.191.039-.264.233-.444 1.19-.168.895-.166.877-.09.955.057.06.088.065.32.053.314-.017.428-.071.538-.258.086-.148.09-.15.151-.11.035.022.033.051-.008.177a1.84 1.901 0 0 1-.116.274l-.068.124-.802.008c-.75.007-.8.005-.791-.046zm15.128.01c0-.025.05-.07.113-.101a.375.388 0 0 0 .177-.196c.086-.182.345-1.498.35-1.775.003-.21.001-.217-.093-.279-.2-.132-.155-.14.756-.14.836 0 .854.002.836.06a3.466 3.581 0 0 0-.056.27c-.031.18-.047.212-.103.22-.053.009-.065-.005-.065-.071 0-.205-.118-.263-.537-.263h-.29l-.083.394c-.045.217-.089.419-.097.448-.013.049.013.055.25.054.297 0 .384-.033.472-.177.079-.127.18-.138.156-.015l-.07.37c-.04.226-.063.286-.102.286-.032 0-.057-.034-.069-.091a.203.21 0 0 0-.085-.13c-.072-.039-.542-.057-.578-.021-.02.021-.108.466-.147.742-.018.133-.014.15.057.197.062.042.127.05.338.039.312-.017.422-.068.55-.256.056-.081.11-.128.134-.118.058.022.051.078-.037.295-.131.325-.056.301-.974.301-.672 0-.803-.007-.803-.044zm15.194 0c0-.025.044-.06.097-.08.189-.066.251-.242.44-1.242.163-.862.159-1-.03-1.061-.034-.011-.057-.037-.05-.056.008-.027.242-.039.841-.045.816-.008.83-.007.811.053a3.458 3.574 0 0 0-.056.27c-.032.18-.047.212-.103.22-.056.01-.066-.004-.066-.084 0-.196-.146-.26-.551-.243l-.237.008-.084.403c-.045.22-.083.419-.084.44-.001.057.456.051.565-.006a.308.318 0 0 0 .121-.14c.024-.057.06-.094.094-.094.07 0 .07-.022-.008.394-.054.292-.074.348-.12.348-.033 0-.055-.022-.055-.057 0-.143-.28-.25-.538-.206l-.114.02-.06.346c-.107.609-.103.663.06.733.178.077.075.107-.405.115-.392.008-.468.001-.468-.036zm-17.544-.665a.508.508 0 0 1-.252-.415c0-.246.21-.466.444-.464.28 0 .453.177.454.463 0 .36-.321.568-.646.416zm15.223.015a.565.584 0 0 1-.179-.157c-.07-.095-.085-.145-.083-.277.004-.283.175-.458.45-.458.135 0 .18.015.272.092.207.172.24.46.074.662a.449.463 0 0 1-.534.138zM54.12 18.856c-.059-.068-.063-.06.277-.46l.114-.136.171.04c.094.022.17.048.17.06 0 .02-.64.556-.665.556a.248.256 0 0 1-.067-.061zm15.216 0l-.066-.056.226-.266c.124-.147.237-.266.25-.266.074 0 .33.076.323.096-.007.02-.565.482-.636.528-.017.01-.06-.006-.097-.037zm19.882 0l-.07-.057.232-.265c.129-.147.244-.266.257-.266.06 0 .328.073.327.09a9.73 9.73 0 0 1-.64.533c-.018.011-.066-.004-.106-.035zm-42.684-.16c-.12-.125-.002-.367.18-.367.129 0 .195.07.195.202 0 .206-.235.31-.375.166zm20.184.023c-.073-.058-.069-.249.008-.328.124-.128.359-.044.359.127 0 .185-.228.31-.367.2zm19.864-.022c-.123-.128-.002-.368.186-.368.189 0 .268.217.133.357-.093.095-.233.1-.319.01zm-26.202-.885c-.047-.051-.036-.071.18-.314l.231-.258.171.039c.095.022.17.048.17.057-.003.03-.603.506-.656.52-.026.007-.07-.013-.096-.044z" fill="#000"/><path d="M70.323 16.07l.07-.186c.118-.337.24-.594.418-.876.187-.298.6-.738.771-.823.211-.103.474-.14.798-.11.278.024 1.134.169 1.48.25.262.06.647.066.829.012.348-.105.555-.308.653-.641.075-.256.075-.489-.002-.644-.103-.208-.085-.262.164-.509.124-.122.225-.235.225-.25.001-.083-.17-.414-.214-.415a.255.263 0 0 1-.118-.06l-.07-.057.149-.078c.202-.107.353-.273.353-.39a.851.851 0 0 0-.095-.277c-.1-.194-.127-.38-.071-.489.037-.071.102-.101.417-.196.265-.08.36-.159.4-.334.03-.15.015-.245-.072-.424-.07-.146-.53-.874-.663-1.051-.18-.24-.4-.652-.465-.874-.064-.22-.064-.23-.017-.514.098-.598.04-1.094-.24-2.06-.209-.72-.265-.893-.33-1.028-.118-.243-.102-.3.14-.505.116-.098.224-.202.24-.233.073-.141-.01-.414-.148-.49-.088-.049-.137-.015-.226.154-.067.129-.094.153-.167.153-.117 0-.138-.052-.063-.156.088-.123.081-.142-.057-.162-.103-.014-.157-.056-.38-.29a2.594 2.594 0 0 0-.904-.653c-.184-.087-.248-.129-.18-.116.057.01.26.027.452.037.555.03.69-.048.819-.46.087-.28.13-.41-.072-.607L73.407 0H90v16.07z" fill="#e2011c"/><path d="M56.174 16.07c-.12-.013-.225-.018-.232-.025-.013-.014.124-.103.746-.496.2-.125.282-.193.255-.209a2.32 2.32 0 0 0-.388-.044c-.283-.017-.365-.012-.449.027a5.066 5.235 0 0 1-.497.157c-.541.146-.723.246-.896.495l-.064.096H44V0h21.126l-.41.276a3.967 3.967 0 0 0-.581.357c-.322.273-.755.896-.863 1.24-.04.126-.076.173-.197.26-.186.13-.41.38-.593.666-.25.386-.727 1.257-.822 1.499-.145.374-.132.66.082 1.78.095.494.197.995.229 1.114.03.119.063.32.073.448.019.229.033.277.162.557a.7.7 0 0 1 .064.193c0 .03.027.071.06.093a.143.147 0 0 1 .06.116c0 .054.068.155.217.325.343.388.59.752.59.868 0 .094-.134.119-.35.063-.253-.064-.46-.203-.779-.524-.135-.137-.246-.229-.246-.204 0 .025.092.151.206.282.226.26.262.331.213.426-.043.082-.147.106-.288.066-.162-.046-.258.018-.23.157.016.085.01.095-.035.077a2.327 2.404 0 0 0-.474-.1c-.166-.018-.178-.025-.279-.17-.076-.11-.135-.16-.215-.184-.297-.085-1.035-.218-1.53-.274-.872-.1-1.081-.107-1.5-.056-.32.04-.406.063-.583.155-.31.164-.848.675-.848.807 0 .062.118.04.254-.047.411-.263 1.82-.635 2.512-.663.342-.014.324.003-.087.08-.114.02-.383.092-.598.158-.216.067-.587.168-.825.226a7.611 7.611 0 0 0-.599.167l-.164.061.254.003c1.295.015 2.772.44 3.373.97.258.229.353.257.734.216.52-.057 1.196-.314 1.492-.57.128-.11.234-.154.234-.096 0 .1-.172.644-.245.778-.081.15-.086.172-.044.205.027.02.04.044.031.053-.01.01.011.027.046.037.098.033.073.064-.084.106-.152.04-.273.11-.273.16 0 .016.022.03.047.03.077 0 .019.055-.081.078-.07.015-.083.028-.052.048.03.02.03.027.003.028-.02 0-.037.031-.037.07 0 .048-.028.082-.09.11-.15.07-.107.106.098.086.103-.01.166-.01.142 0a20.8 20.8 0 0 0-.374.175 7.69 7.69 0 0 1-.524.228c-.12.044-.198.09-.204.122-.01.052.045.05.187-.006.026-.01.047-.007.047.007 0 .015-.312.202-.692.414-.38.213-.737.432-.792.487-.054.055-.124.1-.154.1-.032 0-.072.035-.092.08-.057.132-.045.147.093.123.206-.037.3-.035.314.006.007.022-.012.039-.046.039a.14.144 0 0 0-.095.045.203.21 0 0 1-.115.053c-.05.007-.101.045-.14.109-.033.054-.087.105-.12.114-.033.009.015.01.105.004 1.345-.104 1.596-.155 2.139-.44a5.153 5.325 0 0 0 1.285-.964c.097-.104.189-.189.201-.189.047 0 .022.173-.047.326-.119.264-.368.507-.88.858-.258.177-.537.345-.62.371a7.71 7.71 0 0 1-1.106.238c-1.417.212-1.96.372-2.496.74-.09.06-.185.107-.21.102-.026-.004-.093.034-.15.084-.162.143-.046.119.29-.059.343-.183.504-.212.233-.042-.332.208-.585.339-.832.339zm-1.76-1.792a4.885 5.047 0 0 0 .395-.229c.164-.103.358-.215.432-.25l.464-.216c.38-.177.936-.344.968-.29.01.019.094.04.184.046.126.009.148.017.096.036-.036.013-.067.037-.067.052 0 .056.28.039.398-.024a.819.819 0 0 1 .232-.063c.101-.012.148-.032.148-.063 0-.034.026-.04.117-.024.126.022.396-.031 1.124-.22a6.698 6.698 0 0 0 1.195-.412l.237-.112-.237-.157c-.579-.383-1.16-.62-2.436-.986-.222-.064-.417-.13-.434-.148-.02-.02-.01-.023.03-.008.128.047.225.056.225.02 0-.045-.097-.082-.286-.109-.173-.024-.285-.078-.164-.079.185 0-.134-.123-.492-.187-.266-.048-.281-.058-.17-.113.096-.049.2-.232.173-.305-.023-.062-.053-.056-.196.044a2.004 2.07 0 0 0-.672.833c-.082.187-.054.204.365.223.342.014.348.017.26.065a.827.855 0 0 1-.22.07c-.243.04-.378.159-.258.229.036.02.022.037-.066.08-.098.05-.106.06-.058.087a.447.462 0 0 0 .191.02c.105-.008.153.003.204.05l.066.06-.133.087a.612.632 0 0 0-.184.187 1.93 1.93 0 0 1-.222.288c-.095.104-.172.212-.172.24 0 .027-.138.163-.307.303-.453.375-.65.581-.65.68a.15.155 0 0 1-.071.13c-.142.096-.215.207-.138.207a.56.58 0 0 0 .128-.042zm3.499-.361a.97.97 0 0 0 .288-.08l.084-.052-.144-.074-.144-.075-.144.06c-.08.034-.189.079-.244.1-.22.086-.25.203-.042.17l.346-.05zm-5.064-1.407c.667-.72 1.137-1.148 1.733-1.575.204-.146.346-.23.353-.208.02.06.107.043.249-.05.162-.107.243-.215.446-.594.211-.393.29-.49.594-.733.143-.113.351-.282.466-.376.164-.134.203-.155.19-.102-.011.04-.004.067.018.067.068 0 .388-.141.4-.176.017-.055-.308-.111-.55-.096-.184.013-.249.035-.478.163-.539.3-.927.625-1.671 1.392-.535.553-.956.923-1.169 1.028-.07.035-.121.106-.205.282-.164.343-.456.835-.733 1.235-.261.378-.318.509-.114.266.07-.083.282-.318.47-.523zm6.67 3.384c.8-.173.888-.185 1.45-.21.63-.03.711-.046 1.09-.23.122-.06.17-.07.186-.042.03.048.236-.068.638-.36.164-.118.397-.27.517-.339.18-.1.236-.118.323-.1.092.017.12.006.239-.102.328-.299.608-.437.887-.438.084 0 .113.012.113.05 0 .031.016.043.044.032.084-.033.046.004-.168.17-.248.189-.224.246.029.066.243-.176.244-.176.244-.105 0 .04-.092.141-.262.287-.385.334-.66.61-1.075 1.085l-.373.413h-4.735zm.007-6.288a.108.112 0 0 1 .104 0c.029.019.006.034-.052.034-.057 0-.081-.015-.052-.034z" fill="#003189"/><path d="M73.478 8.422c-.13-.02-.064-.07.095-.07.158 0 .242-.063.242-.183 0-.056-.012-.065-.063-.048-.043.014-.075.002-.103-.04-.027-.04-.092-.069-.188-.082-.17-.023-.447-.193-.397-.244.017-.018.105-.039.196-.046.155-.013.166-.02.197-.119.024-.073.057-.11.113-.124a.42.433 0 0 0 .155-.09c.04-.04.176-.14.3-.223.207-.14.335-.29.29-.336-.05-.05-.499-.105-.71-.087a4.064 4.064 0 0 0-.845.185c-.18.072-.128.01.122-.144.336-.206.984-.398 1.342-.398.14 0 .604.113.66.16.108.093-.01.42-.211.583l-.084.068.069.076.07.076-.072.059a.251.26 0 0 1-.118.06c-.026 0-.091.044-.144.096-.082.082-.093.108-.068.173a.158.164 0 0 1-.006.139.477.477 0 0 0-.013.228c.025.205-.01.279-.157.32-.107.032-.501.038-.672.011z" fill="#7f7f7f"/></g></g></svg>