<?xml version="1.0" encoding="UTF-8" standalone="no"?>
<svg
   xmlns:dc="http://purl.org/dc/elements/1.1/"
   xmlns:cc="http://creativecommons.org/ns#"
   xmlns:rdf="http://www.w3.org/1999/02/22-rdf-syntax-ns#"
   xmlns:svg="http://www.w3.org/2000/svg"
   xmlns="http://www.w3.org/2000/svg"
   xmlns:sodipodi="http://sodipodi.sourceforge.net/DTD/sodipodi-0.dtd"
   xmlns:inkscape="http://www.inkscape.org/namespaces/inkscape"
   version="1.1"
   id="Calque_1"
   x="0px"
   y="0px"
   viewBox="0 0 385.2 45.2"
   enable-background="new 0 0 385.2 45.2"
   xml:space="preserve"
   sodipodi:docname="logo-md-wide.svg"
   inkscape:version="1.0.1 (3bc2e813f5, 2020-09-07)"><metadata
   id="metadata331"><rdf:RDF><cc:Work
       rdf:about=""><dc:format>image/svg+xml</dc:format><dc:type
         rdf:resource="http://purl.org/dc/dcmitype/StillImage" /></cc:Work></rdf:RDF></metadata><defs
   id="defs329" /><sodipodi:namedview
   pagecolor="#ffffff"
   bordercolor="#666666"
   borderopacity="1"
   objecttolerance="10"
   gridtolerance="10"
   guidetolerance="10"
   inkscape:pageopacity="0"
   inkscape:pageshadow="2"
   inkscape:window-width="1920"
   inkscape:window-height="1017"
   id="namedview327"
   showgrid="false"
   inkscape:zoom="2.2744167"
   inkscape:cx="157.37863"
   inkscape:cy="-10.664057"
   inkscape:window-x="-8"
   inkscape:window-y="-8"
   inkscape:window-maximized="1"
   inkscape:current-layer="layer1" />



<g
   inkscape:groupmode="layer"
   id="layer1"
   inkscape:label="Fond"
   style="display:inline"><rect
     style="fill:#e11417;fill-opacity:1;stroke-width:1.35186"
     id="rect1167"
     width="383.64554"
     height="44.769005"
     x="1.2435836"
     y="0.62179178" /><path
     fill="#ffffff"
     d="m 1.5,22.6 c 0,12.5 10.1,21.6 22.6,21.6 12.5,0 22.6,-9.1 22.6,-21.6 C 46.7,10.1 36.6,1 24.1,1 11.6,1 1.5,10.1 1.5,22.6 Z"
     id="path204" /><rect
     style="fill:none"
     id="rect1159"
     width="120.3167"
     height="34.509441"
     x="1.2435836"
     y="0.62179178" /><rect
     style="fill:none"
     id="rect1161"
     width="233.7937"
     height="41.660049"
     x="1.2435836"
     y="0.62179178" /><rect
     style="fill:none"
     id="rect1163"
     width="271.1012"
     height="77.723969"
     x="-36.063923"
     y="-28.291525" /><g
     id="g324"
     transform="translate(0,1.7)">
	<path
   fill="#ffffff"
   d="m 72.6,24.7 v 0 l 4.3,-12.9 h 5.7 v 18.5 h -4.3 v -12 h -0.1 l -4.1,11.9 h -2.9 l -4,-11.7 H 67.1 V 30.2 H 62.8 V 11.7 h 5.6 z"
   id="path284" />
	<path
   fill="#ffffff"
   d="m 96.3,22.3 h -6.5 v 4.6 h 7.8 v 3.3 H 85.5 V 11.7 H 97.6 V 15 h -7.8 v 4 h 6.5 z"
   id="path286" />
	<path
   fill="#ffffff"
   d="m 109.5,25.3 c 0,-0.7 -0.2,-1.2 -0.6,-1.5 -0.4,-0.3 -1.2,-0.7 -2.3,-1.1 -2.3,-0.7 -4,-1.5 -5.1,-2.4 -1.1,-0.9 -1.7,-2.1 -1.7,-3.6 0,-1.5 0.6,-2.8 1.9,-3.8 1.3,-1 2.9,-1.4 4.9,-1.4 2.1,0 3.8,0.5 5.1,1.5 1.3,1 1.9,2.4 1.9,4.2 v 0.1 h -4.2 c 0,-0.9 -0.2,-1.5 -0.7,-1.9 -0.5,-0.4 -1.2,-0.6 -2.1,-0.6 -0.8,0 -1.4,0.2 -1.8,0.6 -0.4,0.4 -0.7,0.9 -0.7,1.4 0,0.5 0.2,1 0.7,1.3 0.5,0.3 1.3,0.7 2.6,1.2 2.1,0.6 3.8,1.4 4.9,2.3 1.1,0.9 1.7,2.2 1.7,3.8 0,1.6 -0.6,2.9 -1.9,3.8 -1.3,0.9 -3,1.4 -5.1,1.4 -2.1,0 -3.9,-0.5 -5.3,-1.5 -1.5,-1 -2.2,-2.5 -2.1,-4.7 v -0.1 h 4.2 c 0,1.1 0.3,1.8 0.8,2.3 0.5,0.5 1.3,0.7 2.4,0.7 0.9,0 1.6,-0.2 2,-0.5 0.4,-0.3 0.5,-0.9 0.5,-1.5 z"
   id="path288" />
	<path
   fill="#ffffff"
   d="m 123.9,23.9 h -7.5 v -3.3 h 7.5 z"
   id="path290" />
	<path
   fill="#ffffff"
   d="M 127.3,30.2 V 11.7 h 6.8 c 2.2,0 4,0.7 5.5,2.1 1.5,1.4 2.2,3.2 2.2,5.5 v 3.3 c 0,2.2 -0.7,4 -2.2,5.5 -1.5,1.5 -3.3,2.1 -5.5,2.1 z M 131.6,15 v 11.9 h 2.5 c 1,0 1.8,-0.4 2.4,-1.2 0.6,-0.8 0.9,-1.8 0.9,-3.1 v -3.4 c 0,-1.2 -0.3,-2.3 -0.9,-3.1 C 135.9,15.3 135,15 134,15 Z"
   id="path292" />
	<path
   fill="#ffffff"
   d="m 155.1,22.3 h -6.5 v 4.6 h 7.8 v 3.3 H 144.3 V 11.7 h 12.1 V 15 h -7.8 v 4 h 6.5 z"
   id="path294" />
	<path
   fill="#ffffff"
   d="m 168.5,24.7 v 0 l 4.3,-12.9 h 5.7 v 18.5 h -4.3 v -12 h -0.1 L 170,30.2 h -2.9 l -4,-11.7 H 163 v 11.7 h -4.3 V 11.7 h 5.6 z"
   id="path296" />
	<path
   fill="#ffffff"
   d="m 191.3,26.6 h -5.5 l -1.1,3.6 h -4.5 l 6,-18.5 h 2.3 v 0 0 h 2.3 l 6,18.5 h -4.5 z m -4.5,-3.3 h 3.5 l -1.7,-5.7 h -0.1 z"
   id="path298" />
	<path
   fill="#ffffff"
   d="m 202.5,23.1 v 7.1 h -4.3 V 11.7 h 6.4 c 2.1,0 3.8,0.5 5.1,1.5 1.3,1 1.9,2.3 1.9,4.1 0,1 -0.3,1.8 -0.8,2.5 -0.5,0.7 -1.2,1.2 -2.2,1.7 1.1,0.3 1.9,0.9 2.4,1.6 0.5,0.7 0.7,1.7 0.7,2.8 V 27 c 0,0.5 0.1,1 0.2,1.7 0.1,0.7 0.4,1.1 0.7,1.3 v 0.3 h -4.4 c -0.3,-0.3 -0.6,-0.7 -0.7,-1.4 -0.1,-0.7 -0.2,-1.3 -0.2,-1.9 v -1.1 c 0,-0.9 -0.2,-1.6 -0.7,-2 -0.5,-0.4 -1.1,-0.7 -2,-0.7 h -2.1 z m 0,-3.3 h 2.2 c 0.9,0 1.5,-0.2 2,-0.6 0.5,-0.4 0.7,-1 0.7,-1.7 0,-0.8 -0.2,-1.4 -0.7,-1.8 -0.5,-0.5 -1.1,-0.7 -2,-0.7 h -2.1 v 4.8 z"
   id="path300" />
	<path
   fill="#ffffff"
   d="m 229,24 v 0 c 0.1,2.2 -0.5,3.8 -1.8,4.9 -1.2,1.1 -3,1.6 -5.2,1.6 -2.3,0 -4.1,-0.7 -5.5,-2.1 -1.4,-1.4 -2.1,-3.2 -2.1,-5.5 V 19 c 0,-2.3 0.7,-4.1 2,-5.5 1.3,-1.4 3.1,-2.1 5.3,-2.1 2.3,0 4.2,0.5 5.4,1.6 1.3,1.1 1.9,2.7 1.9,4.8 v 0.1 h -4.2 c 0,-1.1 -0.2,-1.9 -0.7,-2.4 -0.5,-0.5 -1.3,-0.7 -2.4,-0.7 -1,0 -1.7,0.4 -2.2,1.2 -0.5,0.8 -0.8,1.8 -0.8,3.1 V 23 c 0,1.3 0.3,2.3 0.9,3.1 0.6,0.8 1.4,1.2 2.4,1.2 1,0 1.7,-0.2 2.1,-0.7 0.4,-0.5 0.7,-1.3 0.7,-2.5 h 4.2 z"
   id="path302" />
	<path
   fill="#ffffff"
   d="m 246.8,30.2 h -4.3 v -7.4 h -6.8 v 7.4 h -4.3 V 11.7 h 4.3 v 7.7 h 6.8 v -7.7 h 4.3 z"
   id="path304" />
	<path
   fill="#ffffff"
   d="M 260.5,22.3 H 254 v 4.6 h 7.8 v 3.3 H 249.7 V 11.7 h 12.1 V 15 H 254 v 4 h 6.5 z"
   id="path306" />
	<path
   fill="#ffffff"
   d="m 273.8,25.3 c 0,-0.7 -0.2,-1.2 -0.6,-1.5 -0.4,-0.3 -1.2,-0.7 -2.3,-1.1 -2.3,-0.7 -4,-1.5 -5.1,-2.4 -1.1,-0.8 -1.7,-2.1 -1.7,-3.6 0,-1.5 0.6,-2.8 1.9,-3.8 1.3,-1 2.9,-1.4 4.9,-1.4 2.1,0 3.8,0.5 5.1,1.5 1.3,1 1.9,2.4 1.9,4.2 v 0.1 h -4.2 c 0,-0.9 -0.2,-1.5 -0.7,-1.9 -0.5,-0.4 -1.2,-0.6 -2.1,-0.6 -0.8,0 -1.4,0.2 -1.8,0.6 -0.4,0.4 -0.7,0.9 -0.7,1.4 0,0.5 0.2,1 0.7,1.3 0.5,0.3 1.3,0.7 2.6,1.2 2.1,0.6 3.8,1.4 4.9,2.3 1.1,0.9 1.7,2.2 1.7,3.8 0,1.6 -0.6,2.9 -1.9,3.8 -1.3,0.9 -3,1.4 -5.1,1.4 -2.1,0 -3.9,-0.5 -5.3,-1.5 -1.5,-1 -2.2,-2.5 -2.1,-4.7 v -0.1 h 4.2 c 0,1.1 0.3,1.8 0.8,2.3 0.5,0.5 1.3,0.7 2.4,0.7 0.9,0 1.6,-0.2 2,-0.5 0.4,-0.3 0.5,-0.9 0.5,-1.5 z"
   id="path308" />
	<path
   fill="#ffdb0e"
   d="m 285,30.2 h -4.3 v -3.6 h 4.3 z"
   id="path310" />
	<path
   fill="#ffdb0e"
   d="m 302.9,27.7 c -0.6,0.8 -1.5,1.4 -2.7,2 -1.2,0.5 -2.7,0.8 -4.5,0.8 -2.3,0 -4.2,-0.7 -5.6,-2.1 C 288.7,27 288,25.2 288,22.9 V 19 c 0,-2.2 0.7,-4 2.1,-5.5 1.4,-1.4 3.2,-2.1 5.4,-2.1 2.4,0 4.1,0.5 5.4,1.6 1.2,1.1 1.8,2.5 1.7,4.3 v 0.1 h -4 c 0,-0.9 -0.2,-1.6 -0.7,-2 -0.5,-0.4 -1.2,-0.7 -2.2,-0.7 -1,0 -1.8,0.4 -2.4,1.2 -0.6,0.8 -0.9,1.8 -0.9,3.1 v 3.9 c 0,1.3 0.3,2.3 0.9,3.1 0.6,0.8 1.5,1.2 2.5,1.2 0.8,0 1.4,-0.1 1.9,-0.2 0.5,-0.1 0.8,-0.3 1.1,-0.5 v -3.3 h -3.3 v -2.8 h 7.6 v 7.3 z"
   id="path312" />
	<path
   fill="#ffdb0e"
   d="m 320.8,22.6 c 0,2.3 -0.7,4.2 -2.2,5.6 -1.4,1.5 -3.3,2.2 -5.7,2.2 -2.3,0 -4.2,-0.7 -5.7,-2.2 -1.5,-1.5 -2.2,-3.4 -2.2,-5.6 v -3.3 c 0,-2.3 0.7,-4.1 2.2,-5.6 1.5,-1.5 3.3,-2.2 5.7,-2.2 2.3,0 4.2,0.7 5.7,2.2 1.5,1.5 2.2,3.4 2.2,5.6 z m -4.3,-3.3 c 0,-1.3 -0.3,-2.4 -0.9,-3.3 -0.6,-0.8 -1.5,-1.3 -2.6,-1.3 -1.2,0 -2,0.4 -2.7,1.3 -0.6,0.8 -0.9,1.9 -0.9,3.3 v 3.4 c 0,1.3 0.3,2.4 0.9,3.3 0.6,0.8 1.5,1.3 2.7,1.3 1.1,0 2,-0.4 2.6,-1.3 0.6,-0.8 0.9,-1.9 0.9,-3.3 z"
   id="path314" />
	<path
   fill="#ffdb0e"
   d="m 329.8,25.2 0.1,0.7 h 0.1 l 0.1,-0.6 3.7,-13.5 h 4.5 l -6,18.5 h -4.6 l -6,-18.5 h 4.5 z"
   id="path316" />
	<path
   fill="#ffdb0e"
   d="m 341.5,30.2 h -4.3 v -3.6 h 4.3 z"
   id="path318" />
	<path
   fill="#ffdb0e"
   d="m 349.2,23.9 v 6.3 h -4.3 V 11.7 h 7.1 c 2.2,0 3.9,0.6 5.2,1.7 1.3,1.1 1.9,2.6 1.9,4.4 0,1.8 -0.6,3.3 -1.9,4.4 -1.3,1.1 -3,1.7 -5.2,1.7 z m 0,-3.3 h 2.8 c 0.9,0 1.6,-0.3 2.1,-0.8 0.5,-0.5 0.7,-1.2 0.7,-2 0,-0.8 -0.2,-1.5 -0.7,-2 C 353.6,15.3 352.9,15 352,15 h -2.8 z"
   id="path320" />
	<path
   fill="#ffdb0e"
   d="m 372.5,22.8 h -6.8 v 7.4 h -4.3 V 11.7 h 12.4 V 15 h -8.1 v 4.4 h 6.8 z"
   id="path322" />
</g><g
     id="g282">
	<g
   id="g280">
		<path
   fill="#23569f"
   d="m 39.4,34.7 c -1.3,-0.3 -1.1,-1 -3.1,-1 -1.9,0 -1.8,1.2 -4,1.2 -2.2,0 -1.9,-1.2 -4.2,-1.2 -1.8,0 -2,1.2 -3.8,1.2 -3.1,0 -2,-1.2 -4.5,-1.2 -1.8,0 -1.9,1.2 -4.1,1.2 -2,0 -2.3,-1.2 -4.1,-1.2 -1.3,0 -1.5,0.7 -3.1,1 0.4,0.5 0.9,1 1.4,1.5 h 27.9 c 0.7,-0.6 1.2,-1 1.6,-1.5"
   id="path206" />
		<path
   fill="#23569f"
   d="m 36.1,37.7 c -2.1,-0.2 -1.8,-1.2 -4.2,-1.2 -2,0 -1.8,1.2 -3.9,1.2 -2.2,0 -1.7,-1.2 -4,-1.2 -1.7,0 -2.4,1.2 -4.2,1.2 -2.7,0 -2.1,-1.2 -4,-1.2 -1.7,0 -1.9,1.1 -3.7,1.2 0.6,0.5 1.3,0.9 2,1.3 h 20.1 c 0.6,-0.4 1.3,-0.8 1.9,-1.3"
   id="path208" />
		<path
   fill="#23569f"
   d="m 19.9,39.5 c -1.3,0 -1.7,0.6 -2.6,1 2.1,0.8 4.5,1.2 6.9,1.2 2.3,0 4.6,-0.4 6.6,-1.1 -0.9,-0.3 -0.9,-1.1 -2.7,-1.1 -1.8,0 -2,1.2 -3.8,1.2 -3.1,0 -2,-1.2 -4.4,-1.2"
   id="path210" />
		<path
   fill="#23569f"
   d="m 43.4,27.2 c -0.7,0.9 -1.8,1.6 -3,1.6 -2.5,0 -2.3,-1.2 -4.3,-1.2 -0.1,0 -0.2,0 -0.3,0 v 0.1 c 0,0.7 -0.1,1.5 -0.4,2.4 h 6.9 c 0.5,-1 0.8,-1.9 1.1,-2.9"
   id="path212" />
		<path
   fill="#23569f"
   d="m 12.3,27.6 c -0.1,0 -0.2,0 -0.3,0 -2.2,0 -1.4,1.2 -4.6,1.2 -0.6,0 -1.8,-0.5 -2.5,-1.1 0.2,0.8 0.5,1.6 0.9,2.4 h 6.9 c -0.3,-0.9 -0.4,-1.7 -0.4,-2.4 v -0.1"
   id="path214" />
		<path
   fill="#23569f"
   d="m 22.5,28.9 c -0.1,0.4 -0.2,0.8 -0.3,1.1 H 26 c -0.1,-0.3 -0.2,-0.7 -0.3,-1.1 h -3.2"
   id="path216" />
		<path
   fill="#23569f"
   d="m 41.9,30.7 c -1.7,0.3 -1.8,1.1 -4.4,1.1 -1.5,0 -2.1,-0.3 -2.6,-0.6 -0.4,0.7 -0.9,1.4 -1.7,1.8 h 7.3 c 0.6,-0.7 1,-1.5 1.4,-2.3"
   id="path218" />
		<path
   fill="#23569f"
   d="m 26.6,31.4 c -0.3,-0.5 -1.2,-0.8 -2.6,-0.8 -1.1,0 -2,0.3 -2.4,0.8 -0.4,0.5 -0.9,1.3 -1.6,1.7 h 8 c -0.5,-0.4 -1.1,-1.2 -1.4,-1.7"
   id="path220" />
		<path
   fill="#23569f"
   d="m 13.3,31.4 c -0.5,0.2 -1,0.4 -1.9,0.4 -2.1,0 -2.1,-1.2 -3.8,-1.2 -0.7,0 -1.1,0.2 -1.5,0.4 0.4,0.7 0.9,1.4 1.3,2 h 7.5 c -0.7,-0.4 -1.2,-1 -1.6,-1.6"
   id="path222" />
		<path
   fill="#ffdd14"
   d="m 4.2,21.5 c 0,0.3 0,0.6 0,1 v 0 c 0,1.4 0.1,2.7 0.4,4 h 7.7 V 21.8 L 4.2,21.5"
   id="path224" />
		<path
   fill="#ffdd14"
   d="M 43.8,20.2 C 43.6,18.6 43.2,17 42.6,15.5 L 35.8,18 v 3 l 8,-0.8"
   id="path226" />
		<polyline
   fill="#ffdd14"
   points="32.6,21 32.6,19.3 28.5,20.8 28.5,21 32.6,21   "
   id="polyline228" />
		<path
   fill="#ffdd14"
   d="M 5.6,15.5 C 5,17 4.6,18.6 4.4,20.2 l 8,0.9 v -3 L 5.6,15.5"
   id="path230" />
		<path
   fill="#ffdd14"
   d="m 44,21.5 -8.1,0.3 v 4.7 h 7.7 c 0.3,-1.3 0.4,-2.6 0.4,-4 v 0 c 0,-0.3 0,-0.7 0,-1"
   id="path232" />
		<polyline
   fill="#ffdd14"
   points="19.5,21 19.5,20.7 15.6,19.3 15.6,21 19.5,21   "
   id="polyline234" />
		<path
   fill="#ffdd14"
   d="m 35.6,13.9 c 0,0 0.5,0.4 0.5,0.4 0,0 -0.4,0.5 -0.5,0.6 0.1,0.1 0.5,0.6 0.5,0.6 0,0 -0.4,0.4 -0.5,0.5 0.1,0.1 0.3,0.4 0.3,0.4 v 0.7 l 6.2,-2.8 c -0.7,-1.5 -1.6,-2.8 -2.7,-4 l -3.6,2.9 0.2,0.3 c 0,-0.2 -0.4,0.3 -0.4,0.4"
   id="path236" />
		<path
   fill="#ffdd14"
   d="m 32.8,16.6 c -0.1,-0.1 -0.4,-0.5 -0.4,-0.5 0,0 0.4,-0.5 0.5,-0.6 0,0 0,0 0,0 L 28.5,19 v 1.5 l 4.1,-1.9 v -1.7 c 0,0 0.2,-0.3 0.2,-0.3"
   id="path238" />
		<path
   fill="#ffdd14"
   d="m 32.7,14.6 c 0.1,-0.1 0.1,-0.2 0.2,-0.2 0,0 -0.5,-0.5 -0.5,-0.5 0,0 0.4,-0.5 0.5,-0.6 C 32.8,13.1 32,12.1 32,12.1 h 3.1 l 0.1,0.1 c 1.2,-1.1 2.3,-2.1 3.2,-3 C 37.2,8 35.9,7 34.4,6.1 l -6,9.4 v 2.9 c 1.3,-1.1 2.8,-2.4 4.3,-3.8"
   id="path240" />
		<path
   fill="#ffdd14"
   d="m 28.5,9.7 v 4.6 L 33.2,5.5 C 31.7,4.8 30.2,4.2 28.5,3.9 l -1.4,5.8 c 0.2,0 0.5,0.1 0.8,0.1 h 0.6"
   id="path242" />
		<path
   fill="#ffdd14"
   d="m 12.6,16.1 c -0.1,-0.1 -0.5,-0.5 -0.5,-0.5 0,0 0.4,-0.5 0.5,-0.6 -0.1,-0.1 -0.5,-0.6 -0.5,-0.6 0,0 0.4,-0.4 0.5,-0.4 -0.1,-0.1 -0.4,-0.5 -0.4,-0.5 l 0.2,-0.3 -3.6,-2.8 c -1.1,1.2 -2,2.6 -2.7,4 l 6.2,2.8 v -0.7 c 0,-0.1 0.3,-0.4 0.3,-0.4"
   id="path244" />
		<path
   fill="#ffdd14"
   d="m 15.4,15.5 c 0,0 -0.1,0 0,0 0.1,0.1 0.4,0.6 0.4,0.6 0,0 -0.4,0.5 -0.4,0.5 0.1,0.1 0.3,0.3 0.3,0.3 v 1.7 l 3.9,1.8 v -1.6 l -4.2,-3.3"
   id="path246" />
		<path
   fill="#ffdd14"
   d="m 16.2,12.1 c 0,0 -0.7,1 -0.9,1.2 0.1,0.1 0.5,0.6 0.5,0.6 0,0 -0.4,0.4 -0.5,0.5 0,0 0.1,0.1 0.1,0.1 1.4,1.3 2.8,2.6 4.1,3.8 V 15.2 L 13.7,6.1 C 12.3,7 11,8 9.8,9.2 c 0.9,0.9 2.1,1.9 3.2,3 l 0.1,-0.1 h 3.1"
   id="path248" />
		<path
   fill="#ffdd14"
   d="M 20.1,5.3 19.7,3.8 C 18,4.2 16.5,4.7 15,5.4 l 4.5,8.5 V 7.3 c 0,-0.7 0.2,-1.4 0.6,-2"
   id="path250" />
		<path
   fill="#924e17"
   d="m 22,27.3 h -2.8 l -1.6,1.5 c 0.1,0 3.3,0.5 4.4,-1.5"
   id="path252" />
		<path
   fill="#924e17"
   d="M 26.2,27.3 H 29 l 1.6,1.5 c -0.1,0 -3.3,0.5 -4.4,-1.5"
   id="path254" />
		<rect
   x="16.1"
   y="25.799999"
   fill="#924e17"
   width="16"
   height="0.69999999"
   id="rect256" />
		<path
   fill="#924e17"
   d="m 27.9,10 c -2.1,0 -3.4,-1.1 -3.4,-2.9 0,-2 2.6,-2.8 2.6,-2.8 V 3.8 c 0,0 -0.8,-0.1 -3.2,-0.1 C 21.2,3.7 20,5.6 20,7.4 V 19 l 8.2,2.2 V 10 h -0.3 m -0.3,10.6 c -0.5,-0.1 -7,-1.9 -7.3,-2 V 7.3 c 0,-1.2 0.7,-3.2 3.4,-3.2 1,0 1.7,0 2.2,0.1 -0.7,0.4 -1.9,1.3 -1.9,2.9 0,2 1.4,3.3 3.7,3.4 v 10.1 z"
   id="path258" />
		<path
   fill="#924e17"
   d="m 19.1,22 h -0.5 l -0.6,0.5 0.1,-0.2 c 0,-0.4 -0.2,-0.4 -0.4,-0.4 h -0.1 c -0.1,0 -0.4,0 -0.4,0.4 l 0.1,0.2 -0.5,-0.5 h -0.4 l 0.7,1.4 -0.7,1.6 h 0.7 l 0.5,-0.8 H 18 l 0.5,0.8 h 0.7 L 18.5,23.4 19.1,22"
   id="path260" />
		<path
   fill="#924e17"
   d="m 22.3,22 h -0.5 l -0.5,0.5 0.1,-0.2 c 0,-0.4 -0.3,-0.4 -0.4,-0.4 h -0.1 c -0.1,0 -0.4,0 -0.4,0.4 L 20.6,22.5 20,22 h -0.5 l 0.7,1.4 -0.7,1.6 h 0.7 l 0.5,-0.8 h 0.4 l 0.5,0.8 h 0.7 L 21.6,23.4 22.3,22"
   id="path262" />
		<path
   fill="#924e17"
   d="M 25.5,22 H 25 l -0.5,0.5 0.1,-0.2 c 0,-0.4 -0.2,-0.4 -0.4,-0.4 H 24 c -0.1,0 -0.4,0 -0.4,0.4 l 0.1,0.2 -0.6,-0.5 h -0.5 l 0.7,1.4 -0.6,1.6 h 0.7 l 0.5,-0.8 h 0.4 l 0.5,0.8 h 0.7 L 24.8,23.4 25.5,22"
   id="path264" />
		<path
   fill="#924e17"
   d="m 28.7,22 h -0.5 l -0.5,0.5 v -0.2 c 0,-0.4 -0.3,-0.4 -0.4,-0.4 h -0.1 c -0.1,0 -0.4,0 -0.4,0.4 l 0.1,0.2 -0.6,-0.5 h -0.5 l 0.7,1.4 -0.6,1.6 h 0.7 l 0.5,-0.8 h 0.4 L 28,25 h 0.7 L 28,23.4 28.7,22"
   id="path266" />
		<path
   fill="#924e17"
   d="m 31.8,22 h -0.5 l -0.5,0.5 v -0.2 c 0,-0.4 -0.3,-0.4 -0.4,-0.4 h -0.1 c -0.1,0 -0.4,0 -0.4,0.4 v 0.2 L 29.5,22 H 29 l 0.7,1.4 -0.6,1.6 h 0.7 l 0.5,-0.8 h 0.4 l 0.5,0.8 h 0.7 L 31.2,23.4 31.8,22"
   id="path268" />
		<path
   fill="#924e17"
   d="M 18.3,29.3 C 16.2,29.3 15,28 15,27.2 V 17.1 L 14.5,16.6 15,16 14.5,15.5 15,14.9 14.5,14.3 15,13.8 14.5,13.2 15,12.6 h -1.7 l -0.5,0.6 0.5,0.6 -0.5,0.4 0.5,0.6 -0.5,0.6 0.5,0.5 -0.5,0.6 v 11.1 c 0,0 0,5.5 4.6,5.5 4.2,0 4.8,-4.5 4.8,-5.5 -0.7,1.1 -1.8,1.7 -3.9,1.7 m -0.8,3.5 c -3.4,0 -3.9,-3.4 -3.9,-5.2 V 17.4 h 1 v 9.8 c 0,1.2 1.5,2.4 3.4,2.5 2.3,0.1 3.2,-0.4 3.8,-0.9 -0.2,0.8 -1.2,4 -4.3,4"
   id="path270" />
		<path
   fill="#924e17"
   d="m 34.8,13.9 0.5,-0.6 -0.5,-0.6 h -1.7 l 0.5,0.6 -0.5,0.6 0.5,0.5 -0.5,0.6 0.5,0.6 -0.5,0.4 0.5,0.6 -0.5,0.5 v 10.2 c 0,0.8 -1.2,2.1 -3.3,2.1 -2.1,0 -3.2,-0.6 -4,-1.6 0,1 0.6,5.5 4.8,5.5 4.6,0 4.6,-5.5 4.6,-5.5 V 16.6 l -0.4,-0.6 0.5,-0.5 -0.5,-0.6 0.5,-0.6 -0.5,-0.4 m -0.3,13.6 c 0,1.9 -0.5,5.2 -3.9,5.2 -3,0 -4,-3.2 -4.2,-4 0.6,0.5 1.5,1 3.8,0.9 1.9,-0.1 3.4,-1.3 3.4,-2.5 v -9.8 h 1 v 10.2 z"
   id="path272" />
		<path
   fill="#e11417"
   d="m 13.6,17.4 v 10.1 c 0,1.9 0.5,5.2 3.9,5.2 3.1,0 4,-3.2 4.2,-4 -0.6,0.5 -1.5,1 -3.8,0.9 -1.9,-0.1 -3.4,-1.3 -3.4,-2.5 v -9.8 h -0.9"
   id="path274" />
		<path
   fill="#e11417"
   d="m 34.5,17.4 v 10.1 c 0,1.9 -0.5,5.2 -3.9,5.2 -3,0 -4,-3.2 -4.2,-4 0.6,0.5 1.5,1 3.8,0.9 1.9,-0.1 3.4,-1.3 3.4,-2.5 v -9.8 h 0.9"
   id="path276" />
		<path
   fill="#e11417"
   d="m 24,7.1 c 0,-1.6 1.2,-2.5 2.1,-2.9 -0.5,0 -1.2,-0.1 -2.2,-0.1 -2.7,0 -3.4,2 -3.4,3.2 v 11.3 c 0.3,0.1 6.7,1.8 7.3,2 V 10.5 C 25.4,10.4 24,9.1 24,7.1"
   id="path278" />
	</g>
</g></g></svg>
