<?xml version="1.0" encoding="utf-8"?>
<!-- Generator: Adobe Illustrator 19.1.1, SVG Export Plug-In . SVG Version: 6.00 Build 0)  -->
<svg version="1.1" id="Calque_1" xmlns="http://www.w3.org/2000/svg" xmlns:xlink="http://www.w3.org/1999/xlink" x="0px" y="0px"
	 viewBox="0 0 385.2 45.2" enable-background="new 0 0 385.2 45.2" xml:space="preserve">
<path fill="#FFFFFF" d="M1.5,22.6c0,12.5,10.1,21.6,22.6,21.6s22.6-9.1,22.6-21.6S36.6,1,24.1,1S1.5,10.1,1.5,22.6z"/>
<g>
	<g>
		<path fill="#23569F" d="M39.4,34.7c-1.3-0.3-1.1-1-3.1-1c-1.9,0-1.8,1.2-4,1.2c-2.2,0-1.9-1.2-4.2-1.2c-1.8,0-2,1.2-3.8,1.2
			c-3.1,0-2-1.2-4.5-1.2c-1.8,0-1.9,1.2-4.1,1.2c-2,0-2.3-1.2-4.1-1.2c-1.3,0-1.5,0.7-3.1,1c0.4,0.5,0.9,1,1.4,1.5h27.9
			C38.5,35.6,39,35.2,39.4,34.7"/>
		<path fill="#23569F" d="M36.1,37.7c-2.1-0.2-1.8-1.2-4.2-1.2c-2,0-1.8,1.2-3.9,1.2c-2.2,0-1.7-1.2-4-1.2c-1.7,0-2.4,1.2-4.2,1.2
			c-2.7,0-2.1-1.2-4-1.2c-1.7,0-1.9,1.1-3.7,1.2c0.6,0.5,1.3,0.9,2,1.3h20.1C34.8,38.6,35.5,38.2,36.1,37.7"/>
		<path fill="#23569F" d="M19.9,39.5c-1.3,0-1.7,0.6-2.6,1c2.1,0.8,4.5,1.2,6.9,1.2c2.3,0,4.6-0.4,6.6-1.1c-0.9-0.3-0.9-1.1-2.7-1.1
			c-1.8,0-2,1.2-3.8,1.2C21.2,40.7,22.3,39.5,19.9,39.5"/>
		<path fill="#23569F" d="M43.4,27.2c-0.7,0.9-1.8,1.6-3,1.6c-2.5,0-2.3-1.2-4.3-1.2c-0.1,0-0.2,0-0.3,0v0.1c0,0.7-0.1,1.5-0.4,2.4
			h6.9C42.8,29.1,43.1,28.2,43.4,27.2"/>
		<path fill="#23569F" d="M12.3,27.6c-0.1,0-0.2,0-0.3,0c-2.2,0-1.4,1.2-4.6,1.2c-0.6,0-1.8-0.5-2.5-1.1c0.2,0.8,0.5,1.6,0.9,2.4
			h6.9c-0.3-0.9-0.4-1.7-0.4-2.4V27.6"/>
		<path fill="#23569F" d="M22.5,28.9c-0.1,0.4-0.2,0.8-0.3,1.1H26c-0.1-0.3-0.2-0.7-0.3-1.1H22.5"/>
		<path fill="#23569F" d="M41.9,30.7c-1.7,0.3-1.8,1.1-4.4,1.1c-1.5,0-2.1-0.3-2.6-0.6c-0.4,0.7-0.9,1.4-1.7,1.8h7.3
			C41.1,32.3,41.5,31.5,41.9,30.7"/>
		<path fill="#23569F" d="M26.6,31.4c-0.3-0.5-1.2-0.8-2.6-0.8c-1.1,0-2,0.3-2.4,0.8c-0.4,0.5-0.9,1.3-1.6,1.7h8
			C27.5,32.7,26.9,31.9,26.6,31.4"/>
		<path fill="#23569F" d="M13.3,31.4c-0.5,0.2-1,0.4-1.9,0.4c-2.1,0-2.1-1.2-3.8-1.2c-0.7,0-1.1,0.2-1.5,0.4C6.5,31.7,7,32.4,7.4,33
			h7.5C14.2,32.6,13.7,32,13.3,31.4"/>
		<path fill="#FFDD14" d="M4.2,21.5c0,0.3,0,0.6,0,1v0c0,1.4,0.1,2.7,0.4,4h7.7v-4.7L4.2,21.5"/>
		<path fill="#FFDD14" d="M43.8,20.2c-0.2-1.6-0.6-3.2-1.2-4.7L35.8,18v3L43.8,20.2"/>
		<polyline fill="#FFDD14" points="32.6,21 32.6,19.3 28.5,20.8 28.5,21 32.6,21 		"/>
		<path fill="#FFDD14" d="M5.6,15.5c-0.6,1.5-1,3.1-1.2,4.7l8,0.9v-3L5.6,15.5"/>
		<path fill="#FFDD14" d="M44,21.5l-8.1,0.3v4.7h7.7c0.3-1.3,0.4-2.6,0.4-4v0C44,22.2,44,21.8,44,21.5"/>
		<polyline fill="#FFDD14" points="19.5,21 19.5,20.7 15.6,19.3 15.6,21 19.5,21 		"/>
		<path fill="#FFDD14" d="M35.6,13.9c0,0,0.5,0.4,0.5,0.4s-0.4,0.5-0.5,0.6c0.1,0.1,0.5,0.6,0.5,0.6s-0.4,0.4-0.5,0.5
			c0.1,0.1,0.3,0.4,0.3,0.4v0.7l6.2-2.8c-0.7-1.5-1.6-2.8-2.7-4l-3.6,2.9l0.2,0.3C36,13.3,35.6,13.8,35.6,13.9"/>
		<path fill="#FFDD14" d="M32.8,16.6c-0.1-0.1-0.4-0.5-0.4-0.5s0.4-0.5,0.5-0.6c0,0,0,0,0,0L28.5,19v1.5l4.1-1.9v-1.7
			C32.6,16.9,32.8,16.6,32.8,16.6"/>
		<path fill="#FFDD14" d="M32.7,14.6c0.1-0.1,0.1-0.2,0.2-0.2c0,0-0.5-0.5-0.5-0.5s0.4-0.5,0.5-0.6c-0.1-0.2-0.9-1.2-0.9-1.2h3.1
			l0.1,0.1c1.2-1.1,2.3-2.1,3.2-3c-1.2-1.2-2.5-2.2-4-3.1l-6,9.4v2.9C29.7,17.3,31.2,16,32.7,14.6"/>
		<path fill="#FFDD14" d="M28.5,9.7v4.6l4.7-8.8c-1.5-0.7-3-1.3-4.7-1.6l-1.4,5.8c0.2,0,0.5,0.1,0.8,0.1H28.5"/>
		<path fill="#FFDD14" d="M12.6,16.1c-0.1-0.1-0.5-0.5-0.5-0.5s0.4-0.5,0.5-0.6c-0.1-0.1-0.5-0.6-0.5-0.6s0.4-0.4,0.5-0.4
			c-0.1-0.1-0.4-0.5-0.4-0.5l0.2-0.3l-3.6-2.8c-1.1,1.2-2,2.6-2.7,4l6.2,2.8v-0.7C12.3,16.4,12.6,16.1,12.6,16.1"/>
		<path fill="#FFDD14" d="M15.4,15.5C15.4,15.5,15.3,15.5,15.4,15.5c0.1,0.1,0.4,0.6,0.4,0.6s-0.4,0.5-0.4,0.5
			c0.1,0.1,0.3,0.3,0.3,0.3v1.7l3.9,1.8v-1.6L15.4,15.5"/>
		<path fill="#FFDD14" d="M16.2,12.1c0,0-0.7,1-0.9,1.2c0.1,0.1,0.5,0.6,0.5,0.6s-0.4,0.4-0.5,0.5c0,0,0.1,0.1,0.1,0.1
			c1.4,1.3,2.8,2.6,4.1,3.8v-3.1l-5.8-9.1C12.3,7,11,8,9.8,9.2c0.9,0.9,2.1,1.9,3.2,3l0.1-0.1H16.2"/>
		<path fill="#FFDD14" d="M20.1,5.3l-0.4-1.5c-1.7,0.4-3.2,0.9-4.7,1.6l4.5,8.5V7.3C19.5,6.6,19.7,5.9,20.1,5.3"/>
		<path fill="#924E17" d="M22,27.3h-2.8l-1.6,1.5C17.7,28.8,20.9,29.3,22,27.3"/>
		<path fill="#924E17" d="M26.2,27.3H29l1.6,1.5C30.5,28.8,27.3,29.3,26.2,27.3"/>
		<rect x="16.1" y="25.8" fill="#924E17" width="16" height="0.7"/>
		<path fill="#924E17" d="M27.9,10c-2.1,0-3.4-1.1-3.4-2.9c0-2,2.6-2.8,2.6-2.8l0-0.5c0,0-0.8-0.1-3.2-0.1c-2.7,0-3.9,1.9-3.9,3.7
			v11.6l8.2,2.2V10H27.9 M27.6,20.6c-0.5-0.1-7-1.9-7.3-2V7.3c0-1.2,0.7-3.2,3.4-3.2c1,0,1.7,0,2.2,0.1C25.2,4.6,24,5.5,24,7.1
			c0,2,1.4,3.3,3.7,3.4V20.6z"/>
		<path fill="#924E17" d="M19.1,22h-0.5l-0.6,0.5l0.1-0.2c0-0.4-0.2-0.4-0.4-0.4h-0.1c-0.1,0-0.4,0-0.4,0.4l0.1,0.2L16.8,22h-0.4
			l0.7,1.4L16.4,25h0.7l0.5-0.8h0.4l0.5,0.8h0.7l-0.7-1.6L19.1,22"/>
		<path fill="#924E17" d="M22.3,22h-0.5l-0.5,0.5l0.1-0.2c0-0.4-0.3-0.4-0.4-0.4h-0.1c-0.1,0-0.4,0-0.4,0.4l0.1,0.2L20,22h-0.5
			l0.7,1.4L19.5,25h0.7l0.5-0.8h0.4l0.5,0.8h0.7l-0.7-1.6L22.3,22"/>
		<path fill="#924E17" d="M25.5,22H25l-0.5,0.5l0.1-0.2c0-0.4-0.2-0.4-0.4-0.4H24c-0.1,0-0.4,0-0.4,0.4l0.1,0.2L23.1,22h-0.5
			l0.7,1.4L22.7,25h0.7l0.5-0.8h0.4l0.5,0.8h0.7l-0.7-1.6L25.5,22"/>
		<path fill="#924E17" d="M28.7,22h-0.5l-0.5,0.5l0-0.2c0-0.4-0.3-0.4-0.4-0.4h-0.1c-0.1,0-0.4,0-0.4,0.4l0.1,0.2L26.3,22h-0.5
			l0.7,1.4L25.9,25h0.7l0.5-0.8h0.4l0.5,0.8h0.7l-0.7-1.6L28.7,22"/>
		<path fill="#924E17" d="M31.8,22h-0.5l-0.5,0.5l0-0.2c0-0.4-0.3-0.4-0.4-0.4h-0.1c-0.1,0-0.4,0-0.4,0.4l0,0.2L29.5,22H29l0.7,1.4
			L29.1,25h0.7l0.5-0.8h0.4l0.5,0.8h0.7l-0.7-1.6L31.8,22"/>
		<path fill="#924E17" d="M18.3,29.3c-2.1,0-3.3-1.3-3.3-2.1V17.1l-0.5-0.5l0.5-0.6l-0.5-0.5l0.5-0.6l-0.5-0.6l0.5-0.5l-0.5-0.6
			l0.5-0.6h-1.7l-0.5,0.6l0.5,0.6l-0.5,0.4l0.5,0.6l-0.5,0.6l0.5,0.5l-0.5,0.6v11.1c0,0,0,5.5,4.6,5.5c4.2,0,4.8-4.5,4.8-5.5
			C21.5,28.7,20.4,29.3,18.3,29.3 M17.5,32.8c-3.4,0-3.9-3.4-3.9-5.2V17.4h1v9.8c0,1.2,1.5,2.4,3.4,2.5c2.3,0.1,3.2-0.4,3.8-0.9
			C21.6,29.6,20.6,32.8,17.5,32.8"/>
		<path fill="#924E17" d="M34.8,13.9l0.5-0.6l-0.5-0.6h-1.7l0.5,0.6l-0.5,0.6l0.5,0.5l-0.5,0.6l0.5,0.6L33.1,16l0.5,0.6l-0.5,0.5
			v10.2c0,0.8-1.2,2.1-3.3,2.1c-2.1,0-3.2-0.6-4-1.6c0,1,0.6,5.5,4.8,5.5c4.6,0,4.6-5.5,4.6-5.5V16.6L34.8,16l0.5-0.5l-0.5-0.6
			l0.5-0.6L34.8,13.9 M34.5,27.5c0,1.9-0.5,5.2-3.9,5.2c-3,0-4-3.2-4.2-4c0.6,0.5,1.5,1,3.8,0.9c1.9-0.1,3.4-1.3,3.4-2.5v-9.8h1
			V27.5z"/>
		<path fill="#E11417" d="M13.6,17.4v10.1c0,1.9,0.5,5.2,3.9,5.2c3.1,0,4-3.2,4.2-4c-0.6,0.5-1.5,1-3.8,0.9
			c-1.9-0.1-3.4-1.3-3.4-2.5v-9.8H13.6"/>
		<path fill="#E11417" d="M34.5,17.4v10.1c0,1.9-0.5,5.2-3.9,5.2c-3,0-4-3.2-4.2-4c0.6,0.5,1.5,1,3.8,0.9c1.9-0.1,3.4-1.3,3.4-2.5
			v-9.8H34.5"/>
		<path fill="#E11417" d="M24,7.1c0-1.6,1.2-2.5,2.1-2.9c-0.5,0-1.2-0.1-2.2-0.1c-2.7,0-3.4,2-3.4,3.2v11.3c0.3,0.1,6.7,1.8,7.3,2
			V10.5C25.4,10.4,24,9.1,24,7.1"/>
	</g>
</g>
<g>
	<path fill="#FFFFFF" d="M72.6,24.7L72.6,24.7l4.3-12.9h5.7v18.5h-4.3V18.3l-0.1,0l-4.1,11.9h-2.9l-4-11.7l-0.1,0v11.7h-4.3V11.7
		h5.6L72.6,24.7z"/>
	<path fill="#FFFFFF" d="M96.3,22.3h-6.5v4.6h7.8v3.3H85.5V11.7h12.1V15h-7.8v4h6.5V22.3z"/>
	<path fill="#FFFFFF" d="M109.5,25.3c0-0.7-0.2-1.2-0.6-1.5s-1.2-0.7-2.3-1.1c-2.3-0.7-4-1.5-5.1-2.4s-1.7-2.1-1.7-3.6
		c0-1.5,0.6-2.8,1.9-3.8s2.9-1.4,4.9-1.4c2.1,0,3.8,0.5,5.1,1.5s1.9,2.4,1.9,4.2l0,0.1h-4.2c0-0.9-0.2-1.5-0.7-1.9s-1.2-0.6-2.1-0.6
		c-0.8,0-1.4,0.2-1.8,0.6s-0.7,0.9-0.7,1.4c0,0.5,0.2,1,0.7,1.3s1.3,0.7,2.6,1.2c2.1,0.6,3.8,1.4,4.9,2.3s1.7,2.2,1.7,3.8
		c0,1.6-0.6,2.9-1.9,3.8c-1.3,0.9-3,1.4-5.1,1.4c-2.1,0-3.9-0.5-5.3-1.5c-1.5-1-2.2-2.5-2.1-4.7l0-0.1h4.2c0,1.1,0.3,1.8,0.8,2.3
		c0.5,0.5,1.3,0.7,2.4,0.7c0.9,0,1.6-0.2,2-0.5S109.5,25.9,109.5,25.3z"/>
	<path fill="#FFFFFF" d="M123.9,23.9h-7.5v-3.3h7.5V23.9z"/>
	<path fill="#FFFFFF" d="M127.3,30.2V11.7h6.8c2.2,0,4,0.7,5.5,2.1s2.2,3.2,2.2,5.5v3.3c0,2.2-0.7,4-2.2,5.5s-3.3,2.1-5.5,2.1H127.3
		z M131.6,15v11.9h2.5c1,0,1.8-0.4,2.4-1.2c0.6-0.8,0.9-1.8,0.9-3.1v-3.4c0-1.2-0.3-2.3-0.9-3.1S135,15,134,15H131.6z"/>
	<path fill="#FFFFFF" d="M155.1,22.3h-6.5v4.6h7.8v3.3h-12.1V11.7h12.1V15h-7.8v4h6.5V22.3z"/>
	<path fill="#FFFFFF" d="M168.5,24.7L168.5,24.7l4.3-12.9h5.7v18.5h-4.3V18.3l-0.1,0L170,30.2h-2.9l-4-11.7l-0.1,0v11.7h-4.3V11.7
		h5.6L168.5,24.7z"/>
	<path fill="#FFFFFF" d="M191.3,26.6h-5.5l-1.1,3.6h-4.5l6-18.5h2.3v0l0,0h2.3l6,18.5h-4.5L191.3,26.6z M186.8,23.3h3.5l-1.7-5.7
		h-0.1L186.8,23.3z"/>
	<path fill="#FFFFFF" d="M202.5,23.1v7.1h-4.3V11.7h6.4c2.1,0,3.8,0.5,5.1,1.5s1.9,2.3,1.9,4.1c0,1-0.3,1.8-0.8,2.5
		c-0.5,0.7-1.2,1.2-2.2,1.7c1.1,0.3,1.9,0.9,2.4,1.6c0.5,0.7,0.7,1.7,0.7,2.8V27c0,0.5,0.1,1,0.2,1.7s0.4,1.1,0.7,1.3v0.3h-4.4
		c-0.3-0.3-0.6-0.7-0.7-1.4s-0.2-1.3-0.2-1.9v-1.1c0-0.9-0.2-1.6-0.7-2s-1.1-0.7-2-0.7H202.5z M202.5,19.8h2.2c0.9,0,1.5-0.2,2-0.6
		s0.7-1,0.7-1.7c0-0.8-0.2-1.4-0.7-1.8c-0.5-0.5-1.1-0.7-2-0.7h-2.1V19.8z"/>
	<path fill="#FFFFFF" d="M229,24L229,24c0.1,2.2-0.5,3.8-1.8,4.9c-1.2,1.1-3,1.6-5.2,1.6c-2.3,0-4.1-0.7-5.5-2.1
		c-1.4-1.4-2.1-3.2-2.1-5.5v-3.9c0-2.3,0.7-4.1,2-5.5c1.3-1.4,3.1-2.1,5.3-2.1c2.3,0,4.2,0.5,5.4,1.6c1.3,1.1,1.9,2.7,1.9,4.8l0,0.1
		h-4.2c0-1.1-0.2-1.9-0.7-2.4s-1.3-0.7-2.4-0.7c-1,0-1.7,0.4-2.2,1.2s-0.8,1.8-0.8,3.1v3.9c0,1.3,0.3,2.3,0.9,3.1
		c0.6,0.8,1.4,1.2,2.4,1.2c1,0,1.7-0.2,2.1-0.7c0.4-0.5,0.7-1.3,0.7-2.5H229z"/>
	<path fill="#FFFFFF" d="M246.8,30.2h-4.3v-7.4h-6.8v7.4h-4.3V11.7h4.3v7.7h6.8v-7.7h4.3V30.2z"/>
	<path fill="#FFFFFF" d="M260.5,22.3H254v4.6h7.8v3.3h-12.1V11.7h12.1V15H254v4h6.5V22.3z"/>
	<path fill="#FFFFFF" d="M273.8,25.3c0-0.7-0.2-1.2-0.6-1.5s-1.2-0.7-2.3-1.1c-2.3-0.7-4-1.5-5.1-2.4c-1.1-0.8-1.7-2.1-1.7-3.6
		c0-1.5,0.6-2.8,1.9-3.8s2.9-1.4,4.9-1.4c2.1,0,3.8,0.5,5.1,1.5s1.9,2.4,1.9,4.2l0,0.1h-4.2c0-0.9-0.2-1.5-0.7-1.9s-1.2-0.6-2.1-0.6
		c-0.8,0-1.4,0.2-1.8,0.6s-0.7,0.9-0.7,1.4c0,0.5,0.2,1,0.7,1.3c0.5,0.3,1.3,0.7,2.6,1.2c2.1,0.6,3.8,1.4,4.9,2.3s1.7,2.2,1.7,3.8
		c0,1.6-0.6,2.9-1.9,3.8c-1.3,0.9-3,1.4-5.1,1.4c-2.1,0-3.9-0.5-5.3-1.5c-1.5-1-2.2-2.5-2.1-4.7l0-0.1h4.2c0,1.1,0.3,1.8,0.8,2.3
		c0.5,0.5,1.3,0.7,2.4,0.7c0.9,0,1.6-0.2,2-0.5S273.8,25.9,273.8,25.3z"/>
	<path fill="#FFDB0E" d="M285,30.2h-4.3v-3.6h4.3V30.2z"/>
	<path fill="#FFDB0E" d="M302.9,27.7c-0.6,0.8-1.5,1.4-2.7,2c-1.2,0.5-2.7,0.8-4.5,0.8c-2.3,0-4.2-0.7-5.6-2.1s-2.1-3.2-2.1-5.5
		v-3.9c0-2.2,0.7-4,2.1-5.5c1.4-1.4,3.2-2.1,5.4-2.1c2.4,0,4.1,0.5,5.4,1.6c1.2,1.1,1.8,2.5,1.7,4.3l0,0.1h-4c0-0.9-0.2-1.6-0.7-2
		s-1.2-0.7-2.2-0.7c-1,0-1.8,0.4-2.4,1.2s-0.9,1.8-0.9,3.1v3.9c0,1.3,0.3,2.3,0.9,3.1c0.6,0.8,1.5,1.2,2.5,1.2
		c0.8,0,1.4-0.1,1.9-0.2c0.5-0.1,0.8-0.3,1.1-0.5v-3.3h-3.3v-2.8h7.6V27.7z"/>
	<path fill="#FFDB0E" d="M320.8,22.6c0,2.3-0.7,4.2-2.2,5.6c-1.4,1.5-3.3,2.2-5.7,2.2c-2.3,0-4.2-0.7-5.7-2.2
		c-1.5-1.5-2.2-3.4-2.2-5.6v-3.3c0-2.3,0.7-4.1,2.2-5.6c1.5-1.5,3.3-2.2,5.7-2.2c2.3,0,4.2,0.7,5.7,2.2s2.2,3.4,2.2,5.6V22.6z
		 M316.5,19.3c0-1.3-0.3-2.4-0.9-3.3c-0.6-0.8-1.5-1.3-2.6-1.3c-1.2,0-2,0.4-2.7,1.3c-0.6,0.8-0.9,1.9-0.9,3.3v3.4
		c0,1.3,0.3,2.4,0.9,3.3c0.6,0.8,1.5,1.3,2.7,1.3c1.1,0,2-0.4,2.6-1.3c0.6-0.8,0.9-1.9,0.9-3.3V19.3z"/>
	<path fill="#FFDB0E" d="M329.8,25.2l0.1,0.7h0.1l0.1-0.6l3.7-13.5h4.5l-6,18.5h-4.6l-6-18.5h4.5L329.8,25.2z"/>
	<path fill="#FFDB0E" d="M341.5,30.2h-4.3v-3.6h4.3V30.2z"/>
	<path fill="#FFDB0E" d="M349.2,23.9v6.3h-4.3V11.7h7.1c2.2,0,3.9,0.6,5.2,1.7s1.9,2.6,1.9,4.4s-0.6,3.3-1.9,4.4s-3,1.7-5.2,1.7
		H349.2z M349.2,20.6h2.8c0.9,0,1.6-0.3,2.1-0.8s0.7-1.2,0.7-2c0-0.8-0.2-1.5-0.7-2c-0.5-0.5-1.2-0.8-2.1-0.8h-2.8V20.6z"/>
	<path fill="#FFDB0E" d="M372.5,22.8h-6.8v7.4h-4.3V11.7h12.4V15h-8.1v4.4h6.8V22.8z"/>
</g>
</svg>
