<svg xmlns="http://www.w3.org/2000/svg" version="1.1" x="0" y="0" viewBox="0 0 1429.04 167.28" style="enable-background:new 0 0 1429.04 167.28" xml:space="preserve" id="svg1238">
  <style type="text/css" id="style1065">
    .st7{fill:#e0141a}.st10{fill:#25579e}.st13{fill:#ffdc15}.st14{fill:#5b89c1}.st15{fill:#924e18}
  </style>
  <g id="Calque_4">
    <path class="st7" d="m279.7 114.19-.08-35.11L262.4 108h-6.1l-17.14-28.17v34.35h-12.7v-58.5h11.2l21.9 36.36 21.56-36.36h11.12l.17 58.51H279.7z" id="path1105"/>
    <path class="st7" d="M352.43 103.33v10.87h-45.3V55.68h44.22v10.87h-44.213v12.71h40.613v10.53h-27.16v13.54h31.84z" id="path1107"/>
    <path class="st7" d="m359.47 108.42 4.6-10.2c4.93 3.59 12.29 6.1 19.31 6.1 8.02 0 11.28-2.67 11.28-6.27 0-10.95-34.02-3.43-34.02-25.16 0-9.95 8.02-18.22 24.66-18.22 7.36 0 14.88 1.76 20.31 5.18l-4.18 10.28c-5.43-3.09-11.03-4.6-16.21-4.6-8.02 0-11.12 3.01-11.12 6.69 0 10.78 34.02 3.34 34.02 24.82 0 9.78-8.11 18.14-24.82 18.14-9.29.01-18.65-2.74-23.83-6.76z" id="path1109"/>
    <path class="st7" d="M453.85 55.68h26.58c19.14 0 32.26 11.53 32.26 29.25s-13.12 29.26-32.26 29.26h-26.58V55.68zm25.91 47.39c11.62 0 19.22-6.94 19.22-18.14s-7.61-18.14-19.22-18.14h-12.37v36.27h12.37z" id="path1111"/>
    <path class="st7" d="M569.05 103.33v10.87h-45.3V55.68h44.22v10.87l-44.229.066.006 12.644h40.613v10.53H537.2v13.54z" id="path1113"/>
    <path class="st7" d="m633.92 114.19-.08-35.11L616.62 108h-6.1l-17.13-28.17v34.35h-12.7v-58.5h11.2l21.9 36.36 21.56-36.36h11.12l.17 58.51h-12.72z" id="path1115"/>
    <path class="st7" d="M699.89 101.65h-27.16l-5.18 12.54h-13.87l26.08-58.51h13.37l26.16 58.51h-14.21l-5.19-12.54zm-4.26-10.28-9.28-22.4-9.28 22.4h18.56z" id="path1117"/>
    <path class="st7" d="m763.51 114.19-11.28-16.3h-12.45v16.3h-13.54V55.68h25.32c15.63 0 25.41 8.11 25.41 21.23 0 8.78-4.43 15.21-12.04 18.47l13.12 18.81h-14.54zm-12.7-47.47h-11.03v20.39h11.03c8.27 0 12.45-3.84 12.45-10.2 0-6.43-4.18-10.19-12.45-10.19z" id="path1119"/>
    <path class="st7" d="M784.84 84.94c0-17.64 13.54-30.26 31.76-30.26 10.11 0 18.55 3.68 24.07 10.37l-8.69 8.02c-3.93-4.51-8.86-6.85-14.71-6.85-10.95 0-18.72 7.69-18.72 18.72 0 11.03 7.77 18.72 18.72 18.72 5.85 0 10.78-2.34 14.71-6.94l8.69 8.02c-5.52 6.77-13.96 10.45-24.16 10.45-18.13 0-31.67-12.62-31.67-30.25z" id="path1121"/>
    <path class="st7" d="M904.3 55.68v58.51h-13.54V90.2h-26.58v23.99h-13.54V55.68h13.54v23.07h26.58V55.68h13.54z" id="path1123"/>
    <path class="st7" d="M964.33 103.33v10.87h-45.3V55.68h44.22v10.87h-44.213v12.71h40.613v10.53h-27.16v13.54h31.84z" id="path1125"/>
    <path class="st7" d="m971.36 108.42 4.6-10.2c4.93 3.59 12.29 6.1 19.31 6.1 8.02 0 11.28-2.67 11.28-6.27 0-10.95-34.02-3.43-34.02-25.16 0-9.95 8.02-18.22 24.66-18.22 7.36 0 14.88 1.76 20.31 5.18l-4.18 10.28c-5.43-3.09-11.03-4.6-16.21-4.6-8.02 0-11.12 3.01-11.12 6.69 0 10.78 34.02 3.34 34.02 24.82 0 9.78-8.11 18.14-24.82 18.14-9.29.01-18.65-2.74-23.83-6.76z" id="path1127"/>
    <path class="st14" d="M1027.71 106.67c0-4.85 3.59-8.02 8.11-8.02 4.51 0 8.11 3.18 8.11 8.02 0 4.76-3.59 8.19-8.11 8.19s-8.11-3.43-8.11-8.19z" id="path1129"/>
    <path class="st14" d="M1092.41 84.02h12.37v23.74c-6.44 4.85-15.3 7.44-23.65 7.44-18.39 0-31.93-12.62-31.93-30.26s13.54-30.26 32.18-30.26c10.28 0 18.81 3.51 24.49 10.11l-8.69 8.02c-4.26-4.51-9.19-6.6-15.13-6.6-11.37 0-19.14 7.61-19.14 18.72 0 10.95 7.77 18.72 18.97 18.72 3.68 0 7.1-.67 10.53-2.51V84.02z" id="path1131"/>
    <path class="st14" d="M1114.49 84.94c0-17.39 13.54-30.26 32.01-30.26 18.39 0 32.01 12.79 32.01 30.26 0 17.47-13.62 30.26-32.01 30.26-18.47-.01-32.01-12.88-32.01-30.26zm50.32 0c0-11.12-7.86-18.72-18.3-18.72-10.45 0-18.3 7.61-18.3 18.72s7.86 18.72 18.3 18.72c10.44 0 18.3-7.61 18.3-18.72z" id="path1133"/>
    <path class="st14" d="m1243.9 55.68-25.33 58.51h-13.37l-25.24-58.51h14.63l17.8 41.79 18.05-41.79h13.46z" id="path1135"/>
    <path class="st14" d="M1243.57 106.67c0-4.85 3.59-8.02 8.11-8.02 4.51 0 8.11 3.18 8.11 8.02 0 4.76-3.59 8.19-8.11 8.19-4.51 0-8.11-3.43-8.11-8.19z" id="path1137"/>
    <path class="st14" d="M1321.15 76.91c0 13.04-9.78 21.15-25.41 21.15h-11.78v16.13h-13.54V55.68h25.32c15.63 0 25.41 8.11 25.41 21.23zm-13.71 0c0-6.44-4.18-10.2-12.45-10.2h-11.03v20.31h11.03c8.27.01 12.45-3.75 12.45-10.11z" id="path1139"/>
    <path class="st14" d="M1331.603 66.55v15.46h40.627v10.87h-27.08v21.31h-13.54V55.68h44.22v10.87z" id="path1141"/>
    <path class="st7" id="rect1143" d="M537.61 44.99h30.36v5.21h-30.36z"/>
    <path class="st7" d="M439.76 90.27h-20.51c-.88 0-1.59-.71-1.59-1.59V81.2c0-.88.71-1.59 1.59-1.59h20.51c.88 0 1.59.71 1.59 1.59v7.47c0 .88-.71 1.6-1.59 1.6z" id="path1145"/>
  </g>
  <g id="Calque_2">
    <g id="g1159">
      <circle cx="105.73" cy="84.68" r="67.82" id="circle1157" style="fill:#fff"/>
    </g>
    <g id="g1235">
      <path class="st10" d="M153.8 124.28c-4.07-1.13-3.48-3.4-9.71-3.4-6.04 0-5.67 4.01-12.53 4.01-6.85 0-6.01-4.01-13.14-4.01-5.52 0-6.18 4.01-11.84 4.01-9.7 0-6.22-4.01-13.98-4.01-5.72 0-5.95 4.01-12.73 4.01-6.41 0-7.29-4.01-12.71-4.01-4.21 0-4.81 2.12-9.6 3.27 1.38 1.68 2.85 3.26 4.39 4.79h87.57c1.49-1.48 2.92-3.03 4.28-4.66" id="path1161"/>
      <path class="st10" d="M143.52 134.11c-6.69-.7-5.75-3.84-13.06-3.84-6.34 0-5.56 3.98-12.25 3.98-6.85 0-5.47-3.98-12.61-3.98-5.49 0-7.6 3.98-13.23 3.98-8.37 0-6.55-3.98-12.57-3.98-5.43 0-5.92 3.6-11.72 3.97 1.97 1.48 4.03 2.85 6.15 4.07h62.96a57.39 57.39 0 0 0 6.33-4.2" id="path1163"/>
      <path class="st10" d="M92.41 139.82c-4.07 0-5.35 2.04-8.22 3.2 6.74 2.46 13.97 3.8 21.55 3.8a62.6 62.6 0 0 0 20.82-3.55c-2.77-1.12-2.89-3.45-8.34-3.45-5.5 0-6.17 4.01-11.82 4.01-9.69 0-6.24-4.01-13.99-4.01" id="path1165"/>
      <path class="st10" d="M166.2 99.98c-2.32 2.91-5.65 5.2-9.31 5.2-7.91 0-7.32-4.01-13.43-4.01-.34 0-.61.01-.89.03v.35c0 2.16-.34 4.91-1.2 7.68h21.67c1.29-2.97 2.34-6.06 3.16-9.25" id="path1167"/>
      <path class="st10" d="M68.83 101.23c-.34-.03-.68-.05-1.09-.05-6.8 0-4.46 4-14.32 4-2.01 0-5.76-1.5-7.73-3.63.75 2.63 1.65 5.21 2.72 7.7h21.64a25.75 25.75 0 0 1-1.22-7.68v-.34" id="path1169"/>
      <path class="st10" d="M100.71 105.66c-.26 1.26-.58 2.46-.91 3.58h11.81a42.14 42.14 0 0 1-.94-3.58h-9.96" id="path1171"/>
      <path class="st10" d="M161.72 111.3c-5.29.98-5.59 3.64-13.77 3.64-4.66 0-6.63-.88-8.22-1.82-1.24 2.32-2.96 4.39-5.28 5.86h22.89c1.63-2.44 3.09-5.01 4.38-7.68" id="path1173"/>
      <path class="st10" d="M113.48 113.64c-.91-1.68-3.66-2.71-8.08-2.71-3.32 0-6.33.86-7.43 2.61-1.11 1.76-2.92 4.18-4.9 5.45h25.24c-1.91-1.25-3.92-3.66-4.83-5.35" id="path1175"/>
      <path class="st10" d="M71.93 113.58c-1.45.74-3.21 1.36-5.84 1.36-6.46 0-6.53-4.01-11.94-4.01-2.2 0-3.4.58-4.74 1.3 1.16 2.33 2.49 4.59 3.92 6.76h23.63c-2.17-1.36-3.81-3.28-5.03-5.41" id="path1177"/>
      <path class="st13" d="M43.42 81.53c-.04 1.05-.06 2.1-.06 3.15 0 4.45.46 8.79 1.37 12.96h24.1V82.51l-25.41-.98" id="path1179"/>
      <path class="st13" d="M167.64 77.16a63.325 63.325 0 0 0-3.87-15.25l-21.2 8.29v9.76l25.07-2.8" id="path1181"/>
      <path class="st13" id="polygon1183" d="M132.25 79.96v-5.7L119.4 79.3v.66z"/>
      <path class="st13" d="M47.69 61.91c-1.9 4.81-3.23 9.93-3.88 15.25l25.01 2.8V70.2l-21.13-8.29" id="path1185"/>
      <path class="st13" d="m168.05 81.53-25.47.98v15.13h24.17a62.07 62.07 0 0 0 1.36-12.96c0-1.05-.02-2.1-.06-3.15" id="path1187"/>
      <path class="st13" id="polygon1189" d="M91.42 79.96v-.9l-12.27-4.81v5.71z"/>
      <path class="st13" d="M141.73 56.68c.1.1 1.47 1.43 1.47 1.43s-1.3 1.68-1.6 2.07l1.5 1.95s-1.2 1.43-1.44 1.71c.25.28.92 1.14.92 1.14v2.2l19.46-9.25c-2.25-4.73-5.13-9.08-8.43-13.05l-11.19 9.3.61.85c-.01 0-1.09 1.4-1.3 1.65" id="path1191"/>
      <path class="st13" d="M133.13 65.53c-.22-.26-1.41-1.74-1.41-1.74s1.2-1.49 1.47-1.79c-.02-.03-.05-.06-.08-.09l-13.7 11.38v4.87l12.86-6.09v-5.6c-.02 0 .69-.76.86-.94" id="path1193"/>
      <path class="st13" d="M132.57 59.13c.24-.29.45-.55.53-.64-.15-.15-1.43-1.52-1.43-1.52s1.28-1.64 1.61-2.04c-.37-.5-2.71-3.84-2.71-3.84h9.69l.26.34c3.67-3.56 7.14-6.96 10.11-9.86a63.55 63.55 0 0 0-12.46-9.96L119.4 62.27v9.57c4.04-3.85 8.58-8.26 13.17-12.71" id="path1195"/>
      <path class="st13" d="M119.4 43.2v14.95l14.84-28.73c-4.61-2.39-9.54-4.18-14.75-5.35l-4.29 18.94c.76.11 1.56.19 2.4.19h1.8" id="path1197"/>
      <path class="st13" d="M69.75 63.83c-.22-.28-1.44-1.71-1.44-1.71s1.22-1.56 1.5-1.95l-1.59-2.07s1.34-1.33 1.46-1.43c-.2-.25-1.31-1.65-1.31-1.65l.63-.9-11.14-9.26c-3.32 3.97-6.18 8.32-8.44 13.05l19.41 9.22v-2.18c0 .02.67-.83.92-1.12" id="path1199"/>
      <path class="st13" d="M78.32 61.88c-.04.05-.08.09-.09.12.25.3 1.45 1.79 1.45 1.79s-1.19 1.47-1.4 1.74c.17.17.87.94.87.94v5.59l12.27 5.8v-5.09l-13.1-10.89" id="path1201"/>
      <path class="st13" d="M80.84 51.09s-2.35 3.34-2.69 3.84c.31.39 1.59 2.04 1.59 2.04s-1.29 1.37-1.44 1.51c.06.06.19.24.37.44 4.41 4.28 8.8 8.54 12.75 12.35v-9.99L73.31 31.62a62.609 62.609 0 0 0-12.46 9.96c2.97 2.9 6.43 6.28 10.08 9.84l.23-.33h9.68" id="path1203"/>
      <path class="st13" d="m93.06 28.88-1.11-4.81c-5.18 1.18-10.14 2.97-14.73 5.35l14.2 27.51v-21.5c-.01-2.22.53-4.53 1.64-6.55" id="path1205"/>
      <path class="st15" d="M99.25 100.39h-8.77l-4.99 4.97c.01 0 10.07 1.53 13.76-4.97" id="path1207"/>
      <path class="st15" d="M112.18 100.39h8.76l4.96 4.97s-10.05 1.53-13.72-4.97" id="path1209"/>
      <path class="st15" id="rect1211" d="M80.6 95.46h50.09v2.12H80.6z"/>
      <path class="st15" d="M117.59 44.25c-6.74 0-10.8-3.57-10.8-9.56 0-6.64 8.11-9.21 8.19-9.22l-.07-1.47c-.12-.02-2.65-.49-10.13-.49-8.45 0-12.3 6.16-12.3 11.91v37.8l25.88 7.23v-36.2h-.77m-.75 34.23C115.12 78 94.99 72.37 94 72.09V35.42C94 31.54 96.27 25 104.79 25c3.24 0 5.48.09 7.05.2-2.74 1.46-6.53 4.4-6.53 9.48 0 6.59 4.42 10.72 11.54 11.02v32.78z" id="path1213"/>
      <path class="st15" d="M90.14 83H88.7l-1.73 1.76.18-.5c0-1.14-.78-1.29-1.15-1.29h-.36c-.41 0-1.29.13-1.29 1.29l.18.5L82.78 83h-1.41l2.28 4.68-2.18 5.11h2.18l1.44-2.73h1.32l1.45 2.73h2.15l-2.15-5.11L90.14 83" id="path1215"/>
      <path class="st15" d="M100.05 83H98.6l-1.72 1.76.17-.5c0-1.17-.8-1.29-1.16-1.29h-.38c-.38 0-1.23.15-1.23 1.29l.18.5L92.74 83h-1.46l2.28 4.68-2.16 5.11h2.16l1.43-2.73h1.34l1.45 2.73h2.14l-2.14-5.11 2.27-4.68" id="path1217"/>
      <path class="st15" d="M110.01 83h-1.47l-1.72 1.76.16-.5c0-1.14-.75-1.29-1.12-1.29h-.38c-.4 0-1.26.12-1.26 1.29l.17.5-1.73-1.76h-1.43l2.25 4.68-2.14 5.11h2.14l1.44-2.73h1.35l1.43 2.73h2.17l-2.17-5.11 2.31-4.68" id="path1219"/>
      <path class="st15" d="M120 83h-1.44l-1.71 1.76.15-.5c0-1.15-.8-1.29-1.14-1.29h-.39c-.4 0-1.24.15-1.24 1.29l.17.5-1.71-1.76h-1.43l2.28 4.68-2.18 5.11h2.18l1.43-2.73h1.33l1.45 2.73h2.15l-2.15-5.11L120 83" id="path1221"/>
      <path class="st15" d="M129.94 83h-1.45l-1.71 1.76.15-.5c0-1.15-.79-1.29-1.15-1.29h-.37c-.42 0-1.24.15-1.24 1.29l.16.5-1.72-1.76h-1.44l2.27 4.68-2.17 5.11h2.17l1.44-2.73h1.34l1.45 2.73h2.16l-2.16-5.11 2.27-4.68" id="path1223"/>
      <path class="st15" d="M87.58 106.86c-6.61 0-10.22-4.15-10.22-6.68v-33L75.9 65.6l1.46-1.81-1.46-1.77 1.46-1.84-1.46-1.8 1.46-1.52-1.46-1.88 1.46-2.09h-5.24l-1.47 2.09 1.47 1.88-1.47 1.41 1.47 1.92-1.47 1.88 1.47 1.73-1.47 1.81v35.95s.02 17.81 14.38 17.81c13.02 0 15-14.57 15-17.81-2.35 3.47-5.82 5.3-12.45 5.3m-2.49 11.28c-10.63 0-12.31-10.95-12.31-16.99V68.28H76v31.81c0 3.95 4.56 7.85 10.62 8.15 7.13.33 9.92-1.27 11.79-3.03-.69 2.67-3.72 12.93-13.32 12.93" id="path1225"/>
      <path class="st15" d="m139.31 56.86 1.45-1.88-1.45-2.09h-5.26l1.47 2.09-1.47 1.88 1.47 1.52-1.47 1.8 1.47 1.83-1.47 1.77 1.47 1.82-1.47 1.58v33c0 2.52-3.61 6.68-10.22 6.68-6.63 0-10.1-1.84-12.42-5.31 0 3.23 1.97 17.81 14.97 17.81 14.38 0 14.38-17.81 14.38-17.81V65.61l-1.45-1.82 1.45-1.73-1.45-1.88 1.45-1.92-1.45-1.4m-.89 44.29c0 6.04-1.49 16.99-12.12 16.99-9.55 0-12.6-10.26-13.31-12.93 1.86 1.76 4.67 3.36 11.81 3.03 6.05-.31 10.6-4.19 10.6-8.15V68.28h3.01v32.87z" id="path1227"/>
      <path class="st7" d="M72.78 68.28v32.88c0 6.04 1.69 16.99 12.31 16.99 9.6 0 12.63-10.26 13.31-12.93-1.87 1.76-4.67 3.36-11.79 3.03-6.06-.3-10.62-4.19-10.62-8.15V68.28h-3.21" id="path1229"/>
      <path class="st7" d="M138.42 68.28v32.88c0 6.04-1.49 16.99-12.12 16.99-9.55 0-12.6-10.26-13.31-12.93 1.86 1.76 4.67 3.36 11.81 3.03 6.05-.3 10.6-4.19 10.6-8.15V68.28h3.02" id="path1231"/>
      <path class="st7" d="M105.3 34.69c0-5.08 3.8-8.02 6.53-9.48-1.56-.11-3.8-.2-7.04-.2-8.52 0-10.79 6.55-10.79 10.42V72.1c.99.28 21.12 5.91 22.84 6.39V45.71c-7.11-.3-11.54-4.43-11.54-11.02" id="path1233"/>
    </g>
  </g>
</svg>
