<?xml version="1.0" encoding="UTF-8" standalone="no"?>
<!-- Generator: Adobe Illustrator 19.1.1, SVG Export Plug-In . SVG Version: 6.00 Build 0)  -->

<svg
   xmlns:dc="http://purl.org/dc/elements/1.1/"
   xmlns:cc="http://creativecommons.org/ns#"
   xmlns:rdf="http://www.w3.org/1999/02/22-rdf-syntax-ns#"
   xmlns:svg="http://www.w3.org/2000/svg"
   xmlns="http://www.w3.org/2000/svg"
   xmlns:sodipodi="http://sodipodi.sourceforge.net/DTD/sodipodi-0.dtd"
   xmlns:inkscape="http://www.inkscape.org/namespaces/inkscape"
   version="1.1"
   id="Calque_1"
   x="0px"
   y="0px"
   viewBox="0 0 32 45.2"
   enable-background="new 0 0 385.2 45.2"
   xml:space="preserve"
   sodipodi:docname="logo-md-narrow.svg"
   width="32"
   height="45.200001"
   inkscape:version="0.92.4 (5da689c313, 2019-01-14)"><metadata
   id="metadata3969"><rdf:RDF><cc:Work
       rdf:about=""><dc:format>image/svg+xml</dc:format><dc:type
         rdf:resource="http://purl.org/dc/dcmitype/StillImage" /><dc:title></dc:title></cc:Work></rdf:RDF></metadata><defs
   id="defs3967" /><sodipodi:namedview
   pagecolor="#ff1313"
   bordercolor="#666666"
   borderopacity="1"
   objecttolerance="10"
   gridtolerance="10"
   guidetolerance="10"
   inkscape:pageopacity="0"
   inkscape:pageshadow="2"
   inkscape:window-width="1899"
   inkscape:window-height="609"
   id="namedview3965"
   showgrid="false"
   inkscape:zoom="4"
   inkscape:cx="-80.060532"
   inkscape:cy="17.346504"
   inkscape:window-x="2"
   inkscape:window-y="1418"
   inkscape:window-maximized="0"
   inkscape:current-layer="Calque_1" />

<g
   id="g4011"
   transform="matrix(0.70843394,0,0,0.69913918,-1.1859921,-0.69479441)"><path
     id="path3842"
     d="m 1.5,22.6 c 0,12.5 10.1,21.6 22.6,21.6 12.5,0 22.6,-9.1 22.6,-21.6 C 46.7,10.1 36.6,1 24.1,1 11.6,1 1.5,10.1 1.5,22.6 Z"
     inkscape:connector-curvature="0"
     style="fill:#ffffff" /><g
     id="g3920">
	<g
   id="g3918">
		<path
   id="path3844"
   d="m 39.4,34.7 c -1.3,-0.3 -1.1,-1 -3.1,-1 -1.9,0 -1.8,1.2 -4,1.2 -2.2,0 -1.9,-1.2 -4.2,-1.2 -1.8,0 -2,1.2 -3.8,1.2 -3.1,0 -2,-1.2 -4.5,-1.2 -1.8,0 -1.9,1.2 -4.1,1.2 -2,0 -2.3,-1.2 -4.1,-1.2 -1.3,0 -1.5,0.7 -3.1,1 0.4,0.5 0.9,1 1.4,1.5 h 27.9 c 0.7,-0.6 1.2,-1 1.6,-1.5"
   inkscape:connector-curvature="0"
   style="fill:#23569f" />
		<path
   id="path3846"
   d="m 36.1,37.7 c -2.1,-0.2 -1.8,-1.2 -4.2,-1.2 -2,0 -1.8,1.2 -3.9,1.2 -2.2,0 -1.7,-1.2 -4,-1.2 -1.7,0 -2.4,1.2 -4.2,1.2 -2.7,0 -2.1,-1.2 -4,-1.2 -1.7,0 -1.9,1.1 -3.7,1.2 0.6,0.5 1.3,0.9 2,1.3 h 20.1 c 0.6,-0.4 1.3,-0.8 1.9,-1.3"
   inkscape:connector-curvature="0"
   style="fill:#23569f" />
		<path
   id="path3848"
   d="m 19.9,39.5 c -1.3,0 -1.7,0.6 -2.6,1 2.1,0.8 4.5,1.2 6.9,1.2 2.3,0 4.6,-0.4 6.6,-1.1 -0.9,-0.3 -0.9,-1.1 -2.7,-1.1 -1.8,0 -2,1.2 -3.8,1.2 -3.1,0 -2,-1.2 -4.4,-1.2"
   inkscape:connector-curvature="0"
   style="fill:#23569f" />
		<path
   id="path3850"
   d="m 43.4,27.2 c -0.7,0.9 -1.8,1.6 -3,1.6 -2.5,0 -2.3,-1.2 -4.3,-1.2 -0.1,0 -0.2,0 -0.3,0 v 0.1 c 0,0.7 -0.1,1.5 -0.4,2.4 h 6.9 c 0.5,-1 0.8,-1.9 1.1,-2.9"
   inkscape:connector-curvature="0"
   style="fill:#23569f" />
		<path
   id="path3852"
   d="m 12.3,27.6 c -0.1,0 -0.2,0 -0.3,0 -2.2,0 -1.4,1.2 -4.6,1.2 -0.6,0 -1.8,-0.5 -2.5,-1.1 0.2,0.8 0.5,1.6 0.9,2.4 h 6.9 c -0.3,-0.9 -0.4,-1.7 -0.4,-2.4 v -0.1"
   inkscape:connector-curvature="0"
   style="fill:#23569f" />
		<path
   id="path3854"
   d="m 22.5,28.9 c -0.1,0.4 -0.2,0.8 -0.3,1.1 H 26 c -0.1,-0.3 -0.2,-0.7 -0.3,-1.1 h -3.2"
   inkscape:connector-curvature="0"
   style="fill:#23569f" />
		<path
   id="path3856"
   d="m 41.9,30.7 c -1.7,0.3 -1.8,1.1 -4.4,1.1 -1.5,0 -2.1,-0.3 -2.6,-0.6 -0.4,0.7 -0.9,1.4 -1.7,1.8 h 7.3 c 0.6,-0.7 1,-1.5 1.4,-2.3"
   inkscape:connector-curvature="0"
   style="fill:#23569f" />
		<path
   id="path3858"
   d="m 26.6,31.4 c -0.3,-0.5 -1.2,-0.8 -2.6,-0.8 -1.1,0 -2,0.3 -2.4,0.8 -0.4,0.5 -0.9,1.3 -1.6,1.7 h 8 c -0.5,-0.4 -1.1,-1.2 -1.4,-1.7"
   inkscape:connector-curvature="0"
   style="fill:#23569f" />
		<path
   id="path3860"
   d="m 13.3,31.4 c -0.5,0.2 -1,0.4 -1.9,0.4 -2.1,0 -2.1,-1.2 -3.8,-1.2 -0.7,0 -1.1,0.2 -1.5,0.4 0.4,0.7 0.9,1.4 1.3,2 h 7.5 c -0.7,-0.4 -1.2,-1 -1.6,-1.6"
   inkscape:connector-curvature="0"
   style="fill:#23569f" />
		<path
   id="path3862"
   d="m 4.2,21.5 c 0,0.3 0,0.6 0,1 v 0 c 0,1.4 0.1,2.7 0.4,4 h 7.7 V 21.8 L 4.2,21.5"
   inkscape:connector-curvature="0"
   style="fill:#ffdd14" />
		<path
   id="path3864"
   d="M 43.8,20.2 C 43.6,18.6 43.2,17 42.6,15.5 L 35.8,18 v 3 l 8,-0.8"
   inkscape:connector-curvature="0"
   style="fill:#ffdd14" />
		<polyline
   id="polyline3866"
   points="32.6,21 32.6,19.3 28.5,20.8 28.5,21 32.6,21   "
   style="fill:#ffdd14" />
		<path
   id="path3868"
   d="M 5.6,15.5 C 5,17 4.6,18.6 4.4,20.2 l 8,0.9 v -3 L 5.6,15.5"
   inkscape:connector-curvature="0"
   style="fill:#ffdd14" />
		<path
   id="path3870"
   d="m 44,21.5 -8.1,0.3 v 4.7 h 7.7 c 0.3,-1.3 0.4,-2.6 0.4,-4 v 0 c 0,-0.3 0,-0.7 0,-1"
   inkscape:connector-curvature="0"
   style="fill:#ffdd14" />
		<polyline
   id="polyline3872"
   points="19.5,21 19.5,20.7 15.6,19.3 15.6,21 19.5,21   "
   style="fill:#ffdd14" />
		<path
   id="path3874"
   d="m 35.6,13.9 c 0,0 0.5,0.4 0.5,0.4 0,0 -0.4,0.5 -0.5,0.6 0.1,0.1 0.5,0.6 0.5,0.6 0,0 -0.4,0.4 -0.5,0.5 0.1,0.1 0.3,0.4 0.3,0.4 v 0.7 l 6.2,-2.8 c -0.7,-1.5 -1.6,-2.8 -2.7,-4 l -3.6,2.9 0.2,0.3 c 0,-0.2 -0.4,0.3 -0.4,0.4"
   inkscape:connector-curvature="0"
   style="fill:#ffdd14" />
		<path
   id="path3876"
   d="m 32.8,16.6 c -0.1,-0.1 -0.4,-0.5 -0.4,-0.5 0,0 0.4,-0.5 0.5,-0.6 0,0 0,0 0,0 L 28.5,19 v 1.5 l 4.1,-1.9 v -1.7 c 0,0 0.2,-0.3 0.2,-0.3"
   inkscape:connector-curvature="0"
   style="fill:#ffdd14" />
		<path
   id="path3878"
   d="m 32.7,14.6 c 0.1,-0.1 0.1,-0.2 0.2,-0.2 0,0 -0.5,-0.5 -0.5,-0.5 0,0 0.4,-0.5 0.5,-0.6 C 32.8,13.1 32,12.1 32,12.1 h 3.1 l 0.1,0.1 c 1.2,-1.1 2.3,-2.1 3.2,-3 C 37.2,8 35.9,7 34.4,6.1 l -6,9.4 v 2.9 c 1.3,-1.1 2.8,-2.4 4.3,-3.8"
   inkscape:connector-curvature="0"
   style="fill:#ffdd14" />
		<path
   id="path3880"
   d="m 28.5,9.7 v 4.6 L 33.2,5.5 C 31.7,4.8 30.2,4.2 28.5,3.9 l -1.4,5.8 c 0.2,0 0.5,0.1 0.8,0.1 h 0.6"
   inkscape:connector-curvature="0"
   style="fill:#ffdd14" />
		<path
   id="path3882"
   d="m 12.6,16.1 c -0.1,-0.1 -0.5,-0.5 -0.5,-0.5 0,0 0.4,-0.5 0.5,-0.6 -0.1,-0.1 -0.5,-0.6 -0.5,-0.6 0,0 0.4,-0.4 0.5,-0.4 -0.1,-0.1 -0.4,-0.5 -0.4,-0.5 l 0.2,-0.3 -3.6,-2.8 c -1.1,1.2 -2,2.6 -2.7,4 l 6.2,2.8 v -0.7 c 0,-0.1 0.3,-0.4 0.3,-0.4"
   inkscape:connector-curvature="0"
   style="fill:#ffdd14" />
		<path
   id="path3884"
   d="m 15.4,15.5 c 0,0 -0.1,0 0,0 0.1,0.1 0.4,0.6 0.4,0.6 0,0 -0.4,0.5 -0.4,0.5 0.1,0.1 0.3,0.3 0.3,0.3 v 1.7 l 3.9,1.8 v -1.6 l -4.2,-3.3"
   inkscape:connector-curvature="0"
   style="fill:#ffdd14" />
		<path
   id="path3886"
   d="m 16.2,12.1 c 0,0 -0.7,1 -0.9,1.2 0.1,0.1 0.5,0.6 0.5,0.6 0,0 -0.4,0.4 -0.5,0.5 0,0 0.1,0.1 0.1,0.1 1.4,1.3 2.8,2.6 4.1,3.8 V 15.2 L 13.7,6.1 C 12.3,7 11,8 9.8,9.2 c 0.9,0.9 2.1,1.9 3.2,3 l 0.1,-0.1 h 3.1"
   inkscape:connector-curvature="0"
   style="fill:#ffdd14" />
		<path
   id="path3888"
   d="M 20.1,5.3 19.7,3.8 C 18,4.2 16.5,4.7 15,5.4 l 4.5,8.5 V 7.3 c 0,-0.7 0.2,-1.4 0.6,-2"
   inkscape:connector-curvature="0"
   style="fill:#ffdd14" />
		<path
   id="path3890"
   d="m 22,27.3 h -2.8 l -1.6,1.5 c 0.1,0 3.3,0.5 4.4,-1.5"
   inkscape:connector-curvature="0"
   style="fill:#924e17" />
		<path
   id="path3892"
   d="M 26.2,27.3 H 29 l 1.6,1.5 c -0.1,0 -3.3,0.5 -4.4,-1.5"
   inkscape:connector-curvature="0"
   style="fill:#924e17" />
		<rect
   id="rect3894"
   height="0.69999999"
   width="16"
   y="25.799999"
   x="16.1"
   style="fill:#924e17" />
		<path
   id="path3896"
   d="m 27.9,10 c -2.1,0 -3.4,-1.1 -3.4,-2.9 0,-2 2.6,-2.8 2.6,-2.8 V 3.8 c 0,0 -0.8,-0.1 -3.2,-0.1 C 21.2,3.7 20,5.6 20,7.4 V 19 l 8.2,2.2 V 10 h -0.3 m -0.3,10.6 c -0.5,-0.1 -7,-1.9 -7.3,-2 V 7.3 c 0,-1.2 0.7,-3.2 3.4,-3.2 1,0 1.7,0 2.2,0.1 -0.7,0.4 -1.9,1.3 -1.9,2.9 0,2 1.4,3.3 3.7,3.4 v 10.1 z"
   inkscape:connector-curvature="0"
   style="fill:#924e17" />
		<path
   id="path3898"
   d="m 19.1,22 h -0.5 l -0.6,0.5 0.1,-0.2 c 0,-0.4 -0.2,-0.4 -0.4,-0.4 h -0.1 c -0.1,0 -0.4,0 -0.4,0.4 l 0.1,0.2 -0.5,-0.5 h -0.4 l 0.7,1.4 -0.7,1.6 h 0.7 l 0.5,-0.8 H 18 l 0.5,0.8 h 0.7 L 18.5,23.4 19.1,22"
   inkscape:connector-curvature="0"
   style="fill:#924e17" />
		<path
   id="path3900"
   d="m 22.3,22 h -0.5 l -0.5,0.5 0.1,-0.2 c 0,-0.4 -0.3,-0.4 -0.4,-0.4 h -0.1 c -0.1,0 -0.4,0 -0.4,0.4 L 20.6,22.5 20,22 h -0.5 l 0.7,1.4 -0.7,1.6 h 0.7 l 0.5,-0.8 h 0.4 l 0.5,0.8 h 0.7 L 21.6,23.4 22.3,22"
   inkscape:connector-curvature="0"
   style="fill:#924e17" />
		<path
   id="path3902"
   d="M 25.5,22 H 25 l -0.5,0.5 0.1,-0.2 c 0,-0.4 -0.2,-0.4 -0.4,-0.4 H 24 c -0.1,0 -0.4,0 -0.4,0.4 l 0.1,0.2 -0.6,-0.5 h -0.5 l 0.7,1.4 -0.6,1.6 h 0.7 l 0.5,-0.8 h 0.4 l 0.5,0.8 h 0.7 L 24.8,23.4 25.5,22"
   inkscape:connector-curvature="0"
   style="fill:#924e17" />
		<path
   id="path3904"
   d="m 28.7,22 h -0.5 l -0.5,0.5 v -0.2 c 0,-0.4 -0.3,-0.4 -0.4,-0.4 h -0.1 c -0.1,0 -0.4,0 -0.4,0.4 l 0.1,0.2 -0.6,-0.5 h -0.5 l 0.7,1.4 -0.6,1.6 h 0.7 l 0.5,-0.8 h 0.4 L 28,25 h 0.7 L 28,23.4 28.7,22"
   inkscape:connector-curvature="0"
   style="fill:#924e17" />
		<path
   id="path3906"
   d="m 31.8,22 h -0.5 l -0.5,0.5 v -0.2 c 0,-0.4 -0.3,-0.4 -0.4,-0.4 h -0.1 c -0.1,0 -0.4,0 -0.4,0.4 v 0.2 L 29.5,22 H 29 l 0.7,1.4 -0.6,1.6 h 0.7 l 0.5,-0.8 h 0.4 l 0.5,0.8 h 0.7 L 31.2,23.4 31.8,22"
   inkscape:connector-curvature="0"
   style="fill:#924e17" />
		<path
   id="path3908"
   d="M 18.3,29.3 C 16.2,29.3 15,28 15,27.2 V 17.1 L 14.5,16.6 15,16 14.5,15.5 15,14.9 14.5,14.3 15,13.8 14.5,13.2 15,12.6 h -1.7 l -0.5,0.6 0.5,0.6 -0.5,0.4 0.5,0.6 -0.5,0.6 0.5,0.5 -0.5,0.6 v 11.1 c 0,0 0,5.5 4.6,5.5 4.2,0 4.8,-4.5 4.8,-5.5 -0.7,1.1 -1.8,1.7 -3.9,1.7 m -0.8,3.5 c -3.4,0 -3.9,-3.4 -3.9,-5.2 V 17.4 h 1 v 9.8 c 0,1.2 1.5,2.4 3.4,2.5 2.3,0.1 3.2,-0.4 3.8,-0.9 -0.2,0.8 -1.2,4 -4.3,4"
   inkscape:connector-curvature="0"
   style="fill:#924e17" />
		<path
   id="path3910"
   d="m 34.8,13.9 0.5,-0.6 -0.5,-0.6 h -1.7 l 0.5,0.6 -0.5,0.6 0.5,0.5 -0.5,0.6 0.5,0.6 -0.5,0.4 0.5,0.6 -0.5,0.5 v 10.2 c 0,0.8 -1.2,2.1 -3.3,2.1 -2.1,0 -3.2,-0.6 -4,-1.6 0,1 0.6,5.5 4.8,5.5 4.6,0 4.6,-5.5 4.6,-5.5 V 16.6 l -0.4,-0.6 0.5,-0.5 -0.5,-0.6 0.5,-0.6 -0.5,-0.4 m -0.3,13.6 c 0,1.9 -0.5,5.2 -3.9,5.2 -3,0 -4,-3.2 -4.2,-4 0.6,0.5 1.5,1 3.8,0.9 1.9,-0.1 3.4,-1.3 3.4,-2.5 v -9.8 h 1 v 10.2 z"
   inkscape:connector-curvature="0"
   style="fill:#924e17" />
		<path
   id="path3912"
   d="m 13.6,17.4 v 10.1 c 0,1.9 0.5,5.2 3.9,5.2 3.1,0 4,-3.2 4.2,-4 -0.6,0.5 -1.5,1 -3.8,0.9 -1.9,-0.1 -3.4,-1.3 -3.4,-2.5 v -9.8 h -0.9"
   inkscape:connector-curvature="0"
   style="fill:#e11417" />
		<path
   id="path3914"
   d="m 34.5,17.4 v 10.1 c 0,1.9 -0.5,5.2 -3.9,5.2 -3,0 -4,-3.2 -4.2,-4 0.6,0.5 1.5,1 3.8,0.9 1.9,-0.1 3.4,-1.3 3.4,-2.5 v -9.8 h 0.9"
   inkscape:connector-curvature="0"
   style="fill:#e11417" />
		<path
   id="path3916"
   d="m 24,7.1 c 0,-1.6 1.2,-2.5 2.1,-2.9 -0.5,0 -1.2,-0.1 -2.2,-0.1 -2.7,0 -3.4,2 -3.4,3.2 v 11.3 c 0.3,0.1 6.7,1.8 7.3,2 V 10.5 C 25.4,10.4 24,9.1 24,7.1"
   inkscape:connector-curvature="0"
   style="fill:#e11417" />
	</g>
</g></g>

<text
   id="text4019"
   y="43.660252"
   x="1.0833321"
   style="font-style:normal;font-variant:normal;font-weight:bold;font-stretch:normal;font-size:16px;line-height:1.25;font-family:Roboto;-inkscape-font-specification:'Roboto, Bold';font-variant-ligatures:normal;font-variant-caps:normal;font-variant-numeric:normal;font-feature-settings:normal;text-align:start;letter-spacing:0px;word-spacing:0px;writing-mode:lr-tb;text-anchor:start;fill:#ffffff;fill-opacity:1;stroke:none"
   xml:space="preserve"><tspan
     sodipodi:role="line"
     id="tspan4031"
     x="1.0833321"
     y="43.660252">M-D</tspan></text>
</svg>