<svg xmlns="http://www.w3.org/2000/svg" width="32" height="46"><g fill="none" fill-rule="evenodd"><path d="M7.388 30.692v8.46H5.992v-.93c-.173.32-.433.581-.75.752a2.25 2.25 0 0 1-1.11.27c-.493 0-.932-.126-1.318-.38a2.516 2.516 0 0 1-.902-1.074c-.215-.463-.323-.994-.323-1.592 0-.597.106-1.122.318-1.574.211-.453.51-.803.896-1.052a2.393 2.393 0 0 1 1.327-.374c.408 0 .773.086 1.095.26.313.163.572.417.743.73v-3.496zm-2.882 7.426c.47 0 .833-.165 1.094-.494.261-.33.392-.797.392-1.403 0-.605-.13-1.073-.386-1.402-.257-.33-.62-.494-1.09-.494-.476 0-.844.162-1.105.488-.26.326-.392.788-.392 1.385 0 .606.13 1.077.392 1.414.26.337.626.506 1.094.506zm4.252-1.494v-1.15h3.414v1.15zm7.135 2.62c-1.036 0-1.86-.245-2.473-.735l.397-1.012c.613.46 1.313.69 2.1.69.34 0 .602-.058.787-.173a.54.54 0 0 0 .278-.482.51.51 0 0 0-.192-.42c-.129-.103-.348-.193-.658-.27l-.953-.218c-1.044-.23-1.566-.77-1.566-1.62 0-.354.098-.666.295-.938a1.94 1.94 0 0 1 .828-.638 3.11 3.11 0 0 1 1.237-.23c.408 0 .801.063 1.18.19.378.126.71.308.998.546l-.42.977c-.575-.43-1.165-.644-1.77-.644-.325 0-.578.061-.76.184a.579.579 0 0 0-.272.506c0 .168.055.303.165.402.11.1.296.184.561.253l.976.218c.567.13.981.332 1.242.604.26.272.391.626.391 1.063 0 .536-.21.962-.635 1.276-.424.314-1.002.471-1.736.471zm3.813-1.7h1.588v1.608h-1.588zm5.68-5.714c-.613 0-1.08.232-.92 1.023v.495h1.282v1.08h-1.282v4.724h-1.418v-4.724h-1.089v-1.08h1.09v-.564c0-.69.171-1.22.515-1.592.345-.37.838-.557 1.48-.557.356 0 .655.046.897.138v1.138a2.304 2.304 0 0 0-.556-.08zm4.537 1.38c.22 0 .408.03.567.092l-.011 1.31a1.95 1.95 0 0 0-.75-.15c-.483 0-.852.142-1.105.426-.254.283-.395.66-.38 1.126v3.138h-1.407v-4.16c0-.614-.03-1.162-.09-1.644h1.327l.113 1.023c.144-.376.37-.663.68-.862.31-.2.662-.3 1.056-.3z" fill="#0069cc"/><g fill-rule="nonzero"><path d="M0 8h32v11.479H0z" fill="#fff"/><path d="M25.553 27.987c-.017-.007-.018-.028-.003-.073.019-.057.027-.062.099-.05.066.008.085.001.112-.04.053-.08.012-.137-.083-.118-.073.014-.075.014-.06-.046.045-.19.049-.18-.084-.208a.791.84 0 0 1-.429-.265c-.176-.207-.236-.417-.219-.753a.863.863 0 0 1 .074-.357c.156-.366.512-.552.991-.519.105.007.235.026.292.042l.105.029.006.204.006.204h-.063c-.038 0-.064-.012-.064-.028 0-.057-.127-.19-.217-.227a.693.711 0 0 0-.455.022c-.258.133-.376.477-.298.87a.822.822 0 0 0 .212.431.479.491 0 0 0 .384.167.383.383 0 0 0 .375-.227c.052-.105.07-.118.121-.084.023.016.023.053.001.22l-.026.201-.095.035a1.336 1.417 0 0 1-.267.048c-.163.012-.172.016-.172.065 0 .04.012.052.048.052.07 0 .134.058.15.132.018.086-.04.214-.116.256a.67.67 0 0 1-.325.017zm-12.379-.092a1.614 1.657 0 0 1-.521-.286l-.162-.125-.25-.014c-.276-.014-.373-.047-.552-.187-.395-.307-.409-1.09-.028-1.47.288-.286.794-.346 1.158-.135.492.284.544 1.122.097 1.56a.638.638 0 0 1-.15.123c-.043 0 .446.284.59.343a.686.686 0 0 0 .477.021c.097-.036.115-.032.132.035.01.04-.008.056-.108.105-.156.077-.486.09-.683.029zm-.61-.683c.35-.192.415-.811.13-1.206-.265-.367-.728-.31-.902.108-.157.378.022.962.343 1.117a.486.499 0 0 0 .43-.019zm-10.934.229c-.095-.044-.2-.181-.366-.48-.255-.46-.303-.527-.373-.527H.83v.248c0 .454.043.609.178.645.036.01.05.028.05.068v.055H.205v-.053c0-.039.016-.057.066-.071a.246.26 0 0 0 .109-.083c.043-.06.044-.082.044-.92 0-.836-.001-.859-.044-.92a.246.26 0 0 0-.109-.081c-.048-.015-.066-.033-.066-.069 0-.048.003-.048.529-.063.56-.014.683-.003.842.077.137.072.252.286.252.473 0 .214-.15.457-.348.56l-.104.056.23.364c.27.43.354.545.434.588.074.042.082.13.011.15-.083.024-.356.013-.42-.017zm-.52-1.23c.279-.082.373-.493.162-.707a.38.403 0 0 0-.34-.119l-.103.016v.834h.099c.054 0 .136-.01.182-.024zm4.793 1.23a.632.65 0 0 1-.279-.2c-.103-.143-.113-.219-.114-.804-.002-.612-.013-.679-.119-.732-.042-.021-.067-.048-.067-.076 0-.043.014-.045.353-.045.353 0 .354 0 .354.05 0 .033-.013.05-.039.05-.02 0-.06.025-.088.057l-.05.057v.6c0 .564.003.604.043.686.063.128.19.196.353.185.175-.012.27-.078.34-.237.053-.122.054-.128.054-.665 0-.481-.003-.548-.037-.601a.18.191 0 0 0-.087-.074c-.033-.008-.053-.028-.053-.055 0-.039.02-.043.282-.043.261 0 .28.004.28.043 0 .026-.019.047-.052.055-.095.026-.103.073-.114.711l-.01.597-.063.13a.566.581 0 0 1-.348.308c-.13.042-.434.043-.539.003zm8.115 0a.633.671 0 0 1-.281-.202c-.098-.137-.112-.237-.113-.814-.002-.6-.013-.668-.119-.72-.041-.021-.066-.048-.067-.076 0-.043.014-.045.353-.045.35 0 .354 0 .354.048 0 .033-.015.05-.044.055-.025.004-.065.036-.09.07-.04.057-.043.095-.05.579-.008.594.008.72.103.822.172.186.529.134.63-.091.063-.143.08-.322.072-.789-.008-.495-.022-.556-.132-.586-.033-.008-.052-.028-.052-.055 0-.039.02-.043.281-.043s.28.004.28.043c0 .025-.024.052-.06.068-.034.014-.068.043-.076.064-.01.02-.023.305-.028.634l-.013.597-.062.13a.568.583 0 0 1-.348.308c-.13.042-.434.043-.539.003zm6.586 0c-.084-.04-.182-.17-.336-.444-.197-.354-.22-.385-.271-.385-.046 0-.047.003-.047.275 0 .33.026.424.124.444.05.01.063.026.063.066v.053h-.707v-.053c0-.04.013-.055.064-.066.118-.025.125-.084.119-.853l-.007-.68-.05-.058c-.028-.03-.067-.056-.088-.056-.024 0-.038-.017-.038-.042 0-.037.02-.045.153-.058.083-.009.315-.012.514-.007.325.007.372.014.45.057.137.077.214.227.214.418 0 .181-.097.34-.275.448-.057.033-.094.067-.081.076.012.008.104.145.204.306.197.315.307.458.352.458.04 0 .037.102-.004.118a.774.774 0 0 1-.353-.018zm-.385-1.04a.387.397 0 0 0 .179-.24.38.403 0 0 0-.106-.337c-.073-.073-.145-.095-.268-.078l-.074.01v.678h.104a.439.466 0 0 0 .164-.032zm9.261 1.036a.808.858 0 0 1-.121-.042 1.82 1.868 0 0 1-.034-.22l-.026-.211h.059c.032 0 .058.008.058.018 0 .058.137.227.216.268.214.11.472.007.472-.19 0-.128-.06-.205-.26-.34-.282-.186-.39-.285-.446-.404a.602.64 0 0 1-.024-.442c.028-.089.159-.223.268-.275.112-.052.458-.05.602.004l.11.04v.394h-.061c-.047 0-.063-.013-.073-.055a.378.389 0 0 0-.227-.234c-.25-.071-.45.2-.292.398.03.038.165.15.301.247.263.19.36.292.392.417a.495.495 0 0 1-.304.617c-.137.054-.436.059-.61.01zM2.223 27.39c0-.04.011-.051.05-.051.03 0 .069-.024.094-.058.041-.057.043-.084.043-.753 0-.484-.007-.708-.025-.741-.03-.062-.08-.102-.126-.103-.025 0-.036-.019-.036-.056v-.055H3.47v.466l-.055-.007c-.04-.005-.06-.025-.078-.082-.04-.131-.109-.166-.356-.175l-.219-.008v.628l.168-.01c.183-.011.274-.058.286-.147.005-.035.021-.047.063-.047h.056v.574h-.057c-.046 0-.057-.01-.057-.052 0-.098-.07-.134-.273-.143l-.185-.008v.31c0 .374.003.379.24.379.236 0 .357-.063.418-.216.031-.076.104-.098.125-.038.015.04-.044.3-.088.39l-.03.065-.603-.006-.603-.005v-.05zm1.602.007c0-.04.014-.056.06-.066.11-.023.116-.056.123-.764.007-.74-.002-.806-.115-.862-.047-.023-.068-.048-.068-.084v-.053l.473.01c.512.01.553.018.693.142.152.136.192.407.088.608-.09.175-.246.269-.494.295l-.13.014-.032-.085-.032-.086.076-.01a.423.45 0 0 0 .26-.162c.033-.045.044-.093.042-.177-.002-.215-.116-.346-.314-.364l-.113-.01.007.738c.007.803.01.826.125.85.044.01.058.026.058.065v.054h-.707v-.053zm3.454-.008c0-.034.011-.05.04-.05a.178.19 0 0 0 .088-.043l.048-.041.007-.685c.007-.766-.001-.823-.12-.871-.038-.016-.063-.042-.063-.065 0-.035.029-.04.317-.045.607-.01.734-.003.833.048.128.065.188.16.198.315.005.07.003.151-.004.181-.02.086-.117.193-.224.245l-.1.05.084.025c.2.064.329.287.302.527-.022.2-.104.314-.293.407-.1.05-.126.051-.608.051h-.505zm.917-.167c.106-.075.148-.177.137-.331-.019-.231-.17-.369-.41-.369h-.128l.007.333c.007.32.009.335.056.375.072.062.246.058.338-.008zm-.086-.917c.128-.052.195-.158.181-.286-.017-.174-.148-.27-.367-.27H7.8v.596l.108-.001a.653.67 0 0 0 .203-.039zm.853 1.085c0-.036.015-.05.056-.055a.172.182 0 0 0 .099-.07c.042-.06.043-.085.043-.74 0-.542-.006-.688-.03-.732-.035-.068-.083-.108-.131-.11-.024 0-.036-.017-.036-.05 0-.05 0-.05.374-.05.375 0 .375 0 .375.05 0 .035-.012.05-.04.05-.023 0-.067.024-.1.053l-.058.053-.006.697-.006.696.053.037c.042.03.088.036.217.027.198-.012.29-.064.345-.194.037-.085.077-.107.131-.07.02.014.017.055-.016.191a1.039 1.102 0 0 1-.074.227l-.032.05-.582-.006-.58-.006v-.048zm1.457.007c0-.041.014-.056.063-.066.115-.024.125-.084.125-.825 0-.614-.003-.662-.042-.729a.193.205 0 0 0-.094-.085c-.034-.009-.052-.029-.052-.061 0-.047.006-.047.354-.047.347 0 .354 0 .354.047 0 .032-.017.052-.053.061a.18.191 0 0 0-.088.073c-.033.054-.036.127-.036.734 0 .75.008.81.118.833.044.009.059.025.059.064v.054h-.707zm4.973-.004c0-.037.016-.052.064-.062.114-.024.124-.084.124-.827 0-.65-.002-.66-.048-.735-.026-.04-.069-.078-.094-.082-.033-.005-.046-.022-.046-.06v-.054h1.228v.231c0 .23 0 .232-.05.232-.04 0-.053-.014-.063-.076-.024-.131-.109-.176-.358-.186l-.21-.007-.014.105c-.007.057-.013.199-.013.314v.21l.177-.012c.195-.013.272-.049.293-.138.01-.04.027-.055.063-.055h.05v.574h-.052c-.036 0-.052-.012-.053-.038-.002-.11-.1-.16-.313-.16h-.168l.007.31c.008.377.006.374.256.374.22 0 .335-.056.395-.193.03-.068.053-.094.087-.094.025 0 .052.01.06.024.02.033-.073.392-.111.432-.025.026-.13.03-.62.026l-.59-.004v-.049zm2.288.005c0-.037.02-.06.066-.083a.327.347 0 0 0 .11-.094c.041-.06.043-.087.043-.894 0-.935-.002-.947-.146-.997-.056-.02-.073-.038-.073-.078v-.055h1.457v.552h-.063c-.05 0-.062-.009-.062-.05 0-.08-.078-.192-.162-.23a1.088 1.088 0 0 0-.311-.046l-.234-.01v.756h.171c.23-.002.308-.032.356-.137.031-.068.05-.083.098-.083h.061v.665l-.067-.007c-.045-.005-.07-.021-.078-.05-.032-.13-.16-.188-.413-.188h-.132l.008.391c.01.447.027.513.151.56.055.022.073.04.073.08v.05h-.853v-.05zm3.33-.004c0-.04.01-.055.04-.055.064 0 .137-.138.296-.557.211-.562.412-1.133.412-1.174 0-.027.022-.036.1-.035h.099l.28.764c.305.828.361.957.431.99a.074.079 0 0 1 .048.072c0 .05 0 .05-.354.05h-.354v-.052c0-.041.014-.056.063-.066.089-.019.094-.083.024-.301l-.06-.188h-.491l-.05.155c-.062.194-.058.328.01.338.034.005.046.022.046.06v.055h-.54v-.056zm.957-.773c0-.034-.153-.474-.165-.474-.007 0-.03.042-.047.093l-.087.243-.053.15h.175a.688.688 0 0 0 .177-.012zm.894.776c0-.04.014-.056.058-.065.112-.025.117-.056.126-.778.01-.745 0-.807-.12-.855-.038-.016-.063-.042-.063-.065 0-.035.023-.039.233-.039h.234l.136.182c.074.1.266.345.426.546.16.2.313.395.339.432l.048.065-.007-.5c-.007-.542-.019-.598-.13-.628-.033-.009-.052-.029-.052-.055 0-.04.02-.043.28-.043.265 0 .282.003.282.043 0 .027-.017.046-.045.05-.025.004-.064.035-.089.07-.041.06-.044.089-.05.877l-.006.816h-.09c-.083 0-.098-.01-.16-.095-.055-.075-.937-1.233-.97-1.275a8.168 8.168 0 0 0 0 .54c.01.617.023.69.122.712.046.009.06.025.06.064v.054h-.561v-.053zm3.641-.003c0-.033.012-.055.03-.055.04 0 .118-.104.173-.233.077-.18.433-1.155.494-1.353l.056-.182.094.006.093.007.275.75c.153.413.293.786.313.828.047.098.114.177.15.177.016 0 .028.024.028.055v.056h-.707v-.056c0-.039.012-.055.037-.055.101 0 .11-.093.034-.337l-.054-.171h-.488l-.044.15c-.084.28-.08.358.018.358.028 0 .04.016.04.055v.056h-.54v-.056zm.883-.988a9.108 9.108 0 0 0-.084-.26c-.007-.019-.05.065-.103.21-.05.134-.09.25-.092.26 0 .01.078.016.174.016h.176zm.948.988c0-.043.011-.055.049-.055.027 0 .066-.022.089-.047.037-.042.04-.094.045-.734.003-.378.001-.71-.005-.737-.015-.062-.092-.138-.14-.138-.025 0-.038-.016-.038-.05 0-.05.001-.05.354-.05.34 0 .353.002.353.045 0 .027-.022.055-.06.073a.175.186 0 0 0-.082.088c-.03.084-.047.773-.027 1.146.012.259.022.32.054.358.02.025.056.046.077.046.028 0 .038.016.038.055v.056h-.706v-.056zm2.33-.004c0-.04.012-.051.051-.051.03 0 .068-.024.093-.058.042-.057.043-.084.043-.753 0-.484-.006-.708-.023-.741-.031-.062-.08-.102-.127-.103-.025 0-.037-.019-.037-.056v-.055h1.248v.466l-.054-.007c-.042-.005-.06-.025-.078-.082-.042-.131-.109-.166-.357-.175l-.217-.008v.623l.13-.002c.18-.001.267-.037.306-.125.023-.052.046-.071.083-.071h.053v.573h-.057c-.047 0-.058-.01-.058-.052 0-.098-.07-.135-.272-.143l-.185-.008v.31c0 .373.003.378.24.378.235 0 .356-.063.418-.215.031-.077.103-.1.125-.038.014.04-.044.3-.088.39l-.032.064-.602-.006-.603-.004zM2.786 25.376l-.051-.042.123-.2c.069-.11.137-.2.153-.2.071-.002.295.05.29.065a4.12 4.12 0 0 1-.443.418.2.212 0 0 1-.073-.042zM.143 23.85H31.83v.198H.143zm12.06-.45a.348.357 0 0 1-.23-.405.323.332 0 0 1 .197-.257l.097-.048-.059-.037c-.034-.021-.06-.055-.06-.08 0-.04.153-.201.19-.201.01 0-.004-.037-.028-.082-.108-.192-.021-.468.177-.577.108-.059.144-.061.521-.036.217.015.225.017.214.063a.385.409 0 0 0-.012.063c0 .009-.038.017-.082.017h-.082l.012.128c.024.28-.164.472-.467.478-.158.002-.233.037-.172.08.017.011.118.05.226.087.344.119.408.178.393.368-.015.197-.165.37-.381.439a.871.871 0 0 1-.454 0zm.463-.137c.17-.09.243-.26.15-.349-.063-.06-.333-.15-.403-.136-.142.03-.275.215-.25.348.034.182.286.252.503.137zm.056-1c.127-.081.175-.314.09-.429-.116-.157-.338.018-.34.27-.002.077.01.104.057.148.07.064.108.066.193.012zm.789.513c-.091-.02-.14-.084-.151-.199-.026-.294.207-.725.467-.863.135-.073.403-.08.581-.016.016.005.005.081-.037.236-.08.304-.127.607-.1.66.018.034.03.037.084.017.052-.019.07-.018.084.006.03.05.011.07-.107.113-.16.057-.233.046-.258-.04l-.018-.068-.086.05c-.144.086-.34.13-.459.104zm.36-.198a.429.44 0 0 0 .14-.105c.028-.045.112-.376.146-.569.013-.078.011-.081-.064-.103-.14-.041-.28.067-.392.301-.118.246-.148.466-.071.522.052.039.083.033.24-.046zm9.85.192c-.092-.024-.126-.058-.15-.158-.04-.153.05-.442.202-.655.182-.256.386-.342.685-.29a.621.638 0 0 1 .156.039c.008.008-.019.15-.058.312-.04.165-.075.363-.077.442l-.003.144.088-.004c.08-.004.089 0 .089.046 0 .042-.02.057-.12.089-.166.053-.243.041-.25-.037-.005-.034-.011-.062-.016-.062-.005 0-.059.025-.12.053-.1.047-.304.106-.343.1a1.859 1.971 0 0 1-.082-.02zm.349-.19a.536.55 0 0 0 .128-.09c.045-.056.128-.344.171-.598.01-.067.008-.071-.07-.094-.068-.02-.098-.017-.156.013-.133.066-.263.292-.332.57-.065.265.016.328.26.2zm-22.565.14a3.043 3.043 0 0 1 .083-.457c.102-.441.101-.477-.01-.443-.056.017-.062.014-.062-.032 0-.042.02-.055.12-.086a1.02 1.02 0 0 1 .192-.043c.069-.005.073 0 .08.07.004.04-.033.242-.08.448a2.52 2.52 0 0 0-.074.409c.01.027.032.03.108.018.09-.014.094-.012.088.036-.006.04-.031.058-.122.088a.883.907 0 0 1-.213.04c-.085.001-.1-.005-.109-.048zm.8.008l-.047-.04.161-.752c.09-.413.158-.78.155-.814-.007-.066-.015-.069-.095-.043-.04.013-.047.007-.047-.04 0-.065.073-.095.275-.117.117-.013.12-.012.12.04 0 .03-.033.21-.073.404-.04.193-.073.363-.073.379 0 .021.023.018.09-.014.232-.109.434-.103.507.014.068.11.033.395-.078.628-.057.121-.228.31-.32.355-.122.058-.506.059-.574 0zm.527-.14c.104-.078.221-.342.253-.576.034-.234-.112-.281-.346-.11a.3.317 0 0 0-.109.146 3.34 3.429 0 0 0-.115.524c0 .093.202.104.317.016zm.795.113c-.057-.062-.061-.08-.06-.226.003-.372.202-.706.478-.798.137-.046.257-.03.338.044.047.042.056.069.056.159 0 .228-.195.4-.476.421-.081.005-.154.022-.163.036-.023.036-.02.164.008.219.052.104.127.107.305.01.111-.061.134-.067.15-.039.037.061.02.081-.142.161a.54.54 0 0 1-.297.081c-.125 0-.141-.005-.197-.068zm.372-.53c.178-.052.294-.253.203-.349-.057-.06-.11-.059-.183.007a.908.908 0 0 0-.182.317c-.012.042-.007.05.035.05a.586.601 0 0 0 .127-.025zm.7.591l.084-.38a3.694 3.793 0 0 0 .083-.471v-.097l-.083.014c-.073.013-.083.01-.083-.03 0-.048.067-.085.236-.13.116-.03.159-.01.159.077v.051l.074-.052c.13-.094.21-.111.303-.066.045.021.08.05.077.063-.058.211-.09.278-.135.278-.042 0-.05-.011-.05-.075 0-.16-.13-.162-.226-.002-.059.1-.121.326-.17.625-.014.09-.036.166-.048.17a1.169 1.2 0 0 1-.22.025zm1.044-.021c-.023-.03-.01-.109.109-.684l.05-.237H5.83c-.039 0-.07-.006-.07-.012 0-.035.046-.098.072-.098.05 0 .148-.105.188-.204.046-.109.065-.127.132-.128.045 0 .049.008.036.072a4.628 4.91 0 0 0-.026.155l-.012.083h.096c.098 0 .113.016.083.097-.009.025-.04.036-.112.036-.115 0-.096-.045-.188.438-.068.355-.064.388.05.354.093-.029.1-.027.093.029-.005.038-.032.059-.111.086-.127.046-.287.052-.319.012zm.84-.029c-.153-.174-.042-.67.2-.901.1-.095.253-.168.354-.168.064 0 .206.07.226.112.034.066.023.225-.02.3-.087.153-.276.25-.482.25h-.122v.117c0 .226.088.266.321.144a.481.481 0 0 1 .144-.06.147.151 0 0 1 .016.054c.006.036-.023.06-.146.126-.134.072-.172.083-.298.083-.128 0-.149-.006-.193-.057zm.366-.543c.11-.04.187-.106.22-.19.028-.072.028-.083-.01-.135-.057-.082-.113-.082-.199-.002-.067.062-.18.27-.18.33 0 .03.08.03.169-.002zm7.814.586c-.03-.032-.01-.162.09-.612.135-.613.208-.974.208-1.032 0-.042-.008-.046-.073-.035-.066.012-.073.008-.073-.04 0-.055.052-.08.26-.122.106-.021.136-.007.136.066 0 .033-.07.382-.156.776-.086.393-.156.75-.157.79v.075l.096-.014c.09-.013.094-.01.088.035-.005.038-.033.057-.121.086-.117.039-.274.053-.298.027zm.783-.013c-.024-.043-.01-.14.078-.508.047-.193.082-.367.077-.388-.008-.039-.014-.04-.104-.018-.048.013-.058.008-.058-.031 0-.053.09-.1.25-.131.117-.024.167-.012.167.039 0 .02-.043.222-.094.451-.053.229-.089.427-.081.44.008.015.05.018.106.01.087-.012.091-.01.086.036-.005.038-.033.057-.121.086-.136.045-.283.052-.305.015zm.77-.01a.431.443 0 0 1 .012-.16c.046-.222.148-.731.148-.742 0-.005-.029-.01-.064-.01-.09 0-.074-.062.033-.12.063-.034.099-.079.152-.184.059-.119.076-.138.126-.138h.06l-.028.138a3.39 3.39 0 0 0-.029.155c0 .009.046.017.103.017.11 0 .112.002.09.082-.01.044-.024.05-.119.05h-.107l-.07.372a2.584 2.584 0 0 0-.058.407c.01.029.026.03.081.014.096-.028.1-.027.1.032 0 .045-.017.057-.12.088-.162.048-.293.048-.31-.001zm.856-.013c-.051-.047-.06-.073-.068-.197-.017-.278.104-.591.282-.736.196-.158.41-.18.531-.052.056.06.06.076.052.176-.02.218-.217.378-.487.393-.17.008-.187.03-.155.185.036.17.102.187.31.082.138-.069.17-.069.17 0 0 .071-.25.184-.428.195-.132.008-.153.003-.207-.046zm.447-.59c.13-.07.186-.226.112-.313-.093-.109-.265.034-.35.291l-.031.094.093-.014a.665.705 0 0 0 .176-.057zm4.974.632l.083-.38c.045-.205.083-.417.083-.47v-.097l-.084.014c-.073.013-.082.01-.082-.029 0-.053.037-.076.205-.122.146-.04.19-.025.19.068v.051l.074-.052c.13-.094.209-.111.303-.066.044.021.081.044.081.052 0 .007-.02.075-.047.15-.038.115-.054.138-.093.138-.04 0-.047-.012-.047-.074 0-.15-.122-.162-.214-.02-.07.109-.104.227-.162.536a2.006 2.06 0 0 1-.06.268.794.794 0 0 1-.23.033zm2.4-.026c-.018-.047.002-.184.082-.573l.069-.331-.059-.008c-.07-.007-.081-.081-.016-.102.073-.025.157-.116.198-.215.046-.109.064-.127.132-.128.044 0 .049.008.035.072a4.629 4.91 0 0 0-.025.155l-.013.083h.097c.097 0 .113.016.083.097-.009.025-.04.036-.112.036-.116 0-.097-.045-.188.438-.068.355-.064.388.049.354.093-.029.101-.027.093.029-.004.038-.03.059-.11.086-.14.05-.3.053-.315.006zm.839-.023c-.158-.167-.049-.668.197-.901.098-.095.253-.168.354-.168.064 0 .205.07.226.112.034.066.023.225-.02.3-.088.153-.277.25-.485.25h-.125l.01.136c.014.215.088.245.316.125a.481.481 0 0 1 .144-.06.147.151 0 0 1 .017.054c.006.036-.024.06-.146.126-.133.072-.174.083-.294.083-.123 0-.146-.007-.194-.057zm.437-.576c.145-.076.21-.254.12-.327-.06-.048-.105-.04-.184.034-.068.063-.18.27-.18.332 0 .036.145.014.243-.039zm.63.615c0-.01.039-.189.085-.399.046-.21.082-.412.078-.45-.006-.066-.01-.07-.082-.066-.06.003-.078-.005-.087-.038-.008-.035.01-.05.098-.085.058-.023.142-.049.185-.057.08-.015.079-.016.129.113a.967.993 0 0 0 .124-.06c.143-.077.167-.08.254-.023l.067.043-.046.144c-.038.121-.053.145-.091.145-.04 0-.048-.012-.048-.072 0-.193-.172-.155-.267.058a2.8 2.875 0 0 0-.104.41 4.146 4.257 0 0 1-.07.32c-.017.017-.225.032-.225.016zm1.04 0c0-.011.035-.158.075-.326a2.55 2.55 0 0 0 .078-.462l.004-.154-.075.006c-.06.005-.078-.003-.086-.036-.009-.033.01-.047.096-.076.19-.061.233-.065.27-.026a.137.145 0 0 1 .034.09c0 .03.004.053.01.053.004 0 .065-.029.136-.064.167-.085.39-.129.456-.091.043.024.047.037.034.138-.007.061-.042.232-.074.379a3.731 3.831 0 0 0-.067.344c-.006.078-.006.078.081.076.06-.001.092.008.1.031.016.045-.003.06-.134.1-.147.047-.284.047-.3.002a2.734 2.734 0 0 1 .07-.428c.092-.434.097-.483.054-.5-.045-.019-.204.064-.299.155-.079.075-.088.098-.136.317a7.26 7.26 0 0 0-.067.343c-.008.059-.025.11-.038.114-.063.02-.222.03-.222.015zm1.428-.018c-.007-.02.03-.225.083-.455.053-.23.09-.431.084-.448-.008-.022-.027-.025-.08-.009a1.352 1.352 0 0 1-.073.022c-.003 0-.005-.024-.005-.052 0-.043.018-.058.11-.086.245-.079.321-.066.297.053l-.095.425c-.047.205-.08.388-.073.405.009.025.034.029.105.019.09-.013.095-.01.089.035-.013.094-.41.176-.441.091zm.785 0c-.014-.038.003-.143.085-.527.089-.424.088-.385.013-.385-.092 0-.077-.062.029-.121.062-.034.1-.079.148-.179.054-.107.077-.133.124-.139.063-.007.063-.002.019.234l-.014.072h.11c.09 0 .105.005.095.034a.21.224 0 0 0-.012.066c0 .024-.03.032-.112.032h-.112l-.07.371a2.646 2.646 0 0 0-.054.407c.01.029.025.032.081.015.096-.029.1-.027.1.032 0 .045-.016.057-.12.088-.16.048-.293.048-.31 0zm.856-.015c-.06-.054-.062-.06-.062-.274 0-.208.004-.226.08-.387.091-.197.197-.304.366-.371.296-.118.508.082.377.354-.074.153-.271.264-.472.265-.12 0-.128.004-.142.06a.3.309 0 0 0 .047.233c.047.058.128.048.273-.032.109-.059.133-.065.149-.038.037.061.018.085-.121.157a.647.664 0 0 1-.288.08c-.133.008-.153.003-.208-.047zm.452-.595c.141-.083.188-.248.09-.315a.11.116 0 0 0-.109-.016c-.073.026-.178.17-.222.305l-.032.104.094-.014a.579.594 0 0 0 .18-.063zM0 22.71a.066.066 0 0 1 .05-.047c.06-.012.115-.07.157-.17.056-.132.228-1.054.233-1.245.004-.163.004-.165-.062-.21-.13-.087-.095-.1.264-.1.285 0 .333.005.333.034 0 .019-.026.039-.063.047-.133.028-.184.167-.309.85-.117.64-.115.627-.062.683.04.042.06.046.222.037.219-.012.298-.05.374-.184.06-.106.063-.107.105-.078.025.015.023.036-.005.126a1.28 1.358 0 0 1-.08.196l-.048.088-.558.006c-.522.005-.557.004-.55-.033zm10.525.007c0-.018.034-.05.078-.072a.26.277 0 0 0 .123-.14c.06-.13.24-1.07.244-1.268.002-.15 0-.155-.065-.199-.14-.094-.108-.1.526-.1.582 0 .594.001.582.043a2.411 2.558 0 0 0-.04.193c-.021.128-.032.151-.071.157-.037.006-.045-.004-.045-.05 0-.147-.082-.189-.374-.189h-.202l-.057.282c-.032.155-.062.299-.068.32-.009.035.01.039.174.038.207 0 .267-.023.328-.126.055-.09.126-.099.109-.01l-.049.263c-.028.162-.044.205-.07.205-.023 0-.04-.025-.049-.065a.141.15 0 0 0-.059-.093c-.05-.028-.377-.04-.402-.015a4.23 4.23 0 0 0-.102.53c-.013.095-.01.107.04.14.043.03.088.036.235.028.217-.012.293-.048.382-.182.04-.058.077-.092.093-.085.04.016.036.056-.025.211-.091.232-.04.215-.678.215-.467 0-.558-.005-.558-.031zm10.57 0c0-.018.03-.043.067-.057.131-.047.174-.173.306-.887.113-.616.11-.714-.021-.758-.024-.008-.04-.026-.035-.04.006-.02.169-.028.585-.032.568-.006.578-.005.564.038a2.406 2.553 0 0 0-.039.193c-.022.128-.032.151-.071.157-.04.007-.046-.003-.046-.06 0-.14-.102-.186-.383-.174l-.165.006-.059.288c-.031.157-.057.3-.058.314 0 .04.317.037.393-.004a.214.227 0 0 0 .084-.1c.017-.04.042-.067.065-.067.05 0 .05-.016-.005.281-.038.209-.052.249-.084.249-.023 0-.038-.016-.038-.041 0-.102-.195-.179-.374-.147l-.08.014-.041.247c-.075.435-.072.474.042.524.123.055.052.076-.282.082-.273.006-.326 0-.326-.026zM8.89 22.242a.353.363 0 0 1-.176-.296c0-.176.147-.333.31-.332.194 0 .314.127.315.331 0 .257-.223.406-.45.297zm10.59.011a.393.417 0 0 1-.125-.112c-.049-.068-.059-.104-.058-.198.003-.202.122-.327.313-.327.094 0 .126.01.19.066a.339.339 0 0 1 .051.472.312.33 0 0 1-.371.099zm-12.44-.784c-.041-.049-.044-.043.193-.329l.079-.097.119.029c.065.015.118.034.118.042 0 .015-.445.398-.462.398a.173.183 0 0 1-.047-.044zm10.585 0l-.046-.04.157-.19c.087-.105.165-.19.174-.19.052 0 .23.054.225.068a7.615 7.615 0 0 1-.442.377c-.012.008-.042-.004-.068-.026zm13.831 0l-.049-.041.162-.19c.09-.104.17-.19.178-.19.042 0 .229.053.228.065a6.769 6.95 0 0 1-.445.38c-.013.009-.046-.002-.074-.024zm-29.693-.115c-.084-.089-.002-.262.125-.262.09 0 .136.05.136.145 0 .147-.164.221-.261.118zm14.04.017c-.05-.042-.047-.178.006-.234.087-.092.25-.032.25.09 0 .132-.158.222-.255.143zm13.82-.016c-.086-.091-.002-.263.129-.263s.186.155.092.255c-.065.068-.162.072-.222.007zm-18.228-.632c-.033-.036-.025-.05.125-.224l.16-.185.12.028a.35.35 0 0 1 .118.041c-.002.021-.42.361-.456.371-.019.005-.05-.009-.067-.031z" fill="#000"/><path d="M18.312 19.479l.048-.133c.082-.24.167-.424.291-.626.13-.213.418-.527.536-.588.147-.073.33-.1.556-.078.193.017.788.12 1.03.178.181.043.45.047.576.009a.627.627 0 0 0 .454-.458c.052-.183.052-.35-.001-.46-.072-.149-.06-.187.114-.364.086-.087.156-.167.156-.178.001-.06-.118-.296-.149-.297a.177.188 0 0 1-.082-.042l-.048-.041.103-.056c.14-.076.246-.195.246-.278a.592.608 0 0 0-.066-.198c-.07-.139-.089-.272-.05-.35.026-.05.071-.072.29-.14.185-.057.251-.113.279-.238.02-.107.01-.175-.05-.303a10.041 10.041 0 0 0-.462-.75 2.536 2.536 0 0 1-.323-.625c-.045-.157-.045-.164-.012-.367.068-.427.028-.782-.167-1.472-.145-.514-.184-.638-.23-.734-.081-.174-.07-.214.098-.36.08-.07.156-.145.167-.167.05-.1-.007-.296-.103-.35-.061-.035-.095-.01-.157.11-.047.092-.066.11-.116.11-.082 0-.096-.038-.044-.112.061-.088.056-.102-.04-.116-.071-.01-.109-.04-.264-.207a1.805 1.853 0 0 0-.629-.467c-.128-.062-.173-.092-.125-.082.04.007.18.019.314.026.386.021.48-.034.57-.329.06-.2.09-.292-.05-.433L20.457 8H32v11.479z" fill="#e2011c"/><path d="M8.469 19.479c-.084-.01-.157-.013-.162-.018-.009-.01.087-.074.52-.354.139-.09.196-.138.177-.15a1.614 1.657 0 0 0-.27-.031c-.197-.012-.254-.009-.312.02a3.524 3.74 0 0 1-.346.111c-.377.105-.503.176-.623.354l-.045.068H0V8h14.696l-.285.197a2.76 2.834 0 0 0-.404.255c-.224.195-.525.64-.6.886-.028.09-.053.123-.137.186a1.77 1.77 0 0 0-.413.475c-.174.276-.506.898-.572 1.071-.1.267-.092.471.057 1.271.066.353.137.711.16.796.02.085.043.229.05.32.014.164.023.198.113.398a.487.5 0 0 1 .045.138c0 .021.018.05.041.066a.1.105 0 0 1 .042.083c0 .039.047.11.151.232.239.278.41.538.41.62 0 .068-.093.085-.243.045-.176-.045-.32-.145-.542-.374-.094-.098-.171-.163-.171-.146 0 .018.064.108.143.202.157.186.182.236.148.304-.03.059-.102.076-.2.047-.113-.033-.18.013-.16.112.011.061.007.068-.024.055a1.619 1.717 0 0 0-.33-.071c-.116-.013-.124-.018-.194-.121-.053-.08-.094-.115-.15-.132a8.558 8.558 0 0 0-1.064-.196c-.607-.071-.752-.076-1.044-.04-.222.029-.282.045-.405.111-.216.117-.59.482-.59.577 0 .044.082.028.177-.034.286-.188 1.266-.454 1.747-.474.238-.01.226.003-.06.058-.08.014-.267.065-.416.112-.15.048-.409.12-.574.162a5.295 5.436 0 0 0-.417.12l-.114.043.177.002c.9.01 1.928.314 2.346.693.18.163.246.183.51.154.362-.04.833-.224 1.039-.407.089-.079.162-.11.162-.069 0 .072-.12.46-.17.556-.056.107-.06.123-.03.146.018.015.027.032.02.038-.006.007.009.02.033.027.068.023.05.045-.059.075-.105.029-.19.079-.19.115 0 .011.016.021.033.021.054 0 .013.04-.056.056-.049.01-.058.02-.036.034.02.014.02.02.002.02-.014 0-.026.022-.026.05 0 .034-.02.059-.063.079-.104.05-.074.075.069.061.071-.007.115-.007.098 0a14.47 14.857 0 0 0-.26.125 5.35 5.493 0 0 1-.364.163c-.084.031-.138.064-.142.087-.007.037.031.036.13-.004.018-.007.033-.005.033.005s-.217.144-.482.296c-.264.152-.512.308-.55.347-.038.04-.087.072-.108.072-.022 0-.05.025-.064.057-.04.094-.031.105.065.088.143-.027.209-.025.218.004.005.016-.008.028-.032.028a.097.103 0 0 0-.066.032.141.15 0 0 1-.08.038c-.035.005-.07.032-.097.078-.023.038-.06.075-.084.081-.023.007.01.007.073.003.936-.074 1.11-.11 1.488-.314a3.585 3.804 0 0 0 .894-.689.887.887 0 0 1 .14-.135c.033 0 .015.124-.033.233-.082.189-.256.362-.612.613-.18.126-.373.246-.431.265a5.363 5.507 0 0 1-.77.17c-.985.151-1.363.266-1.736.529-.062.042-.129.076-.146.072-.018-.002-.065.025-.104.06-.113.103-.032.085.201-.042.24-.13.351-.151.163-.03-.231.149-.407.242-.58.242zm-1.224-1.28a3.398 3.605 0 0 0 .274-.164c.114-.073.25-.153.3-.178l.324-.155c.264-.126.65-.245.673-.207.007.014.065.029.128.033.088.006.103.012.067.026-.025.009-.047.026-.047.037 0 .04.195.028.277-.017a.57.585 0 0 1 .161-.045c.07-.009.103-.023.103-.045 0-.025.018-.029.082-.017.087.015.275-.023.782-.158a4.66 4.784 0 0 0 .831-.294l.165-.08-.165-.112c-.403-.274-.807-.443-1.695-.704a1.874 1.874 0 0 1-.302-.106c-.013-.014-.006-.016.021-.006.09.034.157.04.157.015 0-.033-.068-.059-.2-.078-.12-.017-.197-.056-.113-.057.129 0-.093-.088-.342-.133-.185-.035-.196-.042-.119-.081.067-.035.14-.166.12-.218-.015-.044-.036-.04-.136.032a1.394 1.479 0 0 0-.467.595c-.057.133-.038.145.254.159.238.01.242.012.18.046a.575.61 0 0 1-.152.05c-.17.029-.263.114-.18.164.025.014.015.026-.046.057-.068.036-.074.043-.04.062a.311.33 0 0 0 .133.014c.073-.005.106.003.142.036l.046.043-.093.062a.426.451 0 0 0-.128.134 1.343 1.379 0 0 1-.154.205.58.58 0 0 0-.12.172c0 .02-.096.116-.214.216-.315.268-.452.415-.452.486a.104.11 0 0 1-.05.093c-.098.068-.149.148-.095.148a.39.414 0 0 0 .089-.03zm2.434-.258a.675.693 0 0 0 .2-.057l.058-.037-.1-.053-.1-.054-.1.043a6.195 6.195 0 0 1-.17.071c-.153.062-.174.145-.03.122l.242-.036zm-3.523-1.005c.464-.514.79-.82 1.205-1.125.142-.104.241-.164.246-.149.014.043.074.03.173-.035.113-.077.17-.154.31-.425.147-.28.202-.35.414-.523.1-.081.244-.202.324-.269.114-.096.141-.11.132-.073-.008.029-.003.048.013.048.047 0 .27-.1.278-.126.012-.039-.214-.079-.383-.068-.128.01-.173.025-.332.116-.375.215-.645.447-1.163.995-.372.395-.665.659-.813.734-.049.025-.084.076-.143.201a7.245 7.245 0 0 1-.51.882c-.181.27-.22.364-.079.19.049-.059.196-.227.327-.373zm4.64 2.417c.556-.124.618-.132 1.009-.15.438-.021.494-.033.758-.164.085-.043.118-.05.13-.03.02.034.163-.049.443-.257a5.22 5.22 0 0 1 .36-.243c.125-.071.164-.084.224-.071.064.012.084.004.167-.073.228-.213.423-.312.617-.313.058 0 .078.009.078.036 0 .022.011.03.03.023.06-.024.033.003-.116.121-.173.135-.156.176.02.047.17-.125.17-.125.17-.075 0 .029-.064.101-.182.205-.268.239-.46.436-.748.775l-.26.295h-3.294zm.005-4.491a.075.08 0 0 1 .072 0c.02.013.004.024-.036.024-.04 0-.056-.01-.036-.024z" fill="#003189"/><path d="M20.506 14.016c-.09-.015-.044-.05.067-.05.11 0 .168-.045.168-.13 0-.04-.008-.047-.044-.035-.03.01-.052.001-.072-.029-.018-.028-.064-.05-.13-.058-.119-.017-.311-.138-.277-.175.012-.013.073-.028.137-.033.108-.009.115-.014.137-.085.017-.052.04-.078.078-.088a.292.31 0 0 0 .108-.064c.028-.029.123-.1.209-.16.144-.1.233-.207.202-.24-.035-.035-.347-.075-.494-.062a2.827 2.903 0 0 0-.588.132c-.125.052-.09.007.085-.103.234-.147.684-.284.933-.284.098 0 .42.08.46.114.075.067-.007.3-.147.417l-.059.048.048.055.049.054-.05.042a.175.186 0 0 1-.082.043c-.018 0-.063.031-.1.069-.057.058-.065.077-.048.123a.11.117 0 0 1-.004.1.332.34 0 0 0-.009.162c.018.147-.007.2-.11.229a1.699 1.699 0 0 1-.467.008z" fill="#7f7f7f"/></g></g></svg>