<svg height="38" viewBox="0 0 360 38" width="360" xmlns="http://www.w3.org/2000/svg"><g fill="none" fill-rule="evenodd"><path d="m92.224 10.336v17.664h-2.952v-1.944a3.893 3.893 0 0 1 -1.584 1.572c-.688.376-1.472.564-2.352.564-1.04 0-1.968-.264-2.784-.792s-1.452-1.276-1.908-2.244-.684-2.076-.684-3.324.224-2.344.672-3.288 1.08-1.676 1.896-2.196 1.752-.78 2.808-.78c.864 0 1.636.18 2.316.54a3.8 3.8 0 0 1 1.572 1.524v-7.296zm-6.096 15.504c.992 0 1.764-.344 2.316-1.032s.828-1.664.828-2.928-.272-2.24-.816-2.928-1.312-1.032-2.304-1.032c-1.008 0-1.788.34-2.34 1.02s-.828 1.644-.828 2.892c0 1.264.276 2.248.828 2.952s1.324 1.056 2.316 1.056zm19.968-3.744h-8.352c.064 1.296.388 2.252.972 2.868s1.452.924 2.604.924c1.328 0 2.56-.432 3.696-1.296l.864 2.064c-.576.464-1.284.836-2.124 1.116s-1.692.42-2.556.42c-1.984 0-3.544-.56-4.68-1.68s-1.704-2.656-1.704-4.608c0-1.232.248-2.328.744-3.288a5.493 5.493 0 0 1 2.088-2.244c.896-.536 1.912-.804 3.048-.804 1.664 0 2.98.54 3.948 1.62s1.452 2.564 1.452 4.452zm-5.328-4.368c-.8 0-1.452.236-1.956.708s-.828 1.156-.972 2.052h5.64c-.096-.912-.372-1.6-.828-2.064s-1.084-.696-1.884-.696zm22.176-2.16c1.376 0 2.4.412 3.072 1.236s1.008 2.076 1.008 3.756v7.44h-3v-7.344c0-.96-.156-1.652-.468-2.076s-.828-.636-1.548-.636c-.832 0-1.484.292-1.956.876s-.708 1.388-.708 2.412v6.768h-3v-7.344c0-.944-.164-1.632-.492-2.064s-.844-.648-1.548-.648c-.832 0-1.488.292-1.968.876s-.72 1.388-.72 2.412v6.768h-2.976v-8.688c0-1.28-.064-2.424-.192-3.432h2.808l.216 1.92c.352-.72.86-1.272 1.524-1.656s1.428-.576 2.292-.576c1.856 0 3.064.768 3.624 2.304a4.183 4.183 0 0 1 1.644-1.692c.712-.408 1.508-.612 2.388-.612zm18.864.312v12.12h-2.952v-1.944a3.893 3.893 0 0 1 -1.584 1.572c-.688.376-1.472.564-2.352.564-1.056 0-1.992-.256-2.808-.768s-1.448-1.24-1.896-2.184-.672-2.04-.672-3.288.228-2.356.684-3.324 1.092-1.72 1.908-2.256 1.744-.804 2.784-.804c.88 0 1.664.188 2.352.564s1.216.9 1.584 1.572v-1.824zm-6.072 9.96c.992 0 1.76-.344 2.304-1.032s.816-1.656.816-2.904c0-1.28-.272-2.264-.816-2.952s-1.32-1.032-2.328-1.032c-.992 0-1.764.356-2.316 1.068s-.828 1.7-.828 2.964c0 1.248.276 2.208.828 2.88s1.332 1.008 2.34 1.008zm15.864-10.248c.464 0 .864.064 1.2.192l-.024 2.736a4.171 4.171 0 0 0 -1.584-.312c-1.024 0-1.804.296-2.34.888s-.804 1.376-.804 2.352v6.552h-2.976v-8.688c0-1.28-.064-2.424-.192-3.432h2.808l.24 2.136c.304-.784.784-1.384 1.44-1.8s1.4-.624 2.232-.624zm8.136 12.6c-1.264 0-2.36-.256-3.288-.768a5.224 5.224 0 0 1 -2.136-2.172c-.496-.936-.744-2.036-.744-3.3s.26-2.376.78-3.336a5.571 5.571 0 0 1 2.208-2.244c.952-.536 2.052-.804 3.3-.804.864 0 1.7.136 2.508.408s1.452.648 1.932 1.128l-.84 2.112a5.826 5.826 0 0 0 -1.632-.948 4.83 4.83 0 0 0 -1.704-.324c-1.088 0-1.936.34-2.544 1.02s-.912 1.66-.912 2.94.3 2.256.9 2.928 1.452 1.008 2.556 1.008c.56 0 1.128-.112 1.704-.336a6.073 6.073 0 0 0 1.632-.96l.84 2.112c-.512.48-1.176.856-1.992 1.128a8.067 8.067 0 0 1 -2.568.408zm13.512-12.624c2.896 0 4.344 1.664 4.344 4.992v7.44h-3v-7.296c0-.96-.184-1.66-.552-2.1s-.936-.66-1.704-.66c-.912 0-1.648.292-2.208.876s-.84 1.356-.84 2.316v6.864h-2.976v-17.664h2.976v7.296a4.275 4.275 0 0 1 1.656-1.524c.688-.36 1.456-.54 2.304-.54zm18.144 6.528h-8.352c.064 1.296.388 2.252.972 2.868s1.452.924 2.604.924c1.328 0 2.56-.432 3.696-1.296l.864 2.064c-.576.464-1.284.836-2.124 1.116s-1.692.42-2.556.42c-1.984 0-3.544-.56-4.68-1.68s-1.704-2.656-1.704-4.608c0-1.232.248-2.328.744-3.288a5.493 5.493 0 0 1 2.088-2.244c.896-.536 1.912-.804 3.048-.804 1.664 0 2.98.54 3.948 1.62s1.452 2.564 1.452 4.452zm-5.328-4.368c-.8 0-1.452.236-1.956.708s-.828 1.156-.972 2.052h5.64c-.096-.912-.372-1.6-.828-2.064s-1.084-.696-1.884-.696zm12.312 10.464c-2.192 0-3.936-.512-5.232-1.536l.84-2.112c1.296.96 2.776 1.44 4.44 1.44.72 0 1.276-.12 1.668-.36s.588-.576.588-1.008c0-.368-.136-.66-.408-.876s-.736-.404-1.392-.564l-2.016-.456c-2.208-.48-3.312-1.608-3.312-3.384 0-.736.208-1.388.624-1.956s1-1.012 1.752-1.332 1.624-.48 2.616-.48c.864 0 1.696.132 2.496.396s1.504.644 2.112 1.14l-.888 2.04c-1.216-.896-2.464-1.344-3.744-1.344-.688 0-1.224.128-1.608.384s-.576.608-.576 1.056c0 .352.116.632.348.84s.628.384 1.188.528l2.064.456c1.2.272 2.076.692 2.628 1.26s.828 1.308.828 2.22c0 1.12-.448 2.008-1.344 2.664s-2.12.984-3.672.984zm7.608-5.472v-2.4h7.224v2.4zm15.096 5.472c-2.192 0-3.936-.512-5.232-1.536l.84-2.112c1.296.96 2.776 1.44 4.44 1.44.72 0 1.276-.12 1.668-.36s.588-.576.588-1.008c0-.368-.136-.66-.408-.876s-.736-.404-1.392-.564l-2.016-.456c-2.208-.48-3.312-1.608-3.312-3.384 0-.736.208-1.388.624-1.956s1-1.012 1.752-1.332 1.624-.48 2.616-.48c.864 0 1.696.132 2.496.396s1.504.644 2.112 1.14l-.888 2.04c-1.216-.896-2.464-1.344-3.744-1.344-.688 0-1.224.128-1.608.384s-.576.608-.576 1.056c0 .352.116.632.348.84s.628.384 1.188.528l2.064.456c1.2.272 2.076.692 2.628 1.26s.828 1.308.828 2.22c0 1.12-.448 2.008-1.344 2.664s-2.12.984-3.672.984zm7.584-.192v-12.12h2.976v12.12zm-.192-17.616h3.336v2.952h-3.336zm20.76 5.184c1.376 0 2.4.412 3.072 1.236s1.008 2.076 1.008 3.756v7.44h-3v-7.344c0-.96-.156-1.652-.468-2.076s-.828-.636-1.548-.636c-.832 0-1.484.292-1.956.876s-.708 1.388-.708 2.412v6.768h-3v-7.344c0-.944-.164-1.632-.492-2.064s-.844-.648-1.548-.648c-.832 0-1.488.292-1.968.876s-.72 1.388-.72 2.412v6.768h-2.976v-8.688c0-1.28-.064-2.424-.192-3.432h2.808l.216 1.92c.352-.72.86-1.272 1.524-1.656s1.428-.576 2.292-.576c1.856 0 3.064.768 3.624 2.304a4.183 4.183 0 0 1 1.644-1.692c.712-.408 1.508-.612 2.388-.612zm14.184 0c1.04 0 1.964.268 2.772.804s1.44 1.288 1.896 2.256.684 2.076.684 3.324-.224 2.344-.672 3.288-1.076 1.672-1.884 2.184-1.74.768-2.796.768c-.88 0-1.664-.188-2.352-.564a3.893 3.893 0 0 1 -1.584-1.572v7.128h-2.976v-13.872c0-1.28-.064-2.424-.192-3.432h2.808l.24 2.088c.32-.752.84-1.34 1.56-1.764s1.552-.636 2.496-.636zm-.816 10.272c1.008 0 1.784-.336 2.328-1.008s.816-1.632.816-2.88c0-1.264-.272-2.252-.816-2.964s-1.312-1.068-2.304-1.068c-1.024 0-1.808.344-2.352 1.032s-.816 1.672-.816 2.952c0 1.264.272 2.236.816 2.916s1.32 1.02 2.328 1.02zm8.784 2.16v-17.664h2.976v17.664zm6.264 0v-12.12h2.976v12.12zm-.192-17.616h3.336v2.952h-3.336zm10.272 5.496h7.968v12.12h-3v-9.864h-4.968v9.864h-3v-9.864h-2.328v-2.256h2.328v-1.224c0-1.088.168-1.948.504-2.58s.884-1.092 1.644-1.38 1.796-.432 3.108-.432h.888v2.208h-.576c-.752 0-1.304.06-1.656.18s-.592.352-.72.696-.192.892-.192 1.644zm4.776-5.616h3.384v3.024h-3.384zm17.04 11.832h-8.352c.064 1.296.388 2.252.972 2.868s1.452.924 2.604.924c1.328 0 2.56-.432 3.696-1.296l.864 2.064c-.576.464-1.284.836-2.124 1.116s-1.692.42-2.556.42c-1.984 0-3.544-.56-4.68-1.68s-1.704-2.656-1.704-4.608c0-1.232.248-2.328.744-3.288a5.493 5.493 0 0 1 2.088-2.244c.896-.536 1.912-.804 3.048-.804 1.664 0 2.98.54 3.948 1.62s1.452 2.564 1.452 4.452zm-5.328-4.368c-.8 0-1.452.236-1.956.708s-.828 1.156-.972 2.052h5.64c-.096-.912-.372-1.6-.828-2.064s-1.084-.696-1.884-.696zm18.48 4.368h-8.352c.064 1.296.388 2.252.972 2.868s1.452.924 2.604.924c1.328 0 2.56-.432 3.696-1.296l.864 2.064c-.576.464-1.284.836-2.124 1.116s-1.692.42-2.556.42c-1.984 0-3.544-.56-4.68-1.68s-1.704-2.656-1.704-4.608c0-1.232.248-2.328.744-3.288a5.493 5.493 0 0 1 2.088-2.244c.896-.536 1.912-.804 3.048-.804 1.664 0 2.98.54 3.948 1.62s1.452 2.564 1.452 4.452zm-5.328-4.368c-.8 0-1.452.236-1.956.708s-.828 1.156-.972 2.052h5.64c-.096-.912-.372-1.6-.828-2.064s-1.084-.696-1.884-.696zm12.312 10.464c-2.192 0-3.936-.512-5.232-1.536l.84-2.112c1.296.96 2.776 1.44 4.44 1.44.72 0 1.276-.12 1.668-.36s.588-.576.588-1.008c0-.368-.136-.66-.408-.876s-.736-.404-1.392-.564l-2.016-.456c-2.208-.48-3.312-1.608-3.312-3.384 0-.736.208-1.388.624-1.956s1-1.012 1.752-1.332 1.624-.48 2.616-.48c.864 0 1.696.132 2.496.396s1.504.644 2.112 1.14l-.888 2.04c-1.216-.896-2.464-1.344-3.744-1.344-.688 0-1.224.128-1.608.384s-.576.608-.576 1.056c0 .352.116.632.348.84s.628.384 1.188.528l2.064.456c1.2.272 2.076.692 2.628 1.26s.828 1.308.828 2.22c0 1.12-.448 2.008-1.344 2.664s-2.12.984-3.672.984zm7.152-3.552h3.36v3.36h-3.36zm11.592-11.928c-1.296 0-1.944.712-1.944 2.136v1.032h2.712v2.256h-2.712v9.864h-3v-9.864h-2.304v-2.256h2.304v-1.176c0-1.44.364-2.548 1.092-3.324s1.772-1.164 3.132-1.164c.752 0 1.384.096 1.896.288v2.376a4.936 4.936 0 0 0 -1.176-.168zm9.6 2.88c.464 0 .864.064 1.2.192l-.024 2.736a4.171 4.171 0 0 0 -1.584-.312c-1.024 0-1.804.296-2.34.888s-.804 1.376-.804 2.352v6.552h-2.976v-8.688c0-1.28-.064-2.424-.192-3.432h2.808l.24 2.136c.304-.784.784-1.384 1.44-1.8s1.4-.624 2.232-.624z" fill="#0069cc"/><g fill-rule="nonzero"><path d="m0 0h64.508v21.81h-64.508z" fill="#fff"/><path d="m51.513 37.976c-.036-.015-.038-.054-.008-.14.038-.108.055-.117.2-.097.133.018.172.005.227-.074.106-.151.024-.26-.169-.224-.147.027-.15.026-.121-.088.09-.36.099-.34-.17-.393a1.595 1.595 0 0 1 -.863-.505c-.354-.394-.476-.792-.441-1.431.018-.326.046-.453.148-.68.315-.693 1.033-1.047 1.998-.984.21.014.475.05.59.08l.21.054.012.388.012.388h-.127c-.076 0-.128-.022-.128-.054 0-.109-.257-.36-.438-.43-.235-.09-.69-.07-.917.04-.521.253-.759.907-.6 1.654.073.347.195.58.427.819.22.226.443.317.775.318.353.002.599-.14.754-.432.105-.199.143-.223.245-.159.047.03.047.1.002.418l-.054.382-.191.066a2.693 2.693 0 0 1 -.538.091c-.328.024-.346.03-.346.124 0 .075.024.099.096.099.14 0 .271.108.302.25.036.163-.08.406-.233.485-.111.058-.543.08-.654.035zm-24.955-.177c-.363-.107-.676-.268-1.053-.543l-.325-.237-.503-.026c-.558-.028-.753-.09-1.114-.356-.796-.583-.824-2.069-.055-2.792.58-.544 1.6-.657 2.333-.257.991.539 1.096 2.13.196 2.963-.14.13-.276.235-.304.235-.085 0 .9.54 1.189.65.318.122.69.139.963.042.198-.07.232-.061.265.066.02.074-.015.106-.215.199-.316.146-.98.173-1.377.056zm-1.23-1.296c.703-.367.836-1.542.261-2.292-.533-.696-1.467-.59-1.818.205-.317.718.045 1.828.692 2.122.262.12.596.106.865-.035zm-22.042.435c-.193-.084-.404-.346-.738-.914-.513-.872-.61-1-.752-1h-.126l.001.472c.002.862.088 1.156.36 1.224.072.019.1.055.1.13v.104h-1.717v-.099c0-.075.032-.108.132-.137a.495.495 0 0 0 .22-.156c.086-.115.088-.157.088-1.747s-.002-1.633-.088-1.748a.495.495 0 0 0 -.22-.156c-.096-.027-.132-.062-.132-.13 0-.091.005-.092 1.065-.12 1.13-.028 1.378-.007 1.696.147.278.135.51.543.51.898.001.407-.302.867-.702 1.066l-.209.104.463.693c.544.815.714 1.033.875 1.116.15.078.165.247.024.284-.168.046-.72.025-.849-.031zm-1.05-2.338c.563-.156.753-.937.327-1.344a.765.765 0 0 0 -.684-.224l-.208.03v1.585h.2c.109 0 .274-.021.366-.047zm9.664 2.338c-.23-.082-.446-.228-.561-.379-.209-.273-.23-.417-.233-1.53-.003-1.162-.025-1.29-.238-1.389-.086-.04-.136-.093-.136-.146-.001-.081.027-.084.712-.084.711 0 .713 0 .713.094 0 .064-.025.095-.077.095-.042 0-.122.048-.178.108l-.102.108v1.14c0 1.072.006 1.149.088 1.305.127.244.383.37.71.35.354-.021.545-.147.685-.45.109-.232.11-.243.11-1.263.001-.914-.007-1.042-.073-1.142a.364.364 0 0 0 -.178-.14c-.065-.016-.104-.055-.104-.105 0-.074.038-.08.566-.08.527 0 .566.006.566.08 0 .05-.039.09-.104.105-.193.049-.208.139-.23 1.35l-.022 1.135-.127.247c-.149.291-.39.493-.7.585-.263.078-.876.081-1.087.006zm16.358 0a1.277 1.277 0 0 1 -.566-.385c-.198-.259-.226-.45-.228-1.546-.003-1.138-.026-1.268-.238-1.367-.086-.04-.136-.093-.137-.146 0-.081.027-.084.713-.084.704 0 .713 0 .713.091 0 .062-.03.096-.09.105-.05.007-.13.067-.179.132-.082.11-.089.18-.102 1.099-.016 1.13.016 1.367.207 1.563.346.354 1.066.255 1.27-.174.128-.271.16-.61.145-1.498-.017-.94-.045-1.057-.266-1.112-.066-.017-.105-.056-.105-.106 0-.074.04-.08.567-.08.526 0 .566.006.566.08 0 .047-.049.098-.123.13-.068.027-.137.081-.155.12-.018.038-.043.58-.055 1.205l-.025 1.135-.126.247c-.15.291-.39.493-.701.585-.262.078-.876.081-1.086.006zm13.276-.002c-.168-.073-.367-.321-.676-.842-.398-.672-.443-.733-.547-.733-.093 0-.095.007-.095.525 0 .627.053.804.25.843.1.02.128.048.128.125v.1h-1.426v-.1c0-.077.028-.105.128-.125.239-.048.255-.161.241-1.621l-.013-1.293-.101-.108c-.056-.06-.136-.108-.179-.108-.047 0-.076-.031-.076-.08 0-.07.042-.085.308-.11.169-.016.636-.022 1.038-.013.653.015.749.026.905.108.277.147.433.432.433.794 0 .344-.197.646-.555.85-.114.065-.188.13-.163.146.024.015.209.276.411.581.398.599.619.87.71.87.081 0 .074.194-.008.225-.119.046-.58.024-.713-.034zm-.775-1.973c.167-.086.33-.293.361-.457a.766.766 0 0 0 -.213-.64c-.148-.139-.292-.18-.54-.15l-.15.018v1.291h.211a.885.885 0 0 0 .33-.062zm18.67 1.966a1.63 1.63 0 0 1 -.246-.078c-.009-.01-.04-.198-.068-.418l-.051-.402h.118c.065 0 .118.016.118.035 0 .109.276.43.435.508.432.209.95.012.95-.36-.001-.245-.12-.39-.524-.644-.567-.356-.786-.543-.899-.77a1.215 1.215 0 0 1 -.048-.839c.057-.17.32-.424.542-.522.223-.099.922-.095 1.212.006l.22.076v.749h-.121c-.095 0-.128-.024-.148-.105-.044-.175-.269-.393-.457-.444-.503-.136-.907.38-.59.756.06.072.333.283.608.469.53.36.727.555.792.792.145.52-.095.978-.613 1.172-.278.104-.88.113-1.23.019zm-54.949-.089c0-.075.024-.097.102-.097.06 0 .138-.045.189-.11.084-.107.087-.159.087-1.43 0-.92-.015-1.345-.049-1.409-.062-.117-.162-.193-.255-.195-.05-.001-.074-.035-.074-.106v-.105h2.517v.886l-.11-.013c-.083-.01-.122-.049-.157-.156-.083-.25-.221-.315-.72-.333l-.44-.016v1.194l.338-.02c.368-.02.553-.11.578-.278.01-.066.043-.09.126-.09h.112v1.092h-.114c-.093 0-.115-.02-.115-.099 0-.187-.14-.256-.55-.272l-.373-.015v.589c0 .71.006.72.485.72.473 0 .719-.12.842-.41.062-.146.208-.188.252-.072.03.076-.089.569-.178.74l-.063.122-1.214-.01-1.215-.01v-.096zm3.23.013c0-.076.028-.105.124-.124.22-.044.231-.106.246-1.454.014-1.403-.004-1.53-.233-1.636-.095-.044-.135-.091-.136-.16l-.001-.1.954.018c1.032.019 1.116.035 1.396.27.307.26.387.774.179 1.156-.182.333-.496.51-.996.561l-.262.027-.065-.162-.065-.163.155-.022a.853.853 0 0 0 .524-.306c.064-.086.088-.177.085-.335-.005-.409-.235-.658-.635-.692l-.227-.018.013 1.4c.015 1.526.021 1.57.255 1.617.086.018.115.048.115.123v.1h-1.425v-.1zm6.962-.015c0-.065.025-.095.08-.095a.359.359 0 0 0 .178-.08l.099-.08.013-1.3c.014-1.455-.002-1.565-.243-1.656-.076-.029-.127-.078-.127-.123 0-.067.059-.075.64-.085 1.224-.02 1.48-.006 1.68.09.257.125.378.306.4.6.009.132.005.287-.01.344-.04.164-.236.365-.452.465l-.2.093.17.05c.404.122.661.545.608 1-.045.383-.21.598-.592.774-.2.093-.254.097-1.226.097h-1.018zm1.85-.316c.214-.143.299-.337.275-.63-.036-.44-.343-.7-.826-.7h-.256l.013.632c.013.607.018.637.113.713.145.117.495.11.681-.015zm-.173-1.743c.257-.098.393-.3.366-.544-.036-.33-.3-.512-.741-.512h-.253v1.133l.22-.003c.121 0 .305-.034.408-.074zm1.72 2.061c0-.067.03-.095.112-.105a.346.346 0 0 0 .2-.131c.084-.114.087-.164.087-1.405 0-1.031-.012-1.308-.059-1.392-.074-.13-.17-.206-.266-.208-.048-.001-.073-.034-.073-.096 0-.094 0-.094.755-.094s.755 0 .755.094c0 .066-.025.095-.082.095-.045 0-.134.045-.199.1l-.118.102-.012 1.323-.012 1.322.107.07c.085.056.176.067.436.052.4-.023.586-.122.697-.368.074-.164.153-.204.263-.134.042.026.035.104-.032.364a2.094 2.094 0 0 1 -.149.429l-.065.099-1.172-.013-1.172-.012v-.092zm2.937.013c0-.077.028-.105.127-.125.232-.046.25-.16.25-1.567 0-1.168-.005-1.258-.082-1.384a.39.39 0 0 0 -.19-.162c-.071-.018-.105-.055-.105-.116 0-.089.012-.09.713-.09.7 0 .713.001.713.09 0 .06-.034.098-.105.116a.364.364 0 0 0 -.178.139c-.066.101-.074.24-.074 1.393 0 1.425.017 1.539.237 1.583.091.018.12.047.12.123v.1h-1.426zm10.024-.007c0-.07.032-.099.128-.118.231-.046.25-.16.25-1.571 0-1.236-.002-1.255-.096-1.396-.053-.078-.138-.149-.189-.156-.067-.01-.093-.042-.093-.115v-.102h2.475v.44c0 .437-.001.44-.1.44-.082 0-.106-.027-.128-.144-.047-.25-.218-.334-.72-.352l-.424-.016-.027.2c-.015.109-.027.378-.027.597v.398l.356-.022c.393-.024.549-.093.591-.262.019-.075.055-.105.127-.105h.1v1.092h-.105c-.071 0-.105-.024-.106-.074-.004-.207-.203-.304-.63-.304h-.341l.014.59c.018.716.013.71.517.71.445 0 .676-.106.797-.367.06-.13.107-.178.176-.178.05 0 .105.02.12.046.04.062-.147.744-.223.82-.05.05-.263.058-1.251.05l-1.19-.008v-.092zm4.614.01c0-.07.039-.115.133-.158a.66.66 0 0 0 .22-.178c.085-.115.087-.166.087-1.699 0-1.777-.003-1.799-.293-1.894-.114-.038-.147-.072-.147-.15v-.102h2.936v1.048h-.126c-.103 0-.126-.017-.126-.094 0-.154-.158-.367-.326-.44-.1-.042-.329-.073-.628-.086l-.472-.02v1.439l.346-.002c.461-.003.62-.06.717-.26.062-.128.099-.157.199-.157h.122v1.263l-.135-.013c-.092-.009-.141-.04-.157-.097-.066-.246-.323-.356-.833-.356h-.268l.017.744c.02.85.055.974.306 1.065.11.04.147.077.147.15v.096h-1.72v-.097zm6.71-.008c0-.077.023-.105.084-.105.128 0 .275-.261.594-1.058.427-1.067.832-2.153.832-2.23 0-.052.044-.067.2-.066h.199l.566 1.45c.614 1.575.727 1.82.87 1.883a.15.15 0 0 1 .095.136c0 .095 0 .095-.713.095h-.713v-.1c0-.077.028-.105.125-.124.18-.036.19-.158.05-.573l-.12-.357h-.991l-.1.294c-.125.37-.118.623.019.643.068.01.094.041.094.115v.102h-1.09v-.105zm1.93-1.469c0-.063-.308-.9-.332-.9-.015 0-.058.08-.095.178l-.175.46-.107.284h.354c.195 0 .355-.01.355-.022zm1.803 1.474c0-.075.029-.105.116-.123.227-.046.237-.106.255-1.477.018-1.415 0-1.534-.244-1.626-.076-.029-.127-.078-.127-.123 0-.067.048-.074.472-.074h.472l.273.345c.15.19.537.657.86 1.039.323.381.63.75.683.819l.096.125-.013-.948c-.015-1.032-.039-1.139-.264-1.195-.065-.017-.104-.056-.104-.106 0-.074.039-.08.566-.08.532 0 .567.006.567.082 0 .05-.034.086-.09.094-.05.007-.13.067-.179.132-.085.114-.088.17-.1 1.667l-.014 1.549h-.183c-.165 0-.196-.017-.321-.178-.111-.143-1.888-2.344-1.956-2.423-.01-.011-.01.451 0 1.028.021 1.17.047 1.31.247 1.35.093.018.121.047.121.123v.1h-1.132v-.1zm7.34-.005c0-.062.024-.105.06-.105.082 0 .238-.197.349-.442.154-.341.872-2.194.995-2.57l.115-.347.187.012.188.013.556 1.426c.306.784.59 1.492.631 1.573.094.184.23.335.303.335.031 0 .056.046.056.105v.105h-1.426v-.105c0-.073.023-.105.075-.105.203 0 .222-.177.068-.64l-.108-.324h-.985l-.089.283c-.169.534-.16.681.037.681.056 0 .079.03.079.105v.105h-1.09v-.105zm1.78-1.877c-.08-.236-.155-.458-.17-.493-.014-.037-.098.123-.207.399-.101.254-.184.475-.185.493 0 .017.158.031.352.031h.354zm1.911 1.877c0-.082.022-.105.099-.105.054 0 .134-.04.178-.088.074-.082.08-.179.092-1.395.007-.718.002-1.348-.01-1.4-.03-.119-.185-.262-.283-.262-.05 0-.076-.032-.076-.095 0-.094.002-.094.713-.094.686 0 .713.003.713.084 0 .052-.045.104-.121.138a.352.352 0 0 0 -.165.167c-.06.161-.096 1.47-.057 2.177.026.493.045.61.11.681.043.048.113.087.156.087.055 0 .077.031.077.105v.105h-1.424v-.105zm4.698-.007c0-.076.023-.098.102-.098.06 0 .137-.045.188-.11.084-.107.087-.159.087-1.43 0-.92-.014-1.345-.048-1.409-.063-.117-.162-.193-.256-.195-.05-.001-.073-.035-.073-.106v-.105h2.516v.886l-.11-.013c-.083-.01-.121-.049-.157-.156-.083-.25-.22-.315-.72-.333l-.439-.016v1.184l.263-.003c.363-.003.54-.071.618-.238.046-.099.091-.135.168-.136h.105v1.09h-.115c-.094 0-.116-.02-.116-.099 0-.187-.14-.256-.55-.272l-.373-.015v.589c0 .71.007.72.486.72.472 0 .718-.12.842-.41.062-.146.207-.188.251-.072.03.076-.088.569-.177.74l-.063.122-1.215-.01-1.214-.008zm-56.2-3.827-.103-.08.249-.38c.137-.21.276-.382.309-.382.142-.001.593.096.582.125-.023.06-.85.797-.893.796a.403.403 0 0 1 -.145-.08zm-5.33-2.898h63.879v.378h-63.878v-.378zm24.314-.856c-.336-.12-.525-.432-.463-.768.04-.226.169-.384.395-.488l.198-.092-.12-.07c-.069-.039-.121-.104-.121-.151 0-.076.308-.383.384-.383.018 0-.009-.07-.059-.155-.215-.364-.043-.89.358-1.097.217-.111.29-.116 1.05-.067.438.028.454.032.431.118a.776.776 0 0 0 -.024.121c0 .017-.075.032-.165.032h-.164l.023.243c.048.532-.33.897-.941.907-.318.005-.471.072-.347.152.034.022.239.097.455.167.694.225.823.338.793.699-.03.375-.333.702-.769.833-.25.076-.701.075-.914-.001zm.933-.259c.341-.17.489-.493.302-.662-.125-.113-.67-.287-.811-.26-.288.058-.556.409-.507.662.069.347.579.478 1.016.26zm.113-1.898c.255-.156.354-.598.182-.817-.235-.299-.683.034-.687.512-.002.148.02.2.116.283.141.122.218.126.389.022zm1.59.973c-.184-.037-.283-.16-.304-.378-.053-.558.416-1.377.942-1.64.273-.138.812-.152 1.171-.03.032.01.009.154-.074.448-.163.577-.256 1.155-.202 1.254.035.066.06.07.17.032.103-.036.139-.034.168.012.06.096.023.132-.216.214-.323.11-.47.089-.519-.075l-.038-.13-.172.096c-.29.162-.686.246-.926.197zm.725-.377c.122-.058.25-.147.283-.198.056-.085.227-.715.294-1.081.027-.15.024-.155-.129-.197-.282-.078-.565.127-.79.573-.237.467-.297.884-.143.992.105.073.169.062.485-.089zm19.859.365c-.188-.045-.255-.11-.306-.3-.078-.29.102-.839.41-1.244.367-.486.776-.65 1.379-.553.159.025.301.059.316.075.016.016-.037.284-.117.595s-.15.689-.154.839l-.008.273.178-.008c.16-.008.179.001.179.087 0 .08-.04.108-.242.17-.334.1-.489.079-.506-.071-.007-.064-.02-.116-.03-.116s-.119.046-.244.1c-.2.09-.61.201-.69.19a3.747 3.747 0 0 1 -.165-.037zm.702-.359c.104-.052.22-.13.257-.172.093-.107.26-.654.346-1.136.022-.128.016-.137-.143-.18-.136-.036-.195-.032-.314.025-.266.126-.53.555-.667 1.083-.132.505.032.625.521.38zm-45.487.264c-.012-.052.062-.442.166-.867.205-.838.203-.906-.021-.842-.111.032-.124.026-.124-.06 0-.08.04-.106.242-.165.132-.04.307-.075.387-.08.139-.01.148-.002.16.13.008.078-.064.461-.16.853-.096.39-.163.74-.15.776.02.052.065.059.217.036.183-.027.191-.024.178.068-.01.075-.063.11-.245.168-.126.04-.32.073-.429.075-.172.002-.201-.01-.22-.092zm1.613.017-.096-.078.325-1.427c.179-.785.319-1.482.311-1.548-.014-.124-.03-.13-.192-.08-.08.024-.094.013-.094-.078 0-.122.147-.18.556-.222.234-.024.24-.022.24.077 0 .056-.065.4-.146.767-.08.366-.147.69-.147.72 0 .04.046.034.182-.027.467-.206.874-.195 1.02.028.138.209.067.75-.156 1.192-.115.23-.46.59-.647.675-.245.111-1.019.112-1.156 0zm1.061-.266c.21-.15.445-.652.51-1.096.067-.445-.227-.534-.697-.21a.602.602 0 0 0 -.22.28c-.076.205-.232.875-.232.995 0 .176.406.196.639.03zm1.602.214c-.114-.118-.123-.152-.12-.43.005-.707.408-1.341.962-1.516.277-.087.52-.057.683.083.094.081.113.132.113.303 0 .432-.394.76-.96.8-.164.01-.312.041-.329.067-.047.07-.038.313.016.416.105.199.255.203.615.019.224-.115.27-.126.303-.073.074.117.04.154-.286.307-.272.127-.373.153-.6.153-.25 0-.284-.01-.397-.129zm.751-1.007c.357-.099.592-.48.41-.663-.116-.115-.223-.112-.37.013-.119.1-.31.414-.367.601-.024.08-.013.095.069.094.053 0 .17-.02.258-.045zm1.412 1.122c0-.007.075-.332.167-.723.092-.39.168-.793.168-.894v-.183l-.168.027c-.148.023-.167.017-.167-.057 0-.092.135-.163.476-.248.233-.058.32-.018.32.146v.098l.15-.1c.261-.179.421-.211.611-.126.091.042.16.095.153.12-.114.402-.179.528-.271.528-.083 0-.097-.021-.097-.142 0-.305-.266-.307-.458-.003-.12.189-.244.619-.343 1.187-.029.17-.073.315-.098.322-.074.021-.443.062-.443.048zm2.103-.04c-.046-.056-.02-.207.22-1.299l.099-.45h-.142c-.078 0-.141-.011-.141-.024 0-.066.094-.186.145-.186.102 0 .298-.199.38-.386.093-.208.13-.242.266-.243.09 0 .097.013.073.136a9.33 9.33 0 0 0 -.053.294l-.025.157h.194c.198 0 .227.032.169.185-.019.048-.082.067-.227.067-.233 0-.194-.084-.38.834-.137.675-.128.737.1.672.189-.054.204-.05.189.056-.01.071-.064.111-.223.164-.257.086-.581.097-.644.022zm1.692-.055c-.307-.331-.084-1.273.404-1.712.2-.18.51-.318.715-.318.129 0 .413.132.455.212.068.126.047.428-.04.57-.176.29-.557.476-.973.476h-.246v.222c0 .43.179.505.648.273.15-.074.28-.125.29-.115s.025.056.033.103c.012.067-.047.115-.295.24-.27.137-.348.158-.6.158-.258 0-.3-.012-.39-.109zm.739-1.03c.221-.075.377-.202.444-.363.056-.135.055-.156-.02-.256-.115-.155-.228-.156-.402-.003-.134.118-.362.512-.362.626 0 .059.161.057.34-.004zm15.752 1.111c-.06-.06-.021-.307.18-1.162.274-1.164.421-1.85.421-1.96 0-.08-.017-.088-.147-.067-.133.022-.147.015-.147-.076 0-.105.105-.152.522-.232.215-.041.275-.014.275.125 0 .063-.141.726-.314 1.474s-.314 1.424-.315 1.502v.142l.192-.026c.18-.025.19-.021.178.066-.01.072-.066.109-.244.165-.236.073-.551.1-.601.05zm1.58-.023c-.05-.083-.021-.265.157-.966.093-.366.163-.697.154-.736-.017-.075-.027-.077-.21-.034-.097.023-.115.014-.115-.06 0-.1.179-.189.505-.25.233-.045.334-.022.334.075 0 .036-.086.422-.19.857-.105.436-.178.812-.163.837.017.027.1.034.214.019.174-.024.185-.02.173.067-.01.072-.066.109-.244.165-.273.085-.57.098-.614.026zm1.55-.019c-.015-.038-.004-.175.025-.304.094-.423.298-1.39.298-1.41 0-.01-.058-.02-.129-.02-.182 0-.148-.117.066-.227.128-.066.201-.15.307-.35.12-.226.154-.261.256-.261h.119l-.056.262c-.031.144-.057.276-.058.293-.001.018.093.032.208.032.22 0 .224.004.183.157-.022.083-.052.095-.242.095h-.217l-.141.707c-.078.39-.13.738-.116.774.02.053.052.058.164.026.192-.055.201-.052.201.06 0 .085-.034.109-.244.168-.325.09-.589.09-.624-.002zm1.727-.025c-.104-.09-.122-.139-.137-.374-.034-.528.208-1.124.567-1.398.396-.302.828-.342 1.072-.1.112.114.122.145.104.335-.04.415-.438.717-.983.745-.34.017-.376.058-.31.353.073.322.205.355.625.156.278-.131.342-.131.342 0 0 .135-.503.35-.863.37-.267.015-.308.006-.417-.087zm.902-1.12c.262-.134.374-.431.225-.596-.187-.207-.534.064-.706.553l-.064.179.19-.026a1.34 1.34 0 0 0 .355-.11zm10.025 1.2c0-.007.076-.331.168-.722.092-.39.167-.793.167-.894v-.183l-.167.027c-.148.023-.168.017-.168-.056 0-.102.074-.144.414-.232.295-.076.383-.047.383.129v.098l.15-.1c.26-.178.421-.211.61-.126.09.04.163.085.163.099 0 .013-.042.143-.094.287-.078.216-.11.262-.189.262-.08 0-.094-.023-.094-.142 0-.286-.247-.308-.431-.037-.14.206-.212.43-.326 1.018-.052.265-.106.494-.12.508-.025.026-.466.086-.466.064zm4.838-.05c-.035-.09.005-.349.167-1.088l.138-.63-.118-.013c-.14-.015-.164-.155-.033-.196.147-.047.317-.22.4-.407.092-.208.128-.242.265-.243.09 0 .097.013.072.136a9.331 9.331 0 0 0 -.052.294l-.025.157h.194c.198 0 .227.032.168.185-.018.048-.081.067-.226.067-.233 0-.195-.084-.38.834-.137.675-.128.737.1.672.189-.054.204-.05.189.056-.01.071-.064.111-.223.164-.28.094-.603.1-.636.011zm1.692-.043c-.318-.318-.098-1.269.396-1.713.2-.18.51-.318.715-.318.128 0 .413.132.455.212.068.126.047.428-.04.57-.177.29-.557.476-.978.476h-.251l.018.258c.03.408.18.464.64.237.15-.074.28-.125.29-.115s.025.056.033.103c.012.067-.047.115-.295.24-.267.136-.35.158-.592.158-.248 0-.296-.013-.391-.108zm.88-1.094c.293-.145.424-.483.241-.622-.121-.092-.21-.076-.37.065-.136.119-.36.512-.36.63 0 .069.29.026.488-.073zm1.272 1.166c0-.018.077-.358.17-.756.094-.398.165-.784.158-.857-.012-.125-.023-.133-.166-.125-.12.007-.157-.008-.174-.072-.017-.065.02-.095.195-.16.119-.044.287-.093.373-.108.163-.03.16-.032.262.214.002.005.114-.047.249-.115.289-.146.337-.15.513-.043l.133.081-.091.275c-.076.229-.106.274-.185.275-.08 0-.095-.022-.095-.137 0-.366-.347-.294-.538.111-.048.102-.142.453-.21.78s-.13.6-.139.607c-.037.031-.455.059-.455.03zm2.097 0c0-.019.068-.297.15-.618.09-.35.153-.7.157-.877l.008-.293-.152.011c-.12.01-.157-.005-.173-.067-.017-.065.019-.091.194-.145.382-.116.471-.124.545-.05a.276.276 0 0 1 .068.17c0 .056.008.102.018.102.009 0 .134-.056.276-.123.338-.16.786-.244.92-.172.087.046.094.07.068.263-.015.116-.083.44-.15.72-.068.278-.128.573-.135.654-.011.147-.011.147.165.143.121-.002.185.016.201.06.033.086-.006.114-.27.191-.298.088-.572.088-.605.002-.014-.036.05-.402.142-.813.184-.824.195-.917.107-.951-.09-.035-.411.123-.602.296-.158.142-.178.186-.275.602-.057.247-.118.54-.134.651-.016.112-.051.21-.077.217-.127.038-.446.057-.446.027zm2.877-.032c-.014-.038.06-.427.167-.864.106-.437.182-.82.17-.852-.016-.043-.054-.048-.16-.017-.076.022-.143.04-.149.04s-.01-.044-.01-.098c0-.08.037-.108.22-.163.497-.15.65-.125.6.1l-.192.808c-.094.39-.16.737-.147.77.018.047.069.055.214.036.18-.025.19-.021.178.066-.026.18-.829.336-.89.174zm1.583 0c-.028-.073.006-.273.17-1.001.18-.806.178-.734.026-.734-.184 0-.153-.116.06-.228.124-.065.2-.151.298-.339.108-.204.154-.254.25-.265.127-.015.128-.005.038.444l-.027.136h.22c.182 0 .214.011.193.066a.425.425 0 0 0 -.025.126c0 .044-.06.06-.226.06h-.225l-.139.705c-.076.388-.126.736-.112.774.021.055.051.06.164.028.193-.055.202-.052.202.06 0 .085-.034.109-.244.168-.321.09-.589.09-.623 0zm1.724-.029c-.12-.103-.123-.114-.123-.52 0-.396.008-.43.159-.736.185-.374.398-.577.74-.705.595-.223 1.022.156.759.672-.15.292-.547.503-.95.504-.244.001-.26.008-.286.112-.035.14.009.35.093.445.095.108.259.09.552-.06.218-.113.266-.125.298-.074.075.117.038.162-.243.298-.216.104-.353.14-.58.153-.269.015-.308.007-.42-.089zm.913-1.13c.284-.158.378-.472.182-.6a.22.22 0 0 0 -.22-.03c-.148.05-.36.324-.447.58l-.067.198.192-.027c.106-.014.268-.068.36-.12zm-63.419 1.113c.008-.04.052-.08.098-.089.124-.023.233-.133.318-.323.113-.252.46-2.003.47-2.366.008-.31.007-.314-.126-.398-.26-.166-.191-.191.533-.191.573 0 .67.01.67.064 0 .037-.051.074-.126.09-.268.053-.37.317-.622 1.616-.236 1.214-.233 1.19-.127 1.296.08.08.124.088.45.071.44-.022.6-.096.753-.35.121-.2.126-.204.213-.149.048.03.046.07-.012.24a2.58 2.58 0 0 1 -.163.372l-.095.168-1.124.011c-1.052.01-1.123.007-1.11-.062zm21.215.013c0-.033.071-.094.158-.137a.526.526 0 0 0 .249-.265c.12-.247.483-2.033.49-2.41.005-.285.002-.294-.13-.378-.28-.179-.217-.19 1.06-.19 1.173 0 1.198.002 1.173.082a4.86 4.86 0 0 0 -.079.367c-.044.242-.066.287-.144.298-.075.011-.092-.007-.092-.097 0-.278-.165-.357-.753-.357h-.406l-.116.535c-.064.294-.125.568-.137.608-.018.066.018.074.35.073.418 0 .54-.045.663-.24.11-.173.252-.187.219-.021l-.098.503c-.058.306-.089.388-.144.388-.045 0-.08-.046-.096-.124a.285.285 0 0 0 -.12-.175c-.101-.054-.76-.078-.81-.03-.028.029-.151.633-.206 1.008-.026.18-.02.203.08.267.086.057.178.067.473.052.438-.022.593-.092.773-.347.078-.11.152-.174.187-.16.081.03.072.106-.052.401-.184.44-.079.408-1.366.408-.943 0-1.126-.01-1.126-.06zm21.307 0c0-.033.062-.081.137-.107.264-.09.352-.33.617-1.687.228-1.169.222-1.356-.043-1.44-.047-.015-.079-.05-.07-.076.012-.036.34-.052 1.18-.06 1.144-.011 1.163-.01 1.137.072a4.85 4.85 0 0 0 -.079.367c-.044.242-.066.287-.144.298-.078.012-.092-.006-.092-.115 0-.265-.205-.352-.774-.33l-.332.012-.117.546c-.064.3-.117.569-.118.597-.002.078.639.07.792-.008a.432.432 0 0 0 .17-.189c.033-.078.084-.128.132-.128.098 0 .098-.03-.011.535-.077.396-.104.472-.169.472-.046 0-.077-.03-.077-.077 0-.195-.392-.34-.754-.28l-.16.027-.085.47c-.15.826-.144.9.084.995.25.104.106.144-.567.156-.55.01-.657.001-.657-.05zm-24.603-.902c-.188-.085-.353-.348-.353-.563 0-.334.295-.632.623-.63.393.001.635.24.636.628 0 .49-.45.772-.906.565zm21.348.02a.793.793 0 0 1 -.25-.213c-.098-.128-.12-.197-.117-.375.006-.385.245-.622.63-.622.19 0 .253.02.383.125.29.233.335.624.104.898a.629.629 0 0 1 -.75.187zm-25.076-1.49c-.083-.092-.089-.082.388-.625l.16-.183.24.053c.131.03.239.066.239.082 0 .028-.898.755-.933.755a.348.348 0 0 1 -.094-.083zm21.338 0-.093-.076.317-.361c.174-.199.332-.361.352-.361.102 0 .462.103.452.13s-.792.655-.892.717c-.024.014-.085-.008-.136-.05zm27.882 0-.1-.077.327-.36c.18-.199.342-.361.36-.361.084 0 .46.1.458.122-.002.023-.794.662-.896.724-.026.015-.093-.006-.149-.048zm-59.858-.216c-.17-.17-.004-.499.253-.499.179 0 .272.094.272.274 0 .28-.33.421-.525.225zm28.305.03c-.103-.078-.097-.337.01-.445.174-.173.504-.06.504.172 0 .252-.319.421-.514.273zm27.856-.03c-.173-.173-.003-.499.261-.499s.376.294.186.485c-.13.129-.326.135-.447.014zm-36.745-1.2c-.065-.07-.05-.097.254-.427l.323-.35.24.053c.132.03.239.065.238.078-.004.04-.846.686-.92.705-.037.01-.098-.017-.135-.059z" fill="#000"/><path d="m36.914 21.81.098-.253c.165-.457.337-.806.586-1.189.262-.405.841-1.002 1.082-1.117.296-.14.664-.19 1.118-.15.391.034 1.591.23 2.075.34.369.082.909.09 1.163.016.489-.142.779-.417.916-.87.106-.347.105-.663-.002-.873-.145-.283-.12-.356.23-.691.173-.166.315-.319.315-.34.002-.112-.238-.562-.3-.563a.357.357 0 0 1 -.166-.08l-.097-.079.208-.106c.284-.145.495-.37.495-.53 0-.069-.06-.237-.133-.375-.14-.263-.178-.515-.1-.663.053-.097.143-.138.585-.266.372-.108.506-.216.56-.453.044-.203.022-.333-.1-.576-.098-.198-.743-1.186-.93-1.427-.253-.324-.56-.884-.652-1.186-.09-.297-.09-.313-.024-.697.138-.812.057-1.485-.336-2.797-.293-.975-.371-1.211-.463-1.394-.165-.33-.143-.407.197-.685.162-.133.313-.275.335-.316.103-.192-.012-.562-.206-.666-.124-.066-.192-.02-.317.21-.095.174-.132.207-.234.207-.165 0-.194-.07-.089-.212.123-.166.114-.193-.08-.22-.144-.018-.22-.075-.534-.394-.42-.429-.703-.626-1.266-.885-.259-.119-.348-.175-.254-.158.081.014.366.037.635.05.778.04.967-.064 1.148-.624.123-.38.182-.557-.1-.823l-1.037-.975h23.268v21.81z" fill="#e2011c"/><path d="m17.072 21.81c-.169-.018-.315-.025-.325-.035-.018-.018.173-.14 1.046-.673.28-.17.395-.262.357-.283-.032-.017-.277-.044-.544-.06-.397-.023-.512-.017-.629.037a7.104 7.104 0 0 1 -.698.212c-.758.199-1.013.335-1.256.672l-.09.13h-14.933v-21.81h29.626l-.574.375c-.316.157-.684.375-.816.484-.451.371-1.058 1.216-1.21 1.682-.055.172-.106.236-.277.353-.26.178-.573.517-.831.904-.351.524-1.02 1.707-1.152 2.035-.204.508-.186.896.115 2.416.133.67.276 1.35.32 1.511.042.162.089.436.103.609.026.31.046.376.227.755.05.104.09.222.09.262s.037.097.084.126a.2.2 0 0 1 .084.158c0 .073.095.21.305.441.48.527.827 1.021.827 1.178 0 .128-.188.161-.492.086-.354-.087-.644-.276-1.091-.712-.19-.185-.346-.31-.346-.276 0 .033.13.205.29.382.317.353.367.45.298.578-.06.112-.206.145-.404.09-.227-.063-.361.025-.323.213.023.115.016.129-.049.104a3.263 3.263 0 0 0 -.664-.134c-.233-.025-.25-.035-.391-.231-.107-.15-.19-.218-.302-.25-.416-.116-1.451-.296-2.146-.373-1.222-.134-1.516-.145-2.102-.075-.45.053-.571.085-.818.21-.435.222-1.19.916-1.19 1.095 0 .084.166.054.356-.064.577-.357 2.553-.862 3.523-.9.48-.018.454.005-.122.109-.16.028-.537.125-.839.215s-.823.227-1.157.307c-.335.079-.712.18-.839.226l-.23.083.356.004c1.816.02 3.887.597 4.73 1.317.362.31.495.348 1.029.292.73-.077 1.677-.426 2.092-.772.18-.15.328-.21.328-.132 0 .137-.24.874-.343 1.057-.114.204-.121.233-.061.277.037.027.056.06.043.073s.016.036.064.05c.138.045.103.087-.117.143-.214.055-.383.151-.383.218 0 .022.03.04.065.04.108 0 .027.075-.113.106-.097.021-.116.038-.073.065.042.027.043.037.005.038-.028 0-.052.043-.052.095 0 .065-.04.112-.126.15-.21.094-.151.144.136.117.145-.014.234-.014.2 0-.035.014-.27.12-.525.237-.253.117-.584.256-.734.309-.17.06-.278.122-.287.166-.014.07.064.068.263-.008.036-.014.066-.01.065.01 0 .02-.437.273-.97.561-.534.289-1.033.586-1.11.661-.076.075-.174.137-.217.137-.044 0-.1.047-.128.107-.081.179-.064.2.13.167.289-.05.42-.047.44.009.01.03-.017.052-.064.052a.195.195 0 0 0 -.133.061.284.284 0 0 1 -.162.073c-.071.009-.142.061-.196.147-.046.073-.122.143-.168.155s.02.014.147.005c1.886-.14 2.238-.21 2.999-.597a7.227 7.227 0 0 0 1.802-1.308c.137-.141.265-.256.283-.256.065 0 .03.235-.067.442-.166.358-.516.688-1.234 1.164-.362.241-.753.468-.868.504-.36.113-.942.234-1.552.323-1.987.287-2.748.505-3.5 1.003-.127.083-.26.146-.295.14-.036-.006-.13.046-.211.114-.227.194-.063.161.407-.08.481-.249.707-.288.327-.058-.465.283-.82.46-1.167.46h-1.866zm-2.468-2.433a6.85 6.85 0 0 0 .554-.31c.23-.14.502-.292.606-.34l.65-.293c.532-.24 1.313-.467 1.358-.394.015.026.132.054.258.063.177.012.208.023.135.049-.051.018-.094.05-.094.07 0 .076.393.053.558-.032.065-.034.211-.072.325-.086.142-.016.208-.043.208-.085 0-.047.036-.055.164-.033.176.03.555-.042 1.576-.298.692-.174 1.215-.349 1.675-.559l.333-.152-.333-.214c-.811-.52-1.626-.84-3.415-1.338-.312-.087-.585-.177-.609-.2-.027-.028-.013-.032.042-.012.179.064.315.077.315.029 0-.062-.135-.113-.4-.149-.243-.033-.4-.106-.231-.107.26-.001-.188-.167-.69-.254-.372-.065-.394-.079-.238-.154.135-.066.28-.314.242-.414-.032-.084-.073-.076-.274.06a2.81 2.81 0 0 0 -.943 1.131c-.114.254-.075.277.512.302.48.02.488.023.365.089a1.16 1.16 0 0 1 -.308.095c-.341.053-.531.215-.362.31.05.028.03.051-.093.11-.138.066-.148.08-.081.117a.627.627 0 0 0 .268.027c.147-.011.214.004.285.068l.093.082-.186.118a.858.858 0 0 0 -.258.253c-.039.074-.18.25-.312.391-.133.141-.241.288-.241.325s-.194.222-.43.412c-.636.509-.912.789-.912.923a.21.21 0 0 1 -.1.177c-.198.13-.301.28-.193.28a.786.786 0 0 0 .18-.057zm4.906-.49c.157-.021.34-.07.405-.109l.118-.07-.202-.1-.202-.102-.202.082c-.112.045-.265.106-.342.135-.31.117-.35.275-.06.232.11-.017.328-.047.485-.068zm-7.101-1.909c.935-.978 1.594-1.558 2.431-2.138.285-.198.485-.312.495-.282.027.082.15.058.348-.068.228-.145.342-.292.626-.806.296-.533.407-.666.833-.995.2-.153.493-.383.653-.51.23-.182.285-.21.266-.139-.015.056-.005.092.026.092.095 0 .544-.192.56-.24.025-.074-.431-.15-.769-.129-.259.017-.35.047-.672.22-.755.409-1.3.849-2.343 1.89-.75.75-1.34 1.253-1.639 1.395-.097.047-.17.144-.288.383-.23.465-.639 1.133-1.027 1.676-.367.512-.446.69-.16.361.097-.113.395-.432.66-.71zm9.353 4.592c1.123-.234 1.246-.25 2.034-.285.885-.04.998-.062 1.53-.312.17-.08.237-.095.26-.057.042.065.33-.092.895-.488.23-.161.556-.368.724-.46.254-.136.331-.16.453-.137.13.024.168.009.335-.138.46-.405.853-.592 1.245-.594.117 0 .158.017.158.067 0 .043.023.059.062.044.117-.045.064.006-.236.23-.348.257-.314.335.04.09.342-.238.343-.238.343-.142 0 .055-.129.192-.367.39-.541.453-.925.827-1.508 1.472l-.523.56h-6.64zm.01-8.533a.152.152 0 0 1 .147 0c.04.025.008.046-.073.046-.08 0-.114-.02-.073-.046z" fill="#003189"/><path d="m41.338 11.43c-.183-.028-.089-.096.133-.096s.34-.085.34-.247c0-.076-.017-.089-.088-.066-.061.02-.105.003-.145-.055-.038-.054-.129-.092-.263-.11-.24-.031-.627-.262-.557-.332.024-.024.147-.052.274-.062.218-.018.233-.027.277-.161.033-.1.08-.15.159-.168a.588.588 0 0 0 .217-.123c.057-.054.246-.19.42-.302.29-.19.47-.393.406-.457-.068-.068-.698-.142-.994-.117-.344.03-.937.155-1.185.25-.254.098-.18.013.17-.195.472-.28 1.38-.54 1.883-.54.195 0 .847.153.925.218.152.126-.014.57-.296.79l-.118.093.097.103.097.103-.1.08a.352.352 0 0 1 -.165.081c-.037 0-.128.06-.202.131-.115.111-.13.147-.096.234a.222.222 0 0 1 -.008.189c-.028.052-.035.172-.018.31.035.278-.015.378-.22.435-.15.042-.703.05-.943.014z" fill="#7f7f7f"/></g></g></svg>