<svg viewBox="0 0 360 34" xmlns="http://www.w3.org/2000/svg"><g fill="#e0141a"><path d="m63.9 24.5v-9.5l-4.7 7.8h-1.6l-4.6-7.6v9.3h-3.4v-15.8h3l5.9 9.8 5.8-9.8h3v15.8z"/><path d="m71.3 15.1h11v2.8h-7.3v3.7h8.6v2.9h-12.3"/><path d="m71.3 8.7h11.9v2.9h-11.9"/><path d="m85.4 22.9 1.2-2.8c1.3 1 3.3 1.6 5.2 1.6 2.2 0 3-.7 3-1.7 0-3-9.2-.9-9.2-6.8 0-2.7 2.2-4.9 6.7-4.9 2 0 4 .5 5.5 1.4l-1.1 2.8c-1.5-.8-3-1.2-4.4-1.2-2.2 0-3 .8-3 1.8 0 2.9 9.2.9 9.2 6.7 0 2.6-2.2 4.9-6.7 4.9-2.5.1-5-.7-6.4-1.8z"/><path d="m110.9 8.7h7.2c5.2 0 8.7 3.1 8.7 7.9s-3.5 7.9-8.7 7.9h-7.2zm7 12.8c3.1 0 5.2-1.9 5.2-4.9s-2.1-4.9-5.2-4.9h-3.3v9.8z"/><path d="m129.8 15.1h11v2.8h-7.3v3.7h8.6v2.9h-12.2"/><path d="m129.8 8.7h11.9v2.9h-11.9"/><path d="m159.6 24.5v-9.5l-4.7 7.8h-1.6l-4.6-7.6v9.3h-3.4v-15.8h3l5.9 9.8 5.8-9.8h3v15.8z"/><path d="m177.4 21.1h-7.4l-1.4 3.4h-3.7l7-15.8h3.6l7.1 15.8h-3.8zm-1.2-2.8-2.5-6.1-2.5 6.1z"/><path d="m194.6 24.5-3-4.4h-.2-3.2v4.4h-3.7v-15.8h6.8c4.2 0 6.9 2.2 6.9 5.7 0 2.4-1.2 4.1-3.3 5l3.5 5.1zm-3.5-12.8h-3v5.5h3c2.2 0 3.4-1 3.4-2.8 0-1.7-1.1-2.7-3.4-2.7z"/><path d="m200.3 16.6c0-4.8 3.7-8.2 8.6-8.2 2.7 0 5 1 6.5 2.8l-2.3 2.2c-1.1-1.2-2.4-1.9-4-1.9-3 0-5.1 2.1-5.1 5.1s2.1 5.1 5.1 5.1c1.6 0 2.9-.6 4-1.9l2.3 2.2c-1.5 1.8-3.8 2.8-6.5 2.8-4.9 0-8.6-3.4-8.6-8.2z"/><path d="m232.6 8.7v15.8h-3.7v-6.5h-7.2v6.5h-3.7v-15.8h3.7v6.2h7.2v-6.2z"/><path d="m236.6 15.1h11v2.8h-7.3v3.7h8.6v2.9h-12.2"/><path d="m236.6 8.7h11.9v2.9h-11.9"/><path d="m250.7 22.9 1.2-2.8c1.3 1 3.3 1.6 5.2 1.6 2.2 0 3-.7 3-1.7 0-3-9.2-.9-9.2-6.8 0-2.7 2.2-4.9 6.7-4.9 2 0 4 .5 5.5 1.4l-1.1 2.8c-1.5-.8-3-1.2-4.4-1.2-2.2 0-3 .8-3 1.8 0 2.9 9.2.9 9.2 6.7 0 2.6-2.2 4.9-6.7 4.9-2.4.1-5-.7-6.4-1.8z"/></g><path d="m265.9 22.5c0-1.3 1-2.2 2.2-2.2s2.2.9 2.2 2.2-1 2.2-2.2 2.2-2.2-.9-2.2-2.2z" fill="#5b89c1"/><path d="m283.4 16.3h3.3v6.4c-1.7 1.3-4.1 2-6.4 2-5 0-8.6-3.4-8.6-8.2s3.7-8.2 8.7-8.2c2.8 0 5.1.9 6.6 2.7l-2.3 2.2c-1.2-1.2-2.5-1.8-4.1-1.8-3.1 0-5.2 2.1-5.2 5.1s2.1 5.1 5.1 5.1c1 0 1.9-.2 2.8-.7v-4.6z" fill="#5b89c1"/><path d="m289.4 16.6c0-4.7 3.7-8.2 8.6-8.2 5 0 8.6 3.5 8.6 8.2s-3.7 8.2-8.6 8.2-8.6-3.5-8.6-8.2zm13.6 0c0-3-2.1-5.1-4.9-5.1s-4.9 2.1-4.9 5.1 2.1 5.1 4.9 5.1 4.9-2.1 4.9-5.1z" fill="#5b89c1"/><path d="m324.4 8.7-6.8 15.8h-3.6l-6.8-15.8h4l4.8 11.3 4.9-11.3z" fill="#5b89c1"/><path d="m324.3 22.5c0-1.3 1-2.2 2.2-2.2s2.2.9 2.2 2.2-1 2.2-2.2 2.2c-1.3 0-2.2-.9-2.2-2.2z" fill="#5b89c1"/><path d="m345.2 14.4c0 3.5-2.6 5.7-6.9 5.7h-3.2v4.4h-3.7v-15.8h6.8c4.4 0 7 2.2 7 5.7zm-3.7 0c0-1.7-1.1-2.8-3.4-2.8h-3v5.5h3c2.3.1 3.4-1 3.4-2.7z" fill="#5b89c1"/><path d="m348.1 8.7h11.9v2.9h-11.9" fill="#5b89c1"/><path d="m348.1 15.8h11v2.9h-7.3v5.8h-3.7" fill="#5b89c1"/><path d="m133.5 5.8h8.2v1.4h-8.2z" fill="#e0141a"/><path d="m107.1 18h-5.5c-.2 0-.4-.2-.4-.4v-2c0-.2.2-.4.4-.4h5.5c.2 0 .4.2.4.4v2c0 .2-.2.4-.4.4z" fill="#e0141a"/><path d="m29.8 27.2c-1.1-.3-.9-.9-2.6-.9-1.6 0-1.5 1.1-3.4 1.1s-1.6-1.1-3.6-1.1c-1.5 0-1.7 1.1-3.2 1.1-2.6 0-1.7-1.1-3.8-1.1-1.5 0-1.6 1.1-3.4 1.1-1.7 0-2-1.1-3.4-1.1-1.1 0-1.3.6-2.6.9.4.5.8.9 1.2 1.3h23.7c.4-.4.8-.8 1.1-1.3" fill="#25579e"/><path d="m27.1 29.9c-1.8-.2-1.6-1-3.5-1-1.7 0-1.5 1.1-3.3 1.1-1.9 0-1.5-1.1-3.4-1.1-1.5 0-2.1 1.1-3.6 1.1-2.3 0-1.8-1.1-3.4-1.1-1.5 0-1.6 1-3.2 1.1.5.4 1.1.8 1.7 1.1h17c.5-.4 1.1-.8 1.7-1.2" fill="#25579e"/><path d="m13.3 31.4c-1.1 0-1.4.6-2.2.9 1.8.7 3.8 1 5.8 1s3.9-.3 5.6-1c-.7-.3-.8-.9-2.3-.9s-1.7 1.1-3.2 1.1c-2.6 0-1.7-1.1-3.7-1.1" fill="#25579e"/><path d="m33.2 20.7c-.6.8-1.5 1.4-2.5 1.4-2.1 0-2-1.1-3.6-1.1-.1 0-.2 0-.2 0v.1c0 .6-.1 1.3-.3 2.1h5.9c.2-.8.5-1.7.7-2.5" fill="#25579e"/><path d="m6.9 21c-.1 0-.2 0-.3 0-1.8 0-1.2 1.1-3.9 1.1-.5 0-1.6-.4-2.1-1 .2.7.4 1.4.7 2.1h5.8c-.1-.8-.2-1.5-.2-2.2z" fill="#25579e"/><path d="m15.5 22.2c-.1.3-.2.7-.2 1h3.2c-.1-.3-.2-.6-.3-1z" fill="#25579e"/><path d="m32 23.7c-1.4.3-1.5 1-3.7 1-1.3 0-1.8-.2-2.2-.5-.3.6-.8 1.2-1.4 1.6h6.2c.3-.7.7-1.4 1.1-2.1" fill="#25579e"/><path d="m18.9 24.4c-.2-.5-1-.7-2.2-.7-.9 0-1.7.2-2 .7s-.8 1.1-1.3 1.5h6.8c-.5-.4-1-1.1-1.3-1.5" fill="#25579e"/><path d="m7.7 24.3c-.4.2-.9.4-1.6.4-1.7 0-1.8-1.1-3.2-1.1-.6 0-.9.2-1.3.4.3.6.7 1.2 1.1 1.8h6.4c-.6-.4-1.1-.9-1.4-1.5" fill="#25579e"/><g fill="#ffdc15"><path d="m0 15.7v.9c0 1.2.1 2.4.4 3.5h6.5v-4.1z"/><path d="m33.6 14.5c-.2-1.4-.5-2.8-1-4.1l-5.7 2.2v2.6z"/><path d="m24 15.3v-1.6l-3.5 1.4v.2z"/><path d="m1.2 10.4c-.5 1.3-.9 2.7-1 4.1l6.8.8v-2.6z"/><path d="m33.7 15.7-6.9.3v4h6.5c.2-1.1.4-2.3.4-3.5 0-.3 0-.5 0-.8"/><path d="m13 15.3v-.3l-3.3-1.3v1.6z"/><path d="m26.6 9s.4.4.4.4-.4.5-.4.6c.1.1.4.5.4.5s-.3.4-.4.5c.1.1.2.3.2.3v.6l5.3-2.5c-.6-1.3-1.4-2.5-2.3-3.5l-3 2.5.2.2c-.1-.1-.4.3-.4.4"/><path d="m24.3 11.4c-.1-.1-.4-.5-.4-.5s.3-.4.4-.5l-3.7 3.1v1.3l3.5-1.6v-1.5c-.1-.1.1-.3.2-.3"/><path d="m24.1 9.6c.1-.1.1-.1.1-.2 0 0-.4-.4-.4-.4s.3-.4.4-.6c-.1-.1-.7-1-.7-1h2.6l.1.1c1-1 1.9-1.9 2.7-2.7-1-1-2.1-1.9-3.4-2.7l-5.1 8.3v2.6c1.2-1 2.5-2.2 3.7-3.4"/><path d="m20.5 5.3v4l4-7.8c-1.2-.6-2.6-1.1-4-1.4l-1.2 5.1c.2 0 .4.1.6.1z"/><path d="m7.1 10.9c-.1-.1-.4-.5-.4-.5s.4-.4.4-.5-.4-.6-.4-.6.4-.3.4-.3c0-.1-.3-.5-.3-.5l.2-.2-3-2.5c-1 1-1.8 2.2-2.4 3.5l5.2 2.5v-.6c.1 0 .3-.2.3-.3"/><path d="m9.4 10.4c0 .1.4.5.4.5s-.3.4-.4.5c0 0 .2.3.2.3v1.5l3.3 1.6v-1.4z"/><path d="m10.1 7.5s-.6.9-.7 1c.1.1.4.5.4.5s-.3.4-.4.4c0 0 .1.1.1.1 1.2 1.2 2.4 2.3 3.4 3.3v-2.7l-4.9-8c-1.1.8-2.3 1.7-3.3 2.8l2.7 2.7.1-.1z"/><path d="m13.4 1.5-.3-1.3c-1.4.3-2.7.8-4 1.4l3.9 7.4v-5.8c0-.6.1-1.2.4-1.7"/></g><path d="m15.1 20.8h-2.4l-1.3 1.3s2.7.4 3.7-1.3" fill="#924e18"/><path d="m18.6 20.8h2.4l1.3 1.3s-2.7.4-3.7-1.3" fill="#924e18"/><path d="m10.1 19.4h13.5v.6h-13.5z" fill="#924e18"/><path d="m20.1 5.6c-1.8 0-2.9-1-2.9-2.6 0-1.8 2.2-2.5 2.2-2.5v-.4s-.7-.1-2.7-.1c-2.3 0-3.3 1.7-3.3 3.2v10.2l7 2v-9.8zm-.2 9.3c-.5-.1-5.9-1.7-6.2-1.7v-10c0-1 .6-2.8 2.9-2.8.9 0 1.5 0 1.9.1-.7.4-1.8 1.2-1.8 2.6 0 1.8 1.2 2.9 3.1 3z" fill="#924e18"/><path d="m12.6 16.1h-.4l-.5.5v-.1c0-.3-.2-.3-.3-.3h-.1c-.1 0-.3 0-.3.3v.1l-.5-.5h-.4l.6 1.3-.6 1.4h.6l.4-.7h.4l.4.7h.6l-.5-1.5z" fill="#924e18"/><path d="m15.3 16.1h-.4l-.5.5v-.1c0-.3-.2-.3-.3-.3h-.1c-.1 0-.3 0-.3.3v.1l-.5-.5h-.4l.6 1.3-.4 1.3h.6l.4-.7h.4l.4.7h.6l-.6-1.4z" fill="#924e18"/><path d="m18 16.1h-.4l-.5.5v-.1c0-.3-.2-.3-.3-.3h-.1c-.1 0-.3 0-.3.3v.1l-.4-.5h-.4l.6 1.3-.6 1.4h.6l.4-.7h.4l.4.7h.6l-.6-1.4z" fill="#924e18"/><path d="m20.7 16.1h-.4l-.5.5v-.1c0-.3-.2-.3-.3-.3h-.1c-.1 0-.3 0-.3.3v.1l-.5-.5h-.4l.6 1.3-.6 1.4h.8l.4-.7h.4l.4.7h.6l-.6-1.4z" fill="#924e18"/><path d="m23.4 16.1h-.4l-.5.5v-.1c0-.3-.2-.3-.3-.3h-.1c-.1 0-.3 0-.3.3v.1l-.5-.5h-.3l.6 1.3-.6 1.3h.6l.4-.7h.4l.4.7h.6l-.6-1.4z" fill="#924e18"/><path d="m11.9 22.5c-1.8 0-2.8-1.1-2.8-1.8v-8.9l-.4-.4.4-.5-.4-.5.4-.5-.3-.5.4-.4-.4-.5.4-.6h-1.4l-.4.6.4.5-.4.4.4.5-.4.5.4.5-.4.5v9.7s0 4.8 3.9 4.8c3.5 0 4.1-3.9 4.1-4.8-.7.9-1.7 1.4-3.5 1.4m-.6 3.1c-2.9 0-3.3-3-3.3-4.6v-8.9h.9v8.6c0 1.1 1.2 2.1 2.9 2.2 1.9.1 2.7-.3 3.2-.8-.3.7-1.1 3.5-3.7 3.5" fill="#924e18"/><path d="m25.9 9 .4-.5-.4-.6h-1.4l.4.6-.4.5.4.4-.4.5.4.5-.4.5.4.5-.4.4v8.9c0 .7-1 1.8-2.8 1.8s-2.7-.5-3.4-1.4c0 .9.5 4.8 4 4.8 3.9 0 3.9-4.8 3.9-4.8v-9.7l-.4-.5.4-.5-.4-.5.4-.5zm-.2 12c0 1.6-.4 4.6-3.3 4.6-2.6 0-3.4-2.8-3.6-3.5.5.5 1.3.9 3.2.8 1.6-.1 2.9-1.1 2.9-2.2v-8.6h.8z" fill="#924e18"/><path d="m7.9 12.1v8.9c0 1.6.5 4.6 3.3 4.6 2.6 0 3.4-2.8 3.6-3.5-.5.5-1.3.9-3.2.8-1.6-.1-2.9-1.1-2.9-2.2v-8.6z" fill="#e0141a"/><path d="m25.7 12.1v8.9c0 1.6-.4 4.6-3.3 4.6-2.6 0-3.4-2.8-3.6-3.5.5.5 1.3.9 3.2.8 1.6-.1 2.9-1.1 2.9-2.2v-8.6z" fill="#e0141a"/><path d="m16.7 3c0-1.4 1-2.2 1.8-2.6-.4 0-1-.1-1.9-.1-2.3 0-2.9 1.8-2.9 2.8v9.9c.3.1 5.7 1.6 6.2 1.7v-8.7c-2-.1-3.2-1.2-3.2-3" fill="#e0141a"/></svg>