<svg width="121" height="39" viewBox="0 0 121 39" fill="none" xmlns="http://www.w3.org/2000/svg">
<path d="M8 15.1065C8.90435 16.1882 10.0567 16.8167 11.7778 16.8167C13.6595 16.8167 15.1472 15.6619 15.1764 13.7325C15.1764 10.2244 10.538 10.7506 10.538 8.8942C10.538 8.28028 11.0193 7.81253 11.7487 7.81253C12.5217 7.81253 13.1927 8.32413 13.7907 9.09884L15.3077 7.72483C14.4325 6.68701 13.2656 6 11.7341 6C9.77952 6 8.43759 7.34478 8.43759 8.96729C8.43759 12.4316 13.076 11.92 13.076 13.8056C13.076 14.5364 12.5801 14.9749 11.7632 14.9749C10.9318 14.9749 10.115 14.5072 9.50238 13.7179L8 15.1065Z" fill="black"/>
<path d="M17.494 16.5244H23.4452V14.7995H19.5653V12.1684H22.8618V10.4436H19.5653V8.01717H23.4452V6.29234H17.494V16.5244Z" fill="black"/>
<path d="M25.9979 16.5244H28.0692V12.3877H29.134L31.8616 16.5244H34.2975L31.1031 11.993C32.1533 11.5107 32.7513 10.5898 32.7513 9.34733C32.7513 7.4471 31.3656 6.29234 29.1194 6.29234H25.9979V16.5244ZM29.2361 8.01717C30.1112 8.01717 30.6217 8.54339 30.6217 9.3181C30.6217 10.1513 30.1112 10.6629 29.2361 10.6629H28.0692V8.01717H29.2361Z" fill="black"/>
<path d="M34.0729 6.29234L37.9382 16.5244H40.6513L44.5166 6.29234H42.3141L39.2947 14.2879L36.2754 6.29234H34.0729Z" fill="black"/>
<path d="M46.2391 16.5244H48.3104V6.29234H46.2391V16.5244Z" fill="black"/>
<path d="M55.861 14.8726C53.9357 14.8726 52.5645 13.3671 52.5645 11.4084C52.5645 9.44965 53.9357 7.94408 55.861 7.94408C57.0279 7.94408 57.9469 8.51415 58.5303 9.34733L60.164 8.07564C59.2305 6.83318 57.7135 6 55.861 6C52.6375 6 50.435 8.48492 50.435 11.4084C50.435 14.3318 52.6375 16.8167 55.861 16.8167C57.7135 16.8167 59.2305 15.9981 60.164 14.7264L58.5303 13.4694C57.9469 14.3026 57.0279 14.8726 55.861 14.8726Z" fill="black"/>
<path d="M62.1074 16.5244H68.0585V14.7995H64.1786V12.1684H67.4751V10.4436H64.1786V8.01717H68.0585V6.29234H62.1074V16.5244Z" fill="black"/>
<path d="M69.6923 15.1065C70.5966 16.1882 71.749 16.8167 73.4701 16.8167C75.3518 16.8167 76.8396 15.6619 76.8687 13.7325C76.8687 10.2244 72.2303 10.7506 72.2303 8.8942C72.2303 8.28028 72.7117 7.81253 73.441 7.81253C74.214 7.81253 74.885 8.32413 75.483 9.09884L77 7.72483C76.1248 6.68701 74.9579 6 73.4264 6C71.4718 6 70.1299 7.34478 70.1299 8.96729C70.1299 12.4316 74.7683 11.92 74.7683 13.8056C74.7683 14.5364 74.2724 14.9749 73.4555 14.9749C72.6241 14.9749 71.8073 14.5072 71.1947 13.7179L69.6923 15.1065Z" fill="black"/>
<path d="M8.91893 32.7077H10.9902V28.571H12.2883C14.5346 28.571 15.9057 27.4162 15.9057 25.5306C15.9057 23.6304 14.5346 22.4756 12.2883 22.4756H8.91893V32.7077ZM12.3759 24.2005C13.251 24.2005 13.7761 24.7267 13.7761 25.5014C13.7761 26.3346 13.251 26.8462 12.3759 26.8462H10.9902V24.2005H12.3759Z" fill="black"/>
<path d="M23.7861 28.878C23.7861 30.252 22.9984 31.0559 21.7294 31.0559C20.4312 31.0559 19.6582 30.252 19.6582 28.878V22.4756H17.5869V28.7026C17.5869 31.3921 19.1622 33 21.7148 33C24.282 33 25.8573 31.3921 25.8573 28.7026V22.4756H23.7861V28.878Z" fill="black"/>
<path d="M28.5761 32.7077H31.7997C34.1481 32.7077 35.5921 31.5675 35.5921 29.6965C35.5921 28.6295 34.9941 27.7524 33.9147 27.2701C34.6294 26.8023 35.0087 26.0861 35.0087 25.2529C35.0087 23.5281 33.7105 22.4756 31.5809 22.4756H28.5761V32.7077ZM31.6247 24.2005C32.4123 24.2005 32.8791 24.6244 32.8791 25.3406C32.8791 26.0861 32.4123 26.51 31.6247 26.51H30.6474V24.2005H31.6247ZM31.9164 28.2348C32.8791 28.2348 33.4625 28.7318 33.4625 29.6088C33.4625 30.4712 32.8791 30.9828 31.9164 30.9828H30.6474V28.2348H31.9164Z" fill="black"/>
<path d="M37.8635 32.7077H43.8146V30.822H39.9347V22.4756H37.8635V32.7077Z" fill="black"/>
<path d="M45.7833 32.7077H47.8546V22.4756H45.7833V32.7077Z" fill="black"/>
<path d="M55.4052 31.0559C53.4798 31.0559 52.1087 29.5503 52.1087 27.5916C52.1087 25.6329 53.4798 24.1274 55.4052 24.1274C56.5721 24.1274 57.491 24.6974 58.0745 25.5306L59.7082 24.2589C58.7746 23.0165 57.2577 22.1833 55.4052 22.1833C52.1817 22.1833 49.9791 24.6682 49.9791 27.5916C49.9791 30.5151 52.1817 33 55.4052 33C57.2577 33 58.7746 32.1814 59.7082 30.9097L58.0745 29.6527C57.491 30.4858 56.5721 31.0559 55.4052 31.0559Z" fill="black"/>
<path d="M60.7753 31.2898C61.6797 32.3715 62.832 33 64.5532 33C66.4348 33 67.9226 31.8452 67.9518 29.9158C67.9518 26.4077 63.3133 26.9339 63.3133 25.0775C63.3133 24.4636 63.7947 23.9958 64.524 23.9958C65.2971 23.9958 65.968 24.5074 66.5661 25.2821L68.083 23.9081C67.2079 22.8703 66.041 22.1833 64.5094 22.1833C62.5549 22.1833 61.2129 23.5281 61.2129 25.1506C61.2129 28.6148 65.8513 28.1032 65.8513 29.9889C65.8513 30.7197 65.3554 31.1582 64.5386 31.1582C63.7072 31.1582 62.8903 30.6905 62.2777 29.9012L60.7753 31.2898Z" fill="black"/>
<path d="M78 26.4306V24.5694H75.0736V22H72.9423V24.5694H70V26.4306H72.9423V29H75.0736V26.4306H78Z" fill="black"/>
<path fill-rule="evenodd" clip-rule="evenodd" d="M100.259 22.2598L95.4205 23.0705L96.8232 31.4481L93.8634 31.9372V33.0825H103.502V25.284L100.735 25.67L100.259 22.2598Z" fill="#F07087"/>
<path fill-rule="evenodd" clip-rule="evenodd" d="M95.4119 23.0625L100.251 22.2517L99.53 17.0656H97.4838V14.9422H101.036L95.7465 13.5781L93.6232 21.8013L85.3613 19.6651V24.5939H93.8548V31.942L96.8146 31.453L95.4119 23.0625Z" fill="#000091"/>
<path fill-rule="evenodd" clip-rule="evenodd" d="M101.383 11.0543H103.506V6.44727H93.8676V14.9407H85.3741V19.6636L93.636 21.7998L95.7593 13.5766L101.048 14.9407H101.383V11.0543Z" fill="#E1000F"/>
<path fill-rule="evenodd" clip-rule="evenodd" d="M103.506 20.9492H101.383V17.0628H99.5428L100.264 22.249L100.74 25.6592L103.506 25.2732V24.5782H112V14.9395H107.38V17.0628H103.506V20.9492Z" fill="#7F7FC8"/>
<path d="M107.38 14.9411H103.494V11.0547H101.37V14.9411H97.4839V17.0645H101.37V20.9509H103.494V17.0645H107.38V14.9411Z" fill="white"/>
</svg>
