<svg width="77" height="95" viewBox="0 0 77 95" xmlns="http://www.w3.org/2000/svg"><title>48989501-DD47-4082-8A9E-1AFAB7A24CFE</title><g fill="none" fill-rule="evenodd"><path d="M-10-1h96v96h-96z"/><path d="M65.917 16a4.917 4.917 0 1 1-9.834 0 4.917 4.917 0 0 1 9.834 0z" stroke="#FFF" stroke-width="2" stroke-linecap="round" stroke-linejoin="round"/><path d="M74.74 13.84h-3.718a10.153 10.153 0 0 0-1.41-3.395l2.631-2.631a1.26 1.26 0 0 0 0-1.784l-1.272-1.272a1.264 1.264 0 0 0-1.785 0l-2.63 2.632a10.202 10.202 0 0 0-3.395-1.412V2.262C63.161 1.566 62.596 1 61.9 1h-1.798c-.696 0-1.26.566-1.26 1.262v3.716a10.216 10.216 0 0 0-3.396 1.412l-2.632-2.632a1.261 1.261 0 0 0-1.783 0L49.76 6.03a1.26 1.26 0 0 0 0 1.784l2.63 2.63a10.196 10.196 0 0 0-1.412 3.396h-3.717a1.26 1.26 0 0 0-1.26 1.262V16.9a1.26 1.26 0 0 0 1.26 1.26h3.717c.265 1.23.75 2.375 1.411 3.396l-2.63 2.632a1.258 1.258 0 0 0 0 1.782l1.271 1.274a1.261 1.261 0 0 0 1.783 0l2.632-2.631a10.256 10.256 0 0 0 3.395 1.41v3.716c0 .696.565 1.263 1.261 1.263H61.9c.697 0 1.262-.567 1.262-1.263v-3.715a10.242 10.242 0 0 0 3.394-1.411l2.631 2.63a1.264 1.264 0 0 0 1.785 0l1.272-1.273a1.258 1.258 0 0 0 0-1.782l-2.63-2.632a10.153 10.153 0 0 0 1.41-3.395h3.717A1.26 1.26 0 0 0 76 16.9v-1.798a1.26 1.26 0 0 0-1.26-1.262z" stroke="#FFF" stroke-width="2" stroke-linecap="round" stroke-linejoin="round"/><path d="M45 2H3.727A2.727 2.727 0 0 0 1 4.726v86.545A2.727 2.727 0 0 0 3.727 94h69.546A2.727 2.727 0 0 0 76 91.272V31M1 12h39" stroke="#FFF" stroke-width="2" stroke-linecap="round" stroke-linejoin="round"/><path d="M8.256 7.028a2 2 0 1 1-4.002-.001 2 2 0 0 1 4.002.001m6 0a2 2 0 1 1-4.002-.001 2 2 0 0 1 4.002.001m6 0a2 2 0 1 1-4.002-.001 2 2 0 0 1 4.002.001" fill="#FFF"/><path d="M66 39H11m55 9H11m55 8H11m55 9H11m31-35H11m31 44H11" stroke="#FFF" stroke-width="2" stroke-linecap="round" stroke-linejoin="round"/></g></svg>