<svg width="115" height="103" viewBox="0 0 115 103" xmlns="http://www.w3.org/2000/svg" xmlns:xlink="http://www.w3.org/1999/xlink"><title>Bis</title><defs><path d="M15.41.6C7.309.6.732 7.18.732 15.287c0 8.108 6.577 14.688 14.678 14.688 8.1 0 14.677-6.58 14.677-14.688C30.087 7.18 23.511.6 15.41.6z" id="a"/><path d="M15.666 19.795a4.97 4.97 0 1 1 .001-9.94 4.97 4.97 0 0 1-.001 9.94zm13.886-6.655h-3.757c-.266-2.022-.758-2.648-1.426-3.681l2.66-2.784c.497-.498.497-1.368 0-1.866l-1.285-1.316a1.275 1.275 0 0 0-1.802-.016l-2.994 2.652c-1.034-.669-2.754-1.167-3.765-1.434V.938c0-.704.096-.938-.609-.938h-1.816c-.706 0-1.618.234-1.618.938v3.757c-1.011.267-2.227.758-3.26 1.427l-2.574-2.66a1.226 1.226 0 0 0-1.761 0L4.281 4.746a1.274 1.274 0 0 0 .01 1.804l2.666 2.909c-.667 1.033-1.155 1.66-1.42 3.68H1.779c-.705 0-1.779.073-1.779.777v1.817c0 .706 1.074 1.45 1.779 1.45h3.758c.265 1.01.758 2.311 1.425 3.344l-2.66 2.616a1.247 1.247 0 0 0 0 1.78L5.588 26.2c.5.497 1.306.492 1.805-.005l2.488-2.663a11.828 11.828 0 0 0 3.26 1.422v3.756c0 .705.912 1.613 1.618 1.613h1.816c.705 0 .609-.908.609-1.613v-3.756c1.01-.265 2.73-.759 3.765-1.425l2.826 2.66c.498.497 1.389.497 1.886 0l1.327-1.287c.497-.496.519-1.305.021-1.802l-2.649-2.573c.668-1.033 1.17-2.333 1.436-3.344h3.757c.705 0 .77-.744.77-1.45v-1.817c0-.704-.065-.776-.77-.776z" id="b"/><rect id="c" width="24" height="31" rx="2"/></defs><g transform="translate(5 5)" fill="none" fill-rule="evenodd"><circle stroke="#0069CC" stroke-width="2" cx="53" cy="56" r="41"/><path d="M15.41 59.6C7.309 59.6.732 66.18.732 74.287c0 8.108 6.577 14.688 14.678 14.688 8.1 0 14.677-6.58 14.677-14.688 0-8.107-6.576-14.687-14.677-14.687" fill="#D9E9FD"/><g stroke-linecap="round" stroke-linejoin="round" transform="translate(0 59)"><path stroke="#FFF" stroke-width="5" d="M15.41-1.9c9.482 0 17.177 7.7 17.177 17.187 0 9.488-7.695 17.188-17.177 17.188-9.483 0-17.178-7.7-17.178-17.188C-1.768 5.8 5.927-1.9 15.41-1.9z"/><use stroke="#0069CC" stroke-width="2" xlink:href="#a"/></g><path fill="#D9E9FD" d="M7.366 74.053l5.508 4.964L23.172 68.85"/><path stroke="#0069CC" stroke-width="2" stroke-linecap="round" stroke-linejoin="round" d="M7.366 74.053l5.508 4.964L23.172 68.85"/><g><path d="M89.666 77.795a4.97 4.97 0 1 1 .001-9.94 4.97 4.97 0 0 1-.001 9.94m13.886-6.655h-3.757c-.266-2.022-.758-2.648-1.426-3.681l2.66-2.784c.497-.498.497-1.368 0-1.866l-1.285-1.316a1.275 1.275 0 0 0-1.802-.016l-2.994 2.652c-1.034-.669-2.754-1.167-3.765-1.434v-3.757c0-.704.096-.938-.609-.938h-1.816c-.706 0-1.618.234-1.618.938v3.757c-1.011.267-2.227.758-3.26 1.427l-2.574-2.66a1.226 1.226 0 0 0-1.761 0l-1.264 1.284a1.274 1.274 0 0 0 .01 1.804l2.666 2.909c-.667 1.033-1.155 1.66-1.42 3.68h-3.758c-.705 0-1.779.073-1.779.777v1.817c0 .706 1.074 1.45 1.779 1.45h3.758c.265 1.01.758 2.311 1.425 3.344l-2.66 2.616a1.247 1.247 0 0 0 0 1.78l1.285 1.277c.5.497 1.306.492 1.805-.005l2.488-2.663a11.828 11.828 0 0 0 3.26 1.422v3.756c0 .705.912 1.613 1.618 1.613h1.816c.705 0 .609-.908.609-1.613v-3.756c1.01-.265 2.73-.759 3.765-1.425l2.826 2.66c.498.497 1.389.497 1.886 0l1.327-1.287c.497-.496.519-1.305.021-1.802l-2.649-2.573c.668-1.033 1.17-2.333 1.436-3.344h3.757c.705 0 .77-.744.77-1.45v-1.817c0-.704-.065-.776-.77-.776" fill="#D9E9FD"/><g stroke-linecap="round" stroke-linejoin="round" transform="translate(74 58)"><path stroke="#FFF" stroke-width="5" d="M15.666 17.295a2.47 2.47 0 0 0 0-4.94 2.47 2.47 0 0 0 0 4.94zm11.922 2.388c-.048.118-.098.235-.148.351l1.336 1.298c1.483 1.483 1.444 3.875-.049 5.365l-1.3 1.26c-1.473 1.473-3.945 1.473-5.366.052l-1.57-1.476c-.257.101-.527.198-.808.292v1.885a13.398 13.398 0 0 0 .004.383c.005.68-.035 1.136-.236 1.697-.43 1.197-1.5 2.033-2.877 2.033h-1.816c-2.084 0-4.118-2.025-4.118-4.113v-1.973c-.08-.034-.16-.068-.238-.103l-1.244 1.33a3.777 3.777 0 0 1-5.333.01l-1.286-1.28a3.75 3.75 0 0 1 .01-5.333l1.34-1.318a15.3 15.3 0 0 1-.15-.36h-1.96c-2.016 0-4.279-1.74-4.279-3.95v-1.817c0-1.64 1.066-2.648 2.413-3.049.594-.176 1.169-.227 1.866-.227h1.75c.1-.296.212-.577.34-.851l-1.392-1.52c-1.424-1.473-1.427-3.827.022-5.276L3.78 1.69C5.256.221 7.598.221 9.102 1.723l1.266 1.309c.09-.04.181-.08.272-.118V.938c0-2.515 1.992-3.438 4.118-3.438h1.816c1.082 0 1.958.26 2.634 1.288.305.463.426.914.466 1.394.016.195.016.288.01.588l-.001.168v1.89c.301.101.59.206.865.316l1.694-1.501c1.485-1.413 3.825-1.362 5.29.104l1.266 1.296c1.471 1.474 1.471 3.924.038 5.359l-1.36 1.423c.122.263.23.532.324.815h1.752c.33 0 .562.011.833.057.582.098 1.126.334 1.597.812.467.474.694 1.012.787 1.588.043.266.054.492.054.819v1.817c0 .743-.054 1.274-.285 1.88-.468 1.227-1.566 2.07-2.986 2.07h-1.964z"/><use stroke="#0069CC" stroke-width="2" xlink:href="#b"/></g></g><g><g transform="translate(41)"><use fill="#FFF" xlink:href="#c"/><rect stroke="#FFF" stroke-width="5" x="-2.5" y="-2.5" width="29" height="36" rx="2"/><rect stroke="#0069CC" stroke-width="2" x="1" y="1" width="22" height="29" rx="2"/></g><path d="M59 6H46M59 11H46M59 16H46M54 21h-8" stroke="#0069CC" stroke-width="2" stroke-linecap="round" stroke-linejoin="round"/></g></g></svg>