<svg height="280" viewBox="0 0 499 280" width="499" xmlns="http://www.w3.org/2000/svg" xmlns:xlink="http://www.w3.org/1999/xlink"><mask id="a" fill="#fff"><path d="m0 279.426h499v-279.426h-499z" fill="none"/></mask><g fill="none" fill-rule="evenodd"><path d="m-1 0h500v280h-500z"/><g stroke-linecap="round" stroke-linejoin="round" stroke-width="2"><path d="m388.43 8.77a7.773 7.773 0 0 1 -7.777 7.771c-4.295 0-7.778-3.479-7.778-7.77 0-4.292 3.483-7.77 7.778-7.77 4.296 0 7.778 3.478 7.778 7.77zm86 127a7.773 7.773 0 0 1 -7.777 7.771c-4.295 0-7.778-3.479-7.778-7.77 0-4.292 3.483-7.77 7.778-7.77 4.296 0 7.778 3.478 7.778 7.77zm-11.587-6.866-78.51-113.435m54.417 195.916 25.583-67.583" stroke="#d9e9fd"/><path d="m373.548 62.267c13.63-13.616 13.63-35.695 0-49.313-13.631-13.616-35.731-13.616-49.361 0l49.36 49.313zm-11.548 182.868h119.5c9.113 0 16.5 7.387 16.5 16.5s-7.387 16.5-16.5 16.5h-119.5m5-27h86m-90 7h116m-112 7h62m-66 7h112m-108-26v32m-7-33h120m0-33h-120m115 6h-86m90 7h-116m112 7h-62m66 7h-112m108-26v32m-317 30a3 3 0 0 1 -3 3h-151a3 3 0 0 1 -3-3v-30a3 3 0 0 1 3-3h151a3 3 0 0 1 3 3z" stroke="#d9e9fd"/><path d="m22 259.26a6.5 6.5 0 1 1 -13 0 6.5 6.5 0 0 1 13 0z" stroke="#d9e9fd"/><path d="m31 270.135h65v-22h-65zm8-16v10m8-10v10m9-6v6m108-61a3 3 0 0 1 -3 3h-151a3 3 0 0 1 -3-3v-30a3 3 0 0 1 3-3h151a3 3 0 0 1 3 3z" mask="url(#a)" stroke="#d9e9fd"/><path d="m28 187.26a6.5 6.5 0 1 1 -13 0 6.5 6.5 0 0 1 13 0zm9 10.875h65v-22h-65zm8-16v10m8-10v10m9-6v6m107 47a3 3 0 0 1 -3 3h-140a3 3 0 0 1 -3-3v-30a3 3 0 0 1 3-3h140a3 3 0 0 1 3 3z" mask="url(#a)" stroke="#d9e9fd"/><path d="m44 223.26a6.5 6.5 0 1 1 -13 0 6.5 6.5 0 0 1 13 0zm9 10.875h65v-22h-65zm8-16v10m8-10v10m9-6v6" mask="url(#a)" stroke="#d9e9fd"/><path d="m297.713 45.135h-91.143c-1.446 0-3.569.465-3.569 1.911v153.346c0 1.446 2.123 2.743 3.57 2.743h111.31c1.446 0 3.12-1.297 3.12-2.743v-132.569l-23.287-22.688z" mask="url(#a)" stroke="#0069cc"/><path d="m321 68.135h-19.109c-1.674 0-4.003-2.018-4.003-3.079l.058-19.699m1.054 43.778h-75m75 17h-75m75 35h-75m75 18h-75m42-88h-42m42 105h-42" mask="url(#a)" stroke="#0069cc"/></g><path d="m143 253.135h206v-124h-206zm207.871-134h-210.506c-4.802 0-8.365 3.389-8.365 8.024v136.957c0 1.206-.092 2.019.388 3.019h226.467c.468-1 1.145-1.813 1.145-3.019v-136.957c0-4.635-4.324-8.024-9.129-8.024z" fill="#d9e9fd" mask="url(#a)"/><path d="m143 253.135h206v-124h-206zm207.871-134h-210.506c-4.802 0-8.365 3.389-8.365 8.024v136.957c0 1.206-.092 2.019.388 3.019h226.467c.468-1 1.145-1.813 1.145-3.019v-136.957c0-4.635-4.324-8.024-9.129-8.024z" mask="url(#a)" stroke="#0069cc" stroke-linecap="round" stroke-linejoin="round" stroke-width="2"/><path d="m247.866 124.01a1.995 1.995 0 0 0 -2-1.994 2.002 2.002 0 0 0 -2 1.994c0 1.096.904 2.006 2 2.006 1.108 0 2-.91 2-2.006" fill="#0069cc" mask="url(#a)"/><path d="m269.085 267.51s-.165 1.625-5.48 1.625h-35.978c-5.318 0-5.48-1.625-5.48-1.625h-116.361v5.605h279.66v-5.606h-116.361z" fill="#d9e9fd" mask="url(#a)"/><path d="m269.085 267.51s-.165 1.625-5.48 1.625h-35.978c-5.318 0-5.48-1.625-5.48-1.625h-116.361v5.605h279.66v-5.606h-116.361z" mask="url(#a)" stroke="#0069cc" stroke-linecap="round" stroke-linejoin="round" stroke-width="2"/><path d="m385.446 274.115s-11.462 4.311-45.563 4.311h-94.191.598-94.941c-34.095 0-45.563-4.311-45.563-4.311" fill="#d9e9fd" mask="url(#a)"/><path d="m385.446 274.115s-11.462 4.311-45.563 4.311h-94.191.598-94.941c-34.095 0-45.563-4.311-45.563-4.311" mask="url(#a)" stroke="#0069cc" stroke-linecap="round" stroke-linejoin="round" stroke-width="2"/><path d="m205.105 25.424c-.166.012-.33.023-.495.03v.008z" fill="#27c1fa" mask="url(#a)"/><path d="m142 254.135h34v-125h-34z" fill="#0069cc" mask="url(#a)"/><path d="m148 171.135h21m-21 31h21m-21-21h16m-16 31h16m-16-20h21m-4-54.5a2.5 2.5 0 0 1 -2.5 2.5h-13a2.5 2.5 0 1 1 0-5h13a2.5 2.5 0 0 1 2.5 2.5z" mask="url(#a)" stroke="#fff" stroke-linecap="round" stroke-linejoin="round" stroke-width="2"/><path d="m174 89.135v10m5-5h-10m20.536-59.535-7.071 7.07m7.071 0-7.071-7.07m167.071 55-7.071 7.07m7.071 0-7.071-7.07m-5.465-49.465a3 3 0 1 1 -6 0 3 3 0 0 1 6 0zm-185 33a3 3 0 1 1 -6 0 3 3 0 0 1 6 0zm-105.236 76.656c-12.39-8.748-13.206-20.394-6.75-22.377 2.322-.714 5.068 1.143 6.75 2.458" mask="url(#a)" stroke="#d9e9fd" stroke-linecap="round" stroke-linejoin="round" stroke-width="2"/><path d="m46.24 124.01c-1.898-1.48-5.416-3.018-9.122-1.879-10.332 3.175-11.203 20.104 9.122 33.879m44.76-29.243v-11.243c0-.598-.896-.389-1.495-.389h-41.659c-.597 0-.846-.209-.846.39v47.527c0 3.938 3.061 7.083 7 7.083h29.49c3.936 0 7.51-3.145 7.51-7.083zm-24.483-35.025s4.036 1.95 2.589 6.229-7.21 4.356-2.866 10.562m9.153-62.361-3.19-1.836m-34.706-19.987 3.188 1.838m34.688-1.869-3.186 1.843m-34.672 20.044 3.186-1.841m15.589-30.967.024 3.677m21.994 18.031-21.64-.232m-.068 22.254-.026-3.681m24.692-4.076c-7.792 13.53-25.075 18.182-38.604 10.39-13.528-7.79-18.18-25.072-10.39-38.602 7.791-13.527 25.075-18.18 38.603-10.388 13.53 7.79 18.18 25.073 10.391 38.601z" mask="url(#a)" stroke="#d9e9fd" stroke-linecap="round" stroke-linejoin="round" stroke-width="2"/><path d="m85.874 52.024c-9.257 16.073-29.791 21.6-45.864 12.345-16.073-9.257-21.6-29.79-12.344-45.863 9.256-16.072 29.79-21.6 45.862-12.343 16.073 9.254 21.6 29.788 12.346 45.86z" mask="url(#a)" stroke="#d9e9fd" stroke-linecap="round" stroke-linejoin="round" stroke-width="2"/></g></svg>