<svg width="101.279" height="36.732" viewBox="0 -66 264.401 99.7" xmlns="http://www.w3.org/2000/svg"><path d="M83.85 21.4s.1 0 0 0c.4-.2.6-.3.8-.5h-.1c-.2.1-.4.3-.7.5m36.5-12.2l-.2.2c.1 0 .2 0 .2-.2" fill="#1f356c"/><path d="M108.85 22c1.1-1.1 2.1-2.2 3.2-3.4 2-2.3 4-4.4 6.3-6.4.7-.6 1.4-1.2 2.1-1.6.2-.2.2-.6.4-.8-.9.4-1.5 1.1-2.4 1.5-.2 0-.4-.2-.2-.4.7-.5 1.3-1 2-1.5h-.1c-.2 0-.2-.2-.2-.4-2.4-.4-4.3 1.3-6 2.8-.4.2-.8-.2-.9-.2-2.8.9-4.9 3.4-7.7 4.5v-.4c-1.1.4-2.2 1.1-3.4 1.3-1.7.4-3.2.2-4.7.2-2.3.2-4.6.7-6.8 1.2h-.2c-1.2.3-2.4.8-3.5 1.4l-.1.1-.3.3c-.4.4-.8.9-1.3 1.1-1.2.6-2.1 1.6-3.1 2.4-.4.4-.5.4-.6.4-1 1-2 1.9-3 2.9-.1.1-.4.1-.6.1 0-.1.1-.1.1-.2.2-.3.3-.5.5-.8l.6-.9c.3-.4.5-.8.8-1.1.1-.1.1-.2 0-.3-.1-.1-.2-.1-.3-.1.9-.9 2.1-1.7 3.2-2.4-.1 0-.3-.1-.2-.2.1-.2.2-.3.3-.5 0-.1 0-.1.1-.2l-.1-.1-.9.6c-.5.4-.8 1.2-1.5 1.2h-.3c-.1 0-.2 0-.2-.1v-.1c0-.1.1-.1.1-.2s.1-.1.1-.2c0 0 0-.1.1-.1 0-.1.1-.2.1-.2 0-.1.1-.1.1-.2.1-.1.2-.3.2-.4 0-.1.1-.1.1-.2.1-.1.1-.2.2-.3.1-.2 0-.3-.1-.3.3-.5.8-.8 1.3-1.1h-.1c.7-.4 1.4-.8 2.2-1.2l.3-.3c-1.1.4-2 .9-3 1.5 0 0-.2.1-.3.2 0 0-.2.1-.5-.2v-.1c.2-.4.8-.6 1.1-.9.2 0 .4 0 .4.2 6-4.7 14.3-3.6 21.3-6 .6-.4 1.1-.7 1.7-1.1.9-.4 1.7-1.3 2.8-1.9 1.5-1.1 2.6-2.4 3.2-4.3 0-.2-.2-.4-.2-.4-2.4 2.6-5.3 4.7-8.3 6.2-4 2.1-8.3 1.7-12.4 2.3.2-.4.6-.4.9-.4 0-.6.4-.8.8-1.1h.6c.2 0 .2-.4.4-.4.4 0 .9-.2.8-.2-.6-.8-1.7.6-2.6 0 .4-.4.2-.9.6-1.1h.8c0-.4.4-.8.4-.8 2.8-1.7 5.5-3 8.1-4.5-.6 0-.9.6-1.5.2.4 0 0-.6.4-.6 2.1-.6 3.8-1.7 5.8-2.4-.8 0-1.3.6-2.1 0 .4-.2.6-.6 1.1-.6V.2c0-.2.2-.2.4-.2-.2 0-.4-.2-.4-.2.2-.4.8-.2 1.1-.6-.2 0-.6 0-.6-.2.6-.8 1.5-.9 2.4-1.1-.2-.4-.8 0-.8-.4 0-.2.2-.2.4-.2h-.4c-.4-.2-.2-.6-.2-.8 1.1-1.3 1.1-3 1.7-4.5-.2 0-.4 0-.4-.2-1.9 2.1-4.9 2.8-7.7 3.6h-.9c-.9.4-2.3.4-3.2-.2-.8-.4-1.1-.9-1.9-1.5-1.5-.9-3-1.7-4.7-2.3-4.7-1.5-9.6-2.3-14.5-2.1 2.1-1.1 4.4-1.2 6.6-1.9 3.2-.9 6.2-2.1 9.6-1.9-.6-.2-1.3 0-1.9 0-2.6-.2-5.3.6-8.1 1.1-1.9.4-3.6 1.1-5.5 1.5-1.1.4-1.7 1.5-3 1.3v-.6c1.9-2.3 4.1-4.5 7.2-4.7 3.4-.6 6.6 0 10 .4 2.4.2 4.7.8 7.2 1.3.9 0 1.1 1.5 1.9 1.7 1.1.4 2.3 0 3.4.8 0-.4-.2-.8 0-1.1.8-.8 1.7.2 2.4-.2 1.5-.9-1.3-2.6-2.1-4 0-.2.2-.4.2-.4 1.5 1.3 2.6 2.8 4.5 3.8.9.4 3.2.9 2.8-.2-.9-2.1-2.8-3.8-4.3-5.6v-.8c-.4 0-.4-.2-.6-.4v-.8c-.8-.4-.6-1.1-.9-1.7-.6-.9-.2-2.3-.6-3.4-.4-1.1-.6-2.1-.8-3.2-.6-3.2-1.3-6-1.7-9-.4-3.6 2.1-6.4 3.8-9.6 1.3-2.3 2.8-4.5 5.3-6 .6-2.3 2.1-4.1 3.6-6 1.5-1.8 4-3 5.8-3.8 2.6-1.2 5-1.9 5-1.9H-5.25v99.6h92.4c3.6-2.6 7.2-3.8 12.2-6.3 2.3-1 7.7-3.5 9.5-5.3m-29-13.5c-.4 0-1.1.2-.9-.2.2-.9 1.5-.9 2.3-1.3.4-.2.9-.6 1.3-.4.4.6.9.4 1.3.8-1.1 1.1-2.6.5-4 1.1m-28.8-4.1s-.2-.2-.2-.4c2.5-3.2 4.3-6.2 6-9.6 2.5-1.3 4.6-3.3 6.5-5.3 3.2-3.4 6.6-6.4 10.5-8.3 1.5-.6 3.4-.4 4.9.2-.6.8-1.5.6-2.3 1.1-.2 0-.4 0-.6-.2.2-.2.2-.4.2-.6-1.9 2.1-4.5 3-6 5.5-1.1 1.9-1.9 4.3-4.3 4.9-.8.2.2-.6-.2-.4-5.8 3.6-9.9 8-14.5 13.1m15.7-12.5c-.2.4-.4.4-.6.7-.2.4-.4.6-.8.8-.2 0-.4 0-.4-.2.2-.8.8-1.5 1.5-1.7.3.1.3.2.3.4m8.7 28.2c-.1.2-.3.4-.5.5.2 0 .4.1.2.3-.4.4-.9.8-1.4 1h-.3c-.2.2-.5.4-.7.7-.2.2-1.3.1-.9-.2.5-.4.9-.9 1.4-1.3.3-.2.5-.5.8-.7.1-.2.2-.3.4-.4.2-.1 1.2-.2 1 .1m-3.4-1.5c-.8.5-1.5 1-2.2 1.5-.8.5-1.6.8-2.5 1.2 0-.2-.2-.2-.3-.2-.7.4-1.3.9-1.9 1.4l-.3.3-.3.3-.4.4c-.1.1-.1.2-.3.3-.1.1-.4.1-.4-.1-.1.1-.2.1-.3.2-.1.1-.2.1-.3.2h-.2c-.2.2-.5.4-.7.6-.4.4-.8.7-1.1 1.2v.1l-.1.1s0 .1-.1.1c0 .1-.1.1-.1.2 0 0-.1.1-.2.1l-.1-.1s0-.1-.1-.1c-.1-.1-.1-.2-.2-.3v-.1c.2-.2.4-.4.6-.7.1-.1.1-.2.2-.2.1-.1.2-.3.3-.4 0-.1.1-.1.1-.1.2-.3.4-.5.6-.8l.1-.1c.1-.1.2-.3.3-.4.1-.1.1-.3.2-.4v-.1c.1-.1.1-.3.2-.4v-.2c0-.1 0-.1.1-.2 0-.1 0-.2.1-.3v-.1c.2-.4.5-.7.8-1 0 0-.1 0-.1.1-.3.2-.5.4-.7.6-.2.2-.6-.1-.3-.3.2-.1.3-.3.4-.4.3-.3.6-.7 1-1 .2-.2.4-.3.6-.4 0 0 .1 0 .1-.1.1-.2.3-.3.4-.5 1.8-1.7 4.8-1.7 7.2-2.8.9-.4 2.1.2 3 0 .6 0 1.1 0 1.7.4-1.7.5-3.2 1.5-4.8 2.5m3.9-13.1c-.2-.2.6 0 .8-.4h-1.5c-.2 0-.2-.2-.2-.4-.9.2-2.1.6-3 .7-1.3.4-2.4 1.3-4 1.7-2.1.8-3.8 2.4-6 3.2-.2 0-.2-.2-.2-.4.2-.6.9-.7 1.3-1.3 0-.2 0-.4-.2-.4 1.5-2.1 3.6-3.2 5.5-4.9v-.6c.6-.8 1.5-1.1 1.9-2.1.2-.6.9-1.3 1.9-1.7-.2-.2-.6-.2-.6-.6-.8 0-1.5.4-2.3-.2.4-.4.8-.5 1.2-.7-.2 0-.3-.1-.4-.3-.2-.4.4-.8.9-.9.8-.2 1.7-.2 2.3-.8-1.3-.2-2.8.4-4.1-.4.9-2.4 2.4-4.5 4.7-5.6.2 0 .6 0 .6.2 0 .9-.6 1.7-1.5 1.9 1.5.4 3 .4 4.5 1.1-.2.4-.6.2-.8.2.9.6 2.1.2 3 .9-.6.6-1.1 0-1.7 0 5.8 1.7 12 3 16.9 6.8-4.1 2.1-8.5 3-13 4-.6 0-.9 0-1.5-.2 0 .2 0 .6-.2.6-.8 0-1.3 0-1.9.4-.7.6-1.8.7-2.4.2" fill="#000091"/><path d="M269.55-65.9h-107.2s.2 0 1 .5c.9.5 2 1.1 2.7 1.4 1.4.7 2.7 1.6 3.6 3 .4.6.9 1.7.6 2.4-.4.9-.6 2.4-1.5 2.8-1.1.6-2.6.6-4 .4-.8 0-1.5-.2-2.3-.4 2.8 1.1 5.5 2.4 7.3 5.1.2.4.9.6 1.7.6.2 0 .2.4.2.6-.4.4-.8.6-.6 1.1h.6c.9-.4.8-2.3 2.1-1.7.9.6 1.3 1.9.8 2.8-.8.7-1.5 1.3-2.3 1.9-.2.4-.2.9 0 1.3.6.8.8 1.5.9 2.3.6 1.3.8 2.8 1.3 4.1.8 2.8 1.5 5.7 1.3 8.5 0 1.5-.8 2.8-.2 4.3.4 1.5 1.3 2.6 2.1 4 .8 1.1 1.5 1.9 2.1 3 1.1 1.9 3.2 3.8 2.3 6-.6 1.3-2.6 1.1-4 1.9-1.1.9-.2 2.4.4 3.4.9 1.7-1.1 2.8-2.4 3.4.4.6 1.1.4 1.3.8.2.9 1.1 1.5.6 2.4-.8 1.1-3 1.7-1.9 3.4.8 1.3.3 2.8-.2 4.1-.6 1.7-2.1 2.4-3.4 2.8-1.1.4-2.4.4-3.6.2-.4-.2-.8-.4-1.1-.4-3.2-.4-6.4-1.3-9.6-1.3-.9.2-1.9.4-2.6.8-.9.6-1.6 1.3-2.3 2-.1.2-.3.3-.4.5-.1.1-.2.2-.2.3l-.2.2c-.5.7-1 1.4-1.5 2.2l-.1.1c0 .1-.1.2-.1.3-.6 1.1-1.1 2.3-1.4 3.5-1.3 4.3-.7 8 .2 8.9.2.2 6.2 2.1 10.4 3.9 2 .9 3.3 1.5 4.4 2.2h105.3v-99.6z" fill="#e1000f"/><path d="M168.75-29.6c.8.2 1.9.2 1.9.6-.4 1.5-2.6 1.9-3.8 3.4h-.6c-.6.4-.4 1.3-.9 1.3-.6-.2-1.1 0-1.7.2.8.8 1.7 1.3 2.8 1.1.2 0 .6.4.6.8 0 0 .2 0 .4-.2.2 0 .4 0 .4.2v.8c-.6.7-1.5.4-2.3.6 1.5.4 3 .4 4.3 0 1.1-.4 0-2.3.8-3.2-.4 0 0-.6-.4-.6.4-.4.8-.9 1.1-1.1.4 0 .9-.2 1.1-.6 0-.4-.8-.6-.6-.9 1.1-.8 2.1-1.9 1.7-3-.2-.6-1.7-.6-2.6-.9-.9-.4-2.1 0-3.2.2-.9 0-1.9.6-2.8.7-1.3.4-2.4 1.1-3.6 1.9 1.3-.6 2.6-.8 4.1-1.1 1.2-.2 2.2-.4 3.3-.2" fill="gray"/></svg>