<?xml version="1.0" encoding="UTF-8" standalone="no"?>
<svg
   version="1.1"
   x="0"
   y="0"
   width="101.27895"
   height="36.731579"
   viewBox="0 -66 264.40077 99.7"
   xml:space="preserve"
   id="svg28"
   sodipodi:docname="marianne_centered.svg"
   inkscape:version="1.2.2 (732a01da63, 2022-12-09, custom)"
   xmlns:inkscape="http://www.inkscape.org/namespaces/inkscape"
   xmlns:sodipodi="http://sodipodi.sourceforge.net/DTD/sodipodi-0.dtd"
   xmlns="http://www.w3.org/2000/svg"
   xmlns:svg="http://www.w3.org/2000/svg"><defs
     id="defs32" /><sodipodi:namedview
     id="namedview30"
     pagecolor="#ffffff"
     bordercolor="#666666"
     borderopacity="1.0"
     inkscape:showpageshadow="2"
     inkscape:pageopacity="0.0"
     inkscape:pagecheckerboard="0"
     inkscape:deskcolor="#d1d1d1"
     showgrid="false"
     inkscape:zoom="8.6632653"
     inkscape:cx="62.216726"
     inkscape:cy="18.237927"
     inkscape:window-width="1920"
     inkscape:window-height="1053"
     inkscape:window-x="0"
     inkscape:window-y="27"
     inkscape:window-maximized="1"
     inkscape:current-layer="svg28" /><style
     id="style18">.st0{fill:#1f356c}</style><path
     class="st0"
     d="m 83.850386,21.4 c 0,0 0.1,0 0,0 0.4,-0.2 0.6,-0.3 0.8,-0.5 h -0.1 c -0.2,0.1 -0.4,0.3 -0.7,0.5 m 36.500004,-12.2 -0.2,0.2 c 0.1,0 0.2,0 0.2,-0.2"
     id="path20" /><path
     d="m 108.85039,22 c 1.1,-1.1 2.1,-2.2 3.2,-3.4 2,-2.3 4,-4.4 6.3,-6.4 0.7,-0.6 1.4,-1.2 2.1,-1.6 0.2,-0.2 0.2,-0.6 0.4,-0.8 -0.9,0.4 -1.5,1.1 -2.4,1.5 -0.2,0 -0.4,-0.2 -0.2,-0.4 0.7,-0.5 1.3,-1 2,-1.5 h -0.1 c -0.2,0 -0.2,-0.2 -0.2,-0.4 -2.4,-0.4 -4.3,1.3 -6,2.8 -0.4,0.2 -0.8,-0.2 -0.9,-0.2 -2.8,0.9 -4.9,3.4 -7.7,4.5 v -0.4 c -1.1,0.4 -2.2,1.1 -3.4,1.3 -1.7,0.4 -3.200004,0.2 -4.700004,0.2 -2.3,0.2 -4.6,0.7 -6.8,1.2 h -0.2 c -1.2,0.3 -2.4,0.8 -3.5,1.4 l -0.1,0.1 -0.3,0.3 c -0.4,0.4 -0.8,0.9 -1.3,1.1 -1.2,0.6 -2.1,1.6 -3.1,2.4 -0.4,0.4 -0.5,0.4 -0.6,0.4 -1,1 -2,1.9 -3,2.9 -0.1,0.1 -0.4,0.1 -0.6,0.1 0,-0.1 0.1,-0.1 0.1,-0.2 0.2,-0.3 0.3,-0.5 0.5,-0.8 l 0.6,-0.9 c 0.3,-0.4 0.5,-0.8 0.8,-1.1 0.1,-0.1 0.1,-0.2 0,-0.3 -0.1,-0.1 -0.2,-0.1 -0.3,-0.1 0.9,-0.9 2.1,-1.7 3.2,-2.4 -0.1,0 -0.3,-0.1 -0.2,-0.2 0.1,-0.2 0.2,-0.3 0.3,-0.5 0,-0.1 0,-0.1 0.1,-0.2 l -0.1,-0.1 -0.9,0.6 c -0.5,0.4 -0.8,1.2 -1.5,1.2 h -0.3 c -0.1,0 -0.2,0 -0.2,-0.1 v -0.1 c 0,-0.1 0.1,-0.1 0.1,-0.2 0,-0.1 0.1,-0.1 0.1,-0.2 0,0 0,-0.1 0.1,-0.1 0,-0.1 0.1,-0.2 0.1,-0.2 0,-0.1 0.1,-0.1 0.1,-0.2 0.1,-0.1 0.2,-0.3 0.2,-0.4 0,-0.1 0.1,-0.1 0.1,-0.2 0.1,-0.1 0.1,-0.2 0.2,-0.3 0.1,-0.2 0,-0.3 -0.1,-0.3 0.3,-0.5 0.8,-0.8 1.3,-1.1 h -0.1 c 0.7,-0.4 1.4,-0.8 2.2,-1.2 l 0.3,-0.3 c -1.1,0.4 -2,0.9 -3,1.5 0,0 -0.2,0.1 -0.3,0.2 0,0 -0.2,0.1 -0.5,-0.2 v -0.1 c 0.2,-0.4 0.8,-0.6 1.1,-0.9 0.2,0 0.4,0 0.4,0.2 6,-4.7 14.3,-3.6 21.300004,-6 0.6,-0.4 1.1,-0.7 1.7,-1.1 0.9,-0.4 1.7,-1.3 2.8,-1.9 1.5,-1.1 2.6,-2.4 3.2,-4.3 0,-0.2 -0.2,-0.4 -0.2,-0.4 -2.4,2.6 -5.3,4.7 -8.3,6.2 -4.000004,2.1 -8.300004,1.7 -12.400004,2.3 0.2,-0.4 0.6,-0.4 0.9,-0.4 0,-0.6 0.4,-0.8 0.8,-1.1 h 0.6 c 0.2,0 0.2,-0.4 0.4,-0.4 0.4,0 0.9,-0.2 0.8,-0.2 -0.6,-0.8 -1.7,0.6 -2.6,0 0.4,-0.4 0.2,-0.9 0.6,-1.1 h 0.8 c 0,-0.4 0.4,-0.8 0.4,-0.8 2.8,-1.7 5.5,-3 8.100004,-4.5 -0.6,0 -0.9,0.6 -1.500004,0.2 0.4,0 0,-0.6 0.4,-0.6 2.100004,-0.6 3.800004,-1.7 5.800004,-2.4 -0.8,0 -1.3,0.6 -2.1,0 0.4,-0.2 0.6,-0.6 1.1,-0.6 V 0.2 c 0,-0.2 0.2,-0.2 0.4,-0.2 -0.2,0 -0.4,-0.2 -0.4,-0.2 0.2,-0.4 0.8,-0.2 1.1,-0.6 -0.2,0 -0.6,0 -0.6,-0.2 0.6,-0.8 1.5,-0.9 2.4,-1.1 -0.2,-0.4 -0.8,0 -0.8,-0.4 0,-0.2 0.2,-0.2 0.4,-0.2 h -0.4 c -0.4,-0.2 -0.2,-0.6 -0.2,-0.8 1.1,-1.3 1.1,-3 1.7,-4.5 -0.2,0 -0.4,0 -0.4,-0.2 -1.9,2.1 -4.9,2.8 -7.7,3.6 h -0.900004 c -0.9,0.4 -2.3,0.4 -3.2,-0.2 -0.8,-0.4 -1.1,-0.9 -1.9,-1.5 -1.5,-0.9 -3,-1.7 -4.7,-2.3 -4.7,-1.5 -9.6,-2.3 -14.5,-2.1 2.1,-1.1 4.4,-1.2 6.6,-1.9 3.2,-0.9 6.2,-2.1 9.6,-1.9 -0.6,-0.2 -1.3,0 -1.9,0 -2.6,-0.2 -5.3,0.6 -8.1,1.1 -1.9,0.4 -3.6,1.1 -5.5,1.5 -1.1,0.4 -1.7,1.5 -3,1.3 v -0.6 c 1.9,-2.3 4.1,-4.5 7.2,-4.7 3.4,-0.6 6.6,0 10,0.4 2.4,0.2 4.7,0.8 7.2,1.3 0.9,0 1.1,1.5 1.9,1.7 1.100004,0.4 2.300004,0 3.400004,0.8 0,-0.4 -0.2,-0.8 0,-1.1 0.8,-0.8 1.7,0.2 2.4,-0.2 1.5,-0.9 -1.3,-2.6 -2.1,-4 0,-0.2 0.2,-0.4 0.2,-0.4 1.5,1.3 2.6,2.8 4.5,3.8 0.9,0.4 3.2,0.9 2.8,-0.2 -0.9,-2.1 -2.8,-3.8 -4.3,-5.6 v -0.8 c -0.4,0 -0.4,-0.2 -0.6,-0.4 v -0.8 c -0.8,-0.4 -0.6,-1.1 -0.9,-1.7 -0.6,-0.9 -0.2,-2.3 -0.6,-3.4 -0.4,-1.1 -0.6,-2.1 -0.8,-3.2 -0.6,-3.2 -1.3,-6 -1.7,-9 -0.4,-3.6 2.1,-6.4 3.8,-9.6 1.3,-2.3 2.8,-4.5 5.3,-6 0.6,-2.3 2.1,-4.1 3.6,-6 1.5,-1.8 4,-3 5.8,-3.8 2.6,-1.2 5,-1.9 5,-1.9 H -5.2496138 V 33.6 H 87.150386 c 3.6,-2.6 7.2,-3.8 12.2,-6.3 2.300004,-1 7.700004,-3.5 9.500004,-5.3 M 79.850386,8.5 c -0.4,0 -1.1,0.2 -0.9,-0.2 0.2,-0.9 1.5,-0.9 2.3,-1.3 0.4,-0.2 0.9,-0.6 1.3,-0.4 0.4,0.6 0.9,0.4 1.3,0.8 -1.1,1.1 -2.6,0.5 -4,1.1 m -28.8,-4.1 c 0,0 -0.2,-0.2 -0.2,-0.4 2.5,-3.2 4.3,-6.2 6,-9.6 2.5,-1.3 4.6,-3.3 6.5,-5.3 3.2,-3.4 6.6,-6.4 10.5,-8.3 1.5,-0.6 3.4,-0.4 4.9,0.2 -0.6,0.8 -1.5,0.6 -2.3,1.1 -0.2,0 -0.4,0 -0.6,-0.2 0.2,-0.2 0.2,-0.4 0.2,-0.6 -1.9,2.1 -4.5,3 -6,5.5 -1.1,1.9 -1.9,4.3 -4.3,4.9 -0.8,0.2 0.2,-0.6 -0.2,-0.4 -5.8,3.6 -9.9,8 -14.5,13.1 m 15.7,-12.5 c -0.2,0.4 -0.4,0.4 -0.6,0.7 -0.2,0.4 -0.4,0.6 -0.8,0.8 -0.2,0 -0.4,0 -0.4,-0.2 0.2,-0.8 0.8,-1.5 1.5,-1.7 0.3,0.1 0.3,0.2 0.3,0.4 m 8.7,28.2 c -0.1,0.2 -0.3,0.4 -0.5,0.5 0.2,0 0.4,0.1 0.2,0.3 -0.4,0.4 -0.9,0.8 -1.4,1 h -0.3 c -0.2,0.2 -0.5,0.4 -0.7,0.7 -0.2,0.2 -1.3,0.1 -0.9,-0.2 0.5,-0.4 0.9,-0.9 1.4,-1.3 0.3,-0.2 0.5,-0.5 0.8,-0.7 0.1,-0.2 0.2,-0.3 0.4,-0.4 0.2,-0.1 1.2,-0.2 1,0.1 m -3.4,-1.5 c -0.8,0.5 -1.5,1 -2.2,1.5 -0.8,0.5 -1.6,0.8 -2.5,1.2 0,-0.2 -0.2,-0.2 -0.3,-0.2 -0.7,0.4 -1.3,0.9 -1.9,1.4 l -0.3,0.3 -0.3,0.3 -0.4,0.4 c -0.1,0.1 -0.1,0.2 -0.3,0.3 -0.1,0.1 -0.4,0.1 -0.4,-0.1 -0.1,0.1 -0.2,0.1 -0.3,0.2 -0.1,0.1 -0.2,0.1 -0.3,0.2 h -0.1 -0.1 c -0.2,0.2 -0.5,0.4 -0.7,0.6 -0.4,0.4 -0.8,0.7 -1.1,1.2 V 26 l -0.1,0.1 c 0,0 0,0.1 -0.1,0.1 0,0.1 -0.1,0.1 -0.1,0.2 0,0 -0.1,0.1 -0.2,0.1 l -0.1,-0.1 c 0,0 0,-0.1 -0.1,-0.1 -0.1,-0.1 -0.1,-0.2 -0.2,-0.3 v -0.1 c 0.2,-0.2 0.4,-0.4 0.6,-0.7 0.1,-0.1 0.1,-0.2 0.2,-0.2 0.1,-0.1 0.2,-0.3 0.3,-0.4 0,-0.1 0.1,-0.1 0.1,-0.1 0.2,-0.3 0.4,-0.5 0.6,-0.8 l 0.1,-0.1 c 0.1,-0.1 0.2,-0.3 0.3,-0.4 0.1,-0.1 0.1,-0.3 0.2,-0.4 v -0.1 c 0.1,-0.1 0.1,-0.3 0.2,-0.4 v -0.1 -0.1 c 0,-0.1 0,-0.1 0.1,-0.2 0,-0.1 0,-0.2 0.1,-0.3 v -0.1 c 0.2,-0.4 0.5,-0.7 0.8,-1 0,0 -0.1,0 -0.1,0.1 -0.3,0.2 -0.5,0.4 -0.7,0.6 -0.2,0.2 -0.6,-0.1 -0.3,-0.3 0.2,-0.1 0.3,-0.3 0.4,-0.4 0.3,-0.3 0.6,-0.7 1,-1 0.2,-0.2 0.4,-0.3 0.6,-0.4 0,0 0.1,0 0.1,-0.1 0.1,-0.2 0.3,-0.3 0.4,-0.5 1.8,-1.7 4.8,-1.7 7.2,-2.8 0.9,-0.4 2.1,0.2 3,0 0.6,0 1.1,0 1.7,0.4 -1.7,0.5 -3.2,1.5 -4.8,2.5 m 3.9,-13.1 c -0.2,-0.2 0.6,0 0.8,-0.4 h -1.5 c -0.2,0 -0.2,-0.2 -0.2,-0.4 -0.9,0.2 -2.1,0.6 -3,0.7 -1.3,0.4 -2.4,1.3 -4,1.7 -2.1,0.8 -3.8,2.4 -6,3.2 -0.2,0 -0.2,-0.2 -0.2,-0.4 0.2,-0.6 0.9,-0.7 1.3,-1.3 0,-0.2 0,-0.4 -0.2,-0.4 1.5,-2.1 3.6,-3.2 5.5,-4.9 V 2.7 c 0.6,-0.8 1.5,-1.1 1.9,-2.1 0.2,-0.6 0.9,-1.3 1.9,-1.7 -0.2,-0.2 -0.6,-0.2 -0.6,-0.6 -0.8,0 -1.5,0.4 -2.3,-0.2 0.4,-0.4 0.8,-0.5 1.2,-0.7 -0.2,0 -0.3,-0.1 -0.4,-0.3 -0.2,-0.4 0.4,-0.8 0.9,-0.9 0.8,-0.2 1.7,-0.2 2.3,-0.8 -1.3,-0.2 -2.8,0.4 -4.1,-0.4 0.9,-2.4 2.4,-4.5 4.7,-5.6 0.2,0 0.6,0 0.6,0.2 0,0.9 -0.6,1.7 -1.5,1.9 1.5,0.4 3,0.4 4.5,1.1 -0.2,0.4 -0.6,0.2 -0.8,0.2 0.9,0.6 2.1,0.2 3,0.9 -0.6,0.6 -1.1,0 -1.7,0 5.8,1.7 12,3 16.9,6.8 -4.1,2.1 -8.5,3 -13,4 -0.6,0 -0.9,0 -1.5,-0.2 0,0.2 0,0.6 -0.2,0.6 -0.8,0 -1.3,0 -1.9,0.4 -0.7,0.6 -1.8,0.7 -2.4,0.2"
     fill="#000091"
     id="path22" /><path
     d="m 269.55039,-65.9 h -107.2 c 0,0 0.2,0 1,0.5 0.9,0.5 2,1.1 2.7,1.4 1.4,0.7 2.7,1.6 3.6,3 0.4,0.6 0.9,1.7 0.6,2.4 -0.4,0.9 -0.6,2.4 -1.5,2.8 -1.1,0.6 -2.6,0.6 -4,0.4 -0.8,0 -1.5,-0.2 -2.3,-0.4 2.8,1.1 5.5,2.4 7.3,5.1 0.2,0.4 0.9,0.6 1.7,0.6 0.2,0 0.2,0.4 0.2,0.6 -0.4,0.4 -0.8,0.6 -0.6,1.1 h 0.6 c 0.9,-0.4 0.8,-2.3 2.1,-1.7 0.9,0.6 1.3,1.9 0.8,2.8 -0.8,0.7 -1.5,1.3 -2.3,1.9 -0.2,0.4 -0.2,0.9 0,1.3 0.6,0.8 0.8,1.5 0.9,2.3 0.6,1.3 0.8,2.8 1.3,4.1 0.8,2.8 1.5,5.7 1.3,8.5 0,1.5 -0.8,2.8 -0.2,4.3 0.4,1.5 1.3,2.6 2.1,4 0.8,1.1 1.5,1.9 2.1,3 1.1,1.9 3.2,3.8 2.3,6 -0.6,1.3 -2.6,1.1 -4,1.9 -1.1,0.9 -0.2,2.4 0.4,3.4 0.9,1.7 -1.1,2.8 -2.4,3.4 0.4,0.6 1.1,0.4 1.3,0.8 0.2,0.9 1.1,1.5 0.6,2.4 -0.8,1.1 -3,1.7 -1.9,3.4 0.8,1.3 0.3,2.8 -0.2,4.1 -0.6,1.7 -2.1,2.4 -3.4,2.8 -1.1,0.4 -2.4,0.4 -3.6,0.2 -0.4,-0.2 -0.8,-0.4 -1.1,-0.4 -3.2,-0.4 -6.4,-1.3 -9.6,-1.3 -0.9,0.2 -1.9,0.4 -2.6,0.8 -0.9,0.6 -1.6,1.3 -2.3,2 -0.1,0.2 -0.3,0.3 -0.4,0.5 -0.1,0.1 -0.2,0.2 -0.2,0.3 l -0.2,0.2 c -0.5,0.7 -1,1.4 -1.5,2.2 l -0.1,0.1 c 0,0.1 -0.1,0.2 -0.1,0.3 -0.6,1.1 -1.1,2.3 -1.4,3.5 -1.3,4.3 -0.7,8 0.2,8.9 0.2,0.2 6.2,2.1 10.4,3.9 2,0.9 3.3,1.5 4.4,2.2 h 105.3 v -99.6 z"
     fill="#e1000f"
     id="path24" /><path
     d="m 168.75039,-29.6 c 0.8,0.2 1.9,0.2 1.9,0.6 -0.4,1.5 -2.6,1.9 -3.8,3.4 h -0.6 c -0.6,0.4 -0.4,1.3 -0.9,1.3 -0.6,-0.2 -1.1,0 -1.7,0.2 0.8,0.8 1.7,1.3 2.8,1.1 0.2,0 0.6,0.4 0.6,0.8 0,0 0.2,0 0.4,-0.2 0.2,0 0.4,0 0.4,0.2 v 0.8 c -0.6,0.7 -1.5,0.4 -2.3,0.6 1.5,0.4 3,0.4 4.3,0 1.1,-0.4 0,-2.3 0.8,-3.2 -0.4,0 0,-0.6 -0.4,-0.6 0.4,-0.4 0.8,-0.9 1.1,-1.1 0.4,0 0.9,-0.2 1.1,-0.6 0,-0.4 -0.8,-0.6 -0.6,-0.9 1.1,-0.8 2.1,-1.9 1.7,-3 -0.2,-0.6 -1.7,-0.6 -2.6,-0.9 -0.9,-0.4 -2.1,0 -3.2,0.2 -0.9,0 -1.9,0.6 -2.8,0.7 -1.3,0.4 -2.4,1.1 -3.6,1.9 1.3,-0.6 2.6,-0.8 4.1,-1.1 1.2,-0.2 2.2,-0.4 3.3,-0.2"
     fill="#808080"
     id="path26" /></svg>
