<svg width="216" height="60" fill="none" xmlns="http://www.w3.org/2000/svg"><path fill="#0000DF" d="M0 0h216v60H0z"/><path d="M74.085 26.3c.517 0 .998-.08 1.443-.237a3.332 3.332 0 0 0 1.147-.675c.321-.293.574-.644.76-1.055.186-.41.279-.864.279-1.359 0-.945-.293-1.67-.878-2.177a9.61 9.61 0 0 0-1.916-1.291 30.797 30.797 0 0 1-1.916-1.064c-.585-.354-.877-.846-.877-1.477 0-.483.166-.891.498-1.223.332-.332.773-.498 1.325-.498a2.6 2.6 0 0 1 1.409.396c.422.265.807.645 1.156 1.14l1.182-1.03a5.289 5.289 0 0 0-1.587-1.392c-.619-.355-1.345-.532-2.177-.532a3.67 3.67 0 0 0-1.376.253 3.411 3.411 0 0 0-1.089.684c-.303.287-.54.624-.709 1.012A3.038 3.038 0 0 0 70.507 17c0 .934.293 1.654.878 2.16a9.619 9.619 0 0 0 1.916 1.292c.692.354 1.33.709 1.916 1.063.585.355.877.847.877 1.477 0 .54-.177.99-.532 1.35-.354.36-.852.54-1.493.54a3.184 3.184 0 0 1-1.561-.405c-.49-.27-.943-.663-1.36-1.181L70 24.358c.518.642 1.108 1.125 1.772 1.452.664.326 1.435.49 2.313.49zm6.65-7.613l1.738-4.524h-1.637l-1.434 4.524h1.333zm4.793-3.426a.95.95 0 0 0 .71-.296.991.991 0 0 0 .286-.717.971.971 0 0 0-.287-.7.95.95 0 0 0-.709-.296.977.977 0 0 0-.717.295.957.957 0 0 0-.295.7c0 .282.098.521.295.718a.977.977 0 0 0 .717.296zm.71 10.718v-8.507h-1.435v8.507h1.434zm6.683.337a4.22 4.22 0 0 0 1.68-.329c.512-.22.959-.537 1.342-.954v.946h1.434v-12.66h-1.434v5.098a3.885 3.885 0 0 0-1.342-.954 4.22 4.22 0 0 0-1.68-.329c-.664 0-1.266.124-1.806.371-.54.248-.998.58-1.375.996-.377.417-.67.903-.878 1.46a4.996 4.996 0 0 0-.312 1.764c0 .619.104 1.207.312 1.764.208.557.5 1.044.878 1.46a4.18 4.18 0 0 0 1.375.996c.54.247 1.142.371 1.806.371zm.169-1.35c-.45 0-.861-.085-1.232-.253a2.87 2.87 0 0 1-.954-.692 3.156 3.156 0 0 1-.616-1.03 3.608 3.608 0 0 1-.22-1.266c0-.45.074-.872.22-1.266.147-.394.352-.737.616-1.03.265-.292.583-.523.954-.691a2.941 2.941 0 0 1 1.232-.254 3.3 3.3 0 0 1 1.604.405c.495.27.911.664 1.249 1.182v3.308a3.456 3.456 0 0 1-1.233 1.173 3.274 3.274 0 0 1-1.62.414zm11.224 1.35c.788 0 1.494-.157 2.119-.473a4.268 4.268 0 0 0 1.527-1.265l-1.063-.827a3.117 3.117 0 0 1-2.549 1.265c-.945 0-1.713-.306-2.304-.92-.59-.613-.886-1.386-.886-2.32v-.034h6.515c.023-.113.045-.25.068-.414a3.984 3.984 0 0 0-.236-1.975 3.345 3.345 0 0 0-.768-1.172 3.555 3.555 0 0 0-1.207-.768 4.26 4.26 0 0 0-1.57-.279c-.653 0-1.246.118-1.781.355-.534.236-.984.56-1.35.97-.366.41-.65.898-.852 1.46a5.28 5.28 0 0 0-.304 1.806c0 .619.107 1.207.321 1.764.213.557.52 1.044.919 1.46.4.416.889.748 1.469.996.579.247 1.224.371 1.932.371zm2.009-5.705h-5.047c.169-.731.49-1.288.962-1.67.473-.383 1.052-.575 1.739-.575.698 0 1.257.223 1.679.667.422.444.645.97.667 1.578zm5.317 5.368v-5.891c.27-.45.61-.83 1.021-1.14.411-.309.92-.464 1.528-.464.652 0 1.175.211 1.569.633.394.422.591 1.01.591 1.764v5.098h1.452V20.83c0-1.204-.318-2.122-.954-2.752-.636-.63-1.426-.945-2.372-.945-.63 0-1.173.121-1.628.363a4.436 4.436 0 0 0-1.207.937v-.962h-1.435v8.507h1.435zm12.49.168c.304 0 .574-.02.81-.059.237-.04.456-.098.659-.177v-1.283a2.363 2.363 0 0 1-.541.152 4.48 4.48 0 0 1-.725.05c-.518 0-.931-.117-1.241-.354-.309-.236-.464-.686-.464-1.35v-4.338h2.954v-1.316h-2.954v-2.127h-1.452v2.127h-1.603v1.316h1.603v4.338c0 1.035.256 1.798.768 2.287.512.49 1.241.734 2.186.734zm4.372-10.886a.95.95 0 0 0 .709-.296.993.993 0 0 0 .287-.717.972.972 0 0 0-.287-.7.95.95 0 0 0-.709-.296.977.977 0 0 0-.718.295.956.956 0 0 0-.295.7c0 .282.098.521.295.718a.977.977 0 0 0 .718.296zm.709 10.718v-8.507h-1.435v8.507h1.435zm4.979 0v-7.19h2.954v-1.317h-2.954v-1.08c0-.552.149-.985.447-1.3.298-.315.678-.473 1.139-.473.293 0 .543.054.752.16.208.107.385.245.531.414l.895-1.046a2.784 2.784 0 0 0-.929-.6 3.315 3.315 0 0 0-1.265-.228c-.912 0-1.643.29-2.195.87-.551.58-.827 1.325-.827 2.236v1.047h-1.603v1.316h1.603v7.19h1.452zm5.435-10.718a.95.95 0 0 0 .709-.296.993.993 0 0 0 .287-.717.972.972 0 0 0-.287-.7.95.95 0 0 0-.709-.296.977.977 0 0 0-.718.295.96.96 0 0 0-.295.7c0 .282.099.521.295.718a.977.977 0 0 0 .718.296zm.709 10.718v-8.507h-1.435v8.507h1.435zm6.954.337c.787 0 1.493-.157 2.118-.473a4.263 4.263 0 0 0 1.528-1.265l-1.064-.827a3.117 3.117 0 0 1-2.549 1.265c-.945 0-1.713-.306-2.303-.92-.591-.613-.887-1.386-.887-2.32v-.034h6.516a7.17 7.17 0 0 0 .067-.414 3.984 3.984 0 0 0-.236-1.975 3.345 3.345 0 0 0-.768-1.172 3.546 3.546 0 0 0-1.207-.768 4.26 4.26 0 0 0-1.57-.279c-.652 0-1.246.118-1.78.355-.535.236-.985.56-1.351.97-.365.41-.65.898-.852 1.46a5.28 5.28 0 0 0-.304 1.806c0 .619.107 1.207.321 1.764.214.557.52 1.044.92 1.46.399.416.889.748 1.468.996.58.247 1.224.371 1.933.371zm2.008-5.705h-5.046c.168-.731.489-1.288.962-1.67.472-.383 1.052-.575 1.738-.575.698 0 1.258.223 1.68.667.422.444.644.97.666 1.578zm5.317 5.368v-5.773c.259-.428.58-.774.962-1.038.383-.264.85-.397 1.401-.397.169 0 .321.012.456.034.135.023.264.05.388.085v-1.486a1.859 1.859 0 0 0-.338-.076 2.858 2.858 0 0 0-.388-.025c-.54 0-1.01.112-1.409.337-.4.226-.757.524-1.072.895v-1.063h-1.435v8.507h1.435zm12.153.337c.574 0 1.114-.124 1.62-.371a3.185 3.185 0 0 0 1.232-1.047v1.08h1.435v-5.705c0-.933-.304-1.69-.911-2.27-.608-.58-1.452-.869-2.532-.869-.743 0-1.407.146-1.992.439a3.931 3.931 0 0 0-1.435 1.198l1.081.827c.247-.37.571-.66.97-.869.4-.208.847-.312 1.342-.312.596 0 1.086.163 1.468.49.383.326.574.781.574 1.366v.591l-2.852.473c-.912.146-1.607.444-2.085.895a2.184 2.184 0 0 0-.717 1.654c0 .742.259 1.333.776 1.772.518.439 1.193.658 2.026.658zm.236-1.198c-.484 0-.872-.124-1.165-.372-.292-.247-.438-.551-.438-.911 0-.371.137-.686.413-.945.276-.26.706-.434 1.291-.524l2.515-.438v1.62a3.43 3.43 0 0 1-1.105 1.148 2.766 2.766 0 0 1-1.511.422zm10.802.86l3.326-8.506h-1.553l-2.718 7.004-2.717-7.004h-1.553l3.325 8.507h1.89zm8.862.338c.787 0 1.494-.157 2.118-.473a4.263 4.263 0 0 0 1.528-1.265l-1.064-.827a3.117 3.117 0 0 1-2.548 1.265c-.946 0-1.714-.306-2.304-.92-.591-.613-.887-1.386-.887-2.32v-.034h6.516a7.17 7.17 0 0 0 .067-.414 3.984 3.984 0 0 0-.236-1.975 3.345 3.345 0 0 0-.768-1.172 3.546 3.546 0 0 0-1.207-.768 4.26 4.26 0 0 0-1.57-.279c-.652 0-1.246.118-1.78.355-.535.236-.985.56-1.351.97-.365.41-.649.898-.852 1.46a5.28 5.28 0 0 0-.304 1.806c0 .619.107 1.207.321 1.764.214.557.52 1.044.92 1.46.399.416.889.748 1.468.996.58.247 1.224.371 1.933.371zm2.008-5.705h-5.046c.168-.731.489-1.288.962-1.67.472-.383 1.052-.575 1.738-.575.698 0 1.258.223 1.68.667.422.444.644.97.666 1.578zm7.748 5.705c.776 0 1.468-.157 2.076-.473A4.331 4.331 0 0 0 200 24.578l-1.148-.878a2.9 2.9 0 0 1-1.012.92c-.417.23-.884.346-1.401.346a3.074 3.074 0 0 1-2.254-.937 3.138 3.138 0 0 1-.65-1.03 3.453 3.453 0 0 1-.236-1.274 3.387 3.387 0 0 1 .878-2.295c.27-.293.599-.524.987-.692a3.121 3.121 0 0 1 1.258-.254 2.89 2.89 0 0 1 2.43 1.266l1.148-.877a4.464 4.464 0 0 0-1.511-1.258c-.613-.32-1.302-.48-2.067-.48a4.77 4.77 0 0 0-1.908.37c-.573.248-1.06.58-1.46.996a4.43 4.43 0 0 0-.928 1.46 4.777 4.777 0 0 0-.329 1.764c0 .619.11 1.207.329 1.764a4.43 4.43 0 0 0 .928 1.46c.4.416.887.748 1.46.996.574.247 1.21.371 1.908.371zM72.56 45.018v-5.335h4.073v-2.181H72.56v-2.92h4.794V32.4H70v12.617h2.56zm8.652 0v-5.696c.168-.276.435-.54.802-.793.367-.252.826-.378 1.379-.378.204 0 .388.012.55.036.162.024.315.054.46.09v-2.398a2.426 2.426 0 0 0-.793-.126c-.517 0-.971.105-1.362.316-.39.21-.736.465-1.036.766v-.901h-2.29v9.084h2.29zm7.192.36c.529 0 1.04-.11 1.532-.333.493-.222.883-.513 1.172-.874v.847h2.307v-5.876c0-.493-.084-.958-.252-1.397a3.099 3.099 0 0 0-.748-1.136 3.553 3.553 0 0 0-1.253-.757c-.505-.186-1.082-.279-1.73-.279-.818 0-1.554.162-2.209.487a4.344 4.344 0 0 0-1.595 1.316l1.695 1.28a2.07 2.07 0 0 1 .838-.803c.354-.186.754-.28 1.198-.28.517 0 .938.142 1.262.425.325.282.487.663.487 1.144v.234l-2.74.47c-.973.155-1.721.486-2.244.99-.523.505-.784 1.1-.784 1.785 0 .853.285 1.526.856 2.019.57.493 1.307.739 2.208.739zm.469-1.838c-.385 0-.691-.096-.92-.288a.905.905 0 0 1-.342-.721c0-.288.105-.529.315-.721.21-.192.556-.33 1.037-.415l2.145-.378v1.243a2.862 2.862 0 0 1-.901.92c-.373.24-.818.36-1.334.36zm9.445 1.478v-5.93c.168-.288.418-.586.748-.892.331-.307.784-.46 1.361-.46.553 0 .988.177 1.307.532.318.354.478.832.478 1.433v5.317h2.325v-5.407c0-.673-.093-1.262-.28-1.767a3.629 3.629 0 0 0-.757-1.261 3.074 3.074 0 0 0-1.117-.758 3.726 3.726 0 0 0-1.379-.252c-.601 0-1.121.105-1.559.316a4.28 4.28 0 0 0-1.127.766v-.721h-2.289v9.084h2.289zm13.177.36c.829 0 1.571-.167 2.226-.504a4.673 4.673 0 0 0 1.613-1.334l-1.82-1.388a2.573 2.573 0 0 1-.839.766 2.311 2.311 0 0 1-1.18.298c-.757 0-1.385-.258-1.884-.775-.499-.517-.748-1.172-.748-1.965 0-.793.246-1.448.739-1.965.493-.517 1.112-.775 1.857-.775.468 0 .874.1 1.216.297.343.199.622.454.839.767l1.82-1.388a4.673 4.673 0 0 0-1.613-1.334c-.655-.337-1.397-.505-2.226-.505-.781 0-1.484.132-2.109.397a4.673 4.673 0 0 0-1.577 1.063 4.605 4.605 0 0 0-.983 1.56 5.218 5.218 0 0 0-.342 1.883c0 .66.114 1.289.342 1.884.228.595.556 1.114.983 1.559.426.445.952.799 1.577 1.063.625.265 1.328.397 2.109.397zm9.589 0c.854 0 1.623-.164 2.308-.495a4.42 4.42 0 0 0 1.658-1.343l-1.64-1.297a2.63 2.63 0 0 1-.956.784 2.939 2.939 0 0 1-1.334.297c-.769 0-1.4-.21-1.892-.63-.493-.422-.775-1.004-.848-1.75h6.363a5.902 5.902 0 0 0 .145-1.297c0-1.19-.385-2.166-1.154-2.93-.769-.762-1.778-1.144-3.028-1.144-.745 0-1.406.13-1.983.388a4.254 4.254 0 0 0-1.46 1.054c-.397.445-.7.964-.91 1.56a5.646 5.646 0 0 0-.316 1.901c0 .66.111 1.289.334 1.884a4.49 4.49 0 0 0 .973 1.559c.427.445.955.799 1.586 1.063.631.265 1.349.397 2.154.397zm1.532-6.164h-4.091c.156-.589.42-1.024.793-1.307.372-.282.835-.423 1.388-.423.601 0 1.066.177 1.397.532.33.354.501.754.513 1.198zm10.69 6.165c1.141 0 2.169-.234 3.082-.703a6.313 6.313 0 0 0 2.235-1.875l-2.019-1.55c-.36.517-.82.934-1.379 1.253-.558.318-1.198.477-1.919.477a4.027 4.027 0 0 1-1.641-.333 3.905 3.905 0 0 1-1.289-.901 4.2 4.2 0 0 1-.838-1.352 4.595 4.595 0 0 1-.306-1.686c0-.6.102-1.162.306-1.685.205-.523.484-.973.838-1.352a3.902 3.902 0 0 1 1.289-.901 4.027 4.027 0 0 1 1.641-.334c.721 0 1.361.16 1.919.478a4.176 4.176 0 0 1 1.379 1.253l2.019-1.568c-.577-.757-1.322-1.373-2.235-1.848-.913-.475-1.941-.712-3.082-.712-.986 0-1.893.18-2.722.54a6.659 6.659 0 0 0-2.127 1.443 6.362 6.362 0 0 0-1.37 2.118 6.842 6.842 0 0 0-.487 2.569c0 .9.162 1.757.487 2.568a6.36 6.36 0 0 0 1.37 2.118 6.66 6.66 0 0 0 2.127 1.442c.829.36 1.736.54 2.722.54zm11.374 0c.733 0 1.406-.13 2.019-.388a4.9 4.9 0 0 0 1.577-1.045 4.59 4.59 0 0 0 1.018-1.56c.241-.6.361-1.237.361-1.91 0-.673-.12-1.31-.361-1.91-.24-.602-.58-1.121-1.018-1.56a4.898 4.898 0 0 0-1.577-1.045 5.146 5.146 0 0 0-2.019-.388c-.733 0-1.406.13-2.019.388a4.877 4.877 0 0 0-1.577 1.045 4.59 4.59 0 0 0-1.019 1.56c-.24.6-.36 1.237-.36 1.91 0 .673.12 1.31.36 1.91.241.601.58 1.121 1.019 1.56.438.439.964.787 1.577 1.045a5.148 5.148 0 0 0 2.019.388zm.036-2.163c-.757 0-1.385-.258-1.884-.775-.499-.517-.748-1.172-.748-1.965 0-.793.249-1.448.748-1.965.499-.517 1.127-.775 1.884-.775.721 0 1.328.259 1.82.775.493.517.739 1.172.739 1.965 0 .781-.246 1.433-.739 1.956a2.4 2.4 0 0 1-1.82.784zm9.319 1.802v-5.93c.168-.288.418-.586.748-.892.33-.307.784-.46 1.361-.46.553 0 .988.177 1.307.532.318.354.477.832.477 1.433v5.317h2.326v-5.407c0-.673-.093-1.262-.28-1.767a3.629 3.629 0 0 0-.757-1.261 3.074 3.074 0 0 0-1.117-.758 3.73 3.73 0 0 0-1.379-.252c-.601 0-1.121.105-1.559.316-.439.21-.815.465-1.127.766v-.721h-2.289v9.084h2.289zm11.104 0v-5.93c.168-.288.417-.586.748-.892.33-.307.784-.46 1.361-.46.552 0 .988.177 1.306.532.319.354.478.832.478 1.433v5.317h2.325v-5.407c0-.673-.093-1.262-.279-1.767a3.644 3.644 0 0 0-.757-1.261 3.069 3.069 0 0 0-1.118-.758 3.722 3.722 0 0 0-1.379-.252c-.6 0-1.12.105-1.559.316-.438.21-.814.465-1.126.766v-.721h-2.29v9.084h2.29zm13.212.36c.854 0 1.623-.164 2.308-.495a4.42 4.42 0 0 0 1.658-1.343l-1.64-1.297a2.63 2.63 0 0 1-.956.784 2.939 2.939 0 0 1-1.334.297c-.769 0-1.4-.21-1.892-.63-.493-.422-.775-1.004-.847-1.75h6.363a6.257 6.257 0 0 0 .144-1.297c0-1.19-.385-2.166-1.154-2.93-.769-.762-1.778-1.144-3.028-1.144-.745 0-1.406.13-1.983.388a4.264 4.264 0 0 0-1.46 1.054c-.397.445-.7.964-.91 1.56a5.646 5.646 0 0 0-.316 1.901c0 .66.111 1.289.334 1.884a4.49 4.49 0 0 0 .973 1.559c.427.445.955.799 1.586 1.063.631.265 1.349.397 2.154.397zm1.533-6.164h-4.092c.156-.589.42-1.024.793-1.307.372-.282.835-.423 1.388-.423.601 0 1.066.177 1.397.532.33.354.502.754.514 1.198zm8.796 6.165c.829 0 1.571-.168 2.226-.505a4.673 4.673 0 0 0 1.613-1.334l-1.82-1.388a2.57 2.57 0 0 1-.838.766 2.315 2.315 0 0 1-1.181.298c-.757 0-1.385-.258-1.884-.775-.498-.517-.748-1.172-.748-1.965 0-.793.247-1.448.739-1.965.493-.517 1.112-.775 1.857-.775.469 0 .874.1 1.217.297.342.199.622.454.838.767l1.82-1.388a4.673 4.673 0 0 0-1.613-1.334c-.655-.337-1.397-.505-2.226-.505-.781 0-1.484.132-2.109.397a4.673 4.673 0 0 0-1.577 1.063 4.62 4.62 0 0 0-.983 1.56 5.218 5.218 0 0 0-.342 1.883c0 .66.114 1.289.342 1.884a4.62 4.62 0 0 0 .983 1.559c.426.445.952.799 1.577 1.063.625.265 1.328.397 2.109.397zm9.572-.18c.372 0 .7-.024.982-.072.282-.049.538-.12.766-.217v-2c-.156.06-.342.108-.559.144a4.91 4.91 0 0 1-.793.054c-.445 0-.796-.108-1.054-.325-.259-.216-.388-.577-.388-1.081v-3.677h2.776v-2.091h-2.776v-2.272h-2.307v2.272h-1.695v2.09h1.695v3.678c0 1.105.276 1.965.829 2.577.553.613 1.394.92 2.524.92zM35.365 4.867c-.243-.144-.679-.144-.921 0L13.212 17.06a.98.98 0 0 0-.436.771V42.17c0 .289.194.626.436.77l21.232 12.194c.242.144.678.144.92 0L56.598 42.94a.98.98 0 0 0 .436-.771V17.83a.98.98 0 0 0-.436-.77L35.365 4.866z" fill="#fff"/><path d="M34.872 49.678l-16.59-9.52c-.193-.097-.338-.387-.338-.58V20.826c0-.242.145-.483.338-.58l16.59-9.694" fill="#0063CB"/><path d="M17.946 39.493l-.002-18.777c0-.242.145-.484.338-.58l16.59-9.583" fill="#000091"/><path fill-rule="evenodd" clip-rule="evenodd" d="M28.945 20.711l-5.564 9.54-5.042-10.15 5.964-3.445 4.966 3.494-.324.561z" fill="#E1000F"/><path d="M34.87 49.679l16.592-9.634c.193-.096.338-.386.338-.58V20.738a.67.67 0 0 0-.338-.579l-16.59-9.606" fill="#000091"/><path d="M51.8 39.493V20.73a.669.669 0 0 0-.338-.579l-16.59-9.598" fill="#E1000F"/><path fill-rule="evenodd" clip-rule="evenodd" d="M40.355 19.951l5.96 10.22 4.967-10.124-6.041-3.495-4.886 3.4z" fill="#0063CB"/><path fill-rule="evenodd" clip-rule="evenodd" d="M41.16 19.567c.39.195.751.446 1.002.837.11.167.25.474.167.698-.112.25-.167.697-.418.78-.306.168-.724.168-1.113.112-.223 0-.418-.055-.64-.111.779.307 1.53.697 2.06 1.423.055.111.25.167.472.167.056 0 .056.112.056.168-.111.111-.223.167-.167.306h.167c.25-.111.223-.641.584-.474.251.168.362.53.223.782-.223.223-.417.362-.64.53a.414.414 0 0 0 0 .362c.167.224.223.419.25.642.167.363.223.781.363 1.172.222.781.417 1.59.361 2.372 0 .418-.222.78-.055 1.2.11.418.361.725.584 1.115.223.308.417.53.584.838.068.117.15.235.234.354l.083.119c.263.378.5.769.324 1.2-.167.364-.724.308-1.114.53-.306.252-.055.699.111.95.251.474-.305.78-.695.948.111.168.306.112.361.223.056.251.307.419.168.698-.064.088-.16.164-.256.24l-.073.056c-.214.17-.397.347-.2.653.222.363.083.78-.056 1.172-.167.474-.584.697-.946.781-.306.111-.696.111-1.002.056-.111-.056-.223-.112-.306-.112-.891-.112-1.782-.363-2.672-.363-.25.056-.529.112-.724.196-.25.167-.445.362-.64.558-.028.056-.084.083-.111.14-.028.027-.056.055-.056.083l-.016.016-.023.023-.017.017c-.166.195-.278.39-.417.613 0 .028-.028.028-.028.028 0 .028-.028.056-.055.084a4.197 4.197 0 0 0-.39.977c-.362 1.2-.195 2.232.055 2.483.167.168 2.172.788 3.934 1.364-3.08 2.567-5.569 3.85-7.468 3.85-2.622 0-7.02-1.738-13.194-5.216 1.494 0 1.282.598 2.673-.098.668-.278 2.171-.974 2.672-1.475.306-.306.612-.612.89-.946a17.658 17.658 0 0 1 1.754-1.78c.195-.167.39-.334.585-.446.055-.056.055-.167.111-.222-.25.11-.418.306-.696.417-.056 0-.111-.056-.056-.111.195-.14.39-.278.557-.418h-.028c-.055 0-.055-.055-.055-.111-.696-.111-1.197.362-1.67.779-.112.056-.223-.055-.25-.055-.78.25-1.365.946-2.144 1.252v-.112c-.306.112-.612.306-.946.362-.473.111-.89.056-1.308.056-.64.055-1.28.195-1.92.334-.029 0-.029 0-.056.027a4.187 4.187 0 0 0-.974.39l-.028.028-.084.083c-.111.111-.222.25-.362.306-.333.167-.584.446-.862.696-.028.028-.056.028-.084.028-.278.278.056-.557.362-.752-.028 0-.084-.027-.056-.055.028-.056.056-.084.084-.14 0-.027 0-.027.027-.055l-.004-.016-.019-.023a.028.028 0 0 1-.004-.016l-.25.166c-.14.112-.084-.528.055-.611h-.028c.195-.112.418-.223.613-.335l.083-.083c-.306.111-.557.25-.835.417 0 0 0-.194.084-.278.055 0 .111 0 .111.056 1.01-.778 2.235-.985 3.473-1.165l.338-.05c.731-.106 1.46-.22 2.145-.455.167-.111.306-.222.473-.306.25-.111.473-.362.78-.529.417-.306.723-.695.89-1.196 0-.056-.055-.111-.055-.111a8.502 8.502 0 0 1-2.31 1.725c-1.114.584-2.31.473-3.48.64.056-.112.167-.112.25-.112 0-.166.112-.222.223-.306h.168c.055 0 .055-.11.11-.11.112 0 .279-.056.223-.056-.167-.223-.473.166-.723 0 .11-.112.055-.251.167-.307h.223c0-.11.11-.222.11-.222.78-.473 1.532-.835 2.255-1.252-.167 0-.25.167-.418.055.112 0 0-.167.112-.167.584-.166 1.058-.473 1.642-.695-.223 0-.362.167-.584 0 .11-.056.166-.167.306-.167v-.167c0-.056.055-.056.111-.056-.055 0-.111-.055-.111-.055.055-.112.223-.056.306-.167-.056 0-.167 0-.167-.056.167-.223.417-.25.696-.306-.056-.111-.223 0-.223-.111 0-.048.04-.055.088-.056h-.088c-.111-.056-.056-.167-.056-.223.306-.361.306-.835.474-1.252-.056 0-.112 0-.112-.055-.529.584-1.364.779-2.143 1.001h-.362c-.25.111-.64.111-.89-.056-.223-.11-.307-.25-.53-.417a7.111 7.111 0 0 0-1.307-.64c-1.308-.417-2.672-.64-4.036-.584.584-.306 1.225-.334 1.837-.529.89-.25 1.726-.584 2.672-.529-.167-.055-.362 0-.529 0-.724-.055-1.475.167-2.255.307-.528.11-1.002.306-1.53.417-.306.111-.473.417-.835.362v-.167c.529-.64 1.169-1.252 2.004-1.308.946-.167 1.837 0 2.783.111.696.056 1.308.223 2.004.362.25 0 .306.417.529.473.306.111.64 0 .946.222 0-.11-.056-.222 0-.305.223-.223.473.055.696-.056.417-.25-.362-.724-.585-1.113 0-.056.056-.111.056-.111.417.361.724.779 1.253 1.057.25.111.89.25.779-.056-.25-.584-.78-1.057-1.225-1.586v-.222c-.11 0-.11-.056-.167-.112v-.222c-.223-.112-.167-.306-.25-.473-.167-.25-.056-.64-.167-.946a5.162 5.162 0 0 1-.223-.89c-.167-.891-.362-1.67-.473-2.533-.111-1.002.584-1.78 1.057-2.671.362-.64.78-1.252 1.476-1.67.167-.64.584-1.168 1.001-1.67.418-.5 1.114-.834 1.615-1.057a9.119 9.119 0 0 1 1.382-.525l.01-.003c.514-.226 7.267-1.643 10.548 0 .07.035.056 0 .278.14.25.139.557.306.752.39zM15.677 34.828a.525.525 0 0 1-.412.517c.412.109.823.109 1.235.3-.055.108-.164.054-.22.054.248.163.577.054.825.245-.165.163-.302 0-.467 0 1.62.462 3.321.816 4.667 1.85-1.153.571-2.334.816-3.569 1.088-.165 0-.247 0-.412-.055 0 .055 0 .163-.055.163-.22 0-.357 0-.521.11-.193.163-.494.217-.66.054-.054-.055.166 0 .22-.109h-.411c-.055 0-.055-.055-.055-.109-.248.054-.577.163-.824.218-.357.108-.192-1.66.055-1.769-.055-.054-.165-.054-.165-.163-.22 0-.302-.544-.165-.571.22-.055.467-.055.632-.218-.357-.054-.467-1.333.137-1.66.055 0 .165 0 .165.055zm2.391 4.806c-.333.34-.75.186-1.11.34-.11 0-.305.063-.25-.061.036-.175.19-.24.354-.294l.1-.033c.065-.022.13-.045.185-.076.11-.062.25-.186.36-.124.111.186.25.124.361.248zm-1.889-7.128c-.055 0-.112 0-.168-.056.056-.056.056-.112.056-.168-.532.588-1.736.392-.616-.14.42-.168.952-.112 1.372.056-.168.224-.42.168-.644.308zm25.633-3.497a4.55 4.55 0 0 1-.146.028c-.255 0-.539.165-.794.22-.369.11-.709.301-1.02.52.368-.164.736-.219 1.162-.301.312-.055.567-.11.907-.055.227.055.54.055.54.165-.114.411-.738.52-1.078.932h-.17c-.17.11-.114.357-.256.357-.17-.055-.312 0-.482.055.227.22.482.356.794.301.057 0 .17.11.17.22 0 0 .057 0 .114-.055.056 0 .113 0 .113.055v.219c-.102.131-.235.145-.373.146h-.094a.8.8 0 0 0-.185.018c.425.11.85.11 1.247 0 .313-.11 0-.63.228-.877-.114 0 0-.165-.114-.165.114-.11.227-.247.312-.301.113 0 .255-.055.312-.165 0-.11-.227-.164-.17-.246.312-.22.596-.521.482-.823-.057-.165-.482-.165-.737-.274-.177-.076-.394-.047-.615-.004l-.148.03z" fill="#fff"/></svg>