<svg width="230" height="60" xmlns="http://www.w3.org/2000/svg"><g fill-rule="nonzero" fill="none"><path d="M2.235.5C1.209.5.5 1.407.5 2.667V57.5c0 1.214.672 2 1.735 2h225.448c1.085 0 1.817-.812 1.817-2V2.667c0-1.233-.77-2.167-1.817-2.167H2.235z" stroke="#034EA2" fill="#2183F0"/><g fill="#FFF"><path d="M85.489 26.256c-.861.516-2.066.688-3.357.688-.861 0-2.066 0-3.271-.172v-1.55c1.033.087 2.066.173 3.098.173.861 0 1.722-.086 2.238-.344.69-.259 1.033-.947 1.033-1.808 0-1.119-.516-1.635-1.635-1.98-.689-.258-1.377-.43-2.066-.602-1.721-.517-2.754-1.464-2.754-3.357 0-1.12.43-2.238 1.377-2.84.947-.603 1.98-.69 3.185-.69.86 0 1.893.087 3.012.173v1.463c-1.033-.086-2.065-.172-2.84-.172-.775 0-1.463 0-1.98.258-.688.345-.947 1.033-.947 1.722 0 1.033.517 1.55 1.464 1.893.602.173 1.29.345 2.065.603 1.894.516 2.927 1.463 2.927 3.529-.086 1.119-.516 2.324-1.55 3.013M88.76 18.423a40.96 40.96 0 0 0 1.635-4.907h1.808c-.517 1.808-1.292 3.53-1.894 4.907h-1.55zM94.613 13.43h1.807v1.722h-1.807V13.43zm1.635 13.256h-1.55V17.39h1.636l-.086 9.296zM105.889 26.686l-.086-.516c-1.033.344-2.152.774-3.271.774-1.033 0-1.894-.344-2.583-1.033-.86-.86-1.205-2.152-1.205-3.873 0-1.808.603-3.27 1.55-4.046.774-.602 1.807-.86 3.012-.86.775 0 1.636.172 2.238.43v-4.046h1.636v13.17h-1.291zm-.259-1.721v-6.026a5.54 5.54 0 0 0-2.065-.43c-2.066 0-3.1 1.033-3.1 3.529s1.034 3.53 2.497 3.53c.947 0 1.808-.345 2.668-.603M113.894 26.944c-1.033 0-2.152-.258-2.927-1.033-.86-.946-1.205-2.238-1.205-3.873 0-1.55.344-3.013 1.377-3.873.775-.603 1.636-.947 2.927-.947 1.033 0 2.066.258 2.84.947 1.12.946 1.205 2.41 1.205 4.303h-6.714c.087 2.152 1.033 3.185 2.841 3.185 1.119 0 2.238-.258 3.53-.516v1.29c-1.206.173-2.583.517-3.874.517m.086-8.607c-1.808 0-2.41 1.119-2.496 2.926h4.992c-.086-1.98-.775-2.926-2.496-2.926M127.235 26.686v-5.94c0-1.635-.86-2.237-2.238-2.237-.774 0-1.635.258-2.754.602V26.6h-1.635v-9.21h1.377l.086.516c1.119-.344 2.324-.774 3.443-.774 1.033 0 1.98.258 2.668 1.033.603.688.689 1.549.689 2.582v5.94h-1.636zM134.982 26.944c-1.033 0-2.066-.344-2.496-1.55-.258-.688-.344-1.548-.344-2.495v-4.132h-1.55v-1.291h1.55l.172-2.84h1.463v2.84h2.755v1.291h-2.755v3.96c0 .688 0 1.29.172 1.807.173.775.603 1.12 1.464 1.12.43 0 .946-.087 1.377-.173v1.291c-.603 0-1.291.172-1.808.172M138.942 13.43h1.807v1.722h-1.807V13.43zm1.635 13.256h-1.55V17.39h1.636l-.086 9.296zM150.046 26.686v-7.919h-4.304v7.92h-1.636v-7.92h-1.549v-1.291h1.55c0-1.377.258-2.496 1.118-3.27.775-.69 1.894-.862 3.443-.862.861 0 1.722.086 2.497.172v1.206c-.775-.087-1.636-.173-2.497-.173-2.41 0-2.926.861-2.926 2.755h5.939V26.6h-1.635v.086zM158.309 26.944c-1.033 0-2.152-.258-2.927-1.033-.86-.946-1.205-2.238-1.205-3.873 0-1.55.345-3.013 1.377-3.873.775-.603 1.636-.947 2.927-.947 1.033 0 2.066.258 2.84.947 1.12.946 1.206 2.41 1.206 4.303h-6.714c.086 2.152 1.033 3.185 2.84 3.185 1.12 0 2.238-.258 3.53-.516v1.29c-1.206.173-2.583.517-3.874.517m.086-8.607c-1.808 0-2.41 1.119-2.496 2.926h4.992c-.086-1.98-.775-2.926-2.496-2.926M165.109 26.686V17.39h1.377l.086.602c1.377-.516 2.152-.86 3.271-.86h.172v1.463h-.344c-.947 0-1.636.172-2.927.602v7.49h-1.635zM183.185 26.686v-.516c-1.205.344-2.238.774-3.357.774-.775 0-1.55-.172-2.152-.774-.603-.517-.86-1.205-.86-2.152 0-.947.343-1.894 1.29-2.41.689-.345 1.464-.43 2.41-.43.69 0 1.636.085 2.497.171v-.43c0-1.808-.775-2.41-2.84-2.41-.776 0-1.55.086-2.325.172v-1.377c.86-.086 1.722-.172 2.582-.172 1.205 0 2.497.086 3.271.946.775.775.947 1.722.947 3.1v5.594h-1.463v-.086zm-.258-4.218c-.775-.086-1.722-.086-2.41-.086-1.636 0-2.239.603-2.239 1.636 0 .947.69 1.635 1.894 1.635.86 0 1.808-.258 2.755-.602v-2.583zM189.727 26.686l-3.616-9.296h1.808l2.754 7.66h.086l2.755-7.66h1.721l-3.615 9.296zM200.228 26.944c-1.033 0-2.152-.258-2.927-1.033-.86-.946-1.205-2.238-1.205-3.873 0-1.55.345-3.013 1.377-3.873.775-.603 1.636-.947 2.927-.947 1.033 0 2.066.258 2.84.947 1.12.946 1.206 2.41 1.206 4.303h-6.714c.086 2.152 1.033 3.185 2.84 3.185 1.12 0 2.238-.258 3.53-.516v1.29c-1.206.173-2.583.517-3.874.517m.086-8.607c-1.808 0-2.41 1.119-2.496 2.926h4.992c-.086-1.98-.688-2.926-2.496-2.926M210.127 26.944c-.947 0-1.98-.258-2.669-1.033-.86-.946-1.205-2.238-1.205-3.873 0-1.55.43-3.185 1.636-4.046.86-.688 1.98-.86 3.098-.86.689 0 1.378.086 2.238.172v1.377c-.688-.086-1.377-.172-2.066-.172-2.237 0-3.098 1.119-3.098 3.529 0 2.152.86 3.53 2.668 3.53.775 0 1.808-.26 2.668-.517v1.377c-1.119.258-2.238.516-3.27.516M81.615 41.75v4.992h-2.152V34.175h8.178v1.721h-6.026v4.132h5.25v1.721zM90.395 46.742v-9.296h1.721l.087.602c1.29-.516 2.151-.86 3.356-.86h.259v1.807h-.603c-.86 0-1.635.172-2.84.602v7.23h-1.98v-.085zM103.478 46.742v-.517c-1.205.43-2.237.775-3.443.775-.774 0-1.549-.172-2.151-.775-.603-.516-.861-1.205-.861-2.152 0-1.032.344-1.98 1.377-2.496.689-.344 1.463-.43 2.41-.43.689 0 1.636 0 2.41.172v-.344c0-1.636-.602-2.152-2.668-2.152-.775 0-1.636.086-2.41.172v-1.55c.86-.086 1.893-.172 2.754-.172 1.291 0 2.582.173 3.443.861.861.775.947 1.808.947 3.099v5.595h-1.808v-.086zm-.258-4.132c-.688-.086-1.55-.086-2.152-.086-1.549 0-2.065.517-2.065 1.463 0 .861.602 1.55 1.721 1.55.775 0 1.635-.259 2.496-.517v-2.41zM115.443 46.742v-5.853c0-1.55-.775-2.066-2.066-2.066-.688 0-1.55.172-2.496.602v7.317h-1.98v-9.296h1.722l.086.516c1.205-.344 2.324-.775 3.443-.775 1.033 0 1.98.259 2.668 1.033.603.689.775 1.55.775 2.669v5.853h-2.152zM124.137 47c-.947 0-1.98-.258-2.755-1.033-.86-.86-1.205-2.238-1.205-3.787 0-1.55.43-3.099 1.636-4.046.86-.688 1.98-.86 3.184-.86.69 0 1.464.085 2.325.172v1.635c-.603-.086-1.378-.086-2.066-.086-2.066 0-2.927 1.033-2.927 3.27 0 1.98.775 3.272 2.496 3.272.775 0 1.808-.259 2.669-.517v1.55c-1.205.172-2.324.43-3.357.43M133.26 47c-1.032 0-2.151-.258-3.012-1.033-.86-.86-1.205-2.238-1.205-3.873 0-1.55.344-3.013 1.377-3.96.775-.688 1.722-.947 3.013-.947 1.033 0 2.152.259 2.926.947 1.12 1.033 1.292 2.41 1.292 4.39h-6.542c0 1.98.947 2.927 2.668 2.927 1.12 0 2.324-.259 3.53-.517v1.55c-1.206.172-2.669.516-4.046.516m.172-8.435c-1.636 0-2.152 1.032-2.238 2.668h4.562c-.086-1.808-.689-2.668-2.324-2.668M145.14 47c-1.292 0-2.67-.344-3.616-1.377-1.205-1.205-1.635-3.013-1.635-5.165 0-2.066.602-4.131 2.152-5.423 1.205-.946 2.668-1.119 4.217-1.119.947 0 1.894.087 2.927.173v1.807c-.86-.086-1.894-.172-2.755-.172-3.27 0-4.39 1.808-4.39 4.734 0 2.84 1.206 4.648 3.702 4.648 1.119 0 2.496-.344 3.615-.688v1.807c-1.377.43-2.84.775-4.218.775M152.972 46.053c-.947-.775-1.377-2.152-1.377-3.96 0-1.807.43-3.098 1.377-3.959.86-.775 1.98-.947 3.271-.947 1.205 0 2.324.259 3.27.947.948.775 1.378 2.152 1.378 3.874 0 1.807-.43 3.098-1.377 3.96-.86.774-2.066.946-3.271.946-1.205.086-2.41-.172-3.27-.86m5.852-3.96c0-2.238-.774-3.357-2.582-3.357-1.894 0-2.582 1.033-2.582 3.27 0 2.239.774 3.444 2.582 3.444 1.894 0 2.582-1.033 2.582-3.357M170.36 46.742v-5.853c0-1.55-.775-2.066-2.066-2.066-.689 0-1.55.172-2.497.602v7.317h-1.98v-9.296h1.722l.086.516c1.205-.344 2.324-.775 3.443-.775 1.033 0 1.98.259 2.669 1.033.602.689.774 1.55.774 2.669v5.853h-2.152zM182.582 46.742v-5.853c0-1.55-.774-2.066-2.066-2.066-.688 0-1.549.172-2.496.602v7.317h-1.98v-9.296h1.722l.086.516c1.205-.344 2.324-.775 3.443-.775 1.033 0 1.98.259 2.668 1.033.603.689.775 1.55.775 2.669v5.853h-2.152zM191.448 47c-1.033 0-2.152-.258-3.013-1.033-.86-.86-1.205-2.238-1.205-3.873 0-1.55.345-3.013 1.378-3.96.774-.688 1.721-.947 3.012-.947 1.033 0 2.152.259 2.927.947 1.119 1.033 1.291 2.41 1.291 4.39h-6.542c0 1.98.947 2.927 2.669 2.927 1.119 0 2.324-.259 3.529-.517v1.55c-1.205.172-2.669.516-4.046.516m.172-8.435c-1.635 0-2.152 1.032-2.238 2.668h4.562c-.172-1.808-.774-2.668-2.324-2.668M202.035 47c-.946 0-1.98-.258-2.754-1.033-.86-.86-1.205-2.238-1.205-3.787 0-1.55.43-3.099 1.635-4.046.861-.688 1.98-.86 3.185-.86.689 0 1.463.085 2.324.172v1.635c-.602-.086-1.377-.086-2.066-.086-2.065 0-2.926 1.033-2.926 3.27 0 1.98.775 3.272 2.496 3.272.775 0 1.808-.259 2.668-.517v1.55c-1.119.172-2.324.43-3.357.43M211.246 47c-1.033 0-1.98-.344-2.497-1.463-.344-.689-.43-1.55-.43-2.583v-3.96h-1.463v-1.548h1.463l.258-2.84h1.808v2.84h2.668v1.549h-2.668v3.615c0 .689 0 1.291.172 1.722.172.688.602.946 1.377.946.43 0 .947-.086 1.377-.172v1.55c-.774.172-1.463.344-2.065.344"/></g><path fill="#FFF" d="M15 17.186v26.961l23.96 13.52L63 44.147V17.186L38.96 3.666z"/><path fill="#034EA2" d="m51.722 30.625-6.857-11.85L39 8.668v44l19-11.021z"/><path fill="#0069CC" d="m44.865 18.795 6.857 11.872L58 19.708l-7.683-4.483z"/><path fill="#ED1C24" d="M50.317 15.225 39 8.667l5.865 10.128z"/><path fill="#0069CC" d="M44.865 18.795 39 8.667z"/><path fill="#ED1C24" d="M58 41.708v-22l-6.278 10.959z"/><path fill="#0069CC" d="m26.36 30.625 6.857-11.85L39 8.668v44L20 41.646z"/><path fill="#ED1C24" d="m33.217 18.795-6.856 11.872L20 19.708l7.683-4.483z"/><path fill="#034EA2" d="M27.683 15.225 39 8.667l-5.783 10.128zM20 41.708v-22l6.36 10.959z"/><g><path d="M44.246 32.877c.339 0 .677-.085 1.016 0 .253.085.592.085.592.17-.085.51-.846.595-1.185 1.105H44.5c-.17.085-.085.425-.254.425-.17-.085-.338 0-.592.085.254.255.592.425.93.34.085 0 .17.085.17.255 0 0 .084 0 .084-.085.085 0 .085 0 .085.085v.255c-.17.255-.508.17-.761.17a4.081 4.081 0 0 0 1.438 0c.338-.17 0-.765.254-1.02-.085 0 0-.17-.17-.17.085-.085.254-.34.34-.34.084 0 .338-.085.338-.17s-.254-.17-.17-.34c.339-.255.677-.595.508-1.02-.085-.17-.592-.17-.846-.255-.339-.085-.677 0-1.016.085-.338 0-.592.17-.93.255-.423.17-.762.425-1.185.68.592-.255 1.015-.34 1.523-.51z" fill="#034EA2"/><path d="M50.232 36.436c-.17-.336-.426-.588-.682-.925-.256-.42-.597-.756-.682-1.261-.17-.505 0-.925 0-1.43 0-.925-.256-1.85-.512-2.69-.17-.421-.256-.926-.426-1.346-.085-.252-.17-.505-.341-.757-.085-.084-.085-.336 0-.42.256-.169.511-.421.682-.59.17-.336 0-.756-.256-.924-.426-.168-.34.42-.682.588h-.17c-.086-.168.085-.252.17-.336 0-.084 0-.168-.085-.168-.256 0-.512-.084-.597-.168-.682-.841-1.535-1.262-2.473-1.598.256.084.512.084.767.084.427.084.938 0 1.28-.168.34-.168.34-.589.426-.925.085-.084 0-.168 0-.337 0-.168-.17-.336-.256-.504 0 0-.085-.084-.17-.252-.683-.757-3.326-2.944-8.272-2.607-2.132.168-4.775.756-7.845 2.27-.085 0-.17.084-.34.084-.512.253-1.194.673-1.62 1.178-.512.588-.939 1.261-1.11 2.018-.767.504-1.278 1.261-1.705 2.018-.511 1.01-1.194 1.85-1.194 2.943v.169c.086.336.086.588.171.925.17.672.341 1.345.426 2.018l.256 1.009c.17.336 0 .757.256 1.093.085.168.085.42.341.505v.252c.085.084.085.084.17.084v.253c.512.588 1.11 1.093 1.45 1.765.17.337-.597.169-.938.085-.597-.253-1.023-.757-1.535-1.178l-.085.084c.256.42 1.194.925.682 1.262-.256.168-.597-.168-.767.084-.085.084 0 .252 0 .336-.341-.252-.768-.084-1.109-.252-.256-.084-.34-.505-.597-.505-.767-.168-1.534-.336-2.387-.336h-.17c-.768-.084-1.536-.168-2.218-.084v.84c.682-.167 1.365-.336 2.047-.336h.17c.17 0 .427-.084.597 0-.256 0-.597 0-.853.085-.682.084-1.364.336-2.046.588v.841c.341.084.767.084 1.109.168.426.084.852.169 1.279.337.596.168 1.023.42 1.534.673.256.168.342.336.597.504.341.168.768.168 1.024 0h.34c.939-.252 1.877-.504 2.473-1.261 0 .084.086.084.086.084-.17.504-.17 1.009-.512 1.513 0 .085-.085.169.085.253h.086c-.086 0-.086 0-.086.084s.17 0 .256.084c-.34.084-.597.168-.767.42 0 .085.085.085.17.085-.085.084-.34.084-.34.168l.085.084c-.086 0-.086 0-.086.084v.168c-.17 0-.256.168-.34.168.255.168.426 0 .681 0-.682.253-1.193.673-1.876.841-.085 0 0 .168-.085.168.17.084.341-.084.512-.084-.341.253-.682.42-1.024.589l2.047 1.177c.853-.504 1.62-1.093 2.302-1.85l.086.084c-.171.589-.512 1.01-1.024 1.43-.34.168-.597.504-.852.589l1.534.84c.342-.252.597-.42 1.024-.588.085 0 .17.084.34.084.512-.505 1.11-1.093 1.962-.925 0 .084 0 .084.085.084 0 0 .086 0 .086-.084 0 .084 0 .084-.086.084-.256.168-.426.336-.682.505-.085.084 0 .084.085.084.341-.169.512-.337.768-.505-.085.084-.085.168-.085.252a13.627 13.627 0 0 0-1.962 1.85l8.101 4.626c.256-.337.597-.841.938-1.262 1.535-2.186 3.752-5.13 4.434-5.802.256-.168.512-.168.853-.253 1.023 0 2.131.253 3.155.337.085 0 .256.084.34.084.342.084.768 0 1.195-.084.426-.168.938-.42 1.108-.925.17-.42.256-.925 0-1.346-.426-.504.341-.757.597-1.093.17-.336-.17-.505-.17-.757-.086-.084-.342-.084-.427-.252.426-.168 1.109-.589.768-1.093-.171-.337-.512-.757-.171-1.094.426-.252 1.109-.252 1.28-.672.51-.841-.257-1.43-.598-2.019zM47.59 33.41c-.085.084.17.168.17.336-.085.084-.255.169-.34.169l-.342.336c.085 0 0 .168.17.168-.255.337.171.925-.255 1.01-.426.167-.938.167-1.45 0 .256-.085.597.083.768-.169v-.252c0-.084-.086-.084-.086-.084l-.085.084c0-.084-.17-.252-.17-.252-.341.084-.683-.085-.938-.337.17-.084.34-.168.597-.084.17 0 .085-.336.255-.42h.17c.342-.505 1.11-.673 1.195-1.094 0-.084-.341-.084-.597-.168-.341-.084-.682 0-1.023 0-.512.168-.938.168-1.365.42a5.457 5.457 0 0 1 1.194-.672c.341-.084.597-.252.938-.252.341-.085.767-.169 1.023-.085.341.085.768.085.853.253-.085.504-.341.84-.682 1.093z" fill="#FFF"/></g></g></svg>