<?xml version="1.0" encoding="utf-8"?>
<!-- Generator: Adobe Illustrator 18.1.1, SVG Export Plug-In . SVG Version: 6.00 Build 0)  -->
<svg version="1.1" xmlns="http://www.w3.org/2000/svg" xmlns:xlink="http://www.w3.org/1999/xlink" x="0px" y="0px"
	 viewBox="0 0 249.2 307.4" enable-background="new 0 0 249.2 307.4" xml:space="preserve">
<g id="paillasse">
</g>
<g id="Calque_1">
</g>
<g id="Calque_3">
	<g>
		<g>
			<path fill="#EB212E" d="M40.8,272.9c0,3.2,2,5.3,5.5,5.3c2,0,3.6-0.7,4.8-1.5h0.1v2.5c-1.5,0.9-3.1,1.5-5.2,1.5
				c-4.3,0-8-2.9-8-7.9s3.7-7.9,8-7.9c2.1,0,3.7,0.6,5.2,1.5v2.5h-0.1c-1.2-0.8-2.8-1.5-4.8-1.5C42.8,267.5,40.8,269.7,40.8,272.9z"
				/>
			<path fill="#EB212E" d="M78,272.9c0,4.7-3.1,7.9-7.7,7.9c-4.6,0-7.7-3.2-7.7-7.9c0-4.7,3-7.9,7.7-7.9C74.9,265,78,268.2,78,272.9
				z M75.3,272.8c0-3.9-2.7-5.4-4.9-5.4c-2.3,0-4.9,1.5-4.9,5.4c0,3.9,2.6,5.4,4.9,5.4C72.6,278.3,75.3,276.8,75.3,272.8z"/>
			<path fill="#EB212E" d="M104.1,270.8v9.6h-2.7v-9.3c0-2.3-1-3.6-3.3-3.6c-2.2,0-3.7,1.4-4.9,2.8v10.1h-2.7v-15.1h2.4l0.3,1.9v0.4
				h0.1c1.3-1.4,2.8-2.6,5.5-2.6C102.1,265,104.1,267.7,104.1,270.8z"/>
			<path fill="#EB212E" d="M130.9,270.8v9.6h-2.7v-9.3c0-2.3-1-3.6-3.3-3.6c-2.2,0-3.7,1.4-4.9,2.8v10.1h-2.7v-15.1h2.4l0.3,1.9v0.4
				h0.1c1.3-1.4,2.8-2.6,5.5-2.6C129,265,130.9,267.7,130.9,270.8z"/>
			<path fill="#EB212E" d="M157.6,273.8H146c0.3,2.7,2,4.4,5.2,4.4c2.5,0,4-0.6,5.3-1.5h0.1v2.6c-1.4,0.8-3.1,1.4-5.7,1.4
				c-4.9,0-7.8-2.9-7.8-7.9c0-4,2.2-7.9,7.2-7.9c5,0,7.2,3.9,7.2,7.9V273.8z M154.8,271.6c-0.2-3.1-2.5-4.3-4.4-4.3
				c-1.9,0-4.2,1.2-4.4,4.3H154.8z"/>
			<path fill="#EB212E" d="M171.6,272.9c0,3.2,2,5.3,5.5,5.3c2,0,3.6-0.7,4.8-1.5h0.1v2.5c-1.5,0.9-3.1,1.5-5.2,1.5
				c-4.3,0-8-2.9-8-7.9s3.7-7.9,8-7.9c2.1,0,3.7,0.6,5.2,1.5v2.5h-0.1c-1.2-0.8-2.8-1.5-4.8-1.5
				C173.6,267.5,171.6,269.7,171.6,272.9z"/>
			<path fill="#EB212E" d="M198.2,267.6v9c0,1.7,1.2,1.8,1.9,1.8c0.9,0,1.6-0.2,2.2-0.5h0.2v2.2c-0.7,0.4-1.6,0.7-2.7,0.7
				c-1.4,0-4.4-0.2-4.4-3.9v-9.2h-2.8v-0.2l5.6-5.4v3.3h4.3v2.3H198.2z"/>
		</g>
		<g>
			<path fill="#009DD4" d="M41.2,255.5c0,0.3-0.1,0.6-0.3,0.8c-0.2,0.2-0.5,0.3-0.8,0.3s-0.6-0.1-0.8-0.3c-0.2-0.2-0.3-0.5-0.3-0.8
				v-24.1c0-0.3,0.1-0.6,0.3-0.8c0.2-0.2,0.5-0.3,0.8-0.3l14.7,0c0.3,0,0.6,0.1,0.8,0.3c0.2,0.2,0.3,0.5,0.3,0.8
				c0,0.3-0.1,0.6-0.3,0.8c-0.2,0.2-0.5,0.3-0.8,0.3l-13.6,0v9.8h10.1c0.3,0,0.6,0.1,0.8,0.3c0.2,0.2,0.3,0.5,0.3,0.8
				s-0.1,0.6-0.3,0.8c-0.2,0.2-0.5,0.3-0.8,0.3H41.2V255.5z"/>
			<path fill="#009DD4" d="M75,230.4c2.1,0,4,0.7,5.5,2.1c1.5,1.4,2.3,3,2.3,5c0,1.7-0.6,3.3-1.8,4.6c-1.2,1.3-2.7,2.1-4.6,2.4
				l5.3,10.6c0.1,0.3,0.2,0.5,0.1,0.8c-0.1,0.3-0.3,0.5-0.6,0.6c-0.1,0.1-0.3,0.1-0.5,0.1c-0.5,0-0.8-0.2-1-0.6l-5.7-11.5h-6.2v10.8
				c0,0.3-0.1,0.5-0.3,0.8c-0.2,0.2-0.5,0.3-0.8,0.3c-0.3,0-0.6-0.1-0.8-0.3c-0.2-0.2-0.3-0.5-0.3-0.8v-23.8c0-0.3,0.1-0.6,0.3-0.8
				c0.2-0.2,0.5-0.3,0.8-0.3H75z M80.5,237.4c0-1.4-0.5-2.5-1.6-3.5c-1.1-1-2.4-1.4-3.9-1.4h-7.3v9.8h7.4c1.5,0,2.8-0.5,3.8-1.5
				C80,239.9,80.5,238.8,80.5,237.4z"/>
			<path fill="#009DD4" d="M92.5,256.5c-0.3-0.1-0.5-0.3-0.6-0.6c-0.1-0.3-0.1-0.6,0-0.8l2.6-6.1v0L102,231c0-0.1,0.1-0.1,0.1-0.2
				l0.1-0.1c0,0,0.1-0.1,0.1-0.1c0,0,0,0,0.1-0.1c0.1,0,0.1-0.1,0.1-0.1c0.1-0.1,0.3-0.1,0.4-0.2h0.1c0.1,0,0.1,0,0.1,0
				c0,0,0,0,0.1,0c0.1,0,0.1,0,0.1,0c0.1,0,0.3,0.1,0.4,0.2l0.1,0.1c0,0,0.1,0.1,0.1,0.1c0,0,0,0,0.1,0.1c0,0.1,0.1,0.1,0.1,0.1
				c0,0.1,0.1,0.1,0.1,0.2l7.5,17.9v0l2.6,6.1c0.1,0.3,0.1,0.6,0,0.8c-0.1,0.3-0.3,0.5-0.6,0.6c-0.1,0.1-0.3,0.1-0.4,0.1
				c-0.5,0-0.8-0.2-1-0.7l-2.3-5.4H96.2l-2.3,5.4c-0.2,0.5-0.5,0.7-1,0.7c-0.1,0-0.2,0-0.2,0S92.6,256.5,92.5,256.5z M108.8,248.2
				l-5.8-13.9l-5.8,13.9H108.8z"/>
			<path fill="#009DD4" d="M142.9,256.2L142.9,256.2L142.9,256.2l-16.9-21.6v20.9c0,0.3-0.1,0.6-0.3,0.8c-0.2,0.2-0.5,0.3-0.8,0.3
				c-0.3,0-0.6-0.1-0.8-0.3c-0.2-0.2-0.3-0.5-0.3-0.8v-24.1c0-0.5,0.2-0.9,0.7-1c0.5-0.2,0.9,0,1.2,0.4l16.9,21.6v-20.9
				c0-0.3,0.1-0.6,0.3-0.8c0.2-0.2,0.5-0.3,0.8-0.3c0.3,0,0.6,0.1,0.8,0.3c0.2,0.2,0.3,0.5,0.3,0.8v24.1c0,0,0,0,0,0.1
				c0,0,0,0.1,0,0.1c0,0,0,0.1,0,0.1c0,0,0,0.1,0,0.1c0,0,0,0.1,0,0.1c0,0,0,0.1-0.1,0.1c0,0,0,0.1-0.1,0.1c0,0,0,0.1-0.1,0.1
				c0,0,0,0-0.1,0.1c-0.1,0-0.1,0.1-0.1,0c0,0,0,0,0,0c0,0,0,0-0.1,0c0,0-0.1,0-0.1,0.1c0,0,0,0-0.1,0c0,0-0.1,0-0.1,0
				c0,0-0.1,0-0.1,0c-0.1,0-0.1,0-0.2,0c-0.1,0-0.1,0-0.2,0l-0.1,0c-0.1,0-0.1,0-0.1-0.1c0,0,0,0-0.1-0.1c0,0-0.1,0-0.1-0.1
				c0,0,0,0-0.1-0.1C142.9,256.2,142.9,256.2,142.9,256.2C142.9,256.2,142.9,256.2,142.9,256.2z"/>
			<path fill="#009DD4" d="M168.4,256.6c-3.7,0-6.8-1.3-9.4-3.9c-2.6-2.6-3.9-5.6-3.9-9.3c0-3.6,1.3-6.7,3.9-9.3
				c2.6-2.6,5.7-3.9,9.4-3.9c3,0,5.7,0.9,8.1,2.7c0.2,0.2,0.4,0.4,0.4,0.7s0,0.6-0.2,0.8c-0.2,0.2-0.4,0.4-0.7,0.4
				c-0.3,0-0.6,0-0.8-0.2c-2-1.5-4.2-2.2-6.7-2.2c-3,0-5.6,1.1-7.8,3.2s-3.2,4.7-3.2,7.7c0,3,1.1,5.6,3.2,7.7
				c2.2,2.1,4.8,3.2,7.8,3.2c2.9,0,5.3-0.9,7.4-2.8c0.2-0.2,0.5-0.3,0.8-0.3c0.3,0,0.6,0.1,0.8,0.4c0.2,0.2,0.3,0.5,0.3,0.8
				c0,0.3-0.1,0.6-0.4,0.8C174.8,255.4,171.8,256.6,168.4,256.6z"/>
			<path fill="#009DD4" d="M189.1,256.6c-0.3,0-0.6-0.1-0.8-0.3c-0.2-0.2-0.3-0.5-0.3-0.8v-24.1c0-0.3,0.1-0.6,0.3-0.8
				c0.2-0.2,0.5-0.3,0.8-0.3l14.7,0c0.3,0,0.6,0.1,0.8,0.3c0.2,0.2,0.3,0.5,0.3,0.8c0,0.3-0.1,0.6-0.3,0.8c-0.2,0.2-0.5,0.3-0.8,0.3
				l-13.6,0v9.8h10.1c0.3,0,0.6,0.1,0.8,0.3c0.2,0.2,0.3,0.5,0.3,0.8s-0.1,0.6-0.3,0.8c-0.2,0.2-0.5,0.3-0.8,0.3h-10.1v9.8h13.6
				c0.3,0,0.6,0.1,0.8,0.3c0.2,0.2,0.3,0.5,0.3,0.8s-0.1,0.6-0.3,0.8c-0.2,0.2-0.5,0.3-0.8,0.3H189.1z"/>
		</g>
		<g>
			<g>
				<path fill="#FFFFFF" d="M125.1,207.5c-2.6,0-5-0.6-6.8-1.6l-71.2-40.3c-3.8-2.2-7-7.5-7-11.9l-0.5-81.5c0-4.4,3-9.8,6.8-12
					L117.1,19c1.9-1.1,4.4-1.7,7-1.7c2.6,0,5,0.6,6.8,1.6l71.2,40.3c3.8,2.2,7,7.5,7,11.9l0.5,81.5c0,4.4-3,9.8-6.8,12l-70.7,41.2
					C130.2,206.9,127.7,207.5,125.1,207.5z"/>
				<path fill="#FFFFFF" d="M124.1,17.4c2.5,0,4.9,0.5,6.8,1.6L202,59.3c3.8,2.2,6.9,7.5,6.9,11.8l0.5,81.5c0,4.3-3,9.7-6.8,11.9
					L132,205.7c-1.9,1.1-4.4,1.7-7,1.7c-2.5,0-4.9-0.5-6.8-1.6l-71.2-40.3c-3.8-2.2-6.9-7.5-6.9-11.8l-0.5-81.5
					c0-4.3,3-9.7,6.8-11.9l70.7-41.2C119,18,121.6,17.4,124.1,17.4 M124.1,17.2c-2.7,0-5.2,0.6-7.1,1.7L46.4,60.1
					c-3.8,2.2-6.9,7.6-6.9,12.1l0.5,81.5c0,4.4,3.2,9.8,7,12l71.2,40.3c1.8,1,4.3,1.6,6.9,1.6c2.7,0,5.2-0.6,7.1-1.7l70.7-41.2
					c3.8-2.2,6.9-7.6,6.9-12.1l-0.5-81.5c0-4.4-3.2-9.8-7-12L131,18.8C129.1,17.8,126.7,17.2,124.1,17.2L124.1,17.2z"/>
			</g>
			<g>
				<polygon fill="#0F91CE" points="185.5,141 65.7,140.7 65.7,140.7 125.9,41 125.9,41 185.5,141 				"/>
			</g>
			<g>
				
					<linearGradient id="SVGID_1_" gradientUnits="userSpaceOnUse" x1="50.1207" y1="112.9564" x2="221.7812" y2="112.9564" gradientTransform="matrix(1 8.080583e-03 -8.080583e-03 1 -10.4252 -1.8144)">
					<stop  offset="0" style="stop-color:#279DD5"/>
					<stop  offset="1" style="stop-color:#E1222E"/>
				</linearGradient>
				<path fill="none" stroke="url(#SVGID_1_)" stroke-width="1.477" stroke-linejoin="round" stroke-miterlimit="10" d="M117.6,206
					c3.8,2.2,10,2.2,13.8,0l71.1-40.8c3.8-2.2,6.9-7.5,6.9-11.9l0-4.1l0,4.1c0,4.4-3.1,9.7-6.9,11.9l-71.1,40.8
					C127.5,208.2,121.3,208.2,117.6,206l-71-41.1c-3.8-2.2-6.9-7.6-6.9-11.9l0-5.2l0.1-72.7l0-4.1c0-4.4,3.1-9.7,6.9-11.9l71.1-40.8
					c3.8-2.2,10-2.2,13.8,0l71,41.1c3.8,2.2,6.9,7.6,6.9,11.9l0,5.1l-0.1,72.7l0.1-72.7l0-5.1c0-4.4-3.1-9.7-6.9-11.9l-71-41.1
					c-3.8-2.2-10-2.2-13.8,0L46.8,59.2c-3.8,2.2-6.9,7.5-6.9,11.9l0,4.1l-0.1,72.7"/>
			</g>
			
				<linearGradient id="SVGID_2_" gradientUnits="userSpaceOnUse" x1="113.7021" y1="155.0882" x2="158.1721" y2="155.0882" gradientTransform="matrix(1 8.080583e-03 -8.080583e-03 1 -10.4252 -1.8144)">
				<stop  offset="0" style="stop-color:#E1222E"/>
				<stop  offset="1" style="stop-color:#279DD5"/>
			</linearGradient>
			<path fill="none" stroke="url(#SVGID_2_)" stroke-width="7.385014e-02" stroke-linejoin="round" stroke-miterlimit="10" d="
				M146.5,148.7L128,159.4c-1.9,1.1-5,1.1-6.9,0l-19-11"/>
			<g>
				<polygon fill="#279DD5" points="160.2,98.5 125.5,180.9 105.6,167.5 84.3,110.1 				"/>
			</g>
			<g>
				<polygon fill="#E1222E" points="105.6,167.5 65.7,140.8 94,135.6 				"/>
			</g>
			<g>
				<polygon fill="#2372B6" points="185.5,141.1 125.5,180.9 160.2,98.5 				"/>
			</g>
			<g>
				<polygon fill="#1398D2" points="65.7,80.9 84.3,110.1 102.1,80.6 85.9,67.6 				"/>
			</g>
			<g>
				<polygon fill="#2372B6" points="65.7,140.8 84.3,110.1 65.7,80.9 				"/>
			</g>
			<g>
				<polygon fill="#3A7ABB" points="125.9,41.1 85.9,67.6 102.1,80.6 				"/>
			</g>
			<g>
				<polygon fill="#279DD5" points="125.9,41.1 126.4,85.3 95.2,91.9 				"/>
			</g>
			<g>
				<g>
					<polygon fill="#E6372F" points="185.9,80.9 167.3,110.3 149.6,80.7 165.9,67.6 					"/>
				</g>
				<g>
					<polygon fill="#BE232C" points="185.5,141.1 167.3,110.3 185.9,80.9 					"/>
				</g>
				<g>
					<polygon fill="#E1222E" points="125.9,41.1 165.9,67.6 149.6,80.7 					"/>
				</g>
			</g>
			<g>
				<path fill="#FFFFFF" d="M137.6,155.9c0.7-0.3,1.5-0.5,2.4-0.7c2.9,0,5.7,0.8,8.6,1.2c0.3,0,0.7,0.2,1,0.3c1,0.2,2.2,0.2,3.2-0.2
					c1.2-0.3,2.5-1,3-2.5c0.4-1.2,0.8-2.5,0.2-3.7c-1-1.5,1-2,1.7-3c0.5-0.8-0.3-1.3-0.5-2.2c-0.2-0.3-0.8-0.2-1.2-0.7
					c1.2-0.5,3-1.5,2.2-3c-0.5-0.8-1.3-2.2-0.3-3c1.2-0.7,3-0.5,3.5-1.7c0.8-2-1-3.7-2-5.4c-0.5-1-1.2-1.7-1.9-2.7
					c-0.7-1.2-1.5-2.2-1.9-3.5c-0.5-1.3,0.2-2.5,0.2-3.9c0.2-2.5-0.5-5-1.2-7.6c-0.5-1.2-0.7-2.5-1.2-3.7c-0.2-0.7-0.3-1.3-0.8-2
					c-0.2-0.3-0.2-0.8,0-1.2c0.7-0.5,1.3-1,2-1.7c0.5-0.8,0.2-2-0.7-2.5c-1.2-0.5-1,1.2-1.9,1.5c-0.2,0-0.3,0-0.5,0
					c-0.2-0.5,0.2-0.7,0.5-1c0-0.2,0-0.5-0.2-0.5c-0.7,0-1.3-0.2-1.5-0.5c-1.7-2.4-4-3.5-6.6-4.5c0.7,0.2,1.3,0.3,2,0.3
					c1.2,0.2,2.5,0.2,3.5-0.3c0.8-0.3,1-1.7,1.3-2.5c0.3-0.7-0.2-1.7-0.5-2.2c-0.8-1.2-14-16.4-44.4-2.7l0,0c-1.2,0.3-4,1.8-5.4,3.4
					c-1.3,1.7-2.7,3.4-3.2,5.4c-2.2,1.3-3.5,3.4-4.7,5.4c-1.5,2.9-3.7,5.4-3.4,8.6c0.3,2.7,1,5.2,1.5,8.1c0.2,1,0.3,1.9,0.7,2.9
					c0.3,1,0,2.2,0.5,3c0.3,0.5,0.2,1.2,0.8,1.5c0,0.2,0,0.5,0,0.7c0.2,0.2,0.2,0.3,0.5,0.3c0,0.2,0,0.5,0,0.7
					c1.3,1.7,3,3.2,3.9,5.1c0.3,1-1.7,0.5-2.5,0.2c-1.7-0.8-2.7-2.2-4-3.4c0,0-0.2,0.2-0.2,0.3c0.7,1.2,3.2,2.7,1.9,3.5
					c-0.7,0.3-1.5-0.5-2.2,0.2c-0.2,0.3,0,0.7,0,1c-1-0.7-2-0.3-3-0.7c-0.7-0.2-0.8-1.5-1.7-1.5c-2.2-0.5-4.2-1-6.4-1.2
					c-3-0.3-5.9-0.8-8.9-0.3c-2.7,0.2-4.7,2.2-6.4,4.2c0,0.2,0,0.5,0,0.5c1.2,0.2,1.7-0.8,2.7-1.2c1.7-0.3,3.2-1,4.9-1.3
					c2.5-0.5,4.9-1.2,7.2-1c0.5,0,1.2-0.2,1.7,0c-3-0.2-5.7,0.8-8.6,1.7c-2,0.6-4,0.7-5.9,1.7c4.4-0.2,8.8,0.5,13,1.9
					c1.5,0.5,2.9,1.2,4.2,2c0.7,0.5,1,1,1.7,1.3c0.8,0.5,2,0.5,2.9,0.2c0.2,0,0.7,0,0.8,0c2.5-0.7,5.2-1.3,6.9-3.2
					c0,0.2,0.2,0.2,0.3,0.2c-0.5,1.3-0.5,2.9-1.5,4c0,0.2-0.2,0.5,0.2,0.7c0.2,0,0.2,0,0.3,0c-0.2,0-0.3,0-0.3,0.2
					c0,0.3,0.5,0,0.7,0.3c-0.8,0.2-1.7,0.3-2.2,1c0,0.2,0.3,0.2,0.5,0.2c-0.3,0.3-0.8,0.2-1,0.5c0,0,0.2,0.2,0.3,0.2
					c-0.2,0-0.3,0-0.3,0.2c0,0.2,0,0.3,0,0.5c-0.5,0-0.7,0.3-1,0.5c0.7,0.5,1.2,0,1.9,0c-1.9,0.7-3.4,1.7-5.2,2.2
					c-0.3,0,0,0.5-0.3,0.5c0.5,0.3,0.8-0.2,1.3-0.2c-2.4,1.3-4.7,2.5-7.2,4c0,0-0.3,0.3-0.3,0.7c-0.2,0-0.5,0-0.7,0
					c-0.3,0.2-0.2,0.7-0.5,1c0.8,0.5,1.9-0.7,2.4,0c0.2,0-0.3,0.2-0.7,0.2c-0.2,0-0.2,0.3-0.3,0.3c-0.2,0-0.3,0-0.5,0
					c-0.3,0.3-0.7,0.5-0.7,1c-0.3,0-0.7,0-0.8,0.3c3.7-0.5,7.6-0.2,11.1-2c2.7-1.3,5.2-3.2,7.4-5.6c0,0,0.2,0.2,0.2,0.3
					c-0.5,1.7-1.5,2.9-2.9,3.9c-1,0.5-1.7,1.3-2.5,1.7c-0.5,0.3-1,0.7-1.5,1c-6.2,2.2-13.6,1.2-19,5.4c0-0.2-0.2-0.2-0.3-0.2
					c-0.3,0.3-0.8,0.5-1,0.8c0,0.3,0.5,0.2,0.7,0.2c1-0.7,2-1.2,3.2-1.5c-1,0.5-1.9,1.1-2.9,1.6h6.8c2.3-0.5,4.6-1,6.8-1.2
					c1.3,0,2.7,0.2,4.2-0.2c1-0.2,2-0.8,3-1.2c0,0.2,0,0.2,0,0.3c2.5-1,4.4-3.2,6.9-4c0.2,0,0.5,0.3,0.8,0.2
					c1.5-1.3,3.2-2.9,5.4-2.5c0,0.2,0,0.3,0.2,0.3c0,0,0.1,0,0.1,0c0.1-0.1,0.1-0.1,0.2-0.2c0,0.1-0.1,0.2-0.2,0.2
					c-0.6,0.4-1.2,0.9-1.8,1.3c-0.2,0.2,0,0.3,0.2,0.3c0.8-0.3,1.3-1,2.2-1.3c-0.2,0.2-0.2,0.5-0.3,0.7c-3,2.2-5.2,4.7-7.5,7.3
					l21.6,14.4C120.6,177,134.5,158.6,137.6,155.9z M146,120.2c0.8-0.2,1.7-0.7,2.5-0.7c1-0.2,2-0.5,2.9-0.2
					c0.8,0.3,2.2,0.3,2.4,0.8c0.3,1-0.5,2-1.5,2.7c-0.2,0.3,0.5,0.5,0.5,0.8c-0.2,0.3-0.7,0.5-1,0.5c-0.3,0.2-0.7,0.7-1,1
					c0.3,0,0,0.5,0.3,0.5c-0.7,0.8,0.3,2.5-0.7,2.9c-1.2,0.3-2.5,0.3-3.9,0c0.7-0.2,1.5,0.2,2-0.5c0-0.2,0-0.5,0-0.7
					c0-0.2-0.2-0.2-0.3-0.2c-0.2,0.2-0.3,0.2-0.3,0.2c0-0.3-0.3-0.7-0.5-0.7c-1,0.2-1.9-0.3-2.5-1c0.5-0.2,1-0.3,1.5-0.2
					c0.5,0,0.3-0.8,0.8-1.2c0.2,0,0.3,0,0.5,0c1-1.3,3-1.7,3.4-3c0-0.3-1-0.3-1.7-0.5c-1-0.2-1.9,0-2.9,0c-1.3,0.3-2.5,0.5-3.7,1
					C143.8,121.2,144.8,120.5,146,120.2z"/>
				<path fill="#E1222E" d="M104.8,156.3c-0.1,0-0.1,0.1-0.2,0.1C104.7,156.4,104.8,156.4,104.8,156.3z"/>
			</g>
		</g>
	</g>
</g>
</svg>
