<svg xmlns="http://www.w3.org/2000/svg" width="64pt" height="38pt" viewBox="0 0 64 38"><path d="M0 0h64v21.809H0zm0 0" fill="#fff"/><path d="M51.105 37.977c-.035-.016-.035-.055-.007-.141.039-.11.054-.117.199-.098.133.02.172.004.226-.074.106-.148.024-.258-.168-.223-.144.028-.148.024-.12-.09.09-.359.097-.34-.169-.39a1.61 1.61 0 0 1-.855-.508c-.352-.39-.473-.789-.438-1.43.016-.324.043-.453.149-.68.308-.695 1.023-1.046 1.98-.984.207.016.47.051.586.078l.207.055.012.387.012.39h-.125c-.074 0-.13-.023-.13-.054 0-.11-.253-.36-.433-.43-.234-.09-.683-.07-.91.04-.516.253-.754.905-.594 1.655.07.344.192.579.422.817.219.226.442.316.77.32.351 0 .593-.14.75-.433.101-.2.14-.223.242-.16.047.03.047.101 0 .417l-.05.383-.192.067a2.603 2.603 0 0 1-.535.09c-.325.023-.344.03-.344.124 0 .075.023.098.097.098.137 0 .27.11.297.25.04.164-.078.406-.23.484-.11.06-.54.083-.649.036zM26.348 37.8c-.36-.11-.668-.27-1.043-.543l-.325-.238-.496-.028c-.554-.027-.75-.09-1.105-.355-.79-.582-.82-2.07-.055-2.793.574-.543 1.586-.657 2.313-.258.984.543 1.09 2.133.195 2.965-.137.129-.273.234-.3.234-.087 0 .89.54 1.179.653.312.12.684.136.953.039.195-.07.23-.059.266.066.015.074-.016.105-.215.2-.313.144-.973.171-1.367.054zm-1.22-1.297c.696-.367.829-1.543.259-2.293-.528-.695-1.453-.59-1.805.203-.312.719.047 1.832.688 2.125.261.117.593.106.859-.035zm-21.866.434c-.192-.083-.403-.344-.735-.915-.507-.87-.605-1-.746-1h-.12v.473c0 .863.085 1.156.355 1.223.074.02.101.054.101.129v.105H.41v-.098c0-.074.031-.109.133-.136a.528.528 0 0 0 .219-.157c.082-.117.086-.156.086-1.75 0-1.59-.004-1.628-.086-1.746a.495.495 0 0 0-.219-.156c-.098-.027-.133-.062-.133-.129 0-.093.004-.093 1.059-.12 1.117-.028 1.367-.009 1.68.148.277.132.507.543.507.898 0 .406-.3.867-.695 1.063l-.207.105.457.691c.539.817.71 1.036.867 1.118.152.078.164.246.027.285-.168.043-.714.023-.843-.032zm-1.043-2.336c.558-.157.746-.938.324-1.344a.766.766 0 0 0-.68-.227l-.203.032v1.585h.195c.11 0 .274-.023.364-.046zm9.586 2.336c-.227-.083-.442-.227-.555-.38-.207-.273-.23-.417-.23-1.527-.004-1.164-.028-1.293-.239-1.39-.086-.04-.133-.094-.133-.149-.003-.078.024-.082.704-.082.707 0 .71 0 .71.094 0 .062-.027.094-.078.094-.043 0-.12.05-.175.109l-.102.11v1.136c0 1.074.004 1.152.086 1.309.125.242.379.367.707.347.348-.02.54-.144.68-.449.105-.23.105-.242.105-1.265.004-.91-.004-1.04-.07-1.141a.372.372 0 0 0-.176-.14c-.066-.016-.105-.055-.105-.106 0-.074.039-.078.562-.078.524 0 .563.004.563.078 0 .05-.04.09-.106.105-.191.051-.207.14-.226 1.352l-.024 1.133-.125.246a1.126 1.126 0 0 1-.695.586c-.262.078-.867.082-1.078.008zm16.23 0a1.275 1.275 0 0 1-.562-.383c-.196-.262-.223-.453-.227-1.547 0-1.14-.023-1.27-.234-1.367-.086-.04-.137-.094-.137-.149 0-.078.027-.082.707-.082.7 0 .707 0 .707.09 0 .063-.027.098-.09.105-.047.008-.129.067-.176.133-.082.11-.09.18-.101 1.098-.016 1.129.015 1.367.207 1.562.344.356 1.055.258 1.258-.171.129-.274.16-.61.144-1.5-.015-.938-.043-1.055-.265-1.11-.063-.02-.102-.058-.102-.105 0-.075.04-.082.563-.082.52 0 .562.008.562.078 0 .05-.05.101-.125.133-.066.027-.137.082-.152.12-.02.036-.043.579-.055 1.204l-.023 1.137-.125.246a1.126 1.126 0 0 1-.696.586c-.261.078-.87.082-1.078.004zm13.172 0c-.168-.075-.363-.325-.672-.844-.394-.672-.437-.735-.543-.735-.09 0-.094.008-.094.528 0 .625.055.804.25.843.098.02.125.047.125.125v.098H38.86v-.098c0-.078.028-.105.13-.128.234-.047.253-.16.238-1.622l-.012-1.292-.102-.106c-.054-.062-.136-.11-.175-.11-.047 0-.079-.03-.079-.081 0-.067.043-.082.309-.11.168-.015.629-.02 1.027-.011.649.015.742.027.899.109.277.144.43.43.43.793 0 .344-.196.644-.551.848-.114.066-.184.132-.16.148.023.016.207.273.406.582.394.598.613.867.707.867.078 0 .07.196-.008.227-.121.047-.578.023-.711-.035zm-.77-1.973c.165-.09.329-.297.36-.461a.774.774 0 0 0-.211-.637c-.148-.14-.29-.18-.535-.152l-.153.02v1.288h.211a.83.83 0 0 0 .328-.062zm18.524 1.965a1.9 1.9 0 0 1-.242-.078 2.743 2.743 0 0 1-.07-.418l-.051-.403h.117c.066 0 .117.016.117.035 0 .11.273.43.434.508.425.207.941.012.941-.36 0-.245-.121-.39-.52-.644-.562-.355-.78-.543-.894-.77a1.26 1.26 0 0 1-.047-.84c.059-.167.316-.425.54-.523.218-.097.913-.093 1.202.008l.219.075v.75h-.121c-.094 0-.129-.024-.148-.106-.043-.172-.266-.39-.454-.441-.5-.137-.898.379-.586.754.059.074.332.285.602.468.527.36.723.555.79.793.144.52-.095.977-.61 1.172-.278.106-.871.113-1.223.02zm-54.516-.09c0-.074.024-.094.102-.094.058 0 .137-.047.187-.113.082-.106.086-.156.086-1.43 0-.922-.015-1.344-.05-1.41-.06-.117-.16-.191-.25-.195-.051 0-.075-.032-.075-.106v-.105h2.496v.886l-.109-.011c-.082-.012-.121-.051-.156-.157-.082-.25-.219-.316-.715-.332l-.434-.02v1.196l.332-.02c.368-.019.551-.109.575-.277.011-.066.043-.09.125-.09h.113v1.09h-.117c-.09 0-.114-.02-.114-.097 0-.188-.136-.258-.546-.274l-.368-.015v.59c0 .71.004.718.48.718.47 0 .712-.12.837-.41.062-.144.203-.187.25-.07.027.074-.09.566-.18.738l-.059.125-1.207-.012-1.207-.008v-.097zm3.203.015c0-.078.032-.105.125-.125.22-.042.23-.105.243-1.453.015-1.402-.004-1.53-.23-1.636-.095-.043-.134-.094-.134-.16l-.004-.102.95.02c1.023.019 1.105.035 1.382.269.305.258.383.773.176 1.156-.18.332-.488.508-.984.563l-.262.023-.062-.16-.067-.164.153-.023a.827.827 0 0 0 .52-.305c.066-.086.089-.176.085-.336-.004-.406-.234-.656-.629-.692l-.226-.02.011 1.403c.016 1.528.024 1.57.254 1.617.086.016.114.047.114.122v.101H7.647v-.101zm6.91-.015c0-.067.024-.094.079-.094.043 0 .12-.039.175-.082l.098-.082.016-1.297c.011-1.457-.004-1.566-.242-1.656-.075-.031-.125-.078-.125-.125 0-.066.054-.074.632-.086 1.215-.02 1.47-.004 1.668.09.254.125.375.308.395.601.008.133.004.286-.008.344-.043.164-.234.363-.45.465l-.198.094.168.05c.402.122.656.543.605.997-.047.382-.21.601-.59.777-.199.09-.25.094-1.215.098h-1.011v-.098zm1.837-.317c.21-.144.293-.34.27-.628-.036-.442-.34-.704-.817-.704h-.258l.015.633c.012.606.016.637.11.715.144.117.492.11.676-.016zm-.172-1.742c.254-.101.386-.3.363-.547-.04-.328-.3-.511-.738-.511h-.25v1.132h.218c.121-.003.301-.035.403-.074zm1.707 2.059c0-.067.027-.094.11-.106.062-.004.148-.062.194-.129.086-.117.09-.164.09-1.406 0-1.031-.012-1.308-.058-1.39-.075-.133-.172-.207-.266-.211-.047 0-.07-.032-.07-.094 0-.094 0-.094.746-.094.75 0 .75 0 .75.094 0 .066-.024.094-.082.094-.043 0-.133.047-.196.101l-.117.102-.011 1.324-.012 1.32.105.07c.082.055.172.067.434.051.394-.023.578-.12.691-.367.07-.164.149-.203.258-.133.043.024.035.102-.031.364-.047.18-.113.375-.149.43l-.062.097-1.164-.012-1.164-.015v-.09zm2.91.015c0-.078.027-.105.129-.125.23-.046.246-.164.246-1.57 0-1.168-.004-1.258-.082-1.383-.043-.074-.13-.148-.188-.16-.07-.02-.105-.058-.105-.117 0-.09.012-.09.707-.09s.707 0 .707.09c0 .059-.031.098-.102.113a.355.355 0 0 0-.175.14c-.067.102-.075.24-.075 1.395 0 1.422.016 1.536.235 1.582.09.016.117.047.117.122v.101H20.84v-.101zm9.945-.007c0-.07.031-.102.13-.118.23-.046.245-.164.245-1.574 0-1.234 0-1.254-.094-1.394-.054-.078-.136-.149-.187-.157-.067-.011-.094-.042-.094-.117v-.101h2.457v.441c0 .438-.004.442-.101.442-.078 0-.106-.028-.125-.145-.047-.25-.22-.336-.715-.352l-.422-.02-.027.2a5.744 5.744 0 0 0-.028.598v.398l.356-.02c.39-.027.543-.093.586-.265.02-.074.054-.102.125-.102h.097v1.09h-.101c-.07 0-.106-.023-.106-.074-.004-.207-.203-.305-.625-.305h-.34l.016.59c.016.719.012.711.512.711.441 0 .672-.105.789-.367.062-.129.11-.176.176-.176.05 0 .105.02.12.043.04.063-.148.746-.222.82-.05.051-.262.06-1.242.051l-1.18-.008v-.093zm4.578.007c0-.066.04-.113.133-.156a.651.651 0 0 0 .219-.18c.082-.113.086-.164.086-1.699 0-1.777-.004-1.797-.29-1.894-.116-.035-.148-.07-.148-.149v-.101h2.914v1.047h-.125c-.101 0-.125-.016-.125-.094 0-.152-.156-.367-.324-.438-.098-.043-.328-.074-.625-.09l-.465-.019v1.438l.34-.004c.457 0 .617-.059.711-.258.063-.13.102-.156.2-.156h.12v1.261l-.132-.011c-.094-.012-.141-.04-.157-.098-.066-.246-.32-.356-.828-.356h-.265l.02.743c.015.851.054.972.3 1.066.11.04.148.074.148.148v.098h-1.707zm6.66-.007c0-.075.02-.106.082-.106.125 0 .274-.262.59-1.058.422-1.067.825-2.153.825-2.227 0-.055.042-.07.199-.066h.195l.563 1.449c.609 1.574.722 1.82.863 1.883a.147.147 0 0 1 .094.136c0 .094 0 .094-.707.094h-.707v-.101c0-.075.027-.106.12-.125.18-.036.192-.157.051-.57l-.117-.36h-.984l-.098.297c-.125.367-.117.62.016.64.07.012.094.043.094.118v.101H42.02v-.105zm1.914-1.47c0-.062-.308-.901-.332-.901-.015 0-.054.082-.093.18-.059.156-.114.308-.172.46l-.11.285h.352c.195 0 .352-.011.352-.023zm1.79 1.477c0-.078.027-.109.113-.125.226-.046.234-.105.254-1.476.015-1.414 0-1.535-.242-1.625-.075-.031-.125-.078-.125-.125 0-.066.046-.074.464-.074h.47l.273.343c.148.192.53.66.851 1.04.32.382.625.75.676.82l.098.125-.016-.95c-.016-1.03-.035-1.136-.262-1.195-.062-.015-.101-.054-.101-.105 0-.074.039-.078.562-.078.528 0 .563.004.563.082 0 .05-.035.086-.09.093-.05.008-.13.067-.18.13-.082.117-.086.171-.097 1.667l-.016 1.551h-.18c-.164 0-.195-.02-.32-.18-.11-.14-1.871-2.343-1.942-2.421-.007-.012-.007.449.004 1.027.02 1.168.043 1.309.243 1.351.093.016.12.047.12.122v.101h-1.124v-.101zm7.28-.007c0-.063.024-.106.06-.106.081 0 .234-.195.347-.441.152-.34.863-2.196.984-2.57l.114-.348.187.012.188.015.55 1.426c.305.781.586 1.492.626 1.57.093.184.23.336.3.336.032 0 .055.047.055.106v.105h-1.414v-.105c0-.075.023-.106.074-.106.203 0 .223-.176.07-.64l-.109-.325h-.977l-.09.285c-.167.536-.156.68.04.68.054 0 .078.031.078.106v.105h-1.082zm1.766-1.875c-.078-.239-.156-.461-.168-.496-.015-.036-.097.125-.207.398a5.834 5.834 0 0 0-.183.496c0 .016.156.031.351.031h.348zm1.895 1.875c0-.082.023-.106.098-.106.054 0 .132-.039.18-.086.07-.082.077-.18.09-1.394.007-.719 0-1.352-.013-1.403-.027-.117-.183-.261-.277-.261-.05 0-.078-.032-.078-.094 0-.094.004-.094.707-.094.684 0 .707 0 .707.082 0 .051-.043.106-.117.137a.36.36 0 0 0-.164.168c-.063.16-.098 1.469-.059 2.176.028.496.047.609.11.683.043.047.113.086.156.086.05 0 .074.031.074.106v.105h-1.414zm4.664-.008c0-.074.02-.098.098-.098.062 0 .136-.043.187-.11.082-.105.086-.16.086-1.429 0-.922-.012-1.344-.047-1.41-.062-.117-.16-.191-.254-.195-.05 0-.074-.035-.074-.106v-.105h2.5v.886l-.11-.011c-.085-.012-.12-.051-.156-.157-.082-.25-.222-.316-.714-.335l-.438-.016v1.184h.262c.36-.004.535-.075.613-.239.047-.101.09-.136.168-.136h.102v1.09h-.114c-.093 0-.113-.02-.113-.102 0-.188-.14-.254-.547-.27l-.37-.015v.59c0 .706.007.718.48.718.468 0 .714-.12.836-.41.062-.144.207-.187.25-.07.03.074-.086.566-.176.738l-.063.121-1.207-.008-1.203-.008v-.097zM5.57 33.016l-.101-.082.25-.38c.136-.21.273-.382.304-.382.141 0 .59.098.579.125-.024.058-.844.797-.887.797a.37.37 0 0 1-.14-.078zM.285 30.117H63.66v.38H.285zm24.121-.86a.675.675 0 0 1-.46-.765.635.635 0 0 1 .394-.488l.195-.094-.12-.07c-.067-.04-.118-.102-.118-.149 0-.078.305-.382.379-.382.02 0-.008-.07-.059-.157-.21-.363-.043-.89.356-1.097.215-.114.289-.117 1.043-.067.433.028.449.032.425.117a1 1 0 0 0-.023.122c0 .015-.074.03-.164.03h-.164l.023.243c.047.535-.328.898-.933.906-.317.008-.47.074-.344.153.031.023.234.097.45.168.69.222.816.335.788.699-.031.375-.332.703-.765.832-.247.074-.696.074-.907 0zm.926-.257c.336-.168.484-.492.297-.66-.121-.113-.664-.29-.805-.262-.285.059-.55.41-.5.66.067.348.574.48 1.008.262zm.11-1.898c.253-.157.351-.598.183-.817-.234-.3-.68.035-.684.512 0 .148.02.2.118.281.136.125.214.129.382.024zm1.578.972c-.18-.035-.282-.16-.301-.379-.055-.558.414-1.375.933-1.64.274-.137.805-.149 1.164-.028.032.012.008.153-.074.45-.164.574-.254 1.152-.203 1.253.035.067.063.07.172.032.102-.035.137-.035.164.011.059.098.023.133-.215.215-.32.11-.465.09-.512-.074l-.039-.133-.172.098c-.289.164-.68.246-.917.2zm.718-.375c.121-.058.25-.148.282-.199.054-.086.226-.715.293-1.082.027-.148.023-.156-.13-.195-.277-.078-.558.125-.785.57-.234.469-.293.887-.14.992.105.074.168.063.48-.086zm19.703.363c-.187-.042-.25-.109-.304-.3-.075-.29.101-.836.406-1.242.367-.485.773-.649 1.371-.555.156.027.297.058.313.074.015.02-.036.285-.118.598-.078.308-.148.687-.152.84l-.008.27.176-.009c.16-.008.18.004.18.09 0 .078-.04.106-.242.168-.333.102-.485.078-.5-.07-.008-.063-.024-.117-.032-.117s-.117.046-.242.101c-.2.09-.605.2-.684.188-.015 0-.09-.016-.164-.035zm.7-.359c.101-.05.214-.129.254-.172.09-.105.257-.652.343-1.136.02-.13.016-.137-.144-.18-.133-.035-.192-.031-.309.027-.265.125-.527.555-.664 1.082-.129.504.031.625.516.38zm-45.13.266c-.015-.055.06-.442.165-.867.203-.84.199-.907-.024-.844-.109.035-.12.027-.12-.059 0-.078.038-.105.238-.164.132-.039.304-.078.386-.082.137-.008.145 0 .156.133.008.074-.062.46-.156.852-.097.39-.164.738-.148.773.02.055.062.062.215.039.18-.027.187-.023.175.066-.011.075-.062.114-.242.168-.125.04-.316.075-.426.075-.171.003-.199-.008-.218-.09zm1.598.015l-.093-.078.32-1.426c.18-.785.316-1.484.309-1.546-.012-.125-.028-.133-.188-.082-.082.023-.094.011-.094-.079 0-.12.145-.18.551-.222.23-.024.238-.02.238.078 0 .055-.066.402-.144.766-.082.367-.145.69-.145.722 0 .04.043.031.18-.027.46-.207.867-.195 1.012.027.136.211.066.75-.157 1.192-.113.23-.457.59-.64.675-.246.114-1.012.114-1.149 0zm1.055-.265c.207-.149.441-.653.504-1.098.066-.441-.223-.531-.691-.207a.611.611 0 0 0-.22.277c-.073.207-.23.875-.23.997 0 .175.403.195.637.03zm1.59.215c-.113-.118-.125-.153-.121-.43.004-.707.406-1.344.957-1.516.273-.086.515-.058.676.082.093.082.113.133.113.305 0 .43-.39.758-.953.797-.164.012-.309.043-.328.066-.047.075-.035.317.015.418.106.2.254.203.614.02.218-.117.265-.13.3-.074.07.117.04.152-.285.304-.27.13-.37.157-.597.157-.247 0-.282-.012-.391-.13zm.742-1.008c.356-.098.59-.48.406-.664-.113-.114-.218-.11-.367.015-.117.098-.305.414-.363.602-.024.078-.012.094.07.094.051 0 .168-.024.254-.047zm1.402 1.12c0-.007.075-.331.165-.722.093-.39.167-.793.167-.894v-.18l-.168.023c-.144.028-.164.02-.164-.054 0-.094.133-.164.473-.246.23-.059.316-.02.316.144v.098l.149-.102c.262-.18.418-.21.605-.125.09.043.16.094.153.121-.114.403-.176.528-.27.528-.082 0-.094-.024-.094-.14 0-.31-.265-.31-.457-.005-.117.188-.242.617-.34 1.188-.027.168-.074.312-.097.32-.074.02-.438.063-.438.047zm2.086-.038c-.046-.055-.02-.207.22-1.297l.097-.453h-.14c-.079 0-.141-.012-.141-.024 0-.066.093-.187.144-.187.102 0 .297-.2.379-.383.09-.21.129-.242.262-.246.09 0 .097.016.074.137-.02.097-.04.195-.055.293l-.023.16h.191c.2 0 .227.031.168.183-.015.047-.082.067-.223.067-.234 0-.195-.086-.378.832-.137.676-.125.738.097.672.188-.055.203-.047.192.058-.012.07-.067.11-.223.164-.254.086-.578.098-.637.02zm1.68-.055c-.305-.332-.086-1.273.402-1.71.196-.18.504-.321.707-.321.13 0 .41.133.454.215.066.125.046.425-.04.566-.175.293-.554.477-.968.477h-.242v.222c0 .43.175.504.644.274.149-.074.277-.125.285-.117a.268.268 0 0 1 .035.105c.012.066-.046.113-.293.238-.27.137-.347.16-.597.16-.254 0-.297-.011-.387-.109zm.73-1.031c.223-.074.376-.2.442-.363.059-.133.055-.153-.02-.254-.113-.157-.226-.157-.398-.004-.133.117-.36.512-.36.625 0 .058.16.058.34-.004zm15.63 1.113c-.06-.058-.02-.308.18-1.164.273-1.164.417-1.848.417-1.96 0-.079-.016-.087-.144-.067-.133.023-.149.015-.149-.074 0-.106.106-.153.52-.235.21-.039.273-.012.273.125 0 .067-.14.727-.312 1.477-.172.746-.313 1.422-.313 1.5v.144l.192-.027c.175-.024.187-.02.175.066-.011.07-.066.11-.242.164-.234.075-.547.102-.598.051zm1.57-.023c-.051-.086-.024-.266.152-.969.094-.363.164-.695.152-.734-.015-.075-.023-.079-.207-.036-.097.024-.113.016-.113-.058 0-.098.176-.188.5-.25.23-.043.332-.024.332.074 0 .035-.086.422-.187.86-.106.433-.18.812-.164.835.02.028.101.036.214.02.172-.024.184-.02.168.066-.007.07-.062.11-.242.164-.27.086-.562.098-.61.028zm1.535-.02c-.016-.039-.004-.176.023-.305.094-.421.297-1.39.297-1.41 0-.007-.058-.02-.129-.02-.18 0-.144-.116.067-.226.125-.066.199-.148.304-.347.118-.227.153-.262.254-.262h.117l-.054.262a4.936 4.936 0 0 0-.059.293c0 .015.094.03.207.03.219 0 .223.005.184.157-.024.082-.055.094-.242.094h-.215l-.14.71c-.079.387-.13.735-.118.774.023.051.055.059.164.028.191-.06.2-.055.2.058 0 .086-.036.11-.243.168-.32.09-.582.09-.617 0zm1.715-.023c-.106-.09-.121-.14-.137-.375-.035-.528.207-1.125.563-1.399.39-.3.82-.343 1.062-.097.113.113.121.144.105.332-.039.418-.437.718-.976.746-.34.02-.375.058-.309.355.075.32.203.352.621.153.274-.13.34-.13.34.003s-.5.348-.86.368c-.265.015-.304.008-.41-.086zm.894-1.121c.258-.133.371-.43.223-.598-.188-.203-.531.066-.703.555l-.063.18.188-.028c.105-.012.262-.062.355-.11zm9.946 1.199c0-.008.074-.332.168-.723.09-.39.164-.793.164-.89v-.184l-.164.027c-.149.024-.168.016-.168-.058 0-.102.074-.14.41-.23.293-.075.383-.048.383.128v.098l.144-.102c.262-.175.418-.21.606-.125.09.04.164.086.164.098 0 .016-.043.144-.094.289-.078.215-.11.262-.188.262s-.093-.024-.093-.14c0-.29-.246-.31-.43-.04-.137.207-.207.43-.32 1.02-.051.261-.106.492-.121.507-.024.024-.461.086-.461.063zm4.8-.05c-.035-.09.004-.349.164-1.087l.137-.629-.117-.015c-.14-.016-.164-.153-.031-.196.144-.047.312-.218.394-.406.094-.207.13-.242.266-.242.09 0 .094.012.07.137-.02.097-.035.195-.05.293l-.028.156h.195c.196 0 .223.031.164.187-.015.047-.078.067-.222.067-.23 0-.196-.086-.38.832-.136.676-.124.738.099.672.19-.055.203-.047.19.058-.01.07-.065.11-.222.164-.277.094-.597.098-.633.012zm1.676-.044c-.312-.316-.094-1.265.395-1.71.199-.18.508-.317.707-.317.129 0 .41.129.453.21.066.126.047.43-.04.571-.175.29-.554.477-.968.477h-.25l.016.257c.03.407.18.465.636.239.149-.075.278-.13.29-.117a.393.393 0 0 1 .03.101c.012.07-.046.117-.292.242-.266.137-.348.157-.59.157s-.293-.012-.387-.106zm.875-1.09c.29-.148.422-.484.238-.625-.12-.09-.207-.074-.367.067-.133.117-.355.511-.355.629 0 .07.285.027.484-.07zm1.262 1.164c0-.02.074-.359.168-.757.094-.395.164-.782.156-.856-.012-.125-.023-.133-.164-.125-.117.008-.156-.008-.172-.07-.02-.067.02-.098.192-.16.117-.043.285-.094.37-.11.16-.031.16-.031.258.215a1.95 1.95 0 0 0 .25-.117c.286-.145.333-.149.508-.04l.133.079-.09.277c-.078.227-.105.274-.183.274s-.094-.02-.094-.137c0-.367-.348-.293-.535.113-.047.102-.14.45-.211.778a8.51 8.51 0 0 1-.137.609c-.035.031-.45.059-.45.027zm2.082 0c0-.02.066-.297.148-.617.086-.351.149-.703.157-.879l.004-.293-.149.012c-.121.012-.156-.004-.172-.066-.015-.067.02-.09.192-.145.379-.117.468-.125.539-.05.039.038.07.113.07.171 0 .055.008.102.016.102.011 0 .132-.059.273-.125.336-.16.781-.242.914-.172.086.047.094.07.066.262-.015.117-.082.441-.148.722a6.5 6.5 0 0 0-.133.653c-.011.148-.011.148.164.144.117-.004.18.016.2.059.03.086-.008.117-.27.191-.297.09-.566.09-.602.004-.011-.035.051-.402.141-.813.184-.824.195-.917.11-.953-.09-.035-.41.125-.598.297-.156.14-.18.188-.274.602-.058.246-.117.539-.132.652-.016.11-.051.207-.079.215-.125.04-.441.059-.441.027zm2.851-.03c-.011-.04.063-.427.165-.864.105-.438.183-.82.171-.852-.015-.047-.054-.05-.16-.02-.074.024-.14.04-.148.04a.25.25 0 0 1-.012-.094c0-.082.04-.11.219-.164.496-.152.648-.125.597.098-.011.054-.097.418-.19.808-.095.39-.161.738-.145.774.015.047.066.054.21.035.18-.028.188-.024.176.066-.023.18-.82.336-.883.172zm1.57 0c-.027-.075.009-.274.169-1.005.18-.805.18-.73.027-.73-.184 0-.152-.117.059-.23.125-.063.199-.15.297-.337.105-.207.152-.254.246-.265.129-.016.129-.004.039.441l-.028.137h.22c.179 0 .21.012.19.066a.38.38 0 0 0-.027.125c0 .047-.054.063-.222.063h-.223l-.137.703c-.078.387-.125.738-.113.773.023.059.05.063.164.032.191-.06.2-.055.2.058 0 .086-.036.11-.243.168-.32.09-.586.09-.617 0zm1.712-.032c-.121-.102-.121-.113-.121-.52 0-.394.007-.43.156-.734.183-.375.394-.578.734-.707.59-.223 1.016.156.754.672-.148.293-.543.504-.945.508-.238 0-.254.003-.281.109-.036.14.007.352.09.445.097.11.257.09.55-.058.215-.114.262-.125.297-.075.07.118.035.16-.242.297a1.29 1.29 0 0 1-.578.153c-.266.015-.305.008-.414-.086zm.906-1.13c.281-.155.375-.472.18-.6-.078-.051-.133-.055-.22-.028-.144.05-.355.324-.44.578l-.067.2.191-.028c.102-.012.266-.066.356-.121zM0 27.95c.008-.043.05-.082.098-.09.125-.023.23-.132.316-.324.113-.25.457-2.004.465-2.367.008-.309.008-.313-.125-.398-.258-.165-.188-.188.531-.188.567 0 .664.008.664.063 0 .039-.05.074-.125.09-.265.054-.367.316-.617 1.617-.234 1.21-.23 1.187-.129 1.296.082.079.125.086.45.07.437-.023.593-.097.745-.35.122-.2.125-.204.211-.15.047.032.047.071-.011.239-.035.113-.11.281-.16.375l-.098.164-1.113.012c-1.043.012-1.114.008-1.102-.063zm21.05.012c0-.031.071-.094.157-.137a.53.53 0 0 0 .246-.265c.117-.247.48-2.032.485-2.41.007-.286.003-.294-.13-.376-.277-.18-.214-.191 1.055-.191 1.16 0 1.188 0 1.16.082-.011.047-.046.211-.078.367-.043.242-.062.285-.14.297-.075.012-.094-.008-.094-.098 0-.277-.164-.355-.746-.355h-.402l-.118.535a32.44 32.44 0 0 1-.133.61c-.019.062.016.07.344.07.414 0 .54-.043.66-.238.11-.176.25-.188.215-.024l-.093.504c-.06.305-.09.387-.145.387-.047 0-.078-.043-.094-.121a.294.294 0 0 0-.12-.176c-.102-.055-.755-.078-.806-.031-.027.027-.148.632-.203 1.007-.027.18-.02.204.078.27.086.055.18.066.47.05.437-.023.589-.093.769-.347.078-.11.148-.176.183-.16.082.031.07.105-.05.402-.184.438-.079.407-1.356.407-.937 0-1.117-.008-1.117-.06zm21.137 0c0-.031.063-.082.137-.106.262-.09.348-.332.614-1.687.226-1.172.218-1.355-.043-1.441-.047-.016-.079-.051-.07-.075.01-.035.34-.054 1.171-.062 1.133-.012 1.152-.008 1.129.074-.016.043-.05.211-.078.367-.047.242-.067.285-.145.297-.078.012-.09-.008-.09-.113 0-.266-.203-.356-.769-.332l-.328.012-.117.546c-.063.301-.118.567-.118.598 0 .078.633.07.786-.008a.454.454 0 0 0 .172-.191c.03-.078.082-.125.128-.125.098 0 .098-.031-.011.535-.075.395-.102.469-.164.469-.047 0-.078-.028-.078-.074 0-.196-.391-.344-.75-.282l-.157.028-.086.468c-.148.828-.14.903.086.996.246.106.102.145-.562.157-.547.008-.653 0-.653-.051zm-24.41-.902c-.183-.086-.347-.348-.347-.563 0-.332.293-.633.617-.629.39 0 .629.238.629.625.004.492-.446.774-.899.567zm21.18.02a.799.799 0 0 1-.246-.212c-.098-.129-.117-.199-.117-.375.008-.387.246-.62.625-.62.187 0 .25.019.383.124.285.23.328.621.101.899-.195.23-.48.3-.746.183zm-24.875-1.49c-.082-.093-.09-.081.383-.624l.16-.184.238.051c.13.031.235.066.235.082 0 .027-.891.758-.926.758a.377.377 0 0 1-.09-.086zm21.168-.003l-.09-.074.313-.36c.172-.199.328-.363.347-.363.102 0 .461.106.45.129-.012.031-.786.656-.887.719-.024.015-.082-.008-.133-.051zm27.664.004l-.102-.078.325-.36c.18-.199.34-.363.36-.363.081 0 .456.102.452.125 0 .02-.789.66-.89.723-.024.015-.09-.008-.145-.051zm-59.387-.215c-.172-.172-.004-.5.25-.5.176 0 .27.094.27.273 0 .278-.328.422-.52.223zm28.082.027c-.101-.078-.097-.336.008-.445.172-.172.5-.059.5.172 0 .254-.316.422-.508.273zm27.637-.027c-.172-.176-.004-.5.258-.5s.375.293.184.484c-.13.13-.32.133-.442.012zm-36.457-1.2c-.062-.073-.047-.097.254-.429l.32-.351.235.054c.132.031.238.067.238.078-.004.04-.84.688-.914.703-.035.012-.098-.015-.133-.054zm0 0"/><path d="M36.625 21.809l.094-.25c.164-.457.336-.809.582-1.192.261-.406.836-1 1.074-1.117.293-.14.66-.188 1.11-.148.39.035 1.578.23 2.058.34.367.081.902.09 1.152.015.489-.14.774-.418.91-.871.106-.348.106-.66 0-.871-.144-.285-.12-.356.227-.692.172-.168.313-.32.313-.34.003-.113-.235-.562-.297-.562a.424.424 0 0 1-.164-.082l-.098-.078.207-.106c.281-.144.492-.37.492-.53 0-.071-.058-.24-.133-.376-.14-.261-.175-.515-.097-.664.05-.098.14-.137.578-.265.37-.106.504-.215.554-.454.047-.203.024-.332-.097-.574-.098-.199-.735-1.187-.922-1.43-.25-.324-.555-.882-.645-1.183-.09-.297-.09-.316-.027-.7.137-.812.059-1.484-.332-2.796-.289-.973-.367-1.211-.457-1.395-.164-.328-.145-.406.191-.683.164-.133.313-.274.336-.317.102-.191-.011-.562-.207-.664-.12-.066-.191-.023-.312.207-.094.176-.133.207-.235.207-.164 0-.19-.07-.085-.21.12-.169.113-.196-.079-.22-.144-.019-.222-.078-.53-.398-.419-.426-.7-.625-1.259-.883-.254-.117-.343-.175-.25-.156.078.012.364.035.63.047.773.039.96-.063 1.14-.625.121-.379.18-.555-.102-.82L40.915 0H64v21.809zm0 0" fill="#e2011c"/><path d="M16.938 21.809c-.168-.016-.313-.024-.325-.036-.015-.015.172-.14 1.04-.671.277-.172.394-.262.355-.282-.031-.02-.274-.047-.54-.062-.394-.024-.507-.016-.624.039-.078.035-.39.129-.696.21-.75.2-1.003.337-1.242.673l-.09.129H0V0h29.39l-.566.375c-.316.156-.68.375-.812.484-.446.371-1.047 1.215-1.2 1.684-.054.168-.105.234-.273.352-.258.175-.57.515-.824.902-.348.523-1.012 1.707-1.145 2.035-.203.508-.183.895.114 2.418.132.668.277 1.348.316 1.508.043.164.09.437.105.61.024.308.047.374.223.757.05.102.09.219.09.262 0 .039.039.093.086.125.047.027.082.097.082.156 0 .074.094.21.3.441.477.528.825 1.02.825 1.176 0 .13-.188.164-.488.086-.352-.086-.641-.273-1.086-.71-.188-.184-.344-.31-.344-.278 0 .035.133.207.289.383.316.355.363.449.297.578-.059.113-.203.144-.402.09-.227-.063-.356.027-.32.214.023.114.015.13-.048.102a3.463 3.463 0 0 0-.66-.133c-.23-.023-.25-.035-.387-.23-.109-.149-.19-.219-.3-.25-.414-.117-1.442-.297-2.13-.375-1.214-.133-1.503-.145-2.085-.075-.445.055-.567.086-.813.211-.43.223-1.18.915-1.18 1.094 0 .086.165.055.352-.062.574-.36 2.535-.864 3.496-.899.477-.02.453.004-.12.106-.157.031-.532.125-.833.215-.3.09-.816.23-1.148.308-.332.078-.707.18-.832.227l-.227.082.352.004c1.804.02 3.855.597 4.691 1.316.363.313.492.348 1.024.293.722-.078 1.664-.426 2.074-.77.18-.152.324-.21.324-.132 0 .136-.234.87-.34 1.054-.113.204-.117.235-.058.278.035.027.054.058.043.074-.016.012.015.035.062.05.137.044.102.087-.117.141-.211.055-.379.153-.379.22 0 .023.027.038.062.038.11 0 .028.074-.109.106-.098.023-.117.039-.074.066.043.027.043.04.008.04-.032 0-.055.042-.055.093 0 .066-.04.113-.125.152-.207.09-.148.14.137.113.144-.011.23-.011.195 0-.031.016-.266.122-.52.239-.25.117-.578.258-.726.308-.168.059-.277.125-.285.168-.016.07.062.067.262-.008.035-.015.062-.011.062.008 0 .02-.434.274-.96.563-.532.289-1.024.586-1.102.66-.075.074-.172.137-.215.137-.043 0-.102.047-.13.105-.077.18-.062.203.13.168.289-.047.418-.047.437.012.012.027-.015.05-.062.05a.2.2 0 0 0-.133.06c-.027.034-.098.066-.16.073-.07.008-.14.063-.196.149-.047.074-.12.14-.168.152-.043.012.02.016.149.008 1.87-.14 2.219-.21 2.973-.598a7.114 7.114 0 0 0 1.789-1.308c.136-.14.261-.258.28-.258.067 0 .032.238-.066.445-.164.356-.511.688-1.222 1.164-.36.239-.75.465-.864.504-.355.114-.933.235-1.539.32-1.972.29-2.726.508-3.472 1.004-.125.086-.258.149-.293.141-.035-.008-.13.047-.211.113-.223.196-.059.16.406-.082.477-.246.7-.285.324-.054-.46.28-.812.46-1.16.46zm-2.45-2.43c.075-.035.325-.172.551-.313.227-.14.5-.293.602-.34.101-.046.394-.18.644-.292.527-.243 1.3-.465 1.348-.395.015.027.129.055.254.063.175.011.207.023.136.05-.05.016-.093.051-.093.07 0 .075.386.051.55-.035.067-.03.211-.07.325-.082.14-.02.207-.046.207-.085 0-.051.035-.055.16-.036.176.032.555-.043 1.566-.297.684-.175 1.203-.347 1.66-.558l.332-.152-.332-.215c-.804-.52-1.613-.84-3.386-1.34-.309-.086-.582-.176-.606-.2-.027-.027-.011-.03.043-.011.176.066.313.078.313.027 0-.062-.133-.11-.399-.148-.242-.031-.394-.106-.226-.106.258 0-.188-.168-.688-.254-.367-.066-.39-.078-.234-.156.133-.062.277-.312.238-.41-.031-.086-.07-.078-.27.059a2.793 2.793 0 0 0-.937 1.129c-.113.253-.074.277.508.304.476.02.484.02.363.086-.066.04-.207.082-.305.098-.34.05-.527.215-.359.308.05.028.031.051-.094.11-.136.066-.144.082-.078.117.04.023.16.035.266.027.144-.011.21.004.281.067l.094.086-.184.117a.833.833 0 0 0-.258.25c-.039.074-.175.25-.308.394-.133.141-.238.286-.238.325 0 .035-.192.222-.426.41-.633.508-.906.789-.906.922a.213.213 0 0 1-.098.18c-.2.128-.3.28-.191.28a.88.88 0 0 0 .18-.058zm4.867-.492c.157-.02.336-.07.403-.11l.117-.07-.2-.098-.202-.101-.2.082c-.113.047-.226.09-.34.133-.304.12-.343.277-.058.234l.48-.07zm-7.043-1.91c.926-.977 1.583-1.555 2.41-2.137.282-.195.481-.313.493-.281.027.082.148.058.344-.07.226-.145.34-.29.62-.805.294-.532.407-.664.829-.993.215-.171.433-.34.648-.511.227-.184.282-.211.262-.137-.016.055-.004.09.027.09.094 0 .54-.192.555-.238.023-.075-.43-.153-.762-.13-.258.016-.347.047-.668.22-.75.41-1.289.847-2.324 1.89-.742.75-1.328 1.254-1.625 1.395-.098.046-.172.144-.285.382-.23.465-.637 1.133-1.02 1.676-.363.512-.441.692-.16.363.098-.113.39-.433.656-.71zm9.278 4.593c1.113-.234 1.238-.25 2.02-.285.878-.039.988-.062 1.515-.312.172-.078.238-.094.262-.055.039.062.324-.094.886-.488.227-.164.551-.367.72-.461.25-.137.327-.16.448-.137.13.023.168.008.332-.137.457-.406.844-.593 1.235-.593.117 0 .156.015.156.066 0 .043.023.059.063.043.117-.043.062.008-.235.23-.344.258-.312.336.04.09.34-.238.34-.238.34-.14 0 .054-.126.191-.364.39-.535.453-.918.824-1.496 1.469l-.52.559h-6.586zm.012-8.543a.301.301 0 0 1 .144 0c.04.008.008.02-.07.02-.082 0-.113-.008-.074-.02zm0 0" fill="#003189"/><path d="M41.012 11.43c-.18-.028-.086-.094.133-.094.218 0 .335-.086.335-.25 0-.074-.015-.086-.085-.066-.06.02-.106.003-.145-.055-.035-.05-.125-.09-.258-.11-.238-.03-.625-.261-.554-.332.023-.023.144-.05.273-.062.215-.016.23-.027.273-.16.036-.102.078-.149.16-.168a.614.614 0 0 0 .215-.125c.055-.051.243-.188.414-.301.29-.191.47-.39.403-.457-.067-.066-.692-.14-.985-.117-.34.031-.93.156-1.175.25-.25.097-.18.012.168-.195.468-.278 1.37-.54 1.87-.54.192 0 .84.153.919.22.148.124-.016.566-.297.788l-.117.094.195.203-.098.082a.354.354 0 0 1-.168.078c-.035 0-.125.063-.199.133-.113.11-.129.149-.094.234a.223.223 0 0 1-.008.188c-.027.055-.035.172-.019.309.035.28-.012.378-.215.437-.152.043-.7.05-.937.012zm0 0" fill="#7f7f7f"/></svg>