<svg version="1.1" id="Calque_1" xmlns="http://www.w3.org/2000/svg" x="0" y="0" width="113" height="98" viewBox="0 0 635 572" xml:space="preserve"><style>.st0{fill:#1f356c}</style><path d="M10.6 157.5h22c15.8 0 25.6 8.1 25.6 21.5 0 8.6-4.2 15.1-11.5 18.6l22.6 31.8H51.8l-19.1-29.1h-7.5v29.1H10.6v-71.9zm14.6 12.4v18h8.2c6.2 0 9.8-3.3 9.8-9.1 0-5.4-3.6-8.8-9.8-8.8h-8.2zM78.4 157.5h41.9v12.4H93v16.6h23.2V199H93v18h27.3v12.4H78.4v-71.9zm14.2-6.2l11.6-13.9h15l-13.4 13.9H92.6zM137.3 157.5H161c15.8 0 25.5 8.1 25.5 21.5 0 13.3-9.7 21.4-25.5 21.4h-9.1v29.1h-14.6v-72zm14.6 12.4v18h9.8c6.2 0 9.9-3.3 9.9-9.1 0-5.4-3.7-8.8-9.9-8.8h-9.8zM240.3 157.5h14.6v43.8c0 18.9-11.1 30.2-29.2 30.2-18 0-29.1-11.3-29.1-30.2v-43.8h14.6v45c0 9.7 5.4 15.3 14.6 15.3 8.9 0 14.5-5.6 14.5-15.3v-45zM273 157.5h20.4c15 0 24 7.4 24 19.5 0 5.8-2.7 10.8-7.6 14.2 7.6 3.4 11.8 9.6 11.8 17.1 0 13.1-10.2 21.2-26.7 21.2h-22v-72zm14.6 12.4v15.7h6.2c5.5 0 8.7-2.8 8.7-7.9 0-4.8-3.2-7.8-8.7-7.8h-6.2zm0 28.3V217h8.2c6.8 0 10.9-3.6 10.9-9.6s-4.1-9.2-10.9-9.2h-8.2zM336.7 157.5h14.6v58.7h27.3v13.3h-41.9v-72zM391.6 157.5h14.6v71.9h-14.6v-71.9zM501.8 234.4c1.5 0 3.6-.2 5.1-.8v12.3c-2.4.9-4.4 1.3-7.6 1.3-8 0-15.4-3.3-22.5-9.5l-8.5-7.6c-3.1.8-6.4 1.2-9.9 1.2-22.7 0-38.2-17.5-38.2-38s15.5-38 38.2-38c22.6 0 38.1 17.5 38.1 38 0 12-5.3 23-14.2 30l4.3 4.1c5.6 5.2 10.6 7 15.2 7zm-20.2-41c0-13.8-9.7-24.3-23.1-24.3-13.6 0-23.2 10.6-23.2 24.3 0 13.8 9.7 24.3 23.2 24.3 13.4.1 23.1-10.5 23.1-24.3zM552.2 157.5h14.6v43.8c0 18.9-11.1 30.2-29.2 30.2-18 0-29.1-11.3-29.1-30.2v-43.8h14.6v45c0 9.7 5.4 15.3 14.6 15.3 8.9 0 14.5-5.6 14.5-15.3v-45zM585 157.5h41.9v12.4h-27.3v16.6h23.2V199h-23.2v18h27.3v12.4H585v-71.9z"/><g><path d="M10.6 262.9h41.9v12.4H25.2V292h23.2v12.4H25.2v30.4H10.6v-71.9zM65.4 262.9h22c15.8 0 25.6 8.1 25.6 21.5 0 8.6-4.2 15.1-11.5 18.6l22.6 31.8h-17.5l-19.1-29.1H80v29.1H65.4v-71.9zM80 275.3v18h8.2c6.2 0 9.8-3.3 9.8-9.1 0-5.4-3.6-8.8-9.8-8.8H80z"/><path d="M151.4 262.9h19.1l27.2 71.9h-15.5l-6.9-18.7h-28.8l-6.9 18.7h-15.5l27.3-71.9zm19.4 40.8l-9.9-27-9.9 27h19.8zM208.9 262.9h18.7l32.2 51.5v-51.5h14.6v71.9h-18.7l-32.2-51.7v51.7h-14.6v-71.9zM345.5 313.3l11.5 8.8c-5.5 7.6-14.2 12.9-24.7 14.3l-8.9 14.9h-12.9l9-15.1c-18.7-3.3-31-19.1-31-37.4 0-20.5 15.5-38 38.2-38 13 0 23.7 5.9 30.3 14.6l-11.5 8.9c-4.1-5.9-10.6-9.9-18.8-9.9-13.6 0-23.2 10.6-23.2 24.3s9.7 24.3 23.2 24.3c8.2.2 14.6-3.8 18.8-9.7zM387.9 262.9H407l27.2 71.9h-15.5l-6.9-18.7H383l-6.9 18.7h-15.5l27.3-71.9zm19.4 40.8l-9.9-27-9.9 27h19.8zM445.4 262.9H460v71.9h-14.6v-71.9zM484.3 315.1c4.3 5.5 10.1 8.8 15.9 8.8 5.8 0 9.2-3.1 9.2-8.3 0-12.8-32.9-10-32.9-33.9 0-11.4 9.3-20.9 23-20.9 10.8 0 19.1 4.8 25.2 12.1l-10.7 9.6c-4.2-5.4-8.9-8.9-14.4-8.9-5 0-8.3 3.3-8.3 7.5 0 12.8 32.9 9.9 32.9 34.2-.2 13.4-10.7 21.6-23.8 21.6-12.1 0-20.3-4.4-26.7-12l10.6-9.8zM539.7 262.9h41.9v12.4h-27.3V292h23.2v12.4h-23.2v18h27.3v12.4h-41.9v-71.9z"/></g><path class="st0" d="M99.4 95.3s.1 0 0 0c.4-.2.6-.3.8-.5h-.1c-.2.1-.4.3-.7.5M135.9 83.1l-.2.2c.1 0 .2 0 .2-.2"/><path d="M124.4 95.9c1.1-1.1 2.1-2.2 3.2-3.4 2-2.3 4-4.4 6.3-6.4.7-.6 1.4-1.2 2.1-1.6.2-.2.2-.6.4-.8-.9.4-1.5 1.1-2.4 1.5-.2 0-.4-.2-.2-.4.7-.5 1.3-1 2-1.5h-.1c-.2 0-.2-.2-.2-.4-2.4-.4-4.3 1.3-6 2.8-.4.2-.8-.2-.9-.2-2.8.9-4.9 3.4-7.7 4.5v-.4c-1.1.4-2.2 1.1-3.4 1.3-1.7.4-3.2.2-4.7.2-2.3.2-4.6.7-6.8 1.2h-.2c-1.2.3-2.4.8-3.5 1.4l-.1.1-.3.3c-.4.4-.8.9-1.3 1.1-1.2.6-2.1 1.6-3.1 2.4-.4.4-.5.4-.6.4-1 1-2 1.9-3 2.9-.1.1-.4.1-.6.1 0-.1.1-.1.1-.2.2-.3.3-.5.5-.8l.6-.9c.3-.4.5-.8.8-1.1.1-.1.1-.2 0-.3-.1-.1-.2-.1-.3-.1.9-.9 2.1-1.7 3.2-2.4-.1 0-.3-.1-.2-.2.1-.2.2-.3.3-.5 0-.1 0-.1.1-.2l-.1-.1-.9.6c-.5.4-.8 1.2-1.5 1.2h-.3c-.1 0-.2 0-.2-.1v-.1c0-.1.1-.1.1-.2s.1-.1.1-.2c0 0 0-.1.1-.1 0-.1.1-.2.1-.2 0-.1.1-.1.1-.2.1-.1.2-.3.2-.4 0-.1.1-.1.1-.2.1-.1.1-.2.2-.3.1-.2 0-.3-.1-.3.3-.5.8-.8 1.3-1.1h-.1c.7-.4 1.4-.8 2.2-1.2l.3-.3c-1.1.4-2 .9-3 1.5 0 0-.2.1-.3.2 0 0-.2.1-.5-.2v-.1c.2-.4.8-.6 1.1-.9.2 0 .4 0 .4.2 6-4.7 14.3-3.6 21.3-6 .6-.4 1.1-.7 1.7-1.1.9-.4 1.7-1.3 2.8-1.9 1.5-1.1 2.6-2.4 3.2-4.3 0-.2-.2-.4-.2-.4-2.4 2.6-5.3 4.7-8.3 6.2-4 2.1-8.3 1.7-12.4 2.3.2-.4.6-.4.9-.4 0-.6.4-.8.8-1.1h.6c.2 0 .2-.4.4-.4.4 0 .9-.2.8-.2-.6-.8-1.7.6-2.6 0 .4-.4.2-.9.6-1.1h.8c0-.4.4-.8.4-.8 2.8-1.7 5.5-3 8.1-4.5-.6 0-.9.6-1.5.2.4 0 0-.6.4-.6 2.1-.6 3.8-1.7 5.8-2.4-.8 0-1.3.6-2.1 0 .4-.2.6-.6 1.1-.6v-.6c0-.2.2-.2.4-.2-.2 0-.4-.2-.4-.2.2-.4.8-.2 1.1-.6-.2 0-.6 0-.6-.2.6-.8 1.5-.9 2.4-1.1-.2-.4-.8 0-.8-.4 0-.2.2-.2.4-.2h-.4c-.4-.2-.2-.6-.2-.8 1.1-1.3 1.1-3 1.7-4.5-.2 0-.4 0-.4-.2-1.9 2.1-4.9 2.8-7.7 3.6h-.9c-.9.4-2.3.4-3.2-.2-.8-.4-1.1-.9-1.9-1.5-1.5-.9-3-1.7-4.7-2.3-4.7-1.5-9.6-2.3-14.5-2.1 2.1-1.1 4.4-1.2 6.6-1.9 3.2-.9 6.2-2.1 9.6-1.9-.6-.2-1.3 0-1.9 0-2.6-.2-5.3.6-8.1 1.1-1.9.4-3.6 1.1-5.5 1.5-1.1.4-1.7 1.5-3 1.3v-.6c1.9-2.3 4.1-4.5 7.2-4.7 3.4-.6 6.6 0 10 .4 2.4.2 4.7.8 7.2 1.3.9 0 1.1 1.5 1.9 1.7 1.1.4 2.3 0 3.4.8 0-.4-.2-.8 0-1.1.8-.8 1.7.2 2.4-.2 1.5-.9-1.3-2.6-2.1-4 0-.2.2-.4.2-.4 1.5 1.3 2.6 2.8 4.5 3.8.9.4 3.2.9 2.8-.2-.9-2.1-2.8-3.8-4.3-5.6v-.8c-.4 0-.4-.2-.6-.4v-.8c-.8-.4-.6-1.1-.9-1.7-.6-.9-.2-2.3-.6-3.4-.4-1.1-.6-2.1-.8-3.2-.6-3.2-1.3-6-1.7-9-.4-3.6 2.1-6.4 3.8-9.6 1.3-2.3 2.8-4.5 5.3-6 .6-2.3 2.1-4.1 3.6-6 1.5-1.8 4-3 5.8-3.8 2.6-1.2 5-1.9 5-1.9H10.3v99.6h92.4c3.6-2.6 7.2-3.8 12.2-6.3 2.3-1 7.7-3.5 9.5-5.3m-29-13.5c-.4 0-1.1.2-.9-.2.2-.9 1.5-.9 2.3-1.3.4-.2.9-.6 1.3-.4.4.6.9.4 1.3.8-1.1 1.1-2.6.5-4 1.1m-28.8-4.1s-.2-.2-.2-.4c2.5-3.2 4.3-6.2 6-9.6C74.9 67 77 65 78.9 63c3.2-3.4 6.6-6.4 10.5-8.3 1.5-.6 3.4-.4 4.9.2-.6.8-1.5.6-2.3 1.1-.2 0-.4 0-.6-.2.2-.2.2-.4.2-.6-1.9 2.1-4.5 3-6 5.5-1.1 1.9-1.9 4.3-4.3 4.9-.8.2.2-.6-.2-.4-5.8 3.6-9.9 8-14.5 13.1m15.7-12.5c-.2.4-.4.4-.6.7-.2.4-.4.6-.8.8-.2 0-.4 0-.4-.2.2-.8.8-1.5 1.5-1.7.3.1.3.2.3.4M91 94c-.1.2-.3.4-.5.5.2 0 .4.1.2.3-.4.4-.9.8-1.4 1H89c-.2.2-.5.4-.7.7-.2.2-1.3.1-.9-.2.5-.4.9-.9 1.4-1.3.3-.2.5-.5.8-.7.1-.2.2-.3.4-.4.2-.1 1.2-.2 1 .1m-3.4-1.5c-.8.5-1.5 1-2.2 1.5-.8.5-1.6.8-2.5 1.2 0-.2-.2-.2-.3-.2-.7.4-1.3.9-1.9 1.4l-.3.3-.3.3-.4.4c-.1.1-.1.2-.3.3-.1.1-.4.1-.4-.1-.1.1-.2.1-.3.2-.1.1-.2.1-.3.2h-.1-.1c-.2.2-.5.4-.7.6-.4.4-.8.7-1.1 1.2v.1l-.1.1s0 .1-.1.1c0 .1-.1.1-.1.2 0 0-.1.1-.2.1l-.1-.1s0-.1-.1-.1c-.1-.1-.1-.2-.2-.3v-.1c.2-.2.4-.4.6-.7.1-.1.1-.2.2-.2.1-.1.2-.3.3-.4 0-.1.1-.1.1-.1.2-.3.4-.5.6-.8l.1-.1c.1-.1.2-.3.3-.4.1-.1.1-.3.2-.4v-.1c.1-.1.1-.3.2-.4v-.1-.1c0-.1 0-.1.1-.2 0-.1 0-.2.1-.3v-.1c.2-.4.5-.7.8-1 0 0-.1 0-.1.1-.3.2-.5.4-.7.6-.2.2-.6-.1-.3-.3.2-.1.3-.3.4-.4.3-.3.6-.7 1-1 .2-.2.4-.3.6-.4 0 0 .1 0 .1-.1.1-.2.3-.3.4-.5 1.8-1.7 4.8-1.7 7.2-2.8.9-.4 2.1.2 3 0 .6 0 1.1 0 1.7.4-1.7.5-3.2 1.5-4.8 2.5m3.9-13.1c-.2-.2.6 0 .8-.4h-1.5c-.2 0-.2-.2-.2-.4-.9.2-2.1.6-3 .7-1.3.4-2.4 1.3-4 1.7-2.1.8-3.8 2.4-6 3.2-.2 0-.2-.2-.2-.4.2-.6.9-.7 1.3-1.3 0-.2 0-.4-.2-.4 1.5-2.1 3.6-3.2 5.5-4.9v-.6c.6-.8 1.5-1.1 1.9-2.1.2-.6.9-1.3 1.9-1.7-.2-.2-.6-.2-.6-.6-.8 0-1.5.4-2.3-.2.4-.4.8-.5 1.2-.7-.2 0-.3-.1-.4-.3-.2-.4.4-.8.9-.9.8-.2 1.7-.2 2.3-.8-1.3-.2-2.8.4-4.1-.4.9-2.4 2.4-4.5 4.7-5.6.2 0 .6 0 .6.2 0 .9-.6 1.7-1.5 1.9 1.5.4 3 .4 4.5 1.1-.2.4-.6.2-.8.2.9.6 2.1.2 3 .9-.6.6-1.1 0-1.7 0 5.8 1.7 12 3 16.9 6.8-4.1 2.1-8.5 3-13 4-.6 0-.9 0-1.5-.2 0 .2 0 .6-.2.6-.8 0-1.3 0-1.9.4-.7.6-1.8.7-2.4.2" fill="#000091"/><path d="M285.1 8H177.9s.2 0 1 .5c.9.5 2 1.1 2.7 1.4 1.4.7 2.7 1.6 3.6 3 .4.6.9 1.7.6 2.4-.4.9-.6 2.4-1.5 2.8-1.1.6-2.6.6-4 .4-.8 0-1.5-.2-2.3-.4 2.8 1.1 5.5 2.4 7.3 5.1.2.4.9.6 1.7.6.2 0 .2.4.2.6-.4.4-.8.6-.6 1.1h.6c.9-.4.8-2.3 2.1-1.7.9.6 1.3 1.9.8 2.8-.8.7-1.5 1.3-2.3 1.9-.2.4-.2.9 0 1.3.6.8.8 1.5.9 2.3.6 1.3.8 2.8 1.3 4.1.8 2.8 1.5 5.7 1.3 8.5 0 1.5-.8 2.8-.2 4.3.4 1.5 1.3 2.6 2.1 4 .8 1.1 1.5 1.9 2.1 3 1.1 1.9 3.2 3.8 2.3 6-.6 1.3-2.6 1.1-4 1.9-1.1.9-.2 2.4.4 3.4.9 1.7-1.1 2.8-2.4 3.4.4.6 1.1.4 1.3.8.2.9 1.1 1.5.6 2.4-.8 1.1-3 1.7-1.9 3.4.8 1.3.3 2.8-.2 4.1-.6 1.7-2.1 2.4-3.4 2.8-1.1.4-2.4.4-3.6.2-.4-.2-.8-.4-1.1-.4-3.2-.4-6.4-1.3-9.6-1.3-.9.2-1.9.4-2.6.8-.9.6-1.6 1.3-2.3 2-.1.2-.3.3-.4.5-.1.1-.2.2-.2.3l-.2.2c-.5.7-1 1.4-1.5 2.2l-.1.1c0 .1-.1.2-.1.3-.6 1.1-1.1 2.3-1.4 3.5-1.3 4.3-.7 8 .2 8.9.2.2 6.2 2.1 10.4 3.9 2 .9 3.3 1.5 4.4 2.2h105.3V8z" fill="#e1000f"/><path d="M184.3 44.3c.8.2 1.9.2 1.9.6-.4 1.5-2.6 1.9-3.8 3.4h-.6c-.6.4-.4 1.3-.9 1.3-.6-.2-1.1 0-1.7.2.8.8 1.7 1.3 2.8 1.1.2 0 .6.4.6.8 0 0 .2 0 .4-.2.2 0 .4 0 .4.2v.8c-.6.7-1.5.4-2.3.6 1.5.4 3 .4 4.3 0 1.1-.4 0-2.3.8-3.2-.4 0 0-.6-.4-.6.4-.4.8-.9 1.1-1.1.4 0 .9-.2 1.1-.6 0-.4-.8-.6-.6-.9 1.1-.8 2.1-1.9 1.7-3-.2-.6-1.7-.6-2.6-.9-.9-.4-2.1 0-3.2.2-.9 0-1.9.6-2.8.7-1.3.4-2.4 1.1-3.6 1.9 1.3-.6 2.6-.8 4.1-1.1 1.2-.2 2.2-.4 3.3-.2" fill="gray"/><path d="M254.5 537.6c2.2 0 4.1 1.7 3.1 5.6l-10.1 2.7c1.6-4.8 4.6-8.3 7-8.3m5.6 16.4h-2c-2.5 3-5.3 5.4-8 5.4-2.8 0-4.2-1.7-4.2-5.4 0-1.5.2-3.1.5-4.5l16.3-5.4c3.2-7.6-.6-10.9-5.1-10.9-7.7 0-16.5 13.5-16.5 24.3 0 5.1 2.4 7.9 6.2 7.9 4.4-.1 9-4.4 12.8-11.4m-2.6-24.4l9.3-8.5v-1.2h-6.2l-5.5 9.7h2.4zm-34.8 8.2h5.4l-8.6 23.6c-.8 2 .3 4 2.4 4 6.1 0 13.4-5.2 16.2-12.6h-1.5c-2.2 3.1-7 6.5-10.6 7.1l7.9-22.1h8.1l1-3.4h-7.9l3-8.5H235l-5.6 8.5-6.7.9v2.5zm-5.6-1.1c.7-2.2-.8-3.4-1.9-3.4-4.7 0-10.3 4.2-12.6 10.2h1.5c1.5-2.2 4.1-4.6 6.6-5l-9 23.5c-.8 2.2.8 3.4 1.9 3.4 4.5 0 9.7-4.3 12-10.2H214c-1.5 2.2-4.1 4.6-6.6 5l9.7-23.5zm.9-9.4c2 0 3.7-1.6 3.7-3.7 0-2-1.7-3.7-3.7-3.7-2.1 0-3.7 1.7-3.7 3.7s1.7 3.7 3.7 3.7m-43.7 12.5c1.4 0 2.2 2.2 0 7l-6.4 14.2c-1.2 2.7.1 4.4 2.7 4.4 1.6 0 2.3-.4 3-2.1l6.3-16.6c2.9-3.5 8.3-7.3 10.6-7.3 1.7 0 1.5 1.4.4 3.5l-9.6 18.5c-.9 1.8.3 4 2.4 4 4.7 0 10.3-4.2 12.6-10.2h-1.5c-1.5 2.2-4.1 4.6-6.6 5l8.3-16.7c1.1-2.1 1.6-4.1 1.6-5.7 0-2.7-1.5-4.5-4.4-4.5-4.1 0-7.6 4.6-12.5 10.3v-4.4c0-3.1-1-5.9-3.8-5.9-3.3 0-6.3 5.1-8.6 10.2h1.5c1.4-2.4 2.8-3.7 4-3.7m-6.5.6c1.1-3.8.5-7.2-2.4-7.2-3.7 0-4.8 2.5-8.5 10.3v-4.4c0-3.1-1-5.9-3.8-5.9-3.3 0-6.3 5.1-8.6 10.2h1.5c1.6-2.3 3.1-3.7 4.3-3.7 1.4 0 2.2 2.2 0 7l-6.4 14.2c-1.2 2.7.1 4.4 2.7 4.4 1.6 0 2.3-.4 3-2.1l6.3-16.6c1.8-2.2 3.4-4.1 5.4-6.2h6.5zm-34.7-2.8c2.2 0 4.1 1.7 3.1 5.6l-10.1 2.7c1.6-4.8 4.6-8.3 7-8.3m5.6 16.4h-2c-2.5 3-5.3 5.4-8 5.4-2.8 0-4.2-1.7-4.2-5.4 0-1.5.2-3.1.5-4.5l16.3-5.4c3.2-7.6-.6-10.9-5.1-10.9-7.7 0-16.5 13.5-16.5 24.3 0 5.1 2.4 7.9 6.2 7.9 4.4-.1 9-4.4 12.8-11.4m-37.4-16.2h5.4l-8.6 23.6c-.8 2 .3 4 2.4 4 6.1 0 13.4-5.2 16.2-12.6h-1.5c-2.2 3.1-7 6.5-10.6 7.1l7.9-22.1h8.1l1-3.4h-7.9l3-8.5h-3.1l-5.6 8.5-6.7.9v2.5zm-28.6 18.3c0-7.3 8.1-17.1 12.6-17.1 1 0 2 .1 2.8.4L83.4 552c-2.7 3.3-6.9 7.3-8.9 7.3-1.1 0-1.8-1-1.8-3.2m24.8-24.2l-2.5-.2-2.8 2.8h-.5c-11.9 0-24.6 14.8-24.6 26.4 0 2.7 1.5 4.5 4.4 4.5 3.5 0 6.9-5 10.7-10.3L82 557c-.5 5.4 1.2 8.4 4 8.4 3.3 0 6.3-5.1 8.6-10.2h-1.5c-1.6 2.3-3.1 3.7-4.3 3.7-1.2 0-2.1-2.2 0-7l8.7-20zm-25.4 8.5c1.1-3.8.5-7.2-2.4-7.2-3.7 0-4.8 2.5-8.5 10.3v-4.4c0-3.1-1-5.9-3.8-5.9-3.3 0-6.3 5.1-8.6 10.2h1.5c1.6-2.3 3.1-3.7 4.2-3.7 1.4 0 2.2 2.2 0 7L48.1 561c-1.2 2.7.1 4.4 2.7 4.4 1.6 0 2.3-.4 3-2.1l6.3-16.6c1.8-2.2 3.4-4.1 5.4-6.2h6.6zm-41.8 23.8l.6-1.8c-7.9-1.5-8.9-1.5-5.7-10l2.9-8h6.3c3.9 0 3.9 1.7 3.4 6H40l5.2-14.2H43c-1.9 3.4-3.5 6-7.7 6H29l4.3-11.7c1.5-4.2 2.2-5 7.6-5h1.4c5.5 0 6.1 1.5 6.1 7.3h2.2l1.8-9.7H22.1l-.6 1.8c6.3 1.3 6.9 1.9 4 10L19 552.3c-3 8.1-4.2 8.7-11.4 10l-.6 1.9h23.3zM181 469c2.2 0 4.1 1.7 3.1 5.5l-10.1 2.7c1.7-4.7 4.7-8.2 7-8.2m5.6 16.3h-2c-2.5 3-5.3 5.4-8 5.4-2.8 0-4.2-1.7-4.2-5.4 0-1.5.2-3.1.5-4.5l16.4-5.4c3.2-7.6-.7-10.9-5.1-10.9-7.7 0-16.5 13.5-16.5 24.3 0 5.1 2.4 7.9 6.2 7.9 4.4 0 9-4.3 12.7-11.4M184 461l9.3-8.5v-1.2h-6.2l-5.5 9.7h2.4zm-34.7 8.2h5.4l-8.6 23.6c-.8 2 .3 4 2.4 4 6.1 0 13.4-5.2 16.2-12.6h-1.5c-2.2 3.1-7 6.5-10.6 7.1l7.9-22.1h8.1l1-3.4h-7.9l3-8.5h-3.1l-5.6 8.5-6.7.9v2.5zm-5.6-1.2c.6-2.2-.8-3.4-2-3.4-4.7 0-10.3 4.3-12.6 10.2h1.5c1.5-2.2 4.1-4.6 6.6-5l-9 23.5c-.8 2.2.8 3.4 1.9 3.4 4.5 0 9.7-4.3 12-10.2h-1.5c-1.5 2.2-4.1 4.6-6.6 5l9.7-23.5zm.9-9.3c2 0 3.7-1.7 3.7-3.7s-1.7-3.7-3.7-3.7c-2.1 0-3.7 1.7-3.7 3.7s1.7 3.7 3.7 3.7m-28.9 32.8l14.9-39.6-.5-.6-10.3 1.2v1.2l2 1.5c1.8 1.4 1.2 2.7-.4 7.1L110 492.7c-.9 1.8.3 4 2.4 4 4.7 0 9.7-4.3 12-10.2h-1.5c-1.6 2.2-4.8 4.6-7.2 5m-30.5-4c0-7.3 8.1-17.1 12.6-17.1 1 0 1.9.1 2.8.4l-4.7 12.6c-2.7 3.3-6.9 7.3-8.8 7.3-1.2 0-1.9-1-1.9-3.2m24.8-24.2l-2.5-.2-2.8 2.8h-.5c-11.9 0-24.6 14.8-24.6 26.4 0 2.7 1.5 4.5 4.4 4.5 3.5 0 6.9-5 10.7-10.3l-.2 1.9c-.5 5.4 1.2 8.4 4 8.4 3.3 0 6.3-5.1 8.6-10.2h-1.5c-1.6 2.3-3.1 3.7-4.3 3.7-1.2 0-2.1-2.2 0-7l8.7-20zm-57.7 39.2c0-3.1 3-5.1 7.3-6.8 1.4.7 3.5 1.5 6.4 2.4 4.5 1.5 6.2 2.1 6.2 3.4 0 2.9-4.1 5.1-11.6 5.1-5.6 0-8.3-1.2-8.3-4.1m12.3-19.1c-2 0-2.7-1.7-2.7-3.5 0-5.8 2.8-13 7.3-13 2 0 2.7 1.7 2.7 3.5-.1 5.9-2.9 13-7.3 13m12.7 16.2c0-3.8-3.4-5.1-8.9-6.8-4.7-1.4-6.8-1.8-6.8-3.4 0-1.2 1-2.7 3-3.8 7.8-.4 12.7-7.4 12.7-13.5 0-1.1-.2-2.1-.5-3h5.3l1-3.4h-9c-1.2-.8-2.7-1.2-4.4-1.2-8.2 0-13.4 7.2-13.4 13.5 0 4.1 2.4 6.9 6.1 7.4-3.8 1.8-6 3.7-6 6.1 0 1.4.5 2.4 1.7 3.2-8.8 2.6-12.4 5.8-12.4 9.7 0 4.1 5.4 5.8 11.7 5.8 10.9.1 19.9-5.7 19.9-10.6m-40.6-23.9c3.9 0 4 1.7 3.4 6h2.2l5.2-14.2h-2.2c-1.9 3.4-3.5 6-7.7 6H29l4.2-11.7c1.5-4.2 2.2-5 7.6-5h3.8c5.5 0 6.1 1.5 6.1 7.3h2.2l1.8-9.7H22.1l-.6 1.8c6.3 1.3 6.9 1.9 4 10L19 483.7c-3 8.1-4.2 8.7-11.5 10l-.5 1.9h36.2l6.5-10.3h-2.5c-4.2 4.1-8.4 7.9-16.6 7.9-9.6 0-8.8-.5-5.6-9.4l3-8h8.7zm4.7-24.4l9.3-6.7v-1.2h-6.2l-5.5 8h2.4zM179.9 400.4c2.2 0 4.1 1.7 3.1 5.5l-10.1 2.7c1.6-4.7 4.6-8.2 7-8.2m5.6 16.3h-2c-2.5 3-5.3 5.4-8 5.4-2.8 0-4.2-1.7-4.2-5.4 0-1.5.2-3.1.5-4.5l16.3-5.4c3.2-7.6-.7-10.9-5.1-10.9-7.7 0-16.5 13.5-16.5 24.3 0 5.1 2.4 7.8 6.2 7.8 4.4.1 9-4.2 12.8-11.3m-2.6-24.3l9.3-8.5v-1.2H186l-5.5 9.7h2.4zm-34.8 8.2h5.4l-8.6 23.6c-.8 2 .3 4 2.4 4 6.1 0 13.4-5.2 16.2-12.6H162c-2.2 3.1-7 6.5-10.6 7.1l7.9-22.1h8.1l1-3.4h-7.9l3-8.5h-3.1l-5.6 8.5-6.7.9v2.5zm-2.8 2.6c1.1-3.8.5-7.2-2.4-7.2-3.7 0-4.8 2.5-8.5 10.3v-4.4c0-3.1-1-5.9-3.8-5.9-3.3 0-6.3 5.1-8.6 10.2h1.5c1.6-2.3 3.1-3.7 4.2-3.7 1.4 0 2.2 2.2 0 7l-6.4 14.2c-1.2 2.7.1 4.4 2.7 4.4 1.6 0 2.3-.4 3-2.1l6.3-16.6c1.8-2.2 3.4-4.1 5.4-6.2h6.6zm-34.8-2.8c2.2 0 4.1 1.7 3.1 5.5l-10.1 2.7c1.7-4.7 4.6-8.2 7-8.2m5.6 16.3h-2c-2.5 3-5.3 5.4-8 5.4-2.8 0-4.2-1.7-4.2-5.4 0-1.5.2-3.1.5-4.5l16.3-5.4c3.2-7.6-.6-10.9-5.1-10.9-7.7 0-16.5 13.5-16.5 24.3 0 5.1 2.4 7.8 6.2 7.8 4.4.1 9-4.2 12.8-11.3M78 423.3c-1.6 0-3.9-1.5-3.9-2.8 0-.4.7-2.2 1.6-4.5l2.6-7c2.8-3.4 7.2-7 9.6-7 1.5 0 2.6.9 2.6 3.1.1 6.5-6 18.2-12.5 18.2m18.2-20.7c0-4.8-1.2-6.6-4.6-6.6-4.2 0-8.1 4.5-12 9.9l8.4-22.5-.5-.7-10.3 1.2v1.2l2 1.5c1.8 1.4 1.2 2.8-.4 7.1l-9.1 23.8c-.8 2-1.7 4.4-1.7 5 0 2.8 3.8 5.5 7.3 5.5 7.8.1 20.9-14.3 20.9-25.4m-30.6-3.2c.6-2.2-.8-3.4-2-3.4-4.7 0-10.3 4.3-12.6 10.2h1.5c1.5-2.2 4.1-4.6 6.6-5l-9 23.5c-.8 2.2.8 3.4 2 3.4 4.5 0 9.7-4.3 12-10.2h-1.5c-1.5 2.2-4.1 4.6-6.6 5l9.6-23.5zm1-9.4c2 0 3.7-1.7 3.7-3.7s-1.7-3.7-3.7-3.7c-2.1 0-3.7 1.7-3.7 3.7 0 2.1 1.6 3.7 3.7 3.7m-23-4.4H22.1l-.6 1.8c6.3 1.3 6.9 1.9 4 10L19 415.1c-3 8.1-4.2 8.7-11.4 10l-.6 1.8h32.7l7.1-12.6h-2.5c-4.1 4.5-8.7 10.2-16 10.2-5.5 0-6.3-1-3.2-9.4l6.4-17.6c3-8.1 4.2-8.7 11.5-10l.6-1.9z"/></svg>