<?xml version="1.0" encoding="utf-8"?>
<!-- Generator: Adobe Illustrator 22.1.0, SVG Export Plug-In . SVG Version: 6.00 Build 0)  -->
<svg version="1.1" id="Calque_1" xmlns="http://www.w3.org/2000/svg" xmlns:xlink="http://www.w3.org/1999/xlink" x="0px" y="0px" width="113" height="98"
	 viewBox="0 0 635 572" style="enable-background:new 0 0 635 572;" xml:space="preserve">
<style type="text/css">
	.st0{fill:#1F356C;}
	.st1{fill:#000091;}
	.st2{fill:#E1000F;}
	.st3{fill:#808080;}
</style>
<g>
	<g>
		<path d="M10.6,157.5h22c15.8,0,25.6,8.1,25.6,21.5c0,8.6-4.2,15.1-11.5,18.6l22.6,31.8H51.8l-19.1-29.1h-7.5v29.1H10.6V157.5z
			 M25.2,169.9v18h8.2c6.2,0,9.8-3.3,9.8-9.1c0-5.4-3.6-8.8-9.8-8.8H25.2z"/>
		<path d="M78.4,157.5h41.9v12.4H93v16.6h23.2V199H93v18h27.3v12.4H78.4V157.5z M92.6,151.3l11.6-13.9h15l-13.4,13.9H92.6z"/>
		<path d="M137.3,157.5h23.7c15.8,0,25.5,8.1,25.5,21.5c0,13.3-9.7,21.4-25.5,21.4h-9.1v29.1h-14.6V157.5z M151.9,169.9v18h9.8
			c6.2,0,9.9-3.3,9.9-9.1c0-5.4-3.7-8.8-9.9-8.8H151.9z"/>
		<path d="M240.3,157.5h14.6v43.8c0,18.9-11.1,30.2-29.2,30.2c-18,0-29.1-11.3-29.1-30.2v-43.8h14.6v45c0,9.7,5.4,15.3,14.6,15.3
			c8.9,0,14.5-5.6,14.5-15.3V157.5z"/>
		<path d="M273,157.5h20.4c15,0,24,7.4,24,19.5c0,5.8-2.7,10.8-7.6,14.2c7.6,3.4,11.8,9.6,11.8,17.1c0,13.1-10.2,21.2-26.7,21.2h-22
			V157.5z M287.6,169.9v15.7h6.2c5.5,0,8.7-2.8,8.7-7.9c0-4.8-3.2-7.8-8.7-7.8H287.6z M287.6,198.2V217h8.2c6.8,0,10.9-3.6,10.9-9.6
			c0-6-4.1-9.2-10.9-9.2H287.6z"/>
		<path d="M336.7,157.5h14.6v58.7h27.3v13.3h-41.9V157.5z"/>
		<path d="M391.6,157.5h14.6v71.9h-14.6V157.5z"/>
		<path d="M501.8,234.4c1.5,0,3.6-0.2,5.1-0.8v12.3c-2.4,0.9-4.4,1.3-7.6,1.3c-8,0-15.4-3.3-22.5-9.5l-8.5-7.6
			c-3.1,0.8-6.4,1.2-9.9,1.2c-22.7,0-38.2-17.5-38.2-38c0-20.5,15.5-38,38.2-38c22.6,0,38.1,17.5,38.1,38c0,12-5.3,23-14.2,30
			l4.3,4.1C492.2,232.6,497.2,234.4,501.8,234.4z M481.6,193.4c0-13.8-9.7-24.3-23.1-24.3c-13.6,0-23.2,10.6-23.2,24.3
			c0,13.8,9.7,24.3,23.2,24.3C471.9,217.8,481.6,207.2,481.6,193.4z"/>
		<path d="M552.2,157.5h14.6v43.8c0,18.9-11.1,30.2-29.2,30.2c-18,0-29.1-11.3-29.1-30.2v-43.8h14.6v45c0,9.7,5.4,15.3,14.6,15.3
			c8.9,0,14.5-5.6,14.5-15.3V157.5z"/>
		<path d="M585,157.5h41.9v12.4h-27.3v16.6h23.2V199h-23.2v18h27.3v12.4H585V157.5z"/>
	</g>
	<g>
		<path d="M10.6,262.9h41.9v12.4H25.2V292h23.2v12.4H25.2v30.4H10.6V262.9z"/>
		<path d="M65.4,262.9h22c15.8,0,25.6,8.1,25.6,21.5c0,8.6-4.2,15.1-11.5,18.6l22.6,31.8h-17.5l-19.1-29.1H80v29.1H65.4V262.9z
			 M80,275.3v18h8.2c6.2,0,9.8-3.3,9.8-9.1c0-5.4-3.6-8.8-9.8-8.8H80z"/>
		<path d="M151.4,262.9h19.1l27.2,71.9h-15.5l-6.9-18.7h-28.8l-6.9,18.7h-15.5L151.4,262.9z M170.8,303.7l-9.9-27l-9.9,27H170.8z"/>
		<path d="M208.9,262.9h18.7l32.2,51.5v-51.5h14.6v71.9h-18.7l-32.2-51.7v51.7h-14.6V262.9z"/>
		<path d="M345.5,313.3l11.5,8.8c-5.5,7.6-14.2,12.9-24.7,14.3l-8.9,14.9h-12.9l9-15.1c-18.7-3.3-31-19.1-31-37.4
			c0-20.5,15.5-38,38.2-38c13,0,23.7,5.9,30.3,14.6l-11.5,8.9c-4.1-5.9-10.6-9.9-18.8-9.9c-13.6,0-23.2,10.6-23.2,24.3
			s9.7,24.3,23.2,24.3C334.9,323.2,341.3,319.2,345.5,313.3z"/>
		<path d="M387.9,262.9H407l27.2,71.9h-15.5l-6.9-18.7H383l-6.9,18.7h-15.5L387.9,262.9z M407.3,303.7l-9.9-27l-9.9,27H407.3z"/>
		<path d="M445.4,262.9H460v71.9h-14.6V262.9z"/>
		<path d="M484.3,315.1c4.3,5.5,10.1,8.8,15.9,8.8c5.8,0,9.2-3.1,9.2-8.3c0-12.8-32.9-10-32.9-33.9c0-11.4,9.3-20.9,23-20.9
			c10.8,0,19.1,4.8,25.2,12.1l-10.7,9.6c-4.2-5.4-8.9-8.9-14.4-8.9c-5,0-8.3,3.3-8.3,7.5c0,12.8,32.9,9.9,32.9,34.2
			c-0.2,13.4-10.7,21.6-23.8,21.6c-12.1,0-20.3-4.4-26.7-12L484.3,315.1z"/>
		<path d="M539.7,262.9h41.9v12.4h-27.3V292h23.2v12.4h-23.2v18h27.3v12.4h-41.9V262.9z"/>
	</g>
	<path class="st0" d="M99.4,95.3C99.4,95.3,99.5,95.3,99.4,95.3c0.4-0.2,0.6-0.3,0.8-0.5c0,0-0.1,0-0.1,0
		C99.9,94.9,99.7,95.1,99.4,95.3"/>
	<path class="st0" d="M135.9,83.1l-0.2,0.2C135.8,83.3,135.9,83.3,135.9,83.1"/>
	<path class="st1" d="M124.4,95.9c1.1-1.1,2.1-2.2,3.2-3.4h0c2-2.3,4-4.4,6.3-6.4c0.7-0.6,1.4-1.2,2.1-1.6c0.2-0.2,0.2-0.6,0.4-0.8
		c-0.9,0.4-1.5,1.1-2.4,1.5c-0.2,0-0.4-0.2-0.2-0.4c0.7-0.5,1.3-1,2-1.5c0,0-0.1,0-0.1,0c-0.2,0-0.2-0.2-0.2-0.4
		c-2.4-0.4-4.3,1.3-6,2.8c-0.4,0.2-0.8-0.2-0.9-0.2c-2.8,0.9-4.9,3.4-7.7,4.5v-0.4c-1.1,0.4-2.2,1.1-3.4,1.3
		c-1.7,0.4-3.2,0.2-4.7,0.2c-2.3,0.2-4.6,0.7-6.8,1.2c-0.1,0-0.1,0-0.2,0c-1.2,0.3-2.4,0.8-3.5,1.4c0,0-0.1,0.1-0.1,0.1
		c-0.1,0.1-0.2,0.2-0.3,0.3c-0.4,0.4-0.8,0.9-1.3,1.1c-1.2,0.6-2.1,1.6-3.1,2.4C97.1,98,97,98,96.9,98c-1,1-2,1.9-3,2.9
		c-0.1,0.1-0.4,0.1-0.6,0.1c0,0,0,0,0,0c0-0.1,0.1-0.1,0.1-0.2c0.2-0.3,0.3-0.5,0.5-0.8c0.2-0.3,0.4-0.6,0.6-0.9
		c0.3-0.4,0.5-0.8,0.8-1.1c0.1-0.1,0.1-0.2,0-0.3c-0.1-0.1-0.2-0.1-0.3-0.1c0.9-0.9,2.1-1.7,3.2-2.4v0c-0.1,0-0.3-0.1-0.2-0.2
		c0.1-0.2,0.2-0.3,0.3-0.5c0-0.1,0-0.1,0.1-0.2c0,0-0.1-0.1-0.1-0.1c-0.3,0.2-0.6,0.4-0.9,0.6c-0.5,0.4-0.8,1.2-1.5,1.2
		c0,0-0.2,0-0.3,0c-0.1,0-0.2,0-0.2-0.1c0,0,0,0,0,0c0,0,0,0,0-0.1c0,0,0,0,0,0c0-0.1,0.1-0.1,0.1-0.2c0-0.1,0.1-0.1,0.1-0.2
		c0,0,0-0.1,0.1-0.1c0-0.1,0.1-0.2,0.1-0.2c0-0.1,0.1-0.1,0.1-0.2c0.1-0.1,0.2-0.3,0.2-0.4c0-0.1,0.1-0.1,0.1-0.2
		c0.1-0.1,0.1-0.2,0.2-0.3c0.1-0.2,0-0.3-0.1-0.3c0.3-0.5,0.8-0.8,1.3-1.1h-0.1c0.7-0.4,1.4-0.8,2.2-1.2c0.1-0.1,0.2-0.2,0.3-0.3
		c-1.1,0.4-2,0.9-3,1.5c0,0-0.2,0.1-0.3,0.2c0,0-0.2,0.1-0.5-0.2c0,0,0-0.1,0-0.1c0.2-0.4,0.8-0.6,1.1-0.9c0.2,0,0.4,0,0.4,0.2
		c6-4.7,14.3-3.6,21.3-6c0.6-0.4,1.1-0.7,1.7-1.1c0.9-0.4,1.7-1.3,2.8-1.9c1.5-1.1,2.6-2.4,3.2-4.3c0-0.2-0.2-0.4-0.2-0.4
		c-2.4,2.6-5.3,4.7-8.3,6.2c-4,2.1-8.3,1.7-12.4,2.3c0.2-0.4,0.6-0.4,0.9-0.4c0-0.6,0.4-0.8,0.8-1.1h0.6c0.2,0,0.2-0.4,0.4-0.4
		c0.4,0,0.9-0.2,0.8-0.2c-0.6-0.8-1.7,0.6-2.6,0c0.4-0.4,0.2-0.9,0.6-1.1h0.8c0-0.4,0.4-0.8,0.4-0.8c2.8-1.7,5.5-3,8.1-4.5
		c-0.6,0-0.9,0.6-1.5,0.2c0.4,0,0-0.6,0.4-0.6c2.1-0.6,3.8-1.7,5.8-2.4c-0.8,0-1.3,0.6-2.1,0c0.4-0.2,0.6-0.6,1.1-0.6v-0.6
		c0-0.2,0.2-0.2,0.4-0.2c-0.2,0-0.4-0.2-0.4-0.2c0.2-0.4,0.8-0.2,1.1-0.6c-0.2,0-0.6,0-0.6-0.2c0.6-0.8,1.5-0.9,2.4-1.1
		c-0.2-0.4-0.8,0-0.8-0.4c0-0.2,0.2-0.2,0.4-0.2h-0.4c-0.4-0.2-0.2-0.6-0.2-0.8c1.1-1.3,1.1-3,1.7-4.5c-0.2,0-0.4,0-0.4-0.2
		c-1.9,2.1-4.9,2.8-7.7,3.6h-0.9c-0.9,0.4-2.3,0.4-3.2-0.2c-0.8-0.4-1.1-0.9-1.9-1.5c-1.5-0.9-3-1.7-4.7-2.3
		c-4.7-1.5-9.6-2.3-14.5-2.1c2.1-1.1,4.4-1.2,6.6-1.9c3.2-0.9,6.2-2.1,9.6-1.9c-0.6-0.2-1.3,0-1.9,0c-2.6-0.2-5.3,0.6-8.1,1.1
		c-1.9,0.4-3.6,1.1-5.5,1.5c-1.1,0.4-1.7,1.5-3,1.3v-0.6c1.9-2.3,4.1-4.5,7.2-4.7c3.4-0.6,6.6,0,10,0.4c2.4,0.2,4.7,0.8,7.2,1.3
		c0.9,0,1.1,1.5,1.9,1.7c1.1,0.4,2.3,0,3.4,0.8c0-0.4-0.2-0.8,0-1.1c0.8-0.8,1.7,0.2,2.4-0.2c1.5-0.9-1.3-2.6-2.1-4
		c0-0.2,0.2-0.4,0.2-0.4c1.5,1.3,2.6,2.8,4.5,3.8c0.9,0.4,3.2,0.9,2.8-0.2c-0.9-2.1-2.8-3.8-4.3-5.6v-0.8c-0.4,0-0.4-0.2-0.6-0.4
		v-0.8c-0.8-0.4-0.6-1.1-0.9-1.7c-0.6-0.9-0.2-2.3-0.6-3.4c-0.4-1.1-0.6-2.1-0.8-3.2c-0.6-3.2-1.3-6-1.7-9c-0.4-3.6,2.1-6.4,3.8-9.6
		c1.3-2.3,2.8-4.5,5.3-6c0.6-2.3,2.1-4.1,3.6-6c1.5-1.8,4-3,5.8-3.8c2.6-1.2,5-1.9,5-1.9H10.3v99.6h92.4c3.6-2.6,7.2-3.8,12.2-6.3
		C117.2,100.2,122.6,97.7,124.4,95.9 M95.4,82.4c-0.4,0-1.1,0.2-0.9-0.2c0.2-0.9,1.5-0.9,2.3-1.3c0.4-0.2,0.9-0.6,1.3-0.4
		c0.4,0.6,0.9,0.4,1.3,0.8C98.3,82.4,96.8,81.8,95.4,82.4 M66.6,78.3c0,0-0.2-0.2-0.2-0.4c2.5-3.2,4.3-6.2,6-9.6
		C74.9,67,77,65,78.9,63c3.2-3.4,6.6-6.4,10.5-8.3c1.5-0.6,3.4-0.4,4.9,0.2c-0.6,0.8-1.5,0.6-2.3,1.1c-0.2,0-0.4,0-0.6-0.2
		c0.2-0.2,0.2-0.4,0.2-0.6c-1.9,2.1-4.5,3-6,5.5c-1.1,1.9-1.9,4.3-4.3,4.9c-0.8,0.2,0.2-0.6-0.2-0.4C75.3,68.8,71.2,73.2,66.6,78.3
		 M82.3,65.8c-0.2,0.4-0.4,0.4-0.6,0.7c-0.2,0.4-0.4,0.6-0.8,0.8c-0.2,0-0.4,0-0.4-0.2c0.2-0.8,0.8-1.5,1.5-1.7
		C82.3,65.5,82.3,65.6,82.3,65.8 M91,94c-0.1,0.2-0.3,0.4-0.5,0.5c0.2,0,0.4,0.1,0.2,0.3c-0.4,0.4-0.9,0.8-1.4,1c0,0-0.2,0-0.3,0
		c-0.2,0.2-0.5,0.4-0.7,0.7c-0.2,0.2-1.3,0.1-0.9-0.2c0.5-0.4,0.9-0.9,1.4-1.3c0.3-0.2,0.5-0.5,0.8-0.7c0.1-0.2,0.2-0.3,0.4-0.4
		C90.2,93.8,91.2,93.7,91,94 M87.6,92.5C87.6,92.5,87.6,92.5,87.6,92.5c-0.8,0.5-1.5,1-2.2,1.5c-0.8,0.5-1.6,0.8-2.5,1.2
		c0,0,0,0,0,0C82.9,95,82.7,95,82.6,95c-0.7,0.4-1.3,0.9-1.9,1.4c-0.1,0.1-0.2,0.2-0.3,0.3l0,0c0,0,0,0,0,0
		c-0.1,0.1-0.2,0.2-0.3,0.3c0,0,0,0,0,0c0,0,0,0,0,0c-0.1,0.1-0.3,0.3-0.4,0.4c-0.1,0.1-0.1,0.2-0.3,0.3c-0.1,0.1-0.4,0.1-0.4-0.1
		c0,0,0,0,0,0c-0.1,0.1-0.2,0.1-0.3,0.2c-0.1,0.1-0.2,0.1-0.3,0.2c0,0-0.1,0-0.1,0c0,0-0.1,0-0.1,0c-0.2,0.2-0.5,0.4-0.7,0.6
		c-0.4,0.4-0.8,0.7-1.1,1.2c0,0,0,0,0,0c0,0,0,0,0,0.1c0,0,0,0-0.1,0.1c0,0,0,0.1-0.1,0.1c0,0,0,0,0,0c0,0.1-0.1,0.1-0.1,0.2
		c0,0,0,0,0,0c0,0-0.1,0.1-0.2,0.1c0,0-0.1-0.1-0.1-0.1c0,0,0-0.1-0.1-0.1c-0.1-0.1-0.1-0.2-0.2-0.3c0,0,0,0,0,0c0,0,0-0.1,0-0.1
		c0.2-0.2,0.4-0.4,0.6-0.7c0,0,0,0,0,0c0.1-0.1,0.1-0.2,0.2-0.2c0.1-0.1,0.2-0.3,0.3-0.4c0-0.1,0.1-0.1,0.1-0.1
		c0.2-0.3,0.4-0.5,0.6-0.8c0,0,0,0,0,0c0,0,0.1-0.1,0.1-0.1c0.1-0.1,0.2-0.3,0.3-0.4c0.1-0.1,0.1-0.3,0.2-0.4c0,0,0,0,0,0
		c0,0,0,0,0,0c0,0,0,0,0-0.1c0.1-0.1,0.1-0.3,0.2-0.4c0,0,0,0,0-0.1c0,0,0-0.1,0-0.1c0-0.1,0-0.1,0.1-0.2c0,0,0,0,0,0
		c0-0.1,0-0.2,0.1-0.3c0,0,0-0.1,0-0.1c0.2-0.4,0.5-0.7,0.8-1c0,0-0.1,0-0.1,0.1c-0.3,0.2-0.5,0.4-0.7,0.6c-0.2,0.2-0.6-0.1-0.3-0.3
		c0.2-0.1,0.3-0.3,0.4-0.4c0,0,0,0,0,0c0.3-0.3,0.6-0.7,1-1c0.2-0.2,0.4-0.3,0.6-0.4c0,0,0.1,0,0.1-0.1c0.1-0.2,0.3-0.3,0.4-0.5
		c0,0,0,0,0,0c1.8-1.7,4.8-1.7,7.2-2.8c0.9-0.4,2.1,0.2,3,0c0.6,0,1.1,0,1.7,0.4C90.7,90.5,89.2,91.5,87.6,92.5 M91.5,79.4
		c-0.2-0.2,0.6,0,0.8-0.4h-1.5c-0.2,0-0.2-0.2-0.2-0.4c-0.9,0.2-2.1,0.6-3,0.7c-1.3,0.4-2.4,1.3-4,1.7c-2.1,0.8-3.8,2.4-6,3.2
		c-0.2,0-0.2-0.2-0.2-0.4c0.2-0.6,0.9-0.7,1.3-1.3c0-0.2,0-0.4-0.2-0.4c1.5-2.1,3.6-3.2,5.5-4.9v-0.6c0.6-0.8,1.5-1.1,1.9-2.1
		c0.2-0.6,0.9-1.3,1.9-1.7c-0.2-0.2-0.6-0.2-0.6-0.6c-0.8,0-1.5,0.4-2.3-0.2c0.4-0.4,0.8-0.5,1.2-0.7c-0.2,0-0.3-0.1-0.4-0.3
		c-0.2-0.4,0.4-0.8,0.9-0.9c0.8-0.2,1.7-0.2,2.3-0.8c-1.3-0.2-2.8,0.4-4.1-0.4c0.9-2.4,2.4-4.5,4.7-5.6c0.2,0,0.6,0,0.6,0.2
		c0,0.9-0.6,1.7-1.5,1.9c1.5,0.4,3,0.4,4.5,1.1c-0.2,0.4-0.6,0.2-0.8,0.2c0.9,0.6,2.1,0.2,3,0.9c-0.6,0.6-1.1,0-1.7,0
		c5.8,1.7,12,3,16.9,6.8c-4.1,2.1-8.5,3-13,4c-0.6,0-0.9,0-1.5-0.2c0,0.2,0,0.6-0.2,0.6c-0.8,0-1.3,0-1.9,0.4
		C93.2,79.8,92.1,79.9,91.5,79.4"/>
	<path class="st2" d="M285.1,8H177.9c0,0,0.2,0,1,0.5c0.9,0.5,2,1.1,2.7,1.4c1.4,0.7,2.7,1.6,3.6,3c0.4,0.6,0.9,1.7,0.6,2.4
		c-0.4,0.9-0.6,2.4-1.5,2.8c-1.1,0.6-2.6,0.6-4,0.4c-0.8,0-1.5-0.2-2.3-0.4c2.8,1.1,5.5,2.4,7.3,5.1c0.2,0.4,0.9,0.6,1.7,0.6
		c0.2,0,0.2,0.4,0.2,0.6c-0.4,0.4-0.8,0.6-0.6,1.1h0.6c0.9-0.4,0.8-2.3,2.1-1.7c0.9,0.6,1.3,1.9,0.8,2.8c-0.8,0.7-1.5,1.3-2.3,1.9
		c-0.2,0.4-0.2,0.9,0,1.3c0.6,0.8,0.8,1.5,0.9,2.3c0.6,1.3,0.8,2.8,1.3,4.1c0.8,2.8,1.5,5.7,1.3,8.5c0,1.5-0.8,2.8-0.2,4.3
		c0.4,1.5,1.3,2.6,2.1,4c0.8,1.1,1.5,1.9,2.1,3c1.1,1.9,3.2,3.8,2.3,6c-0.6,1.3-2.6,1.1-4,1.9c-1.1,0.9-0.2,2.4,0.4,3.4
		c0.9,1.7-1.1,2.8-2.4,3.4c0.4,0.6,1.1,0.4,1.3,0.8c0.2,0.9,1.1,1.5,0.6,2.4c-0.8,1.1-3,1.7-1.9,3.4c0.8,1.3,0.3,2.8-0.2,4.1
		c-0.6,1.7-2.1,2.4-3.4,2.8c-1.1,0.4-2.4,0.4-3.6,0.2c-0.4-0.2-0.8-0.4-1.1-0.4c-3.2-0.4-6.4-1.3-9.6-1.3c-0.9,0.2-1.9,0.4-2.6,0.8
		c-0.9,0.6-1.6,1.3-2.3,2c0,0,0,0,0,0c-0.1,0.2-0.3,0.3-0.4,0.5c-0.1,0.1-0.2,0.2-0.2,0.3l-0.2,0.2c-0.5,0.7-1,1.4-1.5,2.2
		c0,0-0.1,0.1-0.1,0.1c0,0.1-0.1,0.2-0.1,0.3c-0.6,1.1-1.1,2.3-1.4,3.5c-1.3,4.3-0.7,8,0.2,8.9c0.2,0.2,6.2,2.1,10.4,3.9
		c2,0.9,3.3,1.5,4.4,2.2h105.3V8z"/>
	<path class="st3" d="M184.3,44.3c0.8,0.2,1.9,0.2,1.9,0.6c-0.4,1.5-2.6,1.9-3.8,3.4h-0.6c-0.6,0.4-0.4,1.3-0.9,1.3
		c-0.6-0.2-1.1,0-1.7,0.2c0.8,0.8,1.7,1.3,2.8,1.1c0.2,0,0.6,0.4,0.6,0.8c0,0,0.2,0,0.4-0.2c0.2,0,0.4,0,0.4,0.2v0.8
		c-0.6,0.7-1.5,0.4-2.3,0.6c1.5,0.4,3,0.4,4.3,0c1.1-0.4,0-2.3,0.8-3.2c-0.4,0,0-0.6-0.4-0.6c0.4-0.4,0.8-0.9,1.1-1.1
		c0.4,0,0.9-0.2,1.1-0.6c0-0.4-0.8-0.6-0.6-0.9c1.1-0.8,2.1-1.9,1.7-3c-0.2-0.6-1.7-0.6-2.6-0.9c-0.9-0.4-2.1,0-3.2,0.2
		c-0.9,0-1.9,0.6-2.8,0.7c-1.3,0.4-2.4,1.1-3.6,1.9c1.3-0.6,2.6-0.8,4.1-1.1C182.2,44.3,183.2,44.1,184.3,44.3"/>
	<path d="M254.5,537.6c2.2,0,4.1,1.7,3.1,5.6l-10.1,2.7C249.1,541.1,252.1,537.6,254.5,537.6 M260.1,554h-2c-2.5,3-5.3,5.4-8,5.4
		c-2.8,0-4.2-1.7-4.2-5.4c0-1.5,0.2-3.1,0.5-4.5l16.3-5.4c3.2-7.6-0.6-10.9-5.1-10.9c-7.7,0-16.5,13.5-16.5,24.3
		c0,5.1,2.4,7.9,6.2,7.9C251.7,565.3,256.3,561,260.1,554 M257.5,529.6l9.3-8.5v-1.2h-6.2l-5.5,9.7H257.5z M222.7,537.8h5.4
		l-8.6,23.6c-0.8,2,0.3,4,2.4,4c6.1,0,13.4-5.2,16.2-12.6h-1.5c-2.2,3.1-7,6.5-10.6,7.1l7.9-22.1h8.1l1-3.4h-7.9l3-8.5H235l-5.6,8.5
		l-6.7,0.9V537.8z M217.1,536.7c0.7-2.2-0.8-3.4-1.9-3.4c-4.7,0-10.3,4.2-12.6,10.2h1.5c1.5-2.2,4.1-4.6,6.6-5l-9,23.5
		c-0.8,2.2,0.8,3.4,1.9,3.4c4.5,0,9.7-4.3,12-10.2H214c-1.5,2.2-4.1,4.6-6.6,5L217.1,536.7z M218,527.3c2,0,3.7-1.6,3.7-3.7
		c0-2-1.7-3.7-3.7-3.7c-2.1,0-3.7,1.7-3.7,3.7C214.3,525.6,216,527.3,218,527.3 M174.3,539.8c1.4,0,2.2,2.2,0,7l-6.4,14.2
		c-1.2,2.7,0.1,4.4,2.7,4.4c1.6,0,2.3-0.4,3-2.1l6.3-16.6c2.9-3.5,8.3-7.3,10.6-7.3c1.7,0,1.5,1.4,0.4,3.5l-9.6,18.5
		c-0.9,1.8,0.3,4,2.4,4c4.7,0,10.3-4.2,12.6-10.2h-1.5c-1.5,2.2-4.1,4.6-6.6,5l8.3-16.7c1.1-2.1,1.6-4.1,1.6-5.7
		c0-2.7-1.5-4.5-4.4-4.5c-4.1,0-7.6,4.6-12.5,10.3v-4.4c0-3.1-1-5.9-3.8-5.9c-3.3,0-6.3,5.1-8.6,10.2h1.5
		C171.7,541.1,173.1,539.8,174.3,539.8 M167.8,540.4c1.1-3.8,0.5-7.2-2.4-7.2c-3.7,0-4.8,2.5-8.5,10.3v-4.4c0-3.1-1-5.9-3.8-5.9
		c-3.3,0-6.3,5.1-8.6,10.2h1.5c1.6-2.3,3.1-3.7,4.3-3.7c1.4,0,2.2,2.2,0,7l-6.4,14.2c-1.2,2.7,0.1,4.4,2.7,4.4c1.6,0,2.3-0.4,3-2.1
		l6.3-16.6c1.8-2.2,3.4-4.1,5.4-6.2H167.8z M133.1,537.6c2.2,0,4.1,1.7,3.1,5.6l-10.1,2.7C127.7,541.1,130.7,537.6,133.1,537.6
		 M138.7,554h-2c-2.5,3-5.3,5.4-8,5.4c-2.8,0-4.2-1.7-4.2-5.4c0-1.5,0.2-3.1,0.5-4.5l16.3-5.4c3.2-7.6-0.6-10.9-5.1-10.9
		c-7.7,0-16.5,13.5-16.5,24.3c0,5.1,2.4,7.9,6.2,7.9C130.3,565.3,134.9,561,138.7,554 M101.3,537.8h5.4l-8.6,23.6
		c-0.8,2,0.3,4,2.4,4c6.1,0,13.4-5.2,16.2-12.6h-1.5c-2.2,3.1-7,6.5-10.6,7.1l7.9-22.1h8.1l1-3.4h-7.9l3-8.5h-3.1l-5.6,8.5l-6.7,0.9
		V537.8z M72.7,556.1c0-7.3,8.1-17.1,12.6-17.1c1,0,2,0.1,2.8,0.4l-4.7,12.6c-2.7,3.3-6.9,7.3-8.9,7.3
		C73.4,559.3,72.7,558.3,72.7,556.1 M97.5,531.9l-2.5-0.2l-2.8,2.8h-0.5c-11.9,0-24.6,14.8-24.6,26.4c0,2.7,1.5,4.5,4.4,4.5
		c3.5,0,6.9-5,10.7-10.3L82,557c-0.5,5.4,1.2,8.4,4,8.4c3.3,0,6.3-5.1,8.6-10.2h-1.5c-1.6,2.3-3.1,3.7-4.3,3.7c-1.2,0-2.1-2.2,0-7
		L97.5,531.9z M72.1,540.4c1.1-3.8,0.5-7.2-2.4-7.2c-3.7,0-4.8,2.5-8.5,10.3v-4.4c0-3.1-1-5.9-3.8-5.9c-3.3,0-6.3,5.1-8.6,10.2h1.5
		c1.6-2.3,3.1-3.7,4.2-3.7c1.4,0,2.2,2.2,0,7L48.1,561c-1.2,2.7,0.1,4.4,2.7,4.4c1.6,0,2.3-0.4,3-2.1l6.3-16.6
		c1.8-2.2,3.4-4.1,5.4-6.2H72.1z M30.3,564.2l0.6-1.8c-7.9-1.5-8.9-1.5-5.7-10l2.9-8h6.3c3.9,0,3.9,1.7,3.4,6H40l5.2-14.2h-2.2
		c-1.9,3.4-3.5,6-7.7,6h-6.3l4.3-11.7c1.5-4.2,2.2-5,7.6-5h1.4c5.5,0,6.1,1.5,6.1,7.3h2.2l1.8-9.7H22.1l-0.6,1.8
		c6.3,1.3,6.9,1.9,4,10L19,552.3c-3,8.1-4.2,8.7-11.4,10L7,564.2H30.3z"/>
	<path d="M181,469c2.2,0,4.1,1.7,3.1,5.5l-10.1,2.7C175.7,472.5,178.7,469,181,469 M186.6,485.3h-2c-2.5,3-5.3,5.4-8,5.4
		c-2.8,0-4.2-1.7-4.2-5.4c0-1.5,0.2-3.1,0.5-4.5l16.4-5.4c3.2-7.6-0.7-10.9-5.1-10.9c-7.7,0-16.5,13.5-16.5,24.3
		c0,5.1,2.4,7.9,6.2,7.9C178.3,496.7,182.9,492.4,186.6,485.3 M184,461l9.3-8.5v-1.2h-6.2l-5.5,9.7H184z M149.3,469.2h5.4l-8.6,23.6
		c-0.8,2,0.3,4,2.4,4c6.1,0,13.4-5.2,16.2-12.6h-1.5c-2.2,3.1-7,6.5-10.6,7.1l7.9-22.1h8.1l1-3.4h-7.9l3-8.5h-3.1l-5.6,8.5l-6.7,0.9
		V469.2z M143.7,468c0.6-2.2-0.8-3.4-2-3.4c-4.7,0-10.3,4.3-12.6,10.2h1.5c1.5-2.2,4.1-4.6,6.6-5l-9,23.5c-0.8,2.2,0.8,3.4,1.9,3.4
		c4.5,0,9.7-4.3,12-10.2h-1.5c-1.5,2.2-4.1,4.6-6.6,5L143.7,468z M144.6,458.7c2,0,3.7-1.7,3.7-3.7c0-2-1.7-3.7-3.7-3.7
		c-2.1,0-3.7,1.7-3.7,3.7C140.9,457,142.6,458.7,144.6,458.7 M115.7,491.5l14.9-39.6l-0.5-0.6l-10.3,1.2v1.2l2,1.5
		c1.8,1.4,1.2,2.7-0.4,7.1L110,492.7c-0.9,1.8,0.3,4,2.4,4c4.7,0,9.7-4.3,12-10.2h-1.5C121.3,488.7,118.1,491.1,115.7,491.5
		 M85.2,487.5c0-7.3,8.1-17.1,12.6-17.1c1,0,1.9,0.1,2.8,0.4l-4.7,12.6c-2.7,3.3-6.9,7.3-8.8,7.3C85.9,490.7,85.2,489.7,85.2,487.5
		 M110,463.3l-2.5-0.2l-2.8,2.8h-0.5c-11.9,0-24.6,14.8-24.6,26.4c0,2.7,1.5,4.5,4.4,4.5c3.5,0,6.9-5,10.7-10.3l-0.2,1.9
		c-0.5,5.4,1.2,8.4,4,8.4c3.3,0,6.3-5.1,8.6-10.2h-1.5c-1.6,2.3-3.1,3.7-4.3,3.7c-1.2,0-2.1-2.2,0-7L110,463.3z M52.3,502.5
		c0-3.1,3-5.1,7.3-6.8c1.4,0.7,3.5,1.5,6.4,2.4c4.5,1.5,6.2,2.1,6.2,3.4c0,2.9-4.1,5.1-11.6,5.1C55,506.6,52.3,505.4,52.3,502.5
		 M64.6,483.4c-2,0-2.7-1.7-2.7-3.5c0-5.8,2.8-13,7.3-13c2,0,2.7,1.7,2.7,3.5C71.8,476.3,69,483.4,64.6,483.4 M77.3,499.6
		c0-3.8-3.4-5.1-8.9-6.8c-4.7-1.4-6.8-1.8-6.8-3.4c0-1.2,1-2.7,3-3.8c7.8-0.4,12.7-7.4,12.7-13.5c0-1.1-0.2-2.1-0.5-3h5.3l1-3.4h-9
		c-1.2-0.8-2.7-1.2-4.4-1.2c-8.2,0-13.4,7.2-13.4,13.5c0,4.1,2.4,6.9,6.1,7.4c-3.8,1.8-6,3.7-6,6.1c0,1.4,0.5,2.4,1.7,3.2
		c-8.8,2.6-12.4,5.8-12.4,9.7c0,4.1,5.4,5.8,11.7,5.8C68.3,510.3,77.3,504.5,77.3,499.6 M36.7,475.7c3.9,0,4,1.7,3.4,6h2.2l5.2-14.2
		h-2.2c-1.9,3.4-3.5,6-7.7,6h-8.6l4.2-11.7c1.5-4.2,2.2-5,7.6-5h3.8c5.5,0,6.1,1.5,6.1,7.3h2.2l1.8-9.7H22.1l-0.6,1.8
		c6.3,1.3,6.9,1.9,4,10L19,483.7c-3,8.1-4.2,8.7-11.5,10L7,495.6h36.2l6.5-10.3h-2.5c-4.2,4.1-8.4,7.9-16.6,7.9
		c-9.6,0-8.8-0.5-5.6-9.4l3-8H36.7z M41.4,451.3l9.3-6.7v-1.2h-6.2l-5.5,8H41.4z"/>
	<path d="M179.9,400.4c2.2,0,4.1,1.7,3.1,5.5l-10.1,2.7C174.5,403.9,177.5,400.4,179.9,400.4 M185.5,416.7h-2c-2.5,3-5.3,5.4-8,5.4
		c-2.8,0-4.2-1.7-4.2-5.4c0-1.5,0.2-3.1,0.5-4.5l16.3-5.4c3.2-7.6-0.7-10.9-5.1-10.9c-7.7,0-16.5,13.5-16.5,24.3
		c0,5.1,2.4,7.8,6.2,7.8C177.1,428.1,181.7,423.8,185.5,416.7 M182.9,392.4l9.3-8.5v-1.2h-6.2l-5.5,9.7H182.9z M148.1,400.6h5.4
		l-8.6,23.6c-0.8,2,0.3,4,2.4,4c6.1,0,13.4-5.2,16.2-12.6h-1.5c-2.2,3.1-7,6.5-10.6,7.1l7.9-22.1h8.1l1-3.4h-7.9l3-8.5h-3.1
		l-5.6,8.5l-6.7,0.9V400.6z M145.3,403.2c1.1-3.8,0.5-7.2-2.4-7.2c-3.7,0-4.8,2.5-8.5,10.3v-4.4c0-3.1-1-5.9-3.8-5.9
		c-3.3,0-6.3,5.1-8.6,10.2h1.5c1.6-2.3,3.1-3.7,4.2-3.7c1.4,0,2.2,2.2,0,7l-6.4,14.2c-1.2,2.7,0.1,4.4,2.7,4.4c1.6,0,2.3-0.4,3-2.1
		l6.3-16.6c1.8-2.2,3.4-4.1,5.4-6.2H145.3z M110.5,400.4c2.2,0,4.1,1.7,3.1,5.5l-10.1,2.7C105.2,403.9,108.1,400.4,110.5,400.4
		 M116.1,416.7h-2c-2.5,3-5.3,5.4-8,5.4c-2.8,0-4.2-1.7-4.2-5.4c0-1.5,0.2-3.1,0.5-4.5l16.3-5.4c3.2-7.6-0.6-10.9-5.1-10.9
		c-7.7,0-16.5,13.5-16.5,24.3c0,5.1,2.4,7.8,6.2,7.8C107.7,428.1,112.3,423.8,116.1,416.7 M78,423.3c-1.6,0-3.9-1.5-3.9-2.8
		c0-0.4,0.7-2.2,1.6-4.5l2.6-7c2.8-3.4,7.2-7,9.6-7c1.5,0,2.6,0.9,2.6,3.1C90.6,411.6,84.5,423.3,78,423.3 M96.2,402.6
		c0-4.8-1.2-6.6-4.6-6.6c-4.2,0-8.1,4.5-12,9.9l8.4-22.5l-0.5-0.7l-10.3,1.2v1.2l2,1.5c1.8,1.4,1.2,2.8-0.4,7.1l-9.1,23.8
		c-0.8,2-1.7,4.4-1.7,5c0,2.8,3.8,5.5,7.3,5.5C83.1,428.1,96.2,413.7,96.2,402.6 M65.6,399.4c0.6-2.2-0.8-3.4-2-3.4
		c-4.7,0-10.3,4.3-12.6,10.2h1.5c1.5-2.2,4.1-4.6,6.6-5l-9,23.5c-0.8,2.2,0.8,3.4,2,3.4c4.5,0,9.7-4.3,12-10.2h-1.5
		c-1.5,2.2-4.1,4.6-6.6,5L65.6,399.4z M66.6,390c2,0,3.7-1.7,3.7-3.7c0-2-1.7-3.7-3.7-3.7c-2.1,0-3.7,1.7-3.7,3.7
		C62.9,388.4,64.5,390,66.6,390 M43.6,385.6H22.1l-0.6,1.8c6.3,1.3,6.9,1.9,4,10L19,415.1c-3,8.1-4.2,8.7-11.4,10L7,426.9h32.7
		l7.1-12.6h-2.5c-4.1,4.5-8.7,10.2-16,10.2c-5.5,0-6.3-1-3.2-9.4l6.4-17.6c3-8.1,4.2-8.7,11.5-10L43.6,385.6z"/>
</g>
</svg>
