<svg width="306" height="99" xmlns="http://www.w3.org/2000/svg" xmlns:xlink="http://www.w3.org/1999/xlink"><defs><path id="a" d="M.5.6H57v19H.5z"/><path id="c" d="M.5.6H57v19H.5z"/></defs><g fill="none" fill-rule="evenodd"><path d="M79.1 72.215v14.5h-2.4v-1.6c-.3.5-.7 1-1.3 1.3-.6.3-1.3.5-1.9.5-.8 0-1.6-.2-2.3-.7-.7-.5-1.2-1.1-1.6-1.8-.4-.9-.6-1.8-.6-2.7 0-.9.2-1.9.6-2.7.3-.7.9-1.4 1.6-1.8.7-.4 1.5-.7 2.3-.6.7 0 1.3.1 1.9.4.5.3 1 .7 1.3 1.3v-6l2.4-.1zm-5 12.7c.7 0 1.4-.3 1.9-.8.5-.7.7-1.5.7-2.4.1-.9-.2-1.7-.7-2.4-.5-.6-1.2-.9-1.9-.8-.7 0-1.5.3-1.9.8-.5.7-.7 1.5-.7 2.4-.1.9.2 1.7.7 2.4.4.5 1.1.8 1.9.8zm16.6-3.1h-6.9c0 .9.3 1.7.8 2.3.6.5 1.4.8 2.1.8 1.1 0 2.1-.4 3-1.1l.7 1.7c-.5.4-1.1.7-1.8.9-.7.2-1.4.3-2.1.3-1.4.1-2.8-.4-3.8-1.4-1-1-1.5-2.4-1.4-3.8 0-.9.2-1.9.6-2.7.4-.8 1-1.4 1.7-1.8.8-.4 1.6-.7 2.5-.7 1.2-.1 2.4.4 3.3 1.3.8 1 1.3 2.3 1.2 3.7v.5h.1zm-4.4-3.6c-.6 0-1.2.2-1.6.6-.5.5-.7 1.1-.8 1.7h4.6c0-.6-.3-1.2-.7-1.7-.4-.4-.9-.6-1.5-.6zm18.4-1.7c.9-.1 1.9.3 2.5 1 .6.9.9 2 .8 3.1v6.1h-2.5v-6c0-.6-.1-1.2-.4-1.7-.3-.4-.8-.6-1.3-.5-.6 0-1.2.2-1.6.7-.4.6-.6 1.3-.6 2v5.6h-2.5v-6c0-.6-.1-1.2-.4-1.7-.3-.4-.8-.6-1.3-.5-.6 0-1.2.2-1.6.7-.4.6-.6 1.3-.6 2v5.6h-2.4v-7.4c0-.9 0-1.9-.2-2.8h2.3l.2 1.6c.3-.6.7-1 1.2-1.3.6-.3 1.2-.5 1.9-.5 1.3-.2 2.6.6 3 1.9.3-.6.8-1.1 1.3-1.4.8-.4 1.5-.6 2.2-.5zm15.7.3v10H118v-1.7c-.3.5-.7 1-1.3 1.3-.6.3-1.3.5-1.9.5-1.7 0-3.2-.9-3.9-2.4-.7-1.7-.7-3.7 0-5.4.3-.8.9-1.4 1.6-1.8.7-.4 1.5-.7 2.3-.7.7 0 1.3.1 1.9.5.6.3 1 .7 1.3 1.3v-1.5l2.4-.1zm-5 8.1c.7 0 1.4-.3 1.9-.8.5-.7.7-1.5.7-2.4.1-.9-.2-1.7-.7-2.4-.9-1.1-2.5-1.1-3.6-.2l-.2.2c-.5.7-.7 1.6-.7 2.4-.1.8.2 1.7.7 2.4.5.5 1.2.8 1.9.8zm13.2-8.4c.3 0 .7 0 1 .2v2.3c-.4-.2-.9-.3-1.3-.3-.7 0-1.4.2-1.9.7-.5.5-.7 1.2-.7 1.9v5.4h-2.4v-7.2c0-.9 0-1.9-.2-2.8h2.3l.2 1.8c.2-.6.6-1.1 1.2-1.5.6-.4 1.2-.6 1.8-.5zm6.9 10.3c-.9 0-1.9-.2-2.7-.6-.7-.4-1.4-1-1.8-1.8-.8-1.7-.8-3.7 0-5.4.4-.8 1-1.4 1.8-1.8.8-.5 1.8-.7 2.7-.7.7 0 1.4.1 2.1.3.6.2 1.1.5 1.6.9l-.7 1.7c-.4-.3-.9-.6-1.3-.8-.4-.2-.9-.3-1.4-.3-.8 0-1.5.3-2.1.8-1 1.5-1 3.4 0 4.8.5.6 1.3.9 2.1.8.5 0 1-.1 1.4-.3.5-.2.9-.5 1.3-.8l.7 1.7c-.5.4-1 .7-1.6.9-.7.5-1.4.6-2.1.6zm11.3-10.3c2.4 0 3.6 1.4 3.6 4.1v6.1h-2.5v-6c.1-.6-.1-1.2-.4-1.7-.4-.4-.9-.6-1.4-.5-.7 0-1.3.2-1.8.7-.5.5-.7 1.2-.7 1.9v5.6h-2.4v-14.5h2.4v6c.3-.5.8-1 1.4-1.3.5-.3 1.1-.4 1.8-.4zm15.1 5.4H155c0 .9.3 1.7.8 2.3.6.5 1.4.8 2.1.8 1.1 0 2.1-.4 3-1.1l.7 1.7c-.5.4-1.1.7-1.7.9-.7.2-1.4.3-2.1.3-1.4.1-2.8-.4-3.8-1.4-1-1-1.5-2.4-1.4-3.8 0-.9.2-1.9.6-2.7.4-.8 1-1.4 1.7-1.8.8-.5 1.7-.7 2.6-.7 1.2-.1 2.4.4 3.2 1.3.8 1 1.3 2.3 1.2 3.7v.5zm-4.4-3.7c-.6 0-1.2.2-1.6.6-.4.5-.7 1.1-.8 1.7h4.6c0-.6-.3-1.2-.7-1.7-.4-.4-.9-.6-1.5-.6zm10.3 8.6c-1.5.1-3.1-.4-4.3-1.3l.7-1.7c1.1.8 2.3 1.2 3.6 1.2.5 0 .9-.1 1.4-.3.3-.2.5-.5.5-.8 0-.3-.1-.5-.3-.7-.3-.2-.7-.4-1.1-.5l-1.6-.4c-1.8-.4-2.7-1.3-2.7-2.8 0-.6.2-1.1.5-1.6.4-.5.9-.9 1.4-1.1.7-.3 1.4-.4 2.1-.4.7 0 1.4.1 2 .3.6.2 1.2.5 1.7.9l-.7 1.7c-.9-.7-2-1.1-3.1-1.1-.5 0-.9.1-1.3.3-.3.2-.5.5-.5.9 0 .3.1.5.3.7.3.2.6.4 1 .4l1.7.4c.8.1 1.5.5 2.2 1 .5.5.7 1.2.7 1.8 0 .9-.4 1.7-1.1 2.2-1 .7-2.1.9-3.1.9zm6.4-4.5v-2h5.9v2h-5.9zm12.6 4.5c-1.5.1-3-.4-4.3-1.3l.7-1.7c1.1.8 2.3 1.2 3.6 1.2.5 0 .9-.1 1.4-.3.3-.2.5-.5.5-.8 0-.3-.1-.5-.3-.7-.3-.2-.7-.4-1.1-.5l-1.7-.4c-1.8-.4-2.7-1.3-2.7-2.8 0-.6.2-1.1.5-1.6.4-.5.9-.9 1.4-1.1.7-.3 1.4-.4 2.1-.4.7 0 1.4.1 2 .3.6.2 1.2.5 1.7.9l-.7 1.7c-.9-.7-2-1.1-3.1-1.1-.5 0-.9.1-1.3.3-.3.2-.5.5-.5.9 0 .3.1.5.3.7.3.2.6.4 1 .4l1.7.4c.8.1 1.5.5 2.2 1 .5.5.7 1.2.7 1.8 0 .9-.4 1.7-1.1 2.2-.9.7-1.9.9-3 .9zm6.3-14.6h2.7v2.4h-2.7v-2.4zm.2 14.4v-10h2.4v10h-2.4zm17.1-10.1c.9-.1 1.9.3 2.5 1 .6.9.9 2 .8 3.1v6.1h-2.5v-6c0-.6-.1-1.2-.4-1.7-.3-.4-.8-.6-1.3-.5-.6 0-1.2.2-1.6.7-.4.6-.6 1.3-.6 2v5.6h-2.5v-6c0-.6-.1-1.2-.4-1.7-.3-.4-.8-.6-1.3-.5-.6 0-1.2.2-1.6.7-.4.6-.6 1.3-.6 2v5.6h-2.4v-7.4c0-.9 0-1.9-.1-2.8h2.3l.2 1.6c.3-.6.7-1 1.3-1.4.6-.3 1.2-.5 1.9-.5 1.3-.1 2.6.6 3 1.9.3-.6.8-1.1 1.4-1.4.6-.3 1.3-.5 2-.5l-.1.1zm11.8 0c.8 0 1.6.2 2.3.7.7.5 1.2 1.1 1.6 1.8.7 1.7.7 3.7 0 5.4-.7 1.5-2.2 2.5-3.8 2.4-.7 0-1.3-.1-1.9-.5-.6-.3-1-.7-1.3-1.3v5.8h-2.6v-11.3c0-.9-.1-1.9-.2-2.8h2.3l.2 1.7c.3-.6.7-1.1 1.3-1.4.6-.4 1.3-.6 2.1-.5zm-.7 8.4c.7 0 1.4-.3 1.9-.8.5-.7.7-1.5.7-2.4.1-.9-.2-1.7-.7-2.4-.4-.6-1.2-.9-1.9-.9s-1.5.3-1.9.8c-.5.7-.7 1.6-.7 2.4-.1.8.2 1.7.7 2.4.5.6 1.2.9 1.9.9zm7.4 1.7v-14.4h2.4v14.5l-2.4-.1zm5.2-14.4h2.7v2.4h-2.7v-2.4zm.2 14.4v-10h2.4v10h-2.4zm8.4-10h6.5v10h-2.5v-8.1h-4.1v8.1h-2.5v-8.1h-1.9v-1.9h1.9v-1c0-.7.1-1.5.4-2.1.3-.5.8-.9 1.4-1.1.8-.3 1.7-.4 2.6-.4h.7v1.8h-.5c-.5 0-.9 0-1.4.1-.3.1-.5.3-.6.6-.1.4-.2.9-.2 1.3l.2.8zm3.9-4.6h2.9v2.5h-2.8l-.1-2.5zm14.2 9.8H254c0 .9.3 1.7.8 2.3.6.5 1.4.8 2.1.8 1.1 0 2.1-.4 3-1.1l.7 1.7c-.5.4-1.1.7-1.7.9-.7.2-1.4.3-2.1.3-1.4.1-2.8-.4-3.8-1.4-1-1-1.5-2.4-1.4-3.8 0-.9.2-1.9.6-2.7.4-.8 1-1.4 1.7-1.8.8-.4 1.6-.7 2.5-.7 1.2-.1 2.4.4 3.3 1.3.8 1 1.3 2.3 1.2 3.7v.5h-.1zm-4.3-3.6c-.6 0-1.2.2-1.6.6-.5.5-.7 1.1-.8 1.7h4.6c0-.6-.3-1.2-.7-1.7-.4-.4-.9-.6-1.5-.6zm15.4 3.6H265c0 .9.3 1.7.8 2.3.6.5 1.4.8 2.1.8 1.1 0 2.1-.4 3-1.1l.7 1.7c-.5.4-1.1.7-1.8.9-.7.2-1.4.3-2.1.3-1.4.1-2.8-.4-3.8-1.4-1-1-1.5-2.4-1.4-3.8 0-.9.2-1.9.6-2.7.4-.8 1-1.4 1.7-1.8.8-.4 1.6-.7 2.5-.7 1.2-.1 2.4.4 3.2 1.3.8 1 1.3 2.3 1.2 3.7l.2.5zm-4.4-3.6c-.6 0-1.2.2-1.6.6-.4.5-.7 1.1-.8 1.7h4.6c0-.6-.3-1.2-.7-1.7-.4-.4-.9-.6-1.5-.6zm10.3 8.6c-1.5.1-3.1-.4-4.3-1.3l.7-1.7c1.1.8 2.3 1.2 3.6 1.2.5 0 .9-.1 1.4-.3.3-.2.5-.5.5-.8 0-.3-.1-.5-.3-.7-.3-.2-.7-.4-1.1-.5l-1.7-.4c-1.8-.4-2.7-1.3-2.7-2.8 0-.6.2-1.1.5-1.6.4-.5.9-.9 1.4-1.1.7-.3 1.4-.4 2.1-.4.7 0 1.4.1 2 .3.6.2 1.2.5 1.7.9l-.7 1.7c-.9-.7-2-1.1-3.1-1.1-.5 0-.9.1-1.3.3-.3.2-.5.5-.5.9 0 .3.1.5.3.7.3.2.6.4 1 .4l1.7.4c.8.1 1.5.5 2.2 1 .5.5.7 1.2.7 1.8 0 .9-.4 1.7-1.1 2.2-.9.7-2 .9-3 .9zm6.1-2.9h2.8v2.8h-2.8v-2.8zm9.7-9.8c-1.1 0-1.6.6-1.6 1.8v.8h2.2v1.9H292v8.1h-2.5v-8.1h-1.9v-1.9h1.9v-1c-.1-1 .3-2 .9-2.7.7-.7 1.6-1.1 2.6-1 .5 0 1.1.1 1.5.2v1.9c-.3 0-.6-.1-.9 0zm8 2.4c.3 0 .7 0 1 .2v2.3c-.4-.2-.9-.3-1.3-.3-.7 0-1.4.2-1.9.7-.5.5-.7 1.2-.7 1.9v5.4h-2.4v-7.2c0-.9-.1-1.9-.2-2.8h2.3l.2 1.8c.2-.6.6-1.1 1.2-1.5.6-.4 1.2-.6 1.8-.5zM2.6 93.7h-.3v1.4h.3c.4 0 .7-.3.8-.6v-.1c-.1-.4-.4-.8-.8-.7 0-.1 0-.1 0 0zM4 97.2c-.2 0-.3 0-.4-.1-.2-.2-.4-.4-.5-.7-.2-.3-.4-.7-.6-1h-.2v.8c0 .2 0 .4.1.6.1.1.2.2.3.2v.2H1.2V97c.1 0 .2 0 .3-.1.1-.1.1-.2.1-.3v-1.7c0-.3 0-.7-.1-1 0-.2-.2-.2-.4-.2v-.2h1.6c.3 0 .6 0 .8.2.2.2.4.4.4.7 0 .5-.4.9-.8 1 .2.3.4.5.6.8.1.2.3.5.5.7.1.1.1.1.2.1v.2H4zm2.9-.1c-.1.1-.1.1-.4.1H4.6V97c.2 0 .3-.1.3-.3v-1.8c0-.2 0-.3-.1-.5 0-.1-.2-.2-.3-.2V94h2.2v.7h-.2c0-.4-.2-.5-.7-.5h-.4v1h.2c.5 0 .6-.1.7-.3h.2v.9h-.2c0-.3-.1-.3-.6-.3h-.3v.9c0 .2 0 .3.1.3h.3c.5 0 .7-.1.8-.5h.2c0 .2-.1.5-.2.7l.3.2zm-1-3.5l-.2-.1.5-.7.5.1-.8.7zm2.9 2.2h-.1l-.1-.2c.4 0 .7-.2.7-.6 0-.3-.2-.6-.6-.6h-.2v2.4c0 .1.2.2.3.2v.1H7.6V97c.2 0 .3-.1.3-.3v-2.4c0-.1-.2-.2-.3-.2V94h1.2c.7 0 1.1.3 1.1.9-.1.5-.5.9-1.1.9zm4.3-1.5c-.1.1-.1.2-.1.3V96c0 .3 0 .5-.2.7-.2.3-.6.5-1 .5-.3 0-.6 0-.8-.2-.3-.2-.5-.6-.5-1v-1.6c0-.2-.1-.2-.3-.3V94h1.3v.1c-.1 0-.2 0-.3.1-.1.1-.1.2-.1.4v.9c0 .8 0 .9.2 1.1.3.3.8.3 1.1 0 .1-.1.1-.2.2-.3.1-.3.1-.6.1-.9v-.5c0-.5 0-.7-.1-.8-.1-.1-.1-.1-.2-.1h1v.1c-.2 0-.2.1-.3.2zm1.8 1.3h-.3v1.1c0 .1.1.2.4.2.3 0 .6-.2.6-.5v-.1c0-.4-.2-.7-.7-.7.1-.1 0-.1 0 0zm0-1.3h-.3v1h.2c.5 0 .7-.2.7-.5s-.2-.6-.6-.5zm1 2.6c-.3.2-.6.3-.9.2h-1.3V97c.2 0 .3-.1.3-.3v-2.3c0-.1-.2-.2-.3-.2V94h1.6c.4 0 .8.2.8.7 0 .5-.2.6-.7.7.4 0 .8.4.8.8 0 .3-.1.5-.3.7zm3 .2c0 .1-.1.1-.3.1h-1.8V97c.1 0 .2 0 .2-.1.1-.1.1-.2.1-.6v-2c0-.1-.2-.2-.3-.2V94h1.3v.1c-.2 0-.3.1-.4.3V96c0 .7 0 .7.1.8.1.1.1.1.4.1.2 0 .4 0 .5-.1.1-.1.2-.2.3-.4h.2c-.2.2-.2.4-.3.7zm1.6 0h-1.1V97c.2 0 .3-.1.3-.3v-2.4c0-.1-.2-.2-.3-.2V94h1.2v.1c-.2 0-.3.1-.3.3v2.4c0 .1.1.2.2.3zm2.1-2.8c-.6 0-1 .4-1 1v.2c0 .8.5 1.4 1.1 1.4.6 0 1-.4 1-1v-.2c0-.8-.5-1.4-1.1-1.4zm2.2 3.7c-.4 0-.8-.1-1.1-.3-.3-.1-.5-.3-.7-.5h-.4c-.8.1-1.5-.5-1.6-1.4v-.2c0-.9.6-1.6 1.5-1.7h.2c.8-.1 1.5.5 1.6 1.4v.2c0 .6-.3 1.2-.9 1.5l.5.3c.3.2.7.4 1.1.4.2 0 .4 0 .5-.1l.1.2c-.2.1-.5.2-.8.2zm2.7-3.7c-.1.1-.1.2-.1.3V96c0 .3 0 .5-.2.7-.2.3-.6.5-1 .5-.3 0-.5-.1-.7-.2-.3-.2-.5-.6-.5-1v-1.6c0-.2-.1-.2-.3-.3V94H26v.1c-.1 0-.2 0-.3.1-.1.1-.1.2-.1.4v.9c0 .8 0 .9.2 1.1.1.1.3.2.5.2.3 0 .6-.2.7-.5.1-.3.1-.6.1-.9v-.5c0-.5 0-.7-.1-.8-.1-.1-.1-.1-.2-.1h1v.1s-.1.1-.3.2zm2.9 2.8c0 .1-.1.1-.3.1h-1.9V97c.2 0 .3-.1.3-.3v-2.3c0-.1-.2-.2-.3-.2V94h2.2v.7h-.2c0-.3-.2-.4-.7-.4h-.3v1h.2c.5 0 .6-.1.7-.3h.2v.9H30c0-.3-.1-.3-.6-.3h-.3v.9c0 .3 0 .3.1.3h.3c.5 0 .7-.1.8-.5h.2c0 .2-.1.5-.2.7l.1.1zm4.3-2.8c0-.4-.2-.6-.9-.6h-.4V95h.3c.5 0 .7-.1.7-.4h.2v1.1h-.2c0-.3-.2-.4-.8-.4h-.3v1c0 .3 0 .6.4.6v.2h-1.5V97c.2 0 .4-.2.4-.4v-2.2c0-.2 0-.4-.1-.6 0-.1-.2-.2-.3-.2v-.2h2.6v.9h-.1zm1.9 0h-.3v1.2h.2c.3 0 .6-.2.6-.5v-.1c.1-.4-.1-.7-.5-.6 0-.1 0-.1 0 0zm1.2 2.8c-.1 0-.3 0-.4-.1-.2-.2-.3-.3-.4-.5-.2-.3-.3-.6-.5-.8h-.2v1.1c0 .1.2.2.3.2v.1h-1.2V97c.1 0 .2 0 .2-.1.1-.1.1-.2.1-.3v-2.3c0-.1-.1-.2-.3-.2V94h1.4c.2 0 .5 0 .7.2.2.1.3.4.3.6 0 .4-.3.7-.7.8.2.2.3.5.5.7.1.2.3.4.4.6.1.1.1.1.2.1v.1h-.4zm1.8-2.3c-.1.3-.3.7-.4 1h.8l-.4-1zm1.5 2.3H40V97c.2 0 .2-.1.2-.2s0-.2-.1-.3c-.1-.2-.1-.3-.2-.4H39v.2c-.1.1-.1.3-.1.4 0 .1.1.2.2.2v.1h-.9c.1 0 .1 0 .1-.1.1-.2.3-.4.3-.6l.4-1.1c.1-.3.3-.8.4-1.2h.3c0 .1.1.4.2.5l.7 1.7.3.6c0 .1.1.2.2.2v.1zm3.4-2.8c-.1.1-.1.3-.1.4v2.4h-.3l-.9-1.2-1-1.2v1.6c0 .1 0 .3.1.4 0 .1.1.1.3.1v.1h-1v.1c.3 0 .3-.3.3-.5v-1.7c0-.4 0-.5-.1-.6-.1-.1-.1-.1-.2-.1V94h.8c.1.1.2.2.5.6.5.6.9 1 1.3 1.5v-1.7c0-.1-.1-.2-.3-.2V94h1v.1c-.3 0-.4 0-.4.2zm3.2 2.7c-.3.1-.6.2-.9.2v.2h.1c.2 0 .3.1.3.3 0 .3-.2.4-.5.4-.1 0-.2 0-.3-.1l.1-.2h.2c.1 0 .2-.1.2-.2s0-.2-.1-.2h-.2l.1-.4c-.4 0-.7-.2-1-.4-.3-.3-.5-.7-.4-1.2 0-.8.7-1.5 1.5-1.5h.2c.3 0 .6 0 .9.1v.6h-.2c-.1-.3-.4-.6-.8-.5-.6 0-1 .4-1.1.9v.2c0 .8.5 1.4 1.1 1.4.4 0 .7-.2.8-.6h.2c-.1.6-.2.8-.2 1zm1.7-2.2c-.1.3-.3.7-.4 1h.7l-.3-1zm1.5 2.3h-1.1V97c.2 0 .2-.1.2-.2s0-.2-.1-.3c-.1-.2-.1-.3-.2-.4H49l-.1.3c-.1.1-.1.3-.1.4 0 .1.1.2.2.2v.1h-1V97c.1 0 .1 0 .1-.1.1-.2.3-.4.3-.6l.4-1.1c.1-.3.3-.8.4-1.2h.3c0 .1.1.4.2.5l.7 1.7.3.6c0 .1.1.2.2.2v.1zm1.6 0h-1.1V97c.2 0 .3-.1.3-.3v-2.4c0-.1-.2-.2-.3-.2V94h1.2v.1c-.2 0-.3.1-.3.3v2.4c0 .1.2.2.3.2v.1h-.1zm1.4.1c-.3 0-.5-.1-.8-.2 0-.2 0-.4-.1-.7h.2c.1.3.4.6.7.6.3 0 .5-.2.5-.4s-.2-.4-.3-.5l-.5-.3c-.3-.2-.5-.5-.5-.8 0-.5.4-.8 1-.8.3 0 .5.1.8.2v.6h-.2c0-.3-.3-.5-.6-.5-.2 0-.5.2-.5.4s.2.4.4.5l.4.3c.4.2.6.5.6.8 0 .3-.5.8-1.1.8zm3.7-.1c0 .1-.1.1-.3.1h-1.9V97c.2 0 .3-.1.3-.3v-2.3c0-.1-.2-.2-.3-.2V94h2.2v.7h-.2c0-.3-.2-.4-.7-.4h-.4v1h.2c.5 0 .6-.1.7-.3h.2v.9h-.2c0-.3-.1-.3-.6-.3h-.3v.9c0 .3 0 .3.1.3h.3c.5 0 .7-.1.8-.5h.2c0 .2-.1.5-.2.7l.1.1zM2.7 89.2s-.1.1-.3.1H.8v-.1c.1 0 .2-.1.3-.1.1-.1.1-.3.2-.5.1-.3.1-.4.2-.9l.1-.4c.1-.2.1-.5.1-.7 0-.2-.1-.3-.3-.3v-.1h1.1v.1c-.1 0-.2 0-.3.1-.1.2-.2.3-.4 1.2v.4c-.1.4-.1.5-.1.7v.2c0 .2.1.2.4.2.5 0 .7-.1.9-.5-.1.1-.2.3-.3.6zm.9.1c-.1 0-.1 0-.1-.1V89c.1-.2.1-.6.2-.7.1-.1.1-.3.1-.5 0-.1 0-.1-.1-.1h-.2v-.1c.2-.1.4-.1.6-.2.1 0 .1 0 .1.1 0 .2-.1.3-.1.5l-.1.2c-.1.2-.1.4-.1.7 0 .1 0 .1.1.1l.3-.1v.1c-.3.2-.5.2-.7.3zm.5-2.3c-.1 0-.2-.1-.2-.2s.1-.3.3-.3c.1 0 .2.1.2.2 0 .2-.2.3-.3.3zm2 .6c-.1 0-.2 0-.3.1-.1 0-.2.1-.3.2-.1.2-.2.3-.2.5s-.1.3-.1.5c0 .1.1.1.3.1.2 0 .4-.1.5-.3.2-.3.3-.6.3-1 0 0-.1-.1-.2-.1zm0 1.4c-.2.2-.4.2-.7.2-.4 0-.6-.1-.6-.2v-.3l.2-1 .2-1c0-.1.1-.3.1-.4 0-.1 0-.1-.1-.1H5v-.1h.1c.2-.1.4-.1.5-.1.1 0 .1 0 .1.1 0 .2-.1.3-.1.5l-.1.6c0 .2-.1.3-.1.3.2-.1.5-.2.8-.2.3 0 .4.1.4.4 0 .5-.2 1-.5 1.3zm2-1.4c-.2 0-.5.3-.6.7.4 0 .7-.2.7-.5.1-.1 0-.2-.1-.2zm-.5.9h-.1v.2c0 .2.1.3.2.3.2 0 .4-.1.6-.3v.3c-.2.2-.5.3-.8.3-.2 0-.4-.1-.4-.4v-.1c-.1-.7.4-1.3 1.1-1.4.3 0 .5.1.5.3-.1.5-.5.8-1.1.8zm2.9-.5h-.1v-.2c0-.1-.1-.1-.2-.1s-.2 0-.2.1c-.2.3-.3.6-.3 1l-.1.4h-.4c0-.2.1-.3.1-.5l.1-.4c0-.2.1-.4.1-.6 0-.1 0-.2-.1-.2h-.2v-.1c.2-.1.4-.1.6-.2 0 0 .1 0 .1.1v.2c.1-.1.3-.2.5-.3.1 0 .2.1.3.1-.1.3-.2.4-.2.7zm1.5-.3h-.4l-.2.9c0 .1 0 .2-.1.3 0 0 0 .1.1.1h.2v.1c-.2.1-.4.1-.6.2-.1 0-.1 0-.1-.1v-.3c0-.2.1-.3.1-.5l.1-.7H11v-.2c.3 0 .4-.3.5-.6h.2l-.1.5h.4v.3zm1.4-.1c-.2 0-.5.3-.6.7.4 0 .7-.2.7-.5.1-.1 0-.2-.1-.2zm-.5.9h-.1v.2c0 .2.1.3.2.3.2 0 .4-.1.6-.3v.2c-.2.2-.5.3-.8.3-.3 0-.4-.2-.4-.5-.1-.7.4-1.3 1.1-1.4.3 0 .5.1.5.3-.1.6-.5.9-1.1.9zm.5-1.3l-.1-.2.5-.6.4.1-.8.7zm8.6-.3h-.1v-.1c0-.3-.2-.3-.6-.3h-.4c-.1.4-.2.7-.2 1.1h.7c.2 0 .3-.1.3-.3h.1c-.1.3-.1.6-.2.9h-.1v-.1c0-.2-.1-.3-.5-.3h-.4c0 .1 0 0-.1.5 0 .2-.1.3-.1.5s.1.2.4.2c.6 0 .7-.1.9-.5h.1l-.3.6s-.1.1-.3.1h-1.7v-.1c.1 0 .2 0 .3-.1.1-.1.2-.3.2-.5.1-.3.1-.4.2-.9l.1-.4c.1-.2.1-.5.1-.7 0-.1-.1-.3-.2-.3h-.1v-.1h2.1c-.1.3-.2.5-.2.8zm-.8-1.1H21l.5-.6.4.1-.7.5zm2.3 3.6c-.2-.1-.4-.1-.5-.2-.3 0-.5.3-.5.6 0 .2.2.4.5.4s.8-.3.8-.6c-.1 0-.2-.1-.3-.2zm-.1-1.8c-.3 0-.5.3-.4.6 0 .2.1.4.3.4.3 0 .4-.3.4-.5 0-.3-.1-.5-.3-.5zm.9.1H24v.3c0 .4-.4.8-.8.7H23l-.1.1s0 .1.3.1l.4.1c.4.1.5.2.5.5-.1.5-.5.9-1.1.9-.5 0-.8-.2-.8-.6 0-.4.2-.5.6-.6-.2-.1-.3-.1-.3-.2s.1-.2.4-.4c-.1-.1-.2-.2-.2-.4 0-.4.3-.8.8-.8h.9l-.1.3zm1.5-.1c-.2 0-.4.1-.5.4-.2.3-.3.6-.3.9 0 .1.1.2.2.2.2 0 .4-.1.6-.3.1-.1.1-.2.1-.3.1-.3.1-.6.2-.8-.1-.1-.2-.1-.3-.1zm.2 1.7c-.1 0-.1-.1-.2-.3-.2.2-.5.3-.8.3-.3 0-.4-.1-.4-.4 0-.3.1-.6.3-.9.2-.4.6-.6 1-.6.2 0 .4 0 .6.1v.1c-.1.4-.2.9-.3 1.3 0 .1 0 .2.1.2s.1 0 .2-.1v.1c-.2.1-.3.2-.5.2zm2-2.7c-.1.6-.3 1.3-.4 1.9 0 .1-.1.3-.1.4 0 .1 0 .1.1.1h.3v.1c-.2.1-.4.1-.6.2-.1 0-.1 0-.1-.1s0-.3.1-.4c.1-.6.3-1.2.4-1.8 0-.3.1-.4.1-.4s0-.1-.1-.1h-.2v-.1c.2-.1.4-.1.6-.1.1 0 .1 0 .1.1-.1 0-.2.1-.2.2zm.6 2.7c-.1 0-.1 0-.1-.1V89c.1-.2.1-.6.2-.7.1-.1.1-.3.1-.5 0-.1 0-.1-.1-.1h-.2v-.1c.2-.1.4-.1.6-.2.1 0 .1 0 .1.1 0 .2-.1.3-.1.5l-.1.2c-.1.2-.1.4-.1.7 0 .1 0 .1.1.1l.3-.1v.1c-.3.2-.5.2-.7.3zm.5-2.4c-.1 0-.2-.1-.2-.2s.1-.3.2-.3.2.1.2.2c.1.2 0 .3-.2.3zm1.8.8h-.4l-.2.9v.3s0 .1.1.1h.2v.1c-.2.1-.4.1-.6.2-.1 0-.2 0-.2-.1v-.3c0-.2.1-.3.1-.5l.1-.7h-.2v-.2c.3 0 .4-.3.5-.6h.2l-.1.5h.4l.1.3zm1.3-.1c-.2 0-.5.3-.6.7.4 0 .7-.2.7-.5.1-.1 0-.2-.1-.2zm-.5.9h-.1v.2c0 .2.1.3.2.3.2 0 .4-.1.6-.3v.3c-.2.2-.5.3-.8.3-.2 0-.4-.1-.4-.4v-.1c-.1-.7.4-1.3 1.1-1.4.3 0 .5.1.5.3-.1.5-.5.8-1.1.8zm.5-1.3l-.1-.2.5-.6.4.1-.8.7zm8.6-.3h-.1v-.1c0-.1 0-.2-.1-.2-.1-.1-.3-.1-.6-.1h-.3c-.1.4-.2.7-.2 1.1h.3c.5 0 .6 0 .7-.3h.1c-.1.3-.1.6-.2.9h-.1v-.1c0-.1 0-.1-.1-.2s-.2-.1-.4-.1h-.3l-.1.3c-.1.3-.1.5-.1.8 0 .1.1.3.2.3v.1h-1.1v-.1c.1 0 .2-.1.3-.1.1-.1.2-.3.2-.5.1-.3.1-.4.2-.9l.1-.4c.1-.2.1-.5.1-.7 0-.2-.1-.3-.3-.3v-.1h2c-.1.2-.2.4-.2.7zm1.6 1.1h-.2v-.2c0-.1-.1-.1-.2-.1s-.2 0-.2.1c-.2.3-.3.6-.3 1l-.1.4H41c0-.2.1-.3.1-.5l.1-.4c.1-.2.1-.4.1-.6 0-.1 0-.2-.1-.2H41v-.1c.2-.1.4-.1.6-.2 0 0 .1 0 .1.1v.2c.1-.1.3-.2.5-.3.1 0 .2.1.3.1 0 .3-.1.4-.1.7zm1.6-.4c-.2 0-.4.1-.5.4-.2.3-.3.6-.3.9 0 .1.1.2.2.2.2 0 .4-.1.6-.3.1-.1.1-.2.2-.3.1-.3.1-.6.2-.8-.2-.1-.3-.1-.4-.1zm.2 1.7c-.1 0-.1-.1-.2-.3-.2.2-.5.3-.8.3-.3 0-.4-.1-.4-.4 0-.3.1-.6.3-.9.2-.4.6-.6 1-.6.2 0 .4 0 .6.1v.1c-.1.4-.2.9-.3 1.3 0 .1 0 .2.1.2s.1 0 .2-.1v.1c-.2.1-.3.2-.5.2zm2.1-1.6H46l-.2.9c0 .1 0 .2-.1.3 0 0 0 .1.1.1h.2v.1c-.2.1-.4.1-.6.2-.1 0-.2 0-.2-.1s0-.2.1-.3c0-.2.1-.3.1-.5l.1-.7h-.2v-.2c.3 0 .4-.3.5-.6h.2l-.1.5h.4v.3zm1.4-.1c-.2 0-.5.3-.6.7.4 0 .7-.2.7-.5.1-.1 0-.2-.1-.2zm-.5.9c-.1.1-.1.1-.1.2 0 .2.1.3.2.3.2 0 .4-.1.6-.3l.1.3c-.2.2-.5.3-.8.3-.3 0-.4-.2-.4-.5-.1-.7.4-1.3 1.1-1.4.3 0 .5.1.5.3 0 .4-.4.7-1 .7l-.2.1zm2.9-.5h-.2v-.2c0-.1-.1-.1-.2-.1s-.2 0-.2.1c-.2.3-.3.6-.3 1l-.1.4h-.4c0-.2.1-.3.1-.5l.1-.4c.1-.1.1-.3.1-.5 0-.1 0-.2-.1-.2h-.2v-.1c.2-.1.4-.1.6-.2 0 0 .1 0 .1.1v.2c.1-.1.3-.2.5-.3.1 0 .2.1.3.1-.1.2-.1.3-.1.6zm1.8 1.3c-.1 0-.1 0-.1-.1s0-.3.1-.4v-.2c.1-.3.1-.6.2-.8 0-.1 0-.1-.1-.1s-.2.1-.3.1l-.3.3c-.1.1-.1.3-.1.4-.2.3-.3.5-.3.7h-.4c.1-.3.2-.6.2-.9 0-.2.1-.4.1-.5 0-.1 0-.2-.1-.2h-.2v-.1c.2-.1.4-.1.6-.2.1 0 .1 0 .1.3.3-.2.6-.3 1-.3.2 0 .2 0 .2.1 0 .2-.1.4-.1.6 0 .2-.1.4-.1.5v.3s0 .1.1.1.2 0 .2-.1v.2c-.2.1-.4.1-.6.2l-.1.1zm1.4 0c-.1 0-.1 0-.1-.1V89c.1-.2.1-.6.2-.7 0-.2.1-.3.1-.5 0-.1 0-.1-.1-.1h-.2v-.1c.2-.1.4-.1.6-.2.1 0 .1 0 .1.1 0 .2 0 .4-.1.5l-.1.3c-.1.2-.1.4-.1.7 0 .1 0 .1.1.1h.2v.1c-.2 0-.4.1-.6.1zm.5-2.3c-.1 0-.2-.1-.2-.2s.1-.3.3-.3c.1 0 .2.1.2.2s-.2.3-.3.3zm1.8.7h-.4l-.2.9v.3s0 .1.1.1h.2v.1c-.2.1-.4.1-.6.2-.1 0-.2 0-.2-.1s0-.2.1-.3c0-.2.1-.3.1-.5l.1-.7h-.2v-.2c.3 0 .4-.3.5-.6h.2l-.1.5h.4v.3zm1.3-.1c-.2 0-.4.3-.6.7h.1c.4 0 .7-.2.7-.5 0-.1-.1-.2-.2-.2zm-.4.9h-.1v.2c0 .2.1.3.2.3.2 0 .4-.1.6-.3l.1.2c-.2.2-.5.3-.8.3-.3 0-.4-.2-.4-.5-.1-.7.4-1.3 1-1.4.3 0 .4.1.4.3-.1.6-.5.9-1 .9zm.4-1.3l-.1-.2.6-.6.4.1-.9.7zm-21.2 1.2c.3 0 .6-.2.6-.5s-.2-.6-.5-.6-.6.2-.6.5c0 .4.2.6.5.6zm-18.8 0c.3 0 .5-.2.5-.6 0-.3-.2-.5-.5-.5s-.5.2-.5.6c-.1.3.2.5.5.5z" fill="#FFF" fill-rule="nonzero"/><path d="M1 91.3h56.5" stroke="#FFF" stroke-width=".13"/><path fill="#FFF" fill-rule="nonzero" d="M1.5 64.6H58v19H1.5z"/><g transform="translate(1 64)"><mask id="b" fill="#fff"><use xlink:href="#a"/></mask><path d="M17.3 12.7c-.5.1-1 .2-1.5.4 1.1 0 2.3.1 3.3.5.4.1.7.3 1.1.5.1.1.3.2.4.3.2.1.5.1.7 0h.2c.7-.1 1.3-.4 1.8-.8h.1c-.1.4-.2.7-.4 1v.2h.1-.1s.1 0 .2.1c-.2 0-.4.1-.6.3h.1s-.2 0-.3.1h.1-.1v.1c-.1 0-.2.1-.3.1.2.1.3 0 .5 0-.5.2-.9.4-1.3.6-.1 0 0 .1-.1.1.1.1.2 0 .4 0-.6.3-1.2.6-1.9 1 0 0-.1.1-.1.2h-.2c-.1 0 0 .2-.1.3.2.1.5-.2.6 0h-.2c-.1 0 0 .1-.1.1h-.1c-.1.1-.2.1-.2.3 0 .2-.2 0-.2.1 1 0 1.9-.2 2.9-.5.7-.4 1.4-.8 1.9-1.4v.1c-.1.4-.4.8-.7 1-.3.1-.4.3-.7.4l-.2.2c-1.6.6-3.5.3-4.9 1.4 0-.1 0-.1-.1-.1s-.2.1-.3.2c-.1.1.1 0 .2 0 .3-.2.5-.3.8-.4-.3.2-.6.4-1 .5-.7.1-1.4.1-2.1 0 .4-.3.9-.6 1.3-.8-.1-.1-.2-.1-.4-.1s-.5-.1-.7 0c-.6.3-1.5.2-1.9.9-4.3.1-8.7 0-13 0 .1-4.7 0-9.4.1-14.1C.3 3.8.2 2.1.2.5 1.4.4 2.5.4 3.7.5h22.4c-.6.2-1.1.6-1.5 1-.3.5-.6 1-.7 1.5-.5.3-.9.8-1.2 1.4-.4.7-1 1.4-.9 2.2.1.8.3 1.3.4 2.1 0 .3.1.5.2.7.1.3 0 .6.1.8.1.2 0 .3.2.4v.2c0 .1 0 .1.1.1v.2c.4.4.7.8 1 1.3.1.3-.4.1-.6 0-.4-.2-.7-.5-1-.9v.1c.2.3.8.7.5.9-.2.1-.4-.1-.6 0-.2.1 0 .2 0 .3-.3-.2-.5-.1-.8-.2-.3-.1-.2-.4-.4-.4-.5-.1-1.1-.2-1.6-.3-.8 0-1.5 0-2.3.2-.7.1-1.3.5-1.6 1.1v.1c.3 0 .4-.2.7-.3.4-.1.8-.3 1.3-.3.6-.2 1.2-.2 1.8-.3h.4c-.8-.1-1.6.1-2.3.3" fill="#164194" fill-rule="nonzero" mask="url(#b)"/></g><path d="M15.9 78.5c-.1 0-.3.1-.2.2.1.1.4 0 .6 0-.3.1-.6 0-.8.3.2.1.3 0 .5 0 0 .1.1.1.1.1-.2.1-.3.2-.4.4-.1.2-.3.3-.4.5v.1c-.5.3-.9.7-1.3 1.1v.1c0 .1-.3.2-.3.3v.1c.5-.2.9-.6 1.4-.7.5-.1.6-.3.9-.4.3-.1.5-.1.7-.2v.1h.3c0 .1-.2 0-.2.1.2.1.4.1.6 0 .1-.1.3-.1.4-.1v-.1h.4c1-.2 2-.5 3-.9-1.2-.8-2.5-1.3-3.9-1.6.1 0 .3.1.4 0-.2-.2-.5-.1-.7-.2 0 0 .1.1.2 0-.3-.1-.7-.2-1-.3.2 0 .3-.2.3-.4h-.1c-.5.3-.9.7-1.1 1.3.3.2.6 0 1 .1-.1.1-.3.1-.4.1m-1.8-1.7c-.4.5-.9.9-1.5 1.2-.4.8-.9 1.5-1.4 2.2v.1c1-1.2 2.1-2.2 3.3-3 .1 0-.1.1 0 .1.6-.1.7-.7 1-1.1.3-.4 1-.8 1.4-1.3v.1h.1c.2-.1.4-.1.5-.3-.4-.1-.8-.1-1.1 0-.8.6-1.6 1.2-2.3 2" fill="#FFF" fill-rule="nonzero"/><path d="M14.8 77.6c0-.1.1-.1.1-.2v-.1c-.2.1-.3.2-.4.4h.1c.1 0 .2 0 .2-.1" fill="#FFF" fill-rule="nonzero"/><g transform="translate(1 64)"><mask id="d" fill="#fff"><use xlink:href="#c"/></mask><g mask="url(#d)" fill-rule="nonzero"><path d="M17.3 16.9c-.2.1-.5.1-.5.3 0 .2.1 0 .2 0 .3-.1.6 0 .9-.3-.1-.1-.2 0-.3-.2-.1-.2-.3.1-.3.2" fill="#FFF"/><path d="M22 19.2c.3-.1.5-.2.8-.3v.1c.7-.3 1.1-.8 1.8-1 0 0 .1.1.2 0 .3-.4.9-.7 1.4-.7v.1h.1l-.5.4v.1c.2-.1.3-.3.6-.3 0 0 0 .1-.1.2-.8.6-1.5 1.3-2.1 2h-1.3v-.1c-1.5.1-3 .1-4.5.1.9-.1 1.7-.4 2.6-.5.3 0 .6 0 1-.1" fill="#164194"/><path d="M39 17c.1-.3.1-.7 0-1-.3-.4.3-.5.4-.8.1-.3-.1-.3-.1-.6s-.2 0-.3-.2c.3-.1.8-.4.6-.8-.1-.2-.3-.6-.1-.8.2-.2.8-.1.9-.4.2-.5-.3-1-.5-1.4-.1-.2-.3-.5-.5-.7-.2-.3-.4-.6-.5-.9-.1-.3 0-.7 0-1 0-.7-.1-1.3-.3-1.9-.1-.3-.2-.7-.3-1 0-.2-.1-.4-.2-.5v-.3c.2-.1.4-.3.5-.4.1-.2 0-.5-.2-.7-.3-.1-.3.3-.5.4h-.1c0-.1 0-.2.1-.3.1-.1 0-.1 0-.1s-.3 0-.4-.1c-.4-.5-1-1-1.7-1.2.2.1.3.1.5.1.3.1.6 0 .9-.1.2-.1.3-.4.3-.6.1-.2 0-.4-.1-.6-.2-.3-.5-.6-.9-.7h20.4c0 6.4 0 12.8-.1 19.2-8.1.1-16.1 0-24.2 0 .2-.9.8-1.7 1.5-2.3.2-.1.4-.1.6-.2.7.1 1.5.2 2.2.3.1 0 .2 0 .3.1.3.1.6.1.8 0 .5 0 .8-.2 1-.5" fill="#E30613"/></g></g><path d="M38.3 72.5h-.7c-.3.1-.6.1-.9.3.2-.2.5-.3.8-.4.2-.1.4-.1.7-.2.2-.1.5-.1.7 0 .2.1.6.1.6.2s-.1.5-.4.7c0 .1.1.1.1.2-.1.1-.2.1-.3.1l-.3.3c.1 0 0 .1.1.1-.2.2.1.7-.2.7-.3.1-.7.1-1 0 .2 0 .4 0 .5-.1v-.2h-.2c0-.1 0-.2-.1-.3-.2 0-.5-.1-.7-.3h.4c.1 0 .1-.2.2-.3h.1c.3-.3.8-.4.9-.8.2.1-.1.1-.3 0" fill="#9D9D9C" fill-rule="nonzero"/><g fill="#FFF" fill-rule="nonzero"><path d="M113 4.6c-.1.2-.1.2-.2.2 0-.1-.1-.1-.1 0-.9-.2-1.8-.3-2.7-.4-.9 0-1.8 0-2.7.1-.9.1-1.8.2-2.7.4-.9.1-1.8.3-2.6.5-1.8.3-3.5.7-5.3 1.1-1.8.4-3.5.8-5.4 1.2-.4.1-.8.2-1.3.2-.5.1-.9.2-1.4.2-1.3.3-2.6.7-3.9 1.1-1.3.4-2.6.9-4 1.5-.8.2-1.7.5-2.6.9-.9.4-1.8.8-2.6 1.3-.5.2-.9.4-1.3.7-.4.2-.9.5-1.4.7-.4.2-.9.5-1.3.7-.5.2-.9.2-1.3-.1-.2-.1-.3-.3-.4-.6-.1-.3-.1-.6-.1-1 .4-.5.8-.9 1.3-1.2.5-.3.9-.5 1.4-.8 1.4-.7 2.7-1.4 4.1-2 1.4-.6 2.7-1.2 4-1.8 1.7-.8 3.5-1.6 5.3-2.3 1.8-.7 3.6-1.3 5.4-2 1-.2 1.9-.5 2.7-.7l2.7-.6c1.8-.4 3.6-.7 5.4-.9 1.8-.2 3.7-.3 5.5-.3.4.1.8.1 1.3.1.4 0 .9 0 1.4.1.6.2 1.1.3 1.7.5.5.2 1.1.6 1.6 1.2 0 .1 0 .1-.1 0s-.1-.1-.2.2c0 .2.1.3.2.3.1.1.1.1 0 .2 0 .1-.1.1-.2.1V4c0 .1-.1.1-.1.1 0-.1 0 0-.1.1v.4c.1 0 .1 0 0 0zM77.4 52.7c-.1 0-.2.1-.3 0h-.4c-.2.1-.5.1-.6.1-.1 0-.2-.1-.3-.2-.1-.1-.3-.2-.3-.3-.2 0-.3 0-.4-.1-.1-.1-.1-.2-.2-.2-.2-.2-.2-.5-.2-.9s.1-.8.2-1.3.2-1 .4-1.4c.1-.5.3-.9.4-1.3.2-.8.5-1.7.8-2.6.3-1 .6-1.8.8-2.6.7-1.9 1.3-3.6 1.9-5.3.5-1.7 1.2-3.4 1.9-5 .7-1.7 1.4-3.4 2-5.1.6-1.7 1.3-3.3 2-4.8l.9-2.4c.3-.8.7-1.7 1-2.5.3-.8.7-1.6 1-2.4.3-.8.6-1.6.8-2.4 0-.2.1-.4 0-.6 0-.2 0-.4.1-.6.2-.2.5-.5.9-.7.4-.2.8-.3 1.1-.4.4-.1.8-.1 1.3.1.5.1.9.4 1.2.6.4.3.7.6.9 1 .2.4.3.7.2 1.1-.1.5-.3.9-.6 1.3s-.6.8-.8 1.2c-.6 1-1.1 1.9-1.6 3-.5 1-1 2.1-1.5 3.2-.7 1.4-1.3 2.8-1.9 4.3-.6 1.5-1.2 3-1.9 4.5s-1.3 3-1.9 4.5c-.3.7-.7 1.5-1 2.3-.3.8-.6 1.5-.8 2.3-.2.8-.5 1.6-.8 2.3-.3.8-.6 1.6-1 2.4-.3.8-.6 1.6-.8 2.3-.2.8-.5 1.5-.9 2.3-.1.2-.2.5-.3.8-.1.3-.3.5-.3.8-.2.5-.4.9-.5 1.4-.1.5-.4.8-.5 1.3zm27.2-18.5c0 .3 0 .6-.1 1s-.2.6-.4.8c-.1.2-.2.5-.3.8-.1.3-.3.6-.4.9-.3.3-.6.7-.9 1.3-.3.6-.6.9-.9 1.1-.8.9-1.5 1.5-2.1 2-.6.5-1.2.9-1.8 1.3-.6.4-1.2.5-1.6.4-.7.2-1.3.3-1.9.3-.6-.1-1.2-.2-1.7-.5s-.9-.6-1.2-1.1c-.3-.5-.5-1-.6-1.6 0-.1-.1-.2-.1-.5 0-.2.1-.4.2-.5-.1-.3-.1-.6 0-.9.1-.3.2-.6.2-.9l1.1-3.2c.1 0 .2-.1.2-.2s.1-.2.2-.2c.2-.6.6-1.2 1-1.7.4-.6.9-1.1 1.3-1.6.2-.3.5-.7.8-1.1.3-.4.6-.7 1-1 .4-.3.7-.5 1.1-.6.4-.1.7 0 1.1.3.4.1.8.2 1.1.4 0 .1.1.1.2 0s.1-.1.2-.1h.5c.2 0 .5.1.7.2.2.1.5.2.7.2l.4.2.6.9c.5-.1 1.3-.3 2.3-.4 1.1-.2 2.2-.3 3.3-.4 1.2-.1 2.2-.1 3.2-.1s1.7.2 2.2.5c0 0 .1.1.2.1s.1 0 .2.1l.1.1c.2 0 .4 0 .4.1s.1.1.3.1c.2.2.2.3.1.5s-.3.3-.4.4c-.5 0-.7.1-.8.2-.1.1-.2.2-.3.2-.1.1-.3.1-.5.1h-1.4c-.6 0-1.2 0-1.8.1-.6.1-1.3.2-2 .4s-1.3.3-1.9.5c-.6.1-1.1.3-1.5.4 0 .2-.1.3-.1.4-.2.1-.2.2-.2.3zm-4.5-3c-.2-.1-.4-.1-.6-.1-.2 0-.4-.1-.6-.2l-.2.2c-.2.2-.4.5-.6.7-.1.3-.3.6-.5.9-.2.2-.5.6-.8 1.1-.3.5-.7 1-1 1.6-.3.6-.6 1.1-.9 1.6-.3.5-.4.9-.5 1.2-.1.5-.3 1.1-.5 1.7-.2.6-.2 1.2.1 1.8.9-.3 1.7-.7 2.4-1.2s1.3-1.1 1.9-1.7l.4-.4c.2-.3.5-.8.9-1.6.5-.8.8-1.6 1.1-2.4.3-.8.5-1.6.4-2.2.1-.7-.3-1-1-1z"/><path d="M108.6 35.9c.1-.3.2-.5.3-.6.1-.1.1-.2.2-.4 0-.1.1-.3.2-.4.1-.1.2-.4.3-.7.2-.3.3-.7.5-1 .2-.3.4-.6.6-.8v-.4c0-.1.1-.2.2-.3.1-.1.1-.3.1-.4.2-.1.4-.3.5-.5.1-.3.3-.5.5-.7 0-.1-.1-.1 0-.2v-.2c.4-.2.7-.5 1.1-.7.4-.2.8-.3 1.2-.2.4.2.7.5.9.9.1.4.1.8-.1 1.1-.2.4-.4.6-.6.8-.2.5-.4.9-.5 1.2-.1.3-.3.6-.4.9-.1.3-.3.6-.4.9-.1.3-.3.8-.6 1.3-.2.5-.4.8-.6 1-.2.2-.4.6-.7 1.1 0 .2-.2.5-.4 1-.2.4-.4.8-.5 1.2-.1.4-.1.6 0 .7.1.1.5 0 1.1-.5 1.4-1 2.8-2.1 4-3.4 1.2-1.3 2.5-2.6 3.8-3.9.2-.2.4-.5.6-.8.2-.3.5-.7.7-1 .2-.4.5-.7.7-.9.2-.2.3-.4.5-.5.1-.1.3-.2.6-.3.2-.1.5-.1.7 0 .2.1.4.3.6.7.1.4.2.9.1 1.6-.2.5-.4.9-.5 1.3-.1.4-.3.8-.3 1.2-.1.3-.2.7-.3 1.3-.1.6-.2 1.1-.2 1.7-.1.6-.1 1.1 0 1.6 0 .5.2.8.4.8.5.2 1 .3 1.4.2.4-.1.9-.3 1.3-.6 1.3-.6 2.2-1.1 2.7-1.3.5-.3 1-.5 1.3-.7.4-.2.8-.4 1.3-.6.5-.2 1.4-.5 2.8-1 0 0-.1.1-.1.3-.1 0-.1.1.1 0h.2c-.1.3-.3.6-.7.9-.4.3-.7.5-.9.7 0 0-.1.1-.3.2-.2.2-.3.2-.3.2l-3.6 2.2c-1 .6-1.8 1.1-2.6 1.5-.8.4-1.2.7-1.4.7-.3.1-.6.2-.7.2-.1 0-.4.1-.7.2-.3.1-.7.1-1 .1-.3 0-.6-.1-.8-.2-.5-.2-.8-.5-.9-.9-.2-.4-.3-.9-.3-1.4 0-.5 0-1 .1-1.5s.1-1 .2-1.3v-.6c0-.2.1-.4.2-.6-.2.1-.3.3-.4.4-.1.1-.3.3-.5.4-.1.2-.2.3-.3.3-.1 0-.2.1-.3.1-.1 0-.2.1-.3.2-.1.1-.2.2-.3.4-.1 0-.2 0-.2.1l-.1.1s-.1.1-.1.2c-.5.4-.9.7-1.2.9-.4.2-.8.5-1.2 1-.4.2-.7.5-.9.8-.2.3-.5.6-.8.8-.2.2-.5.4-.8.6 0 .1-.1.2-.2.2-.1.1-.2.1-.2.1-.1.3-.2.5-.5.6-.2.1-.5.3-.7.5-1.6.2-2.6.1-3.2-.4-.6-.5-.9-1.2-.9-2s.2-1.8.6-2.9c0-.7.4-1.7.9-2.6z"/><path d="M144.6 29.5c-.1.1-.1.2-.1.3 0 .1-.1.2-.2.2 0 .1-.1.1-.2.1-.1.2-.2.3-.5.4-.2 0-.4.2-.6.4-.8.2-1.7.6-2.6.9-.9.4-1.8.8-2.6 1.2-.8.4-1.6.9-2.3 1.3-.7.5-1.2.9-1.6 1.4l-1.1 1.1c-.4.4-.7.8-1 1.2-.1.3-.3.7-.4 1.2-.1.5-.3 1-.4 1.5-.1.5-.3.9-.4 1.3-.1.4-.3.6-.4.7-.1.2-.2.4-.5.7-.2.3-.5.4-.6.4-.6.3-1.1.2-1.6-.1-.4-.4-.6-.9-.5-1.5.1-.4.3-1 .6-1.9.3-.8.5-1.5.6-1.9v-.1c0-.1.1-.2.1-.4.3-.6.6-1.2.8-1.8.2-.6.5-1.2.7-1.8 0 0 0-.1.1-.1s.1-.1.1-.1c.2-.8.5-1.6.8-2.4.3-.8.6-1.6.8-2.3 0-.2.1-.3.2-.4.1-.1.2-.2.2-.3.2-.1.4-.2.5-.2.1-.1.3-.1.5-.1.1-.1.2-.1.3-.1h.6c.4 0 .6.2.8.4.5.7.5 1.3-.1 1.9 0 .3-.1.7-.2 1-.1.3-.2.6-.2.9 1.4-1.1 2.9-1.8 4.3-2.2 1.4-.4 2.7-.7 3.9-.7.3 0 .7-.1 1.1-.1.4 0 .8-.2 1.1 0zm20.3 12.2c-.2.1-.3.2-.3.2s0 .1-.1.3c-.2.1-.5.3-.8.5l-1.2.6c-.4.2-.9.3-1.3.4-.4.1-.9.1-1.2-.1-.5 0-.8-.1-1.1-.3-.3-.2-.5-.4-.8-.7 0-.1 0-.3-.1-.4-.1-.1-.2-.3-.2-.5-.1-.2-.1-.5-.2-.7v-1c-.1-.5-.1-.8-.1-1.1v-1c-.2.1-.3.3-.4.5-.1.2-.3.3-.6.4 0 .1 0 .1-.1.2l-.2.1-.1.2-.1.1-.1.1-.1.1c.1-.1.1-.1.2-.1-.1 0-.1.1-.1.1s0 .1-.1.1h-.1l-.1.1-.1.1c-.7.7-1.4 1.3-2.1 2-.7.6-1.4 1.2-2.2 1.8-.1 0-.3.1-.4.1-.1.1-.3.1-.5.1l-.1.1c-.3.1-.6.1-.9.1-.3 0-.6 0-.9-.1h-.1c-.3 0-.5-.1-.8-.3-.2-.2-.4-.4-.4-.6-.1-.1-.1-.2-.1-.3 0-.1 0-.2-.1-.3-.1-.4-.1-.8.1-1.2.2-.4.3-.7.4-1 .1-.4.3-.7.6-1 .3-.3.6-.6.8-.9.5-.4 1-.7 1.6-1.1.6-.3 1.1-.7 1.6-1.2.4-.2.7-.3 1-.5.3-.2.7-.3 1.2-.4h1c.2.1.4.2.4.4.1.2.1.3 0 .5-.5.3-1.1.5-1.6.7-.5.2-1 .4-1.4.7-.5.2-.8.5-1.2.9-.4.4-.7.7-1 1.1 0 .1-.1.1-.2.2-.1.3-.3.6-.5.8 0 .1 0 .1-.1.1v.1c-.2.2-.4.5-.5.7-.1.3-.2.6-.3 1 0 .1.1.1.1.1l.1.1c.1-.1.2-.1.3 0h.4c.1-.1.3-.1.4-.2.1-.1.2-.2.4-.2.3-.2.6-.4.9-.7.3-.2.6-.5.9-.7.8-.7 1.5-1.4 2.2-2.1.7-.7 1.4-1.5 2.1-2.2.1-.1.1-.1 0 0l-.2.2c-.1.1-.2.1-.2.2s-.1 0 0-.1c.2-.2.4-.3.5-.6.2-.2.3-.4.5-.6.2-.2.4-.5.6-.8.2-.3.4-.5.6-.8 0-.1.1-.1.1-.1.1 0 .1 0 .1-.1.1-.1.1-.2.1-.3 0-.1 0-.1.1-.2.1-.3.1-.6.3-.9l.3-.9c.3-.5.5-1.1.7-1.6.2-.6.5-1.1.8-1.6.3-.6.6-1.2.9-1.7l.9-1.5c.3-.3.5-.6.6-.9.1-.3.3-.6.5-.8.2-.1.3-.1.4-.2.1-.1.3-.2.5-.2h.4c.2.1.3.2.3.4.1.2.1.4.1.6v.7c0 .2-.1.4-.2.5.1.1.1.2.1.4s-.1.3-.2.5c.1.2.1.3-.1.4-.1.1-.2.2-.1.3-.1.1-.2.1-.2.2s0 .1-.1.2c.1.2 0 .3-.1.5 0 .1-.1.1-.1.2-.1.1-.1.2-.1.4-.1.1-.2.1-.2.2s0 .2-.1.2c-.1.1-.1.2-.2.3-.1.1-.1.2-.1.3-.1.1-.2.1-.3.3 0 .1-.1.3-.2.4v.2c-.3.4-.5.7-.7 1.1-.2.3-.4.7-.5 1.1-.1.2-.2.5-.3.8-.1.3-.2.5-.2.8-.1.1-.1.3-.2.5 0 .1-.1.2-.1.3 0 .1-.1.2-.1.4 0 .1-.1.1-.1.2s-.1.2-.1.3v.3c-.1.4-.3.7-.4 1-.1.3-.3.6-.4.9l-.3.9c-.1.3-.1.7-.2 1.2v1.1c0 .3.1.7.3 1 .5.1 1 .1 1.5-.1s.9-.3 1.3-.5c.2-.1.5-.2.9-.4s.8-.4 1.3-.6c.5-.2 1-.5 1.6-.7.6-.2 1.1-.5 1.7-.6.1.1.1.2.2.3 0 .1 0 .2-.1.3-.1 0-.1 0-.1.1l-.1.1h.1c-.1.1-.2.1-.3.2-.1.1-.3.1-.4.2-.1.1 0 0 0 .1-.2 0-.4.1-.4.2s-.2.2-.3.2c-.2.1-.4.3-.5.4-.2.1-.3.3-.6.5 0-.1 0-.1-.1 0-.1 0-.1.1 0 .1-.1 0-.2.1-.2.1-.5-.3-.5-.3-.6-.3zm-9.3-2s-.1.1 0 0l-.1.1.1-.1zm12.6-.1h-.1.1z"/><path d="M170.2 42.9c-.2.1-.4.2-.7.3-.3.1-.5.1-.7.2-.3.1-.7.2-1.1.2-.4 0-.8.1-1.2.1-.4 0-.8-.1-1.1-.2-.3-.1-.7-.4-.9-.7-.2-.2-.3-.5-.3-.9 0-.3 0-.7.1-1.1.1-.4.2-.7.3-1.1.1-.4.3-.7.5-1 .1-.1.2-.2.3-.4.1-.2.1-.3.2-.4.6-.7 1.1-1.3 1.7-1.9.6-.6 1.2-1.1 1.9-1.4.3-.2.6-.3.9-.5.3-.2.6-.3.9-.4.1-.1.2-.1.3-.2.1-.1.2-.1.3-.1 1 0 1.6.2 1.9.5.3.3.4.7.4 1 0 .1-.1.2-.3.4l-.4.4-.4.4c-.1.1-.2.2-.2.3-1.1.9-2.1 1.8-3.2 2.5-.3.2-.6.4-1.1.4-.4.1-.9.1-1.3 0-.2.2-.3.4-.5.6-.2.3-.3.5-.4.8-.1.3-.1.6-.1.8 0 .3.1.5.3.7.5.1 1 0 1.4-.2.4-.2.8-.3 1.2-.4l.9-.3c.3-.1.6-.2.8-.3.6-.3 1-.5 1.4-.6.4-.2.7-.3 1-.4.3-.1.7-.3 1-.4.3-.2.8-.4 1.3-.7.4-.2.9-.4 1.3-.7.4-.2.9-.4 1.3-.7l.1-.1h-.1.4c.2 0 .4 0 .5.1.1 0 .1.1.1.2s-.1.2-.2.3c-.1.1-.2.3-.3.4l-.1.1c-.1.1-.2.1-.3.2-.1.1-.3.2-.5.3-.3.2-.7.4-1.1.7-.4.2-.9.5-1.3.7l-1.2.6c-.4.2-.7.3-.8.4l-2.9 1.5zm-2.9-4.1c.2 0 .5-.1.7-.2.2-.1.4-.3.7-.4.5-.4 1.1-.9 1.6-1.4.6-.5 1.1-1 1.5-1.6.1 0 .1 0 .1-.1-1 .3-1.8.9-2.5 1.5-.8.6-1.5 1.4-2.1 2.2zm25.5 2.7c-.3.7-.6 1.3-.9 1.9l-.9 1.8c-.2.5-.4.9-.6 1.4-.2.5-.4.9-.7 1.2-.1.4-.3.8-.6 1.2-.3.4-.5.8-.8 1.2-.1.1-.1.3-.2.4 0 .1-.1.2-.2.3 0 .1-.1.1-.1.1-.1 0-.1 0-.1.1-.1.1-.1.3-.2.4-.1.1-.2.3-.3.4 0 .1 0 .2-.1.3l-.3.3c-.1.8-.4 1.4-.9 1.9s-.8.6-.9.5c-.1 0-.2 0-.2-.1s-.1-.1-.3-.1v.2c-.1-.1-.2-.1-.3 0-.1.1-.3.1-.4.2-.2-.5-.2-1-.1-1.5s.3-1 .6-1.6l.3-.9.3-.6c.1-.2.2-.4.3-.5.4-1 .8-1.9 1.2-2.9.4-1 .9-1.9 1.3-2.9.2-.4.3-.7.5-1.1.2-.4.3-.7.3-1.1 1.2-2.2 2.3-4.5 3.3-6.8s2.1-4.5 3.3-6.8v-.2c.2-.4.5-.9.7-1.3.2-.4.4-.9.6-1.4v-.4c.2-.1.3-.3.5-.4.1-.1.3-.2.6-.3.1.1.2.1.3.1h.3c.5 0 .9.2 1.3.5.3.3.6.6.8 1 .1.5 0 .8-.1.9-.1.1-.3.4-.5.8-.5 1-.9 2.1-1.3 3.2s-.9 2.1-1.6 3c-.1.3-.3.6-.4.8-.1.2-.3.5-.5.7v.3c-.1 0-.1.1-.2.1l-.1.1c-.1.5-.4 1-.7 1.4-.1.3-.2.5-.3.7-.1.2-.2.4-.4.6l-1.3 2.9zM234.3 13c0 .2 0 .3-.1.3s-.2.1-.2.3c0 .2.1.2.2.3.1.1.2.2.2.3-.1.1-.1.1-.2 0-.1 0-.2 0-.2.1v.1h-.2c-.1 0-.1.1 0 .1s0 .1 0 .1c-.2.1-.3.1-.5.1s-.4 0-.5.1h-1c-.2 0-.4 0-.6.1-.5.1-1.1.2-1.6.3-.5.1-1 .3-1.5.3-.2.1-.3.1-.6.2h-.5c-.5.1-1 .3-1.5.4-.5.1-1 .2-1.6.3-1.4.4-2.8.8-4.3 1-1.5.3-2.9.6-4.3 1-1.1.3-2.3.5-3.4.8-1.1.3-2.2.5-3.4.8-2.2.6-4.3 1.2-6.4 2-2 .8-4.1 1.5-6.1 2.2-.2.1-.5.2-.7.3-.2.1-.5.2-.8.3h-.4c-.3.1-.5.2-.8.4l-.9.3c-.3.1-.6.3-.8.4l-.9.3c-.3.1-.5.1-.8-.1-.3-.2-.4-.4-.5-.6-.2-.4-.3-.8-.3-1.3s.1-.9.2-1.2c.8-.4 1.6-.8 2.4-1 .8-.3 1.6-.6 2.4-.8 1.7-.6 3.3-1.2 4.9-1.8 1.6-.6 3.3-1.2 5-1.7.6-.2 1.3-.4 2-.6.7-.2 1.3-.4 2-.5.4-.1.7-.2 1.1-.3l1.2-.3c.2 0 .3-.1.5-.1.2-.1.4-.1.7-.2l1.1-.3c.5-.2.9-.3 1.3-.4.4-.1.9-.2 1.4-.3.1 0 .2-.1.4-.1.1 0 .3-.1.4-.1h.4c.1 0 .2 0 .3-.1.1.1.2.1.3 0 .1-.1.3-.1.4-.2h.6c.1 0 .2-.1.3-.2h.6c.3-.1.6-.1.9-.2.3-.1.7-.1 1-.2h.4c.1 0 .3 0 .4-.1 1-.2 2-.4 3-.5 1-.1 2.1-.3 3.1-.4.2 0 .3-.1.5-.1s.4-.1.6-.1c.4-.1.9-.1 1.3-.1h1.4c.2.1.4.1.6.1h.6c.7 0 1.1.2 1.5.6zm-40.5 27c.3-.4.6-.6 1.1-.8.5-.2.8-.4 1.2-.5l2.1-.9c.7-.3 1.4-.6 2.1-.7.7-.3 1.5-.6 2.2-.9.8-.3 1.5-.6 2.2-.8 0-.1.4-.2 1-.3.7-.2 1.4-.3 2.2-.5.8-.2 1.5-.4 2.2-.5.7-.1 1.1-.2 1.3-.3.8-.2 1.7-.5 2.6-.7.9-.2 1.8-.4 2.7-.5.3-.1.6-.1 1.1-.1h1.1c.1.1.2.1.3.2.1.1.2.1.3.2h.2c.1.1.1.2.1.3v.4c0 .1.1.2.1.3-.2.1-.3.2-.5.3-.1.2-.3.3-.5.4-.1 0-.1.1 0 .1 0 0 .1 0 0 0-1.2.3-2.3.6-3.4.9-1.1.3-2.2.5-3.3.8-1.6.5-3 .9-4.2 1.3-1.3.4-2.6.8-4.1 1.2l-2.1.7c-.3.1-.6.2-.8.3-.2.1-.4.2-.7.3-.2.1-.4.2-.7.3-.3.1-.6.2-.9.2l-.3.3s.1 0 .1-.1h-.3l-2 .5c-.2.1-.4.1-.8.3-.3.1-.6.2-.9.2-.3 0-.6.1-.8 0-.2-.1-.3-.2-.4-.4-.1-.2-.2-.3-.2-.5s.1-.3.3-.3l.4-.7z"/><path d="M234.3 29.5c-.1.1-.1.2-.1.3 0 .1-.1.2-.2.2 0 .1-.1.1-.2.1-.1.2-.2.3-.5.4-.2 0-.4.2-.6.4-.8.2-1.7.6-2.6.9-.9.4-1.8.8-2.6 1.2-.8.4-1.6.9-2.3 1.3-.7.5-1.2.9-1.6 1.4l-1.1 1.1c-.4.4-.7.8-1 1.2-.1.3-.3.7-.4 1.2-.1.5-.3 1-.4 1.5-.1.5-.3.9-.4 1.3-.1.4-.3.6-.4.7-.1.2-.2.4-.5.7-.2.3-.5.4-.6.4-.6.3-1.1.2-1.6-.1-.5-.3-.6-.9-.5-1.5.1-.4.3-1 .6-1.9.3-.8.5-1.5.6-1.9v-.1c0-.1.1-.2.1-.4.3-.6.6-1.2.8-1.8.2-.6.5-1.2.7-1.8 0 0 0-.1.1-.1s.1-.1.1-.1c.2-.8.5-1.6.8-2.4.3-.8.6-1.6.8-2.3 0-.2.1-.3.2-.4.1-.1.2-.2.2-.3.2-.1.4-.2.5-.2.1 0 .3-.1.5-.1.1-.1.2-.1.3-.1h.6c.4 0 .6.2.8.4.5.7.5 1.3-.1 1.9 0 .3-.1.7-.2 1-.1.3-.2.6-.2.9 1.4-1.1 2.9-1.8 4.3-2.2 1.4-.4 2.7-.7 3.9-.7.3 0 .7-.1 1.1-.1.4 0 .8-.2 1.1 0zm15.4 7.2c1.2-.5 1.9-.6 2.1-.4.2.2.1.5-.3.8-.1.1-.3.2-.5.2s-.3.2-.5.6c-.6.5-1.1.9-1.3 1-.2.1-.4.2-.5.2-.7.3-1.3.7-1.8 1.1-.5.5-1.1.9-1.6 1.2-.5.3-1.2.7-1.8.9-.6.2-1.4.2-2.3 0-.1 0-.2 0-.3-.1-.1-.1-.2-.1-.3-.2-.4-.2-.6-.4-.8-.6-.1-.2-.3-.5-.4-.8-.1-.3-.1-.7-.2-1.2 0-.5 0-1 .1-1.5h-.2c0 .1-.1.1-.1.1-.1 0-.2.1-.2.2-.1.1-.2.1-.3.2-.2.2-.4.5-.6.7-.2.2-.4.4-.7.5-.1.2-.2.3-.3.4-.1.1-.3.2-.3.2s-.1 0 0 .1v.1c-.1 0-.2.1-.4.2s-.3.2-.4.3c-1 .7-2 1.2-3 1.7-.3.2-.6.4-.9.5-.3.1-.6.2-.9.2h-.5c-.1 0-.3 0-.5-.1-.3 0-.7-.1-1-.1-.3 0-.6-.2-.8-.4-.5-.3-.6-.8-.4-1.6 0 0 0-.1.1-.1s.1 0 .1-.1c0-.5.2-.9.4-1.3s.5-.8.7-1.1c.3-.6.7-1.1 1.1-1.6.4-.5.8-1 1.2-1.6.3-.3.8-.8 1.5-1.4.7-.7 1.4-1.3 2.2-2 .8-.7 1.5-1.3 2.2-1.8.7-.5 1.1-.8 1.4-.8.5-.2.8-.5 1.1-.8.3-.3.7-.5 1.3-.7h.5c.1 0 .2 0 .3-.1.2.1.5.2.9.2l.6.6c.2.2.3.4.3.7.1.1.1.3.1.5-.1.2-.2.4-.4.4-.1.1-.3.2-.4.2-.2 0-.3 0-.5.1-.4.2-.8.4-1.2.7l-.7.5-.1.1c-.1 0-.3 0-.4.1-.1.1-.3.2-.3.5-.3.1-.7.2-1 .5-.3.2-.7.4-1 .7-.2.2-.4.4-.6.5-.2.1-.4.3-.6.5-.3.3-.7.6-1.1.9-.4.3-.7.7-1.1 1l-.6.6c-.2.2-.4.4-.7.5 0 .2-.1.3-.2.4v.1c-.2.1-.4.3-.6.5-.1.2-.3.4-.5.7-.1.4-.2.7-.5 1-.3.3-.4.6-.4.9.4-.1.7-.3 1-.6 1.4-.8 2.7-1.7 4-2.6 1.3-.9 2.6-1.9 4-2.9.4-.3.7-.6 1.1-.8.4-.2.7-.5 1-1h.2v-.1c0-.1.1-.2.2-.3.1-.1.1-.2.2-.4 0-.1.1-.2.1-.3 0-.1 0-.2.1-.3.1 0 .3-.1.4-.1h1.2c.2.1.4.2.7.3.3.1.4.4.4.9-.1.4-.3.7-.5 1.1-.2.3-.5.7-.7 1.1-.1.4-.2.7-.4 1v.3c-.2.1-.3.3-.4.6 0 .2-.1.4-.1.5 0 .1-.1.3-.2.6l-.4 1.4c0 .5.1.8.3.9.2.1.5.1.8-.1.3-.1.7-.3 1-.5.4-.2.7-.4 1-.5.7-.2 1.4-.6 2.2-1.1.3-.7 1-1.1 1.6-1.5z"/><path d="M252.4 37.2c.3 0 .5-.2.7-.4.2-.2.4-.4.7-.6 1.1-1 2.1-1.9 3.1-2.9s2.1-1.8 3.5-2.6c.5-.3 1-.6 1.6-.9.6-.3 1.2-.5 1.7-.6.4 0 .9.2 1.3.5.5.3.7.7.8 1 0 .5 0 .9-.2 1.4-.1.5-.3 1-.4 1.4 0 .3-.1.9-.3 1.6-.1.7-.3 1.5-.4 2.4-.1.8-.3 1.6-.3 2.4-.1.7-.1 1.3-.1 1.6.4-.2.7-.3 1-.4.3-.1.6-.3 1.1-.5.5-.2.7-.3.8-.4.1 0 .2-.1.2-.1s.1-.1.2-.1c.1-.1.3-.2.8-.5.3-.2.6-.5.9-.7.3-.2.6-.4.9-.5.2-.1.4-.1.7-.1.3-.2.7-.4 1-.6.3-.2.6-.4.8-.6.4.2.6.3.6.5 0 .1 0 .3-.1.5-.3.4-.7.7-1.2 1-.2.3-.5.5-.6.7-.2.2-.4.3-.7.4-.5.4-.7.6-.9.7-.1.1-.2.2-.3.2-.1.1-.2.1-.3.2-.1.1-.5.3-1 .6-.5.2-1 .6-1.5 1s-1.1.7-1.6.8c-.4.1-.8.1-1.1.2-.4 0-.7.1-1 .1-.5.1-.9-.2-1.2-.7-.4-.6-.5-1.1-.5-1.5 0-.2.1-.6.2-1.3.1-.6.3-1.3.4-2 .1-.7.3-1.4.4-2.1.1-.7.2-1.1.3-1.4 0-.6.1-1.1.2-1.5.1-.5.2-.9.3-1.4-.3.1-.6.2-.9.4-.2.2-.5.4-.7.6-.7.6-1.5 1.2-2.2 1.7-.7.6-1.4 1.2-2.1 1.9-.4.4-.9.7-1.4 1.1-.5.4-1 .8-1.4 1.2-1.4 1.5-2.5 2.7-3.4 3.7-.9 1-1.5 1.5-1.9 1.6-.3.1-.7 0-1.1-.2-.4-.2-.7-.5-.8-.9 0-.2 0-.4.1-.7l.3-.9c.4-1.7.9-3.3 1.5-4.7.7-1.4 1.3-2.8 1.9-4.3.1-.2.2-.4.4-.7.2-.2.3-.5.4-.7.1-.3.1-.6.2-.8 0-.3.1-.5.1-.7l.3-.3c.1-.1.2-.3.3-.3.5-.3 1-.4 1.5-.2.6.2.9.5 1 .9.2.5.2.9 0 1.3s-.4.7-.6 1.1c-.1.2-.1.5-.1.7 0 .2 0 .5-.1.7-.2.6-.5 1.2-.8 1.7-.5.6-.7 1.3-1 2z"/><path d="M279.9 39.5c.9-.3 1.5-.6 2-.7.4-.2.8-.3 1-.4.2-.1.4-.2.5-.2.1-.1.2-.1.4-.2s.4-.1.8-.2c.3-.1.9-.3 1.6-.5.3-.2.7-.4 1.1-.6.4-.2.8-.3 1.2-.5 0 0 .1-.1.3-.1h.4c.5-.2.7-.2.8-.1.2.1.2.1.1.2-.1 0-.1.1-.1.2v.2s-.1.1-.3.2c0 .1-.1.2-.2.2s-.3.1-.5.2c-.3 0-.5.1-.6.4-.2.1-.4.2-.6.4-.2.2-.5.4-.8.6-.3.2-.5.4-.8.6-.2.2-.5.3-.6.3-1.7.8-3.4 1.6-5.1 2.2-1.7.6-3.3 1.3-5.1 1.9-.2.1-.5.2-.7.2-.2.1-.5.2-.8.3-.1 0-.3 0-.5.1s-.3.1-.4.1c-.1 0-.1.1-.2 0h-.2c-.5.2-1 .3-1.3.2-.3-.1-.8-.1-1.4 0-.4 0-.7-.1-1-.2-.3-.1-.5-.3-.7-.4-.6-.5-1-1-1.2-1.6-.2-.6 0-1.5.6-2.7.3-.6.6-1.1 1-1.6s.9-1 1.4-1.5c.5-.5.8-.9 1.1-1.1.3-.2.7-.6 1.2-1.1.5-.4.9-.8 1.5-1.3l1.5-1.5c.3-.2.6-.4.7-.6.2-.2.5-.4.9-.7.2-.1.4-.1.5-.2.1 0 .3-.1.5-.2s.4-.2.5-.4c.1-.2.3-.2.6-.2s.9.1 1.7.4c.2.2.3.4.4.7.1.3.1.6.1.9 0 .3-.1.6-.2.9-.1.3-.2.4-.4.5-.4.2-.7.4-.9.4-.2.1-.4.3-.7.6-.1 0-.2 0-.4.1s-.3.2-.4.3h-.5c-.2 0-.3 0-.4.1-.1.1-.2.2-.4.2s-.4.2-.6.4l-1 .8-1.4 1.1c-.3.3-.7.6-1 .9-.3.3-.6.6-.8.9-.3.3-.6.7-.9 1.1-.3.4-.5.9-.6 1.3-.2.6 0 .9.6 1 .7 0 1.5-.1 2.5-.4 1-.3 2.1-.6 3.2-1 1.5-.4 2.4-.7 3-.9z"/><path d="M292.1 42.2c-.3.2-.7.4-1.1.5-.4.1-.8.2-1.1.3-.5.1-1.1.2-1.7.4-.6.1-1.2.2-1.9.2-.6 0-1.2-.1-1.8-.4-.6-.2-1-.6-1.4-1.1-.3-.4-.5-.8-.5-1.4 0-.5 0-1.1.1-1.6.1-.6.3-1.1.5-1.7.2-.6.5-1.1.7-1.5.2-.2.4-.4.5-.6.1-.2.2-.5.2-.6l2.7-3c.9-1 1.9-1.7 2.9-2.2.5-.3.9-.5 1.4-.7.5-.2 1-.4 1.4-.6.2-.1.3-.2.4-.2.1-.1.3-.1.5-.1 1.5 0 2.5.3 2.9.8.4.5.7 1 .7 1.5 0 .2-.2.4-.4.6l-.6.6-.6.6c-.2.2-.3.4-.4.5-1.7 1.4-3.3 2.7-5 3.8-.4.3-1 .6-1.6.7-.7.1-1.4.1-2.1.1-.2.2-.5.6-.7 1l-.6 1.2c-.1.4-.2.9-.2 1.3s.2.8.5 1.1c.8.1 1.6 0 2.2-.2.6-.2 1.2-.5 1.8-.6.5-.1.9-.3 1.4-.4.5-.2.9-.3 1.3-.5.9-.4 1.6-.7 2.1-1 .6-.2 1.1-.5 1.6-.7.5-.2 1-.4 1.6-.7.5-.2 1.2-.6 2-1.1.7-.3 1.3-.7 2-1 .7-.4 1.3-.7 2-1 .1-.1.2-.1.2-.2h-.1s-.1 0-.1.1h.2s.1 0 .2-.1c.1 0 .1-.1.2-.1.4 0 .6 0 .7.1.1.1.2.2.2.3 0 .1-.1.3-.2.5s-.3.4-.5.7c0 0 0 .1-.2.2-.1.1-.3.2-.5.3-.2.1-.4.3-.7.5-.5.3-1 .7-1.7 1.1-.7.4-1.3.7-2 1.1-.7.4-1.3.7-1.9 1-.6.3-1 .5-1.3.6l-4.2 1.6zm-4.4-6.4c.4 0 .7-.1 1.1-.3.4-.2.7-.4 1-.6.8-.7 1.7-1.4 2.5-2.2.9-.8 1.7-1.6 2.4-2.4.1 0 .1-.1.1-.2-1.5.5-2.8 1.3-3.9 2.4-1.1 1.1-2.2 2.1-3.2 3.3z"/></g></g></svg>