<svg width="81" height="86" xmlns="http://www.w3.org/2000/svg"><g fill="none" fill-rule="evenodd"><g stroke-linecap="round" stroke-linejoin="round" stroke="#0069CC" stroke-width="2"><path d="M9.203 31.348L1.083 37h-.045L1 77.334C1 81.606 4.538 85 8.865 85h62.92c4.325 0 8.296-3.168 8.296-7.44V37m-.068.125L71 31"/><path d="M2.459 37.212l38.014 25.92 38.014-26.211M3.384 82.25L29.967 56m47.595 26.25L50.979 56"/></g><path d="M40.04 63.132L9.08 41.505V5.307a4 4 0 0 1 4-4H67a4 4 0 0 1 4 4v36.96L40.04 63.132z" stroke="#0069CC" stroke-width="2" fill="#EFF6FF" stroke-linecap="round" stroke-linejoin="round"/><path d="M40.87 45.53c-3.103 0-5.81-.63-8.12-1.89-2.31-1.26-4.09-3.022-5.337-5.285-1.249-2.263-1.873-4.877-1.873-7.84 0-3.197.665-5.973 1.995-8.33s3.156-4.165 5.477-5.425c2.322-1.26 4.953-1.89 7.893-1.89 3.057 0 5.682.59 7.875 1.767 2.193 1.179 3.856 2.76 4.987 4.743 1.132 1.983 1.698 4.165 1.698 6.545 0 2.147-.327 3.955-.98 5.425-.653 1.47-1.528 2.572-2.625 3.307a6.398 6.398 0 0 1-3.64 1.103c-1.26 0-2.263-.268-3.01-.805-.747-.537-1.19-1.283-1.33-2.24h-.07c-1.33 2.03-3.068 3.045-5.215 3.045-1.68 0-3.004-.566-3.973-1.698-.968-1.131-1.452-2.665-1.452-4.602 0-1.657.315-3.18.945-4.568.63-1.388 1.51-2.49 2.642-3.307 1.132-.817 2.421-1.225 3.868-1.225 1.003 0 1.89.227 2.66.682.77.456 1.295 1.068 1.575 1.838h.07l.385-2.17h3.255l-1.575 8.785c-.093.49-.14.992-.14 1.505 0 .747.157 1.29.472 1.627.316.339.811.508 1.488.508.537 0 1.08-.24 1.627-.718.549-.478 1.01-1.254 1.383-2.327s.56-2.462.56-4.165c0-1.937-.432-3.675-1.295-5.215s-2.158-2.765-3.885-3.675c-1.727-.91-3.827-1.365-6.3-1.365-2.31 0-4.38.507-6.213 1.522-1.831 1.016-3.272 2.491-4.322 4.428-1.05 1.937-1.575 4.235-1.575 6.895 0 2.45.484 4.59 1.452 6.422a10.232 10.232 0 0 0 4.165 4.253c1.809 1.003 3.961 1.505 6.458 1.505 1.843 0 3.424-.24 4.742-.718C46.931 41.5 47.917 40.84 48.57 40h4.235c-.957 1.68-2.467 3.022-4.533 4.025-2.065 1.003-4.532 1.505-7.402 1.505zm-1.575-10.395c1.027 0 1.913-.315 2.66-.945.747-.63 1.312-1.447 1.698-2.45a8.813 8.813 0 0 0 .577-3.185c0-1.167-.274-2.053-.822-2.66-.549-.607-1.301-.91-2.258-.91-.98 0-1.826.315-2.537.945-.712.63-1.255 1.44-1.628 2.433a8.624 8.624 0 0 0-.56 3.062c0 1.143.262 2.047.787 2.713.526.665 1.22.997 2.083.997z" fill="#0069CC"/></g></svg>