<svg xmlns="http://www.w3.org/2000/svg" width="82" height="88"><g fill="none" fill-rule="evenodd"><g stroke="#0069CC" stroke-linecap="round" stroke-linejoin="round" stroke-width="2"><path d="M9.203 33.348L1.083 39h-.045L1 79.334C1 83.606 4.538 87 8.865 87h62.92c4.325 0 8.296-3.168 8.296-7.44V39m-.068.125L71 33"/><path d="M2.459 39.212l38.014 25.92 38.014-26.211M3.384 84.25L29.967 58m47.595 26.25L50.979 58"/></g><path fill="#D9E9FD" d="M69.153 1H11.06c-1.087 0-1.97.896-1.97 2v6h62.031V3c0-1.104-.882-2-1.97-2"/><path stroke="#0069CC" stroke-linecap="round" stroke-linejoin="round" stroke-width="2" d="M69.153 1H11.06c-1.087 0-1.97.896-1.97 2v6h62.031V3c0-1.104-.882-2-1.97-2zM9.091 10v34m62.031-1V10"/><path fill="#0069CC" d="M14.017 4.695c0 .828-.661 1.5-1.477 1.5a1.49 1.49 0 0 1-1.477-1.5c0-.829.662-1.5 1.477-1.5.816 0 1.477.671 1.477 1.5m4.923 0c0 .828-.661 1.5-1.477 1.5a1.49 1.49 0 0 1-1.476-1.5c0-.829.661-1.5 1.476-1.5.816 0 1.477.671 1.477 1.5m4.923 0c0 .828-.661 1.5-1.476 1.5a1.49 1.49 0 0 1-1.477-1.5c0-.829.661-1.5 1.477-1.5.815 0 1.476.671 1.476 1.5"/><path stroke="#0069CC" stroke-linecap="round" stroke-linejoin="round" stroke-width="2" d="M60.291 28H20.907m39.384 8H20.907m22.646-16H20.907"/></g></svg>
