<?xml version="1.0" encoding="UTF-8" standalone="no"?>
<!-- Created with Inkscape (http://www.inkscape.org/) -->

<svg
   xmlns:dc="http://purl.org/dc/elements/1.1/"
   xmlns:cc="http://creativecommons.org/ns#"
   xmlns:rdf="http://www.w3.org/1999/02/22-rdf-syntax-ns#"
   xmlns:svg="http://www.w3.org/2000/svg"
   xmlns="http://www.w3.org/2000/svg"
   xmlns:xlink="http://www.w3.org/1999/xlink"
   xmlns:sodipodi="http://sodipodi.sourceforge.net/DTD/sodipodi-0.dtd"
   xmlns:inkscape="http://www.inkscape.org/namespaces/inkscape"
   width="250"
   height="156"
   viewBox="0 0 66.145832 41.275001"
   version="1.1"
   id="svg3895"
   inkscape:export-filename="C:\Users\clautier\RubymineProjects\tps\app\assets\images\landing\users\artisanat.png"
   inkscape:export-xdpi="96"
   inkscape:export-ydpi="96"
   inkscape:version="0.92.4 (5da689c313, 2019-01-14)"
   sodipodi:docname="artisanat.svg">
  <defs
     id="defs3889">
    <linearGradient
       inkscape:collect="always"
       id="linearGradient4812">
      <stop
         style="stop-color:#23569f;stop-opacity:1;"
         offset="0"
         id="stop4808" />
      <stop
         style="stop-color:#23569f;stop-opacity:0;"
         offset="1"
         id="stop4810" />
    </linearGradient>
    <linearGradient
       inkscape:collect="always"
       xlink:href="#linearGradient4812"
       id="linearGradient4814"
       x1="4.2340223"
       y1="286.62756"
       x2="61.911811"
       y2="286.62756"
       gradientUnits="userSpaceOnUse" />
  </defs>
  <sodipodi:namedview
     id="base"
     pagecolor="#ffffff"
     bordercolor="#666666"
     borderopacity="1.0"
     inkscape:pageopacity="0.0"
     inkscape:pageshadow="2"
     inkscape:zoom="3.959798"
     inkscape:cx="68.146557"
     inkscape:cy="74.856799"
     inkscape:document-units="mm"
     inkscape:current-layer="layer1"
     showgrid="false"
     units="px"
     inkscape:window-width="1920"
     inkscape:window-height="1017"
     inkscape:window-x="-8"
     inkscape:window-y="1072"
     inkscape:window-maximized="1" />
  <metadata
     id="metadata3892">
    <rdf:RDF>
      <cc:Work
         rdf:about="">
        <dc:format>image/svg+xml</dc:format>
        <dc:type
           rdf:resource="http://purl.org/dc/dcmitype/StillImage" />
        <dc:title></dc:title>
      </cc:Work>
    </rdf:RDF>
  </metadata>
  <g
     inkscape:label="Layer 1"
     inkscape:groupmode="layer"
     id="layer1"
     transform="translate(0,-255.72496)">
    <g
       transform="matrix(0.69010455,0,0,0.69010455,16.508214,256.0108)"
       id="g88">
      <g
         id="g86">
        <path
           style="fill:#23569f"
           inkscape:connector-curvature="0"
           d="m 39.4,34.7 c -1.3,-0.3 -1.1,-1 -3.1,-1 -1.9,0 -1.8,1.2 -4,1.2 -2.2,0 -1.9,-1.2 -4.2,-1.2 -1.8,0 -2,1.2 -3.8,1.2 -3.1,0 -2,-1.2 -4.5,-1.2 -1.8,0 -1.9,1.2 -4.1,1.2 -2,0 -2.3,-1.2 -4.1,-1.2 -1.3,0 -1.5,0.7 -3.1,1 0.4,0.5 0.9,1 1.4,1.5 h 27.9 c 0.7,-0.6 1.2,-1 1.6,-1.5"
           id="path12" />
        <path
           style="fill:#23569f"
           inkscape:connector-curvature="0"
           d="m 36.1,37.7 c -2.1,-0.2 -1.8,-1.2 -4.2,-1.2 -2,0 -1.8,1.2 -3.9,1.2 -2.2,0 -1.7,-1.2 -4,-1.2 -1.7,0 -2.4,1.2 -4.2,1.2 -2.7,0 -2.1,-1.2 -4,-1.2 -1.7,0 -1.9,1.1 -3.7,1.2 0.6,0.5 1.3,0.9 2,1.3 h 20.1 c 0.6,-0.4 1.3,-0.8 1.9,-1.3"
           id="path14" />
        <path
           style="fill:#23569f"
           inkscape:connector-curvature="0"
           d="m 19.9,39.5 c -1.3,0 -1.7,0.6 -2.6,1 2.1,0.8 4.5,1.2 6.9,1.2 2.3,0 4.6,-0.4 6.6,-1.1 -0.9,-0.3 -0.9,-1.1 -2.7,-1.1 -1.8,0 -2,1.2 -3.8,1.2 -3.1,0 -2,-1.2 -4.4,-1.2"
           id="path16" />
        <path
           style="fill:#23569f"
           inkscape:connector-curvature="0"
           d="m 43.4,27.2 c -0.7,0.9 -1.8,1.6 -3,1.6 -2.5,0 -2.3,-1.2 -4.3,-1.2 -0.1,0 -0.2,0 -0.3,0 v 0.1 c 0,0.7 -0.1,1.5 -0.4,2.4 h 6.9 c 0.5,-1 0.8,-1.9 1.1,-2.9"
           id="path18" />
        <path
           style="fill:#23569f"
           inkscape:connector-curvature="0"
           d="m 12.3,27.6 c -0.1,0 -0.2,0 -0.3,0 -2.2,0 -1.4,1.2 -4.6,1.2 -0.6,0 -1.8,-0.5 -2.5,-1.1 0.2,0.8 0.5,1.6 0.9,2.4 h 6.9 c -0.3,-0.9 -0.4,-1.7 -0.4,-2.4 v -0.1"
           id="path20" />
        <path
           style="fill:#23569f"
           inkscape:connector-curvature="0"
           d="m 22.5,28.9 c -0.1,0.4 -0.2,0.8 -0.3,1.1 H 26 c -0.1,-0.3 -0.2,-0.7 -0.3,-1.1 h -3.2"
           id="path22" />
        <path
           style="fill:#23569f"
           inkscape:connector-curvature="0"
           d="m 41.9,30.7 c -1.7,0.3 -1.8,1.1 -4.4,1.1 -1.5,0 -2.1,-0.3 -2.6,-0.6 -0.4,0.7 -0.9,1.4 -1.7,1.8 h 7.3 c 0.6,-0.7 1,-1.5 1.4,-2.3"
           id="path24" />
        <path
           style="fill:#23569f"
           inkscape:connector-curvature="0"
           d="m 26.6,31.4 c -0.3,-0.5 -1.2,-0.8 -2.6,-0.8 -1.1,0 -2,0.3 -2.4,0.8 -0.4,0.5 -0.9,1.3 -1.6,1.7 h 8 c -0.5,-0.4 -1.1,-1.2 -1.4,-1.7"
           id="path26" />
        <path
           style="fill:#23569f"
           inkscape:connector-curvature="0"
           d="m 13.3,31.4 c -0.5,0.2 -1,0.4 -1.9,0.4 -2.1,0 -2.1,-1.2 -3.8,-1.2 -0.7,0 -1.1,0.2 -1.5,0.4 0.4,0.7 0.9,1.4 1.3,2 h 7.5 c -0.7,-0.4 -1.2,-1 -1.6,-1.6"
           id="path28" />
        <path
           style="fill:#ffdd14"
           inkscape:connector-curvature="0"
           d="m 4.2,21.5 c 0,0.3 0,0.6 0,1 v 0 c 0,1.4 0.1,2.7 0.4,4 h 7.7 V 21.8 L 4.2,21.5"
           id="path30" />
        <path
           style="fill:#ffdd14"
           inkscape:connector-curvature="0"
           d="M 43.8,20.2 C 43.6,18.6 43.2,17 42.6,15.5 L 35.8,18 v 3 l 8,-0.8"
           id="path32" />
        <polyline
           style="fill:#ffdd14"
           points="32.6,21 32.6,19.3 28.5,20.8 28.5,21 32.6,21   "
           id="polyline34" />
        <path
           style="fill:#ffdd14"
           inkscape:connector-curvature="0"
           d="M 5.6,15.5 C 5,17 4.6,18.6 4.4,20.2 l 8,0.9 v -3 L 5.6,15.5"
           id="path36" />
        <path
           style="fill:#ffdd14"
           inkscape:connector-curvature="0"
           d="m 44,21.5 -8.1,0.3 v 4.7 h 7.7 c 0.3,-1.3 0.4,-2.6 0.4,-4 v 0 c 0,-0.3 0,-0.7 0,-1"
           id="path38" />
        <polyline
           style="fill:#ffdd14"
           points="19.5,21 19.5,20.7 15.6,19.3 15.6,21 19.5,21   "
           id="polyline40" />
        <path
           style="fill:#ffdd14"
           inkscape:connector-curvature="0"
           d="m 35.6,13.9 c 0,0 0.5,0.4 0.5,0.4 0,0 -0.4,0.5 -0.5,0.6 0.1,0.1 0.5,0.6 0.5,0.6 0,0 -0.4,0.4 -0.5,0.5 0.1,0.1 0.3,0.4 0.3,0.4 v 0.7 l 6.2,-2.8 c -0.7,-1.5 -1.6,-2.8 -2.7,-4 l -3.6,2.9 0.2,0.3 c 0,-0.2 -0.4,0.3 -0.4,0.4"
           id="path42" />
        <path
           style="fill:#ffdd14"
           inkscape:connector-curvature="0"
           d="m 32.8,16.6 c -0.1,-0.1 -0.4,-0.5 -0.4,-0.5 0,0 0.4,-0.5 0.5,-0.6 0,0 0,0 0,0 L 28.5,19 v 1.5 l 4.1,-1.9 v -1.7 c 0,0 0.2,-0.3 0.2,-0.3"
           id="path44" />
        <path
           style="fill:#ffdd14"
           inkscape:connector-curvature="0"
           d="m 32.7,14.6 c 0.1,-0.1 0.1,-0.2 0.2,-0.2 0,0 -0.5,-0.5 -0.5,-0.5 0,0 0.4,-0.5 0.5,-0.6 C 32.8,13.1 32,12.1 32,12.1 h 3.1 l 0.1,0.1 c 1.2,-1.1 2.3,-2.1 3.2,-3 C 37.2,8 35.9,7 34.4,6.1 l -6,9.4 v 2.9 c 1.3,-1.1 2.8,-2.4 4.3,-3.8"
           id="path46" />
        <path
           style="fill:#ffdd14"
           inkscape:connector-curvature="0"
           d="m 28.5,9.7 v 4.6 L 33.2,5.5 C 31.7,4.8 30.2,4.2 28.5,3.9 l -1.4,5.8 c 0.2,0 0.5,0.1 0.8,0.1 h 0.6"
           id="path48" />
        <path
           style="fill:#ffdd14"
           inkscape:connector-curvature="0"
           d="m 12.6,16.1 c -0.1,-0.1 -0.5,-0.5 -0.5,-0.5 0,0 0.4,-0.5 0.5,-0.6 -0.1,-0.1 -0.5,-0.6 -0.5,-0.6 0,0 0.4,-0.4 0.5,-0.4 -0.1,-0.1 -0.4,-0.5 -0.4,-0.5 l 0.2,-0.3 -3.6,-2.8 c -1.1,1.2 -2,2.6 -2.7,4 l 6.2,2.8 v -0.7 c 0,-0.1 0.3,-0.4 0.3,-0.4"
           id="path50" />
        <path
           style="fill:#ffdd14"
           inkscape:connector-curvature="0"
           d="m 15.4,15.5 c 0,0 -0.1,0 0,0 0.1,0.1 0.4,0.6 0.4,0.6 0,0 -0.4,0.5 -0.4,0.5 0.1,0.1 0.3,0.3 0.3,0.3 v 1.7 l 3.9,1.8 v -1.6 l -4.2,-3.3"
           id="path52" />
        <path
           style="fill:#ffdd14"
           inkscape:connector-curvature="0"
           d="m 16.2,12.1 c 0,0 -0.7,1 -0.9,1.2 0.1,0.1 0.5,0.6 0.5,0.6 0,0 -0.4,0.4 -0.5,0.5 0,0 0.1,0.1 0.1,0.1 1.4,1.3 2.8,2.6 4.1,3.8 V 15.2 L 13.7,6.1 C 12.3,7 11,8 9.8,9.2 c 0.9,0.9 2.1,1.9 3.2,3 l 0.1,-0.1 h 3.1"
           id="path54" />
        <path
           style="fill:#ffdd14"
           inkscape:connector-curvature="0"
           d="M 20.1,5.3 19.7,3.8 C 18,4.2 16.5,4.7 15,5.4 l 4.5,8.5 V 7.3 c 0,-0.7 0.2,-1.4 0.6,-2"
           id="path56" />
        <path
           style="fill:#924e17"
           inkscape:connector-curvature="0"
           d="m 22,27.3 h -2.8 l -1.6,1.5 c 0.1,0 3.3,0.5 4.4,-1.5"
           id="path58" />
        <path
           style="fill:#924e17"
           inkscape:connector-curvature="0"
           d="M 26.2,27.3 H 29 l 1.6,1.5 c -0.1,0 -3.3,0.5 -4.4,-1.5"
           id="path60" />
        <rect
           style="fill:#924e17"
           x="16.1"
           y="25.799999"
           width="16"
           height="0.69999999"
           id="rect62" />
        <path
           style="fill:#924e17"
           inkscape:connector-curvature="0"
           d="m 27.9,10 c -2.1,0 -3.4,-1.1 -3.4,-2.9 0,-2 2.6,-2.8 2.6,-2.8 V 3.8 c 0,0 -0.8,-0.1 -3.2,-0.1 C 21.2,3.7 20,5.6 20,7.4 V 19 l 8.2,2.2 V 10 h -0.3 m -0.3,10.6 c -0.5,-0.1 -7,-1.9 -7.3,-2 V 7.3 c 0,-1.2 0.7,-3.2 3.4,-3.2 1,0 1.7,0 2.2,0.1 -0.7,0.4 -1.9,1.3 -1.9,2.9 0,2 1.4,3.3 3.7,3.4 v 10.1 z"
           id="path64" />
        <path
           style="fill:#924e17"
           inkscape:connector-curvature="0"
           d="m 19.1,22 h -0.5 l -0.6,0.5 0.1,-0.2 c 0,-0.4 -0.2,-0.4 -0.4,-0.4 h -0.1 c -0.1,0 -0.4,0 -0.4,0.4 l 0.1,0.2 -0.5,-0.5 h -0.4 l 0.7,1.4 -0.7,1.6 h 0.7 l 0.5,-0.8 H 18 l 0.5,0.8 h 0.7 L 18.5,23.4 19.1,22"
           id="path66" />
        <path
           style="fill:#924e17"
           inkscape:connector-curvature="0"
           d="m 22.3,22 h -0.5 l -0.5,0.5 0.1,-0.2 c 0,-0.4 -0.3,-0.4 -0.4,-0.4 h -0.1 c -0.1,0 -0.4,0 -0.4,0.4 L 20.6,22.5 20,22 h -0.5 l 0.7,1.4 -0.7,1.6 h 0.7 l 0.5,-0.8 h 0.4 l 0.5,0.8 h 0.7 L 21.6,23.4 22.3,22"
           id="path68" />
        <path
           style="fill:#924e17"
           inkscape:connector-curvature="0"
           d="M 25.5,22 H 25 l -0.5,0.5 0.1,-0.2 c 0,-0.4 -0.2,-0.4 -0.4,-0.4 H 24 c -0.1,0 -0.4,0 -0.4,0.4 l 0.1,0.2 -0.6,-0.5 h -0.5 l 0.7,1.4 -0.6,1.6 h 0.7 l 0.5,-0.8 h 0.4 l 0.5,0.8 h 0.7 L 24.8,23.4 25.5,22"
           id="path70" />
        <path
           style="fill:#924e17"
           inkscape:connector-curvature="0"
           d="m 28.7,22 h -0.5 l -0.5,0.5 v -0.2 c 0,-0.4 -0.3,-0.4 -0.4,-0.4 h -0.1 c -0.1,0 -0.4,0 -0.4,0.4 l 0.1,0.2 -0.6,-0.5 h -0.5 l 0.7,1.4 -0.6,1.6 h 0.7 l 0.5,-0.8 h 0.4 L 28,25 h 0.7 L 28,23.4 28.7,22"
           id="path72" />
        <path
           style="fill:#924e17"
           inkscape:connector-curvature="0"
           d="m 31.8,22 h -0.5 l -0.5,0.5 v -0.2 c 0,-0.4 -0.3,-0.4 -0.4,-0.4 h -0.1 c -0.1,0 -0.4,0 -0.4,0.4 v 0.2 L 29.5,22 H 29 l 0.7,1.4 -0.6,1.6 h 0.7 l 0.5,-0.8 h 0.4 l 0.5,0.8 h 0.7 L 31.2,23.4 31.8,22"
           id="path74" />
        <path
           style="fill:#924e17"
           inkscape:connector-curvature="0"
           d="M 18.3,29.3 C 16.2,29.3 15,28 15,27.2 V 17.1 L 14.5,16.6 15,16 14.5,15.5 15,14.9 14.5,14.3 15,13.8 14.5,13.2 15,12.6 h -1.7 l -0.5,0.6 0.5,0.6 -0.5,0.4 0.5,0.6 -0.5,0.6 0.5,0.5 -0.5,0.6 v 11.1 c 0,0 0,5.5 4.6,5.5 4.2,0 4.8,-4.5 4.8,-5.5 -0.7,1.1 -1.8,1.7 -3.9,1.7 m -0.8,3.5 c -3.4,0 -3.9,-3.4 -3.9,-5.2 V 17.4 h 1 v 9.8 c 0,1.2 1.5,2.4 3.4,2.5 2.3,0.1 3.2,-0.4 3.8,-0.9 -0.2,0.8 -1.2,4 -4.3,4"
           id="path76" />
        <path
           style="fill:#924e17"
           inkscape:connector-curvature="0"
           d="m 34.8,13.9 0.5,-0.6 -0.5,-0.6 h -1.7 l 0.5,0.6 -0.5,0.6 0.5,0.5 -0.5,0.6 0.5,0.6 -0.5,0.4 0.5,0.6 -0.5,0.5 v 10.2 c 0,0.8 -1.2,2.1 -3.3,2.1 -2.1,0 -3.2,-0.6 -4,-1.6 0,1 0.6,5.5 4.8,5.5 4.6,0 4.6,-5.5 4.6,-5.5 V 16.6 l -0.4,-0.6 0.5,-0.5 -0.5,-0.6 0.5,-0.6 -0.5,-0.4 m -0.3,13.6 c 0,1.9 -0.5,5.2 -3.9,5.2 -3,0 -4,-3.2 -4.2,-4 0.6,0.5 1.5,1 3.8,0.9 1.9,-0.1 3.4,-1.3 3.4,-2.5 v -9.8 h 1 v 10.2 z"
           id="path78" />
        <path
           style="fill:#e11417"
           inkscape:connector-curvature="0"
           d="m 13.6,17.4 v 10.1 c 0,1.9 0.5,5.2 3.9,5.2 3.1,0 4,-3.2 4.2,-4 -0.6,0.5 -1.5,1 -3.8,0.9 -1.9,-0.1 -3.4,-1.3 -3.4,-2.5 v -9.8 h -0.9"
           id="path80" />
        <path
           style="fill:#e11417"
           inkscape:connector-curvature="0"
           d="m 34.5,17.4 v 10.1 c 0,1.9 -0.5,5.2 -3.9,5.2 -3,0 -4,-3.2 -4.2,-4 0.6,0.5 1.5,1 3.8,0.9 1.9,-0.1 3.4,-1.3 3.4,-2.5 v -9.8 h 0.9"
           id="path82" />
        <path
           style="fill:#e11417"
           inkscape:connector-curvature="0"
           d="m 24,7.1 c 0,-1.6 1.2,-2.5 2.1,-2.9 -0.5,0 -1.2,-0.1 -2.2,-0.1 -2.7,0 -3.4,2 -3.4,3.2 v 11.3 c 0.3,0.1 6.7,1.8 7.3,2 V 10.5 C 25.4,10.4 24,9.1 24,7.1"
           id="path84" />
      </g>
    </g>
    <flowRoot
       xml:space="preserve"
       id="flowRoot3979"
       style="font-style:normal;font-weight:normal;font-size:40px;line-height:1.25;font-family:sans-serif;letter-spacing:0px;word-spacing:0px;fill:#000000;fill-opacity:1;stroke:none"
       transform="matrix(0.26458333,0,0,0.26458333,0,255.72496)"><flowRegion
         id="flowRegion3981"><rect
           id="rect3983"
           width="223.49625"
           height="47.477169"
           x="20.455589"
           y="102.46191" /></flowRegion><flowPara
         id="flowPara3985" /></flowRoot>    <text
       xml:space="preserve"
       style="font-style:normal;font-weight:normal;font-size:10.58333302px;line-height:1.25;font-family:sans-serif;letter-spacing:0px;word-spacing:0px;fill:#000000;fill-opacity:1;stroke:none;stroke-width:0.26458332"
       x="13.964833"
       y="287.1778"
       id="text3989"><tspan
         sodipodi:role="line"
         id="tspan3987"
         x="13.964833"
         y="296.83328"
         style="stroke-width:0.26458332" /></text>
    <text
       xml:space="preserve"
       style="font-style:normal;font-variant:normal;font-weight:normal;font-stretch:normal;font-size:5.64444447px;line-height:1.25;font-family:'Arial Rounded MT Bold';-inkscape-font-specification:'Arial Rounded MT Bold, Normal';font-variant-ligatures:normal;font-variant-caps:normal;font-variant-numeric:normal;font-feature-settings:normal;text-align:start;letter-spacing:0px;word-spacing:0px;writing-mode:lr-tb;text-anchor:start;fill:#924e17;fill-opacity:1;stroke:none;stroke-width:0.26458332"
       x="3.93361"
       y="292.59"
       id="text3993"><tspan
         sodipodi:role="line"
         id="tspan3991"
         x="3.93361"
         y="292.59"
         style="font-style:normal;font-variant:normal;font-weight:normal;font-stretch:normal;font-size:5.64444447px;font-family:'Arial Rounded MT Bold';-inkscape-font-specification:'Arial Rounded MT Bold, Normal';font-variant-ligatures:normal;font-variant-caps:normal;font-variant-numeric:normal;font-feature-settings:normal;text-align:start;writing-mode:lr-tb;text-anchor:start;fill:#924e17;fill-opacity:1;stroke-width:0.26458332">Service de l'artisanat</tspan></text>
  </g>
</svg>
