<?xml version="1.0" encoding="utf-8"?>
<!-- Generator: Adobe Illustrator 19.1.1, SVG Export Plug-In . SVG Version: 6.00 Build 0)  -->
<svg version="1.1" id="Calque_1" xmlns="http://www.w3.org/2000/svg" xmlns:xlink="http://www.w3.org/1999/xlink" x="0px" y="0px"
	 viewBox="0 0 83.9 70.1" enable-background="new 0 0 83.9 70.1" xml:space="preserve">
<g>
	<g>
		<path fill="#23569F" d="M56.9,33c-1.3-0.3-1.1-1-3.1-1c-1.9,0-1.8,1.2-4,1.2c-2.2,0-1.9-1.2-4.2-1.2c-1.8,0-2,1.2-3.8,1.2
			c-3.1,0-2-1.2-4.5-1.2c-1.8,0-1.9,1.2-4.1,1.2c-2,0-2.3-1.2-4.1-1.2c-1.3,0-1.5,0.7-3.1,1c0.4,0.5,0.9,1,1.4,1.5h27.9
			C56,34,56.4,33.5,56.9,33"/>
		<path fill="#23569F" d="M53.6,36.1c-2.1-0.2-1.8-1.2-4.2-1.2c-2,0-1.8,1.2-3.9,1.2c-2.2,0-1.7-1.2-4-1.2c-1.7,0-2.4,1.2-4.2,1.2
			c-2.7,0-2.1-1.2-4-1.2c-1.7,0-1.9,1.1-3.7,1.2c0.6,0.5,1.3,0.9,2,1.3h20.1C52.3,37,53,36.5,53.6,36.1"/>
		<path fill="#23569F" d="M37.3,37.8c-1.3,0-1.7,0.6-2.6,1c2.1,0.8,4.5,1.2,6.9,1.2c2.3,0,4.6-0.4,6.6-1.1c-0.9-0.3-0.9-1.1-2.7-1.1
			c-1.8,0-2,1.2-3.8,1.2C38.7,39,39.8,37.8,37.3,37.8"/>
		<path fill="#23569F" d="M60.8,25.5c-0.7,0.9-1.8,1.6-3,1.6c-2.5,0-2.3-1.2-4.3-1.2c-0.1,0-0.2,0-0.3,0V26c0,0.7-0.1,1.5-0.4,2.4
			h6.9C60.2,27.5,60.6,26.5,60.8,25.5"/>
		<path fill="#23569F" d="M29.8,25.9c-0.1,0-0.2,0-0.3,0c-2.2,0-1.4,1.2-4.6,1.2c-0.6,0-1.8-0.5-2.5-1.1c0.2,0.8,0.5,1.6,0.9,2.4
			h6.9c-0.3-0.9-0.4-1.7-0.4-2.4V25.9"/>
		<path fill="#23569F" d="M40,27.3c-0.1,0.4-0.2,0.8-0.3,1.1h3.8c-0.1-0.3-0.2-0.7-0.3-1.1H40"/>
		<path fill="#23569F" d="M59.4,29c-1.7,0.3-1.8,1.1-4.4,1.1c-1.5,0-2.1-0.3-2.6-0.6c-0.4,0.7-0.9,1.4-1.7,1.8H58
			C58.5,30.6,59,29.9,59.4,29"/>
		<path fill="#23569F" d="M44,29.8c-0.3-0.5-1.2-0.8-2.6-0.8c-1.1,0-2,0.3-2.4,0.8c-0.4,0.5-0.9,1.3-1.6,1.7h8
			C45,31,44.3,30.3,44,29.8"/>
		<path fill="#23569F" d="M30.8,29.7c-0.5,0.2-1,0.4-1.9,0.4c-2.1,0-2.1-1.2-3.8-1.2c-0.7,0-1.1,0.2-1.5,0.4
			c0.4,0.7,0.8,1.4,1.2,2.1h7.5C31.7,31,31.2,30.4,30.8,29.7"/>
		<path fill="#FFDD14" d="M21.7,19.9c0,0.3,0,0.6,0,1v0c0,1.4,0.1,2.7,0.4,4h7.7v-4.7L21.7,19.9"/>
		<path fill="#FFDD14" d="M61.3,18.5c-0.2-1.6-0.6-3.2-1.2-4.7l-6.8,2.6v3L61.3,18.5"/>
		<polyline fill="#FFDD14" points="50,19.4 50,17.6 45.9,19.2 45.9,19.4 50,19.4 		"/>
		<path fill="#FFDD14" d="M23.1,13.8c-0.6,1.5-1,3.1-1.2,4.7l8,0.9v-3L23.1,13.8"/>
		<path fill="#FFDD14" d="M61.4,19.9l-8.1,0.3v4.7H61c0.3-1.3,0.4-2.6,0.4-4v0C61.4,20.5,61.4,20.2,61.4,19.9"/>
		<polyline fill="#FFDD14" points="37,19.4 37,19.1 33.1,17.6 33.1,19.4 37,19.4 		"/>
		<path fill="#FFDD14" d="M53,12.2c0,0,0.5,0.4,0.5,0.4s-0.4,0.5-0.5,0.6c0.1,0.1,0.5,0.6,0.5,0.6s-0.4,0.4-0.5,0.5
			c0.1,0.1,0.3,0.4,0.3,0.4v0.7l6.2-2.8c-0.7-1.5-1.6-2.8-2.7-4l-3.6,2.9l0.2,0.3C53.4,11.7,53.1,12.1,53,12.2"/>
		<path fill="#FFDD14" d="M50.3,14.9c-0.1-0.1-0.4-0.5-0.4-0.5s0.4-0.5,0.5-0.6c0,0,0,0,0,0l-4.4,3.5v1.5L50,17v-1.7
			C50,15.2,50.2,15,50.3,14.9"/>
		<path fill="#FFDD14" d="M50.1,13c0.1-0.1,0.1-0.2,0.2-0.2c0,0-0.5-0.5-0.5-0.5s0.4-0.5,0.5-0.6c-0.1-0.2-0.9-1.2-0.9-1.2h3.1
			l0.1,0.1c1.2-1.1,2.3-2.1,3.2-3c-1.2-1.2-2.5-2.2-4-3.1l-6,9.4v2.9C47.2,15.7,48.6,14.3,50.1,13"/>
		<path fill="#FFDD14" d="M45.9,8.1v4.6l4.7-8.8c-1.5-0.7-3-1.3-4.7-1.6L44.6,8c0.2,0,0.5,0.1,0.8,0.1H45.9"/>
		<path fill="#FFDD14" d="M30.1,14.4c-0.1-0.1-0.5-0.5-0.5-0.5s0.4-0.5,0.5-0.6c-0.1-0.1-0.5-0.6-0.5-0.6s0.4-0.4,0.5-0.4
			c-0.1-0.1-0.4-0.5-0.4-0.5l0.2-0.3l-3.6-2.8c-1.1,1.2-2,2.6-2.7,4l6.2,2.8v-0.7C29.8,14.8,30,14.5,30.1,14.4"/>
		<path fill="#FFDD14" d="M32.8,13.8C32.8,13.8,32.8,13.8,32.8,13.8c0.1,0.1,0.4,0.6,0.4,0.6s-0.4,0.5-0.4,0.5
			c0.1,0.1,0.3,0.3,0.3,0.3v1.7l3.9,1.8v-1.6L32.8,13.8"/>
		<path fill="#FFDD14" d="M33.6,10.5c0,0-0.7,1-0.9,1.2c0.1,0.1,0.5,0.6,0.5,0.6s-0.4,0.4-0.5,0.5c0,0,0.1,0.1,0.1,0.1
			c1.4,1.3,2.8,2.6,4.1,3.8v-3.1l-5.8-9.1c-1.5,0.9-2.8,1.9-4,3.1c0.9,0.9,2.1,1.9,3.2,3l0.1-0.1H33.6"/>
		<path fill="#FFDD14" d="M37.5,3.7l-0.4-1.5c-1.7,0.4-3.2,0.9-4.7,1.6l4.5,8.5V5.7C37,5,37.2,4.3,37.5,3.7"/>
		<path fill="#924E17" d="M39.5,25.7h-2.8l-1.6,1.5C35.1,27.2,38.3,27.7,39.5,25.7"/>
		<path fill="#924E17" d="M43.6,25.7h2.8l1.6,1.5C48,27.2,44.8,27.7,43.6,25.7"/>
		<rect x="33.5" y="24.2" fill="#924E17" width="16" height="0.7"/>
		<path fill="#924E17" d="M45.3,8.4c-2.1,0-3.4-1.1-3.4-2.9c0-2,2.6-2.8,2.6-2.8l0-0.5c0,0-0.8-0.1-3.2-0.1c-2.7,0-3.9,1.9-3.9,3.7
			v11.6l8.2,2.2V8.4H45.3 M45.1,18.9c-0.5-0.1-7-1.9-7.3-2V5.7c0-1.2,0.7-3.2,3.4-3.2c1,0,1.7,0,2.2,0.1c-0.9,0.4-2.1,1.4-2.1,2.9
			c0,2,1.4,3.3,3.7,3.4V18.9z"/>
		<path fill="#924E17" d="M36.6,20.3h-0.5l-0.6,0.5l0.1-0.2c0-0.4-0.2-0.4-0.4-0.4h-0.1c-0.1,0-0.4,0-0.4,0.4l0.1,0.2l-0.6-0.5h-0.4
			l0.7,1.4l-0.7,1.6h0.7l0.5-0.8h0.4l0.5,0.8h0.7l-0.7-1.6L36.6,20.3"/>
		<path fill="#924E17" d="M39.7,20.3h-0.5l-0.5,0.5l0.1-0.2c0-0.4-0.3-0.4-0.4-0.4h-0.1c-0.1,0-0.4,0-0.4,0.4l0.1,0.2l-0.5-0.5h-0.5
			l0.7,1.4L37,23.3h0.7l0.5-0.8h0.4l0.5,0.8h0.7L39,21.8L39.7,20.3"/>
		<path fill="#924E17" d="M42.9,20.3h-0.5l-0.5,0.5l0.1-0.2c0-0.4-0.2-0.4-0.4-0.4h-0.1c-0.1,0-0.4,0-0.4,0.4l0.1,0.2l-0.6-0.5h-0.5
			l0.7,1.4l-0.7,1.6h0.7l0.5-0.8h0.4l0.5,0.8h0.7l-0.7-1.6L42.9,20.3"/>
		<path fill="#924E17" d="M46.1,20.3h-0.5l-0.5,0.5l0-0.2c0-0.4-0.3-0.4-0.4-0.4h-0.1c-0.1,0-0.4,0-0.4,0.4l0.1,0.2l-0.5-0.5h-0.5
			l0.7,1.4l-0.7,1.6H44l0.5-0.8h0.4l0.5,0.8h0.7l-0.7-1.6L46.1,20.3"/>
		<path fill="#924E17" d="M49.3,20.3h-0.5l-0.5,0.5l0-0.2c0-0.4-0.3-0.4-0.4-0.4h-0.1c-0.1,0-0.4,0-0.4,0.4l0,0.2l-0.5-0.5h-0.5
			l0.7,1.4l-0.7,1.6h0.7l0.5-0.8h0.4l0.5,0.8h0.7l-0.7-1.6L49.3,20.3"/>
		<path fill="#924E17" d="M35.8,27.7c-2.1,0-3.3-1.3-3.3-2.1V15.4L32,15l0.5-0.6L32,13.9l0.5-0.6L32,12.7l0.5-0.5L32,11.7l0.5-0.6
			h-1.7l-0.5,0.6l0.5,0.6l-0.5,0.4l0.5,0.6l-0.5,0.6l0.5,0.5L30.4,15V26c0,0,0,5.5,4.6,5.5c4.2,0,4.8-4.5,4.8-5.5
			C39,27.1,37.9,27.7,35.8,27.7 M35,31.1c-3.4,0-3.9-3.4-3.9-5.2V15.8h1v9.8c0,1.2,1.5,2.4,3.4,2.5c2.3,0.1,3.2-0.4,3.8-0.9
			C39,28,38,31.1,35,31.1"/>
		<path fill="#924E17" d="M52.3,12.3l0.5-0.6L52.3,11h-1.7l0.5,0.6l-0.5,0.6l0.5,0.5l-0.5,0.6l0.5,0.6l-0.5,0.5L51,15l-0.5,0.5v10.2
			c0,0.8-1.2,2.1-3.3,2.1c-2.1,0-3.2-0.6-4-1.6c0,1,0.6,5.5,4.8,5.5c4.6,0,4.6-5.5,4.6-5.5V15l-0.5-0.6l0.5-0.5l-0.5-0.6l0.5-0.6
			L52.3,12.3 M52,25.9c0,1.9-0.5,5.2-3.9,5.2c-3,0-4-3.2-4.2-4c0.6,0.5,1.5,1,3.8,0.9c1.9-0.1,3.4-1.3,3.4-2.5v-9.8h1V25.9z"/>
		<path fill="#E11417" d="M31.1,15.8v10.1c0,1.9,0.5,5.2,3.9,5.2c3.1,0,4-3.2,4.2-4c-0.6,0.5-1.5,1-3.8,0.9
			c-1.9-0.1-3.4-1.3-3.4-2.5v-9.8H31.1"/>
		<path fill="#E11417" d="M52,15.8v10.1c0,1.9-0.5,5.2-3.9,5.2c-3,0-4-3.2-4.2-4c0.6,0.5,1.5,1,3.8,0.9c1.9-0.1,3.4-1.3,3.4-2.5
			v-9.8H52"/>
		<path fill="#E11417" d="M41.4,5.4c0-1.6,1.2-2.5,2.1-2.9c-0.5,0-1.2-0.1-2.2-0.1c-2.7,0-3.4,2-3.4,3.2V17c0.3,0.1,6.7,1.8,7.3,2
			V8.8C42.8,8.7,41.4,7.5,41.4,5.4"/>
	</g>
</g>
<g>
	<path d="M16.9,68.7h-4.3L5.8,57.1l-0.1,0v11.6H1.5V50.2h4.3l6.8,11.6l0.1,0V50.2h4.3V68.7z"/>
	<path d="M30.6,60.8h-6.5v4.6h7.8v3.3H19.8V50.2h12.1v3.3h-7.8v4h6.5V60.8z"/>
	<path d="M47.2,53.5h-4.9v15.2H38V53.5h-4.8v-3.3h14V53.5z"/>
	<path d="M50.2,68.7h-4.3v-3.6h4.3V68.7z"/>
	<path d="M57.8,62.4v6.3h-4.3V50.2h7.1c2.2,0,3.9,0.6,5.2,1.7s1.9,2.6,1.9,4.4s-0.6,3.3-1.9,4.4s-3,1.7-5.2,1.7H57.8z M57.8,59.1
		h2.8c0.9,0,1.6-0.3,2.1-0.8s0.7-1.2,0.7-2c0-0.8-0.2-1.5-0.7-2s-1.2-0.8-2.1-0.8h-2.8V59.1z"/>
	<path d="M81.1,61.3h-6.8v7.4h-4.3V50.2h12.4v3.3h-8.1V58h6.8V61.3z"/>
</g>
</svg>
