<svg xmlns="http://www.w3.org/2000/svg" width="160" height="90" fill="none"><path fill="#3A3A3A" d="M29.968 24.969h3.845c3.103 0 5.2 2.22 5.2 4.826 0 2.607-2.097 4.827-5.2 4.827h-3.845v-9.653Zm1.986 1.782v6.096h1.884c1.816 0 3.129-1.336 3.129-3.043 0-1.724-1.313-3.044-3.129-3.044h-1.884v-.009ZM40.42 25.311c0-.622.529-1.143 1.16-1.143.63 0 1.142.521 1.142 1.143 0 .623-.52 1.144-1.143 1.144-.622 0-1.16-.521-1.16-1.143Zm.273 2.363h1.773v6.954h-1.773v-6.954ZM44.588 27.674h1.773v.69c.46-.471 1.066-.833 1.859-.833.238 0 .451.042.613.093v1.841a2.944 2.944 0 0 0-.784-.092c-.87 0-1.424.47-1.688.9v4.355h-1.773v-6.954ZM53.497 34.899c-2.506 0-3.913-1.724-3.913-3.75 0-2.052 1.313-3.75 3.623-3.75 1.96 0 3.248 1.294 3.248 3.119 0 .387-.06.757-.11.992h-4.937c.111 1.144.921 1.817 2.123 1.817.767 0 1.398-.328 1.773-.825l1.27.993c-.664.866-1.756 1.404-3.077 1.404Zm-1.986-4.717h3.171c-.026-.69-.546-1.32-1.483-1.32-.87 0-1.45.412-1.688 1.32ZM63.08 32.423l1.415 1.06c-.657.858-1.689 1.404-2.976 1.404-2.43 0-3.887-1.724-3.887-3.75 0-2.027 1.458-3.75 3.887-3.75 1.288 0 2.32.555 2.976 1.404l-1.416 1.06c-.332-.48-.87-.816-1.594-.816-1.16 0-2.012.883-2.012 2.093 0 1.228.853 2.094 2.038 2.094a1.8 1.8 0 0 0 1.568-.799ZM66.335 29.272h-1.313v-1.598h1.313v-1.74h1.79v1.74h2.157v1.598h-2.156v2.817c0 .773.417 1.076 1.116 1.076.486 0 .81-.059 1.049-.151v1.53c-.35.151-.767.219-1.355.219-1.765 0-2.6-.976-2.6-2.674v-2.817ZM71.605 25.311c0-.622.537-1.143 1.159-1.143.63 0 1.142.521 1.142 1.143 0 .623-.52 1.144-1.142 1.144-.622 0-1.16-.521-1.16-1.143Zm.264 2.363h1.773v6.954h-1.773v-6.954ZM82.985 31.149c0 2.085-1.568 3.75-3.861 3.75-2.294 0-3.862-1.665-3.862-3.75 0-2.086 1.568-3.75 3.862-3.75 2.293 0 3.861 1.664 3.861 3.75Zm-1.841 0c0-1.211-.853-2.094-1.986-2.094-1.177 0-2.038.883-2.038 2.094 0 1.21.87 2.093 2.038 2.093 1.133 0 1.986-.89 1.986-2.093ZM84.605 27.675h1.773v.555c.486-.47 1.143-.824 2.08-.824 1.526 0 2.737 1.035 2.737 3.086v4.137h-1.807v-4.078c0-.925-.52-1.505-1.381-1.505-.895 0-1.373.597-1.637 1.034v4.54h-1.773v-6.945h.008ZM29.328 38.89c0-.623.529-1.144 1.16-1.144.63 0 1.142.521 1.142 1.144 0 .622-.52 1.143-1.142 1.143-.631 0-1.16-.521-1.16-1.143Zm.264 2.354h1.774v6.954h-1.774v-6.954ZM33.489 41.246h1.773v.555c.486-.471 1.143-.824 2.08-.824 1.526 0 2.737 1.034 2.737 3.086v4.136h-1.807v-4.07c0-.924-.52-1.504-1.381-1.504-.896 0-1.373.597-1.637 1.034v4.54H33.48v-6.953h.008ZM42.551 42.85h-1.313v-1.598h1.313v-1.74h1.79v1.74h2.157v1.598h-2.157v2.817c0 .773.418 1.076 1.117 1.076.486 0 .81-.059 1.049-.151v1.53c-.35.151-.767.219-1.356.219-1.764 0-2.6-.976-2.6-2.674V42.85ZM51.357 48.477c-2.506 0-3.913-1.724-3.913-3.75 0-2.052 1.313-3.75 3.623-3.75 1.961 0 3.248 1.295 3.248 3.12 0 .386-.06.756-.11.991h-4.936c.11 1.144.92 1.817 2.122 1.817.768 0 1.398-.328 1.774-.825l1.27.993c-.665.866-1.748 1.404-3.078 1.404Zm-1.986-4.717h3.171c-.025-.69-.545-1.32-1.483-1.32-.861-.009-1.45.412-1.688 1.32ZM56.037 41.244h1.773v.69c.46-.471 1.066-.825 1.859-.825.239 0 .443.042.614.093v1.833a2.944 2.944 0 0 0-.785-.093c-.87 0-1.423.471-1.688.9v4.356h-1.773v-6.954ZM61.707 41.246h1.773v.522c.478-.455 1.074-.8 1.944-.8.92 0 1.73.413 2.2 1.212.52-.631 1.201-1.211 2.31-1.211 1.457 0 2.6.992 2.6 2.951v4.272h-1.79v-4.205c0-.84-.46-1.362-1.262-1.362-.759 0-1.185.538-1.466.992.017.093.017.21.017.303v4.272h-1.808v-4.205c0-.84-.443-1.362-1.244-1.362-.81 0-1.228.597-1.492 1.035v4.54h-1.773v-6.954h-.009ZM74.29 38.89c0-.623.529-1.144 1.16-1.144.63 0 1.142.521 1.142 1.144 0 .622-.52 1.143-1.143 1.143-.63 0-1.159-.521-1.159-1.143Zm.264 2.354h1.773v6.954h-1.773v-6.954ZM78.458 41.246h1.773v.555c.486-.471 1.143-.824 2.08-.824 1.526 0 2.737 1.034 2.737 3.086v4.136h-1.799v-4.07c0-.924-.52-1.504-1.381-1.504-.895 0-1.372.597-1.637 1.034v4.54h-1.773v-6.953ZM86.796 38.89c0-.623.528-1.144 1.16-1.144.63 0 1.142.521 1.142 1.144 0 .622-.52 1.143-1.143 1.143-.622 0-1.16-.521-1.16-1.143Zm.273 2.354h1.773v6.954h-1.773v-6.954ZM91.442 46.114c.435.538.955.925 1.62.925.563 0 .87-.303.87-.715 0-1.21-3.282-.706-3.282-3.212 0-1.227 1.048-2.135 2.506-2.135 1.091 0 2.072.513 2.583 1.185l-1.185 1.051c-.367-.454-.827-.799-1.381-.799-.529 0-.81.253-.81.631 0 1.186 3.282.706 3.282 3.17-.025 1.463-1.219 2.262-2.549 2.262-1.261 0-2.157-.496-2.822-1.286l1.168-1.077ZM97.81 42.85h-1.313v-1.598h1.313v-1.74h1.79v1.74h2.157v1.598H99.6v2.817c0 .773.418 1.076 1.117 1.076.486 0 .81-.059 1.049-.151v1.53c-.35.151-.768.219-1.356.219-1.765 0-2.6-.976-2.6-2.674V42.85ZM106.634 48.475c-2.507 0-3.913-1.723-3.913-3.75 0-2.051 1.313-3.75 3.623-3.75 1.961 0 3.248 1.295 3.248 3.12 0 .386-.06.756-.111.992h-4.936c.111 1.143.921 1.816 2.123 1.816.767 0 1.398-.328 1.773-.824l1.27.992c-.656.866-1.747 1.404-3.077 1.404Zm-1.987-4.717h3.172c-.026-.69-.546-1.32-1.484-1.32-.861-.008-1.449.412-1.688 1.32Zm.964-3.615 1.457-2.288h1.927l-1.679 2.288h-1.705ZM111.313 41.244h1.774v.69c.46-.471 1.065-.825 1.858-.825.239 0 .443.042.614.093v1.833a2.943 2.943 0 0 0-.784-.093c-.87 0-1.424.471-1.688.9v4.356h-1.774v-6.954ZM116.728 38.89c0-.623.528-1.144 1.159-1.144s1.142.521 1.142 1.144c0 .622-.52 1.143-1.142 1.143a1.163 1.163 0 0 1-1.159-1.143Zm.264 2.354h1.773v6.954h-1.773v-6.954ZM124.298 48.477c-2.507 0-3.913-1.724-3.913-3.75 0-2.052 1.313-3.75 3.623-3.75 1.961 0 3.248 1.295 3.248 3.12 0 .386-.06.756-.111.991h-4.936c.111 1.144.921 1.817 2.123 1.817.767 0 1.398-.328 1.773-.825l1.27.993c-.656.866-1.747 1.404-3.077 1.404Zm-1.987-4.717h3.172c-.026-.69-.546-1.32-1.484-1.32-.861-.009-1.449.412-1.688 1.32ZM128.978 37.855h1.773v10.343h-1.773V37.855ZM132.882 37.855h1.773v10.343h-1.773V37.855ZM140.196 48.477c-2.506 0-3.913-1.724-3.913-3.75 0-2.052 1.313-3.75 3.623-3.75 1.961 0 3.248 1.295 3.248 3.12 0 .386-.059.756-.11.991h-4.936c.11 1.144.92 1.817 2.122 1.817.768 0 1.398-.328 1.774-.825l1.27.993c-.665.866-1.756 1.404-3.078 1.404Zm-1.986-4.717h3.171c-.025-.69-.545-1.32-1.483-1.32-.87-.009-1.458.412-1.688 1.32ZM32.67 54.55c.913 0 1.62.277 2.183.756V51.43h1.79v10.342h-1.79v-.48c-.563.48-1.27.758-2.183.758-2.225 0-3.58-1.724-3.58-3.75 0-2.027 1.355-3.75 3.58-3.75Zm.248 5.843c.827 0 1.466-.361 1.926-1.034v-2.127c-.477-.69-1.117-1.035-1.926-1.035-1.202 0-1.97.883-1.97 2.094 0 1.21.768 2.102 1.97 2.102ZM43.403 54.824h1.79v3.86c0 2.085-1.227 3.363-3.299 3.363-2.071 0-3.282-1.286-3.282-3.363v-3.86h1.79v3.944c0 1.009.53 1.631 1.51 1.631.963 0 1.491-.622 1.491-1.631v-3.944ZM50.931 54.824h1.774v.555c.486-.471 1.142-.824 2.08-.824 1.526 0 2.736 1.034 2.736 3.086v4.137h-1.807v-4.07c0-.925-.52-1.505-1.381-1.505-.895 0-1.373.597-1.637 1.034v4.54h-1.773v-6.953h.008ZM64.188 54.824h1.79v3.86c0 2.085-1.228 3.363-3.3 3.363-2.071 0-3.281-1.286-3.281-3.363v-3.86h1.79v3.944c0 1.009.528 1.631 1.509 1.631.963 0 1.492-.622 1.492-1.631v-3.944ZM67.947 54.824h1.773v.522c.478-.454 1.075-.8 1.944-.8.92 0 1.73.413 2.2 1.212.52-.63 1.202-1.211 2.31-1.211 1.458 0 2.6.992 2.6 2.951v4.272h-1.79v-4.205c0-.84-.46-1.362-1.262-1.362-.759 0-1.185.538-1.466.993.017.092.017.21.017.302v4.272h-1.807v-4.205c0-.84-.444-1.362-1.245-1.362-.81 0-1.228.597-1.492 1.035v4.54h-1.773v-6.954h-.009ZM84.204 62.05c-2.506 0-3.913-1.725-3.913-3.751 0-2.052 1.313-3.75 3.623-3.75 1.96 0 3.248 1.295 3.248 3.12 0 .386-.06.756-.11.991h-4.937c.111 1.144.921 1.817 2.123 1.817.767 0 1.398-.328 1.773-.824l1.27.992c-.664.866-1.756 1.404-3.077 1.404Zm-1.986-4.718h3.171c-.026-.69-.546-1.32-1.483-1.32-.87 0-1.45.412-1.688 1.32Zm.963-3.607 1.458-2.288h1.926l-1.679 2.288h-1.705ZM88.885 54.826h1.773v.69c.46-.471 1.066-.825 1.858-.825.24 0 .444.042.614.093v1.833a2.939 2.939 0 0 0-.784-.092c-.87 0-1.424.47-1.688.9v4.355h-1.773v-6.954ZM94.29 52.464c0-.622.528-1.144 1.158-1.144.631 0 1.143.522 1.143 1.144 0 .622-.52 1.143-1.142 1.143-.623 0-1.16-.52-1.16-1.143Zm.263 2.363h1.773v6.954h-1.773v-6.954ZM101.536 54.547c.92 0 1.619.277 2.182.774v-.497h1.79v10.343h-1.79v-3.893c-.563.496-1.262.773-2.182.773-2.234 0-3.58-1.723-3.58-3.75 0-2.026 1.337-3.75 3.58-3.75Zm.238 5.844c.827 0 1.467-.362 1.944-1.051v-2.094c-.477-.69-1.117-1.051-1.944-1.051-1.202 0-1.969.883-1.969 2.094 0 1.21.759 2.102 1.969 2.102ZM112.269 54.824h1.79v3.86c0 2.085-1.228 3.363-3.299 3.363-2.072 0-3.282-1.286-3.282-3.363v-3.86h1.79v3.944c0 1.009.528 1.631 1.509 1.631.963 0 1.492-.622 1.492-1.631v-3.944ZM119.438 62.047c-2.506 0-3.913-1.723-3.913-3.75 0-2.052 1.313-3.75 3.624-3.75 1.96 0 3.248 1.295 3.248 3.12 0 .386-.06.756-.111.992h-4.936c.111 1.143.92 1.816 2.122 1.816.768 0 1.399-.328 1.774-.824l1.27.992c-.657.866-1.748 1.404-3.078 1.404Zm-1.986-4.717h3.171c-.025-.69-.545-1.32-1.483-1.32-.861 0-1.449.412-1.688 1.32Z"/><path fill="#3A3A3A" d="M29.968 24.969h3.845c3.103 0 5.2 2.22 5.2 4.826 0 2.607-2.097 4.827-5.2 4.827h-3.845v-9.653Zm1.986 1.782v6.096h1.884c1.816 0 3.129-1.336 3.129-3.043 0-1.724-1.313-3.044-3.129-3.044h-1.884v-.009ZM40.42 25.311c0-.622.529-1.143 1.16-1.143.63 0 1.142.521 1.142 1.143 0 .623-.52 1.144-1.143 1.144-.622 0-1.16-.521-1.16-1.143Zm.273 2.363h1.773v6.954h-1.773v-6.954ZM44.588 27.674h1.773v.69c.46-.471 1.066-.833 1.859-.833.238 0 .451.042.613.093v1.841a2.944 2.944 0 0 0-.784-.092c-.87 0-1.424.47-1.688.9v4.355h-1.773v-6.954ZM53.497 34.899c-2.506 0-3.913-1.724-3.913-3.75 0-2.052 1.313-3.75 3.623-3.75 1.96 0 3.248 1.294 3.248 3.119 0 .387-.06.757-.11.992h-4.937c.111 1.144.921 1.817 2.123 1.817.767 0 1.398-.328 1.773-.825l1.27.993c-.664.866-1.756 1.404-3.077 1.404Zm-1.986-4.717h3.171c-.026-.69-.546-1.32-1.483-1.32-.87 0-1.45.412-1.688 1.32ZM63.08 32.423l1.415 1.06c-.657.858-1.689 1.404-2.976 1.404-2.43 0-3.887-1.724-3.887-3.75 0-2.027 1.458-3.75 3.887-3.75 1.288 0 2.32.555 2.976 1.404l-1.416 1.06c-.332-.48-.87-.816-1.594-.816-1.16 0-2.012.883-2.012 2.093 0 1.228.853 2.094 2.038 2.094a1.8 1.8 0 0 0 1.568-.799ZM66.335 29.272h-1.313v-1.598h1.313v-1.74h1.79v1.74h2.157v1.598h-2.156v2.817c0 .773.417 1.076 1.116 1.076.486 0 .81-.059 1.049-.151v1.53c-.35.151-.767.219-1.355.219-1.765 0-2.6-.976-2.6-2.674v-2.817ZM71.605 25.311c0-.622.537-1.143 1.159-1.143.63 0 1.142.521 1.142 1.143 0 .623-.52 1.144-1.142 1.144-.622 0-1.16-.521-1.16-1.143Zm.264 2.363h1.773v6.954h-1.773v-6.954ZM82.985 31.149c0 2.085-1.568 3.75-3.861 3.75-2.294 0-3.862-1.665-3.862-3.75 0-2.086 1.568-3.75 3.862-3.75 2.293 0 3.861 1.664 3.861 3.75Zm-1.841 0c0-1.211-.853-2.094-1.986-2.094-1.177 0-2.038.883-2.038 2.094 0 1.21.87 2.093 2.038 2.093 1.133 0 1.986-.89 1.986-2.093ZM84.605 27.675h1.773v.555c.486-.47 1.143-.824 2.08-.824 1.526 0 2.737 1.035 2.737 3.086v4.137h-1.807v-4.078c0-.925-.52-1.505-1.381-1.505-.895 0-1.373.597-1.637 1.034v4.54h-1.773v-6.945h.008ZM29.328 38.89c0-.623.529-1.144 1.16-1.144.63 0 1.142.521 1.142 1.144 0 .622-.52 1.143-1.142 1.143-.631 0-1.16-.521-1.16-1.143Zm.264 2.354h1.774v6.954h-1.774v-6.954ZM33.489 41.246h1.773v.555c.486-.471 1.143-.824 2.08-.824 1.526 0 2.737 1.034 2.737 3.086v4.136h-1.807v-4.07c0-.924-.52-1.504-1.381-1.504-.896 0-1.373.597-1.637 1.034v4.54H33.48v-6.953h.008ZM42.551 42.85h-1.313v-1.598h1.313v-1.74h1.79v1.74h2.157v1.598h-2.157v2.817c0 .773.418 1.076 1.117 1.076.486 0 .81-.059 1.049-.151v1.53c-.35.151-.767.219-1.356.219-1.764 0-2.6-.976-2.6-2.674V42.85ZM51.357 48.477c-2.506 0-3.913-1.724-3.913-3.75 0-2.052 1.313-3.75 3.623-3.75 1.961 0 3.248 1.295 3.248 3.12 0 .386-.06.756-.11.991h-4.936c.11 1.144.92 1.817 2.122 1.817.768 0 1.398-.328 1.774-.825l1.27.993c-.665.866-1.748 1.404-3.078 1.404Zm-1.986-4.717h3.171c-.025-.69-.545-1.32-1.483-1.32-.861-.009-1.45.412-1.688 1.32ZM56.037 41.244h1.773v.69c.46-.471 1.066-.825 1.859-.825.239 0 .443.042.614.093v1.833a2.944 2.944 0 0 0-.785-.093c-.87 0-1.423.471-1.688.9v4.356h-1.773v-6.954ZM61.707 41.246h1.773v.522c.478-.455 1.074-.8 1.944-.8.92 0 1.73.413 2.2 1.212.52-.631 1.201-1.211 2.31-1.211 1.457 0 2.6.992 2.6 2.951v4.272h-1.79v-4.205c0-.84-.46-1.362-1.262-1.362-.759 0-1.185.538-1.466.992.017.093.017.21.017.303v4.272h-1.808v-4.205c0-.84-.443-1.362-1.244-1.362-.81 0-1.228.597-1.492 1.035v4.54h-1.773v-6.954h-.009ZM74.29 38.89c0-.623.529-1.144 1.16-1.144.63 0 1.142.521 1.142 1.144 0 .622-.52 1.143-1.143 1.143-.63 0-1.159-.521-1.159-1.143Zm.264 2.354h1.773v6.954h-1.773v-6.954ZM78.458 41.246h1.773v.555c.486-.471 1.143-.824 2.08-.824 1.526 0 2.737 1.034 2.737 3.086v4.136h-1.799v-4.07c0-.924-.52-1.504-1.381-1.504-.895 0-1.372.597-1.637 1.034v4.54h-1.773v-6.953ZM86.796 38.89c0-.623.528-1.144 1.16-1.144.63 0 1.142.521 1.142 1.144 0 .622-.52 1.143-1.143 1.143-.622 0-1.16-.521-1.16-1.143Zm.273 2.354h1.773v6.954h-1.773v-6.954ZM91.442 46.114c.435.538.955.925 1.62.925.563 0 .87-.303.87-.715 0-1.21-3.282-.706-3.282-3.212 0-1.227 1.048-2.135 2.506-2.135 1.091 0 2.072.513 2.583 1.185l-1.185 1.051c-.367-.454-.827-.799-1.381-.799-.529 0-.81.253-.81.631 0 1.186 3.282.706 3.282 3.17-.025 1.463-1.219 2.262-2.549 2.262-1.261 0-2.157-.496-2.822-1.286l1.168-1.077ZM97.81 42.85h-1.313v-1.598h1.313v-1.74h1.79v1.74h2.157v1.598H99.6v2.817c0 .773.418 1.076 1.117 1.076.486 0 .81-.059 1.049-.151v1.53c-.35.151-.768.219-1.356.219-1.765 0-2.6-.976-2.6-2.674V42.85ZM106.634 48.475c-2.507 0-3.913-1.723-3.913-3.75 0-2.051 1.313-3.75 3.623-3.75 1.961 0 3.248 1.295 3.248 3.12 0 .386-.06.756-.111.992h-4.936c.111 1.143.921 1.816 2.123 1.816.767 0 1.398-.328 1.773-.824l1.27.992c-.656.866-1.747 1.404-3.077 1.404Zm-1.987-4.717h3.172c-.026-.69-.546-1.32-1.484-1.32-.861-.008-1.449.412-1.688 1.32Zm.964-3.615 1.457-2.288h1.927l-1.679 2.288h-1.705ZM111.313 41.244h1.774v.69c.46-.471 1.065-.825 1.858-.825.239 0 .443.042.614.093v1.833a2.943 2.943 0 0 0-.784-.093c-.87 0-1.424.471-1.688.9v4.356h-1.774v-6.954ZM116.728 38.89c0-.623.528-1.144 1.159-1.144s1.142.521 1.142 1.144c0 .622-.52 1.143-1.142 1.143a1.163 1.163 0 0 1-1.159-1.143Zm.264 2.354h1.773v6.954h-1.773v-6.954ZM124.298 48.477c-2.507 0-3.913-1.724-3.913-3.75 0-2.052 1.313-3.75 3.623-3.75 1.961 0 3.248 1.295 3.248 3.12 0 .386-.06.756-.111.991h-4.936c.111 1.144.921 1.817 2.123 1.817.767 0 1.398-.328 1.773-.825l1.27.993c-.656.866-1.747 1.404-3.077 1.404Zm-1.987-4.717h3.172c-.026-.69-.546-1.32-1.484-1.32-.861-.009-1.449.412-1.688 1.32ZM128.978 37.855h1.773v10.343h-1.773V37.855ZM132.882 37.855h1.773v10.343h-1.773V37.855ZM140.196 48.477c-2.506 0-3.913-1.724-3.913-3.75 0-2.052 1.313-3.75 3.623-3.75 1.961 0 3.248 1.295 3.248 3.12 0 .386-.059.756-.11.991h-4.936c.11 1.144.92 1.817 2.122 1.817.768 0 1.398-.328 1.774-.825l1.27.993c-.665.866-1.756 1.404-3.078 1.404Zm-1.986-4.717h3.171c-.025-.69-.545-1.32-1.483-1.32-.87-.009-1.458.412-1.688 1.32ZM32.67 54.55c.913 0 1.62.277 2.183.756V51.43h1.79v10.342h-1.79v-.48c-.563.48-1.27.758-2.183.758-2.225 0-3.58-1.724-3.58-3.75 0-2.027 1.355-3.75 3.58-3.75Zm.248 5.843c.827 0 1.466-.361 1.926-1.034v-2.127c-.477-.69-1.117-1.035-1.926-1.035-1.202 0-1.97.883-1.97 2.094 0 1.21.768 2.102 1.97 2.102ZM43.403 54.824h1.79v3.86c0 2.085-1.227 3.363-3.299 3.363-2.071 0-3.282-1.286-3.282-3.363v-3.86h1.79v3.944c0 1.009.53 1.631 1.51 1.631.963 0 1.491-.622 1.491-1.631v-3.944ZM50.931 54.824h1.774v.555c.486-.471 1.142-.824 2.08-.824 1.526 0 2.736 1.034 2.736 3.086v4.137h-1.807v-4.07c0-.925-.52-1.505-1.381-1.505-.895 0-1.373.597-1.637 1.034v4.54h-1.773v-6.953h.008ZM64.188 54.824h1.79v3.86c0 2.085-1.228 3.363-3.3 3.363-2.071 0-3.281-1.286-3.281-3.363v-3.86h1.79v3.944c0 1.009.528 1.631 1.509 1.631.963 0 1.492-.622 1.492-1.631v-3.944ZM67.947 54.824h1.773v.522c.478-.454 1.075-.8 1.944-.8.92 0 1.73.413 2.2 1.212.52-.63 1.202-1.211 2.31-1.211 1.458 0 2.6.992 2.6 2.951v4.272h-1.79v-4.205c0-.84-.46-1.362-1.262-1.362-.759 0-1.185.538-1.466.993.017.092.017.21.017.302v4.272h-1.807v-4.205c0-.84-.444-1.362-1.245-1.362-.81 0-1.228.597-1.492 1.035v4.54h-1.773v-6.954h-.009ZM84.204 62.05c-2.506 0-3.913-1.725-3.913-3.751 0-2.052 1.313-3.75 3.623-3.75 1.96 0 3.248 1.295 3.248 3.12 0 .386-.06.756-.11.991h-4.937c.111 1.144.921 1.817 2.123 1.817.767 0 1.398-.328 1.773-.824l1.27.992c-.664.866-1.756 1.404-3.077 1.404Zm-1.986-4.718h3.171c-.026-.69-.546-1.32-1.483-1.32-.87 0-1.45.412-1.688 1.32Zm.963-3.607 1.458-2.288h1.926l-1.679 2.288h-1.705ZM88.885 54.826h1.773v.69c.46-.471 1.066-.825 1.858-.825.24 0 .444.042.614.093v1.833a2.939 2.939 0 0 0-.784-.092c-.87 0-1.424.47-1.688.9v4.355h-1.773v-6.954ZM94.29 52.464c0-.622.528-1.144 1.158-1.144.631 0 1.143.522 1.143 1.144 0 .622-.52 1.143-1.142 1.143-.623 0-1.16-.52-1.16-1.143Zm.263 2.363h1.773v6.954h-1.773v-6.954ZM101.536 54.547c.92 0 1.619.277 2.182.774v-.497h1.79v10.343h-1.79v-3.893c-.563.496-1.262.773-2.182.773-2.234 0-3.58-1.723-3.58-3.75 0-2.026 1.337-3.75 3.58-3.75Zm.238 5.844c.827 0 1.467-.362 1.944-1.051v-2.094c-.477-.69-1.117-1.051-1.944-1.051-1.202 0-1.969.883-1.969 2.094 0 1.21.759 2.102 1.969 2.102ZM112.269 54.824h1.79v3.86c0 2.085-1.228 3.363-3.299 3.363-2.072 0-3.282-1.286-3.282-3.363v-3.86h1.79v3.944c0 1.009.528 1.631 1.509 1.631.963 0 1.492-.622 1.492-1.631v-3.944ZM119.438 62.047c-2.506 0-3.913-1.723-3.913-3.75 0-2.052 1.313-3.75 3.624-3.75 1.96 0 3.248 1.295 3.248 3.12 0 .386-.06.756-.111.992h-4.936c.111 1.143.92 1.816 2.122 1.816.768 0 1.399-.328 1.774-.824l1.27.992c-.657.866-1.748 1.404-3.078 1.404Zm-1.986-4.717h3.171c-.025-.69-.545-1.32-1.483-1.32-.861 0-1.449.412-1.688 1.32ZM19.849 26.117h-2.583v35.829h2.583V26.117Z"/><path fill="#3A3A3A" d="M19.849 26.117h-2.583v35.829h2.583V26.117Z"/></svg>