<svg xmlns="http://www.w3.org/2000/svg" width="80" height="80" fill="none"><path fill="#fff" d="M0 0h80v80H0z"/><path fill="#000091" d="M14.395 31.879h5.648v1.786h-3.682v2.076h3.128v1.786h-3.128v4.043h-1.966v-9.691ZM21.372 34.592h1.786v.678c.457-.47 1.039-.817 1.828-.817.222 0 .443.042.609.097v1.841a2.886 2.886 0 0 0-.776-.097c-.859 0-1.412.47-1.66.9v4.375h-1.787v-6.977ZM26.41 39.73c0-1.08.803-1.883 2.27-2.147l1.993-.331v-.194c0-.734-.525-1.204-1.3-1.204-.638 0-1.192.305-1.51.844l-1.3-.997c.636-.844 1.633-1.385 2.88-1.385 1.992 0 3.003 1.22 3.003 2.742v4.513h-1.773v-.65c-.443.553-1.232.927-2.008.927-1.342 0-2.256-.804-2.256-2.118h.001Zm2.575.637c.776 0 1.33-.402 1.69-.956v-.844l-1.565.264c-.705.125-.982.401-.982.817 0 .443.332.72.858.72v-.001ZM34.262 34.593h1.786v.526a2.822 2.822 0 0 1 2.02-.803c1.537 0 2.728 1.04 2.728 3.102v4.153h-1.773v-4.084c0-.928-.512-1.523-1.384-1.523-.872 0-1.343.609-1.593 1.039v4.568H34.26v-6.978h.002ZM47.51 39.37l1.412 1.08c-.65.859-1.69 1.398-2.976 1.398-2.382 0-3.821-1.731-3.821-3.766s1.44-3.766 3.82-3.766c1.288 0 2.327.54 2.977 1.398l-1.412 1.08c-.332-.485-.844-.83-1.551-.83-1.163 0-2.021.9-2.021 2.118s.858 2.118 2.02 2.118c.68 0 1.22-.347 1.552-.83ZM53.67 41.848c-2.478 0-3.862-1.731-3.862-3.766s1.287-3.766 3.655-3.766c1.87 0 3.115 1.316 3.115 3.129 0 .387-.041.775-.11.997h-4.831c.11 1.15.9 1.828 2.076 1.828.776 0 1.398-.319 1.758-.83l1.246 1.01c-.664.872-1.731 1.398-3.045 1.398h-.002Zm-1.938-4.832h3.102c-.042-.637-.554-1.219-1.523-1.219-.498 0-.885.152-1.177.457-.18.194-.318.416-.402.762Z"/><path fill="#E1000F" d="M24.506 53.57c-2.478 0-3.862-1.73-3.862-3.765s1.287-3.766 3.655-3.766c1.87 0 3.115 1.316 3.115 3.129 0 .387-.041.775-.11.997h-4.831c.11 1.149.9 1.828 2.076 1.828.776 0 1.398-.319 1.758-.831l1.246 1.01c-.664.873-1.731 1.398-3.046 1.398Zm-1.938-4.831h3.102c-.042-.637-.554-1.219-1.523-1.219-.498 0-.885.152-1.177.457-.18.194-.318.415-.402.762ZM28.795 46.314h1.786v.679c.457-.47 1.039-.817 1.827-.817.222 0 .444.041.61.096v1.842a2.886 2.886 0 0 0-.776-.097c-.859 0-1.413.47-1.661.9v4.375h-1.786v-6.978ZM35.388 46.316l1.813 4.97 1.8-4.97h1.882l-2.533 6.978h-2.312l-2.533-6.978h1.883ZM41.576 44.046c0-.609.526-1.136 1.15-1.136.623 0 1.148.526 1.148 1.136 0 .61-.525 1.149-1.149 1.149-.623 0-1.149-.512-1.149-1.15Zm.264 2.27h1.786v6.977H41.84v-6.977ZM50.477 51.092l1.413 1.08c-.65.86-1.69 1.398-2.977 1.398-2.382 0-3.821-1.73-3.821-3.765s1.44-3.766 3.82-3.766c1.288 0 2.327.54 2.977 1.398l-1.412 1.08c-.332-.485-.844-.83-1.55-.83-1.163 0-2.022.9-2.022 2.118 0 1.217.859 2.118 2.021 2.118.679 0 1.22-.347 1.551-.83ZM56.639 53.57c-2.478 0-3.862-1.73-3.862-3.765s1.287-3.766 3.655-3.766c1.87 0 3.115 1.316 3.115 3.129 0 .387-.041.775-.11.997h-4.831c.11 1.149.9 1.828 2.076 1.828.775 0 1.398-.319 1.758-.831l1.246 1.01c-.664.873-1.731 1.398-3.046 1.398h-.001Zm-1.938-4.831h3.102c-.042-.637-.554-1.219-1.523-1.219-.498 0-.886.152-1.177.457-.18.194-.319.415-.402.762ZM61.789 51.162c.428.54.955.927 1.564.927.54 0 .859-.276.859-.692 0-1.066-3.212-.72-3.212-3.212 0-1.245 1.039-2.146 2.492-2.146 1.079 0 2.02.512 2.546 1.19l-1.162 1.108c-.36-.47-.83-.817-1.33-.817-.566 0-.816.277-.816.582 0 1.052 3.212.72 3.212 3.199-.029 1.467-1.205 2.27-2.52 2.27-1.246 0-2.118-.5-2.797-1.275l1.163-1.135v.001ZM15.123 51.162c.429.54.956.927 1.564.927.54 0 .86-.276.86-.692 0-1.066-3.213-.72-3.213-3.212 0-1.245 1.039-2.146 2.492-2.146 1.079 0 2.021.512 2.546 1.19l-1.162 1.108c-.36-.47-.83-.817-1.33-.817-.566 0-.816.277-.816.582 0 1.052 3.212.72 3.212 3.199-.029 1.467-1.204 2.27-2.52 2.27-1.246 0-2.118-.5-2.797-1.275l1.163-1.135.001.001Z"/><path fill="#273375" d="m31.056 24.82.015-.008a.587.587 0 0 0 .14-.093c-.005 0-.012-.003-.016-.004a1.957 1.957 0 0 0-.137.105h-.002ZM37.982 22.508l-.048.035c.026-.001.048-.008.048-.035Z"/><path fill="#000091" d="M35.795 24.925c.203-.203.407-.42.611-.64h-.004c.38-.43.752-.838 1.192-1.216.135-.12.265-.226.389-.31.036-.037.036-.108.071-.143-.179.072-.286.214-.465.287-.036 0-.071-.037-.036-.072l.381-.286h-.024c-.036 0-.036-.036-.036-.071-.465-.071-.821.25-1.144.536-.071.036-.142-.036-.178-.036-.537.179-.93.642-1.465.857v-.071c-.214.071-.422.202-.643.25-.32.071-.607.036-.893.036-.433.043-.866.139-1.299.231l-.037.01a3.02 3.02 0 0 0-.666.267l-.024.015a.628.628 0 0 1-.052.062c-.077.084-.143.161-.245.213-.219.112-.399.307-.592.464a.105.105 0 0 1-.058.019c-.192.184-.38.37-.575.551-.014.013-.069.02-.11.013 0 0 .003 0 .003-.002l.02-.034.092-.15a5.15 5.15 0 0 1 .258-.383c.014-.02.01-.035 0-.047a.067.067 0 0 0-.05-.02c.18-.173.39-.32.6-.447v-.005c-.024.008-.058-.01-.04-.036.022-.033.04-.066.061-.097l.012-.032c-.01-.01-.017-.02-.027-.029-.057.038-.12.073-.168.117-.086.077-.151.236-.282.233a.198.198 0 0 1-.053-.008.124.124 0 0 1-.038-.012l.004-.008.005-.01.006-.01c.005-.01.01-.02.017-.03a.36.36 0 0 1 .018-.031l.013-.024.025-.046.02-.032c.014-.027.03-.053.045-.08l.021-.037.038-.065c.018-.03 0-.053-.027-.063a.833.833 0 0 1 .245-.213h-.01c.136-.069.273-.154.409-.23.02-.018.039-.035.06-.051a2.41 2.41 0 0 0-.57.28s-.046.02-.06.033c0 0-.041.015-.088-.032a.04.04 0 0 1-.009-.027c.037-.072.143-.108.214-.18.036 0 .071 0 .071.037 1.144-.893 2.715-.678 4.037-1.143l.322-.214c.178-.071.32-.25.536-.358.286-.213.5-.465.607-.82 0-.037-.036-.072-.036-.072-.465.5-1 .892-1.572 1.179-.75.392-1.571.32-2.358.428.037-.07.108-.07.18-.07 0-.108.07-.143.142-.216h.107c.036 0 .036-.071.071-.071.072 0 .18-.037.143-.037-.108-.142-.321.108-.5 0 .071-.07.036-.178.107-.213h.143c0-.071.071-.143.071-.143.536-.32 1.036-.57 1.536-.857-.107 0-.179.107-.286.036.071 0 0-.107.071-.107.393-.108.715-.321 1.108-.465-.143 0-.25.107-.393 0 .071-.037.108-.108.214-.108v-.107c0-.037.036-.037.071-.037-.036 0-.071-.036-.071-.036.036-.071.142-.036.213-.107-.036 0-.107 0-.107-.037.107-.142.286-.178.465-.213-.036-.072-.142 0-.142-.072 0-.036.036-.036.07-.036h-.07c-.072-.036-.037-.107-.037-.142.214-.25.214-.571.321-.858-.036 0-.07 0-.07-.036-.358.393-.93.536-1.466.679h-.178a.725.725 0 0 1-.608-.037c-.142-.07-.214-.178-.357-.286a4.13 4.13 0 0 0-.893-.428 7.993 7.993 0 0 0-2.75-.393c.392-.214.826-.232 1.25-.357.607-.18 1.178-.393 1.822-.358-.108-.036-.25 0-.358 0-.5-.036-1 .108-1.536.214-.358.071-.679.213-1.036.286-.214.071-.321.286-.571.25v-.107c.357-.43.786-.858 1.357-.893.642-.107 1.25 0 1.893.071.466.037.893.143 1.358.25.179 0 .214.287.357.322.214.07.43 0 .643.142 0-.071-.037-.142 0-.214.142-.142.32.037.465-.036.286-.179-.25-.5-.393-.75 0-.036.037-.071.037-.071.286.25.5.536.857.715.179.071.607.179.536-.037-.178-.392-.536-.714-.82-1.07v-.143c-.072 0-.072-.036-.108-.071v-.143c-.143-.07-.108-.215-.18-.32-.107-.18-.035-.43-.107-.643a3.644 3.644 0 0 1-.142-.608c-.108-.607-.25-1.143-.321-1.714-.072-.68.392-1.215.715-1.823.25-.429.536-.857 1-1.143.107-.43.392-.787.678-1.144.285-.348.76-.56 1.102-.715.499-.223.949-.363.949-.363H14.394v18.905h17.271c.68-.49 1.359-.722 2.309-1.19.447-.22 1.474-.692 1.82-1.038v-.002Zm-5.493-2.559c-.07 0-.213.037-.178-.036.036-.179.286-.179.428-.25.072-.036.179-.107.25-.071.072.107.179.071.25.142-.213.214-.5.108-.75.214v.001Zm-5.465-.786s-.037-.036-.037-.071c.465-.608.822-1.179 1.144-1.822.465-.25.85-.614 1.215-1 .607-.643 1.25-1.215 2-1.573.286-.107.642-.07.928.037-.107.142-.286.107-.428.213-.037 0-.072 0-.108-.036.036-.036.036-.071.036-.107-.357.392-.857.57-1.143 1.036-.214.357-.358.82-.821.928-.143.037.036-.107-.037-.07-1.107.678-1.893 1.499-2.75 2.464v.001Zm2.964-2.357c-.036.071-.075.08-.107.142a.278.278 0 0 1-.143.143c-.036 0-.07 0-.07-.036.035-.143.142-.287.285-.322.037 0 .037.037.037.072l-.002.001Zm1.659 5.351a.333.333 0 0 1-.088.105c.045.01.077.029.047.055-.083.077-.162.152-.27.19a.387.387 0 0 1-.055.008c-.044.042-.087.085-.133.125-.043.038-.24.01-.179-.043.09-.08.175-.168.264-.249.05-.045.103-.09.149-.142.024-.028.046-.057.077-.08.03-.02.217-.037.19.033l-.002-.002Zm-.64-.295-.01.006c-.134.095-.267.191-.408.272-.153.089-.313.156-.472.231 0-.003-.002-.005-.004-.01-.012-.015-.037-.026-.06-.014-.136.073-.25.17-.36.274l-.05.048-.003.003-.002.003-.052.05-.005.006s0 .003-.003.003a1.62 1.62 0 0 0-.077.083c-.018.022-.025.034-.049.05-.021.015-.083.015-.078-.027v-.007l-.063.033-.056.03a.076.076 0 0 0-.025-.003.044.044 0 0 0-.025.008 1.976 1.976 0 0 0-.336.329l-.003.003-.006.009c-.005.004-.007.01-.011.013l-.011.015c0 .002-.003.003-.004.004a.683.683 0 0 1-.024.035s0 .002-.002.003c-.005.007-.016.012-.03.013l-.014-.021-.01-.018-.03-.058v-.002l-.008-.018a2.025 2.025 0 0 0 .118-.137l.038-.045.06-.077.021-.028a4.8 4.8 0 0 0 .112-.15l.003-.005.014-.023a1.228 1.228 0 0 0 .09-.153c0-.003.003-.005.005-.008l.005-.013a.89.89 0 0 0 .034-.084l.002-.01.008-.022.011-.039c0-.003 0-.005.003-.008.004-.017.01-.035.012-.052a.036.036 0 0 0-.004-.025c.039-.067.087-.131.14-.192a.093.093 0 0 0-.015.01c-.051.032-.085.079-.133.114-.04.03-.11-.019-.065-.054.031-.023.055-.048.08-.074l.005-.005c.06-.058.116-.133.181-.182.042-.03.077-.055.11-.083l.017-.015a.85.85 0 0 1 .079-.09l.004-.004c.341-.33.918-.316 1.368-.525.179-.071.392.036.571 0 .108 0 .214 0 .322.071-.322.175-.617.372-.91.556l.005.006Zm.731-2.485c-.036-.036.108 0 .143-.071h-.287c-.036 0-.036-.037-.036-.072-.179.037-.392.108-.571.143-.25.071-.465.25-.75.321-.393.143-.715.465-1.144.608-.036 0-.036-.037-.036-.072.036-.107.179-.142.25-.25 0-.036 0-.07-.036-.07.286-.393.678-.608 1.036-.93v-.107c.107-.143.286-.214.357-.393.037-.107.18-.25.358-.32-.037-.037-.108-.037-.108-.108-.142 0-.286.071-.428-.037a.49.49 0 0 1 .224-.126.129.129 0 0 1-.08-.05c-.037-.072.068-.153.178-.18.143-.036.321-.036.429-.142-.25-.036-.536.071-.786-.071.178-.465.465-.858.893-1.071.037 0 .108 0 .108.036a.349.349 0 0 1-.286.357c.286.072.57.072.857.214-.036.071-.107.036-.142.036.178.108.392.037.57.18-.107.107-.213 0-.32 0 1.107.32 2.286.57 3.214 1.285-.786.393-1.607.571-2.465.75-.107 0-.178 0-.286-.036 0 .036 0 .107-.036.107-.143 0-.25 0-.358.072-.142.07-.357.107-.465 0l.003-.003Z"/><path fill="#E1000F" d="M66.04 8.25H45.953s.04.007.194.089c.165.088.379.203.513.273.263.137.518.309.682.57.071.108.178.322.107.466-.071.178-.107.465-.286.536-.214.107-.5.107-.75.071-.142 0-.286-.036-.429-.071.537.214 1.037.465 1.394.965.036.071.179.107.321.107.037 0 .037.072.037.108-.072.071-.143.107-.108.213h.108c.178-.07.142-.428.392-.32.179.107.25.357.142.536-.142.142-.286.25-.428.357a.3.3 0 0 0 0 .25c.107.142.142.286.178.429.108.25.143.536.25.786.143.536.287 1.071.25 1.607 0 .286-.142.536-.036.821.071.287.25.5.392.75.143.214.287.358.393.571.214.358.607.715.429 1.144-.108.25-.5.214-.75.358-.214.178-.037.465.07.642.18.321-.213.536-.464.642.071.108.214.072.25.143.036.178.214.286.107.465-.142.213-.57.32-.357.642.142.25.05.528-.036.786-.108.322-.393.465-.643.537a1.473 1.473 0 0 1-.678.036.496.496 0 0 0-.214-.071c-.607-.072-1.215-.25-1.822-.25-.18.036-.358.07-.5.142a3.147 3.147 0 0 0-.433.383l-.004.004c-.027.028-.052.058-.078.086l-.046.055-.03.037c-.105.13-.198.268-.282.41-.005.01-.01.02-.016.028l-.028.05a3.472 3.472 0 0 0-.27.655c-.243.819-.137 1.52.034 1.69.047.048 1.178.397 1.967.748.37.164.629.292.843.426h19.719V8.25h.002Z"/><path fill="gray" d="M47.163 15.146c.142.036.357.036.357.107-.07.287-.5.358-.715.643h-.107c-.108.071-.071.25-.179.25-.107-.037-.215 0-.321.036.142.143.321.25.536.214.036 0 .108.071.108.142 0 0 .036 0 .071-.036.036 0 .071 0 .071.036v.143c-.107.142-.286.07-.428.107.286.071.57.071.82 0 .216-.071 0-.428.143-.607-.071 0 0-.108-.071-.108.071-.071.142-.178.213-.213.072 0 .18-.037.214-.108 0-.071-.142-.107-.107-.179.213-.142.392-.357.32-.57-.035-.108-.32-.108-.5-.18-.178-.07-.392 0-.607.037-.178 0-.357.107-.536.142-.25.071-.465.214-.678.358.25-.108.5-.143.786-.214.215 0 .396-.052.607 0h.003Z"/><path fill="#090400" d="M32.343 69.7c.15 0 .282.115.212.405l-.703.164c.122-.327.327-.567.49-.567m.389 1.132h-.139c-.175.208-.362.372-.55.372-.189 0-.29-.115-.29-.373 0-.106.011-.212.032-.31l1.131-.372c.22-.523-.044-.751-.355-.751-.535 0-1.143.894-1.143 1.678 0 .35.168.543.428.543.307 0 .625-.298.886-.789m-.224-1.642.796-.743v-.086h-.428l-.49.829h.122Zm-2.442.523h.376l-.597 1.63c-.053.138.02.278.164.278.339 0 .886-.335 1.078-.793h-.106c-.15.16-.441.372-.69.417l.546-1.532h.56l.069-.233h-.543l.208-.589h-.216l-.388.59-.461.065v.168-.001Zm-.507-.078c.044-.15-.058-.237-.134-.237-.327 0-.715.294-.87.707h.106c.106-.15.287-.318.453-.347l-.625 1.627c-.058.15.058.236.135.236.31 0 .673-.298.829-.707h-.106c-.107.15-.287.319-.453.347l.665-1.626Zm.114-.817a.27.27 0 1 0 0-.54.27.27 0 0 0 0 .54Zm-3.597 2.5c-.082.183.004.302.184.302.11 0 .16-.029.204-.147l.433-1.147c.2-.245.613-.507.775-.507.118 0 .102.098.024.244l-.665 1.278a.188.188 0 0 0 .164.279c.327 0 .715-.295.87-.707h-.107c-.106.15-.286.318-.453.347l.572-1.156a.919.919 0 0 0 .11-.397c0-.188-.106-.31-.302-.31-.283 0-.568.318-.908.71v-.302c0-.216-.07-.408-.266-.408-.122 0-.24.106-.35.256v.04c.212-.011.306.307.154.642l-.44.98v.002Zm-.008-1.423c.078-.266.036-.498-.169-.498-.24 0-.302.184-.546.71v-.302c0-.216-.07-.408-.267-.408-.228 0-.436.355-.596.707h.106c.11-.16.212-.253.294-.253.098 0 .15.15 0 .487l-.44.98c-.083.183.003.302.184.302.11 0 .16-.029.204-.147l.433-1.147c.122-.151.232-.283.372-.43h.425Zm-2.508-.196c.15 0 .282.114.212.405l-.703.164c.122-.327.327-.567.49-.567m.39 1.131h-.14c-.175.208-.362.372-.55.372-.188 0-.29-.114-.29-.372 0-.106.012-.212.032-.31l1.131-.373c.22-.522-.044-.75-.355-.75-.534 0-1.143.894-1.143 1.678 0 .35.168.543.428.543.307 0 .625-.299.887-.79m-2.667-1.119h.376l-.596 1.63c-.054.139.02.279.163.279.34 0 .887-.335 1.078-.793h-.106c-.15.16-.44.372-.69.416l.546-1.532h.56l.07-.232h-.544l.209-.589h-.217l-.388.589-.461.066v.168-.002Zm-2.063 1.27c0-.502.559-1.184.873-1.184.07 0 .135.008.193.025l-.327.869c-.188.228-.478.507-.613.507-.078 0-.126-.066-.126-.217Zm1.719-1.678-.172-.012-.192.188h-.04c-.932 0-1.737 1.045-1.737 1.805 0 .212.13.334.335.334.24 0 .478-.342.743-.71l-.012.13c-.033.376.082.58.278.58.228 0 .437-.355.597-.707h-.107c-.11.16-.212.253-.294.253-.086 0-.146-.154 0-.486l.6-1.377v.002Zm-1.985.592c.078-.266.036-.498-.168-.498-.24 0-.302.184-.547.71v-.302c0-.216-.07-.408-.266-.408-.229 0-.437.355-.597.707h.106c.11-.16.213-.253.295-.253.098 0 .15.15 0 .487l-.441.98c-.082.183.004.302.184.302.11 0 .16-.029.204-.147l.433-1.147c.122-.151.232-.283.372-.43h.425Zm-3.129 1.643.04-.127c-.542-.102-.612-.102-.396-.695l.22-.608h.601c.27 0 .274.11.233.404h.154l.36-.984h-.155c-.135.233-.241.405-.535.405h-.593l.315-.861c.098-.275.154-.331.522-.331h.262c.38 0 .425.102.425.487h.15l.127-.67h-2.255l-.04.126c.436.09.478.13.274.695l-.49 1.34c-.205.56-.291.605-.794.695l-.036.126h1.609l.002-.002ZM26.873 64.594c.15 0 .282.114.212.405l-.703.164c.122-.327.327-.567.49-.567m.39 1.131h-.14c-.175.208-.362.372-.55.372-.188 0-.29-.114-.29-.372 0-.106.012-.212.032-.31l1.131-.373c.22-.522-.044-.75-.355-.75-.534 0-1.143.894-1.143 1.678 0 .35.168.543.428.543.307 0 .625-.299.886-.79m-.224-1.641.797-.744v-.086h-.43l-.49.83h.123Zm-2.442.522h.376l-.597 1.63c-.053.139.02.279.164.279.339 0 .887-.335 1.078-.793h-.106c-.15.16-.44.372-.69.416l.546-1.532h.56l.07-.232h-.544l.208-.589h-.216l-.388.589-.461.066v.168-.002Zm-.507-.078c.044-.15-.058-.236-.134-.236-.327 0-.715.294-.87.707h.106c.107-.15.287-.319.453-.347l-.625 1.626c-.057.15.058.237.135.237.31 0 .673-.299.829-.707h-.106c-.106.15-.286.318-.453.346l.665-1.626Zm.114-.817a.27.27 0 1 0 0-.54.27.27 0 0 0 0 .54Zm-2.173 2.442 1.14-2.986-.036-.044-.715.082v.086l.138.106c.126.098.086.192-.028.494l-.891 2.344a.188.188 0 0 0 .164.278c.326 0 .673-.294.829-.707h-.106c-.106.15-.327.319-.495.347Zm-2.165-.278c0-.503.56-1.184.874-1.184.07 0 .134.008.192.024l-.327.87c-.188.228-.478.506-.612.506-.078 0-.127-.066-.127-.216Zm1.72-1.679-.173-.012-.192.189h-.04c-.932 0-1.737 1.045-1.737 1.804 0 .213.13.335.335.335.24 0 .478-.343.743-.711l-.012.13c-.032.377.082.581.278.581.229 0 .437-.355.597-.707h-.106c-.11.16-.213.253-.295.253-.086 0-.146-.155 0-.487l.601-1.376v.001Zm-4.159 2.712c0-.216.208-.35.507-.47.098.048.244.102.44.168.311.102.43.143.43.237 0 .2-.34.35-.802.35-.388 0-.576-.082-.576-.286m.845-1.32c-.134 0-.188-.114-.188-.244 0-.363.196-.9.503-.9.134 0 .188.115.188.245 0 .363-.196.9-.503.9Zm.887 1.12c0-.262-.232-.355-.613-.47-.326-.099-.474-.127-.474-.233 0-.086.07-.188.208-.262.535-.028.882-.51.882-.915a.552.552 0 0 0-.045-.225h.453l.07-.232h-.719a.551.551 0 0 0-.29-.082c-.567 0-.936.498-.936.903 0 .306.197.498.433.543-.266.118-.412.257-.412.42 0 .095.032.16.11.22-.613.181-.854.385-.854.674 0 .29.373.4.814.4.747 0 1.372-.404 1.372-.742M16.3 64.957c.27 0 .274.11.233.405h.154l.36-.984h-.155c-.135.232-.241.404-.535.404h-.593l.298-.82c.098-.275.155-.327.523-.327h.262c.38 0 .425.102.425.482h.15l.127-.67h-2.255l-.04.127c.436.09.478.13.274.695l-.491 1.34c-.204.559-.29.605-.793.695l-.036.126h2.507l.45-.711h-.173c-.286.27-.645.527-1.147.527-.666 0-.605-.028-.385-.637l.237-.65h.6l.003-.002Zm.327-1.71.797-.548v-.086h-.483l-.44.633h.126ZM26.608 59.491c.15 0 .282.114.212.405l-.702.164c.122-.327.326-.568.49-.568m.389 1.132h-.139c-.176.208-.363.372-.55.372-.19 0-.291-.114-.291-.372 0-.106.012-.212.032-.31l1.132-.373c.22-.523-.045-.75-.355-.75-.535 0-1.144.894-1.144 1.678 0 .35.168.543.429.543.306 0 .625-.299.887-.79m-.225-1.642.797-.743v-.086h-.428l-.49.83h.121Zm-2.34.523h.299l-.597 1.63c-.054.139.02.279.164.279.339 0 .887-.335 1.078-.793h-.106c-.15.16-.44.372-.69.416l.546-1.532h.56l.07-.232h-.544l.208-.589h-.216l-.388.589-.385.066v.167h.002Zm-.294.184c.078-.266.037-.498-.168-.498-.24 0-.302.184-.547.71v-.302c0-.216-.07-.408-.266-.408-.228 0-.437.355-.596.707h.106c.11-.16.212-.253.294-.253.098 0 .15.15 0 .486l-.44.98c-.083.184.003.303.183.303.11 0 .16-.029.205-.147l.432-1.148a6.76 6.76 0 0 1 .373-.428h.424v-.002Zm-2.507-.196c.15 0 .282.114.212.405l-.703.164c.122-.327.327-.568.49-.568m.389 1.132h-.138c-.177.208-.363.372-.551.372-.189 0-.29-.114-.29-.372 0-.106.011-.212.032-.31l1.131-.373c.22-.523-.044-.75-.355-.75-.535 0-1.143.894-1.143 1.678 0 .35.168.543.428.543.307 0 .625-.299.887-.79m-2.774.458c-.11 0-.27-.102-.27-.193 0-.028.049-.154.11-.314l.185-.486c.196-.233.494-.483.66-.483.103 0 .181.066.181.216 0 .445-.417 1.258-.866 1.258m1.287-1.438c0-.33-.123-.453-.351-.453-.286 0-.555.303-.825.67l.682-1.793-.036-.044-.715.081v.087l.139.106c.126.098.086.2-.029.494l-.735 1.895c-.054.139-.118.303-.118.347 0 .196.266.38.507.38.555 0 1.482-1.001 1.482-1.768m-2.221-.217c.044-.15-.058-.236-.135-.236-.326 0-.715.294-.87.707h.107c.106-.15.286-.319.453-.347l-.625 1.626c-.058.15.058.237.134.237.31 0 .673-.299.83-.707H18.1c-.106.15-.286.318-.453.346l.666-1.626Zm.114-.817a.27.27 0 1 0 0-.54.27.27 0 0 0 0 .54Zm-1.646-.262h-1.487l-.04.126c.436.09.478.13.274.695l-.482 1.34c-.205.56-.29.605-.793.695l-.037.126h2.263l.49-.873H16.8c-.278.306-.605.69-1.107.69-.38 0-.425-.065-.22-.637l.482-1.34c.2-.559.29-.604.793-.694l.036-.127h-.002Z"/></svg>