<svg height="171" viewBox="0 0 116 171" width="116" xmlns="http://www.w3.org/2000/svg" xmlns:xlink="http://www.w3.org/1999/xlink"><mask id="a" fill="#fff"><path d="m.238.514h84.314v28.295h-84.314z" fill="none"/></mask><mask id="b" fill="#fff"><path d="m.484.514h60.068v28.295h-60.068z" fill="none"/></mask><g fill="none" fill-rule="evenodd"><path d="m1.482 169.518h113.386v-168.134h-113.386z" fill="#fffffe"/><path d="m1.482 169.518h113.386v-168.134h-113.386z" stroke="#1a1919" stroke-width=".965"/><path d="m1.893 85.876h112.587v-17.008h-112.587z" fill="#174489"/><path d="m18.399 52.816c-.168 0-.319.025-.504.067 0 .495-.008 1.394-.008 2.091.092.017.26.025.369.025.689 0 1.151-.428 1.151-1.083 0-.638-.429-1.1-1.008-1.1zm2.158 5.256c-.311 0-.487-.042-.664-.159-.276-.185-.57-.689-.738-.975a24.56 24.56 0 0 0 -.907-1.468c-.051.008-.093.008-.126.008-.084 0-.151-.008-.235-.008v.444c0 .227.008.453.008.681.009.452.017.646.084.822.084.219.235.328.512.353v.235l-.193-.008c-.218-.009-.52 0-.915 0-.386 0-.689-.009-.907 0l-.201.008v-.235c.209-.017.31-.059.411-.168a.798.798 0 0 0 .168-.453c.025-.253.034-.403.034-1.235v-1.41c0-1.025-.034-1.276-.093-1.512-.059-.226-.235-.319-.52-.353v-.235c.168.017.336.009.503.009.437 0 .572 0 1.092-.025.453-.017.714-.026.915-.026.571 0 .916.084 1.201.285.319.228.529.664.529 1.101 0 .688-.454 1.251-1.226 1.536.319.403.571.807.865 1.269.268.427.537.797.747 1.007a.615.615 0 0 0 .353.21v.235c-.218.05-.437.067-.697.067zm4.308-.171c-.062.104-.132.124-.513.124-.236 0-.465-.013-.701-.02-.333-.007-.666-.021-.999-.021s-.666.007-.999.021v-.194c.313-.028.451-.208.479-.514.021-.208.021-.43.021-.79v-1.963c0-.368-.021-.535-.076-.68-.063-.181-.188-.264-.424-.292v-.194h3.247c0 .201-.007.41-.007.61 0 .167-.007.327.007.493h-.25c-.049-.534-.277-.68-1.103-.68-.152 0-.354.007-.52.015-.014.27-.021.36-.021.763v.804c.104.007.187.007.312.007.722 0 .944-.104.985-.478h.25c-.014.11-.014.339-.014.686 0 .354.007.562.014.672h-.25c-.021-.395-.208-.491-.923-.491-.124 0-.249.006-.374.006 0 .437.007.874.007 1.311 0 .292.048.388.215.43.104.028.264.035.479.035.749 0 1.012-.166 1.172-.735l.27.055c-.097.486-.208.889-.284 1.02zm-1.547-4.973-.326-.195.687-1.012.798.145zm4.439 3.017c-.069 0-.104 0-.194-.007l-.152-.354c.652-.042 1.012-.36 1.012-.888 0-.554-.381-.95-.908-.95-.083 0-.153.007-.264.028 0 .43-.014.86-.014 1.29v1.214c0 .908.007 1.061.076 1.242.063.18.188.27.424.291v.194l-.167-.007c-.18-.007-.43-.007-.763-.007-.326 0-.582 0-.756.007l-.166.007v-.194c.312-.028.45-.208.478-.514.021-.208.021-.332.021-1.019v-1.734c0-.368-.021-.535-.076-.68-.063-.181-.187-.264-.423-.292v-.194c.083.008.02.008.319.008.118 0 .284 0 .506-.008.354-.014.707-.034 1.061-.034.985 0 1.575.485 1.575 1.29 0 .756-.673 1.311-1.589 1.311m6.304-2.22c-.076.104-.111.243-.125.521-.013.298-.02.526-.02.957 0 .159.007.638.007 1.117 0 .485-.077.776-.278 1.068-.319.465-.846.7-1.54.7-.437 0-.77-.083-1.082-.291-.485-.313-.672-.722-.672-1.457 0-.749.013-1.074.013-1.318 0-.353.021-.721-.041-1.068-.042-.25-.174-.354-.465-.382v-.194l.159.008c.181.006.438.006.771.006s.589 0 .769-.006l.16-.008v.194c-.215.028-.319.084-.388.202-.063.104-.091.243-.098.547-.014.438-.021.867-.021 1.304 0 1.194.028 1.422.243 1.672.167.195.451.327.784.327.465 0 .916-.236 1.054-.702.091-.297.104-.513.104-1.297v-.686c0-.791-.02-1.034-.097-1.151-.076-.125-.18-.195-.36-.216v-.194c.277.014.374.014.721.014.354 0 .451 0 .728-.014v.194c-.152.021-.249.063-.326.153m2.774 1.95c-.117 0-.242.007-.423.02-.007.188-.007.222-.007.541v.409c0 .389.014.597.063.735.055.174.222.257.513.257.59 0 .923-.326.923-.908 0-.646-.417-1.054-1.069-1.054zm-.021-1.936c-.124 0-.249.014-.374.014-.007.451-.021 1.227-.028 1.519.077.007.173.014.306.014.679 0 1.068-.285 1.068-.784 0-.478-.361-.763-.972-.763zm1.513 3.94c-.327.25-.694.333-1.401.333-.375 0-.757-.028-1.131-.028-.152 0-.437 0-.631.014l-.083.007v-.194c.326-.028.45-.194.478-.514.021-.208.028-.332.028-1.019v-1.311c0-.646-.007-.923-.076-1.103-.07-.181-.195-.264-.43-.292v-.194c.318.014.506.014.95.014.402 0 1.005-.021 1.408-.021.638 0 1.221.306 1.221 1.027 0 .534-.333.894-.992 1.061.735.146 1.123.569 1.123 1.256 0 .416-.152.728-.464.964zm4.382.229c-.062.097-.146.117-.492.117-.174 0-.354-.006-.528-.013-.43-.014-.818-.028-1.29-.028-.354 0-.589.007-.811.021v-.194c.173-.014.264-.049.34-.139.125-.146.159-.326.159-.832 0-.347.007-.625.007-.986v-.742c0-.936-.007-1.061-.076-1.248-.062-.181-.194-.264-.43-.292v-.194l.173.008c.188.006.444.006.791.006.34 0 .603 0 .784-.006l.173-.008v.194c-.354 0-.506.188-.548.521-.014.118-.021.228-.021 1.019v1.158c0 .965.007 1.083.097 1.18.077.076.222.111.521.111.381 0 .589-.041.763-.139.194-.104.34-.312.409-.603l.264.069c-.077.402-.208.902-.285 1.02m2.413.09c-.173-.007-.43-.007-.756-.007-.333 0-.583 0-.763.007l-.167.007v-.194c.326-.028.451-.194.479-.514.021-.208.028-.332.028-1.019v-1.166c0-.18-.007-.367-.007-.568 0-.368-.014-.535-.07-.68-.062-.181-.194-.264-.43-.292v-.194l.167.008c.18.006.43.006.763.006.326 0 .583 0 .756-.006l.167-.008v.194c-.299.021-.452.208-.479.521-.021.201-.021.395-.021 1.019v1.166c0 .908.007 1.061.076 1.242.063.18.188.27.424.291v.194zm3.21-4.231c-.846 0-1.45.708-1.45 1.699 0 1.207.715 2.158 1.623 2.158.853 0 1.457-.722 1.457-1.728 0-1.192-.714-2.129-1.63-2.129zm3.274 5.486c-.541 0-1.117-.166-1.665-.471a7.907 7.907 0 0 1 -1.068-.736 2.896 2.896 0 0 1 -.548.042c-1.401 0-2.331-.916-2.331-2.296 0-1.477 1.006-2.497 2.477-2.497 1.428 0 2.379.916 2.379 2.289 0 .978-.499 1.845-1.29 2.248.25.125.499.263.742.409.707.43 1.193.61 1.651.61.284 0 .52-.062.797-.201l.091.243c-.34.236-.763.36-1.235.36z" fill="#1a1919"/><path d="m55.656 53.725c-.076.104-.111.243-.124.521-.014.298-.021.526-.021.957 0 .159.007.638.007 1.117 0 .485-.077.776-.278 1.068-.319.465-.846.7-1.54.7-.437 0-.77-.083-1.082-.291-.485-.313-.673-.722-.673-1.457 0-.749.014-1.074.014-1.318 0-.353.021-.721-.042-1.068-.041-.25-.173-.354-.464-.382v-.194l.159.008c.181.006.437.006.77.006s.59 0 .77-.006l.16-.008v.194c-.215.028-.319.084-.389.202-.062.104-.09.243-.097.547-.014.438-.02.867-.02 1.304 0 1.194.027 1.422.242 1.672.167.195.451.327.784.327.465 0 .916-.236 1.054-.702.091-.297.104-.513.104-1.297v-.686c0-.791-.02-1.034-.097-1.151-.076-.125-.18-.195-.36-.216v-.194c.277.014.374.014.721.014.354 0 .451 0 .728-.014v.194c-.152.021-.25.063-.326.153m4.231 4.176c-.062.104-.132.124-.513.124-.236 0-.465-.013-.701-.02-.333-.007-.666-.021-.999-.021s-.666.007-.999.021v-.194c.313-.028.451-.208.479-.514.021-.208.021-.43.021-.79v-1.963c0-.368-.021-.535-.076-.68-.063-.181-.188-.264-.424-.292v-.194h3.247c0 .201-.007.41-.007.61 0 .167-.007.327.007.493h-.25c-.048-.534-.277-.68-1.103-.68-.153 0-.354.007-.52.015-.014.27-.021.36-.021.763v.804c.104.007.187.007.312.007.721 0 .943-.104.985-.478h.25c-.014.11-.014.339-.014.686 0 .354.007.562.014.672h-.25c-.021-.395-.208-.491-.922-.491-.125 0-.25.006-.375.006 0 .437.007.874.007 1.311 0 .292.048.388.215.43.104.028.264.035.478.035.75 0 1.013-.166 1.173-.735l.27.055c-.097.486-.208.889-.284 1.02m6.418-4.145c-.009-.605-.361-.84-1.311-.84-.192 0-.377.009-.587.026-.017.579-.017.982-.017 1.898.202.008.302.016.445.016.781 0 1.016-.134 1.059-.588h.301c0 .236-.016.479-.016.714 0 .31.016.63.016.94h-.301c-.06-.503-.253-.604-1.134-.604-.152 0-.21 0-.37.008v.941c0 .184 0 .386.008.604.017.462.051.865.596.899v.235l-.201-.008c-.21-.009-.521-.009-.915-.009-.403 0-.705 0-.923.009l-.202.008v-.235c.378-.034.546-.252.579-.621.025-.253.025-.403.025-1.235v-2.099c0-.445-.025-.646-.092-.823-.076-.218-.226-.319-.512-.353v-.235h3.862c-.016.16-.016.429-.016.782 0 .335 0 .385.016.57zm2.86-.038c-.139 0-.264.021-.416.056 0 .409-.007 1.151-.007 1.726.076.015.215.021.305.021.569 0 .95-.353.95-.894 0-.527-.353-.909-.832-.909zm1.783 4.343c-.257 0-.403-.036-.549-.132-.228-.153-.471-.569-.61-.805a19.78 19.78 0 0 0 -.749-1.214c-.042.007-.076.007-.104.007-.069 0-.125-.007-.194-.007v.368c0 .187.007.375.007.562.007.374.014.534.069.68.07.18.194.27.423.291v.194l-.159-.007c-.181-.007-.43 0-.756 0-.319 0-.569-.007-.749 0l-.167.007v-.194c.173-.014.257-.049.34-.139a.658.658 0 0 0 .139-.375c.021-.208.027-.332.027-1.019v-1.166c0-.845-.027-1.054-.076-1.248-.049-.187-.194-.264-.43-.292v-.194c.139.014.277.008.416.008.361 0 .472 0 .902-.022.375-.013.589-.02.756-.02.472 0 .756.069.992.235.264.188.437.549.437.909 0 .569-.375 1.033-1.013 1.27.264.333.472.666.715 1.047.222.353.444.659.617.832.097.105.16.139.291.174v.194c-.18.041-.361.056-.575.056zm2.758-3.461c-.18.471-.43 1.082-.534 1.421h1.027zm2.248 3.398c-.174-.007-.424-.007-.743-.007-.326 0-.576 0-.749.007l-.159.007v-.194c.221-.014.353-.132.353-.327 0-.069-.021-.166-.09-.374-.083-.256-.139-.43-.222-.666h-1.332l-.139.403c-.103.311-.159.541-.159.658 0 .202.09.292.312.306v.194c-.263-.007-.361-.014-.694-.014-.325 0-.422.007-.686.014v-.194c.104-.014.139-.028.215-.098.132-.117.263-.36.471-.887l.66-1.679c.18-.451.45-1.179.638-1.769h.472c.062.215.208.555.305.805l.978 2.504c.166.423.284.673.374.833.097.166.195.25.361.291v.194zm4.937-4.218c-.077.125-.09.244-.105.604-.02.624-.027 1.595-.027 2.06v1.061c0 .16.021.403.021.5h-.472c-.451-.59-1.387-1.735-1.387-1.735a528.92 528.92 0 0 0 -1.415-1.74c0 .145-.007.055-.007.506v.451c0 .52.007 1.033.028 1.554.013.291.041.437.111.568.069.14.173.195.374.202v.194c-.242-.014-.492-.014-.735-.014-.25 0-.493 0-.742.014v-.194c.458-.014.471-.396.485-.756.007-.292.014-.535.014-.979v-1.463c0-.575-.028-.714-.132-.867-.069-.111-.159-.153-.367-.174v-.194c.229.014.312.014.603.014.285 0 .368 0 .597-.014.083.153.215.292.694.874.679.826 1.289 1.527 1.865 2.248v-1.513c0-.693-.014-.866-.049-1.047-.048-.222-.18-.333-.436-.368v-.194c.284.014.381.014.735.014.353 0 .451 0 .735-.014v.194c-.187.007-.291.042-.388.208m4.84 4.058c-.451.181-.846.25-1.394.25l-.062.278c.035-.008.104 0 .132 0 .263 0 .436.187.436.416 0 .375-.298.638-.769.638a1.06 1.06 0 0 1 -.417-.09l.097-.271a.711.711 0 0 0 .25.056c.194 0 .326-.097.326-.271 0-.139-.069-.222-.173-.222a.257.257 0 0 0 -.153.056l-.152-.042.138-.561c-.61-.056-1.054-.258-1.429-.646-.43-.437-.659-1.034-.659-1.734 0-1.498.965-2.4 2.553-2.4.479 0 .943.069 1.346.201-.015.16-.015.32-.015.472 0 .118.007.368.015.527h-.271c-.111-.492-.506-.756-1.137-.756-.978 0-1.575.653-1.575 1.735 0 1.248.701 2.156 1.665 2.156.582 0 .978-.291 1.137-.846l.264.056a6.18 6.18 0 0 0 -.153.998m2.565-3.238c-.18.471-.429 1.082-.533 1.421h1.026zm2.248 3.398c-.174-.007-.424-.007-.742-.007-.326 0-.576 0-.749.007l-.16.007v-.194c.222-.014.353-.132.353-.327 0-.069-.02-.166-.089-.374-.083-.256-.139-.43-.222-.666h-1.332l-.139.403c-.104.311-.159.541-.159.658 0 .202.09.292.312.306v.194c-.264-.007-.361-.014-.694-.014-.326 0-.423.007-.687.014v-.194a.311.311 0 0 0 .216-.098c.131-.117.263-.36.471-.887l.659-1.679c.181-.451.451-1.179.638-1.769h.472c.062.215.208.555.305.805l.978 2.504c.167.423.285.673.375.833.097.166.194.25.36.291v.194zm2.267 0c-.173-.007-.43-.007-.756-.007-.333 0-.583 0-.764.007l-.166.007v-.194c.326-.028.451-.194.479-.514.02-.208.027-.332.027-1.019v-1.166c0-.18-.007-.367-.007-.568 0-.368-.013-.535-.069-.68-.062-.181-.194-.264-.43-.292v-.194l.166.008c.181.006.431.006.764.006.326 0 .583 0 .756-.006l.167-.008v.194c-.299.021-.452.208-.48.521-.02.201-.02.395-.02 1.019v1.166c0 .908.007 1.061.076 1.242.063.18.188.27.424.291v.194zm2.156.09c-.403 0-.694-.055-1.166-.235a12.763 12.763 0 0 0 -.125-.999l.264-.042c.166.562.534.853 1.068.853.492 0 .826-.257.826-.645 0-.312-.215-.527-.527-.721l-.729-.466c-.499-.318-.791-.651-.791-1.262 0-.776.59-1.276 1.505-1.276.445 0 .812.083 1.138.25-.007.166-.007.222-.007.437 0 .25 0 .319.007.513h-.264c-.097-.499-.409-.777-.887-.777-.43 0-.743.27-.743.653 0 .333.23.554.597.79l.59.381c.562.368.88.722.88 1.277 0 .756-.666 1.269-1.636 1.269m5.576-.187c-.062.104-.132.124-.513.124-.236 0-.465-.013-.701-.02-.333-.007-.666-.021-.998-.021-.333 0-.666.007-.999.021v-.194c.312-.028.451-.208.479-.514.02-.208.02-.43.02-.79v-1.963c0-.368-.02-.535-.076-.68-.062-.181-.187-.264-.423-.292v-.194h3.246c0 .201-.007.41-.007.61 0 .167-.007.327.007.493h-.249c-.049-.534-.278-.68-1.103-.68-.153 0-.354.007-.52.015-.015.27-.021.36-.021.763v.804c.103.007.187.007.311.007.722 0 .944-.104.986-.478h.249c-.014.11-.014.339-.014.686 0 .354.008.562.014.672h-.249c-.021-.395-.209-.491-.923-.491-.125 0-.249.006-.374.006 0 .437.006.874.006 1.311 0 .292.049.388.216.43.104.028.263.035.478.035.749 0 1.013-.166 1.173-.735l.27.055c-.097.486-.208.889-.285 1.02m-81.891-11.768c-.061.08-.162.108-.405.108-.332 0-.656-.02-.987-.028-.283-.006-.499-.013-.648-.013-.202 0-.696.007-.837.013l-.095.008.027-.142c.203-.021.324-.082.419-.21.108-.135.175-.324.27-.703.088-.371.128-.594.27-1.29l.108-.533c.108-.54.149-.857.149-1.027 0-.296-.108-.418-.399-.452l.027-.148a.623.623 0 0 0 .095.006c.25 0 .493.007.743.007.391 0 .648-.007.763-.007.02 0 .061 0 .108-.006l-.027.148c-.209.014-.324.068-.425.202-.169.217-.264.508-.514 1.81l-.088.453c-.107.554-.148.743-.182.993-.014.081-.02.169-.02.21 0 .263.135.343.567.343.763 0 1.047-.154 1.297-.709l.182.068c-.162.446-.317.791-.398.899m1.269.162c-.135 0-.223-.074-.223-.196 0-.061.02-.169.054-.318.087-.358.209-.844.277-1.101.094-.351.135-.594.135-.688 0-.088-.041-.129-.115-.129-.061 0-.122.02-.263.061l-.048.013-.02-.188c.371-.142.736-.23.919-.23.101 0 .141.034.141.114 0 .082-.034.298-.155.771l-.102.398c-.168.655-.209.885-.209.993 0 .101.054.162.156.162.06 0 .182-.027.371-.095l.014.189c-.358.142-.743.244-.932.244zm.736-3.452c-.21 0-.345-.128-.345-.323a.4.4 0 0 1 .419-.413c.203 0 .331.122.331.318 0 .242-.169.418-.405.418zm2.977.966c-.122 0-.27.048-.46.149-.196.101-.337.209-.411.31-.088.122-.163.332-.264.777-.101.419-.148.683-.148.777 0 .128.148.203.419.203.276 0 .513-.129.688-.379.27-.384.473-1 .473-1.438 0-.257-.101-.399-.297-.399zm.007 2.169c-.264.229-.575.323-1.054.323-.527 0-.844-.088-.844-.222 0-.054.006-.122.074-.406l.351-1.532c.115-.494.203-.886.324-1.44.068-.323.095-.499.095-.587 0-.081-.041-.128-.115-.128a1.44 1.44 0 0 0 -.297.068l-.007-.197.081-.027c.365-.122.669-.188.811-.188.087 0 .142.04.142.114s-.034.243-.149.743l-.203.892c-.067.29-.087.398-.108.492.426-.25.797-.364 1.135-.364.412 0 .614.209.614.635 0 .628-.358 1.397-.85 1.824zm3.018-2.189c-.324 0-.668.445-.837 1.101h.067c.628 0 1.101-.331 1.101-.764a.332.332 0 0 0 -.331-.337zm-.696 1.35c-.047 0-.108 0-.196-.006a2.02 2.02 0 0 0 -.026.324c0 .344.121.527.358.527.216 0 .486-.115.884-.365l.074.23c-.499.31-.877.452-1.222.452-.419 0-.648-.25-.648-.702 0-1.115.756-2.08 1.627-2.08.426 0 .676.196.676.534 0 .621-.662 1.086-1.527 1.086zm4.235-.749-.222-.02c.013-.081.02-.176.02-.264 0-.122-.108-.21-.277-.21-.102 0-.203.062-.291.163-.256.291-.358.75-.506 1.499l-.129.655a6.34 6.34 0 0 0 -.587.054c.067-.256.115-.459.169-.688l.148-.629c.101-.425.149-.688.149-.83 0-.169-.041-.244-.122-.244a.745.745 0 0 0 -.169.034l-.168.055-.021-.203c.331-.136.709-.243.878-.243.068 0 .108.027.122.094.02.082.034.176.04.291.304-.25.575-.392.764-.392.128 0 .29.068.445.183a3.849 3.849 0 0 0 -.243.695m2.289-.459-.56-.014-.284 1.384c-.074.359-.081.46-.081.514 0 .094.047.148.135.148.048 0 .149-.026.311-.074l.067-.02.021.196c-.351.142-.716.236-.912.236-.142 0-.23-.067-.23-.196 0-.114.027-.283.081-.493.061-.236.108-.432.162-.696l.21-.999-.358.007.047-.216c.459-.082.614-.446.743-.837l.324-.068-.169.797.561-.007zm2.019-.142c-.324 0-.668.445-.837 1.101h.067c.629 0 1.101-.331 1.101-.764a.332.332 0 0 0 -.331-.337zm-.695 1.35c-.047 0-.108 0-.196-.006-.02.121-.027.222-.027.324 0 .344.121.527.358.527.216 0 .486-.115.885-.365l.074.23c-.5.31-.878.452-1.222.452-.419 0-.649-.25-.649-.702 0-1.115.756-2.08 1.627-2.08.426 0 .676.196.676.534 0 .621-.662 1.086-1.526 1.086zm.75-2.039-.217-.175.824-.933.608.149zm12.887-.399h-.196c.007-.074.013-.101.013-.148 0-.371-.243-.499-.918-.499-.223 0-.439 0-.662.02-.142.56-.236 1.047-.351 1.647h.25c.432 0 .615-.006.77-.034.25-.046.398-.195.473-.465h.182c-.095.398-.209.965-.257 1.31h-.182c.007-.048.013-.088.013-.115 0-.291-.182-.385-.736-.385-.331 0-.452.007-.574.014-.034.169 0 .02-.155.796-.075.379-.102.615-.102.737 0 .236.122.296.575.296.851 0 1.114-.134 1.377-.715l.169.068c-.148.445-.31.803-.405.918-.067.075-.155.095-.439.095-.236 0-.48-.007-.716-.014-.31-.006-.628-.014-.939-.014-.317 0-.628.008-.945.008l.027-.142c.202-.021.324-.082.419-.21.108-.135.175-.324.27-.703.087-.378.114-.533.27-1.29l.108-.533c.108-.527.149-.857.149-1.027 0-.296-.108-.418-.399-.452l.027-.148h3.073c-.075.304-.142.668-.189.985zm-1.283-1.438-.216-.176.823-.932.615.149zm3.431 5.248c-.23-.088-.507-.182-.791-.264-.466.115-.79.46-.79.851 0 .365.311.608.797.608.587 0 1.128-.398 1.128-.831 0-.162-.102-.27-.344-.364zm-.102-2.736c-.365 0-.662.385-.662.845 0 .317.183.533.446.533.358 0 .648-.371.648-.831 0-.338-.168-.547-.432-.547zm1.29.149-.459-.007c.081.142.108.25.108.405 0 .621-.52 1.101-1.196 1.101-.128 0-.222-.013-.364-.053-.169.101-.223.148-.223.209 0 .074.074.108.371.202l.54.169c.541.169.804.331.804.722 0 .716-.709 1.277-1.614 1.277-.743 0-1.195-.351-1.195-.925 0-.527.338-.777.891-.919-.338-.121-.412-.175-.412-.29 0-.149.196-.331.602-.553a.702.702 0 0 1 -.311-.616c0-.641.513-1.127 1.188-1.127.176 0 .304.02.453.074h.891zm2.227-.121c-.27 0-.54.202-.77.58-.257.412-.439.959-.439 1.317 0 .209.101.325.27.325.25 0 .689-.224.858-.392.094-.095.149-.23.216-.487.108-.412.209-.796.27-1.242a1.005 1.005 0 0 0 -.405-.101zm.311 2.498c-.122 0-.162-.074-.223-.405-.5.284-.865.412-1.223.412-.405 0-.641-.209-.641-.58 0-.358.175-.865.446-1.284.364-.568.817-.925 1.505-.925.305 0 .582.054.872.128l-.034.108c-.243.777-.419 1.634-.419 1.925 0 .182.041.283.122.283.054 0 .196-.04.365-.101l.02.21c-.344.128-.676.229-.79.229zm2.991-3.971c-.222.898-.445 1.898-.661 2.85-.068.311-.102.513-.102.615 0 .101.048.148.149.148.068 0 .189-.027.371-.081l.014.189c-.345.135-.763.25-.945.25-.129 0-.203-.074-.203-.202 0-.095.02-.216.121-.642.209-.891.44-1.844.622-2.695.081-.391.121-.587.121-.648 0-.081-.04-.122-.114-.122-.068 0-.189.028-.298.068l-.013-.203c.344-.121.723-.215.911-.215.095 0 .142.04.142.114 0 .068-.027.223-.115.574m.938 3.965c-.135 0-.222-.074-.222-.196 0-.061.02-.169.053-.318.088-.358.21-.844.277-1.101.095-.351.135-.594.135-.688 0-.088-.04-.129-.114-.129-.061 0-.122.02-.264.061l-.047.013-.02-.188c.371-.142.736-.23.918-.23.102 0 .142.034.142.114 0 .082-.033.298-.155.771l-.101.398c-.17.655-.21.885-.21.993 0 .101.054.162.156.162.06 0 .182-.027.371-.095l.014.189c-.358.142-.744.244-.933.244zm.737-3.452c-.21 0-.345-.128-.345-.323a.4.4 0 0 1 .419-.413c.203 0 .331.122.331.318 0 .242-.169.418-.405.418zm2.659 1.088-.561-.014-.283 1.384c-.075.359-.081.46-.081.514 0 .094.047.148.134.148.048 0 .149-.026.311-.074l.068-.02.02.196c-.351.142-.716.236-.912.236-.141 0-.229-.067-.229-.196 0-.114.027-.283.081-.493.06-.236.108-.432.162-.696l.209-.999-.358.007.047-.216c.46-.082.615-.446.744-.837l.324-.068-.169.797.56-.007zm2.019-.142c-.324 0-.668.445-.838 1.101h.068c.628 0 1.101-.331 1.101-.764a.333.333 0 0 0 -.331-.337zm-.696 1.35c-.047 0-.108 0-.196-.006-.02.121-.026.222-.026.324 0 .344.121.527.357.527.217 0 .487-.115.885-.365l.074.23c-.5.31-.878.452-1.222.452-.419 0-.648-.25-.648-.702 0-1.115.756-2.08 1.627-2.08.426 0 .675.196.675.534 0 .621-.661 1.086-1.526 1.086zm.75-2.039-.216-.175.824-.933.608.149zm12.795-.405h-.196c.007-.068.014-.121.014-.155a.436.436 0 0 0 -.129-.324c-.128-.122-.364-.17-.877-.17-.142 0-.332.008-.5.014-.122.554-.23 1.087-.351 1.661.128 0 .256.007.385.007.749 0 .898-.068 1.039-.506h.183c-.108.438-.196.871-.257 1.317h-.189c.007-.047.014-.088.014-.115a.352.352 0 0 0 -.129-.283c-.114-.088-.25-.109-.655-.109-.216 0-.277.007-.452.014l-.088.452c-.128.648-.176.952-.176 1.141 0 .277.122.406.399.44l-.027.142-.108-.008c-.054 0-.352-.006-.608-.006-.271 0-.77 0-.858.006l-.115.008.027-.142c.203-.021.325-.082.419-.21.108-.135.182-.324.27-.703.095-.384.129-.587.271-1.29l.108-.533c.107-.533.148-.857.148-1.027 0-.296-.108-.418-.398-.452l.026-.148h2.999c-.067.304-.135.655-.189.979m2.301 1.695-.223-.02c.014-.081.02-.176.02-.264 0-.122-.108-.21-.277-.21-.101 0-.202.062-.29.163-.257.291-.358.75-.507 1.499l-.128.655a6.34 6.34 0 0 0 -.587.054c.068-.256.114-.459.169-.688l.148-.629c.102-.425.149-.688.149-.83 0-.169-.041-.244-.122-.244a.745.745 0 0 0 -.169.034l-.169.055-.02-.203c.331-.136.71-.243.878-.243.068 0 .108.027.122.094.02.082.033.176.04.291.304-.25.574-.392.763-.392.129 0 .291.068.446.183a3.849 3.849 0 0 0 -.243.695m2.354-.587c-.271 0-.541.202-.77.58-.256.412-.439.959-.439 1.317 0 .209.101.325.27.325.25 0 .689-.224.858-.392.094-.095.148-.23.216-.487.108-.412.209-.796.27-1.242a1.009 1.009 0 0 0 -.405-.101zm.31 2.498c-.121 0-.162-.074-.222-.405-.5.284-.865.412-1.223.412-.405 0-.641-.209-.641-.58 0-.358.175-.865.445-1.284.365-.568.818-.925 1.507-.925.303 0 .58.054.871.128l-.034.108c-.243.777-.419 1.634-.419 1.925 0 .182.041.283.122.283.054 0 .195-.04.364-.101l.02.21c-.344.128-.675.229-.79.229zm3.222-2.37-.56-.014-.284 1.384c-.074.359-.081.46-.081.514 0 .094.047.148.135.148.047 0 .149-.026.311-.074l.067-.02.021.196c-.352.142-.717.236-.913.236-.141 0-.229-.067-.229-.196 0-.114.027-.283.081-.493.061-.236.108-.432.162-.696l.209-.999-.357.007.047-.216c.459-.082.614-.446.743-.837l.324-.068-.169.797.561-.007zm2.019-.142c-.324 0-.668.445-.837 1.101h.067c.628 0 1.101-.331 1.101-.764a.332.332 0 0 0 -.331-.337zm-.695 1.35c-.048 0-.109 0-.197-.006a2.02 2.02 0 0 0 -.026.324c0 .344.121.527.358.527.216 0 .486-.115.884-.365l.075.23c-.5.31-.878.452-1.223.452-.419 0-.648-.25-.648-.702 0-1.115.756-2.08 1.627-2.08.426 0 .676.196.676.534 0 .621-.662 1.086-1.526 1.086zm4.234-.749-.222-.02c.013-.081.02-.176.02-.264 0-.122-.108-.21-.277-.21-.102 0-.203.062-.291.163-.256.291-.358.75-.506 1.499l-.129.655a6.34 6.34 0 0 0 -.587.054c.067-.256.115-.459.168-.688l.149-.629c.101-.425.149-.688.149-.83 0-.169-.041-.244-.122-.244a.745.745 0 0 0 -.169.034l-.169.055-.02-.203c.331-.136.709-.243.878-.243.068 0 .108.027.122.094.02.082.034.176.04.291.305-.25.575-.392.764-.392.128 0 .29.068.445.183a3.849 3.849 0 0 0 -.243.695m2.693 1.911c-.135 0-.216-.08-.216-.202 0-.082.027-.23.108-.567l.067-.284c.203-.844.25-1.128.25-1.243 0-.101-.047-.155-.141-.155-.115 0-.304.067-.507.189-.216.121-.378.264-.459.385-.061.101-.108.276-.189.635-.108.492-.176.83-.23 1.148-.263.02-.331.027-.594.06.135-.506.236-.925.337-1.391.102-.459.142-.675.142-.797 0-.155-.047-.229-.148-.229-.054 0-.169.026-.331.081l-.014-.189c.325-.129.675-.223.838-.223.149 0 .196.088.196.405v.054c.513-.291 1.04-.459 1.405-.459.222 0 .31.054.31.189 0 .142-.04.364-.182.912-.081.31-.156.642-.182.79a2.27 2.27 0 0 0 -.061.391c0 .102.054.156.148.156.061 0 .189-.027.352-.088l.019.196c-.357.128-.763.236-.918.236m2.106-.006c-.134 0-.222-.074-.222-.196 0-.061.02-.169.054-.318.088-.358.21-.844.277-1.101.095-.351.135-.594.135-.688 0-.088-.04-.129-.115-.129-.061 0-.122.02-.263.061l-.048.013-.02-.188c.371-.142.736-.23.919-.23.101 0 .141.034.141.114 0 .082-.033.298-.155.771l-.101.398c-.169.655-.209.885-.209.993 0 .101.053.162.155.162.06 0 .182-.027.371-.095l.014.189c-.358.142-.743.244-.933.244zm.737-3.452c-.209 0-.344-.128-.344-.323 0-.244.175-.413.418-.413.203 0 .331.122.331.318 0 .242-.169.418-.405.418zm2.659 1.088-.56-.014-.284 1.384c-.075.359-.081.46-.081.514 0 .094.047.148.135.148.047 0 .148-.026.311-.074l.067-.02.02.196c-.351.142-.715.236-.911.236-.142 0-.23-.067-.23-.196 0-.114.027-.283.081-.493.061-.236.108-.432.162-.696l.209-.999-.357.007.047-.216c.459-.082.615-.446.743-.837l.324-.068-.169.797.56-.007zm2.02-.142c-.325 0-.669.445-.838 1.101h.067c.628 0 1.101-.331 1.101-.764a.332.332 0 0 0 -.33-.337zm-.696 1.35c-.048 0-.108 0-.196-.006a1.82 1.82 0 0 0 -.027.324c0 .344.122.527.357.527.217 0 .487-.115.886-.365l.073.23c-.499.31-.877.452-1.222.452-.418 0-.648-.25-.648-.702 0-1.115.756-2.08 1.628-2.08.425 0 .675.196.675.534 0 .621-.662 1.086-1.526 1.086zm.749-2.039-.216-.175.824-.933.608.149zm-31.666 1.944a.82.82 0 1 0 -.001-1.641.82.82 0 0 0 .001 1.641m-28.141 0a.82.82 0 1 0 -.001-1.64.82.82 0 0 0 .001 1.64" fill="#1a1919"/><path d="m16.119 49.279h84.232" stroke="#1a1919" stroke-width=".322"/><g transform="translate(16 9)"><path d="m.238 28.809h84.314v-28.295h-84.314z" fill="#fffffe" mask="url(#a)"/><path d="m25.395 18.095c-.764.224-1.545.257-2.254.643 1.675-.064 3.349.194 4.959.708.58.194 1.095.451 1.61.774.258.193.386.385.644.514.322.194.772.194 1.095.065h.321c.967-.258 1.997-.515 2.641-1.224 0 .065.065.065.129.065-.193.515-.193 1.094-.58 1.546 0 .064-.064.193.064.257h.129c-.064 0-.129 0-.129.064 0 .129.194 0 .258.129-.322.064-.644.129-.837.386 0 .065.129.065.193.065-.129.129-.322.064-.386.193 0 0 .064.065.128.065-.064 0-.128 0-.128.064v.194c-.194 0-.258.127-.386.192.257.193.45 0 .708 0-.708.258-1.288.644-1.996.838-.129 0 0 .193-.129.193.193.128.321-.065.515-.065-.902.515-1.803.967-2.769 1.546 0 0-.129.129-.129.257h-.258c-.128.065-.064.258-.193.387.322.193.709-.258.901 0 .065 0-.128.064-.257.064-.064 0-.064.129-.129.129h-.193c-.129.128-.257.193-.257.386-.129 0-.258 0-.323.129 1.417-.193 2.898-.064 4.251-.772a9.927 9.927 0 0 0 2.833-2.126s.065.065.065.129c-.194.644-.58 1.094-1.095 1.481-.387.193-.644.516-.966.644l-.579.386c-2.383.837-5.217.452-7.278 2.061 0-.065-.064-.065-.128-.065-.129.129-.322.194-.387.323 0 .129.193.064.258.064a4.233 4.233 0 0 1 1.224-.579c-.515.257-1.031.644-1.546.773-1.095.193-2.125.128-3.22 0 .644-.387 1.288-.837 1.996-1.224-.193-.129-.386-.129-.579-.129-.322.065-.708-.129-1.031 0-.966.451-2.254.322-2.769 1.353-6.439.128-12.944 0-19.383 0 .129-7.02 0-13.975.193-20.994.064-2.512-.064-5.023-.064-7.534 1.738-.322 3.477-.129 5.216-.065 11.141 0 22.217-.064 33.357 0-.772.386-1.674.708-2.253 1.417-.515.644-1.031 1.288-1.224 2.06-.837.516-1.352 1.288-1.803 2.061-.579 1.095-1.417 2.061-1.288 3.284.129 1.031.386 1.997.58 3.092.064.386.129.708.257 1.094.129.386 0 .837.193 1.16.129.193.065.45.322.579v.257c.065.065.065.129.194.129v.258c.515.644 1.159 1.224 1.48 1.932.129.387-.643.193-.965.064-.644-.322-1.031-.836-1.546-1.288 0 0-.064.065-.064.129.258.45 1.224 1.03.708 1.353-.258.129-.579-.194-.837.064-.064.129 0 .258 0 .386-.386-.257-.773-.128-1.159-.257-.258-.064-.322-.58-.644-.58-.837-.193-1.61-.387-2.447-.451-1.159-.128-2.254-.321-3.413-.128-1.031.063-1.803.837-2.447 1.609v.194c.45.064.644-.323 1.03-.451.644-.129 1.224-.386 1.867-.515.966-.194 1.868-.451 2.77-.387.193 0 .45-.064.644 0-1.16-.064-2.19.322-3.285.645" fill="#174489" mask="url(#a)"/></g><path d="m37.789 30.186c-.198.048-.386.193-.322.321.193.258.58-.064.902-.064-.387.128-.837.064-1.16.386.258.193.515.065.773.065 0 .128.129.128.193.193-.322.129-.579.387-.643.579-.129.322-.451.451-.644.709v.193c-.644.579-1.353.966-1.868 1.674.064 0 .064.065.064.129-.128.193-.386.258-.45.451 0 .065 0 .129.064.129.773-.258 1.352-.838 2.061-1.095.515-.128.901-.451 1.352-.58.322-.064.708-.193 1.03-.257 0 .064 0 .128.065.128h.515c-.064.129-.322.065-.258.129.194.194.58.129.838 0 .193-.129.386-.129.643-.129.065 0 .065-.128.065-.193.193.065.322.065.515.065 1.546-.322 3.027-.644 4.444-1.353-1.675-1.287-3.8-1.738-5.796-2.317.193 0 .386.192.579 0-.322-.258-.708-.129-1.03-.323.064 0 .193.065.257-.064-.515-.258-1.03-.258-1.545-.387.322-.064.515-.322.515-.643 0-.065-.129-.065-.193-.065-.773.386-1.288 1.095-1.61 1.932.451.258.966.064 1.417.129-.193.193-.515.193-.773.258m-2.64-2.512c-.657.696-1.353 1.352-2.19 1.803a19.817 19.817 0 0 1 -2.061 3.284c0 .065.065.129.065.129 1.546-1.739 2.962-3.22 4.958-4.444.129-.064-.193.194.065.129.837-.193 1.095-1.03 1.481-1.674.515-.838 1.417-1.159 2.061-1.868 0 .065 0 .13-.065.194.065.064.129.064.194.064.257-.193.579-.128.772-.386-.515-.193-1.159-.258-1.674-.064-1.352.643-2.511 1.674-3.606 2.833" fill="#fffffe"/><path d="m36.115 28.897c.057-.115.129-.128.193-.257 0-.065 0-.129-.064-.129-.258.064-.451.322-.516.58 0 .064.065.064.129.064a.504.504 0 0 0 .258-.258" fill="#fffffe"/><g transform="translate(40 9)"><path d="m1.266 24.791c-.257.129-.708.129-.772.451-.065.129.193.065.322.065.45-.194.966 0 1.352-.387-.128-.129-.322-.064-.451-.257-.129-.064-.322.065-.451.128" fill="#fffffe" mask="url(#b)"/><path d="m8.286 28.27c.397-.089.772-.323 1.159-.452v.129c.966-.386 1.674-1.223 2.64-1.546.065 0 .193.129.322.065.58-.515 1.224-1.095 2.061-.966 0 .064 0 .129.064.129.065 0 .129 0 .129-.065l-.773.58c-.064.064 0 .128.065.128.322-.128.515-.385.837-.514-.065.064-.065.193-.129.257-1.224.901-2.125 1.932-3.091 3.026h-1.996c0-.063 0-.128-.065-.128-2.254.193-4.443.128-6.697.128 1.288-.192 2.576-.579 3.864-.708.515 0 1.03.064 1.61-.063" fill="#174489" mask="url(#b)"/><path d="m33.658 24.984c.155-.464.322-.965.065-1.416-.387-.58.386-.773.644-1.159.193-.322-.129-.515-.194-.838-.064-.128-.321-.064-.45-.257.45-.193 1.159-.58.837-1.159-.193-.322-.515-.837-.129-1.159.451-.258 1.159-.193 1.352-.644.322-.773-.386-1.416-.772-2.061-.194-.386-.451-.644-.709-1.03-.257-.45-.579-.837-.708-1.353-.193-.515.064-.966.064-1.48.065-.967-.193-1.932-.451-2.899-.193-.45-.257-.966-.45-1.417-.065-.257-.129-.515-.322-.772a.546.546 0 0 1 0-.451c.257-.193.515-.386.772-.643.194-.323.065-.774-.257-.967-.451-.193-.387.451-.708.579h-.194c-.064-.192.065-.257.194-.386 0-.064 0-.193-.065-.193-.257 0-.515-.064-.579-.193-.645-.902-1.546-1.353-2.512-1.739.258.065.515.129.773.129.451.065.966.065 1.352-.129.322-.129.387-.643.516-.966.128-.257-.065-.644-.194-.836-.322-.516-.837-.838-1.352-1.095h30.524c.065 9.53-.064 19.061-.129 28.591-12.042.194-24.084 0-36.126 0 .386-1.287 1.094-2.511 2.253-3.348.258-.129.58-.193.902-.257 1.095 0 2.189.322 3.284.451.129 0 .258.064.387.128.386.064.837.064 1.223-.064.451-.129.966-.387 1.159-.967" fill="#d8232a" mask="url(#b)"/></g><path d="m71.211 21.299c-.38-.095-.708 0-1.094 0-.516.129-.967.193-1.417.386.386-.257.773-.515 1.223-.644.322-.065.644-.258.966-.258.387-.064.773-.193 1.095-.064s.837.129.902.322c.128.387-.194.772-.58 1.03-.064.129.193.193.193.322-.064.129-.257.194-.386.194-.129.064-.258.257-.386.386.128 0 0 .193.128.193-.257.322.129.966-.257 1.095a2.901 2.901 0 0 1 -1.481 0c.257-.065.579.064.772-.194v-.256c0-.065-.064-.065-.129-.065-.064.065-.128.065-.128.065 0-.129-.129-.258-.194-.258-.386.064-.708-.129-.965-.387.192-.064.386-.128.579-.064.193 0 .129-.323.322-.451h.193c.386-.515 1.16-.644 1.288-1.159 0-.129-.386-.129-.644-.193" fill="#8a8b8a"/><path d="m17.998 77.158c.233.044.439.077.619.099.181.022.334.033.462.033.457 0 .851-.177 1.183-.531.332-.353.497-.811.497-1.374 0-.387-.079-.746-.237-1.078a1.642 1.642 0 0 0 -.672-.745 1.965 1.965 0 0 0 -.989-.247c-.223 0-.512.042-.863.125zm0 .376v2.604c0 .562.061.912.184 1.047.167.194.42.291.758.291h.343v.244h-3.83v-.244h.337c.377 0 .648-.123.81-.37.088-.135.132-.459.132-.968v-5.775c0-.562-.059-.911-.177-1.048-.172-.193-.427-.29-.765-.29h-.337v-.244h3.276c.8 0 1.431.083 1.892.247.462.165.851.443 1.167.834s.475.855.475 1.391c0 .73-.241 1.323-.722 1.78s-1.161.686-2.04.686a5.72 5.72 0 0 1 -.699-.047 8.709 8.709 0 0 1 -.804-.138zm6.725-2.03v1.357c.506-.905 1.024-1.357 1.556-1.357.242 0 .442.073.6.221a.678.678 0 0 1 .237.51.602.602 0 0 1 -.171.435.55.55 0 0 1 -.409.179c-.154 0-.326-.077-.517-.228-.192-.152-.333-.227-.425-.227-.08 0-.166.043-.257.131-.199.181-.403.477-.614.89v2.894c0 .334.042.586.125.758a.693.693 0 0 0 .304.297c.145.079.354.118.626.118v.238h-3.092v-.238c.308 0 .536-.048.686-.145a.56.56 0 0 0 .231-.336c.022-.074.033-.288.033-.639v-2.341c0-.702-.015-1.121-.043-1.255a.49.49 0 0 0 -.158-.293.444.444 0 0 0 -.287-.093c-.137 0-.29.033-.462.099l-.065-.237 1.826-.738zm3.38 2.069h2.795c-.022-.386-.068-.659-.138-.817a1.315 1.315 0 0 0 -.491-.58 1.248 1.248 0 0 0 -.683-.211c-.365 0-.691.142-.978.425-.288.284-.456.678-.505 1.183zm0 .383c-.004.896.213 1.6.653 2.109.439.51.956.765 1.549.765.396 0 .739-.109 1.032-.327.292-.217.537-.589.735-1.117l.204.132c-.092.602-.361 1.15-.804 1.645-.444.494-1 .741-1.668.741-.725 0-1.346-.282-1.862-.847-.516-.564-.775-1.324-.775-2.277 0-1.033.265-1.838.795-2.416.529-.578 1.194-.867 1.993-.867.677 0 1.233.223 1.668.669s.653 1.043.653 1.79zm6.469-1.167c.439-.439.698-.692.777-.758.198-.167.411-.297.639-.389.229-.092.456-.138.68-.138.378 0 .703.11.975.329.273.22.455.539.548.956.452-.527.834-.874 1.146-1.038.312-.165.633-.247.963-.247.32 0 .605.082.854.247.248.164.444.434.589.808.097.254.145.654.145 1.199v2.597c0 .378.029.638.086.778a.556.556 0 0 0 .244.247c.119.068.312.102.58.102v.238h-2.979v-.238h.125c.259 0 .462-.05.606-.151a.59.59 0 0 0 .218-.336c.017-.075.026-.288.026-.64v-2.597c0-.492-.059-.839-.177-1.041-.172-.282-.447-.422-.825-.422-.233 0-.466.058-.702.174-.235.117-.519.333-.853.65l-.014.072.014.284v2.88c0 .414.022.67.069.771a.561.561 0 0 0 .26.254c.128.068.345.102.653.102v.238h-3.052v-.238c.334 0 .563-.039.689-.118a.615.615 0 0 0 .26-.356c.022-.075.033-.292.033-.653v-2.597c0-.492-.073-.846-.218-1.061a.927.927 0 0 0 -.811-.422 1.46 1.46 0 0 0 -.705.191c-.364.194-.646.411-.843.653v3.236c0 .396.027.653.082.771a.57.57 0 0 0 .244.268c.108.059.326.088.656.088v.238h-2.986v-.238c.277 0 .47-.029.58-.088a.57.57 0 0 0 .25-.284c.057-.13.086-.381.086-.755v-2.307c0-.663-.02-1.092-.059-1.285-.031-.145-.079-.245-.145-.3a.412.412 0 0 0 -.271-.083c-.123 0-.27.033-.441.099l-.099-.237 1.819-.738h.284v1.285m10.085-4.443c.184 0 .341.065.471.194.129.13.194.287.194.472a.655.655 0 0 1 -.194.474.638.638 0 0 1 -.471.199.648.648 0 0 1 -.475-.199.647.647 0 0 1 -.198-.474c0-.185.065-.342.195-.472a.65.65 0 0 1 .478-.194zm.546 3.158v4.851c0 .378.028.63.083.755a.576.576 0 0 0 .244.28c.108.062.304.092.589.092v.238h-2.933v-.238c.295 0 .493-.028.594-.086a.578.578 0 0 0 .24-.283c.059-.132.089-.384.089-.758v-2.327c0-.655-.02-1.078-.059-1.272-.031-.14-.079-.238-.145-.293a.41.41 0 0 0 -.271-.083c-.122 0-.272.033-.448.099l-.092-.237 1.819-.738zm2.099 2.069h2.795c-.022-.386-.068-.659-.138-.817a1.317 1.317 0 0 0 -.492-.58 1.242 1.242 0 0 0 -.682-.211c-.365 0-.691.142-.979.425-.288.284-.456.678-.504 1.183zm0 .383c-.004.896.213 1.6.653 2.109.439.51.955.765 1.549.765.395 0 .739-.109 1.031-.327.292-.217.538-.589.735-1.117l.204.132c-.091.602-.36 1.15-.803 1.645a2.15 2.15 0 0 1 -1.668.741c-.725 0-1.346-.282-1.863-.847-.516-.564-.774-1.324-.774-2.277 0-1.033.265-1.838.794-2.416.53-.578 1.194-.867 1.994-.867.677 0 1.233.223 1.668.669s.652 1.043.652 1.79zm6.47-2.452v1.357c.505-.905 1.024-1.357 1.555-1.357.242 0 .442.073.6.221a.678.678 0 0 1 .237.51.602.602 0 0 1 -.171.435.548.548 0 0 1 -.409.179c-.154 0-.326-.077-.517-.228-.191-.152-.333-.227-.425-.227-.079 0-.165.043-.257.131-.198.181-.402.477-.613.89v2.894c0 .334.041.586.125.758a.683.683 0 0 0 .304.297c.144.079.353.118.625.118v.238h-3.091v-.238c.307 0 .536-.048.685-.145a.56.56 0 0 0 .231-.336c.022-.074.033-.288.033-.639v-2.341c0-.702-.014-1.121-.043-1.255a.486.486 0 0 0 -.158-.293.443.443 0 0 0 -.286-.093c-.137 0-.29.033-.462.099l-.066-.237 1.826-.738zm7.222 1.285c.439-.439.698-.692.777-.758.199-.167.411-.297.64-.389.228-.092.455-.138.679-.138.378 0 .703.11.975.329.273.22.455.539.548.956.452-.527.834-.874 1.146-1.038.312-.165.633-.247.963-.247.321 0 .605.082.854.247.248.164.444.434.59.808.097.254.144.654.144 1.199v2.597c0 .378.029.638.086.778a.556.556 0 0 0 .244.247c.119.068.312.102.581.102v.238h-2.98v-.238h.125c.259 0 .462-.05.606-.151a.59.59 0 0 0 .218-.336c.018-.075.027-.288.027-.64v-2.597c0-.492-.06-.839-.178-1.041-.172-.282-.447-.422-.824-.422-.234 0-.467.058-.703.174-.235.117-.519.333-.853.65l-.014.072.014.284v2.88c0 .414.022.67.069.771a.561.561 0 0 0 .26.254c.128.068.345.102.653.102v.238h-3.052v-.238c.334 0 .563-.039.689-.118a.615.615 0 0 0 .26-.356c.022-.075.033-.292.033-.653v-2.597c0-.492-.072-.846-.218-1.061a.927.927 0 0 0 -.81-.422c-.238 0-.473.064-.705.191-.366.194-.647.411-.844.653v3.236c0 .396.027.653.082.771a.575.575 0 0 0 .244.268c.108.059.326.088.656.088v.238h-2.986v-.238c.276 0 .47-.029.58-.088a.57.57 0 0 0 .25-.284c.058-.13.086-.381.086-.755v-2.307c0-.663-.019-1.092-.059-1.285-.031-.145-.08-.245-.145-.3a.41.41 0 0 0 -.271-.083c-.123 0-.27.033-.441.099l-.099-.237 1.82-.738h.283v1.285m10.084-4.443c.185 0 .342.065.472.194a.65.65 0 0 1 .194.472.659.659 0 0 1 -.194.474.638.638 0 0 1 -.472.199.648.648 0 0 1 -.475-.199.647.647 0 0 1 -.198-.474c0-.185.065-.342.195-.472a.65.65 0 0 1 .478-.194zm.547 3.158v4.851c0 .378.027.63.083.755a.574.574 0 0 0 .243.28c.108.062.305.092.59.092v.238h-2.933v-.238c.294 0 .492-.028.593-.086a.575.575 0 0 0 .241-.283c.059-.132.089-.384.089-.758v-2.327c0-.655-.021-1.078-.06-1.272-.031-.14-.079-.238-.145-.293a.407.407 0 0 0 -.27-.083c-.123 0-.272.033-.448.099l-.093-.237 1.82-.738zm3.289 1.278c.707-.852 1.382-1.278 2.023-1.278.33 0 .614.082.851.247.237.164.426.436.567.814.096.264.145.668.145 1.213v2.577c0 .382.03.642.092.778.048.11.126.196.234.257.107.062.307.092.597.092v.238h-2.987v-.238h.126c.28 0 .478-.043.59-.128a.674.674 0 0 0 .233-.379c.018-.066.027-.272.027-.62v-2.472c0-.549-.071-.948-.214-1.196-.143-.249-.384-.373-.722-.373-.523 0-1.044.286-1.562.857v3.184c0 .409.024.662.072.758a.62.62 0 0 0 .254.281c.107.059.326.088.656.088v.238h-2.986v-.238h.132c.307 0 .515-.078.623-.234.107-.156.161-.453.161-.893v-2.241c0-.725-.017-1.167-.049-1.325-.033-.158-.084-.266-.152-.323a.412.412 0 0 0 -.274-.086c-.123 0-.269.033-.441.099l-.099-.237 1.82-.738h.283zm6.365-4.436c.185 0 .342.065.472.194.129.13.194.287.194.472a.655.655 0 0 1 -.194.474.638.638 0 0 1 -.472.199.644.644 0 0 1 -.474-.199.648.648 0 0 1 -.199-.474c0-.185.066-.342.195-.472a.65.65 0 0 1 .478-.194zm.547 3.158v4.851c0 .378.027.63.083.755a.579.579 0 0 0 .243.28c.108.062.305.092.59.092v.238h-2.933v-.238c.294 0 .493-.028.593-.086a.575.575 0 0 0 .241-.283c.059-.132.089-.384.089-.758v-2.327c0-.655-.02-1.078-.059-1.272-.032-.14-.08-.238-.146-.293a.404.404 0 0 0 -.269-.083c-.124 0-.273.033-.449.099l-.092-.237 1.819-.738zm5.181 0v2.056h-.218c-.167-.646-.381-1.085-.643-1.318s-.595-.349-.999-.349c-.307 0-.555.081-.744.244-.189.162-.284.342-.284.54 0 .246.07.457.211.633.137.18.413.371.831.573l.962.469c.892.434 1.339 1.008 1.339 1.72 0 .549-.208.992-.623 1.328-.416.336-.88.504-1.395.504-.369 0-.791-.066-1.266-.198a1.305 1.305 0 0 0 -.355-.065c-.102 0-.181.057-.237.171h-.218v-2.156h.218c.122.616.357 1.079.705 1.391.346.312.735.469 1.167.469.302 0 .55-.09.741-.268a.848.848 0 0 0 .287-.643c0-.302-.107-.557-.32-.764-.213-.206-.639-.468-1.276-.784-.637-.317-1.054-.602-1.252-.857-.198-.251-.296-.567-.296-.95 0-.496.169-.911.51-1.245s.782-.501 1.322-.501c.237 0 .525.05.864.151.223.066.373.099.448.099a.26.26 0 0 0 .164-.046.635.635 0 0 0 .139-.204zm2.693-1.807v1.985h1.41v.461h-1.41v3.916c0 .391.056.654.168.791a.534.534 0 0 0 .432.204.755.755 0 0 0 .421-.135.872.872 0 0 0 .317-.399h.257c-.154.431-.371.755-.653.972-.281.218-.571.326-.87.326-.202 0-.4-.055-.594-.168a1.002 1.002 0 0 1 -.427-.481c-.093-.209-.139-.53-.139-.965v-4.061h-.956v-.217c.242-.097.489-.261.742-.491a3.92 3.92 0 0 0 .675-.821c.102-.167.242-.472.422-.917zm3.753 1.807v1.357c.506-.905 1.024-1.357 1.556-1.357a.84.84 0 0 1 .599.221.678.678 0 0 1 .237.51.601.601 0 0 1 -.17.435.55.55 0 0 1 -.41.179c-.153 0-.326-.077-.516-.228-.192-.152-.333-.227-.426-.227-.079 0-.165.043-.257.131-.198.181-.402.477-.613.89v2.894c0 .334.042.586.125.758a.683.683 0 0 0 .304.297c.144.079.353.118.626.118v.238h-3.092v-.238c.307 0 .536-.048.685-.145a.558.558 0 0 0 .232-.336c.021-.074.032-.288.032-.639v-2.341c0-.702-.014-1.121-.042-1.255a.496.496 0 0 0 -.158-.293.444.444 0 0 0 -.287-.093c-.137 0-.29.033-.462.099l-.066-.237 1.826-.738zm3.38 2.069h2.795c-.023-.386-.069-.659-.139-.817a1.309 1.309 0 0 0 -.491-.58 1.248 1.248 0 0 0 -.683-.211c-.364 0-.69.142-.978.425-.288.284-.456.678-.504 1.183zm0 .383c-.005.896.213 1.6.652 2.109.44.51.956.765 1.549.765.396 0 .739-.109 1.032-.327.292-.217.537-.589.735-1.117l.204.132c-.092.602-.361 1.15-.804 1.645-.444.494-1 .741-1.668.741-.725 0-1.346-.282-1.862-.847-.516-.564-.775-1.324-.775-2.277 0-1.033.265-1.838.795-2.416s1.193-.867 1.993-.867c.677 0 1.234.223 1.668.669.436.446.653 1.043.653 1.79z" fill="#fffffe"/><path d="m37.711 100.507h1.834c.566 0 1.01-.053 1.333-.158.322-.106.579-.254.77-.446.27-.269.48-.632.63-1.087.151-.455.226-1.006.226-1.655 0-.898-.148-1.589-.443-2.071-.295-.483-.653-.806-1.075-.97-.305-.117-.795-.176-1.471-.176h-1.804zm-1.137 1.014v-8.59h2.959c.668 0 1.178.041 1.529.123.493.113.912.318 1.26.615a3.5 3.5 0 0 1 1.017 1.468c.224.595.337 1.276.337 2.042 0 .652-.077 1.23-.229 1.734s-.348.921-.586 1.251-.499.59-.782.779c-.283.19-.625.333-1.025.431a5.84 5.84 0 0 1 -1.38.147zm8.248 0h1.055v-6.223h-1.055zm0-7.377h1.055v-1.213h-1.055zm2.263 7.377v-6.223h.949v.943c.243-.441.466-.732.671-.873a1.17 1.17 0 0 1 .677-.211c.356 0 .717.113 1.084.34l-.363.979a1.505 1.505 0 0 0 -.774-.229c-.23 0-.437.069-.621.208a1.13 1.13 0 0 0 -.392.577 4.114 4.114 0 0 0 -.176 1.231v3.258zm4.427-3.71h3.475c-.047-.523-.18-.916-.399-1.177a1.614 1.614 0 0 0 -1.306-.61c-.485 0-.892.162-1.222.487-.33.324-.513.758-.548 1.3zm3.463 1.706 1.09.134c-.172.637-.49 1.131-.955 1.483-.465.351-1.059.527-1.782.527-.91 0-1.632-.28-2.165-.841-.533-.56-.799-1.346-.799-2.358 0-1.047.269-1.86.808-2.438s1.238-.867 2.098-.867c.832 0 1.512.283 2.039.85.527.566.791 1.363.791 2.39 0 .063-.002.157-.006.282h-4.641c.039.683.233 1.207.581 1.57.347.363.781.545 1.3.545.387 0 .717-.102.991-.305.273-.203.49-.527.65-.972zm6.134-.276 1.037.135c-.113.715-.403 1.274-.87 1.679-.467.404-1.04.606-1.72.606-.851 0-1.535-.278-2.053-.835-.517-.557-.776-1.354-.776-2.393 0-.672.111-1.26.334-1.764a2.33 2.33 0 0 1 1.016-1.134c.456-.252.95-.378 1.485-.378.676 0 1.229.171 1.659.513.429.342.705.827.826 1.456l-1.026.158c-.097-.418-.27-.732-.518-.943a1.343 1.343 0 0 0 -.9-.317c-.531 0-.962.191-1.294.572s-.498.983-.498 1.807c0 .836.16 1.444.48 1.823.321.378.738.568 1.254.568.414 0 .76-.127 1.037-.381s.453-.644.527-1.172m3.99 1.336.153.932a3.955 3.955 0 0 1 -.797.094c-.383 0-.68-.061-.891-.182a1.014 1.014 0 0 1 -.445-.478c-.086-.197-.129-.612-.129-1.245v-3.58h-.773v-.82h.773v-1.541l1.049-.633v2.174h1.06v.82h-1.06v3.639c0 .301.018.494.056.58a.438.438 0 0 0 .181.205.7.7 0 0 0 .361.076c.117 0 .271-.014.462-.041m.715.944h1.055v-6.223h-1.055zm0-7.377h1.055v-1.213h-1.055zm3.028 4.265c0 .797.174 1.394.522 1.79a1.67 1.67 0 0 0 1.312.595c.524 0 .959-.199 1.307-.598.348-.398.522-1.006.522-1.822 0-.77-.175-1.353-.525-1.749a1.666 1.666 0 0 0 -1.304-.595c-.527 0-.964.197-1.312.592s-.522.99-.522 1.787zm-1.083 0c0-1.152.32-2.006.96-2.56.536-.461 1.188-.692 1.957-.692.856 0 1.555.28 2.098.841s.815 1.335.815 2.323c0 .801-.121 1.431-.361 1.89s-.59.815-1.048 1.069a3.06 3.06 0 0 1 -1.504.381c-.871 0-1.575-.279-2.112-.838-.537-.558-.805-1.363-.805-2.414zm6.73 3.112v-6.223h.949v.885c.457-.684 1.117-1.026 1.981-1.026.375 0 .719.068 1.034.202.314.135.55.312.706.531.156.218.266.478.328.779.039.195.059.537.059 1.025v3.827h-1.055v-3.786c0-.429-.041-.751-.123-.964a1.017 1.017 0 0 0 -.437-.509 1.388 1.388 0 0 0 -.735-.191 1.71 1.71 0 0 0 -1.163.428c-.326.285-.489.826-.489 1.623v3.399zm-55.881 12h1.055v-6.223h-1.055zm0-7.377h1.055v-1.213h-1.055zm2.269 7.377v-6.223h.949v.885c.457-.684 1.117-1.026 1.98-1.026.375 0 .72.068 1.035.202.314.135.549.312.706.531.156.218.265.478.328.779.039.195.058.537.058 1.025v3.827h-1.054v-3.786c0-.429-.041-.751-.123-.964a1.017 1.017 0 0 0 -.437-.509 1.388 1.388 0 0 0 -.735-.191 1.71 1.71 0 0 0 -1.163.428c-.327.285-.49.826-.49 1.623v3.399zm8.495-.944.152.932a3.947 3.947 0 0 1 -.797.094c-.383 0-.679-.061-.89-.182a1.016 1.016 0 0 1 -.446-.478c-.086-.197-.128-.612-.128-1.245v-3.58h-.774v-.82h.774v-1.541l1.048-.633v2.174h1.061v.82h-1.061v3.639c0 .301.019.494.056.58a.44.44 0 0 0 .182.205.699.699 0 0 0 .36.076 3.5 3.5 0 0 0 .463-.041m1.368-2.765h3.474c-.047-.524-.18-.916-.398-1.178a1.619 1.619 0 0 0 -1.307-.61c-.484 0-.892.163-1.222.487s-.512.758-.547 1.301zm3.462 1.705 1.09.134c-.172.637-.49 1.131-.955 1.483-.465.351-1.058.527-1.781.527-.91 0-1.632-.28-2.165-.841-.533-.56-.8-1.346-.8-2.358 0-1.047.27-1.859.809-2.438.539-.578 1.238-.867 2.097-.867.832 0 1.512.283 2.039.85.528.566.791 1.363.791 2.39 0 .063-.001.157-.005.282h-4.641c.039.683.232 1.207.58 1.57s.781.545 1.301.545c.387 0 .717-.102.99-.305.274-.203.49-.527.65-.972zm2.042 2.004v-6.223h.95v.943c.242-.441.465-.732.67-.873.206-.14.431-.211.677-.211.356 0 .717.114 1.084.34l-.363.979a1.505 1.505 0 0 0 -.773-.229c-.231 0-.438.069-.622.208a1.13 1.13 0 0 0 -.392.577 4.114 4.114 0 0 0 -.176 1.231v3.258zm3.816 0v-6.223h.944v.873c.195-.305.455-.55.779-.735a2.183 2.183 0 0 1 1.107-.279c.461 0 .839.096 1.134.287.295.192.503.459.624.803.492-.726 1.133-1.09 1.922-1.09.617 0 1.092.171 1.424.513s.498.868.498 1.579v4.272h-1.049v-3.92c0-.422-.034-.726-.102-.912a.887.887 0 0 0 -.373-.448 1.16 1.16 0 0 0 -.632-.17c-.438 0-.801.146-1.09.437s-.434.757-.434 1.397v3.616h-1.054v-4.043c0-.469-.086-.821-.258-1.055-.172-.235-.453-.352-.844-.352-.297 0-.571.078-.823.235a1.325 1.325 0 0 0 -.548.685c-.113.301-.17.735-.17 1.301v3.229zm9.621 0h1.055v-6.223h-1.055zm0-7.377h1.055v-1.213h-1.055zm2.269 7.377v-6.223h.949v.885c.457-.684 1.117-1.026 1.98-1.026.375 0 .72.068 1.034.202.315.135.55.312.706.531.157.218.266.478.328.779.04.195.059.537.059 1.025v3.827h-1.055v-3.786c0-.429-.041-.751-.123-.964a1.015 1.015 0 0 0 -.436-.509 1.388 1.388 0 0 0 -.735-.191c-.45 0-.837.143-1.164.428-.326.285-.489.826-.489 1.623v3.399zm6.274 0h1.054v-6.223h-1.054zm0-7.377h1.054v-1.213h-1.054zm1.881 5.519 1.043-.164c.059.418.222.738.49.961.267.223.641.334 1.121.334.485 0 .844-.099 1.079-.296.234-.197.351-.429.351-.694a.64.64 0 0 0 -.31-.563c-.145-.094-.504-.213-1.078-.357-.774-.196-1.31-.364-1.609-.507a1.556 1.556 0 0 1 -.679-.592 1.561 1.561 0 0 1 -.232-.835 1.6 1.6 0 0 1 .191-.77c.126-.237.299-.433.518-.589.164-.121.388-.224.671-.308s.587-.126.911-.126c.488 0 .917.071 1.286.211.369.141.642.331.818.571.175.241.296.562.363.964l-1.031.141c-.047-.32-.183-.57-.408-.75-.224-.18-.542-.27-.952-.27-.484 0-.83.08-1.037.241-.207.16-.31.347-.31.562 0 .137.042.26.129.369.085.114.22.207.404.282.105.039.416.128.931.269.747.199 1.267.362 1.562.489s.526.312.694.554.252.543.252.902c0 .352-.102.683-.307.994a1.99 1.99 0 0 1 -.888.72 3.23 3.23 0 0 1 -1.313.255c-.808 0-1.424-.168-1.848-.504s-.695-.834-.812-1.494m8.299.914.152.932a3.946 3.946 0 0 1 -.796.094c-.383 0-.68-.061-.891-.182a1.009 1.009 0 0 1 -.445-.478c-.086-.197-.129-.612-.129-1.245v-3.58h-.774v-.82h.774v-1.541l1.049-.633v2.174h1.06v.82h-1.06v3.639c0 .301.018.494.055.58a.44.44 0 0 0 .182.205.699.699 0 0 0 .36.076c.117 0 .272-.014.463-.041m2.504-6.053.779-1.64h1.383l-1.289 1.64zm-1.137 3.288h3.475c-.047-.524-.18-.916-.399-1.178a1.617 1.617 0 0 0 -1.306-.61c-.485 0-.892.163-1.222.487s-.513.758-.548 1.301zm3.463 1.705 1.09.134c-.172.637-.49 1.131-.955 1.483-.465.351-1.059.527-1.781.527-.91 0-1.632-.28-2.165-.841-.534-.56-.8-1.346-.8-2.358 0-1.047.269-1.859.808-2.438.54-.578 1.239-.867 2.098-.867.832 0 1.512.283 2.039.85.527.566.791 1.363.791 2.39 0 .063-.002.157-.006.282h-4.64c.039.683.232 1.207.58 1.57.347.363.781.545 1.3.545.387 0 .717-.102.991-.305.273-.203.49-.527.65-.972zm2.042 2.004v-6.223h.949v.943c.242-.441.466-.732.671-.873.205-.14.431-.211.677-.211.355 0 .717.114 1.084.34l-.363.979a1.505 1.505 0 0 0 -.774-.229c-.23 0-.437.069-.621.208a1.13 1.13 0 0 0 -.392.577 4.083 4.083 0 0 0 -.176 1.231v3.258zm3.816 0h1.055v-6.223h-1.055zm0-7.377h1.055v-1.213h-1.055zm3.12 3.668h3.474c-.047-.524-.179-.916-.398-1.178a1.619 1.619 0 0 0 -1.307-.61 1.68 1.68 0 0 0 -1.222.487c-.33.324-.512.758-.547 1.301zm3.463 1.705 1.089.134c-.172.637-.49 1.131-.955 1.483-.465.351-1.058.527-1.781.527-.91 0-1.632-.28-2.165-.841-.533-.56-.8-1.346-.8-2.358 0-1.047.27-1.859.809-2.438.539-.578 1.238-.867 2.097-.867.832 0 1.512.283 2.04.85.527.566.791 1.363.791 2.39 0 .063-.002.157-.006.282h-4.641c.039.683.232 1.207.58 1.57s.781.545 1.301.545c.387 0 .717-.102.99-.305.274-.203.49-.527.651-.972zm2.047 2.004h1.055v-8.59h-1.055zm2.27 0h1.055v-8.59h-1.055zm3.132-3.709h3.474c-.047-.524-.179-.916-.398-1.178a1.619 1.619 0 0 0 -1.307-.61c-.484 0-.891.163-1.221.487s-.513.758-.548 1.301zm3.463 1.705 1.089.134c-.171.637-.49 1.131-.955 1.483-.464.351-1.058.527-1.781.527-.91 0-1.632-.28-2.165-.841-.533-.56-.8-1.346-.8-2.358 0-1.047.27-1.859.809-2.438.539-.578 1.238-.867 2.098-.867.832 0 1.511.283 2.039.85.527.566.791 1.363.791 2.39 0 .063-.002.157-.006.282h-4.641c.039.683.233 1.207.58 1.57.348.363.781.545 1.301.545.387 0 .717-.102.99-.305.274-.203.49-.527.651-.972zm-85.803 10.898c0 .797.168 1.393.504 1.787.336.395.733.592 1.19.592.461 0 .852-.189 1.175-.565.322-.377.483-.953.483-1.726 0-.852-.164-1.477-.492-1.875-.328-.399-.733-.598-1.213-.598-.469 0-.86.192-1.175.574-.314.383-.472.987-.472 1.811zm3.334 3.106v-.786c-.394.618-.974.926-1.74.926-.496 0-.952-.137-1.368-.41a2.695 2.695 0 0 1 -.967-1.146c-.228-.49-.343-1.053-.343-1.69 0-.621.104-1.185.311-1.69.207-.506.518-.894.932-1.163.414-.27.877-.405 1.388-.405a2.086 2.086 0 0 1 1.717.856v-3.082h1.049v8.59zm6.3 0v-.915c-.484.704-1.142 1.055-1.974 1.055-.368 0-.71-.07-1.029-.211-.318-.14-.554-.317-.709-.53a2.002 2.002 0 0 1 -.325-.782c-.043-.207-.064-.535-.064-.985v-3.855h1.054v3.451c0 .551.022.922.065 1.113a1.1 1.1 0 0 0 .422.654c.214.158.48.237.797.237.316 0 .613-.081.89-.243.278-.162.474-.383.589-.662.115-.28.173-.685.173-1.216v-3.334h1.055v6.223zm5.33 0v-6.223h.949v.885c.457-.684 1.117-1.026 1.98-1.026.375 0 .72.068 1.035.202.314.135.55.312.706.531.156.218.265.478.328.779.039.195.059.537.059 1.025v3.827h-1.055v-3.786c0-.429-.041-.751-.123-.964a1.017 1.017 0 0 0 -.437-.509 1.388 1.388 0 0 0 -.735-.191 1.71 1.71 0 0 0 -1.163.428c-.326.285-.49.826-.49 1.623v3.399zm10.332 0v-.915c-.484.704-1.143 1.055-1.975 1.055-.367 0-.71-.07-1.028-.211-.318-.14-.555-.317-.709-.53a1.988 1.988 0 0 1 -.325-.782c-.043-.207-.065-.535-.065-.985v-3.855h1.055v3.451c0 .551.022.922.064 1.113.067.278.208.495.422.654.215.158.481.237.797.237.317 0 .614-.081.891-.243s.473-.383.589-.662c.115-.28.172-.685.172-1.216v-3.334h1.055v6.223zm2.184 0v-6.223h.943v.873a2.21 2.21 0 0 1 .78-.735 2.183 2.183 0 0 1 1.107-.279c.461 0 .839.096 1.134.287.295.192.503.459.624.803.492-.726 1.133-1.09 1.922-1.09.617 0 1.092.171 1.424.513s.498.868.498 1.579v4.272h-1.049v-3.92c0-.422-.034-.726-.103-.912a.88.88 0 0 0 -.372-.448c-.18-.113-.39-.17-.633-.17-.437 0-.801.146-1.089.437-.29.291-.434.757-.434 1.397v3.616h-1.055v-4.043c0-.469-.086-.821-.258-1.055-.171-.235-.453-.352-.843-.352a1.53 1.53 0 0 0 -.824.235 1.323 1.323 0 0 0 -.547.685c-.114.301-.17.735-.17 1.301v3.229zm11.581-6.997.779-1.64h1.383l-1.29 1.64zm-1.137 3.288h3.474c-.046-.524-.179-.916-.398-1.178a1.617 1.617 0 0 0 -1.307-.61c-.484 0-.891.163-1.221.487s-.513.758-.548 1.301zm3.463 1.705 1.09.134c-.172.637-.491 1.131-.956 1.483-.464.351-1.058.527-1.781.527-.91 0-1.632-.28-2.165-.841-.533-.56-.8-1.346-.8-2.358 0-1.047.27-1.859.809-2.438.539-.578 1.238-.867 2.098-.867.832 0 1.511.283 2.039.85.527.566.791 1.363.791 2.39 0 .063-.002.157-.006.282h-4.641c.039.683.233 1.207.58 1.57a1.73 1.73 0 0 0 1.301.545c.387 0 .717-.102.99-.305.274-.203.491-.527.651-.972zm2.042 2.004v-6.223h.949v.943c.242-.441.466-.732.671-.873.205-.14.43-.211.676-.211.356 0 .717.114 1.084.34l-.363.979a1.502 1.502 0 0 0 -.773-.229 1 1 0 0 0 -.621.208 1.126 1.126 0 0 0 -.393.577 4.114 4.114 0 0 0 -.176 1.231v3.258zm3.816 0h1.054v-6.223h-1.054zm0-7.377h1.054v-1.213h-1.054zm3.043 4.248c0 .8.168 1.401.504 1.801.336.401.738.601 1.207.601.449 0 .836-.19 1.16-.571s.487-.96.487-1.738c0-.828-.171-1.451-.513-1.869s-.743-.627-1.204-.627c-.457 0-.845.195-1.163.583-.319.389-.478.995-.478 1.82zm3.252 5.513v-3.047a1.895 1.895 0 0 1 -.688.575 2.027 2.027 0 0 1 -.941.228c-.738 0-1.374-.295-1.907-.885-.533-.589-.8-1.398-.8-2.425 0-.625.109-1.186.325-1.682.217-.496.532-.872.944-1.128a2.52 2.52 0 0 1 1.356-.384c.77 0 1.375.324 1.817.973v-.832h.949v8.607zm6.376-2.384v-.915c-.484.704-1.143 1.055-1.975 1.055-.367 0-.71-.07-1.028-.211-.318-.14-.555-.317-.709-.53a1.988 1.988 0 0 1 -.325-.782c-.043-.207-.065-.535-.065-.985v-3.855h1.055v3.451c0 .551.022.922.064 1.113.067.278.208.495.422.654.215.158.481.237.797.237.317 0 .614-.081.891-.243s.474-.383.589-.662c.115-.28.173-.685.173-1.216v-3.334h1.054v6.223zm3.02-3.709h3.475c-.047-.524-.18-.916-.398-1.178a1.619 1.619 0 0 0 -1.307-.61c-.484 0-.892.163-1.222.487s-.512.758-.548 1.301zm3.463 1.705 1.09.134c-.172.637-.49 1.131-.955 1.483-.465.351-1.059.527-1.781.527-.91 0-1.632-.28-2.165-.841-.533-.56-.8-1.346-.8-2.358 0-1.047.27-1.859.809-2.438.539-.578 1.238-.867 2.097-.867.832 0 1.512.283 2.039.85.528.566.791 1.363.791 2.39 0 .063-.002.157-.006.282h-4.64c.039.683.232 1.207.58 1.57s.781.545 1.301.545c.387 0 .716-.102.99-.305.273-.203.49-.527.65-.972zm5.946-1.705h3.474c-.047-.524-.179-.916-.398-1.178a1.619 1.619 0 0 0 -1.307-.61 1.68 1.68 0 0 0 -1.222.487c-.33.324-.512.758-.547 1.301zm3.463 1.705 1.089.134c-.171.637-.49 1.131-.955 1.483-.465.351-1.058.527-1.781.527-.91 0-1.632-.28-2.165-.841-.533-.56-.8-1.346-.8-2.358 0-1.047.27-1.859.809-2.438.539-.578 1.238-.867 2.098-.867.832 0 1.511.283 2.039.85.527.566.791 1.363.791 2.39 0 .063-.002.157-.006.282h-4.641c.039.683.232 1.207.58 1.57s.781.545 1.301.545c.387 0 .717-.102.99-.305.274-.203.49-.527.651-.972zm4.231 1.06.152.932a3.947 3.947 0 0 1 -.797.094c-.382 0-.679-.061-.89-.182a1.016 1.016 0 0 1 -.446-.478c-.085-.197-.128-.612-.128-1.245v-3.58h-.774v-.82h.774v-1.541l1.048-.633v2.174h1.061v.82h-1.061v3.639c0 .301.019.494.056.58a.44.44 0 0 0 .182.205.699.699 0 0 0 .36.076c.117 0 .272-.014.463-.041m4.469-2.162c0 .797.168 1.393.504 1.787.336.395.732.592 1.189.592.461 0 .853-.189 1.175-.565.322-.377.483-.953.483-1.726 0-.852-.164-1.477-.492-1.875-.328-.399-.732-.598-1.213-.598-.469 0-.86.192-1.175.574-.314.383-.471.987-.471 1.811zm3.334 3.106v-.786c-.395.618-.975.926-1.741.926-.496 0-.952-.137-1.368-.41a2.686 2.686 0 0 1 -.966-1.146c-.229-.49-.343-1.053-.343-1.69 0-.621.103-1.185.31-1.69.207-.506.518-.894.932-1.163.414-.27.877-.405 1.389-.405a2.067 2.067 0 0 1 1.716.856v-3.082h1.049v8.59zm6.3 0v-.915c-.485.704-1.143 1.055-1.975 1.055-.367 0-.71-.07-1.028-.211-.319-.14-.555-.317-.709-.53a1.988 1.988 0 0 1 -.326-.782c-.043-.207-.064-.535-.064-.985v-3.855h1.055v3.451c0 .551.021.922.064 1.113.067.278.207.495.422.654.215.158.48.237.797.237.316 0 .613-.081.891-.243a1.35 1.35 0 0 0 .587-.662c.116-.28.174-.685.174-1.216v-3.334h1.055v6.223zm-101.06 10.142 1.043-.164c.059.418.222.738.49.961.267.223.641.334 1.122.334.484 0 .844-.099 1.078-.296s.351-.429.351-.694a.64.64 0 0 0 -.31-.563c-.145-.094-.504-.213-1.078-.357-.774-.196-1.31-.364-1.609-.507a1.562 1.562 0 0 1 -.679-.592 1.561 1.561 0 0 1 -.232-.835 1.6 1.6 0 0 1 .191-.77c.127-.237.299-.433.518-.589.164-.121.388-.224.671-.308s.587-.126.911-.126c.489 0 .917.071 1.286.211.37.141.642.331.818.571.176.241.297.562.363.964l-1.031.141c-.047-.32-.183-.57-.407-.75-.225-.18-.542-.27-.953-.27-.484 0-.83.08-1.037.241-.207.16-.31.347-.31.562 0 .137.043.26.129.369.086.114.22.207.404.282.105.039.416.128.932.269.746.199 1.266.362 1.561.489s.527.312.694.554c.168.242.252.543.252.902 0 .352-.102.683-.307.994a1.99 1.99 0 0 1 -.888.72 3.23 3.23 0 0 1 -1.312.255c-.809 0-1.425-.168-1.849-.504s-.694-.834-.812-1.494m5.824 4.254-.117-.99c.23.062.431.094.603.094.234 0 .422-.04.563-.118a.958.958 0 0 0 .345-.328c.067-.105.174-.367.323-.785.019-.059.05-.144.093-.258l-2.361-6.234h1.137l1.295 3.603c.167.457.318.938.451 1.442.121-.485.265-.957.433-1.418l1.33-3.627h1.055l-2.367 6.328c-.254.684-.451 1.154-.592 1.412-.187.348-.402.603-.644.765a1.528 1.528 0 0 1 -.868.243c-.203 0-.429-.043-.679-.129m5.211-4.254 1.043-.164c.058.418.221.738.489.961s.642.334 1.122.334c.484 0 .844-.099 1.078-.296s.352-.429.352-.694a.641.641 0 0 0 -.311-.563c-.144-.094-.504-.213-1.078-.357-.773-.196-1.31-.364-1.608-.507a1.559 1.559 0 0 1 -.68-.592 1.57 1.57 0 0 1 -.232-.835 1.6 1.6 0 0 1 .191-.77c.127-.237.3-.433.518-.589a2.19 2.19 0 0 1 .671-.308c.283-.084.587-.126.911-.126.489 0 .917.071 1.287.211.369.141.641.331.817.571.176.241.297.562.363.964l-1.031.141c-.047-.32-.183-.57-.407-.75-.225-.18-.542-.27-.952-.27-.485 0-.831.08-1.037.241-.207.16-.311.347-.311.562 0 .137.043.26.129.369a.934.934 0 0 0 .404.282c.106.039.416.128.932.269.746.199 1.266.362 1.561.489s.527.312.695.554.252.543.252.902c0 .352-.103.683-.308.994a1.99 1.99 0 0 1 -.888.72c-.386.17-.824.255-1.312.255-.809 0-1.425-.168-1.849-.504s-.694-.834-.811-1.494m8.298.914.152.932a3.938 3.938 0 0 1 -.796.094c-.383 0-.68-.061-.891-.182a1.014 1.014 0 0 1 -.445-.478c-.086-.197-.129-.612-.129-1.245v-3.58h-.774v-.82h.774v-1.541l1.048-.633v2.174h1.061v.82h-1.061v3.639c0 .301.019.494.056.58a.44.44 0 0 0 .182.205.699.699 0 0 0 .36.076c.117 0 .272-.014.463-.041m3.799-6.053h-.85l-1.353-1.64h1.412zm-2.432 3.288h3.475c-.047-.524-.18-.916-.399-1.178a1.617 1.617 0 0 0 -1.306-.61c-.485 0-.892.163-1.222.487s-.513.758-.548 1.301zm3.463 1.705 1.09.134c-.172.637-.49 1.131-.955 1.483-.465.351-1.059.527-1.781.527-.911 0-1.632-.28-2.165-.841-.534-.56-.8-1.346-.8-2.358 0-1.047.269-1.859.808-2.438.539-.578 1.239-.867 2.098-.867.832 0 1.512.283 2.039.85.527.566.791 1.363.791 2.39 0 .063-.002.157-.006.282h-4.64c.039.683.232 1.207.58 1.57.347.363.781.545 1.3.545.387 0 .717-.102.991-.305.273-.203.49-.527.65-.972zm2.048 2.004v-6.223h.944v.873c.195-.305.455-.55.779-.735a2.183 2.183 0 0 1 1.107-.279c.461 0 .839.096 1.134.287.295.192.503.459.624.803.493-.726 1.133-1.09 1.922-1.09.617 0 1.092.171 1.424.513s.498.868.498 1.579v4.272h-1.049v-3.92c0-.422-.034-.726-.102-.912a.89.89 0 0 0 -.372-.448 1.166 1.166 0 0 0 -.633-.17c-.438 0-.801.146-1.09.437s-.434.757-.434 1.397v3.616h-1.054v-4.043c0-.469-.086-.821-.258-1.055-.172-.235-.453-.352-.844-.352-.297 0-.571.078-.823.235a1.325 1.325 0 0 0 -.548.685c-.113.301-.17.735-.17 1.301v3.229zm10.444-3.709h3.475c-.047-.524-.18-.916-.399-1.178a1.615 1.615 0 0 0 -1.306-.61c-.485 0-.892.163-1.222.487s-.513.758-.548 1.301zm3.463 1.705 1.09.134c-.172.637-.49 1.131-.955 1.483-.465.351-1.059.527-1.781.527-.91 0-1.632-.28-2.165-.841-.534-.56-.8-1.346-.8-2.358 0-1.047.269-1.859.808-2.438.54-.578 1.239-.867 2.098-.867.832 0 1.512.283 2.039.85.528.566.791 1.363.791 2.39 0 .063-.002.157-.006.282h-4.64c.039.683.232 1.207.58 1.57.347.363.781.545 1.3.545.387 0 .717-.102.991-.305.273-.203.49-.527.65-.972zm5.851-1.102c0 .797.168 1.393.504 1.787.336.395.733.592 1.19.592.461 0 .852-.189 1.174-.565.323-.377.484-.953.484-1.726 0-.852-.164-1.477-.492-1.875-.328-.399-.733-.598-1.213-.598-.469 0-.861.192-1.175.574-.315.383-.472.987-.472 1.811zm3.334 3.106v-.786c-.394.618-.974.926-1.74.926-.496 0-.952-.137-1.368-.41a2.688 2.688 0 0 1 -.967-1.146c-.228-.49-.343-1.053-.343-1.69 0-.621.104-1.185.311-1.69.207-.506.517-.894.931-1.163a2.49 2.49 0 0 1 1.389-.405c.375 0 .709.079 1.002.238.293.158.531.364.715.618v-3.082h1.049v8.59zm2.217-7.454v-1.224h1.131v.967c0 .523-.061.9-.182 1.13-.168.317-.43.555-.785.715l-.258-.416a.916.916 0 0 0 .472-.407c.103-.186.161-.44.173-.765zm2.123 7.454h1.055v-6.223h-1.055zm0-7.377h1.055v-1.213h-1.055zm2.269 7.377v-6.223h.949v.885c.457-.684 1.118-1.026 1.981-1.026.375 0 .72.068 1.034.202.314.135.55.312.706.531.156.218.266.478.328.779.039.195.059.537.059 1.025v3.827h-1.055v-3.786c0-.429-.041-.751-.123-.964a1.02 1.02 0 0 0 -.436-.509 1.391 1.391 0 0 0 -.736-.191 1.71 1.71 0 0 0 -1.163.428c-.326.285-.489.826-.489 1.623v3.399zm6.482 0v-5.403h-.932v-.82h.932v-.662c0-.418.037-.729.111-.932.101-.273.28-.495.536-.665s.614-.255 1.075-.255c.297 0 .625.035.985.106l-.159.92a3.534 3.534 0 0 0 -.621-.059c-.32 0-.547.068-.679.205-.133.137-.2.393-.2.768v.574h1.213v.82h-1.213v5.403zm3.384-3.112c0 .797.174 1.394.522 1.79.347.397.785.595 1.312.595.524 0 .959-.199 1.307-.598.348-.398.521-1.006.521-1.822 0-.77-.174-1.353-.524-1.749a1.67 1.67 0 0 0 -1.304-.595c-.527 0-.965.198-1.312.592-.348.395-.522.99-.522 1.787zm-1.084 0c0-1.152.321-2.006.961-2.56.535-.461 1.188-.692 1.957-.692.856 0 1.555.281 2.098.841.543.561.814 1.335.814 2.323 0 .801-.12 1.431-.36 1.89a2.55 2.55 0 0 1 -1.049 1.069c-.459.254-.96.381-1.503.381-.871 0-1.575-.279-2.112-.838-.537-.558-.806-1.363-.806-2.414zm6.725 3.112v-6.223h.949v.943c.242-.441.466-.732.671-.873.205-.14.431-.211.677-.211.355 0 .717.114 1.084.34l-.364.979a1.5 1.5 0 0 0 -.773-.229c-.23 0-.437.069-.621.208a1.126 1.126 0 0 0 -.393.577 4.115 4.115 0 0 0 -.175 1.231v3.258zm3.816 0v-6.223h.944v.873c.195-.305.455-.55.779-.735a2.183 2.183 0 0 1 1.107-.279c.461 0 .839.096 1.134.287.295.192.503.459.624.803.492-.726 1.133-1.09 1.922-1.09.617 0 1.092.171 1.424.513s.498.868.498 1.579v4.272h-1.049v-3.92c0-.422-.034-.726-.102-.912a.89.89 0 0 0 -.372-.448 1.166 1.166 0 0 0 -.633-.17c-.438 0-.801.146-1.09.437s-.434.757-.434 1.397v3.616h-1.054v-4.043c0-.469-.086-.821-.258-1.055-.172-.235-.453-.352-.844-.352-.297 0-.571.078-.823.235a1.325 1.325 0 0 0 -.548.685c-.113.301-.17.735-.17 1.301v3.229zm13.6-3.124c-.383.157-.957.29-1.723.399-.433.062-.74.133-.92.211a.904.904 0 0 0 -.562.844c0 .281.106.515.319.703.213.187.525.281.935.281.406 0 .767-.089 1.084-.267a1.64 1.64 0 0 0 .697-.729c.113-.238.17-.59.17-1.055zm.088 2.356c-.391.332-.767.566-1.128.703a3.252 3.252 0 0 1 -1.163.205c-.684 0-1.209-.167-1.576-.501-.368-.334-.551-.761-.551-1.28 0-.305.069-.583.208-.835a1.72 1.72 0 0 1 .545-.607c.224-.152.477-.267.759-.345.207-.055.519-.108.937-.158.852-.102 1.479-.223 1.881-.364l.006-.275c0-.43-.1-.733-.299-.908-.27-.239-.67-.358-1.201-.358-.496 0-.863.087-1.099.261s-.411.481-.524.923l-1.032-.141c.094-.441.249-.798.463-1.069.215-.272.526-.481.932-.627.406-.147.877-.22 1.412-.22.531 0 .963.063 1.295.188s.576.282.732.471c.157.19.266.429.329.718.035.18.052.504.052.973v1.406c0 .981.023 1.601.068 1.86.045.26.133.509.266.748h-1.101a2.22 2.22 0 0 1 -.211-.768zm4.462-.176.152.932a3.947 3.947 0 0 1 -.797.094c-.383 0-.68-.061-.89-.182a1.016 1.016 0 0 1 -.446-.478c-.086-.197-.129-.612-.129-1.245v-3.58h-.773v-.82h.773v-1.541l1.049-.633v2.174h1.061v.82h-1.061v3.639c0 .301.019.494.056.58a.435.435 0 0 0 .182.205.699.699 0 0 0 .36.076 3.5 3.5 0 0 0 .463-.041m.714.944h1.055v-6.223h-1.055zm0-7.377h1.055v-1.213h-1.055zm3.029 4.265c0 .797.174 1.394.521 1.79.348.397.786.595 1.313.595.523 0 .959-.199 1.307-.598.347-.398.521-1.006.521-1.822 0-.77-.176-1.353-.525-1.749a1.67 1.67 0 0 0 -1.303-.595c-.527 0-.965.198-1.313.592-.347.395-.521.99-.521 1.787zm-1.084 0c0-1.152.32-2.006.961-2.56.535-.461 1.187-.692 1.957-.692.855 0 1.555.281 2.098.841.543.561.814 1.335.814 2.323 0 .801-.121 1.431-.361 1.89-.241.459-.59.815-1.049 1.069a3.05 3.05 0 0 1 -1.502.381c-.871 0-1.575-.279-2.112-.838-.538-.558-.806-1.363-.806-2.414zm6.729 3.112v-6.223h.95v.885c.457-.684 1.117-1.026 1.98-1.026.375 0 .72.068 1.034.202.315.135.55.312.706.531.157.218.266.478.328.779.04.195.059.537.059 1.025v3.827h-1.055v-3.786c0-.429-.041-.751-.123-.964a1.015 1.015 0 0 0 -.436-.509 1.389 1.389 0 0 0 -.736-.191c-.449 0-.836.143-1.163.428-.326.285-.489.826-.489 1.623v3.399zm-99.349 8.291h3.474c-.046-.524-.179-.916-.398-1.178a1.617 1.617 0 0 0 -1.307-.61c-.484 0-.891.163-1.221.487s-.513.758-.548 1.301zm3.463 1.705 1.089.134c-.171.637-.49 1.131-.955 1.483-.464.351-1.058.527-1.781.527-.91 0-1.632-.28-2.165-.841-.533-.56-.8-1.346-.8-2.358 0-1.047.27-1.859.809-2.438.539-.578 1.238-.867 2.098-.867.832 0 1.511.283 2.039.85.527.566.791 1.363.791 2.39 0 .063-.002.157-.006.282h-4.641c.039.683.233 1.207.58 1.57a1.73 1.73 0 0 0 1.301.545c.387 0 .717-.102.99-.305.274-.203.491-.527.651-.972zm4.232 1.06.152.932a3.947 3.947 0 0 1 -.797.094c-.383 0-.68-.061-.89-.182a1.01 1.01 0 0 1 -.446-.478c-.086-.197-.129-.612-.129-1.245v-3.58h-.773v-.82h.773v-1.541l1.049-.633v2.174h1.061v.82h-1.061v3.639c0 .301.019.494.056.58a.438.438 0 0 0 .181.205.703.703 0 0 0 .361.076 3.5 3.5 0 0 0 .463-.041m4.468-2.162c0 .797.168 1.393.504 1.787.336.395.732.592 1.189.592.461 0 .853-.189 1.175-.565.322-.377.484-.953.484-1.726 0-.852-.165-1.477-.493-1.875-.328-.399-.732-.598-1.213-.598-.468 0-.86.192-1.174.574-.315.383-.472.987-.472 1.811zm3.334 3.106v-.786c-.395.618-.975.926-1.74.926-.496 0-.952-.137-1.368-.41a2.688 2.688 0 0 1 -.967-1.146c-.229-.49-.343-1.053-.343-1.69 0-.621.103-1.185.311-1.69.206-.506.517-.894.931-1.163.414-.27.877-.405 1.389-.405.375 0 .709.079 1.002.238.293.158.531.364.715.618v-3.082h1.048v8.59zm3.055-3.709h3.475c-.047-.524-.179-.916-.398-1.178a1.619 1.619 0 0 0 -1.307-.61 1.68 1.68 0 0 0 -1.222.487c-.33.324-.512.758-.548 1.301zm3.463 1.705 1.09.134c-.172.637-.49 1.131-.955 1.483-.465.351-1.058.527-1.781.527-.91 0-1.632-.28-2.165-.841-.533-.56-.8-1.346-.8-2.358 0-1.047.27-1.859.809-2.438.539-.578 1.238-.867 2.097-.867.832 0 1.512.283 2.039.85.528.566.791 1.363.791 2.39 0 .063-.001.157-.005.282h-4.641c.039.683.232 1.207.58 1.57s.781.545 1.301.545c.386 0 .717-.102.99-.305.274-.203.49-.527.65-.972zm9.209-.276 1.037.135c-.113.715-.403 1.274-.87 1.679-.467.404-1.04.606-1.72.606-.851 0-1.536-.278-2.053-.835-.518-.556-.777-1.354-.777-2.393 0-.672.111-1.26.334-1.764a2.332 2.332 0 0 1 1.017-1.134c.455-.252.95-.378 1.485-.378.676 0 1.229.171 1.658.513.43.342.705.827.826 1.456l-1.025.158c-.098-.418-.27-.732-.518-.943a1.344 1.344 0 0 0 -.9-.317c-.531 0-.963.191-1.295.572s-.498.983-.498 1.807c0 .836.16 1.444.481 1.823.32.378.738.568 1.254.568.414 0 .759-.127 1.037-.381.277-.254.453-.644.527-1.172m2.463-.832c0 .797.174 1.394.521 1.79.348.397.786.595 1.313.595.523 0 .959-.199 1.306-.598.348-.398.522-1.006.522-1.822 0-.77-.175-1.353-.524-1.749a1.672 1.672 0 0 0 -1.304-.595c-.527 0-.965.198-1.313.592-.347.395-.521.99-.521 1.787zm-1.084 0c0-1.152.32-2.006.961-2.56.535-.461 1.187-.692 1.957-.692.855 0 1.555.281 2.098.841.542.561.814 1.335.814 2.323 0 .801-.12 1.431-.36 1.89-.241.459-.59.815-1.049 1.069s-.96.381-1.503.381c-.871 0-1.575-.279-2.112-.838-.538-.558-.806-1.363-.806-2.414zm6.73 3.112v-6.223h.944v.873c.195-.305.455-.55.779-.735a2.183 2.183 0 0 1 1.107-.279c.461 0 .839.096 1.134.287.295.192.503.459.624.803.492-.726 1.133-1.09 1.922-1.09.617 0 1.092.171 1.424.513s.498.868.498 1.579v4.272h-1.049v-3.92c0-.422-.034-.726-.102-.912a.89.89 0 0 0 -.372-.448 1.166 1.166 0 0 0 -.633-.17c-.438 0-.801.146-1.09.437s-.434.757-.434 1.397v3.616h-1.054v-4.043c0-.469-.086-.821-.258-1.055-.172-.235-.453-.352-.844-.352-.297 0-.571.078-.823.235a1.325 1.325 0 0 0 -.548.685c-.113.301-.17.735-.17 1.301v3.229zm9.622 0v-6.223h.943v.873a2.19 2.19 0 0 1 1.887-1.014c.461 0 .839.096 1.134.287.295.192.503.459.624.803.492-.726 1.133-1.09 1.922-1.09.617 0 1.092.171 1.424.513s.497.868.497 1.579v4.272h-1.048v-3.92c0-.422-.034-.726-.103-.912a.88.88 0 0 0 -.372-.448c-.18-.113-.39-.17-.633-.17-.437 0-.8.146-1.09.437-.289.291-.433.757-.433 1.397v3.616h-1.055v-4.043c0-.469-.086-.821-.258-1.055-.171-.235-.453-.352-.843-.352a1.53 1.53 0 0 0 -.824.235 1.323 1.323 0 0 0 -.547.685c-.114.301-.17.735-.17 1.301v3.229zm13.678 0v-.915c-.485.704-1.143 1.055-1.975 1.055-.367 0-.71-.07-1.028-.211-.319-.14-.555-.317-.709-.53a1.988 1.988 0 0 1 -.326-.782c-.043-.207-.064-.535-.064-.985v-3.855h1.055v3.451c0 .551.021.922.064 1.113.067.278.207.495.422.654.215.158.48.237.797.237.316 0 .613-.081.891-.243.277-.162.473-.383.588-.662.116-.28.173-.685.173-1.216v-3.334h1.055v6.223zm2.184 0v-6.223h.949v.885c.457-.684 1.118-1.026 1.981-1.026.375 0 .72.068 1.034.202.314.135.55.312.706.531.156.218.266.478.328.779.039.195.059.537.059 1.025v3.827h-1.055v-3.786c0-.429-.041-.751-.123-.964a1.015 1.015 0 0 0 -.436-.509 1.391 1.391 0 0 0 -.736-.191 1.71 1.71 0 0 0 -1.163.428c-.326.285-.489.826-.489 1.623v3.399zm6.275 0h1.055v-6.223h-1.055zm0-7.377h1.055v-1.213h-1.055zm6.365 5.097 1.037.135c-.113.715-.403 1.274-.87 1.679-.467.404-1.04.606-1.72.606-.852 0-1.536-.278-2.054-.835-.517-.556-.776-1.354-.776-2.393 0-.672.111-1.26.334-1.764a2.327 2.327 0 0 1 1.017-1.134c.455-.252.95-.378 1.485-.378.676 0 1.228.171 1.658.513s.705.827.826 1.456l-1.025.158c-.098-.418-.271-.732-.519-.943a1.342 1.342 0 0 0 -.899-.317c-.531 0-.963.191-1.295.572s-.498.983-.498 1.807c0 .836.16 1.444.48 1.823.321.378.739.568 1.254.568.414 0 .76-.127 1.037-.381.278-.254.454-.644.528-1.172m5.75-.844c-.383.157-.957.29-1.723.399-.433.062-.74.133-.92.211a.904.904 0 0 0 -.562.844c0 .281.106.515.319.703.213.187.524.281.935.281.406 0 .767-.089 1.084-.267.316-.177.548-.421.697-.729.113-.238.17-.59.17-1.055zm.088 2.356c-.391.332-.767.566-1.128.703a3.255 3.255 0 0 1 -1.163.205c-.684 0-1.209-.167-1.577-.501-.367-.334-.55-.761-.55-1.28 0-.305.069-.583.208-.835a1.72 1.72 0 0 1 .545-.607c.224-.152.477-.267.758-.345a7.35 7.35 0 0 1 .938-.158c.851-.102 1.478-.223 1.881-.364l.006-.275c0-.43-.1-.733-.299-.908-.27-.239-.67-.358-1.201-.358-.496 0-.863.087-1.099.261s-.411.481-.524.923l-1.032-.141c.094-.441.248-.798.463-1.069.215-.272.526-.481.932-.627.406-.147.877-.22 1.412-.22.531 0 .963.063 1.295.188s.576.282.732.471c.157.19.266.429.328.718.036.18.053.504.053.973v1.406c0 .981.023 1.601.068 1.86.045.26.133.509.266.748h-1.101a2.22 2.22 0 0 1 -.211-.768zm4.461-.176.152.932a3.955 3.955 0 0 1 -.797.094c-.383 0-.68-.061-.891-.182a1.019 1.019 0 0 1 -.445-.478c-.086-.197-.129-.612-.129-1.245v-3.58h-.773v-.82h.773v-1.541l1.049-.633v2.174h1.061v.82h-1.061v3.639c0 .301.019.494.056.58a.438.438 0 0 0 .181.205.7.7 0 0 0 .361.076 3.5 3.5 0 0 0 .463-.041m.714.944h1.055v-6.223h-1.055zm0-7.377h1.055v-1.213h-1.055zm3.029 4.265c0 .797.174 1.394.521 1.79a1.67 1.67 0 0 0 1.313.595c.523 0 .959-.199 1.306-.598.348-.398.522-1.006.522-1.822 0-.77-.175-1.353-.524-1.749a1.672 1.672 0 0 0 -1.304-.595c-.528 0-.965.198-1.313.592-.347.395-.521.99-.521 1.787zm-1.084 0c0-1.152.32-2.006.961-2.56.535-.461 1.187-.692 1.957-.692.855 0 1.555.281 2.097.841.543.561.815 1.335.815 2.323 0 .801-.121 1.431-.361 1.89a2.553 2.553 0 0 1 -1.048 1.069c-.459.254-.96.381-1.503.381-.871 0-1.575-.279-2.113-.838-.537-.558-.805-1.363-.805-2.414zm6.729 3.112v-6.223h.95v.885c.457-.684 1.117-1.026 1.98-1.026.375 0 .72.068 1.034.202.315.135.55.312.706.531.157.218.266.478.328.779.039.195.059.537.059 1.025v3.827h-1.055v-3.786c0-.429-.041-.751-.123-.964a1.015 1.015 0 0 0 -.436-.509 1.389 1.389 0 0 0 -.736-.191 1.71 1.71 0 0 0 -1.163.428c-.326.285-.489.826-.489 1.623v3.399zm-65.178 8.894c0 .797.168 1.393.504 1.787.336.395.732.592 1.19.592.46 0 .852-.189 1.174-.565.323-.377.484-.953.484-1.726 0-.852-.164-1.477-.492-1.875-.329-.399-.733-.598-1.213-.598-.469 0-.861.192-1.175.574-.315.383-.472.987-.472 1.811zm3.334 3.106v-.786c-.394.618-.974.926-1.74.926-.496 0-.952-.137-1.368-.41a2.688 2.688 0 0 1 -.967-1.146c-.229-.49-.343-1.053-.343-1.69 0-.621.104-1.185.311-1.69.207-.506.517-.894.931-1.163.414-.27.877-.405 1.389-.405.375 0 .709.079 1.002.238.293.158.531.364.715.618v-3.082h1.049v8.59zm3.056-3.709h3.474c-.046-.524-.179-.916-.398-1.178a1.617 1.617 0 0 0 -1.307-.61c-.484 0-.891.163-1.221.487s-.513.758-.548 1.301zm3.463 1.705 1.09.134c-.172.637-.491 1.131-.956 1.483-.464.351-1.058.527-1.781.527-.91 0-1.632-.28-2.165-.841-.533-.56-.8-1.346-.8-2.358 0-1.047.27-1.859.809-2.438.539-.578 1.238-.867 2.098-.867.832 0 1.511.283 2.039.85.527.566.791 1.363.791 2.39 0 .063-.002.157-.006.282h-4.641c.039.683.233 1.207.58 1.57a1.73 1.73 0 0 0 1.301.545c.387 0 .717-.102.99-.305.274-.203.491-.527.651-.972zm5.124 2.004h1.055v-8.59h-1.055zm2.29-7.454v-1.224h1.131v.967c0 .523-.061.9-.182 1.13a1.59 1.59 0 0 1 -.785.715l-.257-.416a.914.914 0 0 0 .471-.407c.104-.186.161-.44.173-.765zm5.012-1.664.779-1.64h1.383l-1.289 1.64zm-2.344 9.118v-8.59h6.211v1.013h-5.074v2.631h4.752v1.008h-4.752v2.924h5.273v1.014zm9.519-.944.152.932a3.947 3.947 0 0 1 -.797.094c-.383 0-.68-.061-.89-.182a1.016 1.016 0 0 1 -.446-.478c-.086-.197-.129-.612-.129-1.245v-3.58h-.773v-.82h.773v-1.541l1.049-.633v2.174h1.061v.82h-1.061v3.639c0 .301.019.494.056.58a.438.438 0 0 0 .181.205.703.703 0 0 0 .361.076 3.5 3.5 0 0 0 .463-.041m4.758-2.18c-.382.157-.957.29-1.722.399-.434.062-.74.133-.92.211a.913.913 0 0 0 -.416.343.896.896 0 0 0 -.147.501.9.9 0 0 0 .32.703c.213.187.524.281.934.281a2.17 2.17 0 0 0 1.084-.267c.317-.177.549-.421.698-.729.113-.238.169-.59.169-1.055zm.088 2.356c-.39.332-.766.566-1.128.703a3.252 3.252 0 0 1 -1.163.205c-.683 0-1.209-.167-1.576-.501s-.551-.761-.551-1.28a1.738 1.738 0 0 1 .753-1.442c.225-.152.478-.267.759-.345a7.35 7.35 0 0 1 .938-.158c.851-.102 1.478-.223 1.88-.364l.006-.275c0-.43-.099-.733-.298-.908-.27-.239-.67-.358-1.202-.358-.496 0-.862.087-1.098.261-.237.174-.411.481-.525.923l-1.031-.141c.094-.441.248-.798.463-1.069.215-.272.525-.481.932-.627.406-.147.877-.22 1.412-.22.531 0 .963.063 1.295.188s.576.282.732.471c.156.19.266.429.328.718.035.18.053.504.053.973v1.406c0 .981.022 1.601.067 1.86.045.26.134.509.267.748h-1.102a2.265 2.265 0 0 1 -.211-.768zm4.461-.176.153.932a3.955 3.955 0 0 1 -.797.094c-.383 0-.68-.061-.891-.182a1.014 1.014 0 0 1 -.445-.478c-.086-.197-.129-.612-.129-1.245v-3.58h-.774v-.82h.774v-1.541l1.049-.633v2.174h1.06v.82h-1.06v3.639c0 .301.018.494.055.58a.445.445 0 0 0 .182.205.699.699 0 0 0 .36.076c.118 0 .272-.014.463-.041" fill="#1a1919"/></g></svg>