<svg xmlns="http://www.w3.org/2000/svg" width="24" height="24" viewBox="0 0 24 24"><g fill="none" fill-rule="evenodd"><g stroke="#0069CC" stroke-linecap="round" stroke-linejoin="round" stroke-width="2"><path d="M18.938 20.625C17.055 22.127 14.6 23.084 12 23.084c-2.614 0-5.015-.954-6.902-2.476l-.1-.943v-.831c0-2.33 4.67-3.5 7.002-3.5 2.33 0 6.999 1.17 6.999 3.5V20l-.063.625zM12 11.333a2.989 2.989 0 0 0 2.995-2.999c0-1.66-1.332-3-2.995-3a2.998 2.998 0 0 0-3.005 3A2.997 2.997 0 0 0 12 11.333z"/><path d="M23 12c0 6.075-4.925 11-11 11S1 18.075 1 12 5.925 1 12 1s11 4.925 11 11z"/></g><path d="M0 0h24v24H0z"/></g></svg>