<svg xmlns="http://www.w3.org/2000/svg" width="24" height="24" viewBox="0 0 24 24"><g fill="none" fill-rule="evenodd"><g stroke="#0069CC" stroke-linecap="round" stroke-linejoin="round" stroke-width="2"><path d="M20.54 4.23l-1.391-1.68A1.447 1.447 0 0 0 18 2H6c-.471 0-.88.21-1.16.55L3.46 4.23C3.17 4.57 3 5.02 3 5.5V18c0 1.1.899 2 2 2h14c1.1 0 2-.9 2-2V5.5c0-.48-.17-.93-.46-1.27z"/><path d="M12.088 7.333h3.438c0-2 2.562-2 2.562-2h2l.842-.38a1.933 1.933 0 0 0-.385-.723l-1.39-1.68a1.448 1.448 0 0 0-1.15-.55h-12c-.47 0-.88.21-1.16.55l-1.38 1.68a1.913 1.913 0 0 0-.395.763l.018.34h3s2.562 0 2.562 2h3.438M9 13.868l3 3 3-3M12 16v-5"/></g><path d="M0 0h24v24H0z"/></g></svg>