<svg height="24" viewBox="0 0 24 24" width="24" xmlns="http://www.w3.org/2000/svg"><g fill="none" fill-rule="evenodd"><path d="m13.153 6.701-4.512 7.815a1.638 1.638 0 0 0 .604 2.237 1.638 1.638 0 0 0 2.24-.596l3.324-5.758 1.843-3.193a3.277 3.277 0 0 0 -1.207-4.475 3.277 3.277 0 0 0 -4.478 1.192l-3.325 5.758-.395.686-2.533 4.387a4.23 4.23 0 0 0 1.557 5.774l.458.265a4.229 4.229 0 0 0 5.779-1.539l6.464-11.196" stroke="#0069cc" stroke-linecap="round" stroke-linejoin="round" stroke-width="2"/><path d="m0 0h24v24h-24z"/></g></svg>