<svg width="24" height="24" viewBox="0 0 24 24" xmlns="http://www.w3.org/2000/svg"><title>ic_attach</title><g fill="none" fill-rule="evenodd"><path d="M13.153 6.701l-4.512 7.815a1.638 1.638 0 0 0 .604 2.237 1.638 1.638 0 0 0 2.24-.596l3.324-5.758 1.843-3.193a3.277 3.277 0 0 0-1.207-4.475 3.277 3.277 0 0 0-4.478 1.192L7.642 9.681l-.395.686-2.533 4.387a4.23 4.23 0 0 0 1.557 5.774l.458.265a4.229 4.229 0 0 0 5.779-1.539l6.464-11.196" stroke="#0069CC" stroke-width="2" stroke-linecap="round" stroke-linejoin="round"/><path d="M0 0h24v24H0z"/></g></svg>