<svg xmlns="http://www.w3.org/2000/svg" width="32" height="32"><path style="text-indent:0;text-transform:none" d="M16 0C7.18 0 0 7.18 0 16s7.18 16 16 16 16-7.18 16-16S24.82 0 16 0zm0 2.91c7.247 0 13.09 5.843 13.09 13.09S23.248 29.09 16 29.09A13.069 13.069 0 0 1 2.91 16C2.91 8.753 8.752 2.91 16 2.91zm0 2.423c-.803 0-1.455.652-1.455 1.455V16c0 .402.161.767.425 1.03l5.833 5.834a1.459 1.459 0 0 0 2.06 0 1.459 1.459 0 0 0 0-2.061l-5.408-5.409V6.788c0-.803-.652-1.455-1.455-1.455z" overflow="visible" color="#000" fill="#0069cc"/></svg>