<svg xmlns="http://www.w3.org/2000/svg" width="24" height="24" viewBox="0 0 24 24"><g fill="none" fill-rule="evenodd"><g stroke="#0069CC" stroke-linecap="round" stroke-linejoin="round" stroke-width="2"><path d="M11.999 7.104l-2.2-2.25h-6.6c-1.21 0-2.189 1.014-2.189 2.25l-.011 13.5c0 1.238.99 2.25 2.2 2.25h17.6c1.21 0 2.2-1.012 2.2-2.25V9.355c0-1.237-.99-2.25-2.2-2.25"/><path d="M20.877 6.871l1.829-1.829a.994.994 0 0 0 0-1.41l-2.339-2.34a.996.996 0 0 0-1.41 0l-1.83 1.83-1.069 1.07L4.999 15.25V19h3.75L19.807 7.941l1.07-1.07zm-3.608-3.662l3.396 3.542"/></g><path d="M0 0h24v24H0z"/></g></svg>