<?xml version="1.0" standalone="no"?>
<!DOCTYPE svg PUBLIC "-//W3C//DTD SVG 20010904//EN"
 "http://www.w3.org/TR/2001/REC-SVG-20010904/DTD/svg10.dtd">
<svg version="1.0" xmlns="http://www.w3.org/2000/svg"
 width="225.000000pt" height="225.000000pt" viewBox="0 0 225.000000 225.000000"
 preserveAspectRatio="xMidYMid meet">

<g transform="translate(0.000000,225.000000) scale(0.100000,-0.100000)"
fill="#000000" stroke="none">
<path d="M1970 2126 c-41 -18 -466 -216 -945 -440 -912 -426 -935 -438 -935
-500 0 -31 34 -72 78 -95 21 -10 183 -67 362 -125 l325 -107 115 -341 c63
-188 123 -355 135 -372 47 -69 104 -72 156 -6 25 32 860 1808 887 1889 28 80
2 131 -65 131 -21 0 -72 -16 -113 -34z"/>
</g>
</svg>
