<svg xmlns="http://www.w3.org/2000/svg" width="32" height="32"><g fill="#0069cc"><path d="M19.733 4.406c-2.687 0-4.872 2.172-4.872 4.843 0 .628.51 1.136 1.142 1.136.632 0 1.143-.508 1.143-1.136a2.581 2.581 0 0 1 2.587-2.571 2.581 2.581 0 0 1 2.586 2.57c0 1.418-1.16 2.57-2.586 2.57-.632 0-1.143.508-1.143 1.137 0 .022.011.04.012.062 0 .023-.012.041-.012.064v2.364c0 .628.51 1.136 1.143 1.136.632 0 1.142-.508 1.142-1.136v-1.502c2.134-.515 3.73-2.416 3.73-4.693-.002-2.672-2.187-4.844-4.872-4.844zM19.733 17.01c-.632 0-1.143.507-1.143 1.135v.704c0 .628.51 1.136 1.143 1.136.632 0 1.142-.508 1.142-1.136v-.704a1.14 1.14 0 0 0-1.142-1.136z"/><path d="M19.733 0C12.968 0 7.464 5.47 7.464 12.195c0 3.006 1.105 5.755 2.926 7.883l-2.944 2.916c-1.27-.569-2.87-.363-3.883.644l-2.557 2.543A3.379 3.379 0 0 0 0 28.591c0 .912.358 1.768 1.003 2.41A3.419 3.419 0 0 0 3.43 32c.915 0 1.777-.356 2.424-.999L8.41 28.46a3.378 3.378 0 0 0 1.005-2.41 3.37 3.37 0 0 0-.342-1.459l2.951-2.92a12.248 12.248 0 0 0 7.707 2.722C26.497 24.39 32 18.919 32 12.195 32 5.47 26.497 0 19.733 0zM6.794 26.852l-2.557 2.543c-.436.428-1.184.43-1.616-.001a1.119 1.119 0 0 1-.335-.802c0-.304.119-.589.335-.803l2.557-2.543a1.143 1.143 0 0 1 1.616.001 1.129 1.129 0 0 1 0 1.605zm12.939-4.734c-5.504 0-9.982-4.45-9.982-9.922s4.476-9.924 9.982-9.924c5.505 0 9.981 4.451 9.981 9.923 0 5.471-4.477 9.923-9.981 9.923z"/></g></svg>