<?xml version="1.0" encoding="UTF-8" standalone="no"?>
<!-- Created with Inkscape (http://www.inkscape.org/) -->
<svg xmlns:dc="http://purl.org/dc/elements/1.1/" xmlns:cc="http://creativecommons.org/ns#" xmlns:rdf="http://www.w3.org/1999/02/22-rdf-syntax-ns#" xmlns:svg="http://www.w3.org/2000/svg" xmlns="http://www.w3.org/2000/svg" xmlns:sodipodi="http://sodipodi.sourceforge.net/DTD/sodipodi-0.dtd" xmlns:inkscape="http://www.inkscape.org/namespaces/inkscape" width="1000" height="577.25897" id="svg5429" version="1.1" inkscape:version="0.48.2 r9819" sodipodi:docname="New document 8">
  <defs id="defs5431"/>
  <sodipodi:namedview id="base" pagecolor="#ffffff" bordercolor="#666666" borderopacity="1.0" inkscape:pageopacity="0.0" inkscape:pageshadow="2" inkscape:zoom="0.12374369" inkscape:cx="696.61331" inkscape:cy="-2106.9455" inkscape:document-units="px" inkscape:current-layer="layer1" showgrid="false" fit-margin-left="0.5" fit-margin-bottom="0.5" fit-margin-top="0.5" fit-margin-right="0.5" inkscape:window-width="1920" inkscape:window-height="1028" inkscape:window-x="-8" inkscape:window-y="-8" inkscape:window-maximized="1"/>
  <metadata id="metadata5434">
    <rdf:RDF>
      <cc:Work rdf:about="">
        <dc:format>image/svg+xml</dc:format>
        <dc:type rdf:resource="http://purl.org/dc/dcmitype/StillImage"/>
        <dc:title/>
      </cc:Work>
    </rdf:RDF>
  </metadata>
  <g inkscape:label="Layer 1" inkscape:groupmode="layer" id="layer1" transform="translate(674.73172,320.69429)">
    <g transform="matrix(20.85003,0,0,-20.85003,222.77327,245.23517)" id="g4131" style="fill:#7b0099;fill-opacity:1">
      <path id="path4133" style="fill:#7b0099;fill-opacity:1;fill-rule:nonzero;stroke:none" d="M 0,0 -4.905,0.604 -4.373,4.954 0.535,4.353 0,0 z" inkscape:connector-curvature="0"/>
    </g>
    <g transform="matrix(20.85003,0,0,-20.85003,150.71223,-320.19429)" id="g4135" style="fill:#7b0099;fill-opacity:1">
      <path id="path4137" style="fill:#7b0099;fill-opacity:1;fill-rule:nonzero;stroke:none" d="M 0,0 0.034,-19.427 3.63,-19.867 8.348,-1.055 0,0 z" inkscape:connector-curvature="0"/>
    </g>
    <g transform="matrix(20.85003,0,0,-20.85003,-78.713162,-95.320877)" id="g4139" style="fill:#7b0099;fill-opacity:1">
      <path id="path4141" style="fill:#7b0099;fill-opacity:1;fill-rule:nonzero;stroke:none" d="m 0,0 c -0.39,-0.041 -2.015,-0.403 -2.56,-0.52 -0.586,-0.156 -5.928,-4.281 -6.28,-5.296 -0.078,-0.352 -0.116,-0.89 -0.116,-1.396 L -8.994,-8.03 c 0,-0.586 0.161,-1.526 0.239,-2.036 0.35,-0.076 2.891,-0.009 3.36,-0.087 l -0.057,-1.046 c -0.457,0.032 -3.685,0.022 -5.527,0.022 -0.938,0 -3.945,-0.1 -4.87,-0.072 l 0.175,0.995 c 0.507,0.04 2.604,-0.09 3.066,0.396 0.229,0.243 0.157,0.501 0.157,1.904 l 0,0.664 c 0,0.314 0,0.896 -0.078,1.441 -0.196,0.585 -4.901,6.459 -6.11,7.395 -0.348,0.117 -2.549,0.336 -3.094,0.454 l -0.027,0.898 c 0.27,0.138 2.716,-0.033 5.089,0.055 1.561,0.058 5.119,0 5.558,-0.052 l -0.112,-0.792 c -0.47,-0.117 -2.721,-0.16 -3.307,-0.316 1.52,-2.26 3.927,-5.172 4.704,-6.302 0.429,0.623 4.2,3.215 4.318,4.111 C -6.097,-0.281 -8.034,0 -8.345,0 L -8.53,1.02 c 0.53,0.084 3.323,0 4.71,0 1.198,0 3.757,0 4.484,-0.06 L 0,0 z m -10.525,10.18 c -10.622,0 -18.037,-5.56 -18.037,-13.516 0,-7.959 7.415,-13.517 18.037,-13.517 10.619,0 18.036,5.558 18.036,13.517 0,7.956 -7.417,13.516 -18.036,13.516" inkscape:connector-curvature="0"/>
    </g>
    <g transform="matrix(20.85003,0,0,-20.85003,-78.713162,-95.320877)" id="g4143">
      <path id="path4145" style="fill:#ffffff;fill-opacity:1;fill-rule:nonzero;stroke:none" d="m 0,0 c -0.39,-0.041 -2.015,-0.403 -2.56,-0.52 -0.586,-0.156 -5.928,-4.281 -6.28,-5.296 -0.078,-0.352 -0.116,-0.89 -0.116,-1.396 L -8.994,-8.03 c 0,-0.586 0.161,-1.526 0.239,-2.036 0.35,-0.076 2.891,-0.009 3.36,-0.087 l -0.057,-1.046 c -0.457,0.032 -3.685,0.022 -5.527,0.022 -0.938,0 -3.945,-0.1 -4.87,-0.072 l 0.175,0.995 c 0.507,0.04 2.604,-0.09 3.066,0.396 0.229,0.243 0.157,0.501 0.157,1.904 l 0,0.664 c 0,0.314 0,0.896 -0.078,1.441 -0.196,0.585 -4.901,6.459 -6.11,7.395 -0.348,0.117 -2.549,0.336 -3.094,0.454 l -0.027,0.898 c 0.27,0.138 2.716,-0.033 5.089,0.055 1.561,0.058 5.119,0 5.558,-0.052 l -0.112,-0.792 c -0.47,-0.117 -2.721,-0.16 -3.307,-0.316 1.52,-2.26 3.927,-5.172 4.704,-6.302 0.429,0.623 4.2,3.215 4.318,4.111 C -6.097,-0.281 -8.034,0 -8.345,0 L -8.53,1.02 c 0.53,0.084 3.323,0 4.71,0 1.198,0 3.757,0 4.484,-0.06 L 0,0 z" inkscape:connector-curvature="0"/>
    </g>
  </g>
<script xmlns=""/></svg>