<svg xmlns="http://www.w3.org/2000/svg" xmlns:xlink="http://www.w3.org/1999/xlink" viewBox="0 0 301.39 284.83"><defs><style>.cls-1{fill:url(#Dégradé_sans_nom_29);}.cls-2{clip-path:url(#clip-path);}.cls-3{fill:#017f9c;}.cls-4{fill:#106784;}</style><linearGradient id="Dégradé_sans_nom_29" x1="225" y1="82.59" x2="225" y2="282.84" gradientUnits="userSpaceOnUse"><stop offset="0" stop-color="#63ac75"/><stop offset="1" stop-color="#005887"/></linearGradient><clipPath id="clip-path" transform="translate(-79 -82.59)"><path class="cls-1" d="M225,82.59a100.73,100.73,0,0,0-18.08,1.63V127.6h44.25L237.7,156H206.92v29.57a20.11,20.11,0,0,0,40.21,0h28.39a48.5,48.5,0,1,1-97,0V156h-50A100.14,100.14,0,1,0,225,82.59Z"/></clipPath></defs><title>logoCPS_Tatou</title><g id="T"><path class="cls-1" d="M225,82.59a100.73,100.73,0,0,0-18.08,1.63V127.6h44.25L237.7,156H206.92v29.57a20.11,20.11,0,0,0,40.21,0h28.39a48.5,48.5,0,1,1-97,0V156h-50A100.14,100.14,0,1,0,225,82.59Z" transform="translate(-79 -82.59)"/><g class="cls-2"><g id="Forme_1" data-name="Forme 1"><path class="cls-3" d="M285.72,213.32s-.4.62-.34,3.17,4.92,2.74,7,2.34,3-5.3,3-5.3Z" transform="translate(-79 -82.59)"/></g><path class="cls-3" d="M300.23,212.45l5.55.59s-.92,7.06-5.84,9.8-8.19,4.67-14,3.32-9.71-6.64-9.71-6.64-2-2.35-2-4.21.17-1.58.17-1.58l4.75.5s.55,7.43,7.09,8.76a10.77,10.77,0,0,0,5.63-.2c2.79-1,7.24-3,7.8-5.59A22,22,0,0,0,300.23,212.45Z" transform="translate(-79 -82.59)"/><g id="Forme_1-2" data-name="Forme 1"><path class="cls-3" d="M196.33,239.31l-8.49,4.46s-.05.74,1.24,2.93,5.63,0,7.23-1.33S196.33,239.31,196.33,239.31Z" transform="translate(-79 -82.59)"/></g><path class="cls-3" d="M200.11,236l5.14-2.17s2.62,6.63-.36,11.4-4.9,8.06-10.62,9.69-11.71-1.1-11.71-1.1-2.85-1.11-3.75-2.74-.62-1.47-.62-1.47l4.4-1.86S186.67,254,193,252a10.76,10.76,0,0,0,4.83-2.91c2-2.19,4.88-6.14,4.12-8.66A22.14,22.14,0,0,0,200.11,236Z" transform="translate(-79 -82.59)"/><g id="Forme_1-3" data-name="Forme 1"><path class="cls-3" d="M307.5,255.79c-1.32-2.18-5.63,0-7.22,1.39s0,6.07,0,6.07l8.45-4.54S308.81,258,307.5,255.79Z" transform="translate(-79 -82.59)"/></g><path class="cls-3" d="M296.55,266.61l-5.11,2.22s-2.68-6.61.26-11.41,4.83-8.09,10.53-9.77,11.72,1,11.72,1,2.86,1.08,3.78,2.7.63,1.47.63,1.47l-4.38,1.9s-4.14-6.2-10.48-4.15a10.82,10.82,0,0,0-4.8,3c-2,2.21-4.83,6.18-4.05,8.7A23,23,0,0,0,296.55,266.61Z" transform="translate(-79 -82.59)"/><g id="Forme_1-4" data-name="Forme 1"><path class="cls-3" d="M209.59,285.29c-.08-2.55-4.93-2.72-7-2.3s-2.94,5.31-2.94,5.31l9.6.16S209.68,287.83,209.59,285.29Z" transform="translate(-79 -82.59)"/></g><path class="cls-3" d="M194.77,289.41l-5.55-.55s.88-7.07,5.79-9.83,8.15-4.73,14-3.41,9.75,6.58,9.75,6.58,2,2.34,2,4.2-.16,1.58-.16,1.58l-4.75-.47s-.6-7.43-7.14-8.72A10.77,10.77,0,0,0,203,279c-2.78,1-7.22,3-7.77,5.63A22.33,22.33,0,0,0,194.77,289.41Z" transform="translate(-79 -82.59)"/><g id="Forme_3" data-name="Forme 3"><path class="cls-3" d="M312.29,212.13a47.5,47.5,0,0,1-.59,5.54c-.38,1.62-2.8,3.71-2.8,3.71l.8.09c8.53-3.48,10.51-8.5,10.51-8.5Z" transform="translate(-79 -82.59)"/></g><g id="Forme_3-2" data-name="Forme 3"><path class="cls-3" d="M315.53,241.54l-.69.39s3.05.95,4,2.28a46.75,46.75,0,0,1,2.76,4.85l6.93-3.94S324.74,241.31,315.53,241.54Z" transform="translate(-79 -82.59)"/></g><g id="Forme_3-3" data-name="Forme 3"><path class="cls-3" d="M175.73,258.15a46.38,46.38,0,0,1-2.58-4.94l-7.07,3.68s3.69,3.95,12.9,4.06l.71-.37S176.67,259.52,175.73,258.15Z" transform="translate(-79 -82.59)"/></g><g id="Forme_3-4" data-name="Forme 3"><path class="cls-3" d="M186.29,279.26c-8.6,3.32-10.67,8.31-10.67,8.31l7.91,1a47.48,47.48,0,0,1,.69-5.53c.41-1.61,2.87-3.66,2.87-3.66Z" transform="translate(-79 -82.59)"/></g><path class="cls-3" d="M345.53,208.44c-13.75,3.23-21.56,8-30.71,17.58s-11.61,16-22.61,16.83-12-.47-12-.47,2.34-6.88,12.18-9.12,12.85-.24,12.85-.24,1,.11,1-1.51a3.54,3.54,0,0,0-1.34-2.54s-9.43-.3-13.8,1.74-7.55,3.21-7.55,3.21A38.29,38.29,0,0,0,273.37,224c-6.06-3.76-12.76-6.34-18.6-6s-17.9.78-26.28,6-15.22,12.58-17.15,18.21-3.72,12.43-3.72,12.43-10.06,1-13.18,3.41-11,8.13-14.11,12.13a35.68,35.68,0,0,1-14,11.33c-6.69,3-13.76,11.53-37.29,4.06,0,0-1.3-.25-.45-3.25s6.79-8.89,11.56-10.79,9.75-5.39,19-5.2c0,0,6.84-.33,9.42,1.79s-.34,3.17-.34,3.17l-3.5,2.84s-2.61-2.44-3.71-2.8-6.13-1.87-9.51-1S141.32,272,136,280.78l-.25,2.37s2.39,2,8.63,1.72,11.58-2.22,13.18-3.41-1.32-5.51-6-3.84a3.13,3.13,0,0,0-2.63,2.12c-.56,1.94-1,2.3-1,2.3l-4.75-.51s1.62-5.74,4.72-6.71a20.11,20.11,0,0,1,7.3-.83c2.2.05,2.26-.08,3.87,1.21a13.74,13.74,0,0,1,2.84,3.51s9.75-4.43,14.64-9.67l.34-3.17s.3-.5-1.5-1-9.12-2.46-13.39-2.22-14.73,1-21.27,4.16-22.7,14.64-26.12,19.67c0,0-.7,1.38.62,1.67s19.73,5.15,30,4,20.43-2,32.75-14.16,16.11-17.75,23.57-18.33,11.23-.54,12.77.55a1.71,1.71,0,0,1,.54,2.46s-6.84,4.08-7.72,4.79-5.22,2.65-8.26,2.33a65.33,65.33,0,0,0-8-.05s-1.38.3-1,1.5,1.18,2.11,4.59,2.09,7.45.28,11.34-1.2a48.53,48.53,0,0,0,5.88-2.58s7.43,7.91,10.17,9.89,16.35,6.34,20.18,6.14,23.63-2.92,32.42-11,9.49-9.25,13.32-27.44a24.56,24.56,0,0,0,11.43-2c6-2.61,14.92-11.72,18.57-16.46s17-15.56,28.16-16.25,17.34.93,19.81,2.1,1.54,1.65,1.33,2.55-3.37,5.65-9,9.46-9.59,6.09-15.19,7.2-13,.15-14.43.08-3.65-.19-3.08-1.13,4.35-5.06,5.34-5.05,2.72,2.16,4.5,2.89a18.89,18.89,0,0,0,15.48-2.37c6.07-4.27,8.84-8.71,9-9.46s-.26-1.16-3-1.92c-2.91-.81-10.69-.45-12.85.24s-6.24,1.82-6.67,2.5,1.22,4.57,5.13,4.55S346,218.9,346,218.9s5-1.19,5.63-.2.52,2.39-1.21,3.88-4,4.39-8.51,4.71-5.33-.61-7-2.35a8.32,8.32,0,0,1-2-3.42,7.14,7.14,0,0,0-2.55,1.34c-1.3,1-5,3-6.93,4.87s-5.14,3.64-5.42,5.84,1.59,2.92,3.62,3.59,11.51,1.37,12.68,1.34c1.45,0,9.65-.2,13.81-1.74s16-8.11,20.53-12.25,11.5-10.94,11.72-12.38C380.39,212.13,359.28,205.2,345.53,208.44ZM282.31,253a32.55,32.55,0,0,1-3.38,9.25,102.7,102.7,0,0,1-7.35,8.84c-.55.52-11.07,8.34-20.1,8.29s-19.47,2.27-29.07-5.49c0,0-5.24-4.56-5.75-6.21s1.1-3.75,2-3.8,1.92-.41,3.09,1.13,2.46,4.41,6.54,6.3,9.25,1.85,12.6,2.14a20,20,0,0,0,8.09-.75c1.46-.62,2.31-.75,1.92-3s-2.28-10.2-3.58-11.6-3.45.06-4.84.29-6.11.81-8,0-2.56-3.53-1.08-4.93,3.61-3.81,10-3.74a2.43,2.43,0,0,0,1-2.3c0-1.75-.43-3.53-1.25-3.33s-6.16.74-8.26,2.33-4.91,3.14-6.22,5.75-1.52,5.88,0,8,4.88,3.57,8.46,3.3,5.51-.51,6.51-.92,1.17.71,1.41,1.76a9,9,0,0,1-.33,3.16,11.09,11.09,0,0,1-4.92,1.09c-2.81,0-6.87,1.06-10.31-1.1s-5.7-4.22-6.54-6.3-2-5,.13-8.8,3.07-6.93,9.89-10.17,8.35-3.12,8.35-3.12.72-.23.25-2.38-1.28-2.36-2.13-2.63-9.14,1-14.39,7.29-3.6,3.25-4.72,6.71a55.15,55.15,0,0,0-1.71,8.64l-6.26-1.47s2-10.51,4.77-14.72,10.46-11.78,18.32-14.08,15.09-4.68,23.56-3.11,14.91,4.67,19.51,12.48c0,0-1.86,4.74-2.88,4.5s-2.75-3.92-4.25-5.25a17,17,0,0,0-7.59-4c-4-1.09-4.18-1.82-8.63-1.72a55.39,55.39,0,0,0-9.76,1.37s-.82,1.23-1,1.5,3.11,12.81,4.2,13.27,3-.56,4.93-1.08a12.81,12.81,0,0,1,6.42-.13c2,.57,2.37.53,3,1.93s.64,3.13-.42,4a37.4,37.4,0,0,1-7.55,3.2,20.4,20.4,0,0,0-3.34,1.25s0,5,1.08,4.92,5.69-1.8,8.35-3.12,5.39-3,6.3-6.54.9-7.08-3-9.14-11.52.12-12,.33a3.07,3.07,0,0,1-1.59-.17s-1.44-4.28-1.08-4.92,3.1-1.9,6.59-1.71c4,.23,9.75.13,12.51,2.93s4.72,5.8,4.71,8.51-1.21,8.31-4.35,10.76-8.19,6.77-10.34,6.92a8.32,8.32,0,0,0-4.13,1.16c-.34.34-1,3,.37,4.05s2.34,2.19,3.88,1.21,6.06-2.82,8.51-4.71a29.63,29.63,0,0,0,7.26-8c1.55-2.88,2.68-10.14,2.68-10.14a3,3,0,0,1,2.46-.54,15,15,0,0,0,2.37.26,4.35,4.35,0,0,1,.63,1.66A18,18,0,0,1,282.31,253Z" transform="translate(-79 -82.59)"/></g></g><g id="tatou"><path class="cls-4" d="M172.81,315.88c-8.25,0-15.48,1.95-23.35,5.47L154,332.47c5.37-2.59,10.84-4,15-4,6.3,0,9.55,2.78,9.55,7.5v.56H165.49c-12.42.18-19.19,5.65-19.19,15.2,0,9.18,6.4,15.66,17.15,15.66,6.77,0,11.86-2.22,15.11-6.39v5.65h16.22V334.05C194.68,322.56,186.62,315.88,172.81,315.88Zm5.75,33.83c-1,3.8-5.1,6.49-10,6.49-4.26,0-6.77-2.23-6.77-5.66s2.32-5.19,6.95-5.19h9.83Z" transform="translate(-79 -82.59)"/><rect class="cls-4" x="79.72" y="214.39" width="26.04" height="11.21"/><path class="cls-4" d="M289.39,316c-16.49,0-27.34,10.2-27.34,25.58,0,.46,0,.9,0,1.35H249.29c-.42,9.86-9.76,9.76-9.76,9.76-8.85-.16-9.77-8.46-9.77-8.46V328.53h15l6.54-13.78H229.76V296.59l-13.92.38-.24,17.78H201.2l-6.42,13.78H216l.24,17.74c1.59,12.62,13.54,18.06,13.54,18.06s9.76,5.54,21.69-1.13a22.86,22.86,0,0,0,11.14-15.89c2.38,12.2,12.45,19.92,26.8,19.92,16.5,0,27.44-10.2,27.44-25.68S305.89,316,289.39,316Zm0,38.28c-6.39,0-10.75-5-10.75-12.51s4.36-12.42,10.75-12.42,10.85,5,10.85,12.42S295.88,354.25,289.39,354.25Z" transform="translate(-79 -82.59)"/><path class="cls-4" d="M353.84,316.53v24.75c0,6.58-3.52,11.21-9.36,11.3-4.91,0-8.07-3.43-8.07-9.08v-27H319.92v31.7c0,11.68,7,19.18,17.89,19.18,7.13-.09,12.6-3.06,16-8.89v8.15h16.5V316.53Z" transform="translate(-79 -82.59)"/><path class="cls-4" d="M147.3,342.9H133.52c-.42,9.86-9.77,9.76-9.77,9.76-8.85-.16-9.76-8.46-9.76-8.46V328.53h14.94l6.55-13.78H114V296.59l-13.93.38-.23,17.78H85.42L79,328.53h21.2l.24,17.74C102,358.89,114,364.33,114,364.33s9.75,5.54,21.68-1.13S147.3,342.9,147.3,342.9Z" transform="translate(-79 -82.59)"/></g></svg>