<svg xmlns="http://www.w3.org/2000/svg" aria-hidden="true" data-prefix="fas" data-icon="arrows-alt-v" class="svg-inline--fa fa-arrows-alt-v fa-w-8 fa-lg" width="32" height="32"><path d="M19.04 20.763h-1.656v-9.526h1.656c.768 0 2.494.242.61-1.6l-3.094-3.362a.815.815 0 0 0-1.22 0l-3.093 3.361c-1.643 1.831-.159 1.6.61 1.6h1.655v9.527h-1.655c-.769 0-2.235-.244-.61 1.6l3.093 3.362a.815.815 0 0 0 1.22 0l3.094-3.361c1.884-1.795.158-1.6-.61-1.6z" fill="currentColor"/><rect width="9" height="2" y="11" ry=".402"/><rect ry=".402" y="19" height="2" width="9"/><rect width="9" height="2" y="15" ry=".402"/><rect ry=".402" y="11" x="23" height="2" width="9"/><rect width="9" height="2" x="23" y="19" ry=".402"/><rect ry=".402" y="15" x="23" height="2" width="9"/></svg>