<svg xmlns="http://www.w3.org/2000/svg" width="32" height="32"><path d="M10.666 11.042l1.426-2.137c.44-.662.45-1.524.023-2.194L7.845 0 2.762 1.694C.698 2.382-.476 4.595.184 6.668c1.148 3.61 3.787 9.355 9.79 15.356 6.002 6.004 11.747 8.642 15.36 9.792 2.072.66 4.285-.515 4.974-2.58L32 24.157l-6.71-4.27a2.008 2.008 0 0 0-2.195.023l-2.135 1.424a1.99 1.99 0 0 1-2.162.044 25.691 25.691 0 0 1-4.56-3.616 25.755 25.755 0 0 1-3.616-4.558 1.993 1.993 0 0 1 .044-2.161" fill="#0069cc" fill-rule="evenodd"/></svg>