<svg width="24" height="24" viewBox="0 0 24 24" xmlns="http://www.w3.org/2000/svg"><title>printer</title><g fill="none" fill-rule="evenodd"><path d="M0 0h24v24H0z"/><path d="M3 8v7h18V8H3zm0-2h18a2 2 0 0 1 2 2v7a2 2 0 0 1-2 2H3a2 2 0 0 1-2-2V8a2 2 0 0 1 2-2zm1 9v2h16v-2H4z" fill="#0069CC" fill-rule="nonzero"/><path d="M7 2h10a2 2 0 0 1 2 2v3H5V4a2 2 0 0 1 2-2z" stroke="#0069CC" stroke-width="2"/><g transform="translate(5 13)"><path d="M0 0h14v7a2 2 0 0 1-2 2H2a2 2 0 0 1-2-2V0z" stroke="#0069CC" stroke-width="2"/><rect fill="#0069CC" fill-rule="nonzero" x="2" y="5" width="6" height="1.5" rx=".75"/><rect fill="#0069CC" fill-rule="nonzero" x="2" y="2.5" width="10" height="1.5" rx=".75"/></g></g></svg>