<svg height="24" viewBox="0 0 24 24" width="24" xmlns="http://www.w3.org/2000/svg"><g fill="none" fill-rule="evenodd"><path d="m0 0h24v24h-24z"/><path d="m3 8v7h18v-7zm0-2h18a2 2 0 0 1 2 2v7a2 2 0 0 1 -2 2h-18a2 2 0 0 1 -2-2v-7a2 2 0 0 1 2-2zm1 9v2h16v-2z" fill="#0069cc" fill-rule="nonzero"/><path d="m7 2h10a2 2 0 0 1 2 2v3h-14v-3a2 2 0 0 1 2-2z" stroke="#0069cc" stroke-width="2"/><g transform="translate(5 13)"><path d="m0 0h14v7a2 2 0 0 1 -2 2h-10a2 2 0 0 1 -2-2z" stroke="#0069cc" stroke-width="2"/><g fill="#0069cc" fill-rule="nonzero"><rect height="1.5" rx=".75" width="6" x="2" y="5"/><rect height="1.5" rx=".75" width="10" x="2" y="2.5"/></g></g></g></svg>