<svg width="24" height="24" viewBox="0 0 24 24" xmlns="http://www.w3.org/2000/svg" xmlns:xlink="http://www.w3.org/1999/xlink"><title>Imprimer</title><defs><rect id="a" x="3" y="8" width="18" height="7" rx="1"/><path d="M7 3h10a1 1 0 0 1 1 1v2H6V4a1 1 0 0 1 1-1z" id="b"/><path d="M0 0h12v6a1 1 0 0 1-1 1H1a1 1 0 0 1-1-1V0z" id="c"/></defs><g fill="none" fill-rule="evenodd"><path d="M0 0h24v24H0z"/><use fill="#FFF" xlink:href="#a"/><rect stroke="#4393F3" stroke-width="2" x="2" y="7" width="20" height="9" rx="1"/><use fill="#FFF" xlink:href="#b"/><path stroke="#4393F3" stroke-width="2" d="M7 2h10a2 2 0 0 1 2 2v3H5V4a2 2 0 0 1 2-2z"/><g transform="translate(6 14)"><use fill="#FFF" xlink:href="#c"/><path stroke="#4393F3" stroke-width="2" d="M-1-1h14v7a2 2 0 0 1-2 2H1a2 2 0 0 1-2-2v-7z"/><rect fill="#4393F3" x="1" y="4" width="6" height="1.5" rx=".75"/><rect fill="#4393F3" x="1" y="1.5" width="10" height="1.5" rx=".75"/></g></g></svg>