<svg xmlns="http://www.w3.org/2000/svg" width="24" height="24"><path d="M74.524 65.23l-3.498-5.592c-6.497-10.413-18.79-17.191-33.783-17.673l-.12 17.602c.1 1.265-1.002 1.856-1.744 1.346L3.101 32.538c-2.57-2.624 0-4.317 0-4.317L34.454 2.483c1.544-1.174 2.802-.77 2.801 1.16l-.112 17.33c20.69.868 37.013 18.232 37.281 37.996l.06 4.424zM4.76 30.905l28.786 23.912v-16.42h1.899c14.593 0 26.986 5.524 34.982 14.299-2.698-15.91-17.291-28.059-34.982-28.059h-1.9V8.535z" stroke-width="3.182" stroke-linejoin="round" transform="matrix(.31704 0 0 .3003 -.132 1.934)" fill="#0069cc" stroke="#0069cc"/></svg>