<svg xmlns="http://www.w3.org/2000/svg" width="24" height="24"><switch transform="translate(0 -101)"><g fill="#0069cc"><path d="M21.406 118.453a1.422 1.422 0 0 0-.56-1.888c-.69-.372-1.298.088-1.67.778-.836 1.592-2.266 2.919-4.049 3.76-3.765 1.769-8.693.51-11.063-2.9-2.87-4.143-1.409-10.218 2.871-12.7 3.98-2.302 9.506-.862 11.925 3.05l-1.96 1.162c-.508.302-.502 1.049.036 1.323l5.798 2.966a.755.755 0 0 0 1.11-.659l.156-6.473c.016-.604-.637-.967-1.146-.664l-1.78 1.057c-3.384-5.589-10.81-7.243-16.272-3.434-4.541 3.2-6.107 9.354-3.633 14.358 2.977 5.956 10.364 8.071 16.004 4.72a11.39 11.39 0 0 0 4.233-4.456z"/></g></switch></svg>