<svg xmlns="http://www.w3.org/2000/svg" width="24" height="24" viewBox="0 0 24 24"><g fill="none" fill-rule="evenodd"><g stroke="#0069CC" stroke-linecap="round" stroke-linejoin="round" stroke-width="2"><path d="M11.595 11.813a2.319 2.319 0 0 0 2.323-2.327 2.319 2.319 0 0 0-2.323-2.326c-1.29 0-2.33 1.04-2.33 2.326a2.324 2.324 0 0 0 2.33 2.327zm-4.508 7.288V17.63c0-1.808 2.977-2.716 4.783-2.716 1.807 0 4.782.908 4.782 2.716v1.471l-.002.433a8.953 8.953 0 0 1-4.923 1.464A8.999 8.999 0 0 1 3.56 8.22m16.843 6.18A8.998 8.998 0 0 0 6.978 4.355"/><path d="M1 9.259l2.667-1.094 1.092 2.667m17.816 2.045l-2.154 1.606-1.607-2.152"/></g><path d="M0 0h24v24H0z"/></g></svg>