<svg class="img-fluid" width="24" height="24" viewBox="0 0 240 240" xmlns="http://www.w3.org/2000/svg"><path d="M127.843 227.216l-8.235-.157-.079-1.15c-.078-.994 1.15-4.445 8.288-23.53 4.601-12.314 9.02-24.13 9.804-26.3 1.647-4.497 3.216-8.654 11.582-30.981 3.32-8.837 8.052-21.49 10.51-28.105 2.457-6.614 4.653-12.392 4.862-12.81.784-1.569.628-1.542 11.765-1.464 7.948.052 10.327.13 10.719.418.732.445.549.026 7.216 17.909 3.189 8.549 8.836 23.686 12.575 33.595 3.738 9.934 7.477 19.973 8.366 22.352 1.777 4.942 17.36 46.615 17.725 47.53.157.34.262 1.072.262 1.62v1.047h-10.824c-8.392 0-10.902-.079-11.059-.314-.104-.183-.496-1.229-.889-2.3a810.315 810.315 0 0 0-2.85-7.583c-1.176-3.085-3.163-8.444-4.444-11.895-1.255-3.45-2.457-6.614-2.64-7.007-.706-1.542.261-1.49-24.392-1.49h-22.641l-.784.732c-.575.55-1.124 1.726-2.327 5.02-5.046 14.04-8.706 23.425-9.438 24.157-.915.915-.915.915-13.072.706zm63.503-53.804c-.366-.968-9.882-26.275-10.431-27.791-3.712-9.987-4.601-12.235-4.732-12.079-.157.183-14.85 39.268-15.085 40.131-.105.418.732.445 15.216.445h15.32zM29.673 189.386l-6.666-6.693v-2.98l15.634-15.425a6749.07 6749.07 0 0 1 20.052-19.713c9.725-9.385 15.032-14.693 15.032-15.006 0-.183-.575-.994-1.307-1.83a190.037 190.037 0 0 1-7.085-8.654c-1.228-1.569-2.536-3.19-2.875-3.582-.968-1.02-6.092-8.68-8.393-12.496-2.797-4.654-4.392-7.556-7.19-13.125-2.117-4.235-2.43-5.045-2.43-6.196v-1.333h21.15l.653.601c.366.314 1.334 1.804 2.144 3.32 3.347 6.197 7.686 12.942 12.392 19.216 2.98 3.974 8.026 10.066 8.314 10.066.288 0 5.229-6.014 8.078-9.804 6.38-8.497 12.053-17.804 16.55-27.164 2.091-4.34 4.967-10.928 4.967-11.346 0-.13.34-1.098.784-2.118.601-1.464.68-1.908.418-2.013-.209-.078-25.673-.157-56.6-.183-53.151-.052-56.236-.078-56.68-.497-.419-.444-.445-1.28-.445-10.51 0-7.843.078-10.143.34-10.457.314-.366 3.921-.418 35.372-.418H76.89l.627-.654.654-.627v-9.15c0-5.02.078-9.308.157-9.543.13-.366 1.333-.418 10.719-.418 10.3 0 10.562 0 10.823.522.183.366.262 3.582.236 9.726-.027 9.203-.027 9.203.549 9.673.549.445 2.353.47 35.424.47 33.412 0 34.85.027 35.242.471.392.445.445 1.543.445 10.589 0 8.81-.053 10.143-.419 10.483-.366.366-2.039.419-14.562.419-12.287 0-14.248.052-14.745.392-.418.287-.967 1.62-1.987 4.784-6.353 19.608-17.751 39.922-31.66 56.497-1.751 2.065-3.399 4.052-3.66 4.392l-.497.653 12.366 12.21 12.366 12.183.131 1.36c.105 1.228-.157 2.064-2.928 9.542-1.7 4.496-3.32 8.888-3.66 9.751l-.575 1.569-1.15.078-1.177.079-15.164-15.19c-8.34-8.34-15.268-15.163-15.424-15.163-.157 0-5.726 5.464-12.419 12.157-6.666 6.692-12.209 12.157-12.287 12.157-.131 0-4.262 4.183-18.275 18.51l-6.98 7.11h-2.693z" fill="#000091"/><g fill="none"><path d="M0 119.216V0h240v238.431H0zm140.183 106.483c.68-.706 4.47-10.457 9.386-24.13 1.202-3.294 1.751-4.471 2.326-5.02l.785-.732h23.425c25.516 0 24.47-.052 25.176 1.49.183.392 1.386 3.556 2.64 7.007 1.282 3.45 3.269 8.81 4.445 11.895a810.315 810.315 0 0 1 2.85 7.582c.392 1.072.784 2.117.889 2.3.261.393 20.313.471 20.313.053 0-.13-.104-.497-.261-.837-.366-.915-15.948-42.588-17.726-47.53-.889-2.378-4.627-12.418-8.366-22.352-3.738-9.909-9.385-25.046-12.575-33.595-6.666-17.882-6.483-17.464-7.215-17.935-.419-.261-2.51-.366-9.961-.366-10.275-.052-10.196-.052-10.955 1.438-.209.419-2.405 6.196-4.862 12.81-2.458 6.615-7.19 19.269-10.51 28.105-8.366 22.327-9.935 26.484-11.582 30.98-.784 2.17-5.229 14.014-9.83 26.328-4.601 12.34-8.314 22.588-8.235 22.797.13.366 1.307.418 8.34.497 10.588.104 10.588.104 11.503-.785zm-94.928-37.516c14.013-14.327 18.144-18.51 18.274-18.51.079 0 5.569-5.412 12.157-12.052 6.615-6.614 12.34-12.21 12.758-12.418.471-.262.863-.314 1.125-.157.235.13 7.294 7.085 15.66 15.477 10.039 10.04 15.372 15.19 15.608 15.085.209-.079.705-1.046 1.124-2.196.392-1.124 2.013-5.438 3.581-9.621 2.092-5.595 2.798-7.765 2.667-8.288-.104-.496-3.87-4.392-12.418-12.81-6.745-6.667-12.34-12.366-12.445-12.706-.183-.732.21-1.281 4.262-6.092 13.882-16.522 25.307-36.888 31.66-56.496 1.02-3.164 1.569-4.497 1.987-4.785.497-.34 2.457-.392 14.745-.392 12.523 0 14.196-.052 14.562-.418.366-.34.418-1.595.418-9.7 0-8.313-.052-9.359-.444-9.803-.392-.445-1.83-.47-35.242-.47-33.752 0-34.876-.027-35.45-.498l-.602-.496.078-9.15c.053-6.406-.026-9.308-.209-9.7-.314-.55-.418-.55-10.065-.55-8.68 0-9.804.053-9.935.42-.078.235-.157 4.522-.157 9.542v9.15l-.653.627-.628.654H42.667c-30.615 0-35.06.052-35.347.392-.235.288-.313 2.72-.34 9.673 0 8.419.053 9.36.445 9.752.418.418 4.235.445 56.653.497 30.902.026 56.366.104 56.576.183.6.235.47 1.49-.393 3.555-.418 1.046-.784 2.013-.784 2.144 0 .418-2.876 7.007-4.967 11.347-5.621 11.686-12.863 22.954-21.386 33.307-3.19 3.869-3.738 4.34-4.497 3.921-.68-.366-5.254-5.83-8.627-10.326-4.706-6.275-9.046-13.02-12.392-19.216-2.3-4.314-1.072-3.922-12.601-3.922-9.726 0-9.778 0-9.778.55 0 .574 3.921 8.548 6.274 12.784 3.32 5.96 10.04 16.418 11.739 18.248.34.392 1.647 2.013 2.876 3.582a219.365 219.365 0 0 0 4.706 5.83c4.287 5.045 4.418 5.28 3.555 6.536-.418.549-6.274 6.353-14.902 14.692-2.431 2.353-11.477 11.242-20.052 19.713-13.098 12.915-15.634 15.53-15.634 16.13 0 .576 1.202 1.935 6.667 7.4 4.627 4.627 6.875 6.692 7.241 6.692.393 0 2.693-2.17 7.556-7.111z"/><path d="M159.974 173.673c.261-.706 3.921-10.431 8.13-21.647 4.21-11.216 7.713-20.523 7.818-20.706a.296.296 0 0 1 .444-.13c.157.104 1.438 3.241 2.824 6.98 1.385 3.738 2.692 7.216 2.901 7.712.21.497 2.667 7.033 5.465 14.51 2.797 7.477 5.176 13.804 5.254 14.066.183.418-.705.444-16.575.444h-16.758z"/></g></svg>