<svg width="24" height="24" viewBox="0 0 24 24" xmlns="http://www.w3.org/2000/svg" xmlns:xlink="http://www.w3.org/1999/xlink"><title>sans-suite</title><defs><path id="a" d="M0 0h992v412H0z"/><filter x="-8.1%" y="-4.6%" width="116.2%" height="110.9%" filterUnits="objectBoundingBox" id="b"><feOffset dy="4" in="SourceAlpha" result="shadowOffsetOuter1"/><feGaussianBlur stdDeviation="8" in="shadowOffsetOuter1" result="shadowBlurOuter1"/><feColorMatrix values="0 0 0 0 0 0 0 0 0 0 0 0 0 0 0 0 0 0 0.1 0" in="shadowBlurOuter1" result="shadowMatrixOuter1"/><feMerge><feMergeNode in="shadowMatrixOuter1"/><feMergeNode in="SourceGraphic"/></feMerge></filter><path id="c" d="M0 0h320v479H0z"/></defs><g fill="none" fill-rule="evenodd"><g transform="translate(-557 -229)"><use fill="#FFF" xlink:href="#a"/><path stroke="#CCC" d="M.5.5h991v411H.5z"/></g><g filter="url(#b)" transform="translate(-16 -303)"><use fill="#FFF" xlink:href="#c"/><path stroke="#CCC" d="M.5.5h319v478H.5z"/><g><path d="M16 303h24v24H16z"/><path d="M28 304c-6.072 0-11 4.928-11 11s4.928 11 11 11 11-4.928 11-11-4.928-11-11-11z" stroke="#333" stroke-width="2" stroke-linecap="round" stroke-linejoin="round"/><g fill="#333" transform="translate(16 303)"><circle cx="8" cy="12" r="1"/><circle cx="12" cy="12" r="1"/><circle cx="16" cy="12" r="1"/></g></g></g></g></svg>