<svg width="96" height="92" viewBox="0 0 96 92" xmlns="http://www.w3.org/2000/svg"><title>08D2E231-4C84-4B79-AC9D-982A43B5F62D</title><g fill="none" fill-rule="evenodd"><path d="M0-2h96v96H0z"/><path d="M35 85.679c3.208 3.278 7.675 5.32 12.624 5.32 4.95 0 9.417-2.043 12.625-5.321-.922-3.106-3.123-6.105-8.248-6.105 0 0-1.634 1.592-4.377 1.592-2.744 0-4.376-1.592-4.376-1.592-5.125 0-7.326 2.999-8.248 6.106zM47.624 74.63c3.783 0 6.854-3.05 6.854-6.811 0-3.768-3.07-6.82-6.854-6.82-3.782 0-6.854 3.052-6.854 6.82 0 3.76 3.073 6.812 6.854 6.812zM1 42.679c3.208 3.278 7.675 5.32 12.625 5.32 4.949 0 9.417-2.043 12.625-5.321-.922-3.106-3.124-6.105-8.249-6.105 0 0-1.634 1.592-4.376 1.592-2.745 0-4.376-1.592-4.376-1.592-5.126 0-7.327 2.999-8.249 6.106zM13.624 31.63c3.783 0 6.854-3.05 6.854-6.811 0-3.768-3.07-6.82-6.854-6.82-3.783 0-6.854 3.052-6.854 6.82 0 3.76 3.074 6.812 6.854 6.812zM69 42.679c3.207 3.278 7.675 5.32 12.624 5.32 4.95 0 9.418-2.043 12.626-5.321-.922-3.106-3.124-6.105-8.249-6.105 0 0-1.635 1.592-4.377 1.592-2.743 0-4.375-1.592-4.375-1.592-5.126 0-7.328 2.999-8.25 6.106zM81.624 31.63c3.784 0 6.855-3.05 6.855-6.811 0-3.768-3.072-6.82-6.855-6.82-3.782 0-6.853 3.052-6.853 6.82 0 3.76 3.073 6.812 6.853 6.812zm-4.089-18.51C69.795 5.622 59.253 1 47.625 1s-22.17 4.622-29.91 12.12m50.143 68.825c10.966-5.859 19.089-16.33 21.788-28.825m-84.043 0c2.736 12.67 11.055 23.255 22.255 29.064" stroke="#FFF" stroke-width="2" stroke-linecap="round" stroke-linejoin="round"/></g></svg>