<svg width="96" height="80" viewBox="0 0 96 80" xmlns="http://www.w3.org/2000/svg"><title>BB9A4BB9-1A5D-4E79-92B9-D2AF8B16FCF3</title><g fill="none" fill-rule="evenodd"><path d="M0-8h96v96H0z"/><path d="M17 17h63" stroke="#F8F8F8" stroke-width="2" stroke-linecap="round" stroke-linejoin="round"/><path d="M22.423 13.029a1.5 1.5 0 1 1-3.001-.001 1.5 1.5 0 0 1 3 0m5.001.001a1.5 1.5 0 1 1-3.001-.001 1.5 1.5 0 0 1 3 0m5.001.001a1.5 1.5 0 1 1-3.001-.001 1.5 1.5 0 0 1 3 0" fill="#FFF"/><path d="M69 36H29m40 8H29m23-16H29m51 23V12c0-1.657-1.843-3-3.5-3h-57c-1.657 0-2.5 1.343-2.5 3v39" stroke="#FFF" stroke-width="2" stroke-linecap="round" stroke-linejoin="round"/><path d="M95 62.023a3.918 3.918 0 0 1-3.912 3.923H4.908A3.914 3.914 0 0 1 1 62.023v-56.6A3.914 3.914 0 0 1 4.908 1.5h86.18A3.918 3.918 0 0 1 95 5.423v56.6zM66.998 78.5c-5.837-1.744-10.642-2.479-11.383-8.78v-3.774H38.08v3.386c-.582 6.664-5.468 7.388-11.423 9.168h40.341zM2 51h93" stroke="#FFF" stroke-width="2" stroke-linecap="round" stroke-linejoin="round"/></g></svg>