<svg height="95" viewBox="0 0 77 95" width="77" xmlns="http://www.w3.org/2000/svg"><g fill="none" fill-rule="evenodd"><path d="m-10-1h96v96h-96z"/><g stroke="#fff" stroke-linecap="round" stroke-linejoin="round" stroke-width="2"><path d="m65.917 16a4.917 4.917 0 1 1 -9.834 0 4.917 4.917 0 0 1 9.834 0z"/><path d="m74.74 13.84h-3.718a10.153 10.153 0 0 0 -1.41-3.395l2.631-2.631a1.26 1.26 0 0 0 0-1.784l-1.272-1.272a1.264 1.264 0 0 0 -1.785 0l-2.63 2.632a10.202 10.202 0 0 0 -3.395-1.412v-3.716c0-.696-.565-1.262-1.261-1.262h-1.798c-.696 0-1.26.566-1.26 1.262v3.716a10.216 10.216 0 0 0 -3.396 1.412l-2.632-2.632a1.261 1.261 0 0 0 -1.783 0l-1.271 1.272a1.26 1.26 0 0 0 0 1.784l2.63 2.63a10.196 10.196 0 0 0 -1.412 3.396h-3.717a1.26 1.26 0 0 0 -1.26 1.262v1.798a1.26 1.26 0 0 0 1.26 1.26h3.717c.265 1.23.75 2.375 1.411 3.396l-2.63 2.632a1.258 1.258 0 0 0 0 1.782l1.271 1.274a1.261 1.261 0 0 0 1.783 0l2.632-2.631a10.256 10.256 0 0 0 3.395 1.41v3.716c0 .696.565 1.263 1.261 1.263h1.799c.697 0 1.262-.567 1.262-1.263v-3.715a10.242 10.242 0 0 0 3.394-1.411l2.631 2.63a1.264 1.264 0 0 0 1.785 0l1.272-1.273a1.258 1.258 0 0 0 0-1.782l-2.63-2.632a10.153 10.153 0 0 0 1.41-3.395h3.717a1.26 1.26 0 0 0 1.259-1.261v-1.798a1.26 1.26 0 0 0 -1.26-1.262z"/><path d="m45 2h-41.273a2.727 2.727 0 0 0 -2.727 2.726v86.545a2.727 2.727 0 0 0 2.727 2.729h69.546a2.727 2.727 0 0 0 2.727-2.728v-60.272m-75-19h39"/></g><path d="m8.256 7.028a2 2 0 1 1 -4.002-.001 2 2 0 0 1 4.002.001m6 0a2 2 0 1 1 -4.002-.001 2 2 0 0 1 4.002.001m6 0a2 2 0 1 1 -4.002-.001 2 2 0 0 1 4.002.001" fill="#fff"/><path d="m66 39h-55m55 9h-55m55 8h-55m55 9h-55m31-35h-31m31 44h-31" stroke="#fff" stroke-linecap="round" stroke-linejoin="round" stroke-width="2"/></g></svg>