<svg width="78" height="77" viewBox="0 0 78 77" xmlns="http://www.w3.org/2000/svg"><title>Bubble</title><g fill="none" fill-rule="evenodd"><path d="M1.71 74.123S7.274 57.91 6.97 57.397c-.03-.05-.054-.097-.082-.14A37.27 37.27 0 0 1 1.841 38.5C1.84 17.79 18.628 1 39.335 1c20.712 0 37.5 16.79 37.5 37.5S60.047 76 39.335 76a37.353 37.353 0 0 1-20.765-6.282.213.213 0 0 1 .032.025L1.71 74.123z" stroke="#FFF" stroke-width="2" stroke-linecap="round" stroke-linejoin="round"/><path d="M25.168 38.917a3.75 3.75 0 1 1-7.5 0 3.75 3.75 0 0 1 7.5 0M42.882 38.917a3.75 3.75 0 1 1-7.5 0 3.75 3.75 0 0 1 7.5 0M60.597 38.917a3.75 3.75 0 1 1-7.5 0 3.75 3.75 0 0 1 7.5 0" fill="#FFF"/></g></svg>