<svg height="77" viewBox="0 0 78 77" width="78" xmlns="http://www.w3.org/2000/svg"><g fill="none" fill-rule="evenodd"><path d="m1.71 74.123s5.564-16.213 5.26-16.726c-.03-.05-.054-.097-.082-.14a37.27 37.27 0 0 1 -5.047-18.757c-.001-20.71 16.787-37.5 37.494-37.5 20.712 0 37.5 16.79 37.5 37.5s-16.788 37.5-37.5 37.5a37.353 37.353 0 0 1 -20.765-6.282.213.213 0 0 1 .032.025z" stroke="#fff" stroke-linecap="round" stroke-linejoin="round" stroke-width="2"/><path d="m25.168 38.917a3.75 3.75 0 1 1 -7.5 0 3.75 3.75 0 0 1 7.5 0m17.714 0a3.75 3.75 0 1 1 -7.5 0 3.75 3.75 0 0 1 7.5 0m17.715 0a3.75 3.75 0 1 1 -7.5 0 3.75 3.75 0 0 1 7.5 0" fill="#fff"/></g></svg>